<svg width="1440" height="130" viewBox="0 0 1440 130" fill="none" xmlns="http://www.w3.org/2000/svg">
<path d="M1440 6.22631V2.06381C1439.65 2.21109 1439.18 2.31966 1438.65 2.37568C1438.12 2.43171 1437.55 2.43267 1437.02 2.37845C1436.71 2.59076 1437.46 1.63425 1437.34 1.82738C1435.77 1.69181 1434.99 2.18295 1433.83 2.38375C1433.58 2.42596 1432.75 2.50144 1432.84 2.74701C1432.87 2.83782 1433.76 2.85444 1433.05 3.00281C1432.6 3.0949 1432.36 2.93629 1432.14 2.85188C1431.19 2.48864 1432.38 2.4298 1432.89 2.27504C1432.09 2.09854 1431.39 2.13307 1431.1 2.43876C1430.82 2.74444 1430.17 2.79433 1429.51 2.70224C1428.63 2.57434 1427.53 2.99513 1426.81 2.5641C1426.81 2.5641 1426.41 2.59481 1426.4 2.62167C1426.16 3.22792 1425.11 2.94397 1424.24 2.85828C1423.23 3.12432 1422.48 2.79049 1421.61 2.73038C1422.67 3.29826 1421.3 2.24198 1420.42 2.33023C1420.05 2.06419 1421.32 3.15501 1420.94 2.90176C1420.01 2.802 1419.37 1.88003 1418.62 2.16397C1418.28 2.29187 1417.43 2.73933 1416.39 2.87619C1416.04 2.90828 1415.73 1.9766 1415.49 2.07187C1415.22 2.23686 1414.99 2.39162 1414.11 2.43894C1414.84 2.15244 1414.11 2.89025 1414.42 2.62677C1413.02 2.89153 1413.05 1.89154 1413.1 2.38652C1413.12 2.47952 1413.05 1.57269 1412.89 1.64852C1412.73 1.72435 1412.49 1.77762 1412.23 1.79836C1411.53 1.82905 1411.52 1.79836 1411.48 2.07207C1410.09 1.86231 1410.11 1.88917 1408.48 2.09254C1407.63 2.19614 1406.71 2.34833 1405.76 2.22938C1405.35 2.17694 1404.82 2.31125 1404.55 2.15521C1404.28 1.99917 1405.15 1.9416 1405.08 1.76254C1404.25 1.79579 1403.88 1.95439 1404.06 2.16159C1404.48 2.62715 1405.82 2.24602 1406.57 2.44299C1405.54 2.75251 1404.61 2.65018 1403.47 2.46472C1402.68 2.33682 1401.49 2.10021 1400.69 2.40973C1399.9 2.71925 1399.16 2.7589 1398.25 2.45193C1398.07 2.97505 1398.37 2.3012 1399.93 2.3319C1400.04 2.3319 1400.14 1.47003 1400.24 1.54294L1399.49 1.67084C1397.97 1.32934 1397.99 1.3319 1396.91 1.62224C1396.84 1.63872 1396.75 1.64881 1396.66 1.6517C1396.57 1.65458 1396.48 1.65019 1396.39 1.63886C1395.46 1.45724 1394.59 1.3255 1393.9 1.76677C1393.81 1.82176 1393.15 1.76677 1393.33 1.63886C1393.74 1.35876 1393.33 1.36771 1392.87 1.47771C1392.41 1.5877 1391.96 1.56723 1391.48 1.58642C1390.87 1.61072 1390.68 1.71432 1391.1 1.9228C1391.31 2.0264 1390.52 1.25407 1391.75 1.26174C1392.98 1.26942 1394.35 1.08012 1395.74 1.48045C1394.4 1.48045 1393.28 1.39349 1392.36 1.50604C1391.45 1.61859 1391.48 1.7337 1391.15 1.5815C1390.2 1.14408 1389.18 1.16198 1387.97 1.43569C1387.58 1.49854 1387.16 1.54162 1386.73 1.56359C1386.98 1.61987 1387.45 1.69149 1387.44 1.73241C1387.38 1.89997 1386.63 1.76695 1386.41 1.98822C1386.3 2.09438 1386.04 1.91149 1385.97 1.8258C1385.57 1.38965 1384.92 1.58149 1384.43 1.78102C1383.85 2.01764 1383.77 2.05857 1383.43 1.85393C1382.72 1.4229 1381.61 1.39604 1380.41 1.40499C1382.19 1.44976 1382.58 2.19543 1384.14 2.35403C1381.89 2.25043 1380.6 1.4715 1378.32 1.41778C1378.05 1.82451 1378.05 1.82962 1376.82 1.80149C1376.35 1.79125 1376.32 1.88974 1376.34 1.9959C1376.35 2.10206 1376.57 2.28624 1376.29 2.27217C1374.54 2.18648 1374.16 2.84645 1372.84 2.97563C1372.57 2.6239 1372.01 2.66995 1371.34 2.84773C1369.91 2.87331 1368.67 2.44739 1367.09 2.69168C1366.54 2.77737 1366.6 2.50878 1366.66 2.37576C1366.87 1.91148 1366.3 1.73626 1364.97 1.82452C1364.3 1.56871 1363.57 1.54441 1362.65 1.69661C1362.01 1.80277 1361.4 1.97287 1360.58 1.65184C1359.16 1.09802 1358.01 1.21186 1357.06 1.93323C1357.71 1.96904 1358.52 1.70173 1359.02 2.04834C1358.32 2.0573 1357.89 2.20438 1357.39 2.33356C1357.15 2.39751 1356.61 2.42564 1356.67 2.30797C1356.89 1.89869 1356.11 2.10205 1355.78 2.13531C1355.2 2.19542 1354.68 2.32332 1354.1 2.39111C1353.4 2.47297 1352.48 2.58424 1352.05 2.34379C1351.45 2.00357 1352.88 2.02788 1353.31 1.74394C1352.37 1.88207 1351.48 1.72091 1350.77 1.93579C1350.06 1.98311 1349.34 1.88334 1348.54 2.07392C1349.46 2.23507 1350.07 2.25171 1350.76 1.95498L1351.21 2.01637C1350.93 2.19799 1351.08 2.51262 1349.87 2.36042C1348.92 2.24261 1347.9 2.22391 1346.92 2.30671C1346.83 2.088 1347.67 2.10461 1347.48 1.87694C1346.25 1.85008 1345.4 2.17241 1344.37 2.31821C1342.87 2.53309 1342 2.19031 1340.93 1.96392V1.97033C1340.38 1.57127 1338.92 1.70045 1338.17 1.4114C1337.81 1.77975 1336.78 1.85521 1335.97 2.033C1335.78 2.07392 1336.17 2.36041 1335.41 2.30797C1334.92 2.27472 1334.76 2.11612 1334.83 1.95752C1334.9 1.79892 1334.86 1.66335 1334.1 1.60835C1334.36 1.97543 1333.61 2.50367 1333.32 2.46402C1332.26 2.30926 1330.82 2.71983 1330.1 2.20822C1328.67 2.79145 1325.83 2.47937 1324.65 3.21353C1323.12 3.08563 1321.9 3.49746 1320.44 3.49363C1319.82 3.49363 1318.96 3.5205 1319.83 3.84153C1320.06 3.92467 1320.13 3.96942 1319.8 4.02058C1319.56 4.05895 1319.23 1.17407 1319.05 4.01035C1318.72 3.68165 1317.46 3.65863 1317.25 3.19946C1316.23 3.89652 1314.83 2.9528 1313.24 2.66374C1312.96 2.93234 1314.22 2.96815 1313.71 3.17535C1313.33 3.32755 1312.8 3.20221 1312.31 3.17535C1311.31 3.11524 1308.76 3.57312 1308.39 3.78032C1308.13 3.92357 1309.46 3.0924 1308.31 3.13205C1307.47 3.16147 1307.65 3.87624 1307.51 3.70997C1307.14 3.25208 1307.05 3.23929 1305.69 3.45417C1305.91 3.57312 1306.64 3.43499 1306.64 3.70103C1305.77 3.84811 1304.53 2.45545 1303.82 2.88392C1303.79 2.89926 1303.2 3.85707 1303.17 3.81358C1302.48 3.00908 1301.13 3.37872 1299.76 3.54499C1299.29 3.60254 1298.18 4.0195 1297.88 3.3493C1297.8 3.16 1296.43 2.64456 1294.81 2.82234C1295.94 2.77118 1295.89 3.13186 1296.37 3.30069C1296.56 3.3672 1297.04 2.40173 1296.75 2.53347C1296.46 2.66521 1296.09 2.58207 1295.79 2.49765C1295.22 2.33649 1294.71 3.13697 1293.91 3.05768C1293.84 3.37615 1294.47 2.458 1294.95 2.59486C1294.38 2.70613 1293.9 2.88904 1293.38 2.58591C1292.86 2.28278 1292.16 2.44011 1292.25 2.63964C1292.35 2.89544 1292.28 2.97346 1291.63 2.89544C1291.28 2.85707 1291.15 2.66392 1290.56 2.72276C1290.1 2.78341 1289.67 2.86987 1289.3 2.97856C1289.24 2.98958 1289.18 2.99675 1289.12 2.99962C1289.06 3.0025 1289 3.00101 1288.93 2.99527C1288.87 2.98953 1288.82 2.97965 1288.77 2.96623C1288.72 2.9528 1288.68 2.93611 1288.65 2.91717C1288.6 2.8767 1288.57 2.83334 1288.56 2.78927C1288.51 2.7023 1288.94 2.48359 1288.19 2.58591C1288.08 2.59699 1287.99 2.61538 1287.9 2.63995C1287.82 2.66451 1287.75 2.69471 1287.7 2.72861C1287.66 2.76252 1287.63 2.7994 1287.63 2.83692C1287.62 2.87444 1287.64 2.91178 1287.69 2.94659C1287.85 3.141 1288.59 3.08856 1288.75 3.28681C1287.52 3.28681 1286.4 3.33158 1285.23 3.07194C1284.06 2.8123 1283.08 3.26634 1282.03 3.39424C1281.56 3.45052 1281.86 3.81888 1282.15 4.03375C1280.14 4.12456 1278.13 1.68734 1276.04 1.07341C1276.52 1.47246 1277.46 3.60292 1278.67 3.49037C1279.79 3.38549 1280.88 3.43025 1282.01 3.48013C1280.21 3.7257 1278.23 1.65664 1276.43 1.87408C1275.54 1.09643 1274.56 1.80501 1273.6 1.84466C1271.61 1.92524 1271.84 1.45219 1271.8 1.88194C1271.8 2.09682 1271.8 1.20681 1271.12 1.20426C1270.4 1.19906 1269.68 1.2149 1268.97 1.25158C1269.57 1.02264 1270.32 1.03669 1271.04 1.01623C1270.97 0.943456 1270.86 1.87686 1270.7 1.82147C1270.55 1.76608 1270.36 1.72334 1270.15 1.69648C1269.92 1.50206 1269.92 1.50206 1268.95 1.69648L1270.15 1.69648C1268.43 2.18506 1266.83 1.29761 1266.08 0.984254C1265.72 0.469207 1264.23 2.02538 1263.42 1.72993C1262.43 1.37053 1261.31 1.51249 1260.09 1.36796C1260.69 1.75166 1261.72 1.46133 1262.6 1.77469C1259.8 1.69028 1257.29 1.81563 1255.18 1.18763C1256.26 1.78493 1255.07 1.69923 1254.25 1.7133L1254.35 1.6954C1254.23 1.70274 1254.11 1.70744 1253.98 1.70946C1252.65 1.30018 1251.52 1.91922 1250.17 1.81946C1250.32 1.64679 1251.01 1.67366 1251.02 1.46006C1250.07 1.52145 1249.11 1.58795 1248.24 1.40122C1248.01 1.64167 1248.8 1.65703 1248.76 1.82842C1247.51 1.90516 1246.34 1.59818 1245.05 1.75166C1244.98 1.87957 1245.8 2.86806 1245.53 3.00747C1245.26 3.14688 1244.85 3.07781 1244.54 3.00747C1243.02 2.6762 1241.89 1.93968 1240.68 2.26327C1241.5 2.42315 1241.98 3.28885 1242.44 3.13537C1243.03 2.94224 1243.5 3.07271 1244.15 3.15968C1241.27 3.46409 1239.87 1.55125 1236.61 1.48474C1238.26 1.99635 1239.51 1.20464 1241.02 1.39265C1239.82 1.63695 1238.67 1.8467 1238.22 2.33017C1238.09 2.47853 1237.85 2.62178 1237.28 2.35702C1236.87 2.1575 1235.98 2.26878 1234.89 2.28157L1236.07 2.44144C1234.65 2.31354 1233.33 2.8034 1231.89 2.51818C1231.83 2.65376 1231.54 2.82771 1231.23 2.73178C1230.3 2.45423 1229.16 2.60388 1228.22 2.48876C1226.65 2.28796 1227.44 0.695963 1227.44 0.932581C1226.81 0.793168 1226.28 2.73178 1226.01 2.60516C1225.01 2.14599 1224.71 1.37493 1223.66 1.74457C1223.61 1.73745 1223.57 1.72543 1223.54 1.71003C1223.03 1.42192 1222.23 1.20943 1221.29 1.1153C1221.29 1.33146 1221.92 1.42865 1222.23 1.61283C1221.38 1.66527 1220.6 1.35702 1219.91 1.64608C1219.53 1.7305 1218.41 1.43121 1218.78 1.90188L1216.46 0.997811C1216.48 0.648639 1217.92 1.92492 1217.83 1.5783C1217.78 1.36343 1216.97 1.5054 1216.75 1.35064C1217.25 1.14983 1218.15 1.39795 1218.58 1.13575L1216.16 1.13575C1215.83 1.39156 1215.69 1.70237 1214.63 1.28541C1213.88 0.997628 1213.18 1.51947 1212.29 1.43122C1212.23 1.43082 1212.17 1.43608 1212.12 1.44644C1212.06 1.4568 1212.02 1.47188 1211.99 1.49008C1211.96 1.50828 1211.94 1.52893 1211.95 1.54986C1211.95 1.57079 1211.96 1.59122 1212 1.609C1212.56 2.02724 1211.9 1.07967 1210.87 1.05025C1210.26 1.03235 1209.65 1.05025 1208.93 1.05025C1209.42 1.24594 1210.5 2.06176 1210.52 2.41605C1209.32 2.78185 1207.77 1.74604 1206.42 1.27408C1205.82 1.06305 1205.2 1.91852 1204.35 1.90957C1203.89 1.90957 1203.35 0.931313 1203.49 1.13596C1203.64 1.3406 1204.04 1.21398 1204.36 1.15514C1204.49 1.13287 1204.63 1.1214 1204.77 1.12175C1204.91 1.1221 1205.05 1.13425 1205.17 1.15714C1205.29 1.18003 1205.4 1.21295 1205.48 1.25298C1205.55 1.29301 1205.6 1.33891 1205.61 1.38664C1205.64 1.64244 1204.95 1.80744 1204.32 1.89825C1204.11 1.93672 1203.87 0.95392 1203.63 0.9478C1203.39 0.94168 1203.17 1.9125 1202.98 1.86371C1202.84 1.645 1203.83 1.74732 1203.75 1.52733C1202.77 1.43907 1202.21 1.73582 1201.37 1.74605C1202.16 1.85988 1202.41 1.12974 1203.24 1.30752L1201.9 1.30752C1201.42 1.1566 1200.97 1.0287 1200.24 1.09904C1200.61 1.38682 1201.27 1.27939 1201.87 1.31393C1201.81 1.44183 1201.6 1.59914 1201.2 1.53391C1200.24 1.37787 1199.33 1.57868 1198.39 1.49171C1198.51 1.77054 1199.51 1.59148 1199.78 1.86007C1198.95 1.87322 1198.12 1.81518 1197.37 1.69123C1197.35 1.43543 1197.52 1.12207 1196.15 1.21544L1197.37 1.69123C1197.26 1.90227 1197.96 0.999485 1198.24 1.26296C1196.72 1.09669 1195.43 0.879245 1194.37 1.33074C1193.71 1.15296 1193.15 1.10691 1192.87 1.45864H1191.75C1191.88 1.58654 1192 1.71444 1192.12 1.84235C1190.74 1.78863 1189.94 1.3755 1188.75 1.20284C1189.26 1.20284 1189.78 2.21819 1190.01 1.9982C1189.37 1.92402 1189.08 1.02123 1188.72 1.19901C1186.94 0.837049 1189.56 2.90611 1189.1 2.63624C1188.14 2.48148 1187.79 2.98668 1186.91 2.94831C1186.5 2.76413 1186.16 2.62089 1185.3 2.82041L1186.83 2.94831C1186.28 3.14272 1185.57 1.04041 1184.92 1.06727C1184.45 1.08773 1183.71 1.00844 1183.63 1.21564C1183.41 1.78097 1182.02 1.31284 1181.45 1.53539C1180.87 0.979021 1179.83 1.4433 1179.01 1.40749C1178.68 1.3947 1178.26 1.11076 1178.04 1.40749C1177.85 1.63899 1178.84 1.4919 1178.95 1.64283C1177.98 1.9613 1177.23 1.57248 1176.36 1.57504C1175.86 1.77584 1175.19 1.68247 1174.57 1.70294C1173.99 1.58271 1173.82 1.3333 1173.07 1.39597C1173 1.39597 1172.88 1.47399 1172.91 1.4919C1173.18 1.67352 1173.7 1.68888 1174.48 1.71318C1174.42 1.84108 1173.8 0.898637 1174.08 1.09688C1174.36 1.29513 1173.76 1.20687 1173.57 1.24524C1173.53 1.25437 1173.49 1.2607 1173.44 1.26379C1173.4 1.26688 1173.35 1.26665 1173.31 1.26313C1173.27 1.25962 1173.22 1.2529 1173.19 1.24341C1173.15 1.23393 1173.12 1.22191 1173.1 1.20816C1171.97 0.696552 1171.97 0.69655 1171.12 1.22351C1170.37 1.19537 1169.53 1.40513 1168.87 1.0956C1168.87 1.09313 1168.87 1.09023 1168.87 1.08728C1168.87 1.08433 1168.87 1.08145 1168.87 1.07898H1168.84V1.08792L1168.81 1.08026C1168.82 1.07899 1168.82 1.0783 1168.83 1.0783C1168.83 1.0783 1168.84 1.07899 1168.85 1.08026C1169.03 1.07789 1169.2 1.05693 1169.35 1.02013C1169.62 0.938273 1170.39 2.14803 1170.26 1.86153C1170.18 1.70549 1169.73 1.74899 1169.35 1.75922C1168.04 1.7912 1166.57 0.548185 1165.54 1.06235C1165.36 1.1506 1164.65 1.14803 1164.31 1.04955C1164.14 0.723396 1165.66 2.04955 1165.2 1.73363C1164.85 1.49062 1164.24 1.67481 1163.8 1.77585C1163.35 1.87689 1162.92 0.991994 1162.48 1.10071C1161.11 1.04315 1161.68 1.29129 1162.08 1.44221C1162.37 1.55221 1163.05 1.50105 1163.23 1.69802C1161.59 1.90522 1160.34 1.53558 1159.13 1.31431C1157.02 0.944676 1157.08 0.890962 1155.49 1.62384C1155.41 1.66812 1155.29 1.70152 1155.14 1.71814C1155 1.73476 1154.85 1.73353 1154.7 1.71464C1154.33 1.67244 1154.58 1.58674 1154.66 1.51511C1154.8 1.38721 1154.91 1.25931 1155.12 1.02013C1153.31 1.40384 1151.85 2.01521 1149.36 1.47419C1151.04 2.16102 1148.53 1.97173 1148.37 2.27358C1148.36 2.29964 1148.31 2.32301 1148.25 2.33977C1148.19 2.35654 1148.12 2.36569 1148.04 2.36569C1147.96 2.36569 1147.89 2.35654 1147.82 2.33977C1147.76 2.32301 1147.72 2.29964 1147.71 2.27358C1147.5 1.87324 1146.55 2.06253 1145.95 1.97811C1144.14 1.72231 1142.51 2.12009 1140.79 2.1137C1139.87 1.68651 1139.14 1.94359 1138.4 2.16486C1139.17 2.11401 1139.95 2.0981 1140.74 2.11754C1140.87 2.26846 1141.6 2.18277 1141.65 2.38741C1139.86 2.33753 1138 2.49612 1136.19 1.93335C1136.94 2.71355 1136.59 1.85297 1133.53 2.26993C1132.98 2.11645 1133.86 1.88623 1133.31 1.74298C1133.06 1.67263 1132.49 1.54729 1132.49 1.70845C1132.49 2.68306 1129.62 1.84912 1128.97 2.38375C1128.94 2.40422 1128.71 2.35818 1128.72 2.27632C1128.72 1.9054 1128.14 2.67903 1127.09 2.67647C1126.05 2.67391 1125.84 1.98727 1125.66 2.33004L1124.43 1.81844C1123.84 2.19447 1123.51 2.69839 1121.83 2.27248C1121.53 2.19702 1120.99 2.29678 1120.63 2.40038C1120.13 2.53979 1119.58 2.54236 1118.92 2.48608C1119.3 2.32492 1120 2.38248 1120.12 2.16889C1119.57 2.11643 1118.98 2.13417 1118.47 2.21877C1118.23 2.25203 1117.92 2.31085 1117.75 2.14586C1117.41 1.80052 1117.1 2.57031 1115.59 2.54601C1114.6 2.52938 1114.13 1.73658 1113.37 1.75193C1112.89 1.59077 1112.47 1.59716 1111.95 1.73402C1112.48 1.92843 1112.89 1.72379 1113.35 1.75833C1112.98 2.01413 1112.13 2.23284 1113.11 2.52574C1111.51 2.62166 1111.73 1.74937 1110.05 2.00645C1110.03 1.71228 1110.97 2.74041 1111.18 2.49484C1109.24 2.63042 1108.05 2.22261 1106.1 2.21877C1106.25 1.97832 1107.16 2.01924 1107.19 1.82738C1105.31 1.34775 1103.57 1.36695 1102.1 2.01541C1101.24 1.67391 1100.16 1.7596 1099.05 1.81716C1099.82 1.97448 1100.81 2.02948 1100.97 2.39912C1100.85 2.40239 1100.72 2.40239 1100.6 2.39912C1099.87 2.36714 1099.34 2.5155 1098.72 2.59992C1097.42 2.77642 1097.94 2.47202 1098.16 2.284C1097.92 2.28375 1097.68 2.30029 1097.46 2.33261C1096.09 2.67922 1097.96 2.76491 1098.06 2.95421C1096.05 3.35198 1095.28 2.34538 1093.16 2.59223C1094.53 2.66258 1094.83 2.89665 1094.71 3.32128C1093.71 3.04374 1093.02 2.90432 1092.63 3.44918C1092.45 3.69603 1091.29 3.69475 1090.47 3.60138C1089.96 3.5451 1089.59 3.36093 1088.97 3.41849C1089.14 3.31361 1089.31 3.20745 1089.54 3.0642C1088.49 3.0335 1087.57 3.30082 1086.66 3.09617C1086.76 2.83014 1087.65 2.99385 1087.94 2.79944C1087.44 2.77513 1087.14 2.45027 1086.67 2.70991C1085.85 3.15373 1084.79 3.01048 1083.72 2.90816C1081.39 2.93246 1078.97 2.78025 1076.89 3.39418C1077.95 3.25349 1078.72 3.35198 1079.22 3.67429C1078.61 3.65255 1077.98 3.58859 1077.4 3.61545C1074.55 3.74335 1072.39 3.45429 1070.04 2.97594C1069.34 2.83269 1068.68 2.48481 1067.6 2.52574C1067.5 2.23284 1067.13 2.11773 1066.23 2.2354C1065.33 2.35307 1064.44 2.49121 1063.85 2.78154H1062C1062.66 2.61655 1063.57 2.6677 1064 2.38759C1064.05 2.36658 1064.08 2.34231 1064.1 2.31641C1064.12 2.29052 1064.12 2.26362 1064.11 2.23754C1064.09 2.21145 1064.06 2.1868 1064.01 2.16525C1063.97 2.14369 1063.91 2.12573 1063.84 2.1126C1063.79 2.10002 1063.73 2.09242 1063.67 2.0906C1063.6 2.08879 1063.54 2.09284 1063.49 2.10231C1063.43 2.11179 1063.38 2.12633 1063.35 2.14438C1063.31 2.16242 1063.3 2.18328 1063.29 2.2047C1063.09 2.66899 1062.54 2.45154 1062.01 2.28783C1061.49 2.12411 1060.94 1.9668 1060.39 1.80309C1059.62 2.16121 1061.34 2.27888 1060.98 2.58329C1059.85 2.51934 1059.1 2.11773 1057.85 2.24819C1057.64 2.26993 1057.29 2.26225 1057.54 2.13307C1057.75 2.02691 1057.83 1.92715 1057.48 1.86448C1057.01 1.77879 1056.87 1.94249 1056.65 2.0333C1056.43 2.12411 1055.98 2.18552 1055.83 2.12413C1054.54 1.57543 1053.84 2.12413 1052.95 2.33517C1052.76 1.79158 1052.76 1.79158 1051.65 2.05889C1051.6 2.06833 1051.55 2.07686 1051.5 2.08447C1050.82 1.6317 1049.41 2.09471 1048.5 1.78902C1048.3 1.72381 1048.06 2.67343 1047.81 2.64118C1047.55 2.60893 1047.27 2.59551 1047 2.60178C1046.72 2.60804 1046.46 2.63387 1046.21 2.67758C1045.97 2.72128 1045.76 1.78192 1045.59 1.85553C1044.98 2.14076 1044.8 2.37992 1043.75 2.08831C1043.09 2.42469 1041.45 2.23922 1041.03 2.62421C1040.61 3.00919 1039.85 2.88002 1039.05 2.90048C1039.34 2.68689 1040.5 2.86979 1040.25 2.45667C1039.41 2.55515 1038.32 2.40806 1038 2.84037C1037.62 3.31361 1036.77 3.03862 1036.05 3.022C1035.99 3.04263 1035.94 3.06769 1035.9 3.09549C1035.87 3.12329 1035.85 3.15318 1035.86 3.18314C1036.72 3.98253 1035.01 3.66406 1034.05 3.66917C1033.6 3.66917 1033.14 3.48116 1032.68 3.66917C1032.58 3.75103 1032.71 3.79707 1032.91 3.79707C1034.1 3.84951 1033.45 4.15265 1033.26 4.24857C1032.63 4.56065 1032.69 4.24856 1032.46 4.12834C1032.42 4.10457 1032.36 4.08556 1032.29 4.07402C1032.22 4.06248 1032.13 4.05903 1032.06 4.06415C1031.98 4.06927 1031.91 4.0827 1031.85 4.10251C1031.8 4.12232 1031.76 4.14748 1031.76 4.17438C1031.42 4.71284 1030.66 4.32659 1030.04 4.3138C1030.14 4.00556 1031.72 4.07718 1031.23 3.67429C1031.4 3.62185 1031.67 3.57837 1031.73 3.51314C1031.85 3.38523 1031.51 3.34687 1031.23 3.30722C1031.01 3.31361 1030.66 3.28035 1030.77 3.41465C1030.89 3.50696 1031.05 3.59309 1031.23 3.67045C1029.78 3.78684 1028.23 4.31764 1026.95 3.56174C1026.88 3.51569 1026.35 3.5336 1026.06 3.56174C1025.69 3.59883 1026.55 0.900677 1025.66 0.83161C1025.19 0.794518 1025.32 3.58732 1025.21 3.4479C1024.97 3.10769 1024.68 2.79944 1023.34 3.10768C1022.36 3.33151 1021.84 3.29059 1020.31 2.96955C1021.76 2.98618 1023.28 3.09745 1024.43 2.67921C1023.53 2.55131 1022.89 2.89665 1021.94 2.80712C1021.08 2.73165 1020.31 2.67921 1019.8 2.40166C1019.74 2.37096 1019.32 2.40167 1019.1 2.42981C1018.65 2.49376 1018.31 2.6677 1017.77 2.63061C1016.3 2.53085 1017.85 2.40551 1017.74 2.30063C1017.7 2.26993 1017.4 2.26737 1017.22 2.26225C1016.65 2.24691 1016.22 2.32493 1016.14 2.52702C1016.06 2.7291 1016.63 2.7227 1016.99 2.79177C1017.41 2.87362 1018.06 2.82886 1018.32 3.0156C1016.21 3.2471 1015.17 2.59479 1013.55 2.41957C1014.09 2.07168 1015.02 2.41958 1015.88 2.25331C1014.88 2.07041 1013.61 1.83251 1013.11 2.07936C1012.27 2.50016 1011.75 2.29806 1011.08 2.13051C1010.49 1.9847 1010.53 1.97575 1010.08 2.13051C1010.01 2.14484 1009.93 2.15344 1009.84 2.15565C1009.76 2.15786 1009.67 2.15365 1009.59 2.14331C1008.88 2.05378 1008.33 2.91435 1008.38 2.61634C1010.04 2.61634 1011.43 1.53577 1012.23 2.08831C1011.71 1.40787 1011.48 2.35926 1008.32 2.58821C1007.7 2.30427 1005.79 2.48589 1006.07 1.83743C1005.15 1.98579 1004.71 2.34904 1003.68 2.38869C1003.51 2.23009 1004 1.93336 1003.09 1.9551C1002.27 1.97429 1002.76 2.21091 1002.79 2.35927C1002.79 2.4552 1003.06 2.5767 1002.55 2.60868C1002.13 2.63554 1002.14 2.5767 1001.99 2.43217C1001.61 2.08428 999.85 1.98067 998.965 2.2045C998.747 2.26078 998.342 2.33241 998.609 2.45136C998.811 2.53207 999.095 2.58408 999.404 2.59717C1000 2.61891 999.651 2.50891 999.602 2.41554C999.482 2.20067 1000.01 2.24416 1000.33 2.25439C1000.45 2.2583 1000.57 2.27108 1000.67 2.29184C1000.78 2.3126 1000.87 2.34085 1000.94 2.37462C1001.15 2.52683 1000.75 2.60995 1000.45 2.67007C999.647 2.82611 998.571 2.79797 998.196 2.58565C997.446 2.14567 996.321 2.20195 995.173 2.14951C994.563 2.13324 993.95 2.15447 993.362 2.21219C992.702 2.26079 992.882 2.10218 992.987 1.98068C991.993 2.06125 991.299 2.45009 989.986 2.248C989.236 2.13289 988.186 1.88091 987.65 2.41298C987.425 2.63297 985.996 2.07021 986.056 2.64321C984.987 2.5895 983.925 2.56007 982.976 2.79541C982.976 2.79541 982.89 2.76855 982.853 2.75193C982.448 2.57926 981.99 2.67135 981.728 2.77239C981.131 2.99878 981.986 2.96935 982.223 3.04993C982.459 3.13051 982.797 3.2597 982.538 3.37993C982.118 3.57562 981.806 3.39654 981.499 3.30446L979.695 2.77367C979.32 3.09343 980.017 3.20342 980.299 3.37353C980.33 3.40085 980.341 3.43033 980.332 3.45949C980.323 3.48865 980.294 3.51664 980.246 3.54109C980.089 3.61143 979.912 3.61783 979.661 3.54109C978.821 3.27505 977.973 3.06017 976.661 3.23412C976.211 3.29295 975.468 3.16249 974.943 3.06656C974.418 2.97063 973.398 3.04482 972.745 3.27504C972.093 3.50526 972.25 2.64724 973.075 2.78665C973.518 2.86211 973.93 3.01943 973.357 3.38011C972.779 2.79432 971.598 2.75979 970.304 2.75467C969.351 2.75467 968.867 3.55003 969.298 3.16121L967.491 3.45155C967.491 3.59096 968.905 2.48096 968.038 2.70735C967.172 2.93373 966.418 3.3379 965.139 3.21896C964.922 2.83525 963.815 3.10001 963.2 2.93502C963.178 3.23175 964.018 3.07826 964.119 3.26756C962.064 3.39546 960.522 2.79177 958.141 2.90176C958.951 2.72526 958.526 2.83586 958.5 2.4982C956.644 2.46622 956.528 0.85699 954.75 1.08721C955.662 1.31744 956.404 1.59882 954.96 1.72672C953.869 1.82265 952.421 1.62568 951.652 1.48755C950.152 1.21895 948.975 1.31744 947.621 1.41209C947.97 1.68581 948.515 1.92512 949.207 2.10788C947.759 1.98893 946.627 1.43128 945.929 2.15008C945.869 2.20892 945.4 2.02217 945.149 1.9352C944.166 1.5937 943.176 1.25349 941.526 1.41593C941.74 1.67173 942.85 1.39419 942.906 1.67173C942.625 1.87893 941.954 1.69987 941.646 1.84952C941.796 1.97742 942.467 1.83417 942.456 1.97742C942.137 2.34066 941.042 1.86102 940.772 2.2703L942.385 2.32531C941.721 2.37647 941.35 2.78448 940.386 2.45321C939.021 1.99149 937.07 1.9237 935.274 2.1859C935.161 2.19465 935.043 2.19529 934.929 2.18781C934.815 2.18032 934.706 2.16486 934.61 2.1424C933.691 1.93392 932.96 2.10659 932.199 2.2588C931.745 2.34833 930.995 2.68471 931.212 2.1309C930.087 2.15008 929.48 1.42616 928.174 1.82649C928.654 2.28566 928.883 2.79599 930.646 2.91493C929.45 2.97249 928.797 2.69879 927.923 2.60414C926.46 2.44298 925.174 2.12194 923.625 2.03497C923.37 2.24601 922.875 2.29077 922.459 2.1424C921.69 1.85846 920.688 1.56685 920.452 1.22408C920.216 0.8813 919.702 1.90816 919.053 1.88385C917.662 1.83141 916.698 1.24582 915.378 1.26756C915.319 1.29873 915.24 1.325 915.148 1.34441C915.055 1.36382 914.951 1.37588 914.843 1.37969C914.735 1.3835 914.626 1.37895 914.523 1.36641C914.421 1.35386 914.329 1.33364 914.253 1.30722C913.442 1.08467 912.576 2.11919 911.65 2.21511C912.921 2.21511 913.855 1.43128 914.751 1.68964C914.091 1.67115 913.44 1.62562 912.812 1.55406C911.312 1.3993 909.268 1.05141 908.263 1.25349C905.941 1.72161 903.931 1.41465 901.782 1.32C901.58 1.31105 901.407 1.32 901.351 1.3993C901.433 1.59115 902.322 1.4786 902.363 1.73568C901.706 1.74899 901.056 1.68436 900.522 1.55278C900.272 1.48556 899.958 1.4524 899.641 1.45972C899.323 1.46705 899.025 1.51435 898.804 1.59243C898.178 1.78045 898.017 1.79196 897.432 1.54511C896.798 2.43147 895.181 1.45942 894.229 1.75359C894.026 1.93138 895.144 1.92882 894.679 2.16799C893.745 2.05032 892.308 2.05672 893.647 1.52848C892.818 1.49907 891.772 2.00556 891.138 1.41593C891.097 1.38012 890.583 1.40442 890.283 1.40186C889.968 1.20106 889.571 1.1192 888.715 1.23942C889.316 1.43256 889.811 1.39163 890.272 1.40186C889.713 1.68836 888.843 1.71905 887.95 1.72928C888.22 1.14093 886.885 1.47348 886.293 1.40825C885.505 1.34619 884.705 1.30345 883.9 1.28035C881.698 1.42615 879.939 1.89665 877.861 1.80968C877.13 1.78154 876.736 1.69841 875.12 1.87619C874.16 1.98107 874.49 1.18059 874.599 1.40442C872.757 1.05269 872.645 1.05524 871.666 1.47732C871.291 1.6372 871.197 1.6436 870.818 1.44918C870.552 1.31361 870.034 1.96188 869.903 2.05269C869.228 2.51186 867.866 1.17035 867.079 1.39418C866.422 1.24454 865.83 1.04629 865.042 1.39418L867.071 1.39418L867.026 1.40697C866.419 1.66277 865.474 1.43767 864.577 1.63208L866.284 1.6858C865.552 2.16927 864.874 2.23578 864.131 1.73568C863.538 1.33791 862.301 1.44407 861.322 1.35198C861.123 1.33407 860.977 1.38139 860.973 1.46069C861.277 1.63336 862.124 1.41465 862.323 1.66917C862.038 1.87126 861.389 1.71778 861.033 1.83673C861.138 1.98766 861.926 1.84823 861.828 2.01706C861.644 2.34193 860.557 1.96719 860.189 2.2166C860.621 2.40717 861.378 2.19613 861.821 2.37135C861.194 2.49925 860.804 2.88296 859.915 2.49925C859.432 2.29205 859.417 2.34705 858.655 2.52739C858.194 2.6361 857.178 2.79982 856.964 2.64122C856.352 2.18333 855.28 2.59263 854.623 2.37519C855.268 2.61053 856.337 2.631 856.746 2.98529C855.501 3.18481 854.301 3.19376 852.516 2.99551L855.355 2.89959C855.084 2.83914 854.767 2.80713 854.443 2.8075C854.098 2.79215 853.753 2.84075 853.405 2.73587C852.591 2.49286 852.478 2.49797 852.279 2.83051C852.273 2.895 852.2 2.95666 852.074 3.00479C851.948 3.05291 851.777 3.08448 851.589 3.094C851.54 3.07845 851.481 3.06668 851.417 3.05946C851.161 2.93912 850.856 2.83225 850.509 2.74227C850.134 2.63739 849.688 2.4545 849.26 2.6374C848.833 2.8203 850.153 2.74611 849.868 2.98657C848.743 2.9418 847.756 2.54402 846.519 2.87145C846.376 2.90982 845.934 2.79471 845.862 2.62971C845.727 2.3138 844.913 2.35984 844.557 2.50181C843.773 2.8011 843.807 2.83437 843.214 2.49287C842.839 2.26776 842.157 2.30869 841.628 2.21916C841.606 2.21916 841.508 2.26647 841.407 2.30868L842.277 2.50438C841.786 2.64507 840.9 2.43274 840.533 2.76912C841.005 2.78703 841.369 2.7947 841.726 2.81645C842.082 2.83819 842.476 2.74994 842.704 2.90343C840.829 3.17842 839.524 3.01469 838.894 2.43018C838.71 2.42056 838.523 2.42056 838.339 2.43018C837.589 2.51204 836.512 2.04649 836.194 2.47752C835.818 2.98913 837.66 2.62588 838.163 2.93284C837.066 2.94478 835.973 2.97939 834.888 3.03645C834.078 3.08377 832.597 3.18736 832.979 2.55808C833.054 2.43018 832.526 2.41868 832.496 2.4417C832.03 2.79088 830.545 2.48391 830.107 2.89192L831.704 3.19249C829.668 3.19249 828.014 3.26156 826.454 3.57619C826.48 3.28841 827.271 3.39457 827.305 3.19249C826.671 3.10551 826.041 3.01982 825.37 2.93668L825.317 2.97122C825.307 2.96939 825.298 2.96676 825.291 2.96354C825.321 2.95597 825.347 2.94692 825.37 2.93668C824.244 2.51077 823.221 2.55298 821.938 3.12982C820.415 3.81793 819.748 3.01854 818.889 2.8868C817.861 2.7282 819.834 2.76785 819.369 2.49159C818.03 2.54914 816.537 2.79087 815.345 2.32915L815.862 2.29333C815.543 2.15264 815.386 1.54127 814.362 2.10276C813.338 2.66425 815.393 2.45321 815.528 2.82285C814.351 2.7103 812.569 3.08889 813.177 2.22172C813.289 2.06184 812.899 2.07591 812.637 2.02986C812.097 1.93522 811.238 1.85208 811.137 1.70883C810.761 1.22025 810.248 1.41976 809.453 1.56813C808.864 1.67812 807.502 1.8073 807.495 1.72672C807.439 1.09617 806.07 1.52592 805.451 1.39418C804.832 1.26244 803.868 1.60906 803.294 1.26628C802.447 1.24326 801.505 1.35837 800.77 1.19082C799.454 0.894089 798.029 0.863389 796.547 0.882574C796.412 1.4236 795.366 1.80219 793.824 1.71906C792.283 1.63592 791.574 1.65383 792.219 2.25113C792.245 2.27671 792.035 2.36879 791.942 2.36751C790.584 2.34833 789.095 2.60029 787.925 2.16031C787.415 2.04392 786.736 2.04649 786.297 1.86743C786.034 1.75999 785.723 1.73952 785.483 1.92498C784.936 2.3317 784.422 2.12579 783.923 1.89684C783.027 1.48756 781.905 1.2714 780.289 1.38523C780.638 1.62697 781.496 1.39802 781.635 1.55406C781.849 1.81882 779.861 1.69476 781.208 2.04137C780.874 2.28822 779.809 1.8444 779.584 2.26136L781.32 2.30868C779.445 2.86633 778.695 2.12195 777.427 2.02602L776.677 1.77022C775.904 2.04521 774.896 1.75615 774.052 1.89812C773.963 1.84467 773.853 1.79561 773.725 1.75231C773.493 1.68708 773.099 1.6244 773.133 1.79067C773.167 1.95695 773.684 1.88021 774.037 1.90323C774.149 2.03113 774.288 2.30357 773.752 2.18462C772.214 1.84184 771.126 2.23577 769.81 2.37007L770.286 1.8994C769.682 1.94929 768.786 2.2831 768.827 1.71138C768.827 1.58347 768.325 1.55662 767.923 1.62569C767.665 1.67046 767.361 1.86231 767.109 1.62569C766.701 1.24199 765.797 1.43767 764.994 1.38395C765.399 1.6129 766.299 1.66534 766.322 2.07079C764.447 1.60394 762.796 1.15373 760.546 1.25861C760.467 1.20172 760.379 1.14623 760.284 1.09233C760.074 0.983618 759.755 0.836531 759.665 1.09233C759.62 1.22024 760.152 1.24838 760.539 1.25861C761.049 1.55918 761.563 1.85974 762.155 2.21019C761.405 2.20252 760.854 2.13346 760.617 1.91347C760.404 1.71394 760.19 1.59756 759.594 1.77406C758.997 1.95057 757.973 1.46197 757.625 1.95183C757.598 1.99148 757.249 1.89939 757.069 1.83928C756.719 1.70323 756.245 1.61133 755.723 1.57838C755.202 1.54544 754.662 1.57337 754.193 1.65767C753.251 1.79964 752.085 1.73568 751.568 1.57453C750.866 1.35837 750.634 1.51952 750.555 1.63208C750.367 1.89811 751.132 1.70371 751.372 1.78685C751.481 1.82522 751.605 1.85975 751.766 1.91475C750.907 2.17055 749.587 1.86358 748.822 2.2767C750.697 2.2767 752.411 1.9301 754.354 2.08997C752.73 2.53891 750.604 2.29333 749.291 2.81517C748.89 2.5325 749.715 2.58623 749.666 2.44042C749.028 2.33299 747.367 2.56832 748.222 1.93904L744.745 2.13986C744.123 2.17695 743.579 2.11938 743.343 1.91858C742.814 1.47092 741.677 1.39929 740.489 1.27907C739.573 1.19081 738.553 1.21128 737.732 1.01303C738.332 0.825019 739.232 2.04885 739.765 1.70991C739.015 1.83781 738.126 0.498872 737.649 0.998968C736.562 0.871066 736.967 1.36733 736.299 1.41721C735.155 0.956763 735.155 0.956767 733.501 1.3085C733.779 0.825028 732.451 1.4733 730.276 1.50911C730.97 1.71887 731.911 0.841653 731.641 1.22664C731.506 0.576896 727.917 3.1128 728.881 2.07552C728.183 2.37993 728.131 2.30702 727.358 2.22772C726.788 2.17016 726.015 2.34539 725.273 2.42213C725.682 2.54236 726.229 1.42213 726.54 1.58329C725.7 1.94269 724.335 1.47329 724.121 1.59863C723.173 2.15501 721.924 1.90177 720.69 1.79561C720.87 2.07188 721.605 1.06036 721.976 1.22024C721.617 1.25697 721.239 1.26708 720.868 1.24987C720.497 1.23266 720.141 1.18853 719.823 1.12047C719.16 0.979656 718.382 0.914693 717.603 0.935017C716.89 0.951644 716.257 1.03095 717.119 1.3085C716.969 1.42129 716.714 1.51389 716.393 1.57176C716.071 1.62964 715.703 1.64951 715.345 1.62825C714.426 1.61034 712.84 1.66789 712.986 2.12962C713.117 2.54658 712.401 2.49031 711.977 2.4417C710.635 2.2895 708.677 2.81262 707.901 2.02602C707.901 2.01323 707.672 2.01195 707.563 2.02602C706.164 2.15393 704.604 2.04265 703.321 2.35856C702.774 2.48647 702.196 2.52228 701.615 2.3074C701.873 2.14752 702.766 2.20637 702.706 1.94801C701.581 2.1616 699.683 1.37755 699.034 2.30228L700.715 2.35984C699.214 2.78576 698.348 2.26648 696.754 2.10404C698.176 2.10404 698.757 1.93521 698.734 1.55406C698.179 1.56685 697.632 1.5822 697.084 1.59116C694.553 1.63592 692.208 1.35581 690.074 0.961872C689.096 0.780252 688.574 0.772582 687.614 0.951645C688.33 1.04629 689.167 0.772589 689.426 1.16525C689.624 1.46326 689.129 1.42744 688.627 1.43256C687.535 1.78429 686.98 1.77533 686.646 1.40058C686.23 0.931182 685.979 0.920952 684.816 1.13071C684.523 1.18942 684.19 1.22101 683.85 1.22236C683.51 1.2237 683.174 1.19475 682.877 1.13838C682.375 1.05799 681.844 0.99996 681.298 0.965712C681.231 0.965712 681.13 0.997687 681.055 1.01303C681.055 1.20745 681.85 1.09874 681.902 1.25989C681.426 1.49651 680.657 1.19978 680.087 1.43384C681.31 1.56174 680.432 2.01195 681.441 2.20125C680.053 2.32915 680.316 1.69859 679.393 1.7651C677.848 1.8751 676.393 1.95567 674.979 1.62185C674.885 1.60437 674.781 1.59483 674.674 1.59403C674.568 1.59323 674.462 1.60118 674.366 1.61724C674.271 1.6333 674.188 1.65699 674.125 1.68629C674.061 1.71558 674.02 1.74964 674.004 1.78557C675.751 1.91347 675.718 1.89939 674.81 2.36623C674.457 2.54657 674.686 0.724366 675.271 0.824129C675.676 0.893196 676.228 0.764018 676.719 0.987846C674.937 0.875293 673.385 1.21678 671.731 1.00958C672.552 1.1183 671.539 1.70665 673.062 1.59154C673.062 1.62991 673.107 1.68491 673.062 1.70281C672.938 1.74246 672.74 1.79875 672.608 1.78851C672.331 1.77365 672.071 1.73346 671.855 1.67221C671.639 1.61097 671.475 1.53094 671.382 1.44061C671.056 1.14388 670.448 1.204 669.882 1.29225C669.882 1.50713 670.527 1.42016 670.722 1.62864C669.488 1.35109 669.196 2.14024 667.939 1.83456C667.939 1.89595 667.977 1.96245 667.984 2.01873C668.014 2.185 667.699 2.23233 667.301 2.24896C667.21 2.19573 667.099 2.14672 666.971 2.10315C666.739 2.03792 666.345 1.97524 666.375 2.14151C666.405 2.30778 666.923 2.23104 667.275 2.25278C667.158 2.31543 666.987 2.36448 666.786 2.39347C666.586 2.42246 666.364 2.43005 666.15 2.41522C664.597 2.19523 663.288 2.36789 661.826 2.76567C661.998 2.36406 662.118 2.08652 662.238 1.81025C661.889 2.0264 660.817 2.02 660.948 2.36534C661.042 2.61091 660.093 2.52266 660.033 2.49324C659.032 1.99058 658.105 2.36535 657.16 2.50476C657.213 2.59557 657.464 2.7516 656.995 2.73625C656.341 2.71156 655.709 2.64102 655.139 2.52905C654.895 2.48045 655.199 2.33209 655.439 2.27325C657.213 1.83327 655.439 1.81025 654.816 1.66828C654.46 1.58642 654.122 1.69642 653.773 1.7527C653.773 1.7527 653.773 1.76675 653.755 1.77315C653.736 1.77954 653.755 1.76292 653.755 1.76036L653.788 1.7527C652.821 1.43038 652.179 1.49689 651.939 2.01745C650.987 1.60944 651.546 0.831798 649.082 0.914934C649.674 1.13237 650.417 1.22446 650.529 1.52503C650.627 1.78083 650.049 1.72456 649.738 1.78083C649.562 1.81664 649.232 1.87931 649.247 1.72839C649.247 1.61711 649.828 1.50329 649.367 1.39713C648.17 1.12342 647.221 0.680874 645.552 0.707733C645.308 0.610442 644.993 2.53645 644.639 2.49296C644.286 2.44948 643.905 2.43799 643.535 2.45961C643.403 2.45961 642.968 2.33171 643.025 2.56833C643.088 2.83436 642.698 0.89448 642.068 0.780647C640.617 0.524844 640.617 0.524832 639.15 0.705173C639.608 0.960977 640.542 0.732034 641.131 0.977606C640.558 0.937138 639.964 0.954559 639.42 1.02772C638.876 1.10089 638.407 1.2266 638.07 1.38944C637.935 1.01469 637.781 0.831804 636.57 0.921335C634.34 1.10683 632.004 1.07805 629.819 0.838196C629.598 0.812615 629.309 0.742263 629.17 0.767843C627.903 1.0019 627.441 0.700056 626.972 2.39949C626.38 2.01578 625.559 1.96974 624.535 2.19613C623.852 2.19613 623.132 2.16415 623.214 2.49669C623.004 2.49217 622.792 2.49909 622.588 2.51716H622.551C621.195 2.44724 619.81 0.51207 618.56 0.703894C618.091 0.527389 617.952 2.16415 617.06 2.22554C615.893 2.30612 615.935 1.9902 615.56 1.80858C614.787 2.08357 613.778 1.79451 612.953 1.93648C612.862 1.88361 612.752 1.83465 612.627 1.79067C612.391 1.72544 611.997 1.66278 612.03 1.82905C612.064 1.99532 612.582 1.91858 612.938 1.94161C613.047 2.06951 613.231 2.33427 612.649 2.22044C611.697 2.03498 610.924 2.11683 610.043 2.18078C609.533 2.21659 609.24 2.11427 609.184 1.93776C608.588 1.96718 607.489 2.41356 607.725 1.72672C607.747 1.65126 607.181 1.57965 606.776 1.67301C606.532 1.73057 606.251 1.89044 605.985 1.64871C605.583 1.28291 604.694 1.46326 603.869 1.4364C604.331 1.65383 605.246 1.70242 605.13 2.12834C603.727 1.46964 601.42 1.88405 599.931 1.43384C600.46 1.68197 600.175 1.99149 600.629 2.17055C599.35 2.33171 599.661 1.72162 598.754 1.75615C597.377 1.80987 596.035 1.98637 594.722 1.64999C594.159 1.50546 593.559 1.63464 592.888 1.77789L594.486 1.83545C592.854 2.66553 588.594 0.0209098 588.001 1.48411C587.555 1.05436 587.315 2.81774 587.075 2.58879C587.66 2.56577 588.14 2.62972 588.575 2.50821C588.05 2.41996 587.607 2.43531 586.85 2.6003L587.007 2.59134C585.631 2.93795 584.119 0.835642 582.63 0.697508C582.435 0.905988 583.486 0.927721 583.035 1.13492C581.449 0.898304 580.999 0.981446 579.746 1.33318C578.764 1.60816 577.215 1.2398 576.112 1.55188C576.037 1.13364 575.696 1.34469 575.321 1.5084C575.058 1.62095 574.668 1.61457 574.256 1.57875C574.331 1.37155 574.728 1.23725 575.208 1.04924C573.881 1.32806 573.085 0.577282 571.743 0.907269C572.047 1.0454 572.924 0.85354 572.954 1.15283C571.379 1.24236 570.014 1.02493 568.33 0.808781C570.243 1.58898 570.205 0.678513 568.33 0.831995C568.285 0.660607 569.29 1.60944 568.844 1.43805C568.183 1.18224 568.232 1.5877 567.823 1.60177C567.415 1.61584 566.98 1.74758 566.728 1.52375C566.541 1.3562 566.837 1.29609 567.212 1.24237C567.46 1.20784 567.827 1.27178 567.962 1.1362C566.777 0.866329 565.618 0.56576 564.065 0.991673L564.017 0.998074H563.987H564.065C563.188 0.593904 562.078 0.806218 561.009 0.916214C559.587 1.0633 558.177 1.11574 557.071 0.711575C556.392 0.464724 555.796 2.4238 555.076 2.65274C554.775 2.45705 555.488 2.29205 554.817 2.11043C554.794 2.36623 553.759 2.22682 553.763 2.48391C553.763 2.99551 555.222 0.76017 556.073 0.943069C554.903 1.01086 553.909 0.955859 552.934 1.07097C552.184 1.15666 551.003 1.02877 551.228 0.792154C551.708 0.280547 550.477 2.42635 550.162 2.45065C548.407 2.57855 548.111 0.928807 548.227 0.790673C548.726 0.209999 547.601 1.34686 546.806 1.32256C546.431 1.31105 545.939 1.43511 545.718 1.21768C545.433 0.941408 545.399 0.915839 544.495 1.03735C543.37 1.18955 543.663 1.00664 543.94 0.803274C543.115 0.803274 542.44 2.80328 541.994 2.45923C541.386 2.00134 540.272 1.9911 539.297 2.36969C538.967 2.49759 538.9 2.48352 538.382 2.36969C536.717 2.01412 535.693 1.31835 533.278 1.3273C532.186 1.3273 532.835 0.992198 533.233 0.800345C532.906 0.766722 532.554 0.777819 532.25 0.831305C531.947 0.884791 531.717 0.976457 531.609 1.08684C531.181 1.43474 530.547 1.5038 529.595 1.40404C528.038 1.2416 526.654 2.46286 525.567 2.6496C525.376 2.64129 525.182 0.646084 524.997 0.663681C524.198 0.535779 523.871 1.35032 523.23 1.36822C522.75 1.47694 524.201 0.70972 523.129 0.705883C522.27 0.705883 521.426 0.932268 520.845 0.833784C519.768 0.663675 519.311 1.35945 518.197 0.970633C517.672 0.787733 517.499 0.842732 517.567 1.16376C517.567 1.2162 517.803 2.28015 517.492 2.27376C516.232 2.2469 515.268 2.67282 513.944 2.53852C513.678 2.88258 513.276 2.83014 512.71 2.60376C511.795 2.2354 510.553 1.93866 509.335 2.30445C508.236 2.63444 507.197 2.43237 505.997 2.42597C507.696 2.29807 505.021 2.67007 506.634 2.57798C504.211 2.71612 504.088 1.77239 502.411 1.35543C500.911 0.971729 499.538 0.737665 497.719 1.06381C497.344 1.1316 497.412 1.01521 497.322 0.905217C497.103 0.628982 496.594 2.38995 495.891 2.23394C495.188 2.07792 494.34 2.01591 493.511 2.05979C493.271 2.06461 493.032 3.04113 492.836 2.99328C491.865 2.75154 491.336 1.99328 491.178 2.23629C490.867 2.67372 490.286 2.66604 489.258 2.42559C490.758 2.36803 490.758 2.82957 491.812 2.64539C491.181 2.65591 490.554 2.68457 489.937 2.73107C489.502 2.76688 488.891 2.82573 489.843 2.93573C490.252 2.98177 490.125 2.02525 489.944 2.09943C489.236 2.39105 487.06 1.95491 487.319 2.71721C487.319 2.71721 487.177 2.73255 487.15 2.71721C485.961 2.30792 484.705 2.85661 483.52 2.63151C483.441 2.90777 484.551 2.82975 484.401 3.06509C482.579 3.15207 480.778 3.47694 479.023 3.03696C478.648 3.19044 478.746 3.33497 478.821 3.47949C478.884 3.6074 478.637 3.62531 478.374 3.62914C478.112 3.63298 478.048 3.62275 477.932 3.51275C477.26 2.88219 475.835 3.12904 474.579 3.22113C474.242 3.26659 473.927 3.32912 473.645 3.4066C472.681 2.83743 471.02 3.27869 469.767 3.08428C469.831 2.97173 470.892 2.85534 469.741 2.71977C468.192 2.5407 466.688 2.31943 465.24 2.12374C464.689 2.37954 465.96 2.31303 465.548 2.47547C465.47 2.50303 465.376 2.52434 465.271 2.53784C465.167 2.55135 465.054 2.55669 464.943 2.5535C464.832 2.55032 464.724 2.53868 464.627 2.51942C464.53 2.50016 464.448 2.47378 464.385 2.44221C463.414 2.02397 461.673 2.93955 460.814 2.44457C460.627 2.33458 459.656 3.98925 459.228 4.14529C458.56 4.38958 459.779 2.47528 460.098 2.64923C460.147 2.67609 460.098 2.7234 460.098 2.83084C459.007 2.56097 457.6 4.62237 456.771 4.15169C456.396 3.94705 455.354 3.60171 454.12 3.92274C453.894 3.95839 453.646 3.97403 453.398 3.96822C453.151 3.96241 452.911 3.93532 452.702 3.88948C451.202 3.42264 450.613 4.0404 449.751 4.18621C448.952 4.32179 449.567 2.56992 450.358 2.67352C449.233 2.80143 448.712 2.54562 447.992 2.44585C446.461 2.23354 448.149 2.80143 447.343 2.80398C447.163 2.7931 446.979 2.7931 446.799 2.80398C446.459 2.83548 446.146 2.89375 445.884 2.97409C444.852 3.34245 441.657 3.3757 440.839 2.97409C439.875 2.50469 438.964 2.62748 437.903 2.83468C437.329 2.94723 436.841 3.11735 436.594 2.74387C436.508 2.61597 436.286 2.66456 436.031 2.6991C433.327 3.06873 430.938 4.58654 428.564 4.29876C427.75 4.20028 427.533 4.1146 427.09 4.39215C427.038 4.41852 426.967 2.44013 426.885 2.45507C426.803 2.47 426.711 2.47781 426.617 2.47781C426.524 2.47781 426.432 2.47 426.35 2.45507C426.267 2.44013 426.197 4.41852 426.145 4.39215C426.087 4.36702 426.048 4.33746 426.032 4.30606C426.015 4.27465 426.022 4.24235 426.05 4.21195C426.079 4.18156 426.128 4.15401 426.195 4.13169C426.262 4.10937 426.344 4.09296 426.434 4.0839C426.719 4.05192 427.274 4.12099 427.124 3.92018C425.837 3.70403 424.551 3.99436 423.1 3.93681C423.673 3.73728 424.397 3.79739 424.742 3.58252C423.925 3.56461 423.141 3.70275 422.492 3.5045C422.267 3.43415 421.494 3.47892 421.802 3.32927C422.833 2.8279 421.052 2.97882 420.853 2.94557C420.054 2.78185 420.324 3.0837 420.23 3.21288C420.137 3.34206 420.039 3.4316 419.638 3.38172C419.237 3.33184 419.387 3.23719 419.458 3.12591C419.623 2.8586 419.12 2.68593 418.449 2.80104C417.012 3.04917 415.681 2.56058 414.278 2.78185C414.098 2.80999 413.495 2.76267 413.528 2.59896C413.528 2.56059 413.903 2.53373 414.177 2.50303C413.258 2.59256 411.784 2.06689 411.42 2.75884C410.397 2.50303 409.451 2.95324 408.596 2.82789C407.16 2.61813 407.445 2.88418 407.629 3.15405C407.858 3.48915 407.254 3.66566 406.571 3.50706C405.243 3.21161 403.897 3.35102 402.446 3.37916C402.948 3.05812 403.893 3.29218 404.486 3.10673C403.931 3.06046 403.421 2.96518 403.008 2.83045C401.463 2.31885 400.488 2.99289 399.213 3.05812C398.601 2.78953 397.536 3.05812 396.932 2.87522C397.019 2.5043 397.93 2.90592 398.211 2.63988L392.259 2.63988C392.323 2.60279 392.379 2.53372 392.51 2.51198C392.726 2.47276 392.957 2.44473 393.197 2.42884C394.27 2.33163 393.122 2.19222 393.257 2.07839C392.548 1.9927 392.507 2.23699 392.132 2.33419C391.652 2.4621 391.194 2.76011 390.632 2.34188C390.481 2.22932 390.016 2.24978 389.619 2.25874C388.299 2.29071 387.076 2.23827 386.446 1.74713C386.285 1.61923 385.906 1.6883 385.55 1.68958C383.948 1.69851 382.36 3.58533 380.903 3.3583C379.778 3.17796 380.423 3.07053 381.188 3.0232C381.203 3.08453 381.247 3.1446 381.319 3.20099C381.484 3.28796 381.72 3.45679 382.017 3.27772C382.167 3.18436 381.799 3.05645 381.188 3.02192C380.501 2.81472 379.635 2.92985 378.874 2.81218C378.874 3.0181 379.575 3.05774 379.358 3.24064C377.685 3.05391 377.546 2.93495 378.551 2.5602C376.912 2.53334 376.436 2.57811 376.248 2.79427C375.847 2.42847 374.94 2.53078 374.081 2.53206C374.084 2.52923 374.086 2.52619 374.086 2.52312C374.086 2.52004 374.084 2.51699 374.081 2.51415V2.50393C374.542 2.29928 375.825 2.48219 375.738 1.86442C374.816 2.39521 373.488 3.14708 372.562 3.35428C371.812 3.52055 371.257 2.63567 371.189 2.16627C371.163 1.9936 370.285 1.98849 370.345 2.09209C370.653 2.60369 368.954 2.28778 368.762 2.57172C369.137 2.74695 369.888 2.5423 370.349 2.72648C369.486 2.79682 368.657 3.12041 367.934 2.70601C367.364 2.37858 368.417 2.32998 368.909 2.18289C367.889 2.02685 367.51 2.35301 366.812 2.42847C366.587 2.25836 367.273 1.95395 366.253 1.92581C365.574 1.9079 365.503 2.18161 365.057 2.28905C364.757 2.36067 366.302 2.49114 364.993 2.50777C364.618 2.50777 363.868 3.59985 363.902 3.40032C363.954 2.79918 362.93 2.30695 362.454 2.22254C362.69 2.08231 362.757 1.91632 362.642 1.75953C362.443 1.53442 361.944 1.63163 361.565 1.63163C361.186 1.63163 361.16 1.71221 361.381 1.79919C362.252 2.13685 361.265 2.07417 360.905 2.01534C360.38 1.92708 359.84 1.80687 359.337 1.91686C358.119 2.18034 356.843 1.97313 356.052 1.79663C354.642 1.48327 353.49 1.59967 352.133 1.72245C351.476 1.78256 350.786 1.97824 350.01 1.80557C350.329 1.45384 351.739 2.78639 352.174 2.31444C351.18 2.50885 350.351 2.31444 349.492 2.44874C348.994 2.5306 348.18 2.47815 348.262 2.25305C348.435 1.78237 347.606 1.97806 347.261 2.07654C346.65 2.25177 345.914 2.30932 345.352 2.20444C343.904 1.94864 343.964 1.93968 342.685 2.2313C342.231 2.33618 341.616 2.615 341.103 2.2313C341.988 2.2313 342.644 3.16736 342.471 2.77854C341.721 2.82842 341.399 1.9819 341.02 2.22363C340.27 2.14561 339.52 1.72226 338.687 2.20956C338.457 2.19757 338.235 2.17065 338.035 2.13026C334.944 1.54447 331.603 0.728653 329.064 1.64187C328.152 1.97186 328.002 2.80558 327.98 2.49478C328.73 2.41165 329.071 2.25177 329.371 2.00236C328.34 1.98957 327.822 2.08165 327.871 2.48582C327.177 2.53186 326.794 1.86953 325.996 1.75953C325.32 1.62012 327.222 2.62524 325.996 2.47943C325.534 2.42444 325.05 2.39374 324.578 2.35153C323.483 2.69815 322.245 2.80686 320.827 2.60734C320.869 2.77872 321.795 1.81837 321.532 1.96673C321.206 2.14835 320.677 1.92325 320.28 1.92325C318.96 1.92325 318.378 2.5485 317.388 2.36688C317.827 2.08678 318.693 2.41164 319.308 2.16863C317.958 2.05479 316.473 2.75423 315.678 2.89876C313.679 3.26072 311.871 2.09189 309.958 1.96783C309.898 1.71202 309.34 2.71202 308.785 2.71202C308.162 2.71202 308.365 1.85016 308.458 1.96783L306.583 1.96783C306.444 2.28502 305.458 2.30165 305.218 2.1891C304.569 1.85911 303.568 2.03945 302.671 1.91282C303.489 1.6762 304.768 2.92179 305.383 2.49204C303.766 2.50738 302.364 1.52912 301.156 1.89491C301.734 1.58539 301.306 2.14286 302.457 1.94461C301.472 1.9267 300.484 1.9267 299.498 1.94461C297.818 2.00473 297.027 2.35498 295.399 2.37672C295.155 2.37672 295.92 2.04162 295.024 2.12092C294.533 2.1644 294.308 2.30894 294.754 2.51102C294.994 2.62102 294.518 1.66196 294.221 1.67858C294.409 1.80648 295.365 1.95357 294.06 2.02775C292.755 2.10194 291.81 1.34859 290.422 1.90752C290.268 1.88033 290.133 1.84242 290.025 1.79624C289.65 1.54044 289.687 1.58905 288.922 1.6773C288.356 1.74125 287.917 2.15693 287.095 1.8052L288.674 2.56091C287.861 2.39719 287.399 1.36649 287.137 1.61846C287.1 1.67987 287.086 1.74261 287.095 1.8052C286.465 1.8359 285.873 1.46369 285.715 1.58392C284.83 2.25796 283.919 2.65172 283.465 2.54812C282.617 2.35627 281.26 2.93949 280.888 2.31789C280.776 2.33324 280.6 2.33708 280.555 2.36521C279.913 2.76938 278.739 1.65428 277.749 1.69009C277.603 1.83973 278.417 1.94589 277.828 2.09809C276.703 1.84229 275.39 1.9702 274.123 1.85381C274.168 2.13775 274.873 2.31296 274.546 2.63911C273.549 2.14285 272.544 1.96891 271.437 2.51889C271.28 2.59691 270.98 2.56877 270.751 2.51889C269.813 2.33983 268.609 2.25029 267.837 2.30529C268.077 2.72992 269.888 1.36796 270.282 1.96015C268.902 1.57644 267.435 2.65702 266.25 2.29506C265.26 1.99321 264 2.73376 262.567 2.46773C262.507 2.23622 263.359 2.38971 263.475 2.21192C262.44 2.15437 261.547 2.19785 260.745 2.46773C260.392 2.58412 259.679 2.75295 259.863 2.31169C259.901 2.21704 259.016 2.00728 258.483 1.96891C257.59 1.90496 258.708 2.33344 257.827 2.34495C257.369 2.15693 256.919 1.79241 256.218 1.89601C254.586 2.13902 252.966 1.83462 251.376 2.02391C251.455 1.77706 252.257 4.6402 251.987 4.36265C251.466 4.49056 250.888 1.54811 250.712 1.76043C250.603 1.88833 250.179 1.95357 250.041 1.84997C249.261 1.24883 248.72 1.8295 247.907 1.89089L249.943 2.10705C249.246 2.52657 248.267 2.33471 247.033 2.12878C247.783 2.43959 248.398 2.65958 246.977 2.70434C245.731 2.65062 244.475 3.43959 243.305 3.8233C242.99 3.9269 242.352 4.04585 242.506 3.63144C242.641 3.27332 241.351 3.13136 240.664 3.41402C240.222 3.59564 240.102 3.86934 239.416 3.4997C239.244 3.51392 239.081 3.53863 238.935 3.57262C238.591 3.6669 238.159 3.71557 237.718 3.7097C237.277 3.70382 236.857 3.64379 236.535 3.54064C236.01 3.39867 235.436 3.49075 234.87 3.48564C233.388 3.47412 232.008 3.12514 230.482 2.57644C229.953 2.36668 229.24 2.47796 228.607 2.44854C228.01 2.22599 228.01 2.226 227.609 2.41402C227.065 2.66982 226.945 2.65064 226.315 2.41402C225.604 2.11921 224.693 4.88823 223.66 4.74125C224.912 5.34111 223.948 2.49332 222.853 2.63657C222.58 2.6711 222.377 2.67494 222.197 2.60331C222.15 2.58874 222.114 2.57032 222.094 2.54977C222.073 2.52923 222.068 2.50723 222.08 2.48587C222.091 2.4645 222.118 2.44445 222.158 2.42763C222.198 2.41081 222.25 2.39776 222.31 2.38971C224.046 2.02007 222.546 4.79241 222.043 4.4944C221.458 4.60183 221.837 1.96508 220.918 1.9267C220.112 1.89345 221.529 4.52509 220.416 4.543C220.562 4.19766 219.054 4.20917 219.167 3.87023C217.321 3.91884 215.896 3.65665 214.719 3.1898C214.617 3.14888 214.227 3.16039 214.021 3.1898C213.702 3.23329 213.788 3.30363 214.021 3.3791C214.929 3.68734 214.175 3.7449 213.477 3.84722C213.308 3.49933 213.125 3.19875 212.266 3.02224C211.891 2.94422 211.804 2.64877 211.189 2.78563C210.574 2.92248 211.939 3.04143 211.343 3.23201C210.563 3.16806 210.387 2.94423 210.143 2.7204C210.027 2.61424 209.768 2.4646 209.34 2.61553C208.639 2.85214 208.654 2.85726 207.529 2.72808C207.529 2.54518 208.451 2.6168 208.335 2.37251L206.137 2.50041C206.081 2.37251 205.957 2.2446 205.466 2.26762C204.866 2.29576 204.682 2.44669 204.637 2.62831C203.763 2.57715 204.06 1.9709 202.822 2.16275C202.604 2.196 202.567 2.45437 202.019 2.29065C199.919 1.66137 197.144 2.56161 194.672 2.26744C193.239 2.09349 191.233 1.06151 190.423 1.81102C190.337 1.88776 189.774 1.93892 189.429 1.93892C188.836 1.93892 189.264 1.74195 189.054 1.64474C188.551 1.4158 189.313 2.51684 189.515 2.46567L190.832 3.15616L190.457 3.08581C189.433 2.87989 189.223 1.73134 187.081 2.74304C187.021 2.77246 186.001 2.92082 185.453 2.78268C185.285 2.60362 186.38 3.61002 185.855 3.42329C185.48 3.28643 185.228 2.45526 184.947 2.52688C184.441 2.65478 183.916 2.77245 183.211 2.66629C183.586 2.51536 184.46 3.5384 184.463 3.24934C183.713 3.14702 183.087 3.4348 182.329 3.34399C182.382 3.11888 183.454 3.13678 183.312 2.86818C182.498 2.74028 181.999 3.27875 181.658 3.06516C181.317 2.85156 180.769 2.74413 180.39 2.57146C179.524 2.1788 179.415 2.14171 178.238 2.31565C176.887 2.512 175.369 3.52843 173.984 3.3617C173.917 3.35402 173.801 3.39879 173.722 3.41542C173.501 3.57914 174.412 2.51262 174.217 2.6482C171.449 2.7761 169.086 3.05857 166.311 3.29647C166.153 3.31053 165.913 3.22101 165.722 3.17496C164.998 3.00358 164.95 2.99974 164.822 3.30287C164.694 3.60599 164.379 2.67377 163.348 2.74156C161.507 2.86051 159.95 2.26449 158.135 2.63157C158.431 2.75947 160.456 2.60855 158.844 3.07156C158.821 3.07156 158.919 3.15852 158.964 3.15852C159.373 3.15852 160.216 3.01144 159.841 3.32224C159.691 3.45014 158.146 2.54095 158.037 2.48084C157.017 1.91423 155.217 3.34655 154.024 3.07412C153.184 3.56526 151.834 3.3977 150.439 3.46805C150.773 3.22376 151.001 3.07667 151.163 2.92063C151.204 2.88226 151.061 2.80168 150.941 2.76587C150.821 2.73006 150.566 2.72622 150.536 2.80935C150.48 2.94749 150.45 3.09202 149.918 2.93726C149.693 2.8733 149.385 2.77098 149.4 2.69424C149.441 2.51518 149.959 0.584248 150.293 2.55611C150.431 2.5446 150.668 2.5561 150.585 2.46913C150.21 2.37192 149.535 3.51902 149.31 3.26961L150.949 2.97671C150.423 2.94033 149.877 2.95854 149.382 3.02898C148.886 3.09943 148.464 3.21888 148.17 3.37192C147.42 1.75563 149.644 2.88354 149.036 3.32608C148.826 3.30178 148.369 3.29411 148.286 3.23144C147.262 2.43461 144.963 1.57146 143.11 3.38217C143.05 3.38217 143.043 3.31437 143.013 3.27728C143.414 3.11356 144.108 3.44611 144.461 3.1724C143.568 2.9166 142.717 2.62243 141.4 2.77719C140.931 2.52139 140.943 3.15047 139.592 3.17989C140.493 3.73114 140.553 2.76696 141.276 2.79254C140.455 2.99974 139.439 3.01892 139.199 2.67871C138.977 2.3679 138.291 3.24896 137.901 3.02513C138.865 2.93688 138.302 2.76932 137.984 2.68107C137.32 2.48793 136.018 2.39201 135.767 2.55316C134.436 3.43057 135.017 2.30376 134.488 2.51224C131.973 2.61909 129.433 2.6418 126.905 2.58003C126.368 2.56213 124.579 3.34852 125.138 2.89447C122.276 2.62971 120.577 2.53399 117.975 2.72328C116.474 2.83584 114.697 2.5263 113.38 2.96628C113.339 2.98035 112.968 2.92919 112.956 2.90105C112.814 2.46747 111.715 2.51735 110.98 2.51735C109.707 2.49837 108.446 3.42357 107.229 3.2948C107.188 3.2948 107.091 3.3498 107.016 3.38178C107.046 3.58898 108.118 2.43677 108.043 2.78978C106.022 2.3984 103.839 3.64654 101.788 3.44829C102.196 3.16946 102.995 3.33573 103.663 3.13748L96.7918 2.53123C97.1031 2.27543 97.8195 2.30357 98.4233 2.08613C97.0431 2.24473 95.993 1.9966 94.8378 2.06695C93.8552 2.12578 93.919 3.54511 92.8238 3.67557C92.8238 3.43512 93.5739 3.54767 93.7052 3.38267C93.5479 3.32854 93.3593 3.28615 93.1514 3.25819C92.9435 3.23023 92.7209 3.2173 92.4975 3.22024C92.4975 3.09234 92.6476 2.92223 92.2163 2.87491C91.1774 2.76235 92.2162 3.06676 91.8224 3.13071C91.2599 3.20873 90.746 3.31232 90.1235 3.28035C89.9922 3.04501 90.9148 3.13967 90.8511 2.90816C89.3921 2.79433 87.6744 3.20873 86.3205 2.70991C86.8118 2.63061 87.4456 2.76363 87.8469 2.58201C88.0157 2.50655 88.432 2.39528 88.4057 2.38249C88.1841 2.27511 87.916 2.1798 87.6106 2.09982C86.313 2.44259 85.9642 1.95146 85.1616 1.75577C85.0153 2.50399 83.8564 2.17016 82.9113 2.0333C81.6811 1.85296 81.5086 1.56903 82.465 1.15079C81.1336 1.7903 79.4271 1.43217 77.6869 1.42705C78.1857 1.601 78.8683 1.50635 78.8908 1.71611C78.8695 1.75561 78.8085 1.79134 78.7182 1.81716C77.9269 1.72507 76.9705 1.68926 76.4079 1.51275C75.7291 1.2966 75.9016 1.26717 75.1928 1.3631C74.8177 1.4117 74.6152 1.73019 74.0676 1.48206C73.145 1.06638 72.0911 1.06765 70.8684 1.30299C70.6097 1.34421 70.3245 1.36226 70.0396 1.35543C69.3945 0.699298 68.7719 1.27741 68.1418 1.35543C67.9018 1.38485 67.6318 1.5345 67.448 1.29148C67.2042 0.97045 66.7167 0.947419 65.8728 1.05869C64.8864 1.1866 64.7476 1.53321 64.2113 1.77622C62.7974 1.29787 61.9948 1.33752 60.052 1.8261C58.5618 2.18799 56.875 2.44497 55.0902 2.58201C53.965 2.67538 53.1324 2.25331 51.9172 2.38249C52.4685 2.55899 52.9749 2.69968 53.1661 2.93502C51.1596 2.75596 51.1596 2.75596 47.9829 3.17932C47.6079 3.23175 47.5367 3.13198 47.3116 3.05908C45.9765 2.63189 44.5775 2.21238 42.721 2.79433C42.6686 2.80655 42.6079 2.81402 42.5447 2.81606C42.0609 2.85571 41.9222 2.80071 42.0909 2.59095C42.2972 2.33515 41.0745 2.39912 41.2283 2.12669C41.2621 2.06529 40.5307 2.04355 40.2419 2.12669C39.0118 2.45539 41.2921 2.37481 40.617 2.71119C39.7694 2.56027 38.8543 2.38505 37.7816 2.42853C38.2317 2.34923 38.7418 2.33388 39.1056 2.24691C39.4694 2.15993 39.7131 1.91053 39.1431 1.89902C37.8004 1.87216 36.5665 1.42706 35.0175 1.77112C35.7676 1.80437 36.3977 1.86959 37.0578 1.90668C38.0404 1.95912 37.9879 2.11133 37.024 2.19958C36.3639 1.96936 35.5238 2.11133 34.7737 2.07168V2.19958V2.45539C33.8007 2.45619 32.8361 2.39413 31.9309 2.27248C30.3482 2.07167 29.3355 2.58585 28.0791 2.86084C28.5592 2.52958 28.7242 2.23028 28.0266 1.94378C29.7481 2.19958 30.2544 1.56007 31.4583 1.41042C29.4818 1.38101 27.5353 1.48845 25.3788 1.24544L26.6202 1.75705C25.8326 1.88495 25.2775 1.62913 24.745 1.66495C23.0872 1.7839 25.1988 1.97063 24.745 2.13051C22.7084 2.0461 22.5847 2.03587 22.6634 1.93099C23.0047 1.47438 22.2884 2.81459 22.0783 2.84273C21.8683 2.87087 21.647 2.93482 21.4333 2.84273C21.1782 2.64576 22.0521 2.61764 21.9958 2.42195C20.6907 2.58566 19.0967 2.16614 18.1178 2.72379C18.0878 2.74042 17.5102 2.69693 17.4765 2.65344C16.9739 2.04591 14.9337 2.48333 14.1348 2.0766C14.0886 2.06266 14.0313 2.05378 13.9701 2.05111C13.9089 2.04843 13.8468 2.05208 13.7918 2.0616C13.7368 2.07111 13.6915 2.08606 13.6617 2.10447C13.6319 2.12288 13.619 2.14392 13.6247 2.16486C13.6247 2.49357 12.8747 2.30555 12.8334 2.25183C12.3196 1.75685 11.2994 2.02161 10.4518 2.05231C9.99425 2.07021 9.49164 3.18021 9.1916 2.90522C10.7593 3.00882 11.817 2.51256 13.2647 2.64941C12.8896 2.18513 10.3693 2.89243 10.9507 2.0099C10.7744 2.03293 10.5456 2.03931 10.4443 2.08152C10.0692 2.23628 9.14289 2.31559 8.85785 2.18641C8.06649 1.82956 7.09512 2.21455 6.2325 2.10327C7.44391 1.66201 6.46507 1.54179 5.51619 1.40365C4.91236 1.57248 6.19121 1.71189 5.44486 1.84363C5.2981 1.86644 5.1312 1.86907 4.97889 1.85096C4.82659 1.83286 4.70064 1.79541 4.62728 1.74642C3.87719 1.25528 2.43325 1.39341 1.25184 1.29876C1.13066 1.29171 1.00628 1.29462 0.889063 1.30726C0.771846 1.31989 0.665217 1.34188 0.577926 1.3714C0.490635 1.40091 0.425227 1.43712 0.387197 1.47699C0.349166 1.51685 0.339615 1.55924 0.359269 1.60063C1.18438 1.99712 0.0666505 2.33222 0.182916 2.7108C0.374191 3.36438 0.235474 2.03075 0.235474 2.69072L0.235474 3.12085L0.235474 7.20093C-0.0120585 7.23418 0.115462 7.42091 0.0517035 7.51428C0.0517035 41.4952 0.0517035 94.4787 0.0517035 128.465C0.0517035 128.736 -0.143337 129.017 0.224211 129.282C479.574 129.282 958.926 129.286 1438.28 129.295C1439.68 129.295 1440 129.186 1440 128.707C1439.98 94.2234 1439.98 40.7299 1440 6.22631ZM374.024 2.54357C374.012 2.54862 373.998 2.55281 373.981 2.55589C373.964 2.55896 373.946 2.56086 373.927 2.56148L374.013 2.54101L374.024 2.54357ZM442.955 3.68285C442.981 3.71867 442.925 3.74041 442.688 3.7289C442.67 3.72826 442.651 3.72826 442.632 3.7289C442.736 3.70984 442.844 3.69359 442.955 3.68029V3.68285ZM718.241 3.48921C718.247 3.53329 718.221 3.5772 718.166 3.61711C718.166 3.57363 718.196 3.52886 718.218 3.48921H718.241ZM850.318 3.46492C850.667 3.34597 850.993 3.23725 851.045 3.52247C850.839 3.49305 850.577 3.47899 850.329 3.46236L850.318 3.46492ZM1185.04 1.86046L1185.18 1.90906H1185.09L1184.94 1.88731H1185.03C1185.05 1.87324 1185.05 1.863 1185.05 1.85277L1185.04 1.86046ZM1198.54 2.16486C1198.61 2.21242 1198.69 2.25816 1198.77 2.30171C1198.64 2.32857 1198.51 2.35671 1198.4 2.38613C1198.36 2.34658 1198.36 2.30434 1198.38 2.26399C1198.41 2.22364 1198.47 2.1867 1198.56 2.15718L1198.54 2.16486ZM1268.68 2.47687L1268.73 2.4999H1268.64C1268.67 2.482 1268.69 2.4756 1268.7 2.46921L1268.68 2.47687ZM1224.8 2.59148C1224.82 2.59702 1224.84 2.60175 1224.86 2.60555C1224.84 2.60027 1224.82 2.59427 1224.8 2.58764V2.59148ZM1247.74 1.55802C1247.71 1.51979 1247.67 1.48221 1247.62 1.44547C1247.79 1.49663 1247.95 1.54012 1248.1 1.57337C1247.98 1.57153 1247.86 1.56378 1247.75 1.55036L1247.74 1.55802ZM1302.09 3.45199L1302.12 3.46096C1302.11 3.45591 1302.1 3.45028 1302.1 3.44433L1302.09 3.45199ZM1344.77 2.37743C1344.77 2.38296 1344.77 2.38853 1344.77 2.39406L1344.74 2.37743H1344.78H1344.77ZM1313.28 2.87644L1313.33 2.88796C1313.34 2.89094 1313.34 2.89393 1313.33 2.8969L1313.27 2.879L1313.28 2.87644ZM1250.55 1.27792L1250.59 1.30094H1250.53C1250.53 1.29311 1250.54 1.28542 1250.55 1.27792ZM1256.06 1.02212C1256.43 0.876313 1256.56 0.946654 1256.61 1.06432C1256.43 1.04188 1256.24 1.02644 1256.05 1.01828L1256.06 1.02212ZM1335.39 3.67966H1335.42V3.67198L1335.39 3.68222C1335.39 3.67796 1335.39 3.6737 1335.39 3.66944L1335.39 3.67966ZM1370.19 2.43115C1370.07 2.4222 1369.96 2.41452 1369.84 2.40813C1370 2.37615 1370.15 2.3429 1370.3 2.30453C1370.28 2.3477 1370.25 2.3896 1370.19 2.42859V2.43115ZM1202.77 2.08134L1202.68 2.10053L1202.76 2.0839L1202.77 2.08134ZM47.5067 3.74502C47.6552 3.80823 47.8355 3.86194 48.0392 3.90361C47.8741 3.88655 47.7134 3.86472 47.5591 3.83838C47.5164 3.80955 47.4982 3.7772 47.5067 3.74502ZM425.912 4.00517H425.954L425.912 4.02436V4.00517ZM681.79 1.40192H681.906C681.846 1.42878 681.79 1.45819 681.73 1.49017C681.728 1.45951 681.748 1.42918 681.79 1.40192ZM750.982 2.32334C750.906 2.36713 750.837 1.41239 750.776 1.4589C750.585 1.38216 750.769 2.32078 750.982 2.32334ZM583.365 2.00946V2.00051L583.392 2.00818L583.365 2.00946ZM446.3 2.61475L446.484 2.59685C446.442 2.61251 446.387 2.62326 446.326 2.62754C446.316 2.623 446.305 2.61872 446.293 2.61475H446.3ZM199.63 2.73286C199.721 2.7701 199.787 2.8138 199.822 2.86076C199.748 2.81942 199.682 2.77672 199.623 2.73286H199.63ZM149.029 3.042C149.064 3.03069 149.098 3.01873 149.13 3.00619C149.246 2.96142 149.704 2.99596 149.644 3.10852C149.636 3.12154 149.622 3.13406 149.603 3.14561C149.351 3.10085 149.179 3.06758 149.029 3.042ZM93.4689 2.4463C93.4746 2.43844 93.4862 2.43122 93.5027 2.42538C93.5192 2.41954 93.5398 2.41529 93.5627 2.41305C93.5321 2.42357 93.5033 2.43467 93.4764 2.4463H93.4689ZM109.258 2.56052L109.191 2.52727L109.566 2.50297C109.465 2.51992 109.367 2.53914 109.273 2.56052H109.258ZM117.637 3.24479C117.637 3.25503 117.637 3.26398 117.637 3.27421C117.609 3.26253 117.579 3.25142 117.547 3.24095L117.637 3.24479ZM45.7889 3.6239C45.7968 3.62837 45.8056 3.63264 45.8152 3.63669L45.6952 3.66098C45.7265 3.64787 45.7603 3.63549 45.7964 3.6239H45.7889ZM55.814 5.31476C55.9152 5.29046 56.0165 5.26616 56.114 5.24058C56.0335 5.26996 55.9414 5.29535 55.8403 5.31604L55.814 5.31476ZM242.131 2.34296C242.105 2.36451 242.068 2.3844 242.022 2.4018L241.988 2.38389C242.06 2.36727 242.108 2.3532 242.157 2.33785L242.131 2.34296ZM238.317 2.1575H238.343V2.16901L238.317 2.1575ZM154.073 3.1657C154.097 3.16462 154.121 3.16462 154.144 3.1657L154.073 3.1657ZM150.503 2.8052L150.428 2.8052H150.469L150.503 2.8052ZM221.728 2.86371L221.683 2.89058L221.646 2.87267L221.728 2.86371ZM477.512 3.85354C477.566 3.86808 477.625 3.88012 477.688 3.88936C477.659 3.88501 477.632 3.87988 477.605 3.87401C477.572 3.87401 477.542 3.86122 477.512 3.8561V3.85354ZM553.133 1.3734C553.168 1.32404 553.183 1.27325 553.178 1.22247L553.328 1.24934C553.315 1.29368 553.258 1.33518 553.167 1.367L553.133 1.3734ZM559.467 2.25682L559.381 2.24914C559.416 2.24597 559.451 2.24342 559.486 2.24148C559.491 2.24457 559.496 2.24755 559.501 2.25042L559.467 2.25682ZM490.372 2.10571L490.327 2.11849C490.353 2.11336 490.381 2.10949 490.41 2.10699C490.391 2.11722 490.376 2.12745 490.357 2.1364C490.338 2.1273 490.317 2.11874 490.293 2.11081L490.372 2.10571ZM410.063 2.57453L409.992 2.55662C410.025 2.56268 410.058 2.56953 410.089 2.57709L410.063 2.57453ZM409.721 2.51952H409.541H409.478C409.557 2.51524 409.637 2.51354 409.718 2.51442L409.721 2.51952ZM416.495 3.35344L416.439 3.33938C416.44 3.33555 416.44 3.33169 416.439 3.32787C416.462 3.33702 416.487 3.34557 416.514 3.35344H416.495ZM437.809 2.57453V2.58221L437.771 2.57325H437.798L437.809 2.57453ZM437.809 2.57453C437.809 2.57453 437.809 2.5643 437.809 2.56046C437.807 2.56556 437.807 2.5707 437.809 2.57581V2.57453ZM437.809 2.53999C437.809 2.53999 437.809 2.53104 437.809 2.52592V2.5157C437.8 2.52181 437.794 2.52824 437.79 2.53487L437.809 2.53999ZM476.615 2.23743C476.369 2.16643 476.104 2.10349 475.824 2.04942C476.499 1.97268 476.649 2.06606 476.597 2.23233L476.615 2.23743ZM448.415 3.59518C448.228 3.54274 448.078 3.50309 447.943 3.46728C448.125 3.44691 448.314 3.43404 448.505 3.42892C448.531 3.45665 448.534 3.4862 448.515 3.51452C448.496 3.54284 448.455 3.56891 448.397 3.59006L448.415 3.59518ZM396.272 3.12834C396.227 3.1166 396.185 3.10379 396.145 3.08997C396.188 3.10475 396.237 3.11724 396.291 3.12705L396.272 3.12834ZM372.183 2.14439C372.181 2.15078 372.181 2.1572 372.183 2.16358V2.14439ZM374.763 2.18531H374.726C374.746 2.16694 374.77 2.14902 374.797 2.13161C374.77 2.14979 374.76 2.17024 374.767 2.19044L374.763 2.18531ZM341.009 1.94998C340.939 1.94608 340.869 1.94352 340.799 1.94231L341.23 1.90522C341.249 1.92952 341.215 1.95126 341.013 1.9551L341.009 1.94998ZM341.144 1.87324C341.144 1.87324 341.196 1.8822 341.219 1.89627H340.968C341.029 1.89166 341.089 1.88567 341.148 1.87836L341.144 1.87324ZM315.79 2.48954C315.736 2.48087 315.69 2.46715 315.658 2.44996C315.625 2.43276 315.607 2.41279 315.607 2.39233C316.034 2.39233 316.417 2.39233 316.762 2.39233C316.488 2.42559 316.169 2.45755 315.794 2.4972L315.79 2.48954ZM656.433 1.78563C656.428 1.771 656.417 1.75673 656.399 1.74343C656.417 1.7564 656.43 1.77017 656.436 1.78435L656.433 1.78563ZM754.11 5.3732C754.132 5.35866 754.161 5.34564 754.197 5.33484C754.305 5.32484 754.419 5.32484 754.527 5.33484L754.11 5.3732ZM756.079 5.27473C756.004 5.27229 755.932 5.26204 755.874 5.24536C755.815 5.22869 755.773 5.20636 755.753 5.18135C756.458 5.04322 756.953 5.1353 757.414 5.26065C757.088 5.26832 756.683 5.28368 756.083 5.28368L756.079 5.27473ZM790.959 5.36298H791.071C791.037 5.38551 790.992 5.40618 790.94 5.42437C790.941 5.40622 790.949 5.38819 790.963 5.37066L790.959 5.36298ZM683.32 4.0507C683.425 4.08779 683.534 4.12617 683.646 4.16838C683.489 4.14536 683.342 4.12744 683.2 4.11081C683.252 4.09541 683.299 4.0778 683.339 4.05838L683.32 4.0507ZM645.361 2.59486C645.303 2.59153 645.245 2.58683 645.189 2.58079C645.218 2.57775 645.249 2.57722 645.279 2.57923C645.309 2.58123 645.337 2.58573 645.361 2.59231V2.59486ZM571.405 0.688238C571.365 0.671223 571.322 2.65539 571.274 2.64091L571.63 2.58975C571.559 2.62173 571.48 0.65498 571.405 0.685677V0.688238ZM479.117 3.17438C478.93 3.2536 478.767 3.33934 478.633 3.43018C478.614 3.21403 478.836 3.15521 479.117 3.17183V3.17438ZM398.372 1.89536C398.379 1.88232 398.39 1.86949 398.403 1.857L398.613 1.88513L398.372 1.89536ZM394.851 4.71375C394.802 4.67282 394.757 3.63573 394.712 3.60504L394.787 3.62166C394.93 3.66003 394.918 4.68817 394.851 4.71503V4.71375ZM378.547 1.92312C378.531 1.91275 378.513 1.90291 378.491 1.89371L378.72 1.87324L378.547 1.92312ZM355.362 2.37314L355.246 2.35651H355.377C355.373 2.36547 355.366 2.36931 355.362 2.37698V2.37314ZM338.53 1.79778C338.554 1.83258 338.585 1.86676 338.624 1.9001H338.533L338.451 1.87836L338.53 1.79778ZM187.542 3.39188C187.614 3.39956 187.681 3.4034 187.752 3.40979L187.723 3.43026L187.542 3.39188ZM165.857 3.03869C165.855 3.04292 165.855 3.04724 165.857 3.05148H165.79L165.857 3.03869ZM159.118 2.87151C159.144 2.8727 159.169 2.8753 159.192 2.8792C159.168 2.87778 159.143 2.87692 159.118 2.87664V2.87151ZM149.906 2.70928C149.905 2.71309 149.905 2.71697 149.906 2.72078C149.881 2.71426 149.857 2.70698 149.835 2.69904L149.906 2.70928ZM100.156 3.43843C100.074 3.40006 100.002 3.36554 99.9385 3.3374C100.084 3.34097 100.231 3.33752 100.374 3.32716C100.374 3.35162 100.353 3.3756 100.315 3.39623C100.276 3.41686 100.221 3.43328 100.156 3.44356V3.43843ZM83.1063 2.38158L83.0426 2.35472L83.1213 2.38158H83.1063ZM72.3649 2.96738C72.3341 2.93933 72.3078 2.91071 72.2861 2.88168C72.3254 2.89974 72.3617 2.91854 72.3949 2.93796C72.3872 2.94969 72.3772 2.96123 72.3649 2.9725V2.96738ZM48.0955 4.30523L48.1405 4.31673H48.0692L48.0955 4.30523ZM13.7447 3.4176C13.7344 3.41153 13.7217 3.40594 13.7072 3.40097L13.7748 3.39073C13.7625 3.40112 13.7525 3.41181 13.7447 3.4227V3.4176ZM42.3835 4.48724L42.3497 4.50515C42.341 4.50016 42.3309 4.49544 42.3197 4.49106L42.3835 4.48724ZM100.891 2.73831C100.905 2.76237 100.905 2.78714 100.891 2.8112C100.572 2.69098 100.265 2.55541 99.9573 2.41727C100.202 2.4253 100.43 2.46279 100.602 2.52302C100.773 2.58325 100.875 2.66228 100.891 2.74597V2.73831ZM124.801 2.43173C124.801 2.45731 124.831 2.48288 124.842 2.50718C124.807 2.50445 124.771 2.50445 124.737 2.50718C124.759 2.48672 124.782 2.46497 124.801 2.43939V2.43173ZM313.495 3.01029C313.323 2.99366 313.154 2.97319 312.981 2.95272C313.27 2.92842 313.416 2.95913 313.495 3.0218V3.01029ZM679.262 3.76427C679.299 3.7765 679.337 3.78803 679.378 3.79881C679.332 3.78441 679.288 3.76903 679.247 3.75276L679.262 3.76427ZM738.144 2.74432C738.193 2.78013 738.246 2.81083 738.294 2.84025L738.122 2.84919C738.111 2.82745 738.118 2.79292 738.126 2.75583L738.144 2.74432ZM747.584 2.87222C747.588 2.89267 747.588 2.91317 747.584 2.93361L747.461 2.91059C747.498 2.90346 747.533 2.89534 747.566 2.88629L747.584 2.87222ZM757.463 2.30945L757.242 2.35678C757.237 2.34151 757.227 2.3265 757.212 2.31201L757.463 2.30945ZM846.83 3.71727C846.828 3.71979 846.828 3.7224 846.83 3.72493H846.785V3.71471L846.83 3.71727ZM837.547 4.82362C837.126 4.77503 836.695 4.73698 836.257 4.70979C836.705 4.71692 837.141 4.7608 837.529 4.83769L837.547 4.82362ZM858.141 2.31476C858.157 2.3279 858.169 2.34163 858.175 2.35568H857.954C857.995 2.3544 858.055 2.34034 858.123 2.33011L858.141 2.31476ZM920.025 1.61455V1.63118C919.991 1.62299 919.96 1.61402 919.931 1.60433H919.972L920.025 1.61455ZM972.925 2.61949C972.878 2.62081 972.83 2.62081 972.783 2.61949L972.884 2.5939C972.887 2.60738 972.894 2.6207 972.906 2.63356L972.925 2.61949ZM978.502 2.47624L978.581 2.48775L978.502 2.50181C978.45 2.48557 978.401 2.46804 978.356 2.44937H978.438C978.446 2.46379 978.462 2.47765 978.483 2.49031L978.502 2.47624ZM1187.91 1.88731H1187.69C1187.73 1.88297 1187.77 1.87784 1187.81 1.87196C1187.69 1.83231 1187.91 1.86684 1187.89 1.90138L1187.91 1.88731ZM1187.62 1.91929L1187.91 1.89243C1187.91 1.90138 1187.88 1.91161 1187.83 1.918L1187.62 1.91929ZM1179.13 1.91929C1179.2 1.91243 1179.26 1.90389 1179.32 1.89371C1179.25 1.90965 1179.18 1.92417 1179.11 1.93719L1179.13 1.91929ZM1156.95 1.28439C1157.01 1.29682 1157.07 1.30752 1157.13 1.31636L1156.92 1.32531C1156.92 1.31901 1156.93 1.31259 1156.93 1.30612L1156.95 1.28439ZM976.552 2.02806C976.552 2.01783 976.571 2.01911 976.593 2.02806H976.552ZM979.552 2.48647C979.507 2.43531 979.616 2.46727 979.582 2.49541H979.556C979.556 2.49541 979.522 2.51205 979.522 2.50821L979.552 2.48647ZM958.981 3.0743H959.018C959.006 3.08206 958.996 3.09019 958.988 3.0986C958.974 3.09353 958.964 3.08741 958.958 3.0807L958.981 3.0743ZM1080.82 5.8185H1080.79H1080.81H1080.82ZM1161.22 2.1311H1161.17C1161.25 2.12263 1161.33 2.1128 1161.41 2.10167H1161.38C1161.35 2.11573 1161.29 2.12086 1161.22 2.12854V2.1311ZM1136.44 3.6001L1136.35 3.62953C1136.21 3.63883 1136.09 3.66198 1135.99 3.69598C1135.89 3.72998 1135.83 3.77324 1135.8 3.8201C1135.74 3.84313 1135.68 3.86487 1135.63 3.88533C1135.62 3.79427 1135.64 3.70322 1135.67 3.6129C1135.66 3.60438 1135.65 3.59624 1135.63 3.58859C1135.73 3.57708 1135.84 3.56557 1135.94 3.55534C1136.12 3.57452 1136.29 3.58604 1136.44 3.59756V3.6001ZM1082.96 2.52887L1083.16 2.47386C1083.18 2.48514 1083.19 2.49588 1083.21 2.50584L1082.96 2.52887ZM1051.12 4.55298H1051.01L1051.12 4.52228V4.55298ZM943.664 1.47535V1.48301C943.662 1.48049 943.662 1.47787 943.664 1.47535ZM752.059 4.12106H752.025L752.059 4.11081C752.059 4.11081 752.063 4.1236 752.066 4.12488L752.059 4.12106ZM686.313 3.66316L686.436 3.68106L686.211 3.70665L686.313 3.66316ZM682.964 1.4598L682.93 1.45213H682.956C682.956 1.45213 682.967 1.46108 682.971 1.46364L682.964 1.4598ZM680.169 3.65203L679.903 3.65203L680.019 3.60215L680.169 3.65203ZM678.163 3.41414L678.133 3.40263C678.129 3.39158 678.12 3.3808 678.107 3.37066C678.182 3.3924 678.189 3.41159 678.17 3.41798L678.163 3.41414ZM662.471 1.93872C662.448 1.94178 662.427 1.94565 662.407 1.95024C662.403 1.94641 662.397 1.94291 662.388 1.94H662.358C662.376 1.93686 662.395 1.93513 662.414 1.93491C662.434 1.93469 662.453 1.93598 662.471 1.93872ZM637.92 1.53967C637.951 1.51005 637.998 1.48271 638.059 1.45909C638.059 1.48382 638.07 1.50556 638.093 1.52432L637.92 1.53967ZM580.204 1.12783C580.204 1.10608 580.174 1.08562 580.159 1.06388C580.294 1.08102 580.433 1.09387 580.575 1.10225C580.463 1.12459 580.332 1.13358 580.204 1.12783ZM571.36 2.56506H571.334H571.371H571.36ZM541.521 2.04814V2.04048H541.544L541.521 2.04814ZM515.789 0.981445H515.699C515.699 0.973771 515.699 0.963546 515.699 0.955872L515.789 0.981445ZM487.63 2.75998L487.552 2.73184C487.597 2.72289 487.642 2.71394 487.683 2.70371C487.668 2.71522 487.649 2.73441 487.63 2.75359V2.75998ZM428.774 3.84145C428.774 3.85168 428.774 3.86192 428.774 3.87343L428.695 3.85297L428.774 3.84145ZM368.849 2.84836C368.852 2.86198 368.852 2.87568 368.849 2.8893L368.77 2.87906L368.849 2.84836ZM362.098 2.57593C362.12 2.57593 362.135 2.58105 362.143 2.59128L362.098 2.57593ZM308.875 1.55272L308.612 1.53993C308.612 1.51435 308.571 1.48366 308.537 1.44784C308.674 1.47173 308.791 1.50744 308.875 1.55144V1.55272ZM302.476 2.16901C302.533 2.14917 302.602 2.13389 302.679 2.12425C302.605 2.13234 302.536 2.14539 302.476 2.16262V2.16901ZM292.316 2.84139C292.387 2.84906 292.466 2.85803 292.541 2.86826C292.498 2.87187 292.453 2.87057 292.412 2.86456C292.372 2.85855 292.338 2.84818 292.316 2.83501V2.84139ZM240.124 2.58559C240.124 2.58559 240.121 2.58047 240.124 2.58175V2.58559ZM189.932 3.30618H189.241C189.246 3.28546 189.264 3.26533 189.294 3.24721C189.323 3.22909 189.364 3.21342 189.414 3.20131C189.639 3.24352 189.8 3.27806 189.932 3.30236V3.30618ZM102.264 3.38601C102.34 3.41288 102.408 2.44246 102.466 2.47425C102.414 2.46537 102.368 3.45241 102.333 3.43642C102.298 3.42043 102.274 3.40184 102.264 3.38217V3.38601ZM56.249 2.28949C56.1778 2.28949 56.1403 2.28055 56.144 2.26392H56.1815C56.1867 2.26873 56.1948 2.27313 56.2051 2.27686C56.2154 2.2806 56.2278 2.28358 56.2415 2.28565L56.249 2.28949ZM48.2717 2.8318L48.4593 2.8075C48.388 2.8382 48.328 2.85355 48.2642 2.82797L48.2717 2.8318ZM7.71768 3.53999L7.64269 3.53104C7.68395 3.51953 7.72898 3.5093 7.76649 3.49651L7.71768 3.53999ZM73.7451 5.23111L73.7751 5.24006H73.7488C73.7467 5.23565 73.7429 5.23135 73.7376 5.22727L73.7451 5.23111ZM160.708 2.79356C160.509 2.79356 160.333 2.78333 160.119 2.77693C160.209 2.75925 160.312 2.75103 160.415 2.75331C160.519 2.75558 160.618 2.76825 160.7 2.78972L160.708 2.79356ZM176.223 3.04936C176.223 3.04936 176.265 3.05959 176.287 3.06599L176.231 3.0775C176.22 3.06854 176.22 3.06087 176.216 3.05064L176.223 3.04936ZM189.174 2.69251C189.172 2.68485 189.172 2.67716 189.174 2.6695H189.316L189.174 2.69251ZM233.332 4.19977C233.332 4.20616 233.332 4.21128 233.332 4.21639H233.306L233.332 4.19977ZM238.279 4.12559C238.594 4.12559 238.677 4.17419 238.699 4.25349C238.253 4.23814 237.949 4.20361 237.735 4.1921C237.9 4.15399 238.092 4.13148 238.29 4.12687L238.279 4.12559ZM256.368 1.893C256.293 1.893 256.218 1.88021 256.146 1.87381L256.368 1.893ZM680.848 6.981L681.171 7.13065C680.994 7.13479 680.819 7.14552 680.649 7.16263C680.729 7.10393 680.796 7.0432 680.848 6.981ZM985.954 5.04329V5.03306C985.988 5.03306 985.996 5.04073 985.954 5.04329ZM1121.61 7.10008C1121.45 7.13205 1121.29 7.16018 1121.13 7.18704C1121.26 7.14337 1121.43 7.11437 1121.61 7.10392L1121.61 7.10008ZM1265.73 1.86556L1265.95 1.92825L1265.85 1.95254C1265.81 1.92394 1265.77 1.89617 1265.72 1.8694L1265.73 1.86556ZM1411.97 1.99571C1411.97 1.9842 1411.97 1.97397 1412 1.96118C1412 1.97397 1412.03 1.9842 1412.04 1.99571H1411.97ZM1429.54 1.99661C1429.54 2.00428 1429.52 2.01195 1429.51 2.0209C1429.51 2.01586 1429.51 2.0106 1429.51 2.00556L1429.54 1.99661ZM1402.1 1.65933C1402.14 1.67383 1402.18 1.6867 1402.23 1.69769H1402.21C1402.16 1.6842 1402.11 1.66923 1402.06 1.65293L1402.1 1.65933ZM1402.14 2.27563C1402.12 2.26284 1402.1 2.2526 1402.09 2.24109C1402.11 2.2526 1402.14 2.26284 1402.17 2.27563H1402.14ZM1399.51 2.96226V2.96994C1399.43 2.95566 1399.35 2.93897 1399.28 2.92006C1399.36 2.93813 1399.44 2.95437 1399.53 2.96866L1399.51 2.96226ZM1392.82 2.88609C1392.69 2.88706 1392.56 2.88233 1392.44 2.87202C1392.61 2.84133 1392.82 2.80936 1393.03 2.76971C1392.97 2.81207 1392.9 2.85308 1392.83 2.89249L1392.82 2.88609ZM1389.65 3.3977L1389.4 3.41945C1389.44 3.4118 1389.48 3.40706 1389.53 3.40552C1389.57 3.40398 1389.62 3.40566 1389.66 3.41049L1389.65 3.3977ZM1144.78 2.70351C1144.75 2.73559 1144.72 2.76852 1144.71 2.80199H1144.55C1144.63 2.76618 1144.71 2.73421 1144.78 2.70351ZM1129.75 3.46197L1129.55 3.4479C1129.62 3.44627 1129.69 3.45114 1129.75 3.46197ZM864.003 2.54568C863.867 2.59593 863.684 2.62885 863.486 2.63905C863.664 2.60941 863.837 2.57611 864.003 2.5393V2.54568ZM847.441 3.72365L847.329 3.77225L847.07 3.75436L847.003 3.74028H847.194C847.276 3.72621 847.37 3.72238 847.441 3.71727V3.72365ZM834.397 3.65332C834.35 3.65717 834.301 3.65717 834.255 3.65332H834.397ZM667.238 1.90036C666.788 1.99501 666.566 1.94 666.379 1.84279C666.656 1.87475 666.945 1.892 667.238 1.89396V1.90036ZM531.054 1.53487H531.024C530.947 1.544 530.873 1.55556 530.802 1.56941C530.881 1.55255 530.966 1.53883 531.054 1.52849V1.53487ZM489.798 2.62549H489.727L489.704 2.61654L489.798 2.62549ZM487.207 2.79451C487.207 2.80219 487.207 2.80987 487.207 2.81754L487.124 2.8073L487.207 2.79451ZM464.85 2.11664C464.788 2.09687 464.72 2.0793 464.647 2.0642C464.797 2.04246 464.843 2.07059 464.85 2.11024V2.11664ZM374.058 2.49753C374.058 2.48474 374.058 2.4809 374.058 2.49753ZM374.058 2.50393C374.066 2.5127 374.066 2.52201 374.058 2.53078H374.013C374.026 2.52144 374.041 2.51246 374.058 2.50393ZM172.12 2.46313H172.143C172.087 2.47605 172.034 2.4906 171.985 2.50661C172.027 2.48966 172.072 2.47384 172.12 2.45929V2.46313ZM128.195 2.48084H128.108C128.108 2.47061 128.108 3.46294 128.108 3.45398C128.141 3.46173 128.171 2.47123 128.195 2.48212V2.48084ZM56.1853 2.26008H56.1515C56.1564 2.24975 56.1666 2.2398 56.1815 2.23066C56.1751 2.23684 56.1713 2.24331 56.1703 2.24985L56.1853 2.26008ZM21.3395 3.30484L21.2944 3.27799H21.362L21.3395 3.30484ZM652.24 6.64078C652.292 6.61264 652.348 6.58579 652.397 6.55638C652.42 6.58196 652.442 6.60753 652.468 6.63183C652.388 6.62581 652.306 6.62451 652.224 6.62799L652.24 6.64078ZM1212.99 2.93668C1213.02 2.91685 1213.05 2.89905 1213.1 2.88465C1213.15 2.87024 1213.2 2.85961 1213.26 2.85354C1213.16 2.86506 1213.07 2.89192 1212.98 2.9239L1212.99 2.93668Z" fill="#98772E"/>
</svg>
