<svg width="567" height="317" viewBox="0 0 567 317" fill="none" xmlns="http://www.w3.org/2000/svg">
<path d="M302.371 317H172.122C171.952 316.915 171.79 316.762 171.62 316.753C168.221 316.481 164.89 316.141 161.516 316.014C159.748 315.946 157.955 316.396 156.178 316.345C152.779 316.243 149.38 315.844 145.98 315.75C140.482 315.589 134.932 315.58 129.459 315.495C121.81 315.385 114.11 315.24 106.428 315.147C100.3 315.07 94.1643 315.062 88.0368 314.968C85.6487 314.968 83.2521 314.671 80.864 314.671C78.4759 314.671 76.2748 314.934 73.9717 314.96C72.6119 314.96 71.2521 314.662 69.8923 314.679C66.6204 314.679 63.357 314.934 60.085 314.943C58.2153 314.943 56.3371 314.594 54.4674 314.569C49.1983 314.492 43.9207 314.569 38.6515 314.475C34.0878 314.424 29.5326 314.195 24.9688 314.237C18.3824 314.305 11.796 314.535 5.20113 314.73C4.07082 314.73 2.94052 314.985 1.70822 315.121C1.50666 314.034 1.3704 312.935 1.30026 311.831C1.30026 306.501 1.24928 301.163 1.47875 295.841C1.92067 285.751 2.18414 275.651 1.97168 265.552C1.86969 260.511 1.81017 255.47 1.66569 250.438C1.48722 244.088 1.24077 237.737 1.0368 231.387C0.960315 229.185 0.92631 226.992 0.86682 224.79C0.86682 224.187 0.866833 223.575 0.773348 222.971C0.439333 221.075 0.209528 219.163 0.0849651 217.242C-2.07498e-05 205.74 0.00849858 194.23 0 182.719C0 173.045 0 163.371 0 153.706C0 148.877 0.220938 144.049 0.399409 139.254C0.543884 135.267 0.858361 131.289 0.960344 127.302C1.04533 124.207 0.85833 121.105 0.875327 118.01C0.875327 114.482 1.01983 110.963 1.11331 107.435C1.30878 100.634 1.48722 93.8336 1.71668 86.9649C1.92064 80.6572 2.17565 74.358 2.40511 68.0503C2.40511 66.9282 2.40508 65.7976 2.47307 64.6499C2.70253 59.0478 3.09345 53.4457 3.15294 47.8436C3.21243 42.4795 2.92349 37.1069 2.78751 31.6918C2.63453 25.7412 2.44758 19.7225 2.3286 13.7294C2.26062 10.329 2.42207 6.84363 2.25209 3.40926C2.1926 2.21913 2.43056 1.8876 3.52688 1.8876C17.0226 1.9216 30.5184 1.9471 44.0141 1.9641C44.4832 1.97557 44.9514 2.01245 45.4164 2.0746C47.0618 2.3496 48.7219 2.52843 50.3881 2.61017C54.102 2.61017 57.8158 2.32113 61.5382 2.30413C64.7252 2.30413 67.9122 2.55067 71.0991 2.55067C73.9632 2.55067 76.8357 2.29563 79.7082 2.23612C82.2578 2.17662 84.8074 2.23612 87.4249 2.23612C95.1501 2.13411 102.884 1.9896 110.609 1.89609C114.807 1.89609 118.997 1.89609 123.195 1.89609C127.572 1.83658 131.949 1.70057 136.326 1.59006C140.329 1.49655 144.323 1.43704 148.317 1.29252C151.283 1.19051 154.266 0.901478 157.215 0.841971C159.416 0.799467 161.626 1.1055 163.827 1.02899C167.312 0.918481 170.779 0.467931 174.263 0.416925C181.326 0.314914 188.397 0.416924 195.467 0.348916C200.694 0.306411 205.912 0.059884 211.139 0.0428821C217.827 0.0428821 224.524 0.187405 231.212 0.195906C236.805 0.195906 242.405 0.0513924 247.997 0.0258896C253.589 0.000386831 259.215 -0.016615 264.824 0.0258896C273.773 0.0853961 282.722 0.195902 291.671 0.272411C293.652 0.272411 295.632 0.178898 297.62 0.229904C302.499 0.365918 307.36 0.620953 312.238 0.714463C320.17 0.867479 328.082 0.97232 335.975 1.02899C342.467 1.08 348.96 1.02899 355.462 1.02899C361.819 1.0715 368.21 1.148 374.533 1.29252C380.856 1.43704 387.331 1.71757 393.731 1.83658C398.873 1.93859 404.014 1.83658 409.156 1.89609C419.099 2.04911 429.051 2.27013 438.994 2.46565C443.601 2.55916 448.215 2.63567 452.822 2.77169C458.856 2.9417 464.89 3.18823 470.924 3.35825C473.89 3.44326 476.873 3.46026 479.822 3.44325C485.771 3.39225 491.788 3.26474 497.771 3.23924C501.773 3.23924 505.776 3.34974 509.779 3.32424C512.499 3.32424 515.218 3.10322 517.938 3.06071C521.227 3.01821 524.516 3.11172 527.805 3.06071C530.354 3.00121 532.972 2.66117 535.555 2.65267C538.326 2.65267 541.096 2.97571 543.867 2.97571C550.496 2.97571 557.142 3.48576 563.737 2.42314C564.688 2.27013 565.011 2.60166 565.071 3.51126C565.198 5.62799 565.555 7.76173 565.538 9.85296C565.436 21.5927 565.249 33.341 565.088 45.0808C565.088 45.3613 565.088 45.7949 564.96 45.8884C563.89 46.5685 564.569 47.5121 564.535 48.3367C564.45 50.8869 564.382 53.3777 564.323 55.894C564.323 57.4242 564.323 58.9543 564.28 60.4845C564.28 60.765 564.323 61.037 564.28 61.3346C564.221 64.0039 564.145 66.6732 564.094 69.3425C564.094 70.3286 564.094 71.3147 564.094 72.3008C564.026 75.4121 563.762 78.532 563.907 81.6518C564.195 88.138 564.756 94.6157 565.088 101.102C565.436 108.821 565.844 116.548 565.759 124.267C565.691 130.473 566.499 136.644 565.989 142.867C565.751 145.681 566.567 148.554 566.635 151.41C566.728 155.125 566.507 158.84 566.507 162.555C566.587 163.668 566.752 164.774 567 165.862V230.988C566.884 231.284 566.798 231.592 566.745 231.906C566.643 233.954 566.584 236.003 566.482 238.043C566.15 244.292 565.717 250.531 565.487 256.788C565.258 263.045 565.139 269.123 565.164 275.294C565.164 284.917 565.453 294.541 565.504 304.198C565.504 307.487 565.207 310.777 565.045 314.067C565.045 314.73 564.79 315.104 564.008 315.036C560.779 314.764 557.558 314.467 554.32 314.322C551.278 314.195 548.218 314.195 545.167 314.229C540.178 314.288 535.19 314.518 530.201 314.492C527.295 314.492 524.388 314.05 521.473 313.948C519.833 313.889 518.184 314.203 516.544 314.169C512.932 314.11 509.32 313.846 505.708 313.821C502.096 313.795 498.637 314.059 495.102 314.05C488.082 314.05 481.062 313.702 474.051 313.855C461.524 314.127 449.006 314.705 436.479 315.053C430.53 315.232 424.504 315.308 418.521 315.359C410.023 315.419 401.524 315.359 393.026 315.453C385.725 315.529 378.425 315.733 371.125 315.869C366.026 315.963 360.858 316.099 355.725 316.107C351.153 316.107 346.589 315.869 342.025 315.92C338.924 315.92 335.839 316.481 332.745 316.498C324.416 316.498 316.088 316.388 307.768 316.413C305.959 316.501 304.157 316.697 302.371 317Z" fill="#fff"/>
</svg>
