<svg width="72" height="72" viewBox="0 0 72 72" fill="none" xmlns="http://www.w3.org/2000/svg">
<g clip-path="url(#clip0_1570_6748)">
<path d="M63.6641 60.2415C63.5591 59.8637 63.5099 59.4727 63.518 59.0808C63.518 58.8963 63.518 58.681 63.4719 58.4504C63.4258 58.2198 63.4181 57.9585 63.3874 57.6818C63.3566 57.405 63.3259 57.1052 63.2951 56.7824C63.2644 56.4595 63.2029 56.129 63.1491 55.7677C63.1491 55.6524 63.1491 55.5294 63.0953 55.4064C63.0415 55.2835 63.0568 55.1528 63.0337 55.0298C62.9799 54.7761 62.9338 54.5071 62.88 54.2611C62.7801 53.7153 62.6187 53.1465 62.4957 52.5393C62.488 52.3793 62.4569 52.2213 62.4034 52.0704C62.3496 51.9243 62.2881 51.7706 62.2189 51.6168C62.072 51.3132 61.9834 50.9846 61.9576 50.6483C61.765 49.9519 61.5077 49.2751 61.1889 48.6267C61.1121 48.4575 61.0429 48.2808 60.9737 48.0963C60.9045 47.9118 60.8277 47.7427 60.7508 47.5659C60.6739 47.3891 60.597 47.2046 60.5048 47.0278C60.4226 46.843 60.3249 46.6656 60.2127 46.4974C59.9537 46.173 59.7581 45.8027 59.6362 45.4059C59.4868 45.0006 59.2537 44.6313 58.952 44.322C58.6907 43.9761 58.4293 43.6148 58.1834 43.2459C57.9374 42.8769 57.6453 42.5233 57.3763 42.1467C57.1293 41.7462 56.8379 41.3749 56.5076 41.0398C56.3385 40.8706 56.1617 40.7092 55.9849 40.5478C55.8081 40.3864 55.639 40.2096 55.4545 40.0482C55.2701 39.8867 55.1548 39.6484 54.9934 39.464L54.732 39.1949L54.4476 38.9489C54.2477 38.7952 54.0479 38.6415 53.8403 38.4954C53.6328 38.3494 53.4098 38.2187 53.1869 38.0803C53.0287 37.8695 52.8511 37.6739 52.6565 37.4961C52.4626 37.3179 52.2543 37.156 52.0339 37.0119C51.9263 36.935 51.811 36.8658 51.6957 36.7966C51.5783 36.7316 51.4578 36.6726 51.3344 36.6198C51.0842 36.503 50.8275 36.4003 50.5657 36.3124C49.6463 35.7109 48.6643 35.2109 47.6371 34.8211C47.122 34.5905 46.584 34.4137 46.0536 34.2138C45.7845 34.1139 45.5078 34.0294 45.2388 33.9371C44.9697 33.8449 44.693 33.7373 44.4163 33.6527C44.1395 33.5682 43.8397 33.5605 43.5476 33.499C43.2556 33.4375 42.9711 33.3914 42.6867 33.3222L42.2563 33.2146L41.8258 33.107C41.5337 33.0301 41.2493 32.9378 40.9572 32.8456C39.7335 32.7954 38.5141 32.6697 37.3059 32.4689C36.9936 32.4496 36.6804 32.4496 36.3681 32.4689H35.8992H35.4304H34.9538H34.4772C34.1598 32.4882 33.8414 32.4882 33.524 32.4689C32.2335 32.5997 30.9506 32.7972 29.6806 33.0608C28.3465 33.2258 27.0483 33.6075 25.8372 34.1908L24.9148 34.5905L24 35.021C23.6849 35.1593 23.3928 35.3208 23.0776 35.4591C22.9316 35.536 22.7701 35.6052 22.6164 35.6744L22.1552 35.8973L21.7401 36.2047L21.3173 36.4968C21.0406 36.6967 20.7485 36.8889 20.4564 37.0657C20.1643 37.2425 19.8799 37.4423 19.5878 37.6268L19.3649 37.7575L19.1496 37.9035L18.7192 38.1956L18.3041 38.5262L17.9044 38.8644C17.643 39.0873 17.3586 39.3025 17.1357 39.5408C16.9128 39.7791 16.613 40.0174 16.367 40.2711C16.121 40.5247 15.8904 40.8015 15.6675 41.0782C14.7462 42.1631 13.8914 43.3029 13.1078 44.4911L12.5159 45.3982C12.3314 45.7057 12.1623 46.0208 11.9855 46.336C11.9086 46.4897 11.8164 46.6512 11.7472 46.8126C11.678 46.974 11.6012 47.1354 11.532 47.3045C11.3838 47.6287 11.258 47.9625 11.1553 48.3038C11.0554 48.642 10.9401 48.9803 10.8094 49.3108C10.6787 49.6413 10.5788 49.9719 10.4558 50.3024C10.3943 50.4715 10.3251 50.6329 10.279 50.802L10.1253 51.3017C10.0715 51.4708 10.0254 51.6399 9.97155 51.809C9.91774 51.9781 9.8793 52.1472 9.84855 52.3163C9.61168 52.9738 9.45679 53.658 9.38736 54.3534L9.32585 54.8684C9.32585 55.0452 9.27973 55.2143 9.27204 55.3834C9.27204 55.7293 9.20287 56.0752 9.14138 56.4134C9.07988 56.7516 9.07989 57.0976 9.04914 57.4358C9.01839 57.774 8.97995 58.1199 8.94921 58.4581V58.9731V59.4267C8.94921 59.4651 8.94921 59.5035 8.94921 59.5343H9.01069H9.14138H9.64871H10.6711C11.3475 59.5343 12.0239 59.5343 12.6927 59.5881C14.0379 59.296 15.36 59.6573 16.6668 59.5881C17.9736 59.7111 19.2572 59.5881 20.5102 59.5881C21.7631 59.5881 23.0315 59.7265 24.2614 59.5881C25.4913 59.5881 26.6981 59.4958 27.8819 59.5881C29.0733 59.442 30.234 59.7111 31.3794 59.5881C32.5247 59.4651 33.6393 59.5881 34.7385 59.5881C35.806 59.7109 36.8841 59.7109 37.9516 59.5881C38.9755 59.5219 40.0025 59.5219 41.0263 59.5881C41.9915 59.6455 42.9592 59.6455 43.9243 59.5881C44.8621 59.5881 45.7768 59.9186 46.6608 59.5881C47.5371 59.5343 48.3904 59.8187 49.2128 59.5881C50.0014 59.4877 50.7995 59.4877 51.588 59.5881H53.7711C56.8997 59.6342 59.3672 59.688 61.0429 59.7418C61.9048 59.7252 62.7664 59.7843 63.618 59.9186C62.5724 60.0747 61.5155 60.1415 60.4587 60.1185C58.3986 60.18 55.3853 60.2338 51.588 60.2876C50.798 60.361 50.0029 60.361 49.2128 60.2876C48.3628 60.334 47.5108 60.334 46.6608 60.2876C45.7518 60.3955 44.8333 60.3955 43.9243 60.2876C42.9865 60.2876 42.0179 60.2261 41.0263 60.2876C40.0347 60.3491 39.0124 60.2261 37.9516 60.2876C36.8843 60.161 35.8058 60.161 34.7385 60.2876C33.6196 60.2262 32.4983 60.2262 31.3794 60.2876C30.2174 60.1532 29.0438 60.1532 27.8819 60.2876C26.6981 60.3568 25.4913 60.2876 24.2614 60.2876C23.0315 60.2876 21.7785 60.3414 20.5102 60.2876C19.2311 60.3906 17.9459 60.3906 16.6668 60.2876C15.36 60.3491 14.0379 60.2876 12.6927 60.2876C12.0239 60.326 11.3552 60.326 10.6711 60.2876H9.64871H7.63477V59.9263C7.63477 59.6112 7.63477 59.2883 7.63477 58.9655V58.6503V58.3813V57.8586C7.6732 57.505 7.71163 57.1514 7.727 56.7978C7.74238 56.4442 7.727 56.0906 7.727 55.7293C7.727 55.368 7.80387 55.0144 7.85 54.6608C7.86691 54.4824 7.89514 54.3053 7.93454 54.1304L8.02678 53.5924C8.14208 52.8775 8.31888 52.178 8.45724 51.4554C8.49567 51.2786 8.54948 51.1095 8.60329 50.9327L8.75704 50.4023L8.91076 49.8719C8.96457 49.6951 9.02607 49.526 9.08756 49.3492L9.61796 48.8726C9.74863 48.5267 9.87931 48.1808 10.0023 47.8272C10.1253 47.4736 10.3713 47.1815 10.5404 46.8433C10.6249 46.6819 10.7095 46.5128 10.7863 46.3437C10.8632 46.1746 10.9555 46.0131 11.0323 45.844C11.2014 45.5058 11.3552 45.1676 11.5243 44.8294L12.047 43.8224C12.8108 42.523 13.7184 41.3137 14.7528 40.2173C15.7321 39.1088 16.8158 38.0972 17.9889 37.1963L18.4117 36.8428L18.6269 36.6736L18.8575 36.5199L19.7646 35.9126L20.6947 35.3515C20.8407 35.2516 21.0022 35.1593 21.1559 35.0748L21.6094 34.7827L22.0706 34.5059L22.5472 34.26C22.8701 34.1062 23.1929 33.9448 23.5235 33.8218L24.5073 33.4221C24.8379 33.2914 25.1607 33.1608 25.4836 33.0147C26.7587 32.4582 28.0992 32.0656 29.4731 31.8463C30.8183 31.5619 32.1788 31.5619 33.4856 31.2621C33.8161 31.2621 34.1467 31.1852 34.4772 31.1391L34.9691 31.0853L35.4611 31.0469H35.9607H36.4527C36.7796 31.068 37.1038 31.1195 37.4212 31.2006C38.0656 31.2117 38.7082 31.2733 39.3429 31.3851C39.9732 31.4697 40.5882 31.6003 41.2185 31.6311C41.5128 31.7383 41.8131 31.8281 42.1179 31.9001L42.5714 31.9924L43.0249 32.0923C43.3247 32.1538 43.6322 32.1999 43.932 32.2691C44.2318 32.3383 44.5239 32.4151 44.8083 32.4997C45.0927 32.5842 45.3848 32.6996 45.6615 32.8072C45.9383 32.9148 46.2226 33.0147 46.4994 33.13C47.0451 33.3606 47.5986 33.5528 48.1444 33.7603C49.2032 34.1964 50.2196 34.729 51.1807 35.3515C51.4273 35.4749 51.6661 35.6135 51.8955 35.7666L52.2338 36.0049C52.3491 36.0894 52.449 36.1817 52.5566 36.2662C52.6642 36.3508 52.9794 36.6121 53.2023 36.7659C53.4101 36.9333 53.6283 37.0874 53.8557 37.2271C54.0632 37.4039 54.2784 37.5576 54.4783 37.7344L55.0702 38.2418L55.3623 38.4954L55.6467 38.7645L56.1848 39.3102C56.4102 39.4311 56.6151 39.5868 56.792 39.7714C56.9725 39.9428 57.1396 40.1279 57.2917 40.3249C57.5915 40.7246 57.8375 41.1551 58.1372 41.524C58.437 41.893 58.7291 42.2927 59.0212 42.6232C59.3133 42.9799 59.5492 43.3791 59.7207 43.807C60.0344 44.1297 60.294 44.5009 60.4894 44.9062C60.6739 45.2983 60.8123 45.6749 60.9814 46.09C61.0736 46.2745 61.1505 46.4667 61.2427 46.6511C61.3349 46.8356 61.4195 47.0201 61.5118 47.1969C61.6072 47.3736 61.6919 47.5558 61.7654 47.7427C61.8334 47.926 61.8898 48.1134 61.9345 48.3038C62.2443 48.9735 62.4814 49.6744 62.6417 50.3946C62.6969 50.7349 62.774 51.0712 62.8724 51.4016C62.9262 51.563 62.9722 51.7168 63.0184 51.8782C63.0624 52.0325 63.0983 52.189 63.126 52.3471C63.3043 52.9213 63.4127 53.5149 63.4489 54.1151C63.495 54.3918 63.5334 54.6608 63.5718 54.8838C63.5718 55.0144 63.5718 55.1451 63.618 55.2681C63.6641 55.3911 63.618 55.5217 63.618 55.6447C63.618 56.006 63.6794 56.3519 63.7102 56.6748C63.7409 56.9976 63.7102 57.3051 63.7102 57.5895C63.7102 57.8739 63.7102 58.1276 63.7102 58.3582C63.7102 58.5888 63.7102 58.804 63.7102 58.9962C63.7512 59.4115 63.7357 59.8304 63.6641 60.2415Z" fill="#5D270D"/>
<path d="M68.392 60.2351C67.7323 60.4069 67.0517 60.4846 66.3703 60.4657H65.6631C65.4071 60.4806 65.1504 60.4806 64.8944 60.4657C64.61 60.3581 64.3179 60.6656 64.0028 60.4657C63.6761 60.4241 63.3455 60.4241 63.0188 60.4657C62.6633 60.4354 62.3059 60.4354 61.9504 60.4657C61.5814 60.6809 61.1817 60.2351 60.8051 60.4657C60.396 60.5044 59.9842 60.5044 59.5751 60.4657C59.1474 60.37 58.7038 60.37 58.2761 60.4657C57.833 60.2966 57.3432 60.2966 56.9001 60.4657C56.6802 60.3396 56.4311 60.2733 56.1776 60.2733C55.9241 60.2733 55.6749 60.3396 55.455 60.4657C54.9441 60.4098 54.4286 60.4098 53.9176 60.4657C53.4056 60.4953 52.8923 60.4953 52.3803 60.4657C51.8491 60.6274 51.2818 60.6274 50.7507 60.4657C50.1985 60.6079 49.6194 60.6079 49.0672 60.4657C48.4984 60.3581 47.9219 60.6271 47.33 60.4657C46.7458 60.4657 46.1539 60.4657 45.5467 60.4657C44.9434 60.339 44.3204 60.339 43.7172 60.4657C43.0967 60.5388 42.4698 60.5388 41.8493 60.4657C41.2232 60.6195 40.5691 60.6195 39.943 60.4657C39.2953 60.4273 38.6459 60.4273 37.9982 60.4657C37.3448 60.4657 36.6914 60.5579 36.0227 60.4657C35.3697 60.3773 34.7078 60.3773 34.0548 60.4657C33.4073 60.508 32.7577 60.508 32.1101 60.4657C31.476 60.4081 30.8379 60.4081 30.2038 60.4657C29.582 60.4196 28.9576 60.4196 28.3358 60.4657C27.7274 60.5235 27.1148 60.5235 26.5064 60.4657C25.8991 60.7578 25.3073 60.3965 24.7231 60.4657C24.1449 60.4197 23.564 60.4197 22.9858 60.4657C22.4252 60.4312 21.863 60.4312 21.3024 60.4657C20.7602 60.5119 20.215 60.5119 19.6728 60.4657C19.1424 60.6118 18.6197 60.3427 18.1354 60.4657C17.6512 60.5887 17.1208 60.4657 16.5981 60.4657C16.1242 60.343 15.6268 60.343 15.1529 60.4657C14.6966 60.5312 14.2333 60.5312 13.777 60.4657C13.3433 60.4083 12.9039 60.4083 12.4702 60.4657C12.0551 60.4657 11.6401 60.1352 11.248 60.4657C10.8483 60.5195 10.4793 60.2351 10.095 60.4657C9.71066 60.6963 9.37243 60.4657 9.03421 60.4657H8.0503C5.23692 60.3735 3.63037 60.2582 3.63037 60.1352C3.63037 60.0122 5.61357 59.8738 9.01115 59.7662C9.36094 59.6928 9.72216 59.6928 10.0719 59.7662C10.4549 59.7198 10.842 59.7198 11.225 59.7662C11.617 59.5587 12.0321 59.7278 12.4472 59.7662C12.8819 59.8044 13.3192 59.8044 13.7539 59.7662C14.1998 59.6432 14.661 59.8277 15.1299 59.7662C15.6038 59.8889 16.1011 59.8889 16.575 59.7662C17.0857 59.8261 17.6017 59.8261 18.1124 59.7662C18.6165 59.8964 19.1455 59.8964 19.6497 59.7662C20.1878 59.697 20.7259 59.7662 21.2793 59.7662C21.8328 59.7662 22.3939 59.7124 22.9627 59.7662C23.5372 59.6623 24.1256 59.6623 24.7 59.7662C25.294 59.7354 25.8893 59.7354 26.4833 59.7662C27.0928 59.7354 27.7034 59.7354 28.3128 59.7662C28.9326 59.8506 29.5609 59.8506 30.1807 59.7662C30.811 59.7662 31.4413 59.7662 32.087 59.7662C32.7346 59.8084 33.3842 59.8084 34.0318 59.7662C34.6792 59.9162 35.3523 59.9162 35.9996 59.7662C36.6573 59.7201 37.3175 59.7201 37.9752 59.7662C38.6285 59.7662 39.2742 59.7662 39.9199 59.7662C40.5656 59.7662 41.1959 59.8584 41.8263 59.7662C42.4566 59.674 43.0792 59.8584 43.6942 59.7662C44.3011 59.6816 44.9167 59.6816 45.5236 59.7662C46.1148 59.8545 46.7158 59.8545 47.307 59.7662C47.8989 59.7201 48.4753 59.4818 49.0442 59.7662C49.613 59.6893 50.1741 59.9046 50.7276 59.7662C51.2658 59.87 51.8189 59.87 52.3572 59.7662C52.8677 59.8289 53.384 59.8289 53.8946 59.7662C54.4062 59.726 54.9203 59.726 55.4319 59.7662C55.9239 59.6355 56.4082 59.9276 56.8771 59.7662C57.3459 59.7662 57.8072 59.7662 58.253 59.7662C58.6989 59.4741 59.1293 59.7662 59.5521 59.7662C59.9749 59.7662 60.3823 59.574 60.782 59.7662C61.1817 59.5433 61.5507 59.7662 61.9273 59.7662C62.304 59.7662 62.696 59.674 62.9958 59.7662C63.3417 59.6125 63.6645 59.8508 63.9797 59.7662C64.2757 59.8041 64.5754 59.8041 64.8714 59.7662C65.1279 59.7359 65.3878 59.7489 65.6401 59.8046H66.3472C67.0474 59.838 67.7377 59.9834 68.392 60.2351Z" fill="#5D270D"/>
<path d="M56.2236 64.0229C56.2236 64.1074 55.7701 64.1843 54.9476 64.2612H54.5018C54.3369 64.2902 54.1695 64.303 54.0021 64.2996C53.8253 64.192 53.6331 64.4995 53.441 64.2996C53.2377 64.2617 53.0293 64.2617 52.826 64.2996C52.6108 64.338 52.3802 64.2304 52.1496 64.2996C51.919 64.3688 51.6807 64.069 51.427 64.2996C51.172 64.3344 50.9134 64.3344 50.6583 64.2996C50.3893 64.1382 50.1203 64.2996 49.8358 64.2996C49.7067 64.2192 49.5575 64.1766 49.4054 64.1766C49.2532 64.1766 49.1041 64.2192 48.9749 64.2996C48.916 64.2375 48.8451 64.188 48.7665 64.1542C48.6878 64.1204 48.6031 64.103 48.5175 64.103C48.4319 64.103 48.3473 64.1204 48.2686 64.1542C48.19 64.188 48.1191 64.2375 48.0602 64.2996C47.7473 64.246 47.4276 64.246 47.1147 64.2996C46.7851 64.3344 46.4527 64.3344 46.1231 64.2996C45.965 64.3812 45.7898 64.4237 45.6119 64.4237C45.4341 64.4237 45.2588 64.3812 45.1007 64.2996C44.9333 64.372 44.7528 64.4093 44.5703 64.4093C44.3879 64.4093 44.2075 64.372 44.04 64.2996C43.6864 64.1997 43.3174 64.4687 42.9484 64.2996C42.5795 64.2996 42.1798 64.3457 41.8262 64.2996C41.4543 64.1765 41.0527 64.1765 40.6808 64.2996C40.2929 64.3802 39.8926 64.3802 39.5047 64.2996C39.1179 64.4573 38.6847 64.4573 38.2979 64.2996C37.8914 64.2612 37.4822 64.2612 37.0757 64.2996C36.6636 64.3265 36.2502 64.3265 35.8381 64.2996C35.4281 64.2074 35.0028 64.2074 34.5928 64.2996C34.1854 64.4303 33.7781 64.2458 33.3707 64.2996C32.9709 64.1151 32.602 64.3611 32.1715 64.2996C31.7804 64.2612 31.3865 64.2612 30.9954 64.2996C30.6135 64.3612 30.2243 64.3612 29.8424 64.2996C29.4657 64.5917 29.0737 64.2227 28.7201 64.2996C28.3575 64.2574 27.9912 64.2574 27.6286 64.2996C27.2673 64.3611 26.9214 64.1689 26.5678 64.2996C26.2286 64.3458 25.8846 64.3458 25.5454 64.2996C25.2072 64.4457 24.8844 64.1766 24.5538 64.2996C24.2233 64.4226 23.9159 64.2996 23.6084 64.2996C23.3009 64.069 22.9934 64.2535 22.7013 64.2996C22.4092 64.3457 22.1171 64.4226 21.8327 64.2996C21.5638 64.246 21.2869 64.246 21.0179 64.2996C20.7489 64.2996 20.4952 63.9691 20.2492 64.2996C20.0033 64.3534 19.7573 64.069 19.5267 64.2996C19.2961 64.5302 19.0732 64.2996 18.8579 64.2996H18.2429C16.4673 64.1997 15.4526 64.0844 15.4526 63.9614C15.4526 63.8384 16.7056 63.7 18.8579 63.6001C19.0732 63.6001 19.2961 63.4233 19.5267 63.5617C19.7573 63.5617 20.0033 63.4464 20.2492 63.5617C20.5029 63.3464 20.7566 63.5617 21.0179 63.5617C21.2884 63.596 21.5622 63.596 21.8327 63.5617C22.1171 63.4387 22.4016 63.6155 22.7013 63.5617C22.8443 63.6243 22.9987 63.6567 23.1548 63.6567C23.3109 63.6567 23.4654 63.6243 23.6084 63.5617C23.9159 63.6923 24.231 63.5617 24.5538 63.5617C24.8844 63.7615 25.2072 63.6232 25.5454 63.5617C25.8836 63.5002 26.2219 63.5617 26.5678 63.5617C26.9137 63.5617 27.2673 63.5156 27.6286 63.5617C27.9855 63.4616 28.3631 63.4616 28.7201 63.5617C29.0936 63.5309 29.4689 63.5309 29.8424 63.5617C30.2263 63.5347 30.6115 63.5347 30.9954 63.5617C31.3798 63.5232 31.7641 63.7692 32.1715 63.5617C32.5635 63.5617 32.9402 63.5617 33.3707 63.5617C33.777 63.604 34.1865 63.604 34.5928 63.5617C34.9944 63.7113 35.4365 63.7113 35.8381 63.5617C36.2493 63.5155 36.6644 63.5155 37.0757 63.5617C37.4908 63.5617 37.8982 63.5617 38.2979 63.5617C38.6976 63.5617 39.105 63.6462 39.5047 63.5617C39.9045 63.4771 40.2734 63.6616 40.6808 63.5617C41.0579 63.477 41.4491 63.477 41.8262 63.5617C42.2028 63.5617 42.5948 63.7538 42.9484 63.5617C43.3174 63.5232 43.7171 63.2849 44.04 63.5617C44.4013 63.4925 44.7548 63.7077 45.1007 63.5617C45.4466 63.7846 45.7926 63.5617 46.1231 63.5617C46.45 63.6307 46.7878 63.6307 47.1147 63.5617C47.4376 63.4617 47.7527 63.6232 48.0602 63.5617C48.3677 63.5002 48.6751 63.7231 48.9749 63.5617C49.267 63.5617 49.5591 63.5617 49.8358 63.5617C50.1203 63.2696 50.3893 63.5617 50.6583 63.5617C50.9274 63.5617 51.181 63.3695 51.427 63.5617C51.6807 63.3388 51.919 63.5617 52.1496 63.5617C52.3802 63.5617 52.6108 63.4694 52.826 63.6001C53.0413 63.4387 53.2411 63.6847 53.441 63.6001C53.6331 63.7 53.8253 63.6001 54.0021 63.6001C54.1689 63.5657 54.3421 63.5791 54.5018 63.6385H54.9476C55.7393 63.8691 56.2236 63.946 56.2236 64.0229Z" fill="#5D270D"/>
<path d="M35.9916 24.0068C35.9916 24.0068 35.8994 24.0914 35.7226 24.1375C35.6197 24.1712 35.5143 24.1969 35.4074 24.2143L34.977 24.3373C34.8624 24.3673 34.7495 24.4032 34.6387 24.445L34.4543 24.5218L34.2621 24.591C34.093 24.5372 34.0623 24.8754 33.8547 24.7755C33.6934 24.8115 33.5462 24.8944 33.4319 25.0138C33.3012 25.1214 33.1014 25.1291 32.9937 25.3059C32.8861 25.4827 32.8708 25.4519 32.7708 25.4596C32.6709 25.4673 32.5556 25.5057 32.5556 25.6595C32.4396 25.823 32.2997 25.9681 32.1405 26.0899C32.0855 26.098 32.0334 26.1199 31.989 26.1535C31.9447 26.1871 31.9095 26.2313 31.8868 26.2821C31.8567 26.3283 31.831 26.3772 31.81 26.4282C31.7942 26.4812 31.7736 26.5326 31.7485 26.5819C31.6881 26.5916 31.6306 26.6146 31.5801 26.6491C31.5296 26.6837 31.4873 26.729 31.4564 26.7817C31.4117 26.8968 31.3908 27.0197 31.3949 27.143C31.0413 27.1968 30.9798 27.4659 31.0951 27.7734C31.0567 27.881 30.9952 27.9886 30.9491 28.0962C30.9182 28.149 30.8949 28.206 30.8799 28.2653C30.8685 28.3289 30.8685 28.3939 30.8799 28.4575C30.8799 28.5805 30.8799 28.7035 30.8184 28.8264C30.814 28.9522 30.7907 29.0766 30.7492 29.1954C30.8126 29.3138 30.8468 29.4455 30.8491 29.5798C30.8607 29.6433 30.8607 29.7084 30.8491 29.7719C30.8384 29.806 30.8256 29.8394 30.8107 29.8719L30.7646 29.9641C30.8537 30.0724 30.9026 30.2082 30.903 30.3484C30.903 30.4176 30.903 30.4791 30.903 30.5483C30.9104 30.6173 30.9104 30.6869 30.903 30.7558C30.8938 30.8251 30.8986 30.8954 30.9171 30.9627C30.9356 31.0301 30.9674 31.093 31.0106 31.1479C31.0474 31.2061 31.0783 31.2679 31.1028 31.3323C31.106 31.3656 31.106 31.399 31.1028 31.4323C31.1028 31.4323 31.1028 31.4323 31.1028 31.4707C31.1135 31.4989 31.1291 31.5249 31.1489 31.5476H31.1412C31.1495 31.5706 31.1659 31.5897 31.1874 31.6014H31.4103C31.5806 31.5903 31.7439 31.5287 31.8792 31.4246C32.1992 31.3105 32.5404 31.2685 32.8785 31.3016C33.029 31.2054 33.2004 31.1468 33.3784 31.1308C33.5563 31.1147 33.7355 31.1417 33.9008 31.2094C34.2479 31.2193 34.5951 31.1987 34.9385 31.1479C35.2918 31.1248 35.6461 31.1248 35.9993 31.1479C36.3469 31.2401 36.7125 31.2401 37.0601 31.1479C37.4137 31.0249 37.7596 31.2401 38.1055 31.2094C38.4284 31.4246 38.7896 31.2094 39.1202 31.3016C39.4468 31.3846 39.7825 31.4259 40.1195 31.4246C40.2886 31.4246 40.45 31.4246 40.6114 31.463H40.7344H40.7959V31.5092C40.7959 31.44 40.7959 31.4015 40.7959 31.3938C40.7959 31.3938 40.9112 31.44 40.8958 31.3938C40.8989 31.3632 40.8989 31.3323 40.8958 31.3016C40.9794 31.2757 41.0594 31.2396 41.1341 31.194C41.1341 31.1248 41.1341 31.0556 41.1341 30.9864C41.1229 30.9203 41.1229 30.8527 41.1341 30.7866C41.1228 30.7205 41.1228 30.6529 41.1341 30.5867C41.1581 30.5238 41.1786 30.4597 41.1956 30.3946C41.2379 30.2647 41.2379 30.1247 41.1956 29.9948C41.1956 29.9948 41.1956 29.9334 41.1956 29.9026C41.1956 29.8719 41.1956 29.8334 41.1956 29.8027C41.1919 29.7387 41.1919 29.6745 41.1956 29.6105C41.1686 29.4838 41.1686 29.3529 41.1956 29.2262C41.1584 29.1732 41.133 29.1128 41.1211 29.0492C41.1091 28.9855 41.111 28.9201 41.1264 28.8572C41.1537 28.7309 41.1317 28.5989 41.0649 28.4882L41.0188 28.3114C41.0188 28.2576 41.0188 28.2038 40.9573 28.1423C40.9134 28.0323 40.8774 27.9193 40.8497 27.8041C40.8737 27.7445 40.8813 27.6797 40.8718 27.6162C40.8624 27.5527 40.8362 27.4928 40.7959 27.4428L40.6729 27.3045C40.6285 27.2666 40.5896 27.2226 40.5576 27.1738C40.4995 27.0784 40.4298 26.9906 40.3501 26.9124C40.307 26.8747 40.2719 26.8287 40.2468 26.7773C40.2218 26.7258 40.2072 26.6698 40.204 26.6126C40.1738 26.5665 40.1481 26.5176 40.1272 26.4666C40.1035 26.4203 40.0751 26.3765 40.0426 26.3359C39.9879 26.2436 39.9079 26.1689 39.812 26.1207C39.7435 26.0356 39.696 25.9355 39.6736 25.8286C39.6679 25.7985 39.655 25.7702 39.6362 25.7461C39.6173 25.722 39.5929 25.7027 39.5651 25.69C39.5373 25.6772 39.5068 25.6712 39.4762 25.6726C39.4456 25.674 39.4158 25.6827 39.3892 25.6979C39.297 25.6595 39.2585 25.5519 39.2047 25.4673C39.1509 25.3827 39.0894 25.2982 38.9587 25.3366C38.9118 25.3512 38.8614 25.3509 38.8147 25.3358C38.7679 25.3207 38.7269 25.2914 38.6974 25.2521C38.6359 25.1829 38.5975 25.083 38.5206 25.0445L38.0978 24.8062C37.6054 24.5684 37.0903 24.3804 36.5604 24.2451C36.1838 24.1682 35.9686 24.099 35.9686 24.0376C35.9686 23.9761 36.0377 23.9761 36.1684 23.9453H36.4067H36.5681H36.7449H37.1677L37.675 24.0299C38.0906 24.1156 38.4953 24.2471 38.8819 24.4219C39.051 24.4988 39.3047 24.4834 39.4123 24.7063C39.5199 24.9292 39.8274 24.86 39.9504 25.0599C40.0134 25.0576 40.076 25.0712 40.1324 25.0994C40.1888 25.1276 40.2372 25.1695 40.2732 25.2213C40.3424 25.3136 40.4039 25.4212 40.4808 25.5134C40.5576 25.6057 40.6345 25.6979 40.7191 25.7901L40.842 25.9285C40.8806 25.9773 40.9274 26.0189 40.9804 26.0515C41.0943 26.1223 41.1831 26.2272 41.2341 26.3513C41.2818 26.4758 41.3522 26.5905 41.4416 26.6895C41.4479 26.7604 41.4634 26.8302 41.4877 26.8971C41.5112 26.9606 41.5395 27.0223 41.5723 27.0815C41.6396 27.2104 41.734 27.3232 41.849 27.4121C41.8471 27.5586 41.8871 27.7026 41.9643 27.8272L42.0719 28.0193C42.1042 28.0858 42.13 28.1554 42.1488 28.2269C42.0946 28.3732 42.0946 28.5341 42.1488 28.6804C42.1949 28.8264 42.2718 28.9648 42.3333 29.1109C42.3856 29.2586 42.4039 29.4162 42.3871 29.5721V29.8104C42.3871 29.8104 42.3871 29.8872 42.3871 29.9334C42.3833 29.9717 42.3833 30.0103 42.3871 30.0486C42.3718 30.2097 42.3718 30.3719 42.3871 30.5329C42.3948 30.6147 42.3948 30.6971 42.3871 30.7789L42.341 31.0249C42.341 31.1094 42.341 31.194 42.341 31.2785C42.3527 31.3627 42.3527 31.4481 42.341 31.5322C42.3209 31.6168 42.2926 31.6992 42.2564 31.7782C42.2417 31.818 42.2237 31.8566 42.2026 31.8935V31.9704L42.1565 32.0472C42.0741 32.3265 41.9765 32.601 41.8644 32.8697L41.7798 33.0696C41.7798 33.0696 41.7798 33.0696 41.7337 33.0696H41.6799H41.5723L41.1418 32.9927C40.996 33.0042 40.8495 33.0042 40.7037 32.9927H40.6114H40.5576H40.4423C40.2877 32.9539 40.1312 32.9231 39.9734 32.9005C39.6582 32.9005 39.3662 32.6237 39.0202 32.8005C38.6974 32.8005 38.3745 32.7083 38.044 32.7237C37.7151 32.6584 37.3783 32.6428 37.0447 32.6775C36.8859 32.6034 36.7127 32.5649 36.5374 32.5649C36.3621 32.5649 36.1889 32.6034 36.0301 32.6775C35.6934 32.7236 35.352 32.7236 35.0154 32.6775C34.6849 32.6775 34.3466 32.7237 34.0161 32.7237C33.6856 32.7237 33.355 32.6775 33.0399 32.8005C32.7247 32.9235 32.3865 32.8005 32.0867 32.9005C31.9385 32.9617 31.7838 33.0055 31.6255 33.0311H31.5102H31.3641C31.2182 33.0387 31.0719 33.0387 30.926 33.0311C30.7862 33.0547 30.6449 33.0676 30.5032 33.0696H30.3572C30.3572 33.0696 30.3572 32.9235 30.2957 32.8467C30.2363 32.5805 30.1181 32.331 29.9498 32.1164L29.9037 32.0319C29.9063 32.0089 29.9063 31.9857 29.9037 31.9627L29.8345 31.8474C29.7883 31.7705 29.7422 31.6936 29.7038 31.6168C29.6668 31.5374 29.6484 31.4506 29.65 31.3631C29.6504 31.2669 29.6799 31.1732 29.7345 31.0941C29.7045 31.0155 29.6889 30.9322 29.6884 30.8481C29.6768 30.7665 29.6768 30.6837 29.6884 30.6021C29.718 30.4401 29.7048 30.2732 29.65 30.1178C29.6756 30.0807 29.6939 30.0389 29.7038 29.9948C29.7104 29.9567 29.7104 29.9177 29.7038 29.8795C29.7154 29.8031 29.7154 29.7254 29.7038 29.6489C29.6809 29.4935 29.6809 29.3355 29.7038 29.18C29.7499 29.0263 29.8037 28.8803 29.8345 28.7419C29.8842 28.5986 29.9076 28.4476 29.9037 28.2961C29.8881 28.2226 29.8881 28.1466 29.9037 28.0731C29.9297 28.0045 29.9606 27.9377 29.9959 27.8733C30.0743 27.7513 30.1364 27.6195 30.1804 27.4812C30.2029 27.339 30.2734 27.2088 30.3803 27.1123C30.485 27.0205 30.5555 26.8958 30.5801 26.7587C30.659 26.6506 30.7309 26.5377 30.7953 26.4205C30.8688 26.3138 30.951 26.2135 31.0413 26.1207C31.0167 26.0458 31.0167 25.965 31.0413 25.8901C31.0777 25.8372 31.1248 25.7927 31.1797 25.7594C31.3002 25.7114 31.416 25.6522 31.5256 25.5826C31.6123 25.4982 31.6872 25.4025 31.7485 25.2982C31.7772 25.2427 31.8218 25.197 31.8765 25.1669C31.9313 25.1368 31.9937 25.1236 32.056 25.1291C32.1021 24.8216 32.3942 24.8293 32.5941 24.7755C32.7939 24.7217 32.8939 24.4757 33.1245 24.4911C33.2321 24.2682 33.5011 24.4065 33.6318 24.2835C33.8316 24.2835 33.9546 24.1759 34.1083 24.1452C34.1743 24.1039 34.2473 24.0753 34.3236 24.0606C34.3977 24.0529 34.4724 24.0529 34.5465 24.0606C34.6731 24.0348 34.8017 24.0194 34.9308 24.0145H35.4074H35.7533C35.8994 23.9299 35.9916 23.9684 35.9916 24.0068Z" fill="#5D270D"/>
<path d="M21.41 40.7041C21.41 40.781 21.3408 40.9116 21.141 41.0884L21.0257 41.1807C20.9913 41.2245 20.9463 41.2588 20.895 41.2806C20.7951 41.2037 20.895 41.5112 20.7566 41.3882C20.6798 41.3882 20.6414 41.4497 20.5952 41.5112C20.5491 41.5727 20.4415 41.5112 20.4261 41.6419C20.4107 41.7726 20.1801 41.5035 20.2493 41.7726C20.2304 41.8106 20.2034 41.8441 20.1702 41.8707C20.137 41.8972 20.0984 41.9162 20.0572 41.9263C19.9034 41.8341 19.9111 42.0109 19.8496 42.0801C19.6728 41.9647 19.642 42.0801 19.642 42.2492C19.4191 42.0877 19.3576 42.1723 19.4268 42.4336C19.35 42.4951 19.2116 42.4336 19.1962 42.6181C19.1809 42.8026 19.0809 42.7949 18.9733 42.8257C18.9733 43.0332 18.9195 43.087 18.735 43.0409C18.735 43.2484 18.6505 43.2638 18.5044 43.2638C18.3584 43.2638 18.4506 43.5329 18.2661 43.5021C18.0816 43.4714 18.1201 43.6866 18.0201 43.7481C17.9202 43.8096 17.7434 43.8019 17.7818 44.0094C17.8203 44.217 17.6973 44.2554 17.5435 44.2785C17.6204 44.5091 17.4744 44.5398 17.313 44.5629C17.1515 44.586 17.0593 44.6782 17.0747 44.855C17.09 45.0318 16.9978 45.1087 16.8517 45.1625C16.7057 45.2163 16.5904 45.2931 16.6211 45.4699C16.6519 45.6467 16.4443 45.6467 16.4136 45.7851C16.1907 45.7851 16.329 46.0234 16.2137 46.0926C16.0984 46.1618 15.9985 46.2463 16.0215 46.4C16.0188 46.4626 16.0005 46.5235 15.9682 46.5771C15.936 46.6308 15.891 46.6756 15.8371 46.7075C16.0446 46.9458 15.668 46.8766 15.6757 47.0073C15.5142 47.0611 15.5911 47.2225 15.5142 47.3071C15.4374 47.3917 15.4604 47.407 15.4143 47.4455C15.3682 47.4839 15.3297 47.53 15.3605 47.5992C15.3912 47.6684 15.3605 47.8375 15.2221 47.8836C15.3144 48.0373 15.0299 48.0297 15.0838 48.1603C15.0507 48.2559 15.0096 48.3485 14.9608 48.4371C14.7148 48.4371 14.8608 48.6062 14.8455 48.6907C14.8301 48.7753 14.907 48.906 14.7302 48.9444C14.684 49.0213 14.5611 49.0751 14.6226 49.1827C14.6841 49.2903 14.2613 49.2442 14.5303 49.4056C14.5303 49.4978 14.2613 49.4902 14.4381 49.6131C14.6149 49.7361 14.3766 49.7515 14.3535 49.813C14.3222 49.873 14.2939 49.9346 14.2689 49.9975C14.046 50.5125 13.8615 50.8123 13.7386 50.7662C13.6156 50.7201 13.5695 50.3126 13.6386 49.5978C13.6386 49.5286 13.5157 49.4133 13.6386 49.3825C13.6386 49.3057 13.5695 49.1904 13.6771 49.1366C13.5003 48.9982 13.6771 48.9674 13.7232 48.8829C13.7693 48.7983 13.8308 48.7292 13.7847 48.6139C13.7386 48.4986 13.9 48.4601 13.8539 48.3371C14.0076 48.291 14.0076 48.1834 13.9307 48.045C14.0845 47.9912 13.9692 47.8375 14.023 47.7376C14.2459 47.7376 14.1613 47.5608 14.1306 47.4224C14.0998 47.284 14.2459 47.2225 14.2459 47.0996C14.282 47.0501 14.3033 46.9915 14.3074 46.9304C14.3184 46.8708 14.3449 46.8152 14.3843 46.769C14.359 46.7048 14.3602 46.6332 14.3876 46.5698C14.4149 46.5064 14.4662 46.4565 14.5303 46.4308C14.5303 46.2924 14.6302 46.2002 14.684 46.0849C14.7379 45.9696 14.8224 45.862 14.8685 45.739C14.9146 45.616 15.1837 45.616 15.0607 45.3931C15.1068 45.2624 15.2375 45.1778 15.2759 45.0472C15.3878 44.9577 15.4664 44.8331 15.4988 44.6936C15.7448 44.6936 15.7295 44.5168 15.7448 44.3477C15.7925 44.2135 15.8813 44.0979 15.9985 44.0171C16.071 43.8963 16.1618 43.7874 16.2675 43.6943C16.306 43.5482 16.5135 43.5482 16.5366 43.3868C16.5596 43.2254 16.7902 43.2561 16.8133 43.1024C16.8363 42.9487 16.9286 42.841 17.0977 42.8257C17.2668 42.8103 17.4129 42.8257 17.3821 42.572C17.3514 42.3183 17.3821 42.1877 17.6665 42.3337C17.705 42.1877 17.9356 42.2722 17.9433 42.1031C18.1739 42.203 18.1354 41.9724 18.2277 41.9032C18.3199 41.8341 18.4737 41.8494 18.5044 41.7111C18.5351 41.5727 18.7119 41.6342 18.7811 41.542C18.8503 41.4497 19.0425 41.542 19.0425 41.3882C19.1347 41.3882 19.1962 41.2576 19.2962 41.2499C19.2193 40.9501 19.4576 41.1499 19.5498 41.1269C19.642 41.1038 19.5959 40.8655 19.7804 41.0116C19.7804 40.7733 19.9111 40.904 20.011 40.9193C20.111 40.9347 20.0956 40.7656 20.2185 40.8425C20.2185 40.6734 20.38 40.8425 20.4184 40.7733C20.5183 40.8348 20.5337 40.7195 20.5952 40.7118C20.6567 40.7041 20.6875 40.6503 20.7643 40.7118H20.9104C21.2179 40.6196 21.3793 40.6272 21.41 40.7041Z" fill="#98772E"/>
<path d="M37.5369 20.7257C37.4523 20.7257 37.337 20.6257 37.1064 20.3951C37.0722 20.3504 37.0336 20.3092 36.9911 20.2721C36.9378 20.2332 36.8932 20.1834 36.8605 20.1261C36.9143 20.0108 36.6145 20.1261 36.7144 19.957C36.8143 19.7879 36.6298 19.8263 36.553 19.7725C36.4761 19.7187 36.553 19.5957 36.3839 19.5726C36.2148 19.5496 36.4761 19.2882 36.1994 19.342C36.1116 19.2836 36.0465 19.1967 36.0149 19.096C36.0918 18.9193 35.8996 18.9116 35.8151 18.827C35.9227 18.6348 35.8151 18.5733 35.6152 18.5349C35.7843 18.3043 35.6997 18.2197 35.4153 18.2197C35.3538 18.1044 35.4153 17.9507 35.2232 17.8738C35.1279 17.7678 35.0641 17.6374 35.0387 17.4972C34.9942 17.4917 34.952 17.4745 34.9163 17.4473C34.8806 17.4202 34.8528 17.3841 34.8356 17.3427C34.8184 17.3013 34.8125 17.2561 34.8185 17.2117C34.8244 17.1672 34.842 17.1252 34.8695 17.0898C34.6389 17.0052 34.6697 16.8208 34.7235 16.644C34.7773 16.4672 34.7235 16.4825 34.6466 16.4057C34.6198 16.3688 34.6053 16.3244 34.6053 16.2788C34.6053 16.2332 34.6198 16.1888 34.6466 16.152C34.6466 16.0674 34.6466 15.9829 34.6466 15.8906C34.6275 15.802 34.6275 15.7103 34.6466 15.6216L34.7082 15.4832C34.7315 15.4429 34.7471 15.3986 34.7543 15.3526C34.7669 15.302 34.7693 15.2495 34.7614 15.198C34.7534 15.1466 34.7354 15.0972 34.7082 15.0528C34.693 14.9534 34.693 14.8523 34.7082 14.753C34.7293 14.6495 34.7865 14.5569 34.8695 14.4916C34.7773 14.2149 34.9772 14.0612 35.177 13.9689C35.2348 13.8844 35.3078 13.8114 35.3923 13.7537C35.4795 13.7015 35.545 13.6196 35.5768 13.5231C35.7228 13.4309 35.7459 13.2464 35.915 13.2002C36.0841 13.1541 36.2071 13.0696 36.2147 12.8774C36.2224 12.6852 36.4377 12.7006 36.4838 12.5546C36.7144 12.5546 36.576 12.3009 36.6913 12.2317C36.7209 12.1744 36.7599 12.1224 36.8066 12.078C36.8248 12.0521 36.8346 12.0212 36.8346 11.9896C36.8346 11.9579 36.8248 11.9271 36.8066 11.9012C36.8025 11.8449 36.8025 11.7884 36.8066 11.7321C36.8148 11.6738 36.8418 11.6198 36.8835 11.5783C36.7451 11.5015 36.7759 11.463 36.822 11.4169C36.8682 11.3708 36.9527 11.317 36.9143 11.2632C36.9359 11.2403 36.948 11.2101 36.948 11.1786C36.948 11.1472 36.9359 11.1169 36.9143 11.0941C36.8862 11.047 36.8679 10.9947 36.8605 10.9403C36.8605 10.8942 36.8605 10.8327 36.8605 10.7712C36.8605 10.7097 36.8604 10.6482 36.7913 10.6252C36.7221 10.6021 36.6145 10.4561 36.6683 10.31C36.4838 10.31 36.6683 10.0487 36.5068 10.0102C36.3454 9.97178 36.3762 9.82573 36.3301 9.71812C36.4531 9.4952 36.2225 9.52595 36.1456 9.44908C36.0687 9.37222 35.9073 9.3799 35.9534 9.19542C35.9995 9.01093 35.8919 8.96481 35.7612 8.95713C35.6306 8.94944 35.8458 8.58047 35.5691 8.7342C35.4691 8.7342 35.5691 8.43441 35.3846 8.52665C35.2001 8.6189 35.277 8.39598 35.2155 8.33448L35.0541 8.15769C34.5929 7.65036 34.3315 7.3352 34.4007 7.23527C34.4698 7.13534 34.9618 7.29676 35.692 7.78103C35.7689 7.82715 35.938 7.78104 35.9226 7.93478C35.9073 8.08851 36.1456 7.93477 36.1533 8.11157C36.3762 8.02702 36.3377 8.22687 36.4069 8.31142C36.4761 8.39598 36.5145 8.51129 36.6606 8.53435C36.8066 8.55741 36.7759 8.75727 36.922 8.78802C36.922 8.9725 37.0065 9.04167 37.1833 9.08011C37.1833 9.2569 37.3601 9.27996 37.437 9.40295C37.3524 9.62587 37.5369 9.672 37.683 9.77193C37.829 9.87186 37.7906 10.0563 37.8905 10.1947C37.9904 10.3331 38.0519 10.4945 38.0596 10.6713C38.1209 10.7455 38.1655 10.832 38.1903 10.925C38.2087 11.0222 38.1923 11.1229 38.1441 11.2094C38.1904 11.3936 38.1904 11.5863 38.1441 11.7705C38.1708 11.8634 38.1708 11.962 38.1441 12.0549C38.1041 12.1446 38.0707 12.2371 38.0442 12.3316C38.0154 12.4254 37.9592 12.5084 37.8828 12.5699C37.8421 12.6018 37.8136 12.6468 37.8024 12.6973C37.7912 12.7477 37.7979 12.8006 37.8213 12.8467C37.7521 13.0311 37.6061 13.1541 37.5292 13.3232C37.3898 13.4417 37.2771 13.5884 37.1987 13.7537C36.9143 13.7537 36.8989 13.9613 36.8297 14.1457C36.7404 14.2971 36.6097 14.4197 36.453 14.4993C36.4162 14.549 36.375 14.5953 36.3301 14.6377L36.2071 14.7607C36.2012 14.7885 36.1891 14.8147 36.1718 14.8373C36.1545 14.8599 36.1325 14.8783 36.1072 14.8914C36.0818 14.9059 36.0611 14.9273 36.0474 14.9532C36.0338 14.9791 36.0279 15.0083 36.0303 15.0374C36.0358 15.0662 36.0329 15.096 36.022 15.1233C36.0111 15.1505 35.9927 15.174 35.9688 15.1911C35.944 15.207 35.9257 15.2312 35.9172 15.2594C35.9087 15.2877 35.9106 15.318 35.9226 15.3449C35.9293 15.4011 35.9293 15.4578 35.9226 15.514C35.9257 15.5395 35.9257 15.5653 35.9226 15.5909C35.9132 15.6215 35.8944 15.6483 35.8689 15.6677C35.8498 15.7293 35.824 15.7886 35.792 15.8445C35.7846 15.8605 35.7808 15.8779 35.7808 15.8956C35.7808 15.9132 35.7845 15.9306 35.7918 15.9466C35.7991 15.9626 35.8098 15.9769 35.8231 15.9885C35.8364 16 35.852 16.0086 35.8689 16.0136C35.9227 16.1289 36.184 16.1904 35.915 16.3672C35.9688 16.421 35.915 16.4825 35.915 16.5517C35.915 16.6209 35.915 16.6824 35.9765 16.7208C35.8919 16.8131 35.9073 16.8746 35.9765 16.9207C36.0456 16.9668 36.0841 17.0129 36.1072 17.0667C36.1302 17.1205 36.1071 17.3358 36.2301 17.4049C36.3531 17.4741 36.2839 17.6356 36.3685 17.7278C36.453 17.82 36.3685 18.0045 36.5068 18.0353C36.5068 18.1506 36.6375 18.2198 36.6529 18.3351C36.9604 18.2736 36.7605 18.5119 36.7913 18.6118C36.822 18.7117 37.068 18.681 36.9297 18.8808C37.168 18.8808 37.0603 19.0269 37.0603 19.1345C37.0603 19.2421 37.2294 19.2344 37.1756 19.3728C37.3524 19.3728 37.1756 19.5573 37.2832 19.5957C37.2371 19.711 37.3601 19.7264 37.3755 19.7956C37.4077 19.8145 37.4328 19.8437 37.4467 19.8785C37.4606 19.9133 37.4626 19.9517 37.4524 19.9877C37.4524 20.0492 37.4984 20.103 37.5138 20.1568C37.5623 20.2854 37.5933 20.4198 37.6061 20.5566C37.5984 20.6565 37.5753 20.718 37.5369 20.7257Z" fill="#98772E"/>
<path d="M29.7732 23.2843C29.6886 23.2843 29.5733 23.1843 29.3504 22.9537L29.2275 22.8307C29.1761 22.7896 29.1319 22.7403 29.0968 22.6847C29.1506 22.5694 28.8508 22.6847 28.9507 22.5156C29.0507 22.3465 28.8662 22.3849 28.7893 22.3311C28.7124 22.2773 28.7508 22.1543 28.6202 22.1312C28.4895 22.1082 28.7124 21.8468 28.4357 21.9006C28.3455 21.8447 28.2797 21.7569 28.2512 21.6546C28.3281 21.4778 28.1359 21.4702 28.0513 21.3856C28.159 21.1934 28.0513 21.1396 27.8515 21.0935C28.0283 20.8629 27.9361 20.7783 27.6517 20.7783C27.5902 20.6707 27.6517 20.5093 27.4595 20.4324C27.3655 20.3286 27.3017 20.201 27.275 20.0635C27.2304 20.0566 27.1883 20.0382 27.1529 20.0102C27.1175 19.9823 27.09 19.9456 27.0729 19.9038C27.0559 19.862 27.05 19.8165 27.0558 19.7717C27.0615 19.727 27.0788 19.6845 27.1059 19.6484C26.8753 19.5638 26.906 19.3793 26.9598 19.2025C27.0136 19.0257 26.9598 19.0411 26.883 18.9643C26.8561 18.9274 26.8416 18.883 26.8416 18.8374C26.8416 18.7918 26.8561 18.7474 26.883 18.7106C26.883 18.626 26.883 18.5415 26.883 18.4492C26.8639 18.3606 26.8639 18.2689 26.883 18.1802C26.883 18.1341 26.9214 18.0879 26.9444 18.0495C26.9657 18.0047 26.9837 17.9585 26.9983 17.9112C27.0161 17.808 26.997 17.7019 26.9444 17.6114C26.9295 17.512 26.9295 17.411 26.9444 17.3116C26.9674 17.2088 27.0242 17.1168 27.1059 17.0502C27.0136 16.7735 27.2135 16.6198 27.4134 16.5275C27.4711 16.443 27.5441 16.37 27.6286 16.3123C27.7173 16.2618 27.7832 16.1793 27.8131 16.0817C27.9591 15.9894 27.9822 15.805 28.1513 15.7588C28.3204 15.7127 28.4434 15.6282 28.4511 15.4437C28.4588 15.2592 28.674 15.2592 28.7124 15.1132C28.9507 15.1132 28.8124 14.8595 28.9277 14.7903C28.9572 14.733 28.9962 14.681 29.043 14.6366C29.0623 14.6112 29.0728 14.5801 29.0728 14.5482C29.0728 14.5162 29.0623 14.4852 29.043 14.4598C29.0388 14.4035 29.0388 14.3469 29.043 14.2907C29.0526 14.2329 29.0794 14.1793 29.1198 14.1369C28.9815 14.0677 29.0122 14.0216 29.0583 13.9755C29.1044 13.9294 29.189 13.8756 29.1506 13.8218C29.1722 13.7989 29.1842 13.7687 29.1842 13.7372C29.1842 13.7057 29.1722 13.6755 29.1506 13.6526C29.1214 13.606 29.103 13.5535 29.0968 13.4989C29.0968 13.4528 29.0968 13.3913 29.0968 13.3298C29.1067 13.3012 29.105 13.2699 29.092 13.2426C29.0791 13.2153 29.056 13.1942 29.0276 13.1838C29.0276 13.0685 28.8508 13.0146 28.9046 12.8686C28.7201 12.8686 28.9046 12.6072 28.7432 12.5688C28.6812 12.4775 28.6247 12.3825 28.574 12.2844C28.6893 12.0538 28.4587 12.0845 28.3819 12.0077C28.305 11.9308 28.1436 11.9385 28.1897 11.754C28.2358 11.5695 28.1282 11.5234 27.9975 11.5157C27.8669 11.508 28.0821 11.1391 27.8054 11.2928C27.7054 11.2928 27.8054 10.993 27.6286 11.0852C27.4518 11.1775 27.5133 10.9546 27.4518 10.8931L27.2904 10.7163C26.8291 10.209 26.5678 9.89379 26.637 9.79387C26.7062 9.69394 27.1981 9.85535 27.9361 10.3396C28.0052 10.3857 28.1743 10.3396 28.159 10.4934C28.1436 10.6471 28.3819 10.5318 28.3896 10.6702C28.6125 10.5933 28.5741 10.7855 28.6432 10.87C28.7124 10.9546 28.7586 11.0699 28.8969 11.0929C29.0353 11.116 29.0122 11.3159 29.1582 11.3543C29.1582 11.5311 29.2428 11.6003 29.4196 11.6387C29.4196 11.8232 29.5964 11.8386 29.6733 11.9615C29.5887 12.1845 29.7732 12.2306 29.9192 12.3305C30.0653 12.4305 30.0269 12.6226 30.1268 12.7533C30.2267 12.884 30.2882 13.0531 30.2959 13.2299C30.3572 13.3041 30.4018 13.3906 30.4266 13.4835C30.4409 13.5808 30.4248 13.6802 30.3805 13.768C30.4267 13.9521 30.4267 14.1449 30.3805 14.3291C30.4074 14.4246 30.4074 14.5257 30.3805 14.6212C30.3392 14.7077 30.3058 14.7977 30.2805 14.8902C30.2517 14.984 30.1955 15.067 30.1191 15.1285C30.0777 15.1617 30.049 15.208 30.0378 15.2598C30.0266 15.3116 30.0336 15.3657 30.0576 15.4129C29.9885 15.5897 29.8347 15.7127 29.7655 15.8818C29.628 16.0039 29.5134 16.1497 29.4273 16.3123C29.1506 16.3123 29.1352 16.5198 29.066 16.7043C28.9748 16.8541 28.8446 16.9763 28.6894 17.0579C28.6525 17.1076 28.6114 17.1539 28.5664 17.1963L28.4434 17.3193C28.4374 17.3471 28.4254 17.3732 28.4081 17.3958C28.3908 17.4184 28.3687 17.4369 28.3434 17.4499C28.3168 17.465 28.2952 17.4877 28.2815 17.5151C28.2678 17.5425 28.2626 17.5733 28.2666 17.6037C28.2725 17.6314 28.2698 17.6603 28.2588 17.6864C28.2478 17.7125 28.2291 17.7346 28.2051 17.7497C28.1803 17.7656 28.1619 17.7898 28.1535 17.818C28.145 17.8463 28.147 17.8766 28.159 17.9035C28.1657 17.9596 28.1657 18.0164 28.159 18.0726C28.1633 18.098 28.1633 18.124 28.159 18.1494C28.1496 18.1822 28.1309 18.2116 28.1052 18.234C28.1052 18.2878 28.0514 18.3416 28.0283 18.4031C28.0052 18.4646 28.0283 18.5261 28.1052 18.5722C28.182 18.6183 28.4203 18.749 28.1513 18.9258C28.2051 18.9796 28.1513 19.0411 28.1513 19.1103C28.1513 19.1795 28.1513 19.241 28.2128 19.2794C28.1282 19.3717 28.1436 19.4331 28.2128 19.4793C28.282 19.5254 28.3204 19.5715 28.3434 19.6253C28.3665 19.6791 28.3435 19.8944 28.4665 19.9635C28.5895 20.0327 28.5203 20.2018 28.6048 20.2864C28.6894 20.3709 28.5664 20.5631 28.7509 20.5939C28.7509 20.7092 28.8739 20.7784 28.8892 20.8937C29.1967 20.8322 28.9968 21.0704 29.0276 21.1781C29.0583 21.2857 29.3043 21.2396 29.1659 21.4394C29.4042 21.401 29.2889 21.5855 29.2966 21.6931C29.3043 21.8007 29.4657 21.793 29.4119 21.9314C29.5887 21.9314 29.4119 22.1159 29.5196 22.1543C29.4734 22.2696 29.5964 22.285 29.6118 22.3541C29.6441 22.3731 29.6691 22.4023 29.6831 22.4371C29.697 22.4719 29.6989 22.5103 29.6886 22.5463C29.6886 22.6078 29.7348 22.6616 29.7501 22.7154C29.7986 22.8439 29.8296 22.9784 29.8424 23.1151C29.8347 23.2151 29.8116 23.2766 29.7732 23.2843Z" fill="#98772E"/>
<path d="M45.3007 23.2843C45.2161 23.2843 45.1008 23.1843 44.8779 22.9537L44.7549 22.8307C44.7036 22.7896 44.6594 22.7403 44.6242 22.6847C44.678 22.5694 44.3783 22.6847 44.4782 22.5156C44.5781 22.3465 44.3937 22.3849 44.3168 22.3311C44.2399 22.2773 44.3168 22.1543 44.1477 22.1312C43.9785 22.1082 44.2399 21.8468 43.9632 21.9006C43.8754 21.8421 43.8102 21.7553 43.7787 21.6546C43.8556 21.4778 43.6634 21.4702 43.5788 21.3856C43.6865 21.1934 43.5788 21.1319 43.379 21.0935C43.5481 20.8629 43.4635 20.7783 43.1791 20.7783C43.1176 20.663 43.1791 20.5093 42.9869 20.4324C42.8917 20.3264 42.8278 20.196 42.8025 20.0558C42.5795 19.9943 42.5334 19.8405 42.6334 19.6484C42.4028 19.5638 42.4335 19.3793 42.4873 19.2025C42.5411 19.0257 42.4873 19.0411 42.4104 18.9643C42.3836 18.9274 42.3691 18.883 42.3691 18.8374C42.3691 18.7918 42.3836 18.7474 42.4104 18.7106C42.4104 18.626 42.4104 18.5415 42.4104 18.4492C42.3913 18.3606 42.3913 18.2689 42.4104 18.1802C42.4341 18.1356 42.4547 18.0893 42.4719 18.0418C42.4944 18.0003 42.5125 17.9565 42.5257 17.9112C42.5436 17.808 42.5245 17.7019 42.4719 17.6114C42.4564 17.512 42.4564 17.4109 42.4719 17.3116C42.4794 17.2593 42.4976 17.209 42.5254 17.1641C42.5532 17.1191 42.5899 17.0804 42.6334 17.0502C42.5334 16.7735 42.7333 16.6198 42.9408 16.5275C42.9935 16.4415 43.0643 16.3681 43.1484 16.3123C43.2356 16.2581 43.303 16.1773 43.3405 16.0817C43.4789 15.9894 43.502 15.805 43.6711 15.7588C43.8402 15.7127 43.9709 15.6282 43.9786 15.436C43.9863 15.2438 44.2015 15.2592 44.2399 15.1132C44.4705 15.1132 44.3398 14.8595 44.4551 14.7903C44.4793 14.7318 44.516 14.6793 44.5628 14.6366C44.5866 14.6146 44.6036 14.5863 44.6118 14.5549C44.6199 14.5236 44.6189 14.4906 44.6089 14.4598C44.601 14.4037 44.601 14.3467 44.6089 14.2907C44.6165 14.2305 44.6467 14.1755 44.6934 14.1369C44.5474 14.0601 44.5781 14.0216 44.6242 13.9755C44.6704 13.9294 44.7549 13.8679 44.7165 13.8218C44.7352 13.7975 44.7453 13.7678 44.7453 13.7372C44.7453 13.7066 44.7352 13.6769 44.7165 13.6526C44.6862 13.6059 44.6654 13.5537 44.655 13.4989C44.6166 13.4528 44.655 13.3913 44.655 13.3298C44.655 13.2683 44.655 13.2068 44.5858 13.1761C44.5166 13.1453 44.409 13.0146 44.4628 12.8686C44.2784 12.8686 44.4628 12.6072 44.3014 12.5688C44.2377 12.4759 44.1812 12.3782 44.1323 12.2767C44.2476 12.0538 44.017 12.0845 43.9401 12.0077C43.8633 11.9308 43.7018 11.9385 43.748 11.754C43.7941 11.5695 43.6865 11.5234 43.5558 11.5157C43.4251 11.508 43.6404 11.1391 43.3636 11.2928C43.2637 11.2928 43.3636 10.993 43.1791 11.0852C42.9946 11.1775 43.0638 10.9546 43.01 10.8931L42.8486 10.7163C42.3874 10.209 42.0799 9.89379 42.1952 9.79387C42.3105 9.69394 42.7563 9.85535 43.4866 10.3396C43.5635 10.3857 43.7326 10.3396 43.7095 10.4934C43.6864 10.6471 43.9401 10.5318 43.9478 10.6702C44.1707 10.5856 44.1323 10.7855 44.2015 10.87C44.2706 10.9546 44.3168 11.0699 44.4551 11.0929C44.5935 11.116 44.5704 11.3082 44.7165 11.3466C44.7165 11.5311 44.801 11.6003 44.9778 11.6387C44.9778 11.8155 45.1547 11.8386 45.2315 11.9615C45.147 12.1845 45.3315 12.2306 45.4775 12.3305C45.6236 12.4305 45.5851 12.6149 45.685 12.7533C45.7057 12.8338 45.7367 12.9113 45.7773 12.9839C45.8177 13.0605 45.8438 13.1439 45.8542 13.2299C45.9155 13.3041 45.96 13.3906 45.9848 13.4835C46.0034 13.5783 45.987 13.6766 45.9387 13.7603C45.9886 13.9466 45.9886 14.1428 45.9387 14.3291C45.9654 14.422 45.9654 14.5206 45.9387 14.6135C45.8998 14.701 45.8665 14.7909 45.8388 14.8825C45.8104 14.9787 45.7542 15.0643 45.6773 15.1285C45.6398 15.1627 45.6137 15.2076 45.6027 15.2571C45.5917 15.3067 45.5963 15.3584 45.6159 15.4053C45.5544 15.5897 45.4006 15.7127 45.3238 15.8818C45.1865 16.0024 45.0743 16.1486 44.9932 16.3123C44.7165 16.3123 44.6934 16.5198 44.6242 16.7043C44.5349 16.8557 44.4043 16.9783 44.2476 17.0579C44.2134 17.1074 44.1748 17.1537 44.1323 17.1963C44.0862 17.2347 44.0477 17.2808 44.0093 17.3193C44.002 17.3476 43.9886 17.374 43.97 17.3966C43.9514 17.4191 43.9281 17.4374 43.9017 17.4499C43.8748 17.4644 43.8535 17.4873 43.841 17.5151C43.8284 17.5429 43.8255 17.574 43.8325 17.6037C43.8341 17.6319 43.8286 17.66 43.8165 17.6855C43.8044 17.711 43.7861 17.7331 43.7633 17.7497C43.7396 17.7666 43.7222 17.7908 43.7139 17.8187C43.7055 17.8465 43.7067 17.8764 43.7172 17.9035C43.7239 17.9596 43.7239 18.0164 43.7172 18.0726V18.1494C43.7037 18.18 43.6826 18.2065 43.6557 18.2263C43.6557 18.2878 43.6019 18.3416 43.5788 18.4031C43.5715 18.4191 43.5677 18.4365 43.5677 18.4541C43.5676 18.4718 43.5714 18.4892 43.5787 18.5052C43.586 18.5212 43.5967 18.5355 43.6099 18.5471C43.6232 18.5586 43.6388 18.5672 43.6557 18.5722C43.7095 18.6952 43.9709 18.749 43.7019 18.9258C43.7557 18.9796 43.7019 19.0411 43.7019 19.1103C43.7019 19.1795 43.7018 19.241 43.7633 19.2794C43.6788 19.3717 43.6941 19.4331 43.7633 19.4793C43.8325 19.5254 43.871 19.5715 43.894 19.6253C43.9171 19.6791 43.894 19.8944 44.017 19.9635C44.14 20.0327 44.0708 20.2018 44.1553 20.2864C44.2399 20.3709 44.1553 20.5631 44.2937 20.5939C44.2937 20.7092 44.4244 20.7784 44.4398 20.8937C44.7472 20.8322 44.5474 21.0704 44.5781 21.1781C44.6089 21.2857 44.8471 21.2396 44.7165 21.4394C44.9548 21.401 44.8472 21.5855 44.8472 21.6931C44.8472 21.8007 45.0163 21.793 44.9625 21.9314C45.1393 21.9314 44.9625 22.1159 45.0701 22.1543C45.024 22.2696 45.1469 22.285 45.1623 22.3541C45.1946 22.3731 45.2197 22.4023 45.2336 22.4371C45.2475 22.4719 45.2495 22.5103 45.2392 22.5463C45.2392 22.6078 45.2853 22.6616 45.3007 22.7154C45.3491 22.8439 45.3802 22.9784 45.3929 23.1151C45.3622 23.2151 45.3391 23.2766 45.3007 23.2843Z" fill="#98772E"/>
</g>
<defs>
<clipPath id="clip0_1570_6748">
<rect width="64.8" height="57.5974" fill="white" transform="translate(3.59961 7.19922)"/>
</clipPath>
</defs>
</svg>
