<svg width="72" height="72" viewBox="0 0 72 72" fill="none" xmlns="http://www.w3.org/2000/svg">
<path d="M11.624 10.6832C11.7196 11.1972 11.7596 11.7199 11.7434 12.2424C11.7881 13.2719 11.8255 14.7863 11.8628 16.7185C11.8628 17.375 11.8628 18.0762 11.8628 18.8223C11.8628 19.5683 11.915 20.3665 11.8628 21.2095C11.8105 22.0525 12.0642 22.9477 11.9001 23.8802C11.8478 24.8128 11.9001 25.79 11.9001 26.8121C11.9001 27.8341 11.8329 28.8935 11.9001 29.9976C12.1164 31.1017 11.6688 32.2356 11.9001 33.4292C11.9597 34.6079 11.9448 35.8314 11.9001 37.0922C11.8034 38.3884 11.8034 39.6901 11.9001 40.9864C11.7359 42.3491 11.7359 43.7267 11.9001 45.0894C11.6391 46.5149 11.6391 47.9759 11.9001 49.4014C11.9001 50.8934 11.8031 52.3855 11.9001 53.8775C11.997 55.3695 11.9747 56.9809 11.9001 58.5699V58.6967V58.7863V58.8385L11.9374 58.8982H12.0194H13.1683C13.8198 58.8982 14.4688 58.9355 15.1154 59.0101C16.7908 58.8645 18.4756 58.8645 20.151 59.0101C21.8519 59.1145 23.5752 58.8385 25.3283 59.0101C27.0815 59.0101 28.857 58.9653 30.6623 59.0101C32.4803 59.1406 34.3052 59.1406 36.1232 59.0101C37.9658 58.9653 39.8532 58.8982 41.7033 59.0101C43.6 58.8534 45.5063 58.8534 47.4029 59.0101C49.3202 59.0101 51.2598 59.122 53.2069 59.0101C54.1842 59.0101 55.1615 59.0101 56.1462 59.0101H57.6382H58.3469H58.4514C58.4537 58.9753 58.4537 58.9404 58.4514 58.9056V58.1969C58.4514 57.7046 58.4514 57.2122 58.4514 56.7049C58.4514 55.7202 58.4514 54.7429 58.3842 53.7656C58.25 51.8185 58.4365 49.8789 58.3842 47.9616C58.5782 46.0443 58.3246 44.1495 58.3842 42.262C58.4439 40.3746 58.4961 38.532 58.3842 36.6819C58.2723 34.8317 58.3096 33.0189 58.3842 31.221C58.0933 29.4157 58.4588 27.6402 58.3842 25.887C58.5111 24.1413 58.3842 22.4106 58.3842 20.7097C58.3842 19.0088 58.5185 17.3302 58.3842 15.6741C58.3842 14.8535 58.3842 14.0328 58.3842 13.2197C58.3842 12.8168 58.3842 12.414 58.3842 12.0111V11.7127C58.3842 11.6232 58.3842 11.474 58.3842 11.4889C58.3842 11.5038 58.3842 11.3919 58.4215 11.3248H58.2649C58.2649 11.3248 58.0038 11.3248 57.8322 11.3248L56.6759 11.2875C55.9155 11.2466 55.1534 11.2466 54.3931 11.2875C52.8563 11.2875 51.3568 11.2875 49.917 11.2875C48.4823 11.1646 47.0397 11.1646 45.605 11.2875C44.195 11.2875 42.8298 11.4218 41.4945 11.2875C40.1591 11.2875 38.861 11.1681 37.6003 11.2875C36.3395 11.4069 35.1235 10.9518 33.9373 11.2875C32.7512 11.3472 31.6098 11.0562 30.5057 11.2875C29.4462 11.3886 28.3796 11.3886 27.3202 11.2875H24.3883C20.1883 11.2353 16.8834 11.1831 14.6305 11.1234C13.504 11.1234 12.6386 11.0637 12.0567 11.0339C11.7606 11.0426 11.4647 11.0126 11.1764 10.9443C11.5312 10.8645 11.8946 10.8294 12.2581 10.8399C13.0042 10.8399 14.0411 10.7802 15.4213 10.7429C18.1815 10.6832 22.2174 10.6236 27.3202 10.5713C28.3805 10.4926 29.4453 10.4926 30.5057 10.5713C31.6098 10.5713 32.7437 10.4445 33.9373 10.5713C35.1556 10.4554 36.382 10.4554 37.6003 10.5713C38.861 10.5713 40.1591 10.631 41.4945 10.5713C42.8298 10.5117 44.195 10.631 45.605 10.5713C47.0397 10.6942 48.4823 10.6942 49.917 10.5713C51.409 10.6982 52.901 10.5713 54.3931 10.5713C55.1505 10.661 55.9138 10.6909 56.6759 10.6609L57.8322 10.6161H58.1231H58.5484L59.5853 10.5788V10.7205V11.7724V12.4513C59.5853 12.8541 59.5853 13.257 59.5853 13.6598C59.5853 14.473 59.5853 15.2936 59.5853 16.1142C59.5853 17.7704 59.6375 19.4414 59.5853 21.1498C59.6861 22.8741 59.6861 24.6029 59.5853 26.3272C59.645 28.0803 59.5853 29.8558 59.5853 31.6612C59.5853 33.4665 59.5853 35.2793 59.5853 37.122C59.5853 38.9647 59.3764 40.8521 59.5853 42.7022C59.5853 44.5896 59.548 46.4845 59.5853 48.4017C59.6226 50.319 59.5256 52.2586 59.5853 54.2057C59.4883 55.1823 59.4509 56.1639 59.4734 57.145C59.4734 57.6374 59.4734 58.1298 59.5182 58.6371C59.5182 58.8907 59.5182 59.1444 59.5182 59.3831C59.5182 59.8456 59.5182 60.3156 59.5182 60.7781H57.3547H55.8627L52.9234 60.7408C50.9763 60.7408 49.0367 60.7408 47.1194 60.7408C45.2022 60.7408 43.3073 60.6439 41.4199 60.7408C39.5324 60.8378 37.6898 60.6439 35.8397 60.7408C33.9896 60.8378 32.1767 60.8378 30.3788 60.7408C28.6021 60.6476 26.8216 60.6476 25.0448 60.7408C23.3231 60.9088 21.5892 60.9088 19.8675 60.7408C18.1591 60.8154 16.4881 60.5916 14.8319 60.7408C14.1859 60.6639 13.5353 60.6315 12.8848 60.6438H11.9224H11.2286H10.3857C10.3857 60.3529 10.3857 60.0694 10.3857 59.7785C10.3857 59.4875 10.3857 59.3085 10.3857 59.0697C10.4304 57.4807 10.505 55.9141 10.3857 54.3773C10.2663 52.8405 10.4453 51.341 10.3857 49.9012C10.326 48.4614 10.5498 46.9992 10.3857 45.5893C10.3857 44.1868 10.3857 42.8216 10.3857 41.4862C10.0947 40.1508 10.3857 38.8528 10.3857 37.592C10.2958 36.3727 10.2958 35.1484 10.3857 33.9291C10.2435 32.7896 10.2435 31.6369 10.3857 30.4974C10.4528 29.3933 10.2887 28.3265 10.3857 27.3119C10.3453 26.3347 10.3577 25.356 10.4229 24.3801C10.5199 23.4475 10.4229 22.5523 10.4229 21.7093C10.3862 20.9136 10.3986 20.1163 10.4602 19.3221C10.4602 18.5761 10.4603 17.8748 10.4976 17.2183C10.4976 15.2638 10.5722 13.7494 10.6095 12.7422C10.8466 12.0106 11.1883 11.3171 11.624 10.6832Z" fill="#5D270D"/>
<path d="M11.624 10.6829C11.8081 11.8371 11.888 13.0056 11.8628 14.1742C11.8628 14.5547 11.8628 14.9575 11.8628 15.3902C11.8628 15.8229 11.915 16.278 11.8628 16.7629C11.8307 17.0121 11.8459 17.2652 11.9075 17.5089V17.7029C11.9043 17.755 11.9043 17.8073 11.9075 17.8595C11.9044 17.9416 11.8867 18.0224 11.8553 18.0982V18.2922C11.992 18.2996 12.129 18.2996 12.2656 18.2922L12.9296 18.2475C13.5115 18.2102 14.1232 18.3146 14.7648 18.2475C15.3989 18.0311 16.0554 18.4787 16.7417 18.2475C17.445 18.2098 18.1497 18.2098 18.8529 18.2475C19.5959 18.3435 20.3481 18.3435 21.091 18.2475C21.8704 18.415 22.6765 18.415 23.4559 18.2475C24.264 18.5046 25.132 18.5046 25.9401 18.2475C26.8047 18.2996 27.6716 18.2996 28.5362 18.2475C29.424 18.2475 30.3267 18.1803 31.2442 18.2475C32.1695 18.0832 33.1165 18.0832 34.0418 18.2475C35.0039 18.1057 35.9817 18.1057 36.9438 18.2475C37.9285 18.3594 38.9207 18.0833 39.9279 18.2475C40.9424 18.2475 41.9645 18.2027 43.0014 18.2475C44.047 18.3742 45.104 18.3742 46.1496 18.2475C47.2201 18.1729 48.2945 18.1729 49.365 18.2475C50.4563 18.0945 51.5636 18.0945 52.6549 18.2475C53.759 18.2475 54.8929 18.3594 55.997 18.2475C56.5565 18.2475 57.1235 18.2475 57.6905 18.2475H58.5409H58.6603H58.7274V18.1952V18.1579V18.0759C58.7274 17.7924 58.7274 17.5089 58.7274 17.2254C58.7386 16.6601 58.7162 16.0946 58.6603 15.5319C58.526 14.4129 58.7125 13.2939 58.6603 12.1898C58.6603 12.0928 58.6603 11.9884 58.6976 11.8914V11.4289C58.7051 11.3794 58.7051 11.3291 58.6976 11.2797H58.5633H58.4962H58.2351C57.8872 11.2983 57.5385 11.2983 57.1906 11.2797C56.1015 11.2797 55.0272 11.1678 53.9679 11.2797C52.9194 11.3431 51.8681 11.3431 50.8197 11.2797C49.7827 11.5781 48.7607 11.2051 47.7536 11.2797C46.739 11.1528 45.7468 11.2797 44.7695 11.2797C43.7922 11.2797 42.8224 11.1379 41.875 11.2797C40.9201 11.2797 39.9875 11.3692 39.0699 11.2797C38.1523 11.4289 37.2497 11.1528 36.3619 11.2797C35.4741 11.4065 34.6162 11.2797 33.7658 11.2797C32.9423 11.1568 32.1051 11.1568 31.2815 11.2797C30.4947 11.347 29.7035 11.347 28.9167 11.2797C28.1717 11.2243 27.4236 11.2243 26.6786 11.2797C25.9326 11.317 25.2537 10.9439 24.5674 11.2797C23.8885 11.3393 23.2246 11.0484 22.5905 11.2797C21.9829 11.3807 21.3628 11.3807 20.7553 11.2797H19.0618C16.6447 11.2274 14.7424 11.1752 13.4443 11.1155C12.7757 11.1316 12.1075 11.0716 11.4525 10.9365C12.2589 10.7841 13.079 10.7166 13.8994 10.7351C15.4884 10.6754 17.816 10.6157 20.7553 10.5635C21.3645 10.4848 21.9813 10.4848 22.5905 10.5635C23.2485 10.5147 23.9093 10.5147 24.5674 10.5635C25.2664 10.4476 25.9797 10.4476 26.6786 10.5635C27.4247 10.5635 28.1707 10.6232 28.9167 10.5635C29.6627 10.5038 30.4758 10.6232 31.2815 10.5635C32.1051 10.6864 32.9423 10.6864 33.7658 10.5635C34.6301 10.623 35.4975 10.623 36.3619 10.5635C37.2596 10.6976 38.1722 10.6976 39.0699 10.5635C39.9875 10.4889 40.9201 10.5635 41.875 10.5635C42.8299 10.5635 43.7922 10.5187 44.7695 10.5635C45.7617 10.4632 46.7614 10.4632 47.7536 10.5635C48.7607 10.5038 49.7827 10.5635 50.8197 10.5635C51.8566 10.5635 52.9085 10.5635 53.9679 10.5635C55.0403 10.6529 56.1182 10.6529 57.1906 10.5635H58.2351H59.9584V12.4136C59.9584 13.5177 59.8987 14.6516 59.9584 15.7557C59.8618 16.3147 59.8243 16.8824 59.8465 17.4492C59.8465 17.7327 59.8465 18.0162 59.8912 18.2997V18.6279V19.0233V19.8439H59.1004H58.3544C58.0709 19.8439 57.7874 19.8439 57.504 19.8439C56.937 19.8439 56.37 19.8439 55.8105 19.8439C54.684 19.8439 53.5725 19.8439 52.4684 19.8439C51.3643 19.8439 50.2676 19.7544 49.1785 19.8439C48.0893 19.9334 47.0224 19.7469 45.9631 19.8439C44.9153 19.926 43.8627 19.926 42.8149 19.8439C41.7925 19.7507 40.7638 19.7507 39.7413 19.8439C38.7541 20.0155 37.7446 20.0155 36.7573 19.8439C35.7725 19.9185 34.8102 19.7022 33.8553 19.8439C32.9259 19.7359 31.9871 19.7359 31.0577 19.8439C30.1563 19.7768 29.2511 19.7768 28.3497 19.8439C27.4694 19.9484 26.604 19.7842 25.7536 19.8439C24.9031 19.9036 24.075 19.6798 23.2693 19.8439C22.4637 19.8439 21.6729 19.8439 20.9045 19.8439C20.1585 20.1423 19.4124 19.8439 18.6664 19.8439C17.9661 19.9412 17.2556 19.9412 16.5552 19.8439C15.9039 19.9862 15.2296 19.9862 14.5783 19.8439C13.967 19.878 13.3543 19.878 12.7431 19.8439C12.6263 19.8758 12.506 19.8933 12.385 19.8961H11.9821C11.6241 19.8961 11.3182 19.829 11.0123 19.8141C11.0198 19.6674 11.0198 19.5205 11.0123 19.3739C11.0225 19.1776 11.0225 18.9809 11.0123 18.7846C11.0123 18.6876 11.0123 18.6354 11.0123 18.5682V18.3743C11.0123 18.1132 11.0123 17.867 11.0123 17.6282C10.9755 17.1707 10.988 16.7105 11.0496 16.2556C11.0496 15.8229 11.0496 15.42 11.0869 15.0396C11.0987 13.5716 11.2789 12.1098 11.624 10.6829Z" fill="#5D270D"/>
<path d="M11.6465 26.5315C11.4624 25.3797 11.3825 24.2137 11.4078 23.0476C11.4078 22.6671 11.4078 22.2643 11.4078 21.8316C11.4078 21.3989 11.3556 20.9438 11.3705 20.4515C11.4025 20.2025 11.3899 19.9499 11.3332 19.7054C11.329 19.6409 11.329 19.5761 11.3332 19.5115V19.4145V19.2802C11.3246 19.0926 11.3397 18.9046 11.378 18.7207V18.3029C11.6913 18.3029 12.0046 18.3029 12.3254 18.3029H12.7134H13.0714C13.6608 18.2656 14.2725 18.3701 14.9067 18.3029C15.5408 18.0866 16.2047 18.5342 16.8836 18.3029C17.5893 18.2653 18.2965 18.2653 19.0023 18.3029C19.7451 18.3996 20.4974 18.3996 21.2403 18.3029C22.0197 18.4705 22.8258 18.4705 23.6052 18.3029C24.4133 18.5601 25.2813 18.5601 26.0894 18.3029C26.9565 18.355 27.8259 18.355 28.693 18.3029C29.5733 18.3029 30.476 18.2358 31.3936 18.3029C32.3213 18.1386 33.2708 18.1386 34.1986 18.3029C35.1582 18.1611 36.1335 18.1611 37.0931 18.3029C38.0779 18.4148 39.0701 18.1388 40.0772 18.3029C41.0843 18.3029 42.1063 18.2582 43.1433 18.3029C44.1889 18.4297 45.2459 18.4297 46.2915 18.3029C47.3644 18.2283 48.4413 18.2283 49.5143 18.3029C50.6031 18.1499 51.7079 18.1499 52.7967 18.3029C53.9008 18.3029 55.0348 18.4148 56.1389 18.3029C56.6984 18.3029 57.2654 18.3029 57.8323 18.3029H58.6828H59.4288H60.2121L60.1674 19.795C60.1674 20.0784 60.1674 20.3619 60.1674 20.6454C60.156 21.2107 60.1785 21.7762 60.2345 22.3389C60.3688 23.4654 60.1823 24.5769 60.2345 25.681C60.1628 26.2675 60.1379 26.8587 60.1599 27.4491H59.2423H58.7798H58.5187C58.1683 27.4677 57.8172 27.4677 57.4668 27.4491C56.3851 27.4491 55.3108 27.3372 54.2515 27.4491C53.203 27.5126 52.1517 27.5126 51.1033 27.4491C50.0663 27.7475 49.0443 27.3745 48.0297 27.4491C47.0226 27.3223 46.0229 27.4491 45.0456 27.4491C44.0684 27.4491 43.0985 27.3073 42.1436 27.4491C41.1962 27.4491 40.2637 27.5386 39.3461 27.4491C38.421 27.5983 37.5258 27.3223 36.638 27.4491C35.7503 27.5759 34.8924 27.4491 34.0419 27.4491C33.2184 27.3262 32.3812 27.3262 31.5577 27.4491C30.7708 27.5164 29.9797 27.5164 29.1928 27.4491C28.4478 27.3937 27.6998 27.3937 26.9548 27.4491C26.2088 27.4491 25.5224 27.1134 24.8436 27.4491C24.1572 27.5088 23.5007 27.2178 22.8666 27.4491C22.2591 27.5501 21.639 27.5501 21.0314 27.4491H19.338C16.9209 27.3969 15.0185 27.3446 13.7205 27.285C13.0519 27.3011 12.3836 27.241 11.7286 27.1059C12.535 26.9536 13.3551 26.886 14.1755 26.9045C15.7646 26.8448 18.0921 26.7851 21.0314 26.7329C21.6406 26.6542 22.2574 26.6542 22.8666 26.7329C23.5247 26.684 24.1855 26.684 24.8436 26.7329C25.5425 26.617 26.2558 26.617 26.9548 26.7329C27.7008 26.7329 28.4468 26.7926 29.1928 26.7329C29.9388 26.6732 30.752 26.7926 31.5577 26.7329C32.381 26.859 33.2186 26.859 34.0419 26.7329C34.9061 26.7962 35.7738 26.7962 36.638 26.7329C37.5357 26.8671 38.4484 26.8671 39.3461 26.7329C40.2637 26.6583 41.1962 26.7329 42.1436 26.7329C43.0911 26.7329 44.0609 26.6881 45.0456 26.7329C46.0378 26.6321 47.0376 26.6321 48.0297 26.7329C49.0443 26.6658 50.0663 26.7329 51.1033 26.7329C52.1402 26.7329 53.1847 26.7329 54.2515 26.7329C55.3215 26.8186 56.3967 26.8186 57.4668 26.7329H58.9066V26.6285V26.2256C58.9066 25.1215 58.9663 23.9876 58.9066 22.8835C59.0035 22.3245 59.041 21.7569 59.0185 21.19C59.0185 20.9065 59.0185 20.623 58.9663 20.3396V20.265C58.9663 20.265 58.9663 20.265 58.9663 20.2277H58.9066H58.7947C58.5112 20.2277 58.2277 20.2277 57.9442 20.2277C57.3773 20.2277 56.8103 20.2277 56.2508 20.2277C55.1243 20.2277 54.0128 20.2277 52.9086 20.2277C51.8045 20.2277 50.7079 20.1381 49.6262 20.2277C48.5444 20.3172 47.4627 20.1307 46.4034 20.2277C45.3556 20.3098 44.303 20.3098 43.2552 20.2277C42.2353 20.1345 41.209 20.1345 40.1891 20.2277C39.2017 20.3985 38.1924 20.3985 37.205 20.2277C36.2277 20.3023 35.2579 20.0859 34.3105 20.2277C33.3786 20.1197 32.4374 20.1197 31.5055 20.2277C30.6065 20.1606 29.7038 20.1606 28.8049 20.2277C27.9171 20.3321 27.0518 20.168 26.2013 20.2277C25.3508 20.2873 24.5302 20.0635 23.7171 20.2277C22.9114 20.2277 22.1206 20.2277 21.3522 20.2277C20.6062 20.5261 19.8602 20.2277 19.1142 20.2277C18.4113 20.3249 17.6984 20.3249 16.9955 20.2277C16.3442 20.3697 15.6699 20.3697 15.0185 20.2277C14.4073 20.2616 13.7946 20.2616 13.1834 20.2277C13.0666 20.2595 12.9463 20.277 12.8253 20.2799H12.5343C12.4067 20.2452 12.2772 20.2178 12.1464 20.1978C12.1353 20.2545 12.1353 20.3127 12.1464 20.3694C12.115 20.4371 12.0997 20.5111 12.1016 20.5857V20.9438C12.1164 21.1923 12.1164 21.4414 12.1016 21.6898C12.1385 22.1499 12.126 22.6126 12.0643 23.07C12.0643 23.5027 12.0643 23.9055 12.0643 24.286C11.9693 25.042 11.8298 25.7918 11.6465 26.5315Z" fill="#5D270D"/>
<path d="M11.6241 26.5312C11.8081 27.6855 11.888 28.854 11.8629 30.0226C11.8629 30.4031 11.8629 30.8059 11.8629 31.2386C11.8629 31.6713 11.9151 32.1264 11.8629 32.6113C11.8308 32.8606 11.8459 33.1137 11.9076 33.3573V33.5438C11.9039 33.5985 11.9039 33.6533 11.9076 33.7079C11.9045 33.7899 11.8868 33.8708 11.8554 33.9466V34.1406C11.9921 34.148 12.129 34.148 12.2657 34.1406L12.9297 34.0959C13.5115 34.0586 14.1233 34.163 14.7649 34.0959C15.399 33.8795 16.0555 34.3271 16.7418 34.0959C17.445 34.0582 18.1498 34.0582 18.853 34.0959C19.5959 34.1919 20.3481 34.1919 21.0911 34.0959C21.8704 34.2634 22.6766 34.2634 23.4559 34.0959C24.264 34.353 25.132 34.353 25.9402 34.0959C26.8049 34.1442 27.6716 34.1442 28.5363 34.0959C29.424 34.0959 30.3267 34.0287 31.2443 34.0959C32.1696 33.9316 33.1166 33.9316 34.0419 34.0959C35.004 33.9541 35.9817 33.9541 36.9439 34.0959C37.9286 34.2078 38.9208 33.9317 39.9279 34.0959C40.9425 34.0959 41.9645 34.0511 43.0015 34.0959C44.0471 34.2226 45.1041 34.2226 46.1497 34.0959C47.2202 34.0213 48.2946 34.0213 49.365 34.0959C50.4563 33.9429 51.5636 33.9429 52.6549 34.0959C53.759 34.0959 54.893 34.2078 55.9971 34.0959C56.5566 34.0959 57.1236 34.0959 57.6905 34.0959H58.541H58.6604H58.7275V34.0436V34.0063V33.9243C58.7275 33.6408 58.7275 33.3573 58.7275 33.0738C58.7387 32.5085 58.7162 31.943 58.6604 31.3803C58.5261 30.2613 58.7126 29.1423 58.6604 28.0382C58.6604 27.9412 58.6604 27.8368 58.6977 27.7398V27.6279C58.7051 27.5784 58.7051 27.5282 58.6977 27.4787H58.5634H58.4963H58.2351C57.8872 27.4973 57.5386 27.4973 57.1907 27.4787C56.1015 27.4787 55.0273 27.3668 53.9679 27.4787C52.9195 27.5422 51.8682 27.5422 50.8198 27.4787C49.7828 27.7771 48.7608 27.4041 47.7536 27.4787C46.7391 27.3519 45.7469 27.4787 44.7696 27.4787C43.7923 27.4787 42.8225 27.337 41.875 27.4787C40.9201 27.4787 39.9876 27.5682 39.07 27.4787C38.1524 27.6279 37.2497 27.3519 36.362 27.4787C35.4742 27.6055 34.6163 27.4787 33.7659 27.4787C32.9423 27.3558 32.1051 27.3558 31.2816 27.4787C30.4948 27.546 29.7036 27.546 28.9168 27.4787C28.1718 27.4234 27.4237 27.4234 26.6787 27.4787C25.9327 27.4787 25.2538 27.143 24.5675 27.4787C23.8886 27.5384 23.2247 27.2474 22.5906 27.4787C21.983 27.5797 21.3629 27.5797 20.7554 27.4787H19.0619C16.6448 27.4265 14.7425 27.3743 13.4444 27.3146C12.7758 27.3307 12.1076 27.2706 11.4526 27.1355C12.2589 26.9832 13.079 26.9157 13.8995 26.9341C15.4885 26.8744 17.8161 26.8147 20.7554 26.7625C21.3646 26.6838 21.9814 26.6838 22.5906 26.7625C23.2486 26.7137 23.9094 26.7137 24.5675 26.7625C25.2665 26.6466 25.9798 26.6466 26.6787 26.7625C27.4247 26.7625 28.1708 26.8222 28.9168 26.7625C29.6628 26.7028 30.4759 26.8222 31.2816 26.7625C32.1049 26.8886 32.9426 26.8886 33.7659 26.7625C34.6301 26.8258 35.4978 26.8258 36.362 26.7625C37.2597 26.8967 38.1723 26.8967 39.07 26.7625C39.9876 26.6879 40.9201 26.7625 41.875 26.7625C42.8299 26.7625 43.7923 26.7178 44.7696 26.7625C45.7617 26.6622 46.7615 26.6622 47.7536 26.7625C48.7608 26.6954 49.7828 26.7625 50.8198 26.7625C51.8567 26.7625 52.9086 26.7625 53.9679 26.7625C55.0405 26.8483 56.1182 26.8483 57.1907 26.7625H58.2351H59.9584V28.6126C59.9584 29.7167 59.8988 30.8507 59.9584 31.9548C59.8618 32.5138 59.8243 33.0814 59.8465 33.6482C59.8465 33.9317 59.8465 34.2152 59.8913 34.4987V34.8195V35.2223V36.0429H59.1005H58.3545H57.504C56.9371 36.0429 56.3701 36.0429 55.8106 36.0056C54.6841 36.0056 53.5725 36.0056 52.4684 36.0056C51.3643 36.0056 50.2677 35.9161 49.1785 36.0056C48.0894 36.0952 47.0225 35.9087 45.9632 36.0056C44.9154 36.0878 43.8628 36.0878 42.815 36.0056C41.7926 35.9124 40.7638 35.9124 39.7414 36.0056C38.7541 36.1772 37.7447 36.1772 36.7574 36.0056C35.7726 36.0802 34.8103 35.8639 33.8554 36.0056C32.926 35.8976 31.9872 35.8976 31.0578 36.0056C30.1565 35.9349 29.2511 35.9349 28.3498 36.0056C27.4695 36.1101 26.6041 35.946 25.7536 36.0056C24.9032 36.0653 24.0751 35.8415 23.2694 36.0056C22.4637 36.0056 21.6729 36.0056 20.9046 36.0056C20.1585 36.3041 19.4125 36.0056 18.6665 36.0056C17.9205 36.0056 17.2342 36.2071 16.5553 36.0056C15.904 36.1479 15.2297 36.1479 14.5784 36.0056C13.9671 36.0397 13.3544 36.0397 12.7431 36.0056C12.6256 36.034 12.5058 36.0515 12.3851 36.0579H12.2135H11.9822C11.6241 36.0579 11.3183 35.9982 11.0124 35.9833C11.0199 35.8366 11.0199 35.6897 11.0124 35.5431C11.0226 35.3468 11.0226 35.1501 11.0124 34.9538C11.0124 34.8568 11.0124 34.8046 11.0124 34.73V34.5435C11.0124 34.2824 11.0124 34.0362 11.0124 33.7975C10.9755 33.3399 10.988 32.8797 11.0497 32.4248C11.0497 31.9921 11.0497 31.5892 11.087 31.2088C11.0733 29.6335 11.2537 28.0625 11.6241 26.5312Z" fill="#5D270D"/>
<path d="M7.66272 3.59766C7.84152 4.90269 7.91884 6.21962 7.89398 7.53661C7.89398 7.96184 7.894 8.4169 7.9313 8.90181C7.9686 9.38672 7.97606 9.99847 7.9313 10.2447C7.9247 10.3017 7.9247 10.3592 7.9313 10.4162C8.09326 10.409 8.25366 10.3814 8.40874 10.3342H8.48334H8.57286H8.76683C8.89793 10.3336 9.02846 10.3512 9.15475 10.3864C9.78809 10.4307 10.4238 10.4307 11.0571 10.3864C11.7211 10.3864 12.4074 10.4535 13.1236 10.3864C13.8696 10.1701 14.6156 10.6176 15.3616 10.3491C16.1076 10.2969 16.9282 10.3118 17.7414 10.3491C18.5818 10.4421 19.43 10.4421 20.2704 10.3491C21.1531 10.5131 22.0584 10.5131 22.9411 10.3491C23.8554 10.6101 24.8244 10.6101 25.7387 10.3491C26.7152 10.4049 27.694 10.4049 28.6705 10.3491C29.6627 10.3491 30.6773 10.2819 31.7143 10.3491C32.7622 10.1848 33.8294 10.1848 34.8773 10.3491C35.9617 10.2035 37.0606 10.2035 38.1449 10.3491C39.249 10.4535 40.3829 10.1775 41.5094 10.3491C42.6508 10.3491 43.8071 10.3043 44.9709 10.3491C46.151 10.4796 47.3419 10.4796 48.522 10.3491C49.7292 10.2707 50.9403 10.2707 52.1476 10.3491C53.3856 10.1861 54.6396 10.1861 55.8777 10.3491C57.1235 10.3118 58.3843 10.461 59.6525 10.3491C60.2791 10.3491 60.9207 10.3491 61.5548 10.3491C61.8756 10.3491 62.1964 10.3491 62.5172 10.3491H62.6888H62.7708V10.2894V10.1104C62.7708 9.78959 62.7708 9.4688 62.7708 9.15548C62.7821 8.51814 62.7597 7.88065 62.7037 7.24568C62.6539 6.70258 62.6415 6.15671 62.6664 5.61191V4.79873C62.6664 4.75397 62.6664 4.79873 62.6664 4.75397V4.70921C62.6664 4.70921 62.6664 4.66445 62.6664 4.64207C62.637 4.6348 62.6063 4.6348 62.5769 4.64207H62.368H61.898C61.5921 4.64207 61.2788 4.64207 60.973 4.64207C60.3538 4.64207 59.742 4.71667 59.1303 4.68683C57.9068 4.68683 56.6983 4.57493 55.5047 4.68683C54.3218 4.75031 53.1364 4.75031 51.9536 4.68683C50.7824 4.98524 49.6335 4.61223 48.4921 4.68683C47.3582 4.56001 46.2541 4.68683 45.1276 4.68683C44.0011 4.68683 42.9343 4.54509 41.86 4.68683C40.7858 4.68683 39.7339 4.78381 38.6969 4.68683C37.6674 4.83603 36.6454 4.56001 35.6532 4.68683C34.661 4.81365 33.6763 4.68683 32.7214 4.68683C31.7929 4.56394 30.8523 4.56394 29.9238 4.68683C29.0348 4.75414 28.142 4.75414 27.2531 4.68683C26.411 4.63115 25.5662 4.63115 24.7241 4.68683C23.9109 4.72413 23.1127 4.35112 22.3443 4.68683C21.5983 4.74651 20.8523 4.45557 20.1063 4.68683C19.4212 4.7879 18.7249 4.7879 18.0398 4.68683H16.1375C13.407 4.63461 11.2585 4.58239 9.79633 4.52271C9.0462 4.53821 8.29642 4.47823 7.55829 4.34367C8.47015 4.19116 9.39419 4.12373 10.3185 4.14226C12.109 4.08257 14.735 4.02288 18.0473 3.97066C18.7338 3.89195 19.4271 3.89195 20.1137 3.97066C20.8589 3.92149 21.6065 3.92149 22.3518 3.97066C23.1408 3.85503 23.9425 3.85503 24.7315 3.97066C25.5522 3.97066 26.3952 4.03034 27.2605 3.97066C28.1259 3.91098 29.0211 4.03034 29.9313 3.97066C30.8595 4.09721 31.8006 4.09721 32.7288 3.97066C33.7051 4.03396 34.6844 4.03396 35.6607 3.97066C36.6708 4.10478 37.6943 4.10478 38.7044 3.97066C39.7414 3.89606 40.7932 3.97066 41.8675 3.97066C42.9418 3.97066 44.0309 3.9259 45.1351 3.97066C46.2543 3.8699 47.3803 3.8699 48.4996 3.97066C49.641 3.90352 50.7898 3.97066 51.9611 3.97066C53.1323 3.97066 54.311 3.97066 55.5121 3.97066C56.7191 4.05642 57.9307 4.05642 59.1377 3.97066C59.7495 3.97066 60.3612 3.97066 60.9804 3.97066H64.0242V6.26838C64.0242 6.81297 64.0241 7.35756 64.0614 7.90215C63.9571 8.53305 63.9196 9.17319 63.9495 9.81195C63.9495 10.1253 63.9495 10.4461 63.9943 10.7668V11.0503V11.498C63.9943 11.8038 63.9943 12.1097 64.0316 12.4156H63.1289H61.4205L59.5182 12.3782C58.25 12.3782 56.9892 12.3782 55.7434 12.3782C54.4975 12.3782 53.2666 12.2813 52.0133 12.3782C50.76 12.4752 49.5813 12.2813 48.3877 12.3782C47.2055 12.4641 46.0188 12.4641 44.8367 12.3782C43.6847 12.285 42.5271 12.285 41.3751 12.3782C40.2599 12.5461 39.1258 12.5461 38.0106 12.3782C36.8991 12.4528 35.8099 12.229 34.7431 12.3782C33.6913 12.2739 32.6317 12.2739 31.58 12.3782C30.5666 12.3075 29.5496 12.3075 28.5362 12.3782C27.5366 12.4827 26.5593 12.3186 25.6044 12.3782C24.6495 12.4379 23.717 12.2141 22.8068 12.3782C21.8967 12.3782 21.0015 12.3782 20.1361 12.3782C19.2707 12.6692 18.4277 12.3782 17.6071 12.3782C16.8164 12.468 16.018 12.468 15.2273 12.3782C14.4882 12.5214 13.7284 12.5214 12.9893 12.3782C12.2433 12.3111 11.5868 12.4752 10.9228 12.3782C10.2898 12.431 9.65349 12.431 9.02047 12.3782C8.89194 12.3588 8.76244 12.3463 8.63255 12.341H8.23717H7.2002C7.2002 12.229 7.2002 12.1172 7.2002 11.9978C7.2002 11.6397 7.2002 11.1846 7.2002 10.9832C7.2002 10.7818 7.2002 10.4684 7.25242 10.2372C7.25242 9.75227 7.25241 9.29722 7.28971 8.87199C7.2165 7.10546 7.34161 5.33629 7.66272 3.59766Z" fill="#5D270D"/>
<path d="M7.66259 59.6211C7.84169 60.9236 7.91901 62.2381 7.89385 63.5526C7.89385 63.9778 7.89386 64.4329 7.93116 64.9178C7.96846 65.4027 7.97592 66.0144 7.93116 66.2681C7.92456 66.3251 7.92456 66.3827 7.93116 66.4397C8.09271 66.4288 8.25269 66.4013 8.4086 66.3576H8.75923C8.89036 66.3566 9.02098 66.3742 9.14717 66.4098C9.78064 66.4503 10.416 66.4503 11.0495 66.4098C11.7135 66.3651 12.4072 66.477 13.1234 66.3725C13.8396 66.2681 14.6154 66.6112 15.3615 66.3725C16.1075 66.3203 16.9206 66.3725 17.7413 66.3725C18.5817 66.4655 19.4298 66.4655 20.2703 66.3725C21.1526 66.5402 22.0586 66.5402 22.941 66.3725C23.8547 66.6372 24.8248 66.6372 25.7385 66.3725C26.7125 66.4283 27.6889 66.4283 28.6629 66.3725C29.6626 66.3725 30.6772 66.3054 31.7141 66.3725C32.7615 66.2008 33.8298 66.2008 34.8772 66.3725C35.9588 66.2234 37.0557 66.2234 38.1373 66.3725C39.2489 66.477 40.3753 66.2009 41.5093 66.3725C42.6432 66.3725 43.7996 66.3278 44.9708 66.3725C46.1509 66.503 47.3418 66.503 48.5218 66.3725C49.7291 66.2941 50.9402 66.2941 52.1475 66.3725C53.3855 66.2095 54.6395 66.2095 55.8775 66.3725C57.1234 66.3352 58.3841 66.4844 59.6524 66.3725C60.279 66.3725 60.9206 66.3725 61.5547 66.3725C61.8755 66.3725 62.1963 66.3725 62.5171 66.3725H62.6886H62.7707V66.3128V66.2755V66.0965C62.7707 65.7757 62.7707 65.4549 62.7707 65.1416C62.782 64.5043 62.7596 63.8668 62.7036 63.2318C62.6539 62.6862 62.6415 62.1379 62.6663 61.5906C62.6663 61.322 62.6663 61.046 62.6663 60.7774C62.6663 60.7326 62.6663 60.7401 62.6663 60.7326V60.6879C62.6663 60.6879 62.6663 60.6431 62.6663 60.6208H62.6886C62.6886 60.6208 62.629 60.6208 62.5991 60.6208H62.4798H62.0172C61.7039 60.6208 61.398 60.6208 61.0922 60.6208C60.4792 60.6691 59.8641 60.6841 59.2495 60.6655C58.0261 60.6655 56.8175 60.5536 55.6164 60.6655C54.436 60.7252 53.2533 60.7252 52.0728 60.6655C50.9016 60.9565 49.7453 60.5834 48.6114 60.6655C47.4699 60.5387 46.3733 60.6655 45.2393 60.6655C44.1054 60.6655 43.0461 60.5312 41.9718 60.6655C40.905 60.6655 39.8457 60.7625 38.8162 60.6655C37.7792 60.8147 36.7646 60.5461 35.765 60.6655C34.7653 60.7849 33.7955 60.6655 32.8406 60.6655C31.9094 60.5463 30.9668 60.5463 30.0356 60.6655C29.1491 60.7328 28.2588 60.7328 27.3723 60.6655C26.5302 60.6099 25.6854 60.6099 24.8433 60.6655C24.0227 60.7028 23.2245 60.3298 22.4561 60.6655C21.7101 60.7252 20.964 60.4342 20.218 60.6655C19.5304 60.7667 18.8317 60.7667 18.1441 60.6655H16.2418C13.5113 60.6133 11.3628 60.5611 9.90063 60.5014C9.15036 60.5219 8.40005 60.4619 7.66259 60.3223C8.57449 60.1707 9.49871 60.1058 10.4228 60.1284C12.2133 60.0612 14.8392 60.0016 18.1516 59.9493C18.8408 59.8743 19.5362 59.8743 20.2255 59.9493C20.9707 59.8998 21.7183 59.8998 22.4635 59.9493C23.2553 59.8371 24.059 59.8371 24.8508 59.9493C25.6639 59.9493 26.5069 60.009 27.3798 59.9493C28.2526 59.8897 29.1329 60.0165 30.043 59.9493C30.9737 60.076 31.9173 60.076 32.8481 59.9493C33.8219 60.0089 34.7986 60.0089 35.7724 59.9493C36.7848 60.0873 37.8112 60.0873 38.8236 59.9493C39.8531 59.8747 40.9125 59.9493 41.9793 59.9493C43.0461 59.9493 44.1427 59.9046 45.2468 59.9493C46.3686 59.8485 47.4971 59.8485 48.6188 59.9493C49.7528 59.8897 50.9091 59.9493 52.0803 59.9493C53.2516 59.9493 54.4303 59.9493 55.6239 59.9493C56.8333 60.0388 58.0476 60.0388 59.257 59.9493C59.8687 59.9493 60.4804 59.9493 61.0996 59.9493H62.4872H63.1959H64.1359V62.2396C64.1359 62.7842 64.1359 63.3288 64.1732 63.8808C64.0689 64.5117 64.0314 65.1519 64.0613 65.7906C64.0613 66.104 64.0613 66.4247 64.1061 66.7455V67.029V67.4766C64.1061 67.7825 64.1061 68.0883 64.1434 68.3942H63.2407H61.5323L59.63 67.3796C58.3618 67.3796 57.101 67.3796 55.8551 67.3796C54.6093 67.3796 53.3784 67.2901 52.1251 67.3796C50.8718 67.4692 49.6931 67.2827 48.4995 67.3796C47.3173 67.4655 46.1305 67.4655 44.9484 67.3796C43.7965 67.2864 42.6388 67.2864 41.4869 67.3796C40.3692 67.5476 39.2326 67.5476 38.1149 67.3796C37.0108 67.4542 35.9216 67.2304 34.8548 67.3796C33.8031 67.2753 32.7435 67.2753 31.6917 67.3796C30.6759 67.3089 29.6564 67.3089 28.6405 67.3796C27.6483 67.4841 26.6711 67.32 25.7162 67.3796C24.7613 67.4393 23.8287 67.2155 22.9186 67.3796C22.001 67.3796 21.1132 67.3796 20.2479 67.3796C19.3825 67.678 18.5395 67.3796 17.7189 67.3796C16.9282 67.4695 16.1298 67.4695 15.3391 67.3796C14.5999 67.5228 13.8402 67.5228 13.101 67.3796C12.355 67.3125 11.6911 67.4766 11.0271 67.3796C10.3931 67.42 9.75677 67.4076 9.12479 67.3424C8.9963 67.3225 8.86676 67.3101 8.73685 67.305H8.34146H7.31196C7.31196 67.1931 7.31196 67.0812 7.31196 66.9693C7.2593 66.3787 7.2593 65.7845 7.31196 65.1938C7.31196 64.7089 7.31197 64.2538 7.34927 63.8286C7.3273 62.4195 7.43215 61.0114 7.66259 59.6211Z" fill="#5D270D"/>
<path d="M45.6578 45.3002C45.5757 45.3002 45.5011 45.1808 45.4265 44.9645C45.4265 44.9272 45.4265 44.8824 45.3892 44.8451C45.3633 44.8053 45.3502 44.7584 45.3519 44.7108C45.4638 44.6586 45.1505 44.6139 45.3519 44.5616C45.3967 44.5094 45.3519 44.4497 45.3146 44.3975C45.2773 44.3453 45.3892 44.2782 45.3146 44.2185C45.24 44.1588 45.5533 44.0916 45.3146 44.0245C45.2549 43.9574 45.3146 43.8902 45.3146 43.8231C45.4787 43.7485 45.3146 43.6739 45.3146 43.5993C45.5086 43.5247 45.4265 43.4501 45.3146 43.368C45.5832 43.2934 45.5459 43.2113 45.3146 43.1293C45.3146 43.0472 45.4116 42.9652 45.3146 42.8756C45.2176 42.7861 45.2475 42.7041 45.3146 42.6145C45.1356 42.525 45.143 42.4355 45.3146 42.346C45.1206 42.249 45.1952 42.1595 45.3146 42.0625C45.434 41.9655 45.143 41.8685 45.3146 41.7716C45.3146 41.6746 45.2698 41.5701 45.3146 41.4731C45.3594 41.3761 45.4862 41.2717 45.3146 41.1673C45.2624 41.0628 45.1952 40.9584 45.3146 40.8539C45.1057 40.7495 45.1952 40.6451 45.3146 40.5332C45.3146 40.4287 45.4265 40.3168 45.3146 40.2124C45.3146 40.1005 45.2251 39.9886 45.3146 39.8767C45.4041 39.7648 45.434 39.6603 45.3146 39.5484C45.1952 39.4365 45.3668 39.3321 45.3146 39.2202C45.5011 39.1157 45.2475 39.0113 45.3146 38.9068C45.3817 38.8024 45.419 38.698 45.3146 38.5935C45.2102 38.4891 45.24 38.3846 45.3146 38.2877C45.0162 38.1832 45.3892 38.0862 45.3146 37.9893C45.434 37.8923 45.3146 37.7953 45.3146 37.6983C45.3146 37.6013 45.4489 37.5043 45.3146 37.4148C45.3146 37.3253 45.2176 37.2358 45.3146 37.1463C45.1729 37.0567 45.4414 36.9672 45.3146 36.8777C45.3001 36.7937 45.3001 36.708 45.3146 36.624C45.5459 36.542 45.3519 36.4674 45.3146 36.3853C45.2773 36.3033 45.1878 36.2287 45.3146 36.1541C45.3146 36.0795 45.434 36.0123 45.3146 35.9377C45.1952 35.8631 45.6503 35.796 45.3146 35.7363C45.2624 35.6691 45.5533 35.602 45.3146 35.5423C45.0759 35.4826 45.3146 35.4229 45.3146 35.3633C45.3146 35.3036 45.3146 35.2514 45.3519 35.1991C45.4489 34.7292 45.5683 34.4531 45.6876 34.4531C45.807 34.4531 45.9562 34.7814 46.0606 35.3558C46.0606 35.4155 46.2397 35.4677 46.0979 35.5349C46.0979 35.5945 46.2173 35.6617 46.0979 35.7288C46.3068 35.7885 46.1352 35.8631 46.0979 35.9302C46.0606 35.9974 46.0383 36.072 46.0979 36.1466C46.1576 36.2212 46.0383 36.3033 46.0979 36.3779C45.9637 36.4599 46.001 36.5345 46.0979 36.6166C45.9711 36.7061 46.0979 36.7882 46.0979 36.8702C45.8965 36.9598 46.0383 37.0493 46.0979 37.1388C46.1576 37.2283 46.0979 37.3178 46.0979 37.4074C46.0979 37.4969 46.1502 37.5939 46.0979 37.6908C46.1949 37.7878 46.2248 37.8848 46.0979 37.9818C46.1651 38.0788 46.0979 38.1757 46.0979 38.2802C46.0979 38.3846 46.0979 38.4816 46.0979 38.5861C46.0979 38.6905 45.8891 38.7949 46.0979 38.8994C46.0979 39.0038 46.0606 39.1083 46.0979 39.2127C46.0571 39.3183 46.0571 39.4353 46.0979 39.541C45.8816 39.6529 46.0159 39.7648 46.0979 39.8692C46.1203 39.9223 46.1318 39.9794 46.1318 40.0371C46.1318 40.0947 46.1203 40.1518 46.0979 40.2049C46.1166 40.311 46.1166 40.4196 46.0979 40.5257C46.1651 40.6376 46.0084 40.742 46.0979 40.8465C46.1875 40.9509 45.9935 41.0554 46.0979 41.1598C46.2024 41.2643 46.1949 41.3612 46.0979 41.4657C46.001 41.5701 45.904 41.6671 46.0979 41.7641C46.1427 41.8611 46.3889 41.958 46.0979 42.055C46.1725 42.152 45.9562 42.2415 46.0979 42.3385C45.8816 42.428 46.0979 42.5176 46.0979 42.6071C46.0979 42.6966 45.9786 42.7861 46.0979 42.8682C46.2173 42.9503 46.0383 43.0398 46.0979 43.1218C46.1576 43.2039 45.9338 43.2859 46.0979 43.3605C46.0979 43.4426 46.0979 43.5172 46.0979 43.5918C46.3963 43.6664 46.0979 43.741 46.0979 43.8156C46.0979 43.8902 46.2919 43.9499 46.0979 44.017C46.3217 44.0842 46.0979 44.1513 46.0979 44.211C46.0979 44.2707 46.1874 44.3304 46.0606 44.39C46.2247 44.4423 45.9786 44.502 46.0606 44.5542C45.9562 44.6064 46.0606 44.6512 46.0606 44.7034C46.0606 44.7556 46.0606 44.7929 46.0606 44.8377C46.0606 44.8824 46.0606 44.9197 46.0233 44.957C45.8219 45.1808 45.7473 45.3002 45.6578 45.3002Z" fill="#98772E"/>
<path d="M45.65 45.2928C45.65 45.3301 45.5903 45.3748 45.4858 45.4196L45.2993 45.4867C45.2176 45.526 45.1328 45.5585 45.0457 45.5837L44.8517 45.6732L44.7846 45.7478L44.6727 45.7926C44.5533 45.7255 44.5906 46.0388 44.4414 45.9269C44.2922 45.815 44.2698 45.994 44.2102 46.0836C44.1505 46.1731 44.0013 46.1209 43.9714 46.2701C43.9416 46.4193 43.9192 46.3745 43.8446 46.367C43.77 46.3596 43.6954 46.367 43.7476 46.5013C43.6944 46.6046 43.6177 46.694 43.5238 46.7624C43.4194 46.7624 43.3821 46.7997 43.3672 46.8669C43.3597 46.9324 43.3472 46.9972 43.3298 47.0608C43.106 47.0608 43.0911 47.225 43.1657 47.404C43.024 47.404 42.9345 47.4413 42.9195 47.5084C42.9046 47.5756 42.9195 47.6726 43.0389 47.7695C43.0193 47.8348 42.9917 47.8975 42.9568 47.956C42.9534 47.9883 42.9534 48.0208 42.9568 48.053C42.9443 48.0893 42.9443 48.1287 42.9568 48.1649V48.3738C42.9756 48.4422 42.9756 48.5143 42.9568 48.5827C43.0389 48.6573 43.0986 48.7244 43.0986 48.7916C43.1049 48.8261 43.1049 48.8615 43.0986 48.896C43.0817 48.9381 43.0563 48.9762 43.024 49.0079C43.2329 49.1273 43.1956 49.2616 43.1359 49.4406C43.0762 49.6197 43.1806 49.5824 43.2403 49.642C43.3 49.7017 43.3597 49.7465 43.3224 49.8509C43.3577 49.9176 43.4002 49.9801 43.4492 50.0374C43.4982 50.0991 43.5431 50.1639 43.5835 50.2314V50.3582C43.5972 50.3985 43.6174 50.4363 43.6432 50.4701C43.663 50.5067 43.6945 50.5356 43.7327 50.5522C43.7812 50.5676 43.8334 50.5676 43.8819 50.5522L44.1057 50.6566C44.1767 50.6991 44.2337 50.7613 44.2698 50.8357C44.516 50.7536 44.5906 50.8879 44.71 51.0595C44.7903 51.0803 44.8662 51.1157 44.9338 51.1639C44.9735 51.1826 45.0168 51.1922 45.0606 51.1922C45.1044 51.1922 45.1477 51.1826 45.1874 51.1639C45.2688 51.1789 45.3522 51.1789 45.4336 51.1639C45.5157 51.1349 45.6052 51.1349 45.6872 51.1639C45.7713 51.1952 45.8591 51.2152 45.9484 51.2236C46.0377 51.218 46.1223 51.181 46.1871 51.1192C46.2163 51.0856 46.2535 51.0599 46.2951 51.0443C46.3368 51.0286 46.3817 51.0236 46.4258 51.0296C46.5082 51.0418 46.5922 51.026 46.6645 50.9849C46.7055 51.0077 46.7537 51.0143 46.7993 51.0032C46.8449 50.9922 46.8847 50.9643 46.9107 50.9252C46.9779 50.8655 47.0152 50.776 47.1047 50.7611C47.173 50.7188 47.2455 50.6838 47.321 50.6566C47.3608 50.6423 47.3966 50.6185 47.4252 50.5874C47.4538 50.5562 47.4743 50.5185 47.4851 50.4776L47.5598 50.3806C47.5778 50.3454 47.6003 50.3128 47.6269 50.2836L47.709 50.2016L47.7686 50.2239C47.694 50.0747 47.7686 50.03 47.8283 49.9927C47.888 49.9554 48.0223 49.9255 48.0223 49.8435C48.0605 49.8268 48.0933 49.7999 48.1171 49.7656C48.1408 49.7314 48.1545 49.6911 48.1566 49.6495C48.1615 49.575 48.1792 49.5018 48.2088 49.4332C48.2162 49.3559 48.2475 49.2829 48.2983 49.2243C48.3219 49.1932 48.3347 49.1552 48.3347 49.1161C48.3347 49.0771 48.3219 49.0391 48.2983 49.0079C48.3055 48.971 48.3055 48.933 48.2983 48.896C48.3024 48.8613 48.3024 48.8263 48.2983 48.7916C48.2905 48.7539 48.2912 48.715 48.3002 48.6776C48.3092 48.6402 48.3264 48.6052 48.3505 48.5752C48.2685 48.5081 48.2983 48.441 48.3505 48.3664C48.3735 48.3364 48.386 48.2997 48.386 48.2619C48.386 48.2241 48.3735 48.1874 48.3505 48.1575V48.0605V47.9635C48.3345 47.8971 48.3221 47.8299 48.3132 47.7621C48.4028 47.6651 48.3878 47.598 48.3132 47.5383C48.2386 47.4786 48.1939 47.4488 48.164 47.3965C48.1342 47.3443 47.9253 47.2473 47.9999 47.0534C47.9999 47.0012 47.9626 46.934 47.9402 46.8743C47.9297 46.8447 47.9119 46.8183 47.8884 46.7974C47.8649 46.7765 47.8366 46.7619 47.8059 46.755C47.7537 46.755 47.8059 46.6281 47.7686 46.5461C47.7313 46.464 47.7313 46.4193 47.5821 46.4939C47.4329 46.5685 47.5299 46.3969 47.5075 46.3297C47.4851 46.2626 47.4553 46.2178 47.3583 46.2626C47.2614 46.3074 47.2017 46.1358 47.1196 46.0761C47.0461 46.0188 46.9688 45.9665 46.8883 45.9194C46.6062 45.7526 46.309 45.6128 46.0006 45.5017C45.7768 45.4345 45.65 45.3674 45.65 45.3077C45.65 45.248 45.65 45.2406 45.7693 45.2107C45.8861 45.1663 46.0099 45.1436 46.1349 45.1436C46.6041 45.122 47.0712 45.2195 47.4926 45.4271C47.5971 45.4793 47.8059 45.4271 47.8283 45.6136C47.8909 45.6455 47.9558 45.6729 48.0223 45.6956C48.0577 45.7081 48.0897 45.7289 48.1156 45.7561C48.1416 45.7833 48.1607 45.8163 48.1715 45.8523C48.2983 45.8523 48.3655 45.8523 48.4028 45.9343C48.43 46.0099 48.465 46.0824 48.5072 46.1507C48.5579 46.211 48.6028 46.276 48.6415 46.3446C48.6855 46.4162 48.7472 46.4753 48.8205 46.5162C49.007 46.5908 48.9473 46.8296 49.0891 46.9415C49.0711 47.0366 49.083 47.1349 49.1231 47.2231C49.1631 47.3112 49.2294 47.3848 49.3129 47.4338C49.2996 47.4803 49.2967 47.5292 49.3044 47.5769C49.3121 47.6246 49.3303 47.67 49.3577 47.7099L49.4248 47.8367C49.4475 47.8811 49.4626 47.929 49.4695 47.9784C49.4357 48.0193 49.413 48.0684 49.4039 48.1207C49.3947 48.173 49.3994 48.2269 49.4173 48.2768C49.4516 48.3747 49.494 48.4695 49.5442 48.5603C49.5738 48.6601 49.5738 48.7664 49.5442 48.8662V49.0229C49.5366 49.0723 49.5366 49.1226 49.5442 49.1721C49.5199 49.3866 49.4774 49.5988 49.4173 49.8062C49.4398 49.9169 49.4398 50.0311 49.4173 50.1419C49.3773 50.253 49.3045 50.3492 49.2084 50.4179C49.1845 50.5314 49.1361 50.6383 49.0667 50.7312C49.007 50.8282 48.925 50.9103 48.8578 51.0072C48.838 51.0631 48.8104 51.1158 48.7758 51.1639L48.6564 51.2907L48.5221 51.4101C48.4763 51.446 48.4339 51.4859 48.3953 51.5295C48.3104 51.6182 48.2016 51.6804 48.082 51.7085C48.0219 51.7308 47.9678 51.7667 47.9238 51.8132C47.8799 51.8598 47.8472 51.9159 47.8283 51.9771C47.6199 52.1037 47.403 52.2158 47.1793 52.3128L46.8137 52.4098C46.6903 52.436 46.5702 52.4761 46.4556 52.5291C46.3993 52.4945 46.3364 52.4721 46.2709 52.4631C46.2054 52.4541 46.1388 52.4588 46.0752 52.4769C45.9476 52.5091 45.8229 52.5515 45.7022 52.6037C45.5738 52.626 45.4426 52.626 45.3142 52.6037C45.1876 52.5846 45.0628 52.5547 44.9412 52.5142C44.8173 52.5009 44.6949 52.4759 44.5757 52.4396C44.4558 52.4001 44.3387 52.3528 44.2251 52.2979C44.1017 52.2771 43.9874 52.22 43.8968 52.1337C43.8029 52.055 43.6937 51.9966 43.576 51.9621C43.4547 51.9263 43.3494 51.85 43.2776 51.7458C43.208 51.6483 43.1159 51.5689 43.0091 51.5145L42.8524 51.425L42.7181 51.3057C42.6746 51.2637 42.637 51.216 42.6062 51.1639C42.5807 51.1062 42.5608 51.0463 42.5465 50.9849C42.4853 50.8856 42.44 50.7774 42.4123 50.6641C42.3994 50.6066 42.3731 50.5529 42.3355 50.5075C42.2979 50.4621 42.25 50.4263 42.1959 50.403C42.1288 50.3134 42.0094 50.2463 41.9423 50.1493C41.9011 50.0988 41.8786 50.0355 41.8786 49.9703C41.8786 49.9051 41.9011 49.8418 41.9423 49.7913C41.8921 49.6923 41.8739 49.5802 41.89 49.4705C41.9094 49.3613 41.8853 49.2488 41.8229 49.1571C41.8627 49.1113 41.8863 49.0536 41.89 48.993C41.9045 48.9443 41.9045 48.8925 41.89 48.8438C41.8513 48.7483 41.8262 48.6479 41.8154 48.5454C41.8154 48.441 41.8751 48.344 41.89 48.2544C41.9163 48.1567 41.9163 48.0538 41.89 47.956C41.8755 47.9074 41.8755 47.8555 41.89 47.8069C41.9068 47.7608 41.9268 47.7159 41.9497 47.6726C42.0021 47.5928 42.0399 47.5044 42.0616 47.4115C42.0616 47.307 42.0989 47.2324 42.1661 47.1653C42.2332 47.0981 42.3078 47.0384 42.2854 46.9265C42.3599 46.7735 42.4499 46.6285 42.554 46.4939C42.4794 46.3447 42.554 46.2775 42.6137 46.2328C42.7008 46.2075 42.7856 46.175 42.8673 46.1358C42.9345 46.091 42.9494 46.0015 42.9867 45.9269C43.024 45.8523 43.0762 45.8001 43.203 45.8374C43.203 45.7031 43.203 45.6434 43.3075 45.621C43.4119 45.5986 43.4716 45.621 43.5462 45.621C43.6208 45.621 43.7103 45.3897 43.8819 45.4345C43.8819 45.3375 43.9565 45.3226 44.0311 45.3301C44.1057 45.3375 44.1654 45.3301 44.2027 45.3301C44.24 45.3301 44.4041 45.248 44.5086 45.2406L44.6428 45.1734C44.6894 45.1623 44.738 45.1623 44.7846 45.1734H45.0308H45.3366L45.553 45.2107C45.5903 45.2107 45.65 45.248 45.65 45.2928Z" fill="#98772E"/>
</svg>
