<svg width="72" height="72" viewBox="0 0 72 72" fill="none" xmlns="http://www.w3.org/2000/svg">
<path d="M36.1697 3.6195C36.1697 3.6195 36.0864 3.66495 35.9122 3.68767H35.5866L35.1474 3.74068L34.587 3.81639L33.9131 3.92999C33.6708 3.96785 33.4058 4.03597 33.1559 4.08898C32.906 4.14198 32.588 4.24046 32.2775 4.31618L31.6415 4.5206C31.4219 4.58875 31.2023 4.67962 30.9751 4.75534C30.5208 4.94465 30.0513 5.16425 29.5515 5.38385C29.2748 5.47294 29.0177 5.61432 28.7943 5.80031C28.5734 5.99538 28.3161 6.14468 28.0371 6.23952C27.7712 6.38759 27.5179 6.55726 27.2798 6.74685L26.9012 7.04218L26.5302 7.36778L26.1516 7.69338L25.7578 8.01145C25.477 8.2338 25.2229 8.4879 25.0006 8.76867C24.9139 8.93006 24.8042 9.07796 24.675 9.20783C24.5458 9.33915 24.4093 9.46302 24.2661 9.57887C24.126 9.70399 23.9968 9.84081 23.8799 9.9878C23.8166 10.0602 23.7608 10.1389 23.7133 10.2225C23.6721 10.311 23.6367 10.4021 23.6073 10.4951C23.5088 10.6617 23.4028 10.8132 23.3044 10.9873C23.206 11.1615 23.0999 11.3205 22.9939 11.4795C22.797 11.8203 22.585 12.161 22.4033 12.5245C21.9419 13.23 21.6253 14.0202 21.4719 14.8492C21.0547 15.6403 20.8634 16.5311 20.9191 17.4238C20.7297 17.8515 20.6244 18.3116 20.6087 18.7792C20.6087 19.0147 20.6239 19.2499 20.6541 19.4834C20.6888 19.7387 20.7394 19.9916 20.8056 20.2406C20.7489 21.2368 20.7489 22.2355 20.8056 23.2317C20.8056 24.2464 20.8737 25.2837 20.8056 26.3439C20.9723 27.4127 20.9723 28.5009 20.8056 29.5697C20.9533 30.6753 20.9533 31.7958 20.8056 32.9015C20.6996 34.0373 20.9797 35.1731 20.8056 36.3468C20.8056 37.5054 20.851 38.6866 20.8056 39.8755C20.7677 40.3677 20.7374 40.8599 20.7222 41.3899V41.7534V42.0942C20.7163 42.1596 20.7163 42.2255 20.7222 42.291C20.7895 42.2779 20.8538 42.2523 20.9115 42.2153H21.275H21.7294H22.6532C23.2741 42.2153 23.895 42.2153 24.5159 42.2683C25.773 42.1093 27.045 42.1093 28.3021 42.2683C29.5742 42.2683 30.8539 42.3819 32.1488 42.2683C33.4437 42.2683 34.7461 42.1775 36.0636 42.2683C37.3645 42.3593 38.6701 42.3593 39.971 42.2683C41.2658 42.132 42.5531 42.3214 43.8252 42.2683C45.0864 42.333 46.3501 42.333 47.6113 42.2683C48.2323 42.2683 48.8532 42.2683 49.4741 42.3062C49.7846 42.3062 50.0875 42.3062 50.3979 42.3062H50.8599H51.087H51.3142H51.4051V42.1926V41.496C51.4051 41.0038 51.4051 40.5116 51.4505 40.0269C51.1476 38.8305 51.5262 37.6568 51.4505 36.4907C51.5792 35.3322 51.4505 34.1811 51.4505 33.0529C51.4505 31.9246 51.5868 30.7812 51.4505 29.7135C51.4505 28.6231 51.352 27.5479 51.4505 26.4877C51.299 25.4352 51.5716 24.3978 51.4505 23.3755C51.3293 22.3533 51.4505 21.3613 51.4505 20.3845C51.5098 20.136 51.5454 19.8825 51.5565 19.6273C51.5565 19.3925 51.5565 19.1578 51.5565 18.9306C51.5111 18.4687 51.4202 18.0144 51.352 17.5752C51.2536 16.6741 50.9053 15.8563 50.7993 14.9931C50.6054 14.1788 50.2915 13.3979 49.8679 12.6759C49.6786 12.3125 49.5499 11.9187 49.3909 11.5628C49.2368 11.1859 48.973 10.864 48.6336 10.639L48.467 10.4118C48.4072 10.3385 48.354 10.2599 48.308 10.1771C48.202 10.0181 48.1111 9.85907 48.0051 9.70005C47.9 9.54726 47.7862 9.40061 47.6644 9.26084C47.5441 9.1233 47.4005 9.00795 47.2403 8.92008C46.9549 8.72654 46.6997 8.49179 46.4831 8.22345C46.3619 8.10229 46.2483 7.97357 46.1347 7.85241C46.0212 7.73126 46.0212 7.72369 45.9606 7.67069L45.7713 7.50407L45.3927 7.19363L45.0065 6.90588C44.7566 6.71657 44.4916 6.54998 44.2493 6.38339C43.2228 5.72471 42.1255 5.18367 40.978 4.7705C40.1253 4.46492 39.2491 4.2294 38.3581 4.06628C37.9946 4.00571 37.669 3.94512 37.3888 3.91483C37.1086 3.88454 36.8739 3.83911 36.677 3.82397C36.2984 3.82397 36.094 3.74823 36.094 3.71794C36.094 3.68765 36.3438 3.6498 36.8512 3.63466C37.0935 3.63466 37.3888 3.63466 37.7447 3.63466L38.3126 3.68767C38.5171 3.68767 38.7367 3.73309 38.9638 3.76338C40.0933 3.93002 41.2006 4.22211 42.2653 4.6342C42.4243 4.68721 42.5834 4.76293 42.7424 4.82351C42.9014 4.88409 43.068 4.95979 43.2346 5.04309C43.5602 5.20211 43.901 5.36116 44.2341 5.55046C44.5673 5.73977 44.9081 5.95179 45.2564 6.16382L45.7713 6.51969C45.9455 6.64085 46.112 6.77715 46.2786 6.90588L47.1419 7.53439C47.4373 7.7608 47.6932 8.03459 47.8991 8.34463C48.0278 8.48093 48.1717 8.60206 48.3004 8.74594L48.7093 9.1624C48.8436 9.3069 48.97 9.4586 49.0879 9.61676L49.2697 9.85908L49.4211 10.1165C49.7297 10.3914 49.9863 10.7198 50.1784 11.0858C50.3677 11.4568 50.5494 11.843 50.7311 12.2367C51.1324 12.994 51.4126 13.8421 51.7685 14.6826C51.9576 15.1097 52.0875 15.5606 52.1547 16.0229L52.2229 16.3712C52.2229 16.4848 52.2229 16.5984 52.2759 16.7195C52.3112 16.9568 52.3566 17.1915 52.4122 17.4238C52.4122 17.9084 52.4122 18.393 52.4576 18.8852C52.4576 19.1275 52.4576 19.3774 52.5106 19.6424C52.5636 19.9075 52.556 20.1271 52.5863 20.3997C52.5259 21.3958 52.5259 22.3946 52.5863 23.3907C52.4464 24.4234 52.4464 25.4702 52.5863 26.5029C52.662 27.563 52.5863 28.6383 52.5863 29.7287C52.5863 30.8191 52.6393 31.9398 52.5863 33.068C52.6886 34.2117 52.6886 35.3622 52.5863 36.5059C52.6469 37.672 52.5863 38.8457 52.5863 40.0421C52.6242 40.5267 52.6242 41.0189 52.6242 41.5111C52.6242 41.7686 52.6242 42.026 52.6242 42.2683C52.6242 42.7227 52.6242 43.1846 52.6242 43.6465H50.822H50.3601L49.4363 43.6011C48.8148 43.5518 48.1897 43.5747 47.5735 43.6692C46.3241 43.6692 45.0671 43.6692 43.7874 43.6692C42.5077 43.6692 41.2279 43.6086 39.9331 43.6692C38.635 43.5178 37.3238 43.5178 36.0258 43.6692C34.7082 43.7298 33.4058 43.6692 32.1109 43.6692C30.8161 43.6692 29.5364 43.6692 28.2642 43.6692C26.9921 43.6692 25.7275 43.5783 24.4781 43.6692C23.8576 43.7033 23.2358 43.7033 22.6153 43.6692C22.3124 43.6692 22.002 43.6692 21.6915 43.6692H20.6768H19.3971V42.2608V41.5035C19.3971 40.9987 19.4198 40.4939 19.4653 39.9891C19.5599 38.8148 19.5599 37.6347 19.4653 36.4604C19.2948 35.3183 19.2948 34.1572 19.4653 33.015C19.3895 31.8868 19.6167 30.7434 19.4653 29.6833C19.5712 28.6106 19.5712 27.5301 19.4653 26.4575C19.537 25.4213 19.537 24.3814 19.4653 23.3453C19.3593 22.323 19.5183 21.331 19.4653 20.3542C19.4448 20.1022 19.4448 19.849 19.4653 19.597C19.4653 19.3446 19.488 19.0922 19.5334 18.8398C19.6126 18.3614 19.6581 17.8781 19.6697 17.3934C19.7975 16.4615 20.0129 15.5437 20.3134 14.6523C20.3147 14.4192 20.3478 14.1874 20.4118 13.9632C20.4845 13.7499 20.573 13.5423 20.6768 13.3423C20.7752 13.1379 20.904 12.9561 21.0176 12.7668L21.1842 12.4791C21.2448 12.3882 21.2977 12.2973 21.3507 12.2065C21.5628 11.8279 21.7369 11.4492 21.9262 11.063C22.023 10.8794 22.1318 10.7023 22.2519 10.533C22.3691 10.3629 22.5121 10.2122 22.6759 10.0862C22.6759 9.9878 22.7592 9.88936 22.8046 9.79849C22.8506 9.7101 22.9011 9.62415 22.9561 9.54101C23.072 9.37891 23.1985 9.22462 23.3347 9.07912C23.471 8.94282 23.6224 8.81407 23.7587 8.68534C23.895 8.55662 24.0616 8.43546 24.1979 8.30673C24.4781 8.05685 24.7356 7.79182 24.9552 7.54951C25.0839 7.42835 25.2126 7.30721 25.3489 7.19363L25.5609 7.02702L25.7881 6.8983C25.8963 6.76229 26.021 6.64022 26.1592 6.53485C26.2955 6.43641 26.4469 6.34555 26.5907 6.26226C26.8818 6.12047 27.1627 5.95852 27.4313 5.77762C27.7162 5.65613 27.992 5.51442 28.2566 5.35358C28.5013 5.2033 28.7541 5.06675 29.0139 4.94465C29.4894 4.68136 29.999 4.48518 30.5283 4.36161C30.7706 4.28589 30.9978 4.20257 31.225 4.14957L31.8913 3.97542C32.2169 3.91484 32.5198 3.84671 32.8076 3.80127C33.0953 3.75584 33.3679 3.71039 33.6178 3.68767L34.3145 3.62708H34.89C35.0386 3.61535 35.188 3.61535 35.3367 3.62708C35.4476 3.61795 35.559 3.61795 35.6699 3.62708C36.094 3.58165 36.1697 3.59678 36.1697 3.6195Z" fill="#5D270D"/>
<path d="M24.7666 42.8536C24.5796 41.7635 24.4985 40.6579 24.5243 39.5521C24.5243 39.2038 24.5243 38.7949 24.5243 38.4087C24.4883 37.9781 24.4757 37.5459 24.4865 37.1139C24.5925 36.652 24.282 36.1673 24.4865 35.66C24.5314 35.1283 24.5314 34.5939 24.4865 34.0622C24.5163 33.4846 24.5163 32.9058 24.4865 32.3282C24.2669 31.73 24.7212 31.1091 24.4865 30.4654C24.4482 29.7996 24.4482 29.1321 24.4865 28.4663C24.5846 27.7655 24.5846 27.0545 24.4865 26.3537C24.6587 25.6062 24.6587 24.8294 24.4865 24.082C24.7513 23.3219 24.7513 22.4947 24.4865 21.7346C24.4865 21.3333 24.4865 20.9319 24.4865 20.523C24.4865 20.3186 24.4865 20.1065 24.4865 19.9021C24.4821 19.692 24.4669 19.4822 24.441 19.2736C24.4211 18.3761 24.5333 17.4806 24.7742 16.6158C24.8265 15.6695 25.1644 14.7612 25.7434 14.0109C25.8766 13.5462 26.0893 13.1081 26.3719 12.716C26.6558 12.3195 26.9807 11.954 27.3412 11.6256C27.7047 11.2924 28.0151 10.9214 28.3559 10.558C28.5244 10.3729 28.7067 10.2008 28.9011 10.043L29.204 9.81589C29.31 9.74774 29.4236 9.68716 29.5371 9.62658C30.3672 9.03043 31.274 8.54902 32.2329 8.19541C32.7326 8.05911 33.2324 7.93793 33.7473 7.83949C34.2622 7.74105 34.762 7.62749 35.2618 7.48362C36.326 7.30195 37.4162 7.34058 38.4649 7.59718C39.0168 7.59286 39.5652 7.68515 40.0853 7.86981C40.6154 8.06807 41.1231 8.32189 41.5997 8.62704C42.1032 8.86267 42.5825 9.1467 43.0309 9.47513L44.3788 10.4595C44.7877 10.8457 45.2041 11.2167 45.5828 11.6484C45.7796 11.8528 45.9538 12.08 46.128 12.2996C46.3003 12.5403 46.4546 12.7934 46.5899 13.0568C46.7338 13.3067 46.8549 13.5641 46.9912 13.814L47.173 14.2002C47.2335 14.3214 47.2941 14.4501 47.3471 14.5864C47.5819 15.0937 47.7863 15.6162 48.0059 16.1387C48.2218 16.6578 48.3571 17.2068 48.4072 17.7668C48.4072 18.0469 48.4602 18.3271 48.4678 18.5997C48.4678 18.7436 48.4678 18.8799 48.4678 19.0162C48.4678 19.1525 48.4678 19.2963 48.4678 19.4326C48.4678 19.5689 48.4299 19.6977 48.4224 19.834C48.4148 19.9626 48.4148 20.0915 48.4224 20.2202C48.4224 20.4776 48.4224 20.7427 48.4224 20.9774C48.4668 21.4809 48.4819 21.9866 48.4678 22.4918C48.4678 23.5217 48.3542 24.5288 48.4678 25.5207C48.5246 26.5094 48.5246 27.5004 48.4678 28.4891C48.7707 29.4659 48.3921 30.4351 48.4678 31.3892C48.4186 32.3301 48.4186 33.2728 48.4678 34.2137C48.5208 35.1375 48.3239 36.0462 48.4678 36.9473C48.5133 37.8301 48.5133 38.7147 48.4678 39.5976C48.5246 40.0248 48.5246 40.4576 48.4678 40.8848C48.4678 41.0969 48.4678 41.3089 48.4148 41.5209V41.8314C48.4148 41.945 48.4148 42.0131 48.4148 42.2252V43.3913H46.9609H46.0826C45.3076 43.2666 44.5177 43.2666 43.7427 43.3913C42.9871 43.4615 42.2266 43.4615 41.471 43.3913C40.7678 43.3386 40.0616 43.3386 39.3584 43.3913C38.6693 43.3913 38.0029 43.0505 37.3593 43.3913C36.7157 43.4443 36.0947 43.149 35.4965 43.3913C34.9206 43.4778 34.3341 43.465 33.7625 43.3534H32.1647C29.8931 43.3004 28.0833 43.2474 26.8642 43.1868C26.2303 43.2125 25.5959 43.1514 24.9786 43.0051C25.741 42.8518 26.5184 42.7857 27.2958 42.8082C28.8102 42.74 30.991 42.6795 33.7701 42.6265C34.3456 42.5502 34.9286 42.5502 35.5041 42.6265C36.124 42.5769 36.7469 42.5769 37.3669 42.6265C38.0284 42.5126 38.7044 42.5126 39.3659 42.6265C40.0695 42.6678 40.775 42.6678 41.4786 42.6265C42.2358 42.5053 42.9552 42.6946 43.7503 42.6265C44.5249 42.755 45.3154 42.755 46.0901 42.6265C46.3809 42.668 46.6749 42.6832 46.9685 42.6719H47.1881H47.3017C47.3017 42.5886 47.3017 42.528 47.3017 42.4675C47.3017 42.4069 47.3471 42.3312 47.3623 42.2327C47.3774 42.1343 47.3623 42.0283 47.4001 41.9222C47.438 41.8162 47.4001 41.4982 47.4001 41.2862C47.4001 40.8622 47.3244 40.4305 47.2865 39.9989C47.2108 39.1281 47.2865 38.2497 47.2865 37.3486C47.2865 36.4475 47.2335 35.5389 47.2865 34.615C47.1805 33.6765 47.1805 32.7291 47.2865 31.7906C47.2184 30.8365 47.2865 29.8672 47.2865 28.8904C47.2865 27.9135 47.2865 26.9216 47.2865 25.9221C47.3727 24.9143 47.3727 23.9009 47.2865 22.8932C47.2865 22.3858 47.2865 21.8709 47.2865 21.3787C47.2865 21.1212 47.2865 20.8562 47.2865 20.6215V19.8264C47.2944 19.6978 47.2944 19.5688 47.2865 19.4402C47.3025 18.9339 47.2746 18.4272 47.2032 17.9257C47.1341 17.4321 47.0122 16.9472 46.8398 16.4795C46.794 15.9743 46.65 15.483 46.4157 15.0331C46.3552 14.9196 46.3021 14.806 46.234 14.7L46.0295 14.3744C45.8857 14.1699 45.7418 13.9579 45.5828 13.761C45.4237 13.5641 45.2723 13.3597 45.1284 13.1552C44.9846 12.9508 44.818 12.7615 44.6514 12.5722C44.3298 12.1888 43.9859 11.8247 43.6216 11.4817C42.866 10.8412 42.0374 10.2923 41.153 9.84616C40.6987 9.66443 40.2519 9.46756 39.7975 9.2934C39.3455 9.11847 38.8716 9.00636 38.3891 8.96022L37.6773 8.88447L37.3214 8.83904H36.9655H36.6097H36.2537C36.015 8.8426 35.777 8.86541 35.5419 8.90721C34.6105 9.05865 33.7246 9.30854 32.8235 9.52056C32.6115 9.61143 32.3919 9.672 32.1799 9.7553L31.8543 9.88401L31.5362 10.0203C31.3268 10.1092 31.1264 10.2183 30.938 10.3459C30.7446 10.4709 30.5667 10.6183 30.408 10.7851L30.1505 10.9972L29.9082 11.2319C29.7416 11.3833 29.5977 11.5499 29.4463 11.709C29.1476 12.0367 28.8033 12.3197 28.424 12.5495C28.159 12.8978 27.8788 13.2234 27.6062 13.5641C27.3276 13.8914 27.1097 14.2658 26.9626 14.6697C26.8881 14.7502 26.8197 14.8363 26.7581 14.9272C26.6995 15.0146 26.6464 15.1057 26.5991 15.1998C26.5041 15.3905 26.4231 15.5879 26.3568 15.7904C26.2962 15.9948 26.2508 16.1993 26.1978 16.3961C26.1448 16.593 26.1069 16.7975 26.0539 17.002C25.7869 17.7674 25.6737 18.5779 25.7207 19.3872C25.7322 19.5915 25.7322 19.7963 25.7207 20.0005C25.7207 20.205 25.7207 20.417 25.7207 20.6215C25.7207 21.0304 25.6677 21.4317 25.6829 21.8331C25.8116 22.5903 25.5163 23.4156 25.6829 24.1804C25.6829 24.9377 25.6829 25.6949 25.6829 26.4521C25.9782 27.2093 25.6829 27.8833 25.6829 28.5648C25.7741 29.228 25.7741 29.9006 25.6829 30.5639C25.827 31.1764 25.827 31.8141 25.6829 32.4266C25.7136 33.0043 25.7136 33.5831 25.6829 34.1607C25.8419 34.721 25.592 35.2511 25.6829 35.7584C25.6456 36.2423 25.6456 36.7284 25.6829 37.2123C25.7202 37.644 25.7074 38.0784 25.645 38.5071C25.645 38.916 25.645 39.3022 25.645 39.6506C25.4583 40.7445 25.1641 41.8174 24.7666 42.8536Z" fill="#98772E"/>
<path d="M12.431 42.8398C12.431 42.8398 12.431 42.8398 12.378 42.8777L12.219 42.9231C12.022 42.9859 11.8428 43.0949 11.6965 43.2411C11.5845 43.354 11.4976 43.4892 11.4415 43.638C11.3853 43.7867 11.3613 43.9457 11.3709 44.1044C11.3709 44.5284 11.4088 45.0131 11.4315 45.5658C11.4315 45.9369 11.4315 46.3231 11.4694 46.7547C11.4694 46.9591 11.4694 47.1787 11.4694 47.3983C11.4873 47.5716 11.5471 47.7379 11.6435 47.8829C11.6815 47.97 11.744 48.0443 11.8232 48.0967C11.9025 48.1491 11.9953 48.1774 12.0903 48.1783C12.1785 48.1856 12.2671 48.1856 12.3553 48.1783H12.5295C12.5966 48.1862 12.6626 48.2014 12.7264 48.2237C13.2757 48.2687 13.8278 48.2687 14.3771 48.2237C14.9774 48.2574 15.5791 48.2574 16.1793 48.2237C16.8002 48.0117 17.4514 48.466 18.1178 48.2237C18.7841 48.1707 19.4733 48.2237 20.185 48.2237C20.914 48.3181 21.652 48.3181 22.381 48.2237C23.1439 48.3946 23.9352 48.3946 24.6981 48.2237C25.4863 48.4909 26.3406 48.4909 27.1288 48.2237C27.9759 48.2804 28.8259 48.2804 29.6731 48.2237C30.5439 48.2237 31.4223 48.1556 32.3234 48.2237C33.2317 48.0532 34.1638 48.0532 35.0721 48.2237C36.0103 48.0757 36.9659 48.0757 37.9041 48.2237C38.8658 48.3297 39.8426 48.0495 40.8346 48.2237C41.819 48.2237 42.8261 48.1783 43.8635 48.2237C44.8865 48.3562 45.9224 48.3562 46.9454 48.2237C47.9939 48.1442 49.047 48.1442 50.0955 48.2237C51.162 48.0609 52.2471 48.0609 53.3137 48.2237C54.3965 48.1858 55.4869 48.3373 56.5849 48.2237C57.6905 48.2237 58.796 48.1328 59.9167 48.2237C60.0498 48.2411 60.1846 48.2087 60.2953 48.1328C60.4084 48.0509 60.491 47.9337 60.53 47.7997C60.53 47.7997 60.53 47.7315 60.53 47.6936V47.5119C60.53 47.3756 60.53 47.2393 60.53 47.103C60.53 46.8229 60.5301 46.5502 60.4695 46.2776C60.4279 45.7282 60.4279 45.1764 60.4695 44.6269V44.3164C60.4671 44.2566 60.4542 44.1977 60.4316 44.1423C60.3798 44.0272 60.2845 43.9374 60.1666 43.8924C60.1175 43.8441 60.0579 43.8078 59.9924 43.7864H59.6441C59.3715 43.7864 59.1064 43.7864 58.8338 43.7864C58.303 43.8393 57.7691 43.8545 57.2361 43.8318C56.176 43.8318 55.1234 43.7182 54.086 43.8318C53.0596 43.8924 52.0306 43.8924 51.0042 43.8318C49.9895 44.1271 48.9824 43.7561 47.9753 43.8318C46.9833 43.7031 46.0064 43.8318 45.0447 43.8318C44.0831 43.8318 43.1441 43.6955 42.2127 43.8318C41.2971 43.8811 40.3796 43.8811 39.464 43.8318C38.5629 43.9833 37.6845 43.7107 36.8137 43.8318C35.9429 43.953 35.1024 43.8318 34.2694 43.8318C33.464 43.7071 32.6442 43.7071 31.8388 43.8318C31.0679 43.9001 30.2925 43.9001 29.5216 43.8318C28.7906 43.7791 28.0567 43.7791 27.3257 43.8318C26.6139 43.8318 25.9248 43.4911 25.2585 43.8318C24.5845 43.8848 23.9409 43.5895 23.32 43.8318C22.7212 43.918 22.1124 43.9052 21.5178 43.794H19.867C17.4969 43.741 15.6341 43.6879 14.362 43.6273C13.7056 43.6533 13.0487 43.5922 12.4083 43.4456C13.1988 43.2923 14.0038 43.2263 14.8087 43.2487C16.3686 43.1806 18.6403 43.12 21.5178 43.067C22.1161 42.991 22.7216 42.991 23.32 43.067C23.9652 43.0174 24.6133 43.0174 25.2585 43.067C25.9428 42.953 26.6413 42.953 27.3257 43.067C28.0571 43.1084 28.7902 43.1084 29.5216 43.067C30.2788 42.9458 31.0361 43.1352 31.8388 43.067C32.6439 43.1955 33.4643 43.1955 34.2694 43.067C35.1165 43.1275 35.9667 43.1275 36.8137 43.067C37.6916 43.2069 38.5861 43.2069 39.464 43.067C40.3651 42.9913 41.2813 43.067 42.2127 43.067C43.1441 43.067 44.0831 43.014 45.0447 43.067C46.0189 42.9647 47.0011 42.9647 47.9753 43.067C48.9596 43.0064 49.9668 43.067 51.0042 43.067C52.0416 43.067 53.0486 43.067 54.086 43.067C55.1341 43.1578 56.1881 43.1578 57.2361 43.067C57.7662 43.067 58.3038 43.067 58.8338 43.067H60.1136C60.3247 43.0895 60.5314 43.1431 60.7269 43.226C61.1085 43.4131 61.4193 43.7185 61.6129 44.0968C61.7084 44.2839 61.77 44.4865 61.7946 44.6951C61.7984 44.748 61.7984 44.8011 61.7946 44.854C61.7946 44.8995 61.7946 44.9676 61.7946 44.9903V45.1948C61.7946 45.74 61.7946 46.2928 61.7946 46.8456C61.7402 47.1179 61.7048 47.3937 61.6886 47.6709C61.6886 47.8073 61.6886 47.9435 61.6886 48.0798V48.3146C61.6964 48.4154 61.6964 48.5167 61.6886 48.6175C61.6037 49.0281 61.3917 49.4016 61.0828 49.6852C60.7597 49.9721 60.3483 50.1404 59.9167 50.1622C58.796 50.2228 57.6905 50.1622 56.5849 50.1622C55.4794 50.1622 54.3965 50.1622 53.3137 50.1622C52.2309 50.1622 51.1556 50.0638 50.0955 50.1622C49.0354 50.2606 47.9828 50.0638 46.9454 50.1622C45.9199 50.2495 44.8889 50.2495 43.8635 50.1622C42.8559 50.0702 41.8421 50.0702 40.8346 50.1622C39.8655 50.3364 38.8732 50.3364 37.9041 50.1622C36.9424 50.2379 35.9959 50.0108 35.0721 50.1622C34.1589 50.0563 33.2365 50.0563 32.3234 50.1622C31.4414 50.0904 30.555 50.0904 29.6731 50.1622C28.8098 50.2682 27.9617 50.1016 27.1288 50.1622C26.2958 50.2228 25.4932 49.9956 24.6981 50.1622C23.9409 50.1622 23.1306 50.1622 22.381 50.1622C21.6237 50.4651 20.8666 50.1622 20.185 50.1622C19.499 50.2534 18.8038 50.2534 18.1178 50.1622C17.4797 50.3063 16.8174 50.3063 16.1793 50.1622C15.579 50.1928 14.9775 50.1928 14.3771 50.1622C13.8016 50.3212 13.2564 50.0713 12.7264 50.1622H12.5295H12.3175C12.1599 50.1492 12.0047 50.1161 11.8556 50.0638C11.5485 49.9692 11.2819 49.7746 11.0983 49.511C10.918 49.2782 10.8148 48.995 10.803 48.7008C10.7987 48.6377 10.7987 48.5745 10.803 48.5115C10.803 48.4585 10.803 48.4054 10.803 48.3524C10.803 48.2994 10.803 48.1328 10.803 48.0268C10.803 47.6028 10.803 47.209 10.8409 46.838C10.8409 46.2852 10.8787 45.8006 10.8939 45.3765C10.9002 45.1512 10.9599 44.9306 11.068 44.7329C11.1581 44.5742 11.2791 44.4351 11.4239 44.324C11.6148 44.1788 11.8436 44.0921 12.0827 44.0741C12.143 44.0656 12.2042 44.0656 12.2644 44.0741L12.431 42.8398Z" fill="#5D270D"/>
<path d="M57.9403 48.5979C57.9403 48.6812 57.4405 48.7645 56.5243 48.8327L56.0321 48.8705C55.8456 48.8863 55.6582 48.8863 55.4717 48.8705C55.2749 48.7569 55.0704 49.075 54.8508 48.8705C54.7709 48.8538 54.6884 48.8538 54.6085 48.8705L54.4419 48.9235H54.3435C54.3392 48.9638 54.3392 49.0044 54.3435 49.0447C54.3417 49.1035 54.3575 49.1615 54.3889 49.2113C54.6085 49.287 54.1542 49.6202 54.3889 49.8852C54.427 50.1692 54.427 50.4569 54.3889 50.7409C54.2223 51.0362 54.3889 51.3391 54.3889 51.6496C54.3052 51.796 54.2612 51.9617 54.2612 52.1304C54.2612 52.299 54.3052 52.4648 54.3889 52.6112C54.2654 52.7499 54.1972 52.9291 54.1972 53.1148C54.1972 53.3005 54.2654 53.4797 54.3889 53.6183C54.3324 53.9669 54.3324 54.3223 54.3889 54.6709C54.4231 55.0361 54.4231 55.4036 54.3889 55.7688C54.4731 55.9463 54.5168 56.1403 54.5168 56.3367C54.5168 56.5332 54.4731 56.7272 54.3889 56.9047C54.5363 57.282 54.5363 57.7011 54.3889 58.0784C54.2753 58.4797 54.5555 58.881 54.3889 59.2899C54.3889 59.6988 54.4343 60.1153 54.3889 60.5318C54.2605 60.9487 54.2605 61.3946 54.3889 61.8115C54.4641 62.2424 54.4641 62.683 54.3889 63.1139C54.5438 63.5447 54.5438 64.0159 54.3889 64.4466C54.3473 64.8975 54.3473 65.3512 54.3889 65.8021C54.374 66.0315 54.374 66.2617 54.3889 66.4912C54.3889 66.5593 54.3889 66.5669 54.3889 66.5896C54.3889 66.6123 54.3889 66.6275 54.3889 66.6502C54.3859 66.6931 54.3859 66.7361 54.3889 66.7789C54.398 66.8285 54.4188 66.8752 54.4495 66.9152C54.4806 66.9599 54.5222 66.9963 54.5706 67.0212C54.62 67.0364 54.6727 67.0364 54.7221 67.0212H54.8508H55.0174C55.4684 66.9833 55.9218 66.9833 56.3728 67.0212H56.4561H56.5243C56.549 67.0288 56.5753 67.0288 56.6 67.0212C56.6517 67.0143 56.6997 66.9903 56.7363 66.9531C56.812 66.8773 56.8347 66.7865 56.9029 66.7259C56.971 66.6653 56.9408 66.6502 56.9559 66.6048C56.9692 66.5398 56.9692 66.4728 56.9559 66.4079C56.9899 66.1947 56.9899 65.9774 56.9559 65.7642C56.8991 65.3395 56.8991 64.9092 56.9559 64.4845C56.653 64.0605 57.0316 63.6516 56.9559 63.2427C57.0013 62.8401 57.0013 62.4337 56.9559 62.0311C56.9029 61.6298 57.0998 61.236 56.9559 60.8574C56.9104 60.4776 56.9104 60.0938 56.9559 59.714C56.812 59.3429 57.0846 58.9568 56.9559 58.6236C56.8272 58.2904 56.9559 57.9118 56.9559 57.571C57.1907 57.2227 56.9938 56.8896 56.9559 56.5639C56.918 56.2383 56.8272 55.9127 56.9559 55.6023C57.0125 55.302 57.0125 54.9938 56.9559 54.6936C56.9559 54.3983 57.2967 54.1105 56.9559 53.8379C56.9029 53.5577 57.1982 53.2927 56.9559 53.0352C56.7136 52.7778 56.9559 52.5279 56.9559 52.278C56.9559 52.0281 56.9559 51.8086 56.9559 51.589C57.0544 49.6278 57.1755 48.4995 57.2967 48.4995C57.4178 48.4995 57.5693 49.8928 57.6753 52.2856C57.6753 52.5203 57.857 52.7702 57.6753 53.0428C57.6753 53.3003 57.7964 53.5653 57.6753 53.8455C57.8873 54.1181 57.6753 54.4058 57.6753 54.7012C57.6415 55.0031 57.6415 55.3079 57.6753 55.6098C57.804 55.9203 57.6147 56.2383 57.6753 56.5715C57.5427 56.8941 57.5427 57.256 57.6753 57.5786C57.5466 57.9194 57.6753 58.2677 57.6753 58.6312C57.5354 58.9812 57.5354 59.3716 57.6753 59.7216C57.751 60.1002 57.6753 60.4788 57.6753 60.8574C57.6753 61.236 57.7283 61.6146 57.6753 62.0387C57.7813 62.4356 57.7813 62.8533 57.6753 63.2502C57.7093 63.6635 57.7093 64.0788 57.6753 64.4921C57.7056 64.9181 57.7056 65.3458 57.6753 65.7718C57.6814 65.988 57.6611 66.2042 57.6147 66.4155C57.6147 66.4988 57.6147 66.7032 57.5617 66.8622C57.5087 67.0212 57.5011 67.1954 57.4708 67.3771C57.3082 67.7056 57.0421 67.9717 56.7136 68.1343C56.5508 68.2159 56.3775 68.2746 56.1987 68.3085H55.9336H55.7443C55.2935 68.2669 54.8398 68.2669 54.3889 68.3085C54.3363 68.2793 54.2804 68.2564 54.2223 68.2404H54.1314H54.0103C53.8352 68.2126 53.6629 68.1695 53.4954 68.1116C53.4956 67.9138 53.5263 67.7171 53.5862 67.5286C53.4666 67.3817 53.3789 67.2115 53.3288 67.0288C53.3013 66.9346 53.2811 66.8384 53.2682 66.7411C53.2613 66.6604 53.2613 66.5794 53.2682 66.4987C53.2693 66.2686 53.2819 66.0386 53.3061 65.8096C53.3061 65.3553 53.3061 64.901 53.3061 64.4542C53.3061 64.0075 53.4045 63.5607 53.3061 63.1215C53.2076 62.6823 53.4045 62.2507 53.3061 61.8191C53.2228 61.3966 53.2228 60.9619 53.3061 60.5394C53.3061 60.1229 53.5105 59.7064 53.3061 59.2975C53.2606 58.8886 53.0183 58.4873 53.3061 58.086C53.2304 57.6922 53.4499 57.3287 53.3061 56.9122C53.5332 56.5261 53.3061 56.155 53.3061 55.7764C53.3742 55.4136 53.3742 55.0413 53.3061 54.6785C53.2001 54.3226 53.3667 53.9667 53.3061 53.6259C53.2455 53.2852 53.4802 52.9444 53.3061 52.6188C53.3061 52.2932 53.3061 51.9676 53.3061 51.6571C53.0032 51.3466 53.3061 51.0438 53.3061 50.7485C53.3061 50.4531 53.1016 50.173 53.3061 49.8928C53.0789 49.605 53.3061 49.4081 53.3061 48.9538C53.3214 48.8179 53.3214 48.6808 53.3061 48.5449C53.2988 48.4011 53.2988 48.2571 53.3061 48.1133C53.4292 48.1134 53.5516 48.1312 53.6695 48.1663C53.8359 48.1061 54.0181 48.1061 54.1844 48.1663C54.332 48.2087 54.4855 48.2266 54.6388 48.2193C54.8584 48.3253 55.0629 48.2193 55.2597 48.2193C55.4437 48.1735 55.6361 48.1735 55.8201 48.2193H56.3122C57.4405 48.401 57.9403 48.4843 57.9403 48.5979Z" fill="#5D270D"/>
<path d="M53.9194 48.5993C54.0027 48.5993 54.086 48.9552 54.1618 49.614C54.1618 49.72 54.1618 49.8411 54.1618 49.9623C54.1927 50.0938 54.2079 50.2285 54.2072 50.3636C54.0936 50.5075 54.4116 50.6514 54.2072 50.8104C54.1788 50.9725 54.1918 51.1392 54.245 51.295C54.245 51.4692 54.1769 51.6434 54.245 51.8251C54.3132 52.0068 54.0027 52.2037 54.245 52.4006C54.2832 52.6033 54.2832 52.8113 54.245 53.0139C54.2099 53.0607 54.1865 53.1152 54.1769 53.1729V53.2638C54.1737 53.3041 54.1737 53.3446 54.1769 53.385C54.1769 53.5516 54.2526 53.7408 54.2678 53.9302C54.2153 53.9966 54.178 54.0738 54.1584 54.1562C54.1388 54.2385 54.1373 54.3242 54.1542 54.4072C54.017 54.4333 53.8843 54.4792 53.7604 54.5435C53.5754 54.4293 53.3643 54.3642 53.1471 54.3542C53.0676 54.3576 52.9897 54.3783 52.9191 54.4149C52.8485 54.4516 52.7867 54.5032 52.7382 54.5662C52.4883 54.5662 52.2384 54.4678 51.9809 54.5662C51.7296 54.5985 51.4751 54.5985 51.2237 54.5662C51.1051 54.6497 50.9636 54.6944 50.8186 54.6944C50.6736 54.6944 50.5321 54.6497 50.4135 54.5662C50.2852 54.6386 50.1405 54.6766 49.9932 54.6766C49.846 54.6766 49.7012 54.6386 49.573 54.5662C49.2852 54.4527 48.9975 54.7328 48.7021 54.5662C48.4144 54.5662 48.1191 54.6117 47.8162 54.5662C47.6731 54.5028 47.5184 54.47 47.3619 54.47C47.2054 54.47 47.0506 54.5028 46.9075 54.5662C46.5991 54.642 46.277 54.642 45.9686 54.5662C45.8225 54.6425 45.6601 54.6824 45.4953 54.6824C45.3305 54.6824 45.1681 54.6425 45.022 54.5662C44.6964 54.5662 44.3784 54.4527 44.0528 54.5662C43.9696 54.5587 43.886 54.5587 43.8029 54.5662H43.3561C43.054 54.5971 42.7495 54.5971 42.4474 54.5662H42.3415C42.3415 54.2482 42.402 53.9604 42.402 53.6878C42.402 53.5515 42.402 53.4152 42.402 53.2789V53.1805C42.402 53.1426 42.402 53.1048 42.402 53.0896V52.9761C42.2657 52.6505 42.455 52.3248 42.402 52.0068C42.5989 51.6888 42.3414 51.3707 42.402 51.0527C42.4474 50.7439 42.4474 50.4301 42.402 50.1213C42.402 49.9699 42.402 49.8184 42.402 49.667C42.402 49.5155 42.402 49.5155 42.402 49.4398C42.402 49.3641 42.402 49.3641 42.402 49.3262V49.2657V49.1975C42.3375 49.0632 42.3088 48.9145 42.3187 48.7659C42.315 48.6952 42.315 48.6245 42.3187 48.5539C42.3287 48.4916 42.3519 48.4322 42.3869 48.3797C42.4556 48.2788 42.537 48.1871 42.6292 48.1071C42.7277 48.0314 42.8034 47.9254 42.9321 47.9254C43.1703 47.9455 43.4102 47.9302 43.6439 47.8799L43.818 47.8421H43.924H44.1437C44.4238 47.7891 44.704 47.9859 44.9766 47.8421C45.2568 47.8421 45.5294 47.7436 45.7944 47.8421C46.0594 47.6906 46.3169 47.9632 46.5516 47.8421C46.8038 47.8268 47.0567 47.8268 47.3089 47.8421C47.5512 48.0768 47.7935 47.8799 48.0661 47.8421C48.3387 47.8042 48.528 47.7133 48.7476 47.8421C48.9672 47.8421 49.1868 47.9632 49.3988 47.8421C49.6108 47.7209 49.8077 48.1828 50.0122 47.8421C50.2091 47.7891 50.3984 48.0844 50.5801 47.8421C50.7618 47.5998 50.9435 47.8421 51.1177 47.8421H51.6023C53.0032 47.9481 53.8134 48.0692 53.8134 48.1979C53.8134 48.3267 52.8139 48.463 51.1101 48.569C50.9435 48.569 50.7618 48.7432 50.5801 48.569C50.3984 48.569 50.209 48.6902 50.0046 48.569C49.8077 48.781 49.6033 48.569 49.3912 48.569C49.1783 48.5317 48.9605 48.5317 48.7476 48.569C48.5204 48.6902 48.2933 48.5009 48.0585 48.569C47.9434 48.5026 47.8128 48.4676 47.6799 48.4676C47.547 48.4676 47.4164 48.5026 47.3013 48.569C47.059 48.4327 46.8015 48.569 46.5441 48.569C46.2866 48.3721 46.0216 48.5084 45.7868 48.569C45.517 48.5842 45.2465 48.5842 44.9766 48.569C44.704 48.569 44.4238 48.622 44.1361 48.569L43.924 48.6296H43.818C43.818 48.6296 43.818 48.6296 43.7347 48.5614C43.7347 48.6372 43.7347 48.6372 43.7347 48.6902V48.7507C43.7347 48.7886 43.7347 48.8264 43.7347 48.8643C43.7423 48.9398 43.7423 49.016 43.7347 49.0915C43.7347 49.243 43.7347 49.3944 43.7347 49.5458C43.7802 49.8563 43.5227 50.1667 43.7347 50.4772C43.7347 50.7952 43.7347 51.1133 43.7347 51.4313C43.6856 51.7525 43.6856 52.0794 43.7347 52.4006C43.7066 52.4349 43.6837 52.4732 43.6666 52.5141C43.6602 52.5338 43.6602 52.555 43.6666 52.5747C43.6666 52.5747 43.7272 52.6202 43.7726 52.5747C43.818 52.5747 43.8256 52.5747 43.8408 52.5747H44.0907C44.4163 52.5747 44.7343 52.5747 45.0599 52.5747C45.3855 52.5747 45.696 52.6656 46.0064 52.5747C46.3169 52.4839 46.6349 52.6732 46.9454 52.5747C47.242 52.4876 47.5574 52.4876 47.8541 52.5747C48.1569 52.5747 48.4522 52.7792 48.74 52.5747C49.0353 52.5293 49.3231 52.287 49.6108 52.5747C49.891 52.499 50.1712 52.7186 50.4513 52.5747C50.7239 52.8019 50.9965 52.5747 51.2616 52.5747C51.5099 52.6389 51.7705 52.6389 52.0188 52.5747C52.2763 52.4687 52.5261 52.6353 52.776 52.5747C52.8896 52.5142 53.0562 52.5747 53.0562 52.5747C53.0562 52.5747 53.1774 52.6505 53.1774 52.5747H53.2833C53.2833 52.5293 53.2833 52.4914 53.2833 52.4611C53.1319 52.34 53.1319 52.3551 53.1698 52.3324H53.2076V52.2946C53.2321 52.2441 53.2499 52.1906 53.2607 52.1355C53.3061 51.9235 53.0562 51.7191 53.2607 51.5222C53.0335 51.3253 53.2607 51.1284 53.2607 50.9467C53.2607 50.7649 53.1622 50.5832 53.2607 50.4167C53.1016 50.2425 53.344 50.0835 53.2607 49.9244C53.3667 49.7654 53.2607 49.6215 53.2607 49.4777C53.2235 49.3463 53.237 49.2058 53.2985 49.0839C53.2985 48.9552 53.2985 48.8416 53.2985 48.728C53.7604 48.9703 53.8361 48.5993 53.9194 48.5993Z" fill="#5D270D"/>
<path d="M48.6189 49.8455C48.6189 49.9364 48.5431 50.012 48.4523 50.1029L48.4068 50.1559C48.4068 50.1559 48.4068 50.2089 48.3614 50.2013C48.316 50.1938 48.3615 50.4058 48.3085 50.2619C48.2555 50.1181 48.263 50.2619 48.263 50.3225C48.263 50.3831 48.1797 50.3225 48.2176 50.3906C48.2176 50.4436 48.2554 50.4587 48.2176 50.3906C48.2176 50.3376 48.1343 50.3376 48.2176 50.4436C48.3008 50.5496 48.2176 50.5117 48.2176 50.5193C48.0737 50.436 48.1797 50.5648 48.2176 50.595C48.0359 50.5118 48.0813 50.595 48.2176 50.6783C47.9526 50.5799 47.9753 50.6783 48.2176 50.7616C48.2176 50.7616 48.104 50.7616 48.2176 50.8373C48.3311 50.913 48.2781 50.8979 48.2176 50.9206C48.3993 50.9206 48.3917 50.9206 48.2176 50.9963C48.4144 50.9963 48.3387 50.9963 48.2176 51.072C48.1418 51.072 48.2781 51.072 48.2706 51.1326C48.2494 51.1594 48.2339 51.1903 48.2251 51.2234C48.2251 51.2234 48.2252 51.2234 48.3311 51.178C48.4371 51.1326 48.4372 51.1174 48.3993 51.2234C48.528 51.0568 48.4826 51.1401 48.4674 51.2234C48.4674 51.2234 48.4674 51.2234 48.5128 51.2234C48.5128 51.2234 48.5128 51.2234 48.5507 51.2234C48.5624 51.2502 48.5806 51.2737 48.6037 51.2916C48.6037 51.2916 48.6037 51.2916 48.6037 51.2159C48.6037 51.1402 48.6037 51.1553 48.6037 51.2159C48.6037 51.2765 48.6037 51.2613 48.6491 51.2159C48.6946 51.1705 48.7097 51.2765 48.7021 51.2159C48.6946 51.1553 48.7021 51.1402 48.7021 51.1629C48.7021 51.1856 48.8157 51.2159 48.7703 51.1175C48.7249 51.019 48.7703 51.1174 48.7703 51.0645C48.7703 51.0115 48.7703 51.0645 48.8308 51.0645C48.7173 50.9585 48.74 50.9736 48.7854 50.9887C48.8308 51.0039 48.9065 51.0341 48.8838 50.9887C48.8611 50.9433 48.9444 50.9887 48.9368 50.9887C48.9293 50.9887 48.9368 50.9433 48.9368 50.9433C48.9368 50.9433 48.9368 50.9433 48.9747 50.9433C49.0125 50.9433 49.0201 50.9433 48.9747 50.8979C48.9293 50.8524 48.9747 50.8979 48.9747 50.86C48.9747 50.8222 48.9747 50.86 49.0201 50.86C48.9444 50.86 48.9747 50.86 49.0201 50.8222C49.0655 50.7843 49.0958 50.8222 49.0201 50.7767C48.9444 50.7313 49.0201 50.7313 49.0201 50.701C49.0201 50.6708 49.1337 50.6253 49.1034 50.6253H49.0126C49.0126 50.6253 48.8763 50.6253 49.0126 50.542C49.0126 50.542 49.0807 50.4209 49.0126 50.4663C48.9444 50.5117 49.0125 50.4058 49.0731 50.3528C49.1337 50.2998 49.0731 50.2846 48.9823 50.3906C48.8914 50.4966 48.9823 50.3528 48.9823 50.3073C48.9823 50.2619 48.9823 50.2468 48.9293 50.3073C48.8763 50.3679 48.9293 50.2619 48.8838 50.2392L48.8384 50.1786C48.6946 49.9969 48.528 49.8909 48.5204 49.7622C48.5129 49.6335 48.581 49.6259 48.7021 49.5729C48.8839 49.5117 49.0806 49.5117 49.2624 49.5729C49.3078 49.5729 49.4441 49.4821 49.4062 49.6335C49.4517 49.6335 49.5804 49.6335 49.5577 49.7168C49.7545 49.5956 49.6788 49.7773 49.7091 49.8303C49.7394 49.8833 49.7091 49.9666 49.853 49.9666C49.9968 49.9666 49.853 50.118 49.9817 50.1407C49.8908 50.2695 49.9817 50.3073 50.0877 50.3452C49.9817 50.4587 50.1558 50.489 50.1634 50.5723C49.9817 50.6859 50.1255 50.7389 50.2088 50.8297C50.2921 50.9206 50.2088 50.9963 50.2088 51.0947C50.2088 51.1931 50.2088 51.284 50.1634 51.3673C50.2315 51.4884 50.2164 51.6096 50.0725 51.6474C50.0725 51.7686 49.9816 51.8291 49.9211 51.9048C49.9205 51.9329 49.9124 51.9603 49.8978 51.9842C49.8832 52.0081 49.8625 52.0278 49.8378 52.0411C49.8378 52.079 49.747 52.1017 49.7167 52.1471C49.6864 52.1926 49.6182 52.1926 49.5577 52.2001C49.4971 52.2077 49.4593 52.2001 49.4668 52.344C49.4744 52.4878 49.27 52.4197 49.1791 52.5029C49.0667 52.5027 48.9565 52.5343 48.8611 52.5938C48.7854 52.4954 48.7324 52.4878 48.6794 52.5105C48.6233 52.5432 48.5722 52.5841 48.528 52.6317C48.4713 52.6492 48.4106 52.6492 48.3539 52.6317C48.2954 52.6169 48.2393 52.5939 48.1873 52.5635C48.0754 52.5601 47.9661 52.5289 47.8693 52.4727C47.8012 52.4727 47.7633 52.4727 47.7179 52.3894C47.6725 52.3061 47.6497 52.3061 47.5816 52.3137C47.5135 52.3212 47.4756 52.2682 47.4453 52.2228C47.415 52.1774 47.3999 52.1169 47.3317 52.1169C47.2636 52.1169 47.1046 52.026 47.1273 51.8746C47.1273 51.8746 47.1273 51.7686 47.1273 51.708C47.1273 51.6474 47.1273 51.6171 46.9986 51.6171C46.8699 51.6171 46.8699 51.5641 46.8245 51.5263C46.7791 51.4884 46.7715 51.4354 46.9002 51.337C46.8548 51.337 46.9002 51.2461 46.9002 51.1931C46.9002 51.1401 46.9002 51.1023 46.9002 51.0645C46.9986 51.0039 46.9986 50.966 46.9759 50.9206C46.9532 50.8752 46.8926 50.8373 46.9002 50.7994C46.9078 50.7616 47.0213 50.6405 46.9456 50.542C46.8699 50.4436 47.0365 50.3982 47.0213 50.3149C47.0062 50.2316 47.0214 50.2316 47.0743 50.2089C47.1273 50.1862 47.1803 50.2089 47.1273 50.1105C47.1879 50.0575 47.1803 49.9742 47.256 49.9363C47.1501 49.8304 47.1803 49.7925 47.256 49.7925C47.3318 49.7925 47.3923 49.7925 47.4226 49.7925C47.4529 49.7925 47.4226 49.7243 47.4226 49.6789C47.4226 49.6335 47.4226 49.6108 47.5513 49.6789C47.4453 49.4669 47.627 49.5729 47.7027 49.5956C47.7784 49.6183 47.7406 49.4518 47.8466 49.5351C47.8087 49.3685 47.9753 49.5729 47.9829 49.5351C48.0661 49.6108 48.0662 49.5351 48.1116 49.5351C48.157 49.5351 48.1797 49.4896 48.2251 49.5351H48.3236C48.5431 49.6789 48.6264 49.7698 48.6189 49.8455Z" fill="#5D270D"/>
<path d="M48.6186 56.0346C48.6186 56.1178 48.5428 56.1935 48.452 56.292L48.4066 56.3374C48.4066 56.3374 48.4066 56.3904 48.3611 56.3904C48.3157 56.3904 48.3612 56.5948 48.3082 56.4434C48.3082 56.4434 48.2627 56.4434 48.2627 56.5116C48.2627 56.5797 48.1794 56.4737 48.2173 56.5721C48.2173 56.6251 48.2551 56.6706 48.2173 56.5721C48.2173 56.5191 48.134 56.5115 48.2173 56.6251C48.3006 56.7387 48.2173 56.6857 48.2173 56.7008C48.0734 56.61 48.1794 56.7008 48.2173 56.7765C48.0356 56.6857 48.081 56.7766 48.2173 56.8523C47.9523 56.7614 47.975 56.8523 48.2173 56.9355C48.2173 56.9355 48.1037 56.9355 48.2173 57.0188C48.3308 57.1021 48.2778 57.0718 48.2173 57.0945C48.399 57.0945 48.3914 57.0945 48.2173 57.1778C48.4141 57.1778 48.3384 57.1778 48.2173 57.2459C48.1416 57.2459 48.2779 57.2459 48.2703 57.2989C48.2505 57.3267 48.2352 57.3573 48.2249 57.3898C48.2249 57.3898 48.2249 57.3898 48.3309 57.3519C48.4369 57.3141 48.4369 57.2914 48.399 57.3898C48.5277 57.2308 48.4823 57.3065 48.4671 57.3898C48.4671 57.3898 48.4671 57.3898 48.4671 57.4352C48.4671 57.4806 48.4671 57.4352 48.5126 57.4352C48.5126 57.4352 48.5126 57.4352 48.5504 57.4352C48.5621 57.462 48.5803 57.4855 48.6034 57.5034C48.6034 57.5034 48.6034 57.5034 48.6034 57.4352C48.6034 57.3671 48.6034 57.3746 48.6034 57.4352C48.6034 57.4958 48.6034 57.4806 48.6488 57.4352C48.6943 57.5261 48.7094 57.4958 48.7018 57.4352C48.6943 57.3746 48.7018 57.352 48.7018 57.3747C48.7018 57.3974 48.8154 57.4352 48.77 57.3368C48.7246 57.2384 48.77 57.2914 48.77 57.2838C48.77 57.2762 48.77 57.2838 48.8305 57.2838C48.717 57.1854 48.7397 57.1929 48.7851 57.2081C48.8305 57.2232 48.9063 57.2535 48.8835 57.2081C48.8608 57.1627 48.9441 57.2081 48.9366 57.2081C48.929 57.2081 48.9366 57.2081 48.9366 57.1627C48.9366 57.1172 48.9365 57.1627 48.9744 57.1627C49.0123 57.1627 49.0198 57.1627 48.9744 57.1627C48.929 57.1627 48.9744 57.1627 48.9744 57.1172C48.9744 57.0718 48.9744 57.1172 49.0198 57.1172C48.9441 57.1172 48.9744 57.1172 49.0198 57.1172C49.0653 57.1172 49.0955 57.0794 49.0198 57.0794C48.9441 57.0794 49.0198 57.034 49.0198 56.9961C49.0198 56.9583 49.1334 56.9279 49.1031 56.9204C49.0729 56.9128 49.0274 56.9204 49.0123 56.9204C48.9972 56.9204 48.876 56.9204 49.0123 56.8447C49.0123 56.8447 49.0804 56.7235 49.0123 56.7689C48.9442 56.8144 49.0123 56.7008 49.0728 56.6554C49.1334 56.61 49.0728 56.5873 48.982 56.6554C48.8911 56.7235 48.982 56.61 48.982 56.5721C48.982 56.5343 48.982 56.504 48.929 56.5721C48.876 56.6403 48.929 56.5721 48.8835 56.5116L48.8381 56.4434C48.6943 56.2693 48.5277 56.1633 48.5201 56.0346C48.5126 55.9059 48.5807 55.8907 48.7018 55.8453C48.8829 55.7799 49.0811 55.7799 49.2621 55.8453C49.3075 55.8453 49.4438 55.7469 49.406 55.8983C49.4514 55.8983 49.5801 55.8983 49.5574 55.9816C49.7542 55.868 49.6785 56.0421 49.7088 56.0951C49.7391 56.1481 49.7088 56.2314 49.8527 56.239C49.9965 56.2466 49.8527 56.3904 49.9814 56.4131C49.8905 56.5343 49.9814 56.5797 50.0874 56.61C49.9814 56.7235 50.1555 56.7538 50.1631 56.8447C49.9814 56.9507 50.1252 57.0036 50.2085 57.0945C50.2918 57.1854 50.2085 57.2687 50.2085 57.3595C50.2085 57.4504 50.2085 57.5564 50.1631 57.6397C50.2312 57.7608 50.2161 57.8743 50.0722 57.9122C50.0722 58.0333 49.9814 58.0939 49.9208 58.1772C49.9202 58.2053 49.9121 58.2326 49.8975 58.2566C49.8829 58.2805 49.8622 58.3001 49.8375 58.3135L49.7997 58.4422C49.7997 58.4952 49.7012 58.4876 49.6407 58.4952C49.5801 58.5028 49.5422 58.4952 49.5498 58.6466C49.5574 58.7981 49.353 58.7223 49.2621 58.798C49.1484 58.7969 49.0373 58.8313 48.9441 58.8964C48.8684 58.798 48.8154 58.7829 48.7624 58.8056C48.708 58.8437 48.6573 58.8868 48.611 58.9343C48.5543 58.9523 48.4935 58.9523 48.4369 58.9343C48.3788 58.9221 48.3227 58.9017 48.2703 58.8738C48.1578 58.8677 48.0485 58.8339 47.9523 58.7753C47.8842 58.7753 47.8463 58.7375 47.8009 58.6996C47.7554 58.6618 47.7327 58.6088 47.6646 58.6239C47.5965 58.639 47.5586 58.5785 47.5283 58.5255C47.498 58.4725 47.4829 58.4195 47.4147 58.4195C47.3466 58.4195 47.1876 58.3362 47.2103 58.1848C47.2331 58.0333 47.2103 58.0712 47.2103 58.0182C47.2103 57.9652 47.2103 57.9274 47.0816 57.9198C46.9529 57.9122 46.9529 57.8744 46.9075 57.8365C46.8621 57.7987 46.8545 57.7381 46.9832 57.6472C46.9378 57.6094 46.9832 57.5564 46.9832 57.5034C46.9832 57.4504 46.9832 57.405 46.9832 57.3671C47.0816 57.3065 47.0816 57.2687 47.0589 57.2308C47.0362 57.193 46.9756 57.1475 46.9832 57.1021C46.9908 57.0567 47.1044 56.9507 47.0286 56.8523C46.9529 56.7538 47.1195 56.7008 47.1043 56.6251C47.0892 56.5494 47.1043 56.5418 47.1573 56.5191C47.2103 56.4964 47.2633 56.4813 47.2103 56.4207C47.2709 56.3677 47.2633 56.2768 47.339 56.2465C47.233 56.133 47.2633 56.1027 47.339 56.0951C47.4148 56.0876 47.4753 56.0951 47.5056 56.0951C47.5359 56.0951 47.5056 56.0346 47.5056 55.9891C47.5056 55.9437 47.5056 55.921 47.6343 55.9891C47.5283 55.7771 47.7101 55.8907 47.7858 55.9059C47.8615 55.921 47.8236 55.7696 47.9296 55.8529C47.8918 55.6863 48.0583 55.8529 48.0659 55.815C48.1492 55.8983 48.1492 55.815 48.1946 55.815C48.24 55.815 48.2627 55.7696 48.3082 55.815H48.4066C48.5428 55.8604 48.6261 55.9513 48.6186 56.0346Z" fill="#5D270D"/>
<path d="M53.9422 59.4658C53.8589 59.4658 53.7757 59.1099 53.7075 58.4512C53.7075 58.3451 53.7075 58.224 53.7075 58.1028C53.6957 57.9693 53.6957 57.835 53.7075 57.7015C53.8211 57.5652 53.5031 57.4138 53.7075 57.2623C53.745 57.1004 53.745 56.932 53.7075 56.7701C53.7075 56.5959 53.7757 56.4218 53.7075 56.2401C53.4879 56.0508 53.9498 55.8614 53.7075 55.6646C53.6732 55.4616 53.6732 55.2542 53.7075 55.0512C53.7427 55.0045 53.7661 54.9499 53.7757 54.8922C53.7833 54.8675 53.7833 54.8412 53.7757 54.8165C53.7786 54.804 53.7786 54.791 53.7757 54.7786C53.7757 54.7256 53.7 54.6953 53.6848 54.665C53.7984 54.559 53.8211 54.453 53.7984 54.4151C53.7078 54.4456 53.6232 54.4917 53.5485 54.5514C53.594 54.4151 53.5485 54.3545 53.4577 54.3621C53.3339 54.4018 53.2238 54.4752 53.1396 54.5742C52.8897 54.5742 52.6398 54.4757 52.3824 54.5742C52.131 54.6064 51.8765 54.6064 51.6251 54.5742C51.5065 54.6576 51.3651 54.7023 51.22 54.7023C51.075 54.7023 50.9336 54.6576 50.8149 54.5742C50.6867 54.6465 50.5419 54.6845 50.3946 54.6845C50.2474 54.6845 50.1026 54.6465 49.9744 54.5742C49.6866 54.4606 49.3989 54.7408 49.1036 54.5742C48.8159 54.5742 48.5205 54.6196 48.2176 54.5742C48.0746 54.5107 47.9198 54.4779 47.7633 54.4779C47.6068 54.4779 47.452 54.5107 47.309 54.5742C47.0006 54.6499 46.6784 54.6499 46.37 54.5742C46.2239 54.6505 46.0615 54.6903 45.8967 54.6903C45.7319 54.6903 45.5695 54.6505 45.4235 54.5742C45.0978 54.5742 44.7798 54.4606 44.4542 54.5742C44.3711 54.5666 44.2875 54.5666 44.2043 54.5742C44.2043 54.5742 44.2043 54.5742 44.1286 54.5742C44.1221 54.5731 44.1153 54.5734 44.1089 54.5752C44.1025 54.577 44.0965 54.5801 44.0915 54.5845C44.0864 54.5888 44.0824 54.5942 44.0796 54.6003C44.0769 54.6063 44.0755 54.6129 44.0756 54.6196C44.0687 54.6392 44.0687 54.6606 44.0756 54.6802C44.0724 54.718 44.0724 54.7559 44.0756 54.7937C44.2043 55.1193 44.015 55.445 44.0756 55.763C43.8863 56.0886 44.1438 56.4066 44.0756 56.7171C44.0378 57.0264 44.0378 57.3392 44.0756 57.6485C44.0756 57.8075 44.0756 57.959 44.121 58.1104C44.1665 58.2618 44.121 58.2618 44.121 58.3376V58.4512V58.5042V58.5496C44.2725 58.5496 44.2498 58.5496 44.2043 58.5496C44.1776 58.5738 44.1547 58.6019 44.1362 58.6329C44.1362 58.5723 44.174 58.6935 44.2119 58.6783H44.3179H44.5299C44.8101 58.6177 45.0903 58.8146 45.3705 58.6783C45.6431 58.6783 45.9156 58.5799 46.1807 58.6783C46.4457 58.5269 46.7107 58.7995 46.9379 58.6783C47.1901 58.6629 47.443 58.6629 47.6951 58.6783C47.9374 58.9131 48.1798 58.7162 48.4524 58.6783C48.725 58.6405 48.9143 58.542 49.1415 58.6783C49.3611 58.6783 49.5806 58.7995 49.7851 58.6783C49.9895 58.5572 50.2016 59.0191 50.3984 58.6783C50.5953 58.6177 50.7922 58.9131 50.9739 58.6783C51.1557 58.4436 51.3374 58.6783 51.504 58.6783H51.9962C53.3971 58.7768 54.1997 58.8903 54.2073 59.0191C54.2149 59.1478 53.2153 59.2917 51.5116 59.4053C51.3374 59.4053 51.1632 59.5794 50.9739 59.4053C50.7922 59.4053 50.6029 59.534 50.406 59.4053C50.2091 59.6249 50.0047 59.4507 49.7927 59.4053C49.5772 59.3677 49.3569 59.3677 49.1415 59.4053C48.9219 59.534 48.6871 59.3447 48.4524 59.4053C48.3372 59.3388 48.2067 59.3038 48.0737 59.3038C47.9408 59.3038 47.8102 59.3388 47.6951 59.4053C47.4528 59.2765 47.2029 59.4053 46.9379 59.4053C46.6804 59.2084 46.423 59.3447 46.1807 59.4053C45.9384 59.4658 45.6507 59.4053 45.3705 59.4053C45.0903 59.4053 44.8177 59.4583 44.5299 59.4053L44.3179 59.4583H44.2043H44.0226C43.7767 59.4384 43.5346 59.3849 43.3032 59.2992H43.1821C43.1355 59.2602 43.0924 59.2171 43.0534 59.1705C42.9768 59.0718 42.9154 58.962 42.8716 58.8449C42.8392 58.7189 42.8264 58.5886 42.8338 58.4587V58.0498V57.9817V57.9287C42.83 57.8909 42.83 57.8528 42.8338 57.8151C42.8338 57.7393 42.8338 57.6636 42.8338 57.5879C42.849 57.4343 42.849 57.2796 42.8338 57.126C42.7959 56.8231 43.0533 56.5051 42.8338 56.1946C42.8338 55.8842 42.8338 55.5661 42.8338 55.2405C42.8753 54.9188 42.8753 54.593 42.8338 54.2713C42.8569 54.235 42.8771 54.1971 42.8943 54.1577C42.903 54.1306 42.903 54.1015 42.8943 54.0744C42.8974 54.0416 42.8974 54.0087 42.8943 53.9759C42.9095 53.8426 42.9095 53.708 42.8943 53.5746C42.8771 53.2702 42.8442 52.9669 42.7959 52.6659H42.8943C43.1994 52.6464 43.5055 52.6464 43.8106 52.6659H44.2725H44.5224C44.848 52.6659 45.166 52.6659 45.4916 52.6659C45.8172 52.6659 46.1277 52.7568 46.4382 52.6659C46.7486 52.5751 47.0666 52.7644 47.3771 52.6659C47.6737 52.5789 47.9892 52.5789 48.2858 52.6659C48.5887 52.6659 48.884 52.8704 49.1717 52.6659C49.467 52.6205 49.7548 52.3782 50.0426 52.6659C50.3227 52.5902 50.6029 52.8098 50.8831 52.6659C51.1557 52.8931 51.4283 52.6659 51.6933 52.6659C51.9416 52.7301 52.2022 52.7301 52.4505 52.6659C52.708 52.5599 52.9579 52.7265 53.2078 52.6659C53.3365 52.6054 53.4122 52.6659 53.6545 52.6659C53.8478 52.7191 54.0519 52.7191 54.2452 52.6659H54.7752C54.794 52.87 54.794 53.0753 54.7752 53.2793C54.8411 53.3487 54.8859 53.4353 54.9047 53.529C54.9234 53.6228 54.9153 53.72 54.8812 53.8094C54.8847 53.8598 54.8847 53.9104 54.8812 53.9608C54.8871 53.9754 54.8871 53.9917 54.8812 54.0062V54.0517C54.8512 54.1004 54.8306 54.1543 54.8207 54.2107C54.7752 54.4151 55.0175 54.6272 54.8207 54.8165C55.0478 55.0209 54.8207 55.2102 54.7828 55.3919C54.7449 55.5737 54.8812 55.7554 54.7828 55.922C54.9418 56.0962 54.6919 56.2552 54.7828 56.4142C54.6768 56.5732 54.7828 56.7171 54.7449 56.861C54.794 56.9876 54.794 57.1281 54.7449 57.2547C54.7449 57.3835 54.7449 57.4971 54.707 57.6106C54.1088 59.11 54.0255 59.4658 53.9422 59.4658Z" fill="#5D270D"/>
<path d="M14.4149 48.5997C14.4149 48.5164 14.9147 48.4331 15.831 48.3574H16.3232C16.5069 48.3379 16.6922 48.3379 16.8759 48.3574C17.0728 48.4634 17.2848 48.1453 17.5044 48.3195C17.6453 48.336 17.7876 48.336 17.9285 48.3195L18.4585 48.2741C18.5617 48.2628 18.6658 48.2628 18.769 48.2741C18.769 48.4104 18.769 48.5466 18.769 48.6754C18.7616 48.8033 18.777 48.9315 18.8144 49.054C19.0265 49.4932 18.5721 49.6977 18.8144 49.9854C18.8487 50.2696 18.8487 50.5569 18.8144 50.8411C18.6554 51.1364 18.8144 51.4392 18.8144 51.7497C18.7329 51.8969 18.6901 52.0623 18.6901 52.2306C18.6901 52.3988 18.7329 52.5643 18.8144 52.7114C18.691 52.8501 18.6227 53.0293 18.6227 53.2149C18.6227 53.4006 18.691 53.5799 18.8144 53.7185C18.7579 54.0671 18.7579 54.4225 18.8144 54.7711C18.8486 55.1363 18.8486 55.5038 18.8144 55.869C18.8986 56.0465 18.9423 56.2405 18.9423 56.4369C18.9423 56.6334 18.8986 56.8274 18.8144 57.0049C18.9618 57.3822 18.9618 57.8012 18.8144 58.1786C18.7084 58.5724 18.9886 58.9812 18.8144 59.3901C18.8144 59.799 18.8599 60.2155 18.8144 60.632C18.6821 61.0483 18.6821 61.4954 18.8144 61.9117C18.894 62.3422 18.894 62.7836 18.8144 63.2141C18.9774 63.6434 18.9774 64.1175 18.8144 64.5468C18.7728 64.9977 18.7728 65.4514 18.8144 65.9023C18.7919 66.1314 18.7919 66.3622 18.8144 66.5914V66.7731C18.8041 66.8677 18.7864 66.9614 18.7614 67.0533C18.7113 67.2359 18.6236 67.4062 18.5039 67.5531C18.2796 67.8381 17.9809 68.0555 17.6407 68.1815C17.4732 68.2394 17.3009 68.2825 17.1258 68.3103H16.9971H16.9062L16.7396 68.3481C16.2853 68.4844 15.8309 68.2951 15.3842 68.3481L15.3009 68.3103H15.2555H15.1949C15.1083 68.2995 15.0224 68.2843 14.9374 68.2648C14.7693 68.2319 14.6046 68.1838 14.4452 68.121C14.2825 68.055 14.1315 67.9629 13.9985 67.8483C13.8659 67.7338 13.7599 67.5916 13.688 67.4319C13.5999 67.2773 13.5408 67.108 13.5138 66.9321C13.4952 66.7813 13.4952 66.6286 13.5138 66.4778C13.5478 66.2646 13.5478 66.0473 13.5138 65.8341C13.457 65.4095 13.457 64.9791 13.5138 64.5544C13.2109 64.1304 13.5895 63.7215 13.5138 63.3126C13.5554 62.9098 13.5554 62.5038 13.5138 62.101C13.4532 61.6997 13.6501 61.3059 13.5138 60.9198C13.4684 60.5425 13.4684 60.1612 13.5138 59.7839C13.37 59.4129 13.6426 59.0267 13.5138 58.6935C13.3851 58.3603 13.5138 57.9817 13.5138 57.641C13.7486 57.2926 13.5517 56.9594 13.5138 56.6338C13.476 56.3082 13.3851 55.9826 13.5138 55.6722C13.5704 55.3719 13.5704 55.0637 13.5138 54.7635C13.5138 54.4682 13.8546 54.1804 13.5138 53.9078C13.4608 53.6277 13.7561 53.3626 13.5138 53.1052C13.2715 52.8477 13.5138 52.5978 13.5138 52.3479C13.5138 52.0981 13.5138 51.8784 13.5517 51.6588C13.6501 49.6976 13.7713 48.5694 13.8924 48.5694C14.0136 48.5694 14.165 49.9627 14.2786 52.3555C14.2786 52.5903 14.4528 52.8402 14.2786 53.1128C14.3244 53.3783 14.3244 53.6498 14.2786 53.9154C14.4907 54.188 14.3165 54.4758 14.2786 54.7711C14.241 55.0728 14.241 55.378 14.2786 55.6797C14.4074 55.9902 14.2181 56.3082 14.2786 56.6414C14.1501 56.9648 14.1501 57.3251 14.2786 57.6485C14.1499 57.9893 14.2786 58.3376 14.2786 58.7011C14.1347 59.0503 14.1347 59.4423 14.2786 59.7915C14.3468 60.1701 14.2786 60.5487 14.2786 60.9273C14.2786 61.3059 14.3316 61.6846 14.2786 62.1086C14.3846 62.5055 14.3846 62.9233 14.2786 63.3201C14.3126 63.7334 14.3126 64.1488 14.2786 64.562C14.3089 64.988 14.3089 65.4157 14.2786 65.8417C14.2848 66.0579 14.2644 66.2741 14.2181 66.4853C14.2181 66.6216 14.2181 66.6444 14.2181 66.6974C14.2304 66.7226 14.2485 66.7446 14.2708 66.7617C14.2932 66.7788 14.3192 66.7905 14.3468 66.7958C14.3995 66.8638 14.4606 66.9248 14.5285 66.9776C14.5656 67.0005 14.6067 67.0159 14.6497 67.023C14.6497 67.023 14.6951 67.023 14.7103 67.023H14.8617C15.3122 67.0722 15.7667 67.0722 16.2171 67.023C16.2698 67.0523 16.3257 67.0751 16.3837 67.0911H16.4746H16.52C16.5688 67.1098 16.6227 67.1098 16.6715 67.0911C16.7215 67.0678 16.7617 67.0276 16.785 66.9776C16.8096 66.9304 16.825 66.879 16.8305 66.8261C16.8335 66.7832 16.8335 66.7402 16.8305 66.6974C16.8268 66.6799 16.8268 66.6619 16.8305 66.6444V66.5459C16.8305 66.3112 16.8305 66.084 16.8684 65.8568C16.8684 65.4025 16.8684 64.9482 16.8684 64.5014C16.8684 64.0547 16.9668 63.6079 16.8684 63.1687C16.7699 62.7295 16.9668 62.2979 16.8684 61.8663C16.7812 61.4442 16.7812 61.0087 16.8684 60.5866C16.8684 60.1701 17.0652 59.7536 16.8684 59.3447C16.8305 58.9358 16.5806 58.5269 16.8684 58.1332C16.7926 57.7318 17.0198 57.3759 16.8684 56.9594C17.088 56.5732 16.8684 56.2022 16.8684 55.8236C16.9402 55.4611 16.9402 55.0881 16.8684 54.7256C16.7623 54.3698 16.9289 54.0138 16.8684 53.6731C16.8078 53.3323 17.0349 52.9916 16.8684 52.666C16.8684 52.3404 16.8684 52.0147 16.8684 51.7043C16.5655 51.3938 16.8684 51.091 16.8684 50.7956C16.8684 50.5003 16.6715 50.2201 16.8684 49.94C16.7934 49.8451 16.7527 49.7277 16.7527 49.6068C16.7527 49.4859 16.7934 49.3685 16.8684 49.2736C16.8828 49.2319 16.8828 49.1865 16.8684 49.1449C16.8684 49.107 16.8684 49.0843 16.8684 49.0389C16.8684 48.9934 16.8153 49.0389 16.8078 48.9934C16.8002 48.948 16.6715 49.0464 16.626 48.9934C16.6002 48.9641 16.5665 48.9428 16.5289 48.9321C16.4913 48.9214 16.4514 48.9216 16.414 48.9329C16.1944 48.8268 15.9824 48.9329 15.7855 48.9329C15.6046 48.9825 15.4137 48.9825 15.2327 48.9329L14.7406 48.895C14.9147 48.7587 14.4149 48.6754 14.4149 48.5997Z" fill="#5D270D"/>
<path d="M18.4128 48.6027C18.4961 48.6027 18.5794 48.9662 18.6475 49.6174C18.6475 49.731 18.6475 49.8446 18.6475 49.9733C18.6594 50.1043 18.6594 50.2361 18.6475 50.3671C18.534 50.5109 18.852 50.6624 18.6475 50.8138C18.6026 50.9748 18.6026 51.145 18.6475 51.306C18.6854 51.4726 18.5794 51.6544 18.6475 51.8361C18.7157 52.0178 18.4052 52.2071 18.6475 52.4116C18.6819 52.6146 18.6819 52.8219 18.6475 53.0249C18.6124 53.0717 18.589 53.1262 18.5794 53.1839C18.5748 53.1961 18.5748 53.2096 18.5794 53.2218C18.5794 53.2218 18.5794 53.2218 18.5794 53.2597C18.5794 53.2975 18.6551 53.3429 18.6627 53.3732C18.6703 53.4035 18.534 53.5853 18.5567 53.6231C18.65 53.599 18.7358 53.5522 18.8066 53.4868C18.7611 53.6231 18.8066 53.6837 18.905 53.6761C19.0247 53.6327 19.1314 53.5597 19.2155 53.4641C19.4653 53.4641 19.7152 53.5625 19.9727 53.4641C20.2243 53.4354 20.4783 53.4354 20.7299 53.4641C20.8519 53.3858 20.9939 53.3442 21.1388 53.3442C21.2838 53.3442 21.4257 53.3858 21.5477 53.4641C21.6752 53.3896 21.8203 53.3503 21.968 53.3503C22.1157 53.3503 22.2607 53.3896 22.3882 53.4641C22.6684 53.5701 22.9562 53.2899 23.2515 53.4641C23.5392 53.4641 23.8421 53.4187 24.1374 53.4641C24.2813 53.5296 24.4375 53.5635 24.5956 53.5635C24.7536 53.5635 24.9098 53.5296 25.0537 53.4641C25.3595 53.3884 25.6792 53.3884 25.9851 53.4641C26.1319 53.3859 26.2957 53.345 26.4621 53.345C26.6285 53.345 26.7923 53.3859 26.9392 53.4641C27.2572 53.4641 27.5828 53.5777 27.9084 53.4641H28.181C28.181 53.4641 28.181 53.4641 28.2643 53.4641C28.2719 53.4652 28.2796 53.4646 28.2869 53.4625C28.2943 53.4603 28.301 53.4566 28.3068 53.4515C28.3125 53.4465 28.3172 53.4403 28.3203 53.4333C28.3234 53.4263 28.325 53.4187 28.3249 53.4111C28.3286 53.3936 28.3286 53.3756 28.3249 53.3581C28.3249 53.3581 28.3249 53.2824 28.2871 53.2445C28.1508 52.9189 28.3401 52.6009 28.2871 52.2752C28.4839 51.9572 28.2265 51.6392 28.2871 51.3212C28.3324 51.0124 28.3324 50.6986 28.2871 50.3898C28.2871 50.2383 28.2871 50.0869 28.2871 49.9354C28.2871 49.784 28.2871 49.784 28.2871 49.7083C28.2871 49.6326 28.2871 49.6325 28.2871 49.5947V49.5341C28.1356 49.5341 28.1507 49.5341 28.2037 49.5341C28.2305 49.5117 28.2513 49.4831 28.2643 49.4508C28.2643 49.4508 28.2643 49.3902 28.2643 49.413C28.2643 49.4357 28.2189 49.3524 28.181 49.3675H28.0674H27.8554C27.5753 49.4281 27.2951 49.2312 27.0149 49.3675C26.7423 49.3675 26.4697 49.466 26.2047 49.3675C25.9397 49.519 25.6746 49.2464 25.4475 49.3675C25.1953 49.3828 24.9424 49.3828 24.6902 49.3675C24.4479 49.1328 24.2056 49.3297 23.933 49.3675C23.6604 49.4054 23.4711 49.5038 23.2439 49.3675C23.0243 49.3675 22.8047 49.2464 22.6003 49.3675C22.3958 49.4887 22.1838 49.0343 21.9869 49.3675C21.7901 49.4205 21.5932 49.1252 21.4114 49.3675C21.2297 49.6098 21.048 49.3675 20.8814 49.3675H20.3892C18.9883 49.2691 18.1781 49.1555 18.1781 49.0268C18.1781 48.898 19.1776 48.7542 20.8738 48.6406C21.0479 48.6406 21.2221 48.4664 21.4114 48.6406C21.5932 48.6406 21.7825 48.5194 21.9794 48.6406C22.1762 48.421 22.3807 48.6406 22.5927 48.6406C22.8078 48.6819 23.0288 48.6819 23.2439 48.6406C23.4635 48.5194 23.6983 48.7011 23.933 48.6406C24.0481 48.707 24.1787 48.742 24.3116 48.742C24.4445 48.742 24.5751 48.707 24.6902 48.6406C24.9325 48.7693 25.1824 48.6406 25.4475 48.6406C25.7049 48.8374 25.9624 48.6936 26.2047 48.6406C26.447 48.5876 26.7423 48.6406 27.0225 48.6406C27.3026 48.6406 27.5753 48.5876 27.863 48.6406L28.075 48.5876H28.181H28.3703C28.6129 48.6172 28.8516 48.673 29.0821 48.7542H29.226C29.2726 48.7932 29.3157 48.8363 29.3547 48.8829C29.4366 48.9752 29.4985 49.0835 29.5365 49.2009C29.5485 49.2634 29.5485 49.3277 29.5365 49.3902V49.5871C29.5365 49.7234 29.5365 49.8597 29.5365 49.996V50.0642V50.1247C29.5365 50.1626 29.5365 50.2004 29.5365 50.2383C29.5365 50.2762 29.5365 50.3898 29.5365 50.4655C29.5365 50.5412 29.5365 50.7684 29.5365 50.9198C29.5819 51.2303 29.3244 51.5407 29.5365 51.8512C29.5365 52.1692 29.5365 52.4873 29.5365 52.8053C29.4873 53.1265 29.4873 53.4534 29.5365 53.7746C29.5083 53.8089 29.4854 53.8472 29.4683 53.8881C29.4657 53.9184 29.4657 53.9488 29.4683 53.979C29.4683 53.979 29.4683 54.0472 29.4683 54.0774C29.4569 54.2084 29.4569 54.3402 29.4683 54.4712C29.4683 54.7438 29.5289 55.0467 29.5743 55.3799H29.4683C29.1631 55.3958 28.8573 55.3958 28.5521 55.3799H28.0902H27.8479C27.5251 55.3988 27.2014 55.3988 26.8786 55.3799C26.553 55.448 26.2425 55.289 25.9245 55.3799C25.6064 55.4708 25.296 55.2739 24.9931 55.3799C24.6934 55.4632 24.3766 55.4632 24.0769 55.3799C23.7816 55.3799 23.4786 55.183 23.1909 55.3799C22.8956 55.4253 22.6078 55.6752 22.3276 55.3799C22.0399 55.4556 21.7597 55.236 21.4871 55.3799C21.207 55.1603 20.9344 55.3799 20.6694 55.3799C20.4215 55.3123 20.16 55.3123 19.9121 55.3799C19.6547 55.4859 19.4048 55.3193 19.1549 55.3799C19.0957 55.398 19.0324 55.398 18.9731 55.3799H18.8672H18.7157C18.521 55.3188 18.3122 55.3188 18.1175 55.3799C17.9433 55.3799 17.7616 55.3799 17.5874 55.3799C17.5687 55.1733 17.5687 54.9655 17.5874 54.759C17.5214 54.6913 17.4764 54.606 17.4576 54.5133C17.4388 54.4207 17.4471 54.3246 17.4814 54.2365C17.4814 54.1835 17.4814 54.138 17.4814 54.085V54.0472C17.5115 53.9985 17.532 53.9445 17.542 53.8881C17.5874 53.6761 17.3451 53.4717 17.542 53.2748C17.3148 53.0779 17.542 52.8886 17.5799 52.7069C17.6177 52.5251 17.4814 52.3434 17.5799 52.1693C17.4209 52.0027 17.6707 51.8361 17.6177 51.6846C17.7237 51.5256 17.6177 51.3741 17.6177 51.2378C17.5682 51.1087 17.5682 50.9657 17.6177 50.8365C17.6177 50.7154 17.6177 50.5942 17.6556 50.4882C18.2462 48.9662 18.3295 48.6027 18.4128 48.6027Z" fill="#5D270D"/>
<path d="M23.7363 49.8758C23.7363 49.7926 23.812 49.7093 23.9937 49.6639H24.0922C24.13 49.6639 24.1679 49.6639 24.1982 49.6639C24.2285 49.6639 24.3572 49.4973 24.3269 49.6639C24.2966 49.8304 24.4026 49.7093 24.4632 49.7017C24.5237 49.6941 24.5086 49.8077 24.607 49.7547C24.7054 49.7017 24.6827 49.7547 24.6676 49.8077C24.6524 49.8607 24.6676 49.9213 24.7584 49.8077C24.8493 49.6942 24.872 49.8607 24.9023 49.9137C24.9326 49.9667 24.978 50.0121 25.0462 50.0575C24.9174 50.2241 25.0461 50.2241 25.1748 50.2241C24.9629 50.4134 25.0083 50.4285 25.2809 50.4285C25.2809 50.5042 25.2278 50.5951 25.3566 50.6557C25.4853 50.7163 25.4474 50.8147 25.402 50.9055C25.5837 50.9888 25.5762 51.1024 25.402 51.163C25.5837 51.2841 25.4853 51.3825 25.3566 51.4431C25.2278 51.5037 25.3187 51.5264 25.3566 51.5869C25.3944 51.6475 25.3566 51.7005 25.2884 51.7081C25.2203 51.7156 25.2279 51.9049 25.137 51.9731C25.079 51.9815 25.0227 51.9994 24.9705 52.0261C24.9705 52.0261 24.9175 52.1018 24.9705 52.2078C25.0235 52.3138 24.872 52.4349 24.7282 52.4046C24.7282 52.6394 24.5767 52.6166 24.4405 52.556C24.342 52.6317 24.2058 52.556 24.1225 52.6545C24.0664 52.6553 24.0115 52.671 23.9635 52.6999C23.9368 52.7145 23.9068 52.7221 23.8764 52.7221C23.846 52.7221 23.8161 52.7145 23.7894 52.6999C23.6758 52.6317 23.5849 52.5712 23.4562 52.6999C23.4337 52.7212 23.4039 52.7331 23.3729 52.7331C23.3419 52.7331 23.3121 52.7212 23.2896 52.6999C23.2366 52.662 23.1988 52.609 23.1382 52.6166C23.0776 52.6242 23.0776 52.4955 23.0171 52.5031C22.9565 52.5106 22.8808 52.503 22.8581 52.4652C22.8354 52.4273 22.7521 52.2532 22.6082 52.2684C22.4644 52.2835 22.4038 52.1624 22.4114 52.0337C22.26 52.0791 22.2448 52.0336 22.26 51.9503C22.2751 51.8671 22.313 51.7989 22.26 51.7686C22.2753 51.7478 22.2836 51.7226 22.2836 51.6967C22.2836 51.6708 22.2753 51.6456 22.26 51.6248C22.26 51.5869 22.1843 51.5491 22.1843 51.5037C22.1843 51.4582 22.1843 51.4052 22.1843 51.3598C22.1843 51.3144 22.1843 51.2614 22.1843 51.2235C22.1843 51.1857 22.0707 51.0494 22.1843 50.9661C22.1161 50.9207 22.1843 50.8753 22.1843 50.8374C22.1843 50.7995 22.2751 50.7617 22.2297 50.7162C22.2342 50.6351 22.2603 50.5567 22.3054 50.4891C22.5552 50.4891 22.3963 50.368 22.419 50.2847C22.4417 50.2014 22.3735 50.0954 22.5401 50.1181C22.7067 50.1408 22.7142 50.1181 22.6839 49.9743C22.6537 49.8304 22.7748 49.9743 22.8278 49.9743C22.8808 49.9743 22.9187 49.9743 22.8278 49.8532C22.7369 49.732 22.896 49.8532 22.9414 49.8532C22.9868 49.8532 23.0171 49.8531 22.9414 49.7698C22.8657 49.6866 23.0473 49.7698 23.0852 49.7168L23.2215 49.679C23.3742 49.6507 23.5317 49.6664 23.6758 49.7244C23.7742 49.7774 23.812 49.838 23.812 49.8986C23.812 49.9591 23.6076 50.156 23.4638 50.368C23.4638 50.368 23.5243 50.5421 23.4638 50.4361C23.4638 50.4361 23.4638 50.5573 23.4259 50.5043C23.5546 50.6784 23.4259 50.5648 23.4259 50.58C23.4259 50.5951 23.3426 50.58 23.4259 50.6557C23.5092 50.7314 23.3426 50.6557 23.4259 50.7314C23.2896 50.7314 23.3123 50.7314 23.4259 50.8071C23.2972 50.8071 23.4259 50.8677 23.4259 50.8904C23.2215 50.8904 23.3578 50.9434 23.4259 50.9661C23.494 50.9888 23.388 51.0191 23.4259 51.0418C23.4638 51.0645 23.4865 51.0418 23.4259 51.11C23.5243 51.11 23.5546 51.11 23.4638 51.1705C23.5395 51.1705 23.4638 51.1705 23.5168 51.2235C23.5698 51.2765 23.5622 51.2235 23.5622 51.2235C23.5622 51.2235 23.5622 51.2689 23.5622 51.2992C23.5622 51.3295 23.5622 51.3522 23.6379 51.2614C23.7136 51.1705 23.6379 51.322 23.706 51.2614C23.7742 51.2008 23.7061 51.3295 23.7742 51.2614C23.7742 51.375 23.7742 51.3976 23.7742 51.3825C23.7947 51.347 23.8099 51.3088 23.8196 51.269C23.8196 51.2084 23.865 51.269 23.8953 51.269C23.9256 51.269 23.9408 51.269 23.9635 51.269C23.9862 51.269 24.0543 51.3295 24.0316 51.269C24.0286 51.2489 24.0286 51.2285 24.0316 51.2084C24.0316 51.2084 24.0316 51.2084 24.1073 51.2084C24.183 51.2084 24.1679 51.2084 24.1906 51.2084C24.2133 51.2084 24.236 51.2084 24.1906 51.1402C24.1594 51.1106 24.1265 51.0828 24.0922 51.0569C24.0922 51.0569 24.0922 51.0569 24.2284 51.0569C24.2284 51.0569 24.2285 51.0569 24.2663 51.0569C24.3042 51.0569 24.3269 51.0569 24.2663 51.0569C24.3799 51.0569 24.3799 51.0569 24.3572 51.0569C24.3345 51.0569 24.2815 51.0569 24.289 51.0115C24.2966 50.9661 24.4026 50.9434 24.289 50.9358C24.1755 50.9283 24.3345 50.8752 24.289 50.8525C24.289 50.8525 24.3496 50.7995 24.289 50.8147C24.2285 50.8298 24.2512 50.8147 24.289 50.739C24.1528 50.8147 24.1527 50.8071 24.1754 50.7768C24.2077 50.7425 24.2357 50.7043 24.2588 50.6632C24.2588 50.6632 24.2588 50.6632 24.1982 50.6632C24.1376 50.6632 24.1603 50.6632 24.1982 50.58C24.0316 50.739 24.1528 50.58 24.1982 50.5118C24.2436 50.4437 24.1073 50.5724 24.1528 50.4437C24.0619 50.5724 24.1528 50.3528 24.1073 50.3907C24.1073 50.2771 24.0695 50.3907 24.0619 50.3301C24.0543 50.2696 24.0165 50.3301 24.0165 50.2771L23.9711 50.2317C23.8121 50.0424 23.7363 49.9667 23.7363 49.8758Z" fill="#5D270D"/>
<path d="M23.7363 56.0514C23.7363 55.9681 23.812 55.8773 23.9937 55.8318H24.0922C24.13 55.8318 24.1679 55.8318 24.1982 55.8318C24.2285 55.8318 24.3572 55.6653 24.3269 55.8318C24.3269 55.8924 24.4026 55.8697 24.4632 55.8318C24.5237 55.794 24.5086 55.9454 24.607 55.8924C24.7054 55.8394 24.6827 55.8924 24.6676 55.9454C24.6524 55.9984 24.6676 56.0514 24.7584 55.9454C24.8493 55.8394 24.872 55.9984 24.9023 56.0514C24.9326 56.1044 24.978 56.1499 25.0462 56.1877C24.9174 56.3543 25.0461 56.3543 25.1748 56.3618C24.9629 56.5435 25.0083 56.5663 25.2809 56.5587C25.2809 56.6344 25.2278 56.7328 25.3566 56.7858C25.4853 56.8388 25.4474 56.9524 25.402 57.0357C25.5837 57.119 25.5762 57.2325 25.402 57.3007C25.5837 57.4218 25.4853 57.5202 25.3566 57.5732C25.2278 57.6262 25.3187 57.6565 25.3566 57.7171C25.3944 57.7776 25.3566 57.8382 25.2884 57.8458C25.2203 57.8533 25.2279 58.0426 25.137 58.1032C25.0798 58.1152 25.024 58.1329 24.9705 58.1562C24.9705 58.1562 24.9175 58.2395 24.9705 58.3379C25.0235 58.4363 24.872 58.565 24.7282 58.5348C24.7282 58.7695 24.5767 58.7543 24.4405 58.6938C24.342 58.7619 24.2058 58.6483 24.1225 58.7846C24.0695 58.7846 24.0165 58.7846 23.9635 58.8301C23.9368 58.8446 23.9068 58.8522 23.8764 58.8522C23.846 58.8522 23.8161 58.8446 23.7894 58.8301C23.6758 58.7619 23.5849 58.6937 23.4562 58.7922C23.4456 58.8036 23.4327 58.8128 23.4184 58.8191C23.404 58.8253 23.3885 58.8285 23.3729 58.8285C23.3573 58.8285 23.3418 58.8253 23.3275 58.8191C23.3131 58.8128 23.3003 58.8036 23.2896 58.7922C23.2366 58.7922 23.1988 58.7013 23.1382 58.7089C23.1382 58.5953 23.0776 58.5878 23.0171 58.5953C22.9565 58.6029 22.8808 58.5953 22.8581 58.5499C22.8354 58.5045 22.7521 58.3455 22.6082 58.3531C22.4644 58.3606 22.4038 58.2546 22.4114 58.1184C22.26 58.1714 22.2448 58.1183 22.26 58.0426C22.2751 57.9669 22.313 57.8912 22.26 57.8609C22.276 57.8389 22.2846 57.8124 22.2846 57.7852C22.2846 57.758 22.276 57.7315 22.26 57.7095C22.2388 57.6966 22.2209 57.6789 22.2077 57.6579C22.1946 57.6369 22.1866 57.6131 22.1843 57.5884C22.1464 57.5505 22.1843 57.4975 22.1843 57.4445C22.1843 57.3915 22.1843 57.3537 22.1843 57.3158C22.1843 57.278 22.0707 57.1416 22.1843 57.0508C22.1161 57.0054 22.1843 56.96 22.1843 56.9221C22.1843 56.8842 22.2751 56.854 22.2297 56.801C22.2364 56.7203 22.2624 56.6424 22.3054 56.5738C22.5552 56.5738 22.3963 56.4527 22.419 56.377C22.4417 56.3013 22.3735 56.1801 22.5401 56.2028C22.7067 56.2255 22.7142 56.2028 22.6839 56.0665C22.6537 55.9303 22.7748 56.0665 22.8278 56.0665C22.8808 56.0665 22.9187 56.0666 22.8278 55.9454C22.7369 55.8243 22.896 55.9454 22.9414 55.9454C22.9868 55.9454 23.0171 55.9454 22.9414 55.8621C22.8657 55.7788 23.0473 55.8167 23.0852 55.8016H23.2215C23.374 55.7696 23.5326 55.7855 23.6758 55.847C23.7742 55.8924 23.812 55.953 23.812 56.0211C23.812 56.0893 23.6076 56.2785 23.4638 56.4905C23.4638 56.4905 23.5243 56.6571 23.4638 56.5587C23.4638 56.5587 23.4638 56.6798 23.4259 56.6268C23.5546 56.8009 23.4259 56.6798 23.4259 56.695C23.4259 56.7101 23.3426 56.695 23.4259 56.7707C23.5092 56.8464 23.3426 56.7707 23.4259 56.8539C23.2896 56.8161 23.3123 56.854 23.4259 56.9297C23.2972 56.9297 23.4259 56.9902 23.4259 57.0054C23.2215 57.0054 23.3578 57.0584 23.4259 57.0811C23.494 57.1038 23.388 57.1417 23.4259 57.1568C23.4638 57.1719 23.4865 57.1568 23.4259 57.225C23.5243 57.225 23.5546 57.2249 23.4638 57.2855C23.5395 57.2855 23.4638 57.3234 23.5168 57.3461C23.5698 57.3688 23.5622 57.3461 23.5622 57.3461C23.5622 57.3461 23.5622 57.3839 23.5622 57.4218C23.5622 57.4596 23.5622 57.4748 23.6379 57.4218C23.7136 57.3688 23.6379 57.4748 23.706 57.4218C23.7742 57.3688 23.7061 57.4899 23.7742 57.4218C23.7742 57.5278 23.7742 57.5581 23.7742 57.5429C23.792 57.5062 23.8071 57.4682 23.8196 57.4294C23.8196 57.3612 23.865 57.4294 23.8953 57.4294C23.9256 57.4294 23.9408 57.4294 23.9635 57.4294C23.9862 57.4294 24.0543 57.4899 24.0316 57.4294C24.028 57.4068 24.028 57.3838 24.0316 57.3612C24.0316 57.3612 24.0316 57.3612 24.1073 57.3612C24.183 57.3612 24.1679 57.3612 24.1906 57.3612C24.2133 57.3612 24.236 57.3612 24.1906 57.2931L24.0922 57.2174C24.0922 57.2174 24.0922 57.2174 24.2284 57.2174C24.2284 57.2174 24.2285 57.2174 24.2663 57.2174C24.3042 57.2174 24.3269 57.2174 24.2663 57.2174C24.3799 57.2174 24.3799 57.2174 24.3572 57.2174C24.3345 57.2174 24.2815 57.2174 24.289 57.172C24.2966 57.1265 24.4026 57.1114 24.289 57.0962C24.1755 57.0811 24.3345 57.0357 24.289 57.0205C24.2285 57.0811 24.2512 56.9827 24.289 56.9373C24.1528 57.013 24.1527 57.013 24.1754 56.9373C24.1982 56.8615 24.2588 56.8464 24.2588 56.8237C24.2588 56.801 24.2588 56.8237 24.1982 56.8237C24.1376 56.8237 24.1603 56.8237 24.1982 56.7404C24.0316 56.8918 24.1528 56.7404 24.1982 56.6722C24.2436 56.6041 24.1073 56.7253 24.1528 56.6041C24.0619 56.7328 24.1528 56.5057 24.1073 56.5435C24.1073 56.4375 24.0695 56.5435 24.0619 56.4905C24.0543 56.4375 24.0165 56.4905 24.0165 56.4375L23.9711 56.3845C23.8121 56.2104 23.7363 56.165 23.7363 56.0514Z" fill="#5D270D"/>
<path d="M18.4359 59.4623C18.3526 59.4623 18.2693 59.1064 18.1936 58.4552C18.1936 58.3416 18.1936 58.228 18.1936 58.0993C18.1579 57.9713 18.145 57.838 18.1557 57.7056C18.2617 57.5617 17.9437 57.4178 18.1557 57.2588C18.1841 57.0941 18.1711 56.925 18.1178 56.7666C18.1178 56.6 18.186 56.4183 18.1178 56.2365C18.0497 56.0548 18.3601 55.8579 18.1178 55.6611C18.0797 55.4584 18.0797 55.2504 18.1178 55.0477C18.1545 55.0018 18.178 54.9468 18.186 54.8887V54.8054C18.1896 54.7625 18.1896 54.7195 18.186 54.6767C18.186 54.5176 18.1103 54.3283 18.0951 54.139C18.1469 54.0707 18.1837 53.9922 18.2033 53.9088C18.2228 53.8253 18.2247 53.7386 18.2087 53.6544C18.3468 53.6319 18.48 53.5858 18.6024 53.5181C18.7875 53.6323 18.9986 53.6974 19.2158 53.7074C19.2953 53.704 19.3731 53.6833 19.4437 53.6467C19.5144 53.61 19.5762 53.5584 19.6247 53.4953C19.8746 53.4953 20.1245 53.5938 20.382 53.4953C20.6336 53.4667 20.8876 53.4667 21.1392 53.4953C21.2578 53.4119 21.3993 53.3672 21.5443 53.3672C21.6893 53.3672 21.8308 53.4119 21.9494 53.4953C22.0783 53.4209 22.2246 53.3817 22.3735 53.3817C22.5223 53.3817 22.6686 53.4209 22.7975 53.4953C23.0777 53.6014 23.3654 53.3212 23.6607 53.4953C23.9485 53.4953 24.2514 53.4499 24.5467 53.4953C24.6905 53.5608 24.8467 53.5948 25.0048 53.5948C25.1629 53.5948 25.3191 53.5608 25.4629 53.4953C25.7688 53.4197 26.0885 53.4197 26.3943 53.4953C26.5412 53.4171 26.705 53.3762 26.8713 53.3762C27.0377 53.3762 27.2016 53.4171 27.3484 53.4953C27.6664 53.4953 27.9921 53.6089 28.3177 53.4953H28.56H29.0143C29.3164 53.4645 29.6209 53.4645 29.923 53.4953H30.0214C30.0214 53.8058 29.9684 54.1012 29.9608 54.3738C29.9608 54.5101 29.9608 54.6388 29.9608 54.7751V54.8811C29.9608 54.8811 29.9608 54.9492 29.9608 54.9644C29.9576 55.0022 29.9576 55.0402 29.9608 55.078C30.0896 55.4036 29.9003 55.7292 29.9608 56.0472C29.7715 56.3728 30.029 56.6833 29.9608 57.0013C29.923 57.3106 29.923 57.6234 29.9608 57.9327C29.9608 58.0917 29.9987 58.2432 30.0063 58.3946C30.0138 58.4702 30.0138 58.5462 30.0063 58.6218C30.01 58.6596 30.01 58.6976 30.0063 58.7354V58.7884V58.8565C30.0637 58.9931 30.092 59.1401 30.0896 59.2881C30.1018 59.4233 30.0699 59.5588 29.9987 59.6743C29.9304 59.7778 29.849 59.872 29.7564 59.9545L29.6201 60.0681H29.5292C29.2885 60.048 29.0462 60.0633 28.8099 60.1135L28.6433 60.1514H28.5297H28.3177C28.0299 60.2044 27.7573 60.0075 27.4772 60.1514C27.2046 60.1514 26.932 60.2498 26.6669 60.1514C26.4019 60.3028 26.1369 60.0227 25.9097 60.1514C25.6575 60.1671 25.4046 60.1671 25.1525 60.1514C24.9102 59.9167 24.6678 60.106 24.3952 60.1514C24.1226 60.1968 23.9257 60.2877 23.7061 60.1514C23.4865 60.1514 23.267 60.0227 23.0549 60.1514C22.8429 60.2801 22.646 59.8106 22.4416 60.1514C22.2447 60.2044 22.0554 59.9091 21.8737 60.1135C21.6919 60.318 21.5102 60.1135 21.336 60.1135L20.8514 60.0756C19.4506 59.9696 18.6403 59.8485 18.6403 59.7274C18.6403 59.6062 19.6398 59.4548 21.3436 59.3563C21.5102 59.3563 21.6919 59.1822 21.8737 59.3563C22.063 59.3563 22.2523 59.2276 22.4492 59.3563C22.646 59.1367 22.8505 59.3563 23.0625 59.3563C23.278 59.3936 23.4983 59.3936 23.7137 59.3563C23.9333 59.2352 24.1605 59.4245 24.3952 59.3563C24.5104 59.4228 24.6409 59.4578 24.7739 59.4578C24.9068 59.4578 25.0374 59.4228 25.1525 59.3563C25.4024 59.485 25.6522 59.3563 25.9097 59.3563C26.1596 59.5608 26.4246 59.4245 26.6669 59.3563C26.9393 59.341 27.2124 59.341 27.4847 59.3563C27.7573 59.3563 28.0375 59.3033 28.3252 59.3563L28.5372 59.2957H28.6433C28.6433 59.2957 28.6433 59.2957 28.7266 59.3639C28.7266 59.2881 28.7266 59.2881 28.7266 59.2351C28.7266 59.1821 28.7266 59.2351 28.7266 59.1897V59.1367C28.7228 59.0989 28.7228 59.0609 28.7266 59.0231C28.7266 58.9474 28.7266 58.8717 28.7266 58.7959C28.7418 58.6423 28.7418 58.4876 28.7266 58.334C28.7266 58.0311 28.9462 57.7131 28.7266 57.4027C28.7266 57.0846 28.7266 56.7742 28.7266 56.4485C28.7681 56.1268 28.7681 55.8011 28.7266 55.4793C28.7497 55.4431 28.7699 55.4051 28.7871 55.3657C28.7933 55.3568 28.7967 55.3463 28.7967 55.3354C28.7967 55.3246 28.7933 55.314 28.7871 55.3051C28.7871 55.2673 28.7341 55.2597 28.6887 55.3051H28.6206H28.3783C28.0555 55.3241 27.7318 55.3241 27.409 55.3051C27.091 55.3733 26.7729 55.2143 26.4549 55.3051C26.1368 55.396 25.8264 55.1991 25.5235 55.3051C25.2238 55.3884 24.907 55.3884 24.6072 55.3051C24.3119 55.3051 24.009 55.1083 23.7213 55.3051C23.426 55.3506 23.1382 55.6004 22.8581 55.3051C22.5703 55.3809 22.2901 55.1613 22.01 55.3051C21.7374 55.0855 21.4648 55.3051 21.1997 55.3051C20.9518 55.2375 20.6904 55.2375 20.4425 55.3051C20.185 55.4111 19.9352 55.2446 19.6853 55.3051C19.5793 55.3657 19.4051 55.3051 19.4051 55.3051C19.4051 55.3051 19.284 55.2218 19.284 55.3051C19.2495 55.2941 19.2124 55.2941 19.1779 55.3051C19.1779 55.3506 19.1779 55.3884 19.1779 55.4112C19.3294 55.5323 19.3294 55.5247 19.2915 55.5474H19.2536V55.5929C19.2292 55.6434 19.2114 55.6968 19.2007 55.7519C19.1553 55.9639 19.4051 56.1608 19.2007 56.3653C19.4279 56.5621 19.2007 56.7515 19.2007 56.9332C19.2007 57.1149 19.2991 57.2966 19.2007 57.4708C19.3597 57.6374 19.1174 57.804 19.2007 57.9554C19.0947 58.1144 19.2007 58.2659 19.2007 58.4022C19.2383 58.536 19.2248 58.6791 19.1628 58.8035C19.1628 58.9247 19.1628 59.0458 19.1628 59.1519C18.5949 59.1064 18.5192 59.4623 18.4359 59.4623Z" fill="#5D270D"/>
<path d="M33.3611 21.9395C33.3005 21.8789 33.3157 21.7502 33.399 21.5609L33.4444 21.4624C33.4466 21.4415 33.4531 21.4213 33.4635 21.4031C33.4739 21.3848 33.488 21.3689 33.5049 21.3564C33.6109 21.4019 33.4141 21.152 33.5655 21.2428C33.717 21.3337 33.6337 21.1747 33.6488 21.1141C33.6639 21.0535 33.77 21.1141 33.7321 20.9854C33.6943 20.8567 33.982 21.0762 33.8305 20.8491C33.8305 20.7658 33.8835 20.7355 33.9366 20.6977C34.0956 20.7734 34.0199 20.6144 34.0502 20.5462C34.2319 20.6446 34.2167 20.5462 34.1713 20.3872C34.4136 20.531 34.4288 20.4553 34.3001 20.2206C34.3455 20.1676 34.4742 20.2206 34.4363 20.054C34.3985 19.8874 34.4969 19.9026 34.5878 19.8798C34.512 19.6981 34.5878 19.6451 34.7392 19.6981C34.6559 19.5012 34.7392 19.5012 34.8982 19.5164C35.0573 19.5315 34.8982 19.2741 35.0648 19.3271C35.2314 19.3801 35.1557 19.1756 35.239 19.1378C35.3223 19.0999 35.4813 19.1378 35.4207 18.9409C35.3602 18.744 35.4662 18.7364 35.6025 18.744C35.5192 18.532 35.6555 18.532 35.7993 18.5471C35.9432 18.5623 36.0114 18.4941 35.9962 18.3427C35.9811 18.1912 36.0644 18.1458 36.1931 18.1382C36.3218 18.1307 36.4203 18.0928 36.3975 17.9413C36.3748 17.7899 36.5717 17.8429 36.602 17.7445C36.7989 17.8126 36.6853 17.5703 36.7989 17.5552C36.9125 17.54 37.0033 17.5021 36.9958 17.3658C36.9882 17.2295 37.0715 17.1917 37.1926 17.1917C37.0412 16.9115 37.3668 17.1159 37.3819 17.0175C37.5334 17.0175 37.4879 16.8812 37.5712 16.8509C37.6545 16.8207 37.7833 16.8509 37.753 16.6843C37.7227 16.5177 37.7984 16.5102 37.9347 16.5329C37.8817 16.3739 38.1316 16.5329 38.1089 16.389C38.1544 16.3295 38.2143 16.2826 38.283 16.2527C38.495 16.3663 38.4118 16.177 38.4421 16.1164C38.4723 16.0558 38.4421 15.9271 38.6011 15.9953C38.7601 16.0634 38.7828 15.9953 38.7601 15.8817C38.7374 15.7681 39.0857 16.0407 38.904 15.7757C38.904 15.7 39.1538 15.8666 39.0402 15.6848C38.9267 15.5031 39.1311 15.6242 39.1765 15.5939L39.2977 15.5182C39.6612 15.3062 39.9035 15.2229 39.9944 15.3137C40.0852 15.4046 39.9944 15.7075 39.7142 16.1316C39.7142 16.177 39.7672 16.3284 39.6233 16.2603C39.6233 16.3057 39.6233 16.4269 39.5249 16.4042C39.6385 16.601 39.4719 16.5102 39.4189 16.548C39.3659 16.5859 39.2902 16.5935 39.3053 16.6995C39.3204 16.8055 39.169 16.7525 39.1841 16.8585C39.0402 16.8131 39.0175 16.8585 39.0554 17.0251C38.9115 17.0251 38.9721 17.1463 38.9191 17.1993C38.7222 17.1084 38.7677 17.2598 38.7677 17.3734C38.7677 17.487 38.6389 17.4643 38.6162 17.5552C38.5935 17.646 38.5405 17.699 38.4572 17.7369C38.3739 17.7747 38.4572 17.9413 38.2906 17.9262C38.2906 18.0322 38.177 18.0549 38.1165 18.1155C38.0559 18.1761 37.9877 18.2291 37.9347 18.3124C37.8817 18.3957 37.6621 18.3124 37.753 18.5093C37.7076 18.5926 37.594 18.6077 37.5561 18.7062C37.5183 18.8046 37.3895 18.797 37.3668 18.9106C37.1396 18.8197 37.1699 18.9787 37.1623 19.1075C37.1548 19.2362 37.0487 19.2665 36.9579 19.3119C36.9041 19.3884 36.8375 19.455 36.761 19.5088C36.761 19.6148 36.5566 19.5694 36.5566 19.6981C36.5566 19.8268 36.3597 19.7587 36.3597 19.8798C36.3597 20.001 36.3067 20.0767 36.1628 20.0616C36.0189 20.0464 35.9053 20.0616 35.9735 20.2357C36.0416 20.4099 36.0568 20.5613 35.7842 20.4023C35.7842 20.5159 35.5646 20.4023 35.6025 20.5613C35.3904 20.4629 35.4813 20.6673 35.4207 20.7128C35.3602 20.7582 35.2314 20.7128 35.2466 20.8642C35.2617 21.0157 35.1027 20.9248 35.0724 21.0005C35.0421 21.0762 34.8604 21.0005 34.9134 21.1292C34.8453 21.1292 34.8301 21.2428 34.7544 21.2504C34.921 21.5079 34.6559 21.3413 34.5953 21.364C34.5348 21.3867 34.6559 21.5912 34.4515 21.47C34.5726 21.6745 34.3909 21.576 34.3152 21.5684C34.2394 21.5609 34.3152 21.7123 34.1789 21.6517C34.2622 21.8032 34.0502 21.6518 34.0577 21.7275C34.0653 21.8032 33.9896 21.788 33.9441 21.7956C33.8987 21.8032 33.8987 21.8713 33.8381 21.8562L33.7397 21.9016C33.5504 21.9849 33.4216 22.0001 33.3611 21.9395Z" fill="#5D270D"/>
<path d="M32.8689 26.5567C32.8083 26.5037 32.8234 26.3674 32.9067 26.1856L32.9522 26.0872C32.9522 26.0418 32.9522 26.0039 33.0128 25.9812C33.0733 25.9585 32.9219 25.7767 33.0809 25.86C33.2399 25.9433 33.1491 25.7994 33.1566 25.7389C33.1642 25.6783 33.2778 25.7389 33.2399 25.6101C33.2021 25.4814 33.4898 25.701 33.3384 25.4663C33.3384 25.383 33.3914 25.3527 33.4444 25.3224C33.4974 25.2921 33.5352 25.2391 33.5579 25.1709C33.7397 25.2618 33.7321 25.1709 33.6791 25.0119C33.9214 25.1558 33.9441 25.0725 33.8078 24.8453C33.8533 24.7923 33.982 24.8453 33.9517 24.6787C33.9214 24.5121 34.0047 24.5197 34.0956 24.497C34.0199 24.3153 34.0956 24.2698 34.247 24.3228C34.1637 24.126 34.247 24.1184 34.406 24.1335C34.565 24.1487 34.4061 23.8988 34.5726 23.9442C34.7392 23.9897 34.6635 23.7928 34.7468 23.7549C34.8301 23.7171 34.9967 23.7549 34.9285 23.558C34.8604 23.3612 34.9739 23.3536 35.1178 23.3612C35.0345 23.1491 35.1633 23.1491 35.3071 23.1643C35.451 23.1794 35.5192 23.1113 35.504 22.9598C35.5949 22.9598 35.5722 22.763 35.7009 22.763C35.8296 22.763 35.9281 22.7099 35.9054 22.5585C35.8826 22.4071 36.0795 22.4676 36.1098 22.3616C36.3142 22.4373 36.1931 22.1874 36.3067 22.1723C36.4203 22.1572 36.5187 22.1269 36.5036 21.983C36.4884 21.8391 36.5793 21.8089 36.7004 21.8089C36.549 21.5287 36.8746 21.7407 36.8898 21.6347C37.0412 21.6347 36.9958 21.4984 37.0791 21.4681C37.1624 21.4378 37.2911 21.4681 37.2608 21.3091C37.2305 21.1501 37.3062 21.1274 37.4425 21.1501C37.3971 20.991 37.6394 21.1501 37.6167 21.0062C37.6621 20.9466 37.7221 20.8997 37.7909 20.8699C38.0029 20.9835 37.9196 20.7942 37.9574 20.7412C37.9953 20.6882 37.9574 20.5518 38.1165 20.6124C38.2755 20.673 38.2906 20.6124 38.2679 20.4989C38.2452 20.3853 38.5935 20.6579 38.4118 20.3928C38.4118 20.3171 38.6617 20.4837 38.5557 20.302C38.4496 20.1202 38.6465 20.2414 38.6844 20.2111L38.8055 20.1354C39.169 19.9233 39.4189 19.8401 39.5022 19.9309C39.5855 20.0218 39.5022 20.3247 39.222 20.7487C39.222 20.7941 39.275 20.9456 39.1311 20.8851C38.9872 20.8245 39.1311 21.0441 39.0402 21.0214C39.1538 21.2182 38.9797 21.1349 38.9343 21.1652C38.8888 21.1955 38.8055 21.2106 38.8207 21.3166C38.8358 21.4226 38.6844 21.3697 38.692 21.4757C38.5557 21.4302 38.5253 21.4757 38.5632 21.6423C38.4193 21.6423 38.4799 21.7634 38.4269 21.8164C38.23 21.7256 38.2754 21.877 38.283 21.9906C38.2906 22.1042 38.1467 22.0814 38.124 22.1723C38.1013 22.2632 38.0483 22.3162 37.965 22.3541C37.8817 22.3919 37.965 22.5661 37.7984 22.5434C37.7984 22.6494 37.6848 22.6721 37.6242 22.7327C37.5637 22.7933 37.4955 22.8538 37.4425 22.9295C37.3895 23.0053 37.1699 22.9295 37.2608 23.1264C37.2154 23.2097 37.1093 23.2324 37.0715 23.3233C37.0336 23.4142 36.8973 23.4142 36.8746 23.5278C36.655 23.4369 36.6777 23.6035 36.6701 23.7322C36.6626 23.8609 36.5566 23.8836 36.4657 23.9291C36.416 24.0089 36.3487 24.0763 36.2688 24.126C36.2688 24.2395 36.0719 24.1941 36.0644 24.3153C36.0568 24.4364 35.8675 24.3758 35.8675 24.5046C35.8675 24.6333 35.8145 24.6939 35.6782 24.6863C35.5419 24.6787 35.4132 24.6863 35.4813 24.8529C35.5495 25.0195 35.5722 25.1785 35.292 25.0195C35.292 25.1331 35.0724 25.0195 35.1102 25.1861C34.8982 25.0801 34.9891 25.2845 34.9285 25.3376C34.8679 25.3906 34.7392 25.3375 34.7544 25.4814C34.7695 25.6253 34.6105 25.542 34.5878 25.6177C34.565 25.6934 34.3682 25.6177 34.4212 25.754C34.353 25.754 34.3379 25.86 34.2622 25.8752C34.4287 26.1326 34.1713 25.966 34.1107 25.9888C34.0502 26.0115 34.1637 26.2159 33.9593 26.0948C34.0804 26.2917 33.9063 26.1932 33.823 26.1856C33.7397 26.1781 33.823 26.3295 33.6942 26.2765C33.77 26.4204 33.5579 26.2765 33.5655 26.3522C33.4595 26.3068 33.4973 26.4128 33.4519 26.4204C33.4065 26.4279 33.4519 26.4885 33.3459 26.4734L33.2475 26.5188C33.0582 26.64 32.9295 26.64 32.8689 26.5567Z" fill="#5D270D"/>
</svg>
