<svg width="72" height="72" viewBox="0 0 72 72" fill="none" xmlns="http://www.w3.org/2000/svg">
<path d="M6.50581 20.9392C6.60862 21.4083 6.65428 21.888 6.64186 22.368C6.69288 23.312 6.73544 24.7068 6.77796 26.5013C6.77796 27.1051 6.77796 27.7429 6.77796 28.4318C6.77796 29.1207 6.82898 29.8521 6.82047 30.626C6.81197 31.3999 7.0501 32.2164 6.82047 33.0753C6.76996 33.9733 6.76996 34.8733 6.82047 35.7713C6.82047 36.7068 6.74393 37.6763 6.82047 38.6969C7.06711 39.7089 6.55683 40.755 6.82047 41.8436C6.88851 42.9322 6.8715 44.0548 6.82047 45.2455C6.71023 46.4336 6.71023 47.6293 6.82047 48.8174C6.75991 49.1577 6.72014 49.5013 6.70139 49.8465V50.0591C6.70139 50.1101 6.70139 50.1526 6.70139 50.2036C6.69685 50.2915 6.69685 50.3795 6.70139 50.4673C6.84718 50.4575 6.99212 50.4377 7.13514 50.4078H7.6114H7.82401L8.24924 50.3568C9.55305 50.6586 10.9086 50.6586 12.2124 50.3568C13.5561 50.3568 14.9424 50.4673 16.3457 50.3568C17.7489 50.2462 19.1947 50.2802 20.6575 50.3568C22.1397 50.1653 23.6403 50.1653 25.1224 50.3568C26.6573 50.1908 28.2056 50.1908 29.7405 50.3568C31.3053 50.4758 32.8871 50.1611 34.503 50.3568C36.1104 50.3568 37.7433 50.3057 39.3932 50.3568C41.0625 50.5056 42.7417 50.5056 44.4109 50.3568C46.1107 50.2683 47.8139 50.2683 49.5137 50.3568C51.2524 50.1739 53.0054 50.1739 54.744 50.3568C56.5045 50.3142 58.282 50.4843 60.0764 50.3568C60.9694 50.3568 61.8709 50.3568 62.7724 50.3568H64.5924H64.6945C64.6966 50.3256 64.6966 50.2943 64.6945 50.2632V49.7529C64.6945 49.3022 64.6945 48.8514 64.6945 48.4007C64.6945 47.4992 64.6945 46.5977 64.6179 45.7047C64.4649 43.9102 64.6775 42.1328 64.6179 40.3723C64.8391 38.6118 64.5499 36.8684 64.6179 35.142C64.686 33.4155 64.7455 31.6976 64.6179 30.0392C64.4904 28.3808 64.5329 26.6373 64.6179 25.0215C64.5021 24.3906 64.4621 23.7482 64.4989 23.1079C64.4989 22.7932 64.4989 22.4786 64.5584 22.1639V22.1044C64.5584 22.1044 64.5584 22.0363 64.5584 22.0023H64.4648H64.1842C62.5768 21.8577 60.9864 22.0023 59.4216 22.0023C57.8567 22.0023 56.3174 21.8407 54.8036 22.0023C53.2897 22.0023 51.8014 22.1044 50.3386 22.0023C48.8758 22.1724 47.4385 21.8577 46.0268 22.0023C44.615 22.1469 43.2373 22.0023 41.8935 22.0023C40.5762 21.862 39.2477 21.862 37.9304 22.0023C36.6759 22.0834 35.4174 22.0834 34.1628 22.0023C32.9702 21.9387 31.775 21.9387 30.5824 22.0023C29.4258 22.0448 28.3032 21.6196 27.1806 22.0023C26.1005 22.0618 25.0459 21.7302 24.0338 22.0023C23.062 22.1176 22.08 22.1176 21.1082 22.0023L18.6674 21.2964C14.8148 21.2454 11.7786 21.1859 9.71201 21.1178C8.64797 21.1369 7.58417 21.0686 6.53129 20.9137C7.82497 20.7401 9.12983 20.6634 10.4349 20.6841C12.9863 20.6161 16.6773 20.548 21.3634 20.4885C22.3365 20.3987 23.3158 20.3987 24.289 20.4885C25.301 20.4885 26.3556 20.3439 27.4357 20.4885C28.5659 20.358 29.7073 20.358 30.8375 20.4885C31.9942 20.4885 33.1933 20.548 34.418 20.4885C35.6427 20.4289 36.9013 20.5565 38.1855 20.4885C39.5027 20.6328 40.8316 20.6328 42.1487 20.4885C43.5254 20.5648 44.9052 20.5648 46.2819 20.4885C47.7149 20.6457 49.1608 20.6457 50.5938 20.4885C52.0566 20.4034 53.5449 20.4885 55.0587 20.4885C56.5725 20.4885 58.1118 20.4289 59.6767 20.4885C61.262 20.3693 62.854 20.3693 64.4393 20.4885H65.2898H66.3104C66.3104 21.0583 66.3104 21.6281 66.3104 22.1894C66.3104 22.5041 66.3104 22.8188 66.3104 23.1334C66.3104 23.7713 66.3104 24.4091 66.3104 25.047C66.4039 26.6969 66.3104 28.3723 66.3104 30.0647C66.2093 31.7641 66.2093 33.468 66.3104 35.1675C66.3104 36.8684 66.2678 38.6374 66.3104 40.3978C66.3529 42.1583 66.2423 43.9358 66.3104 45.7302C66.1999 46.6244 66.1572 47.5256 66.1828 48.4262C66.1828 48.8769 66.1828 49.3277 66.2423 49.7784V50.1186V50.6289C66.2423 51.0626 66.2423 51.4794 66.2423 51.9216H64.0991H62.7469L60.0509 51.8791C58.2564 51.8791 56.479 51.8791 54.7185 51.8791C52.9581 51.8791 51.2146 51.7685 49.4882 51.8791C47.7617 51.9896 46.0863 51.7685 44.3854 51.8791C42.7143 51.9769 41.0388 51.9769 39.3677 51.8791C37.7392 51.7771 36.106 51.7771 34.4775 51.8791C32.896 52.0748 31.2964 52.0748 29.7149 51.8791C28.1501 51.9641 26.6107 51.709 25.0969 51.8791C23.611 51.7601 22.1179 51.7601 20.632 51.8791C19.1958 51.7984 17.7563 51.7984 16.3201 51.8791C14.9169 51.9981 13.5306 51.811 12.1869 51.8791C10.8432 51.9471 9.51641 51.692 8.2237 51.8791H5.91047V50.2377C5.91047 49.8975 5.91047 49.5488 5.91047 49.2086C5.57029 47.984 5.91047 46.7933 5.91047 45.6367C5.80598 44.5051 5.80598 43.3664 5.91047 42.2348C5.74779 41.1922 5.74779 40.1307 5.91047 39.0881C5.97851 38.0761 5.79991 37.098 5.91047 36.1625C5.85465 35.2647 5.85465 34.3643 5.91047 33.4665C5.95226 32.6506 5.95226 31.8331 5.91047 31.0172C5.8685 30.2858 5.88271 29.5523 5.95298 28.823C5.95298 28.1342 5.95298 27.4963 5.95298 26.8925C5.95298 25.098 6.03806 23.7032 6.08909 22.7592C6.13141 22.1344 6.27204 21.5202 6.50581 20.9392Z" fill="#5D270D"/>
<path d="M16.7966 20.9288C16.4605 21.2137 16.0888 21.4538 15.691 21.6432C14.9426 22.0684 13.837 22.6722 12.3912 23.4462L10.8348 24.2966C10.2905 24.6028 9.70377 24.926 9.06592 25.2321C8.72563 25.3575 8.40705 25.5354 8.12187 25.7594C7.96655 25.8685 7.8047 25.9679 7.63715 26.0571C7.55178 26.1046 7.46371 26.1472 7.37345 26.1847H7.2374H7.17786H7.12684L6.87171 26.2867V26.5844C6.87171 26.7375 6.87171 26.8905 6.87171 27.0521C6.87171 27.3838 6.8717 27.724 6.91422 28.0642C6.91422 28.9146 6.83768 29.8076 6.91422 30.7346C7.16086 31.6531 6.65058 32.6142 6.91422 33.6007C6.98226 34.5957 6.96525 35.6163 6.91422 36.6709C6.80399 37.7538 6.80399 38.8452 6.91422 39.9281C6.72691 41.0544 6.72691 42.2038 6.91422 43.33C6.82231 43.6987 6.75977 44.0741 6.72715 44.4526C6.72715 44.6397 6.72715 44.8268 6.72715 45.0139V45.1925C6.73133 45.2434 6.73133 45.2946 6.72715 45.3456L6.92274 45.4051H7.00776H7.0673H7.15238C7.36499 45.4732 7.59459 45.5327 7.81571 45.5837C8.91766 46.2125 10.0533 46.7804 11.2176 47.2846C12.3742 47.8459 13.5649 48.3902 14.7385 49.0366C15.1297 49.167 15.5124 49.3116 15.8866 49.4703L16.4564 49.734L16.8391 49.9296H17.0433H17.443L18.2424 50.0146C19.6548 49.8453 21.0823 49.8453 22.4947 50.0146C23.9235 50.1337 25.3693 49.819 26.832 50.0146C28.3033 50.0146 29.7832 49.9636 31.2885 50.0146C32.8101 50.1634 34.3424 50.1634 35.864 50.0146C37.419 49.9253 38.978 49.9253 40.533 50.0146C42.1181 49.8317 43.719 49.8317 45.3041 50.0146C46.903 49.9721 48.5274 50.1422 50.1603 50.0146C51.0107 50.0146 51.7931 50.0146 52.6096 50.0146H54.9058C55.047 49.9709 55.1837 49.914 55.3141 49.8445L55.8754 49.5809L56.998 49.0536C57.7294 48.6879 58.4523 48.3052 59.1496 47.88C60.5444 47.0295 62.0838 46.4682 63.487 45.6943C63.7617 45.6005 64.0314 45.4927 64.295 45.3711L64.6096 45.2265L64.6947 45.1755C64.6993 45.1445 64.6993 45.113 64.6947 45.0819C64.6947 45.0819 64.6947 45.082 64.6947 45.0394V44.8523C64.6947 44.5972 64.6947 44.342 64.6947 44.0869C64.6692 43.5826 64.6692 43.0774 64.6947 42.5731C64.6947 40.9997 64.8222 39.4434 64.6947 37.8955C64.5671 36.3477 64.6096 34.8339 64.6947 33.3285C64.363 31.8232 64.7882 30.3349 64.6947 28.8721C64.6947 28.3959 64.7542 27.9281 64.7542 27.4604C64.7542 27.2222 64.7542 26.9926 64.7542 26.763V26.4823H64.6692L64.4991 26.3973C64.2695 26.2867 64.0483 26.1761 63.8187 26.0486C62.5175 25.4703 61.3694 24.6368 60.0767 24.1436C58.852 23.4972 57.5763 23.0039 56.4452 22.2895C56.1771 22.1937 55.9157 22.08 55.6628 21.9493L55.28 21.7538L55.093 21.6517H54.9739H54.6932H54.1319C53.7667 21.6262 53.4001 21.6262 53.0348 21.6517C51.7506 21.6517 50.4834 21.6517 49.2673 21.6517C48.0665 21.5116 46.8535 21.5116 45.6528 21.6517C44.5202 21.7312 43.3835 21.7312 42.2509 21.6517C41.1661 21.5881 40.0785 21.5881 38.9937 21.6517C37.9391 21.6942 36.9185 21.269 35.932 21.6517C34.937 21.7112 33.9844 21.3796 33.0574 21.6517C32.1739 21.7669 31.2791 21.7669 30.3955 21.6517L27.8526 21.2945C24.3402 21.2435 21.5762 21.1839 19.6967 21.1159C18.7259 21.1345 17.7553 21.0662 16.7966 20.9118C17.9733 20.7386 19.1623 20.6618 20.3515 20.6822C22.6648 20.6141 26.0411 20.5461 30.3105 20.4865C31.1955 20.3968 32.0874 20.3968 32.9724 20.4865C33.9299 20.435 34.8895 20.435 35.847 20.4865C36.8635 20.3587 37.8921 20.3587 38.9086 20.4865C39.9632 20.4865 41.0518 20.5461 42.1659 20.4865C43.28 20.427 44.4281 20.5546 45.5678 20.4865C46.7683 20.6308 47.9817 20.6308 49.1822 20.4865C50.4369 20.5629 51.6951 20.5629 52.9498 20.4865C53.3119 20.5528 53.6788 20.5898 54.0469 20.5971H54.6082H55.2971L55.6117 20.7417L55.8073 20.8182L56.1986 20.9883L56.998 21.32C58.2227 21.8388 59.3793 22.5532 60.6379 23.1315C61.8966 23.7098 63.1894 24.3306 64.4055 25.011L65.1114 25.3087L65.2815 25.3852L65.5876 25.5213L66.251 25.8445C66.251 26.2357 66.251 26.6354 66.251 27.0351V27.7325C66.251 28.2003 66.251 28.668 66.1745 29.1443C66.2425 30.6071 66.1745 32.0954 66.1745 33.6007C66.1745 35.106 66.1745 36.6283 66.1745 38.1677C66.0724 39.7252 66.0724 41.2877 66.1745 42.8452C66.1745 43.347 66.1745 43.8488 66.1745 44.359C66.1745 45.0224 66.1745 45.6858 66.1745 46.3491L64.9838 46.953L64.2184 47.3527C62.7726 48.0501 61.3098 48.7474 59.8895 49.5469C59.1097 49.8097 58.3554 50.1428 57.6358 50.5419C57.2786 50.7375 56.9129 50.9331 56.5557 51.1457L56.0199 51.4604C55.8243 51.571 55.7308 51.6305 55.3141 51.8516H54.5147H52.6861L50.2368 51.8091C48.6039 51.8091 46.9795 51.8091 45.3806 51.8091C43.7818 51.8091 42.1829 51.6985 40.6096 51.8091C39.0362 51.9197 37.4799 51.6985 35.9405 51.8091C34.4169 51.9069 32.8886 51.9069 31.365 51.8091C29.8813 51.7071 28.3923 51.7071 26.9086 51.8091C25.4694 52.0048 24.0104 52.0048 22.5713 51.8091C21.151 51.8942 19.7477 51.639 18.319 51.8091C18.0553 51.7666 17.7832 51.7326 17.5195 51.7155H17.1198H16.584C16.2183 51.5369 16.0992 51.4774 15.8951 51.3924L15.3253 51.1372C14.9511 50.9756 14.5769 50.8056 14.2112 50.6185C13.0816 49.956 11.9145 49.3597 10.7158 48.8325C9.51667 48.3647 8.4791 47.6333 7.36499 47.1316C7.15224 47.0547 6.94481 46.9638 6.74412 46.8594L6.30192 46.6298L5.80012 46.3576C5.80012 46.0345 5.80012 45.7113 5.80012 45.3881C5.80012 45.201 5.80012 45.0139 5.80012 44.8268C5.83421 44.4534 5.83421 44.0776 5.80012 43.7042C5.80012 42.5306 5.80012 41.3824 5.80012 40.3023C5.45993 39.1882 5.80012 38.0996 5.80012 37.0451C5.69775 36.0242 5.69775 34.9957 5.80012 33.9749C5.63798 33.0264 5.63798 32.0573 5.80012 31.1088C5.86816 30.1818 5.68956 29.2973 5.80012 28.4384C5.73677 28.105 5.7196 27.7644 5.74909 27.4263L5.80012 26.899C5.80012 26.6609 5.80012 26.4313 5.80012 26.2017C6.00423 26.1081 6.19984 26.0061 6.38694 25.904L6.70161 25.7849L6.96525 25.6659C7.13671 25.5894 7.3042 25.5042 7.46704 25.4107C7.79873 25.2406 8.1049 25.0535 8.42807 24.909C9.00596 24.5789 9.60879 24.2945 10.231 24.0585L11.8214 23.3016C13.3097 22.6042 14.4578 22.0684 15.2233 21.7282C15.6929 21.3654 16.2266 21.0942 16.7966 20.9288Z" fill="#5D270D"/>
<path d="M25.9475 20.9268C24.676 21.8058 23.3365 22.5821 21.9418 23.2485L20.5216 24.014C20.0198 24.2861 19.4925 24.5838 18.9142 24.8644C18.3359 25.1451 17.8341 25.6724 17.1112 25.817C16.4278 26.1204 15.7658 26.4699 15.1297 26.863C14.4493 27.2457 13.6753 27.5094 12.9694 27.9856C12.2636 28.4619 11.3196 28.5214 10.6477 29.2018C9.86527 29.661 9.02332 30.0523 8.15585 30.486C7.73878 30.6087 7.34087 30.789 6.97369 31.0218V31.1919V31.2769C6.97369 31.2769 6.97369 31.3195 6.97369 31.345V31.43C6.97369 31.6681 6.97368 31.8978 7.01621 32.1359C6.82504 33.1732 6.82504 34.2368 7.01621 35.2741C6.72302 36.3516 6.72302 37.4879 7.01621 38.5654C7.01621 38.9736 7.01621 39.4159 7.01621 39.7986C7.01621 40.0112 7.01621 40.2153 7.01621 40.4279V40.7085L7.1778 40.7681L7.28836 40.8106L7.518 40.8956C8.57258 41.4059 9.66113 41.8907 10.7242 42.4945C11.9141 42.8689 13.0387 43.4255 14.0581 44.1444C15.2579 44.5688 16.4005 45.1402 17.4599 45.8453C18.5655 46.5427 19.8837 46.8574 21.0063 47.6143C22.1885 48.2352 23.4302 48.7879 24.6463 49.4343L25.939 50.1912C26.0976 50.2 26.2566 50.2 26.4153 50.1912H27.0446C27.4698 50.1912 27.8951 50.1402 28.3118 50.0807C29.7279 49.992 31.1481 49.992 32.5641 50.0807C34.0098 49.8978 35.4728 49.8978 36.9185 50.0807C38.3813 50.0381 39.8611 50.2082 41.3494 50.0807C42.0978 50.0807 42.8462 50.0807 43.5946 50.0807H45.8824H45.9419L46.2055 49.9701L46.7158 49.732C47.0673 49.5789 47.4075 49.4173 47.7364 49.2472C48.4145 48.9259 49.0733 48.5652 49.7094 48.1671C50.9681 47.3677 52.3884 46.8914 53.6641 46.177C55.0759 45.7178 56.2155 44.7993 57.5592 44.221C58.9029 43.6426 60.1702 43.0473 61.3693 42.3074L63.2233 41.3294C63.538 41.1678 63.8441 41.0147 64.1588 40.8701L64.6265 40.649H64.7371C64.7154 40.6124 64.6865 40.5806 64.6521 40.5555V40.3344C64.6521 40.2493 64.6521 40.1643 64.6521 40.0792C64.645 39.7413 64.6592 39.4033 64.6946 39.0672C64.7708 38.4038 64.8049 37.7362 64.7966 37.0686C64.9412 35.7248 64.7966 34.4066 64.7966 33.1054C64.7966 32.7142 64.7966 32.323 64.7966 31.9403V31.362V31.2174L64.7116 31.1579L64.5415 31.0813C64.3119 30.9623 64.0823 30.8687 63.8526 30.7751C62.7385 30.1798 61.5649 29.7461 60.5358 29.0742C59.3792 28.6745 58.4522 27.8666 57.3466 27.4413C56.241 27.0161 55.2715 26.4038 54.2849 25.868C53.377 25.245 52.3941 24.7392 51.3593 24.3626C50.3982 23.9469 49.4662 23.4668 48.5698 22.9254L47.2516 22.1855C47.039 22.0664 46.8179 21.9558 46.5968 21.8453L46.2651 21.6922L46.095 21.6242H46.0184H45.9759H45.7548L45.4146 21.5816L44.7343 21.4966C44.2906 21.4151 43.8335 21.4502 43.4075 21.5986C42.5061 21.6582 41.6301 21.3265 40.7881 21.5986C39.9786 21.7139 39.1568 21.7139 38.3473 21.5986L36.1106 21.5561C32.9043 21.5051 30.3784 21.4456 28.6605 21.3775C27.7743 21.3964 26.8884 21.328 26.0156 21.1734C27.0866 21.0004 28.1711 20.9236 29.2558 20.9438C31.3735 20.8758 34.4522 20.8077 38.3473 20.7482C39.1584 20.6584 39.977 20.6584 40.7881 20.7482C41.6605 20.6967 42.5352 20.6967 43.4075 20.7482C43.8421 20.6474 44.289 20.6102 44.7343 20.6376H45.4146H45.7548H46.231C46.2852 20.6563 46.3368 20.682 46.3842 20.7142L46.7668 20.9013L47.09 21.0714L47.7449 21.4116C48.1861 21.6496 48.6404 21.8626 49.1056 22.0494C50.0836 22.3811 50.9171 23.0444 51.9206 23.4356C52.8278 23.9749 53.7993 24.3978 54.8122 24.6943C55.8092 25.2643 56.8402 25.7727 57.8994 26.2167C58.8951 26.8902 59.9762 27.4279 61.1141 27.8155C62.2367 28.2833 63.2913 28.9466 64.4395 29.4654C64.6606 29.5845 64.8817 29.7036 65.1113 29.8141L66.1744 30.3414C66.1744 30.6816 66.1744 31.0133 66.1744 31.3535C66.1744 31.5406 66.1744 31.7362 66.1744 31.9318C66.1744 32.3145 66.1744 32.7057 66.1744 33.0969C66.2893 34.4155 66.2893 35.7415 66.1744 37.0601C66.1744 37.7234 66.1744 38.3868 66.1744 39.0587C66.1744 39.3989 66.1744 39.7305 66.1744 40.0707V40.6065C66.1744 40.9212 66.1744 41.2358 66.1744 41.5505H66.1149L65.2644 41.9928C65.1198 42.0778 64.9668 42.1628 64.8052 42.2394C64.499 42.401 64.1928 42.5541 63.8781 42.6986C63.2488 43.0048 62.6195 43.3025 61.9986 43.6341C60.684 44.1823 59.4107 44.8247 58.1885 45.5562C56.9213 46.2366 55.6372 46.8234 54.302 47.5293C52.9667 48.2352 51.6485 48.7965 50.3473 49.5279C49.6334 49.7566 48.944 50.0558 48.2892 50.4208C47.9575 50.5994 47.6258 50.7865 47.3026 50.9821L46.8179 51.2628L46.5712 51.4159H46.5117L46.3926 51.4754L46.163 51.603H45.4061H43.7052L41.4599 51.5605C39.9716 51.5605 38.4919 51.5605 37.0291 51.5605C35.5663 51.5605 34.1119 51.4499 32.6747 51.5605C31.2374 51.671 29.8171 51.4499 28.4223 51.5605L27.1552 51.6115H25.7009L25.3437 51.4329L25.1566 51.3308L24.7994 51.1352C24.5613 50.9991 24.3231 50.8631 24.0935 50.7185C22.9321 50.0111 21.7181 49.3941 20.462 48.873C19.2036 48.4481 18.0144 47.8407 16.9326 47.07C15.7335 46.5597 14.7044 45.7603 13.5308 45.3266C12.4863 44.6527 11.3782 44.083 10.2225 43.6257C9.19688 43.011 8.13144 42.4655 7.03323 41.9928L6.8121 41.8992L6.70154 41.8567H6.642L6.53995 41.8056L5.78302 41.4314V40.4279V39.7986C5.78302 39.3903 5.78302 38.9481 5.78302 38.5654C5.63845 37.4428 5.97013 36.3457 5.78302 35.2741C5.78302 34.2025 5.78302 33.1564 5.78302 32.1359C5.70915 31.907 5.66348 31.67 5.64697 31.43V30.9197C5.64697 30.7156 5.64697 30.503 5.64697 30.3074C6.69304 29.8226 6.99921 29.7886 7.50949 29.5505C8.35995 29.1593 9.10836 28.4874 10.0609 28.3173C10.7691 27.7914 11.5675 27.3994 12.4167 27.1607C13.2076 26.8545 13.8454 26.3102 14.6108 26.0976C15.255 25.7197 15.9291 25.3954 16.6264 25.1281C17.2546 24.8801 17.868 24.5962 18.4635 24.2776C18.9861 23.966 19.5354 23.7013 20.1048 23.4867L21.5592 22.8063C22.9691 22.063 24.4366 21.4345 25.9475 20.9268Z" fill="#5D270D"/>
<path d="M35.1071 20.9251C33.9667 21.7381 32.7573 22.4496 31.4926 23.0513L30.2084 23.7402C29.7577 23.9953 29.2814 24.2674 28.7541 24.5226C28.2268 24.7777 27.7846 25.2625 27.1297 25.373C26.5121 25.6492 25.9127 25.9645 25.3353 26.3171C24.6662 26.6267 24.0133 26.9702 23.3792 27.3461C22.8094 27.9074 21.8739 27.8054 21.2785 28.4432C20.5501 28.8689 19.8007 29.2577 19.0333 29.6084C18.1898 29.9249 17.3874 30.3417 16.6435 30.85C15.7129 31.1088 14.8448 31.5544 14.0921 32.1597C13.0939 32.3376 12.1723 32.8118 11.4472 33.5205C10.4944 33.9391 9.56847 34.4162 8.67468 34.9493L7.74765 35.4425L7.27991 35.6977L7.16934 35.7572C7.17693 35.8449 7.17693 35.9331 7.16934 36.0209H7.33945H7.43299L7.62863 36.0974C7.88972 36.1969 8.1452 36.3104 8.39401 36.4376C8.90036 36.6824 9.38665 36.9668 9.84832 37.288C10.9557 37.6496 12.0044 38.1711 12.961 38.8359C13.956 39.4737 15.1722 39.6864 16.1673 40.4348C17.2473 40.9876 18.37 41.4808 19.4671 42.0761C20.5288 42.7774 21.6709 43.3484 22.8689 43.7771C24.0554 44.2688 25.2088 44.837 26.3218 45.478C27.5688 45.9087 28.7528 46.5036 29.8427 47.2469C31.0419 47.8083 32.1559 48.5567 33.4231 49.0499L34.4522 49.5687L34.971 49.8154L35.2346 49.9344H35.3027C35.77 49.9049 36.2387 49.9049 36.706 49.9344H36.7655L36.9951 49.8238L37.4628 49.6197L38.3899 49.186C39.0013 48.8925 39.5948 48.5631 40.1673 48.1995C41.307 47.4596 42.5911 47.0513 43.7478 46.3965C44.9538 45.8737 46.1293 45.2831 47.2687 44.6275C48.4253 44.0237 49.6415 43.5815 50.7216 42.9266C51.8245 42.2996 52.9601 41.7318 54.1234 41.2257C55.0844 40.3752 56.3686 40.1966 57.4232 39.5843C58.5628 39.1676 59.5579 38.4787 60.6295 37.9854C61.7011 37.4922 62.7811 37.0754 63.7421 36.4376L64.465 36.0719L64.6436 35.9698H64.6861L64.7542 35.9188C64.7542 35.8763 64.7542 35.8508 64.7542 35.8082C64.75 35.7715 64.75 35.7344 64.7542 35.6977L64.7032 35.6552L64.6351 35.6126C63.572 35.2639 62.7471 34.4985 61.752 34.1328C60.757 33.7671 59.8726 33.1973 58.9796 32.7041C58.1637 32.1277 57.2703 31.6695 56.3261 31.3433C55.4422 30.9752 54.5891 30.5372 53.7747 30.0336C53.0077 29.5676 52.2092 29.1555 51.3849 28.8004C50.594 28.4432 50.0242 27.6778 49.1397 27.6268C48.3743 27.3121 47.8215 26.6658 47.0305 26.5297C46.3336 26.2897 45.677 25.9456 45.083 25.5091L43.331 24.5821L39.4954 22.541L38.0242 21.6906L37.3948 21.3419L37.1142 21.1888L36.893 21.0612L36.1616 21.0102L35.6088 20.9677C35.3112 20.9677 35.1581 20.9081 35.1581 20.8826C35.1581 20.8571 35.3112 20.8231 35.6088 20.7891H36.1616H36.5188H36.7144H36.9696L38.5004 21.4864L40.431 22.3879C41.8598 23.0598 43.5607 23.8763 45.5338 24.8118C46.2302 25.052 46.8954 25.3746 47.5153 25.7728C48.251 26.0665 48.9644 26.4133 49.65 26.8103C50.4622 27.0631 51.2308 27.4388 51.9292 27.9244C52.7116 28.3071 53.4771 28.7749 54.3445 29.1066C55.212 29.4383 55.9774 30.0081 56.8959 30.3568C57.7175 30.9233 58.617 31.3674 59.5664 31.675C60.465 32.195 61.3968 32.6553 62.3559 33.0527C63.2513 33.6691 64.2309 34.1532 65.2645 34.49H65.341L65.4516 34.541L65.7152 34.6686L66.251 34.9237C66.251 35.5786 66.251 36.225 66.251 36.8713L65.1454 37.4156C64.9073 37.5347 64.6606 37.6622 64.4225 37.7983C63.3849 38.2746 62.3984 38.8869 61.3268 39.3802C60.3199 40.0255 59.2516 40.5696 58.1376 41.0046C57.0915 41.6169 55.9689 42.1187 54.8548 42.7055C53.7407 43.2923 52.6181 43.8196 51.4529 44.4064C50.2747 44.8968 49.1372 45.4798 48.0511 46.1499C46.903 46.7622 45.6953 47.298 44.5302 47.9358C43.365 48.5737 42.1234 49.0755 40.9498 49.7388C40.3026 49.9429 39.6784 50.2136 39.0872 50.5467C38.7811 50.7083 38.4919 50.8784 38.2368 51.0485L37.803 51.3122L37.5734 51.4482L37.4033 51.5418L37.1907 51.6609H36.1191H35.039L34.3502 51.3122L33.8399 51.04C33.4997 50.8614 33.1595 50.6828 32.8278 50.4957C31.6117 49.9089 30.421 49.2966 29.2474 48.6927C28.0737 48.0889 26.9341 47.4085 25.735 46.9068C24.5358 46.405 23.4727 45.6481 22.3331 45.1633C21.1576 44.6835 20.0204 44.1149 18.9313 43.4624C17.8873 42.8031 16.7891 42.2341 15.6485 41.7615C14.5036 41.3984 13.4262 40.8496 12.4592 40.1371C11.3707 39.6778 10.4436 38.9379 9.36355 38.5552C8.91394 38.2063 8.41899 37.9202 7.89227 37.7048L7.11832 37.3731L6.93124 37.2965L6.8377 37.2455L6.67611 37.1775L6.01273 36.8543H5.97021L6.02124 34.9663L6.8717 34.5751L7.35647 34.3284C7.67176 34.1722 7.97839 33.999 8.27499 33.8096C9.12545 33.2228 10.18 32.9592 11.073 32.4319C11.966 31.9046 12.9525 31.692 13.7435 31.1137C14.5939 30.7054 15.4444 30.2632 16.2948 29.8635C16.9667 29.1406 17.9192 29.013 18.7101 28.6814C19.42 28.2155 20.1858 27.8412 20.9894 27.5673C21.6217 27.0777 22.3485 26.7245 23.124 26.5297C23.7674 26.175 24.4288 25.8542 25.1056 25.5687C25.6499 25.0924 26.3813 25.0329 26.9256 24.7182C27.5109 24.4925 28.0793 24.2254 28.6266 23.9188C29.0983 23.6352 29.5968 23.3988 30.1149 23.2129L31.4331 22.592C32.6104 21.9374 33.8391 21.3799 35.1071 20.9251Z" fill="#98772E"/>
<path d="M36.0001 25.0945C35.2117 25.7183 34.3559 26.2517 33.4487 26.6848L32.5387 27.1866C32.2155 27.3737 31.8753 27.5778 31.4926 27.7564C31.1099 27.935 30.8377 28.3517 30.3359 28.3857C29.8894 28.5735 29.4622 28.8042 29.0603 29.0746C28.5783 29.2877 28.1122 29.535 27.6655 29.8145C27.2828 30.2823 26.5514 30.0782 26.1602 30.6139C25.6459 30.9362 25.1086 31.2205 24.5528 31.4644C23.9386 31.6656 23.3633 31.9705 22.8519 32.3659C22.172 32.501 21.5441 32.8253 21.0404 33.3014C20.6752 33.329 20.3194 33.4307 19.9948 33.6003C19.6702 33.7699 19.3836 34.0039 19.1524 34.288C18.465 34.5766 17.8023 34.9207 17.1708 35.317L16.6691 35.5977L16.5415 35.6657H16.4819L16.4224 35.7082C16.3339 35.7669 16.2362 35.81 16.1333 35.8358H16.2013C16.3043 35.8416 16.4067 35.8558 16.5075 35.8783C16.5104 35.8981 16.5104 35.9181 16.5075 35.9379L16.618 36.0229L16.8391 36.193C17.652 36.4059 18.413 36.7821 19.0758 37.2986C19.7732 37.7834 20.6832 37.8939 21.3721 38.4382C22.146 38.8379 22.954 39.1781 23.7364 39.6119C24.4727 40.1445 25.2915 40.5525 26.1602 40.8195C27.0192 41.1583 27.8473 41.5709 28.635 42.0527C29.5582 42.3094 30.424 42.7394 31.1864 43.3199C32.0369 43.7111 32.8363 44.2979 33.7378 44.6126C34.163 44.8422 34.5883 45.0378 35.0475 45.2419L35.7109 45.5566L35.8725 45.6501L35.949 45.6927V45.7437H36.0341L36.1191 45.7012L36.2892 45.6331L36.9526 45.327C37.3904 45.1193 37.8112 44.8776 38.2112 44.6041C39.0107 44.0343 39.9632 43.7961 40.7626 43.3114C41.6443 42.9583 42.4973 42.5375 43.314 42.0527C44.1597 41.6816 44.9858 41.2671 45.7889 40.811C46.5679 40.3528 47.3777 39.9492 48.2127 39.6033C48.8505 38.906 49.8286 38.889 50.5685 38.4297C51.3596 38.0979 52.1293 37.7173 52.8732 37.2901C53.5961 36.8563 54.4381 36.6778 55.1015 36.1845L55.3566 36.0654L55.4757 35.9974C55.5102 35.9762 55.5416 35.9504 55.5692 35.9209C55.6379 35.8659 55.7202 35.8306 55.8073 35.8188C55.6712 35.8188 55.6287 35.8188 55.5947 35.7677C55.566 35.7448 55.5428 35.7158 55.5267 35.6827L55.4757 35.6232H55.4161L55.2971 35.5466C55.1295 35.4501 54.9529 35.3704 54.7698 35.3085C54.0979 34.9683 53.426 34.6451 52.7882 34.2794C52.2301 33.8293 51.5884 33.494 50.9002 33.2929C50.2659 33.0498 49.6611 32.7361 49.0972 32.3574C48.5595 32.0046 47.9901 31.7028 47.3963 31.4559C46.818 31.2093 46.4693 30.5629 45.7889 30.6055C45.2361 30.3928 44.8789 29.84 44.2836 29.806C43.6882 29.772 43.3395 29.3043 42.8973 29.0661L41.6131 28.3772C37.9561 26.4042 35.881 25.2135 35.949 25.0859C36.6387 25.2372 37.3031 25.4863 37.9221 25.8258C39.1808 26.3786 40.9923 27.2206 43.28 28.3007C43.7854 28.4538 44.2643 28.6832 44.7003 28.9811C45.2369 29.1754 45.7526 29.4233 46.2396 29.721C46.8331 29.8635 47.3896 30.1302 47.8725 30.5034C48.42 30.8244 48.9882 31.1085 49.5735 31.3538C50.2283 31.5239 50.7386 32.0257 51.4019 32.2468C51.9719 32.6868 52.6261 33.0053 53.324 33.1824C53.9576 33.5735 54.6267 33.9038 55.3225 34.1689C55.4669 34.2999 55.6236 34.4166 55.7903 34.5176L55.9094 34.5856H55.9774L56.0795 34.6452L56.4962 34.8407C57.0745 35.1129 57.7379 35.3765 58.4523 35.6912L58.852 35.8698C58.3247 36.159 57.7124 36.4566 57.1511 36.7203L56.3006 37.1455L56.0965 37.2561L55.9689 37.3156L55.7308 37.4517C54.9824 37.7834 54.285 38.2426 53.5111 38.5913C52.8088 39.0852 52.0418 39.4802 51.2318 39.7649C50.4919 40.2157 49.6755 40.5644 48.8846 40.9641C48.0937 41.3638 47.2772 41.755 46.4693 42.1888C45.6046 42.5191 44.7777 42.9411 44.0029 43.4474C43.1524 43.8897 42.302 44.2554 41.4515 44.7231C40.601 45.1909 39.7506 45.5226 38.9001 46.0158C38.4227 46.1309 37.9644 46.3142 37.5394 46.5601C37.3268 46.6792 37.1227 46.8068 36.9186 46.9343L36.757 47.0364L36.6804 47.0874L36.5444 47.164L35.9405 47.5126L34.92 47.0364L34.2651 46.7132L32.9809 46.0158C32.1305 45.6076 31.28 45.1654 30.4295 44.7231C29.5791 44.2809 28.7966 43.7791 27.8782 43.4389C26.9597 43.0988 26.3218 42.5545 25.4713 42.2398C24.6247 41.9193 23.8149 41.5087 23.056 41.0151C22.3277 40.5172 21.539 40.1143 20.7088 39.816C19.8667 39.6042 19.0842 39.2027 18.421 38.6423C17.6301 38.3362 17.0007 37.7408 16.2098 37.5027C16.14 37.4358 16.0661 37.3733 15.9886 37.3156L15.8781 37.2391L15.6825 37.12C15.4188 36.9754 15.1552 36.8393 14.8745 36.7118C14.3217 36.4481 13.6839 36.1845 13.0801 35.8613L13.4288 35.6827C14.1007 35.3681 14.747 35.0874 15.3338 34.8323L15.776 34.6196L15.9376 34.5346L16.0652 34.4665C16.2353 34.373 16.3969 34.271 16.5585 34.1689C17.2152 33.8094 17.8909 33.4857 18.5826 33.1994C19.1694 32.7401 19.9603 32.7231 20.5046 32.2638C21.1424 31.9747 21.7208 31.626 22.3331 31.3709C22.7754 30.7755 23.4983 30.7841 24.034 30.5204C24.5698 30.2568 25.0291 29.772 25.6754 29.738C26.1048 29.3506 26.6359 29.0939 27.2063 28.9981C27.6651 28.742 28.1395 28.5148 28.6266 28.3177C29.0008 27.935 29.5621 27.9605 29.9448 27.7054C30.3584 27.556 30.757 27.3681 31.1354 27.1441C31.4701 26.927 31.8337 26.7581 32.2155 26.6423L33.1595 26.2086C34.0558 25.7194 35.0102 25.3451 36.0001 25.0945Z" fill="#5D270D"/>
<path d="M36.0001 25.0945C35.2117 25.7183 34.3559 26.2517 33.4487 26.6848L32.5387 27.1866C32.2155 27.3737 31.8753 27.5778 31.4926 27.7564C31.1099 27.935 30.8377 28.3517 30.3359 28.3857C29.8894 28.5735 29.4622 28.8042 29.0603 29.0746C28.5783 29.2877 28.1122 29.535 27.6655 29.8145C27.2828 30.2823 26.5514 30.0782 26.1602 30.6139C25.6459 30.9362 25.1086 31.2205 24.5528 31.4644C23.9386 31.6656 23.3633 31.9705 22.8519 32.3659C22.172 32.501 21.5441 32.8253 21.0404 33.3014C20.6752 33.329 20.3194 33.4307 19.9948 33.6003C19.6702 33.7699 19.3836 34.0039 19.1524 34.288C18.465 34.5766 17.8023 34.9207 17.1708 35.317L16.6691 35.5977L16.5415 35.6657H16.4819L16.4224 35.7082C16.3339 35.7669 16.2362 35.81 16.1333 35.8358H16.2013C16.3043 35.8416 16.4067 35.8558 16.5075 35.8783C16.5104 35.8981 16.5104 35.9181 16.5075 35.9379L16.618 36.0229L16.8391 36.193C17.652 36.4059 18.413 36.7821 19.0758 37.2986C19.7732 37.7834 20.6832 37.8939 21.3721 38.4382C22.146 38.8379 22.954 39.1781 23.7364 39.6119C24.4727 40.1445 25.2915 40.5525 26.1602 40.8195C27.0192 41.1583 27.8473 41.5709 28.635 42.0527C29.5582 42.3094 30.424 42.7394 31.1864 43.3199C32.0369 43.7111 32.8363 44.2979 33.7378 44.6126C34.163 44.8422 34.5883 45.0378 35.0475 45.2419L35.7109 45.5566L35.8725 45.6501L35.949 45.6927V45.7437H36.0341L36.1191 45.7012L36.2892 45.6331L36.9526 45.327C37.3904 45.1193 37.8112 44.8776 38.2112 44.6041C39.0107 44.0343 39.9632 43.7961 40.7626 43.3114C41.6443 42.9583 42.4973 42.5375 43.314 42.0527C44.1597 41.6816 44.9858 41.2671 45.7889 40.811C46.5679 40.3528 47.3777 39.9492 48.2127 39.6033C48.8505 38.906 49.8286 38.889 50.5685 38.4297C51.3596 38.0979 52.1293 37.7173 52.8732 37.2901C53.5961 36.8563 54.4381 36.6778 55.1015 36.1845L55.3566 36.0654L55.4757 35.9974C55.5102 35.9762 55.5416 35.9504 55.5692 35.9209C55.6379 35.8659 55.7202 35.8306 55.8073 35.8188C55.6712 35.8188 55.6287 35.8188 55.5947 35.7677C55.566 35.7448 55.5428 35.7158 55.5267 35.6827L55.4757 35.6232H55.4161L55.2971 35.5466C55.1295 35.4501 54.9529 35.3704 54.7698 35.3085C54.0979 34.9683 53.426 34.6451 52.7882 34.2794C52.2301 33.8293 51.5884 33.494 50.9002 33.2929C50.2659 33.0498 49.6611 32.7361 49.0972 32.3574C48.5595 32.0046 47.9901 31.7028 47.3963 31.4559C46.818 31.2093 46.4693 30.5629 45.7889 30.6055C45.2361 30.3928 44.8789 29.84 44.2836 29.806C43.6882 29.772 43.3395 29.3043 42.8973 29.0661L41.6131 28.3772C37.9561 26.4042 35.881 25.2135 35.949 25.0859C36.6387 25.2372 37.3031 25.4863 37.9221 25.8258C39.1808 26.3786 40.9923 27.2206 43.28 28.3007C43.7854 28.4538 44.2643 28.6832 44.7003 28.9811C45.2369 29.1754 45.7526 29.4233 46.2396 29.721C46.8331 29.8635 47.3896 30.1302 47.8725 30.5034C48.42 30.8244 48.9882 31.1085 49.5735 31.3538C50.2283 31.5239 50.7386 32.0257 51.4019 32.2468C51.9719 32.6868 52.6261 33.0053 53.324 33.1824C53.9576 33.5735 54.6267 33.9038 55.3225 34.1689C55.4669 34.2999 55.6236 34.4166 55.7903 34.5176L55.9094 34.5856H55.9774L56.0795 34.6452L56.4962 34.8407C57.0745 35.1129 57.7379 35.3765 58.4523 35.6912L58.852 35.8698C58.3247 36.159 57.7124 36.4566 57.1511 36.7203L56.3006 37.1455L56.0965 37.2561L55.9689 37.3156L55.7308 37.4517C54.9824 37.7834 54.285 38.2426 53.5111 38.5913C52.8088 39.0852 52.0418 39.4802 51.2318 39.7649C50.4919 40.2157 49.6755 40.5644 48.8846 40.9641C48.0937 41.3638 47.2772 41.755 46.4693 42.1888C45.6046 42.5191 44.7777 42.9411 44.0029 43.4474C43.1524 43.8897 42.302 44.2554 41.4515 44.7231C40.601 45.1909 39.7506 45.5226 38.9001 46.0158C38.4227 46.1309 37.9644 46.3142 37.5394 46.5601C37.3268 46.6792 37.1227 46.8068 36.9186 46.9343L36.757 47.0364L36.6804 47.0874L36.5444 47.164L35.9405 47.5126L34.92 47.0364L34.2651 46.7132L32.9809 46.0158C32.1305 45.6076 31.28 45.1654 30.4295 44.7231C29.5791 44.2809 28.7966 43.7791 27.8782 43.4389C26.9597 43.0988 26.3218 42.5545 25.4713 42.2398C24.6247 41.9193 23.8149 41.5087 23.056 41.0151C22.3277 40.5172 21.539 40.1143 20.7088 39.816C19.8667 39.6042 19.0842 39.2027 18.421 38.6423C17.6301 38.3362 17.0007 37.7408 16.2098 37.5027C16.14 37.4358 16.0661 37.3733 15.9886 37.3156L15.8781 37.2391L15.6825 37.12C15.4188 36.9754 15.1552 36.8393 14.8745 36.7118C14.3217 36.4481 13.6839 36.1845 13.0801 35.8613L13.4288 35.6827C14.1007 35.3681 14.747 35.0874 15.3338 34.8323L15.776 34.6196L15.9376 34.5346L16.0652 34.4665C16.2353 34.373 16.3969 34.271 16.5585 34.1689C17.2152 33.8094 17.8909 33.4857 18.5826 33.1994C19.1694 32.7401 19.9603 32.7231 20.5046 32.2638C21.1424 31.9747 21.7208 31.626 22.3331 31.3709C22.7754 30.7755 23.4983 30.7841 24.034 30.5204C24.5698 30.2568 25.0291 29.772 25.6754 29.738C26.1048 29.3506 26.6359 29.0939 27.2063 28.9981C27.6651 28.742 28.1395 28.5148 28.6266 28.3177C29.0008 27.935 29.5621 27.9605 29.9448 27.7054C30.3584 27.556 30.757 27.3681 31.1354 27.1441C31.4701 26.927 31.8337 26.7581 32.2155 26.6423L33.1595 26.2086C34.0558 25.7194 35.0102 25.3451 36.0001 25.0945Z" fill="#5D270D"/>
<path d="M36.0001 25.0945C35.2117 25.7183 34.3559 26.2517 33.4487 26.6848L32.5387 27.1866C32.2155 27.3737 31.8753 27.5778 31.4926 27.7564C31.1099 27.935 30.8377 28.3517 30.3359 28.3857C29.8894 28.5735 29.4622 28.8042 29.0603 29.0746C28.5783 29.2877 28.1122 29.535 27.6655 29.8145C27.2828 30.2823 26.5514 30.0782 26.1602 30.6139C25.6459 30.9362 25.1086 31.2205 24.5528 31.4644C23.9386 31.6656 23.3633 31.9705 22.8519 32.3659C22.172 32.501 21.5441 32.8253 21.0404 33.3014C20.6752 33.329 20.3194 33.4307 19.9948 33.6003C19.6702 33.7699 19.3836 34.0039 19.1524 34.288C18.465 34.5766 17.8023 34.9207 17.1708 35.317L16.6691 35.5977L16.5415 35.6657H16.4819L16.4224 35.7082C16.3339 35.7669 16.2362 35.81 16.1333 35.8358H16.2013C16.3043 35.8416 16.4067 35.8558 16.5075 35.8783C16.5104 35.8981 16.5104 35.9181 16.5075 35.9379L16.618 36.0229L16.8391 36.193C17.652 36.4059 18.413 36.7821 19.0758 37.2986C19.7732 37.7834 20.6832 37.8939 21.3721 38.4382C22.146 38.8379 22.954 39.1781 23.7364 39.6119C24.4727 40.1445 25.2915 40.5525 26.1602 40.8195C27.0192 41.1583 27.8473 41.5709 28.635 42.0527C29.5582 42.3094 30.424 42.7394 31.1864 43.3199C32.0369 43.7111 32.8363 44.2979 33.7378 44.6126C34.163 44.8422 34.5883 45.0378 35.0475 45.2419L35.7109 45.5566L35.8725 45.6501L35.949 45.6927V45.7437H36.0341L36.1191 45.7012L36.2892 45.6331L36.9526 45.327C37.3904 45.1193 37.8112 44.8776 38.2112 44.6041C39.0107 44.0343 39.9632 43.7961 40.7626 43.3114C41.6443 42.9583 42.4973 42.5375 43.314 42.0527C44.1597 41.6816 44.9858 41.2671 45.7889 40.811C46.5679 40.3528 47.3777 39.9492 48.2127 39.6033C48.8505 38.906 49.8286 38.889 50.5685 38.4297C51.3596 38.0979 52.1293 37.7173 52.8732 37.2901C53.5961 36.8563 54.4381 36.6778 55.1015 36.1845L55.3566 36.0654L55.4757 35.9974C55.5102 35.9762 55.5416 35.9504 55.5692 35.9209C55.6379 35.8659 55.7202 35.8306 55.8073 35.8188C55.6712 35.8188 55.6287 35.8188 55.5947 35.7677C55.566 35.7448 55.5428 35.7158 55.5267 35.6827L55.4757 35.6232H55.4161L55.2971 35.5466C55.1295 35.4501 54.9529 35.3704 54.7698 35.3085C54.0979 34.9683 53.426 34.6451 52.7882 34.2794C52.2301 33.8293 51.5884 33.494 50.9002 33.2929C50.2659 33.0498 49.6611 32.7361 49.0972 32.3574C48.5595 32.0046 47.9901 31.7028 47.3963 31.4559C46.818 31.2093 46.4693 30.5629 45.7889 30.6055C45.2361 30.3928 44.8789 29.84 44.2836 29.806C43.6882 29.772 43.3395 29.3043 42.8973 29.0661L41.6131 28.3772C37.9561 26.4042 35.881 25.2135 35.949 25.0859C36.6387 25.2372 37.3031 25.4863 37.9221 25.8258C39.1808 26.3786 40.9923 27.2206 43.28 28.3007C43.7854 28.4538 44.2643 28.6832 44.7003 28.9811C45.2369 29.1754 45.7526 29.4233 46.2396 29.721C46.8331 29.8635 47.3896 30.1302 47.8725 30.5034C48.42 30.8244 48.9882 31.1085 49.5735 31.3538C50.2283 31.5239 50.7386 32.0257 51.4019 32.2468C51.9719 32.6868 52.6261 33.0053 53.324 33.1824C53.9576 33.5735 54.6267 33.9038 55.3225 34.1689C55.4669 34.2999 55.6236 34.4166 55.7903 34.5176L55.9094 34.5856H55.9774L56.0795 34.6452L56.4962 34.8407C57.0745 35.1129 57.7379 35.3765 58.4523 35.6912L58.852 35.8698C58.3247 36.159 57.7124 36.4566 57.1511 36.7203L56.3006 37.1455L56.0965 37.2561L55.9689 37.3156L55.7308 37.4517C54.9824 37.7834 54.285 38.2426 53.5111 38.5913C52.8088 39.0852 52.0418 39.4802 51.2318 39.7649C50.4919 40.2157 49.6755 40.5644 48.8846 40.9641C48.0937 41.3638 47.2772 41.755 46.4693 42.1888C45.6046 42.5191 44.7777 42.9411 44.0029 43.4474C43.1524 43.8897 42.302 44.2554 41.4515 44.7231C40.601 45.1909 39.7506 45.5226 38.9001 46.0158C38.4227 46.1309 37.9644 46.3142 37.5394 46.5601C37.3268 46.6792 37.1227 46.8068 36.9186 46.9343L36.757 47.0364L36.6804 47.0874L36.5444 47.164L35.9405 47.5126L34.92 47.0364L34.2651 46.7132L32.9809 46.0158C32.1305 45.6076 31.28 45.1654 30.4295 44.7231C29.5791 44.2809 28.7966 43.7791 27.8782 43.4389C26.9597 43.0988 26.3218 42.5545 25.4713 42.2398C24.6247 41.9193 23.8149 41.5087 23.056 41.0151C22.3277 40.5172 21.539 40.1143 20.7088 39.816C19.8667 39.6042 19.0842 39.2027 18.421 38.6423C17.6301 38.3362 17.0007 37.7408 16.2098 37.5027C16.14 37.4358 16.0661 37.3733 15.9886 37.3156L15.8781 37.2391L15.6825 37.12C15.4188 36.9754 15.1552 36.8393 14.8745 36.7118C14.3217 36.4481 13.6839 36.1845 13.0801 35.8613L13.4288 35.6827C14.1007 35.3681 14.747 35.0874 15.3338 34.8323L15.776 34.6196L15.9376 34.5346L16.0652 34.4665C16.2353 34.373 16.3969 34.271 16.5585 34.1689C17.2152 33.8094 17.8909 33.4857 18.5826 33.1994C19.1694 32.7401 19.9603 32.7231 20.5046 32.2638C21.1424 31.9747 21.7208 31.626 22.3331 31.3709C22.7754 30.7755 23.4983 30.7841 24.034 30.5204C24.5698 30.2568 25.0291 29.772 25.6754 29.738C26.1048 29.3506 26.6359 29.0939 27.2063 28.9981C27.6651 28.742 28.1395 28.5148 28.6266 28.3177C29.0008 27.935 29.5621 27.9605 29.9448 27.7054C30.3584 27.556 30.757 27.3681 31.1354 27.1441C31.4701 26.927 31.8337 26.7581 32.2155 26.6423L33.1595 26.2086C34.0558 25.7194 35.0102 25.3451 36.0001 25.0945Z" fill="#5D270D"/>
<path d="M36.0001 25.0945C35.2117 25.7183 34.3559 26.2517 33.4487 26.6848L32.5387 27.1866C32.2155 27.3737 31.8753 27.5778 31.4926 27.7564C31.1099 27.935 30.8377 28.3517 30.3359 28.3857C29.8894 28.5735 29.4622 28.8042 29.0603 29.0746C28.5783 29.2877 28.1122 29.535 27.6655 29.8145C27.2828 30.2823 26.5514 30.0782 26.1602 30.6139C25.6459 30.9362 25.1086 31.2205 24.5528 31.4644C23.9386 31.6656 23.3633 31.9705 22.8519 32.3659C22.172 32.501 21.5441 32.8253 21.0404 33.3014C20.6752 33.329 20.3194 33.4307 19.9948 33.6003C19.6702 33.7699 19.3836 34.0039 19.1524 34.288C18.465 34.5766 17.8023 34.9207 17.1708 35.317L16.6691 35.5977L16.5415 35.6657H16.4819L16.4224 35.7082C16.3339 35.7669 16.2362 35.81 16.1333 35.8358H16.2013C16.3043 35.8416 16.4067 35.8558 16.5075 35.8783C16.5104 35.8981 16.5104 35.9181 16.5075 35.9379L16.618 36.0229L16.8391 36.193C17.652 36.4059 18.413 36.7821 19.0758 37.2986C19.7732 37.7834 20.6832 37.8939 21.3721 38.4382C22.146 38.8379 22.954 39.1781 23.7364 39.6119C24.4727 40.1445 25.2915 40.5525 26.1602 40.8195C27.0192 41.1583 27.8473 41.5709 28.635 42.0527C29.5582 42.3094 30.424 42.7394 31.1864 43.3199C32.0369 43.7111 32.8363 44.2979 33.7378 44.6126C34.163 44.8422 34.5883 45.0378 35.0475 45.2419L35.7109 45.5566L35.8725 45.6501L35.949 45.6927V45.7437H36.0341L36.1191 45.7012L36.2892 45.6331L36.9526 45.327C37.3904 45.1193 37.8112 44.8776 38.2112 44.6041C39.0107 44.0343 39.9632 43.7961 40.7626 43.3114C41.6443 42.9583 42.4973 42.5375 43.314 42.0527C44.1597 41.6816 44.9858 41.2671 45.7889 40.811C46.5679 40.3528 47.3777 39.9492 48.2127 39.6033C48.8505 38.906 49.8286 38.889 50.5685 38.4297C51.3596 38.0979 52.1293 37.7173 52.8732 37.2901C53.5961 36.8563 54.4381 36.6778 55.1015 36.1845L55.3566 36.0654L55.4757 35.9974C55.5102 35.9762 55.5416 35.9504 55.5692 35.9209C55.6379 35.8659 55.7202 35.8306 55.8073 35.8188C55.6712 35.8188 55.6287 35.8188 55.5947 35.7677C55.566 35.7448 55.5428 35.7158 55.5267 35.6827L55.4757 35.6232H55.4161L55.2971 35.5466C55.1295 35.4501 54.9529 35.3704 54.7698 35.3085C54.0979 34.9683 53.426 34.6451 52.7882 34.2794C52.2301 33.8293 51.5884 33.494 50.9002 33.2929C50.2659 33.0498 49.6611 32.7361 49.0972 32.3574C48.5595 32.0046 47.9901 31.7028 47.3963 31.4559C46.818 31.2093 46.4693 30.5629 45.7889 30.6055C45.2361 30.3928 44.8789 29.84 44.2836 29.806C43.6882 29.772 43.3395 29.3043 42.8973 29.0661L41.6131 28.3772C37.9561 26.4042 35.881 25.2135 35.949 25.0859C36.6387 25.2372 37.3031 25.4863 37.9221 25.8258C39.1808 26.3786 40.9923 27.2206 43.28 28.3007C43.7854 28.4538 44.2643 28.6832 44.7003 28.9811C45.2369 29.1754 45.7526 29.4233 46.2396 29.721C46.8331 29.8635 47.3896 30.1302 47.8725 30.5034C48.42 30.8244 48.9882 31.1085 49.5735 31.3538C50.2283 31.5239 50.7386 32.0257 51.4019 32.2468C51.9719 32.6868 52.6261 33.0053 53.324 33.1824C53.9576 33.5735 54.6267 33.9038 55.3225 34.1689C55.4669 34.2999 55.6236 34.4166 55.7903 34.5176L55.9094 34.5856H55.9774L56.0795 34.6452L56.4962 34.8407C57.0745 35.1129 57.7379 35.3765 58.4523 35.6912L58.852 35.8698C58.3247 36.159 57.7124 36.4566 57.1511 36.7203L56.3006 37.1455L56.0965 37.2561L55.9689 37.3156L55.7308 37.4517C54.9824 37.7834 54.285 38.2426 53.5111 38.5913C52.8088 39.0852 52.0418 39.4802 51.2318 39.7649C50.4919 40.2157 49.6755 40.5644 48.8846 40.9641C48.0937 41.3638 47.2772 41.755 46.4693 42.1888C45.6046 42.5191 44.7777 42.9411 44.0029 43.4474C43.1524 43.8897 42.302 44.2554 41.4515 44.7231C40.601 45.1909 39.7506 45.5226 38.9001 46.0158C38.4227 46.1309 37.9644 46.3142 37.5394 46.5601C37.3268 46.6792 37.1227 46.8068 36.9186 46.9343L36.757 47.0364L36.6804 47.0874L36.5444 47.164L35.9405 47.5126L34.92 47.0364L34.2651 46.7132L32.9809 46.0158C32.1305 45.6076 31.28 45.1654 30.4295 44.7231C29.5791 44.2809 28.7966 43.7791 27.8782 43.4389C26.9597 43.0988 26.3218 42.5545 25.4713 42.2398C24.6247 41.9193 23.8149 41.5087 23.056 41.0151C22.3277 40.5172 21.539 40.1143 20.7088 39.816C19.8667 39.6042 19.0842 39.2027 18.421 38.6423C17.6301 38.3362 17.0007 37.7408 16.2098 37.5027C16.14 37.4358 16.0661 37.3733 15.9886 37.3156L15.8781 37.2391L15.6825 37.12C15.4188 36.9754 15.1552 36.8393 14.8745 36.7118C14.3217 36.4481 13.6839 36.1845 13.0801 35.8613L13.4288 35.6827C14.1007 35.3681 14.747 35.0874 15.3338 34.8323L15.776 34.6196L15.9376 34.5346L16.0652 34.4665C16.2353 34.373 16.3969 34.271 16.5585 34.1689C17.2152 33.8094 17.8909 33.4857 18.5826 33.1994C19.1694 32.7401 19.9603 32.7231 20.5046 32.2638C21.1424 31.9747 21.7208 31.626 22.3331 31.3709C22.7754 30.7755 23.4983 30.7841 24.034 30.5204C24.5698 30.2568 25.0291 29.772 25.6754 29.738C26.1048 29.3506 26.6359 29.0939 27.2063 28.9981C27.6651 28.742 28.1395 28.5148 28.6266 28.3177C29.0008 27.935 29.5621 27.9605 29.9448 27.7054C30.3584 27.556 30.757 27.3681 31.1354 27.1441C31.4701 26.927 31.8337 26.7581 32.2155 26.6423L33.1595 26.2086C34.0558 25.7194 35.0102 25.3451 36.0001 25.0945Z" fill="#5D270D"/>
<path d="M35.9997 30.7264C35.9997 30.8114 35.6255 31.1261 34.8345 31.5768L34.4093 31.8405C34.2583 31.9535 34.0958 32.0504 33.9245 32.1296C33.6864 32.1296 33.6609 32.5209 33.3717 32.4528C33.1522 32.5246 32.9497 32.6404 32.7764 32.793C32.5808 32.9461 32.3002 32.9461 32.1131 33.1672C31.926 33.3883 31.5177 33.1672 31.4072 33.5669C31.1734 33.742 30.9157 33.8824 30.6418 33.9837C30.2931 33.9837 30.106 34.2558 29.7913 34.4259C29.6188 34.4078 29.4448 34.4429 29.2928 34.5266C29.1408 34.6102 29.018 34.7382 28.9408 34.8936C28.8499 34.8624 28.7535 34.8504 28.6577 34.8582C28.5619 34.866 28.4688 34.8935 28.3842 34.9391C28.2995 34.9846 28.2252 35.0471 28.1659 35.1227C28.1065 35.1983 28.0635 35.2854 28.0394 35.3784C27.8863 35.455 27.7162 35.5145 27.5546 35.5825C27.393 35.6506 27.4185 35.6421 27.4355 35.7101C27.4055 35.7341 27.3796 35.7628 27.3589 35.7951C27.3091 35.8245 27.2544 35.8446 27.1974 35.8547H27.2909C27.6822 35.8547 27.5546 35.8547 27.444 35.9652C27.6141 35.9652 27.6311 35.9057 27.6481 35.9227L27.7672 36.0163C27.8524 36.0772 27.9321 36.1454 28.0053 36.2204C28.3115 36.5095 28.8558 36.416 29.1109 36.7562C29.4766 36.9518 29.8763 37.0878 30.242 37.309C30.5505 37.6264 30.959 37.8277 31.3986 37.8788C31.829 37.9975 32.233 38.1966 32.5893 38.4656C33.0559 38.4993 33.4901 38.7164 33.797 39.0694C34.1845 39.3149 34.5945 39.5228 35.0216 39.6903C35.2278 39.8003 35.4408 39.8969 35.6595 39.9794L35.8211 40.0475H35.8891C35.8891 40.0475 35.8891 40.0475 35.8891 40.107C35.8998 40.1117 35.9114 40.1141 35.9231 40.1141C35.9348 40.1141 35.9464 40.1117 35.9572 40.107H36.0337L36.1953 40.039C36.4059 39.9406 36.6007 39.8116 36.7736 39.6562C37.1223 39.3076 37.624 39.299 38.0068 39.0354C38.5085 39.0354 38.7807 38.5677 39.2144 38.4401C39.6284 38.2876 40.0248 38.0909 40.3966 37.8533C40.752 37.6003 41.1453 37.4052 41.5617 37.275C41.7913 36.7817 42.3526 36.9773 42.6928 36.7222C43.1265 36.6626 43.4157 36.3309 43.7984 36.1864C43.8804 36.1282 43.9689 36.0797 44.062 36.0418H44.2067H44.2661C44.3257 36.0418 44.4192 36.0418 44.3852 35.9567C44.4022 35.9547 44.4183 35.9481 44.4318 35.9377C44.4453 35.9272 44.4557 35.9132 44.4618 35.8972C44.4618 35.8972 44.4618 35.8972 44.5893 35.8462C44.3682 35.8462 44.4278 35.8462 44.4448 35.7781C44.4618 35.7101 44.4448 35.6846 44.3512 35.7016L44.2067 35.6251C44.0536 35.5514 43.9005 35.4663 43.7474 35.3699C43.5603 34.9787 43.1521 35.0212 42.8459 34.8852C42.5397 34.7491 42.1995 34.7236 41.9954 34.4174C41.7464 34.2116 41.4565 34.0609 41.145 33.9752C40.8558 33.8731 40.7878 33.3713 40.3796 33.5584C40.1074 33.4904 40.0139 33.0652 39.6737 33.1587C39.3335 33.2523 39.2229 32.9036 39.0103 32.793L38.415 32.4443C36.714 31.4493 35.7275 30.8114 35.7956 30.6839C35.8636 30.5563 37.1903 31.0496 39.4015 32.0276C39.6226 32.1296 39.9288 32.0786 40.0904 32.3338C40.32 32.4528 40.6262 32.4528 40.8303 32.674C41.1875 32.5804 41.3576 32.8866 41.6212 33.0311C41.8853 33.2001 42.1715 33.3318 42.4717 33.4224C42.8204 33.4224 43.016 33.771 43.3221 33.8306C43.436 33.9635 43.5767 34.0709 43.735 34.1457C43.8933 34.2204 44.0656 34.2608 44.2407 34.2643C44.3664 34.3966 44.5248 34.4934 44.6999 34.545C44.99 34.6476 45.274 34.7669 45.5504 34.9022C45.7346 35.1162 45.9723 35.2776 46.2392 35.3699C46.5454 35.4975 46.9281 35.625 47.3278 35.7696L47.5405 35.8547C47.2659 36.0111 46.9819 36.1503 46.69 36.2714C46.3923 36.416 46.1117 36.5435 45.8395 36.6966C45.5183 36.8394 45.2059 37.0013 44.904 37.1814L44.5553 37.377C44.4671 37.4246 44.3762 37.4672 44.2832 37.5046C43.9814 37.7935 43.604 37.9911 43.1946 38.0744C42.8387 38.2957 42.4663 38.489 42.0805 38.6527C41.7103 38.8797 41.3237 39.0787 40.9238 39.248C40.5581 39.4861 40.0734 39.4266 39.7502 39.8519C39.3675 40.0815 38.8998 40.2176 38.5511 40.4642C38.1209 40.6247 37.7101 40.8329 37.3264 41.085C37.0853 41.0818 36.8486 41.1499 36.646 41.2806L36.5014 41.3827L36.4249 41.4337L36.2888 41.5188L35.7275 41.893C35.5319 41.8079 35.3278 41.7229 35.1237 41.6208L34.8856 41.5102L34.7325 41.4337L34.1286 41.085C33.7034 40.8979 33.2782 40.6768 32.904 40.4642C32.5298 40.2516 32.1471 39.9624 31.7048 39.8433C31.2626 39.7243 30.9564 39.3501 30.5227 39.2395C30.1007 39.1328 29.7083 38.9322 29.3746 38.6527C28.9919 38.4571 28.7197 38.0659 28.2605 38.0659C27.8608 37.9298 27.41 37.9893 27.1719 37.5046C27.1715 37.4876 27.1715 37.4706 27.1719 37.4535L27.0443 37.3685L26.9507 37.309L26.8402 37.2409C26.5498 37.0349 26.2282 36.877 25.8877 36.7732C25.7164 36.564 25.4893 36.4077 25.2328 36.3224C24.9521 36.1949 24.5864 36.0673 24.2803 35.9312L24.4419 35.8462L25.4369 35.4294C25.7146 35.3105 25.9772 35.1592 26.2194 34.9787C26.4804 34.7938 26.7668 34.6477 27.0698 34.545C27.2428 34.4999 27.4088 34.4312 27.5631 34.3409C27.8097 34.0602 28.2604 34.2048 28.4816 33.9071C28.7962 33.788 29.0599 33.5925 29.332 33.4989C29.4596 33.0567 29.8933 33.2183 30.1825 33.1077C30.4716 32.9971 30.6077 32.6484 30.9734 32.7505C31.1095 32.3933 31.4497 32.4698 31.7134 32.4103C31.977 32.3508 32.1301 32.0871 32.4022 32.1041C32.5383 31.832 32.87 31.9766 33.0401 31.8235C33.2952 31.8235 33.4313 31.6364 33.6269 31.5768C33.7761 31.4567 33.9556 31.3801 34.1457 31.3557L34.6134 31.1686C35.4639 30.7944 35.9486 30.6498 35.9997 30.7264Z" fill="#98772E"/>
<path d="M0 20.9524C0 20.8504 0.0680287 20.7653 0.204103 20.6803H0.272154C0.272154 20.6803 0.323161 20.6293 0.35718 20.6378C0.391198 20.6463 0.416743 20.4081 0.442257 20.6378C0.442257 20.6973 0.51029 20.6377 0.544309 20.5952C0.578327 20.5527 0.612341 20.6803 0.64636 20.5952C0.680378 20.5102 0.731419 20.8674 0.765437 20.5952C0.765437 20.5357 0.850452 20.5527 0.892976 20.5952C0.892976 20.7823 0.978043 20.5952 1.02057 20.5952C1.02057 20.8163 1.11409 20.7228 1.15662 20.5952C1.20764 20.9014 1.25871 20.8589 1.30123 20.5952C1.35226 20.5952 1.40328 20.7058 1.45431 20.5952C1.50534 20.4847 1.56487 20.5187 1.6159 20.5952C1.66693 20.3911 1.72646 20.3996 1.77749 20.5952C1.83702 20.3741 1.88806 20.4591 1.94759 20.5952C2.00713 20.7313 2.06662 20.3996 2.11764 20.5952C2.18568 20.5952 2.24524 20.5442 2.30477 20.5952C2.36431 20.6463 2.4238 20.7908 2.48334 20.5952C2.54287 20.5357 2.61093 20.4677 2.67047 20.5952C2.7385 20.3571 2.79802 20.4591 2.86606 20.5952C2.93409 20.5527 2.99366 20.7228 3.0617 20.5952C3.12973 20.6377 3.18925 20.4932 3.25729 20.5952C3.32532 20.6973 3.39335 20.7313 3.46139 20.5952C3.52943 20.4591 3.58894 20.6633 3.65698 20.5952C3.71651 20.8163 3.78458 20.5187 3.84411 20.5952C3.90364 20.6718 3.97165 20.7143 4.03119 20.5952C4.09072 20.4762 4.15878 20.5102 4.21831 20.5952C4.27785 20.255 4.33735 20.6803 4.39688 20.5952C4.45641 20.7398 4.51595 20.5952 4.56698 20.5952C4.61801 20.5952 4.68606 20.7483 4.73708 20.5952C4.79662 20.5952 4.84765 20.4847 4.90719 20.5952C4.95821 20.4336 5.00924 20.7398 5.06026 20.5952C5.11 20.579 5.1636 20.579 5.21334 20.5952C5.26437 20.8589 5.31538 20.6377 5.3579 20.5952C5.40043 20.5527 5.45148 20.4506 5.49401 20.5952C5.54504 20.5952 5.58754 20.7313 5.63006 20.5952C5.67258 20.4591 5.71512 20.9779 5.74914 20.5952C5.79166 20.5357 5.82569 20.8674 5.86821 20.5952C5.91074 20.3231 5.94475 20.5952 5.97026 20.5952L6.07232 20.6378C6.35297 20.7483 6.51457 20.8844 6.51457 21.029C6.51457 21.1735 6.31895 21.3266 5.97026 21.4542C5.97026 21.4542 5.90223 21.6498 5.86821 21.4542C5.82569 21.4542 5.79166 21.5903 5.74914 21.4542C5.74914 21.7008 5.67258 21.4967 5.63006 21.4542C5.58754 21.4117 5.54504 21.3862 5.49401 21.4542C5.44298 21.5222 5.40893 21.3862 5.3579 21.4542C5.31538 21.3011 5.26437 21.3436 5.21334 21.4542C5.16231 21.3096 5.11129 21.4542 5.06026 21.4542C5.00924 21.2246 4.95821 21.3862 4.90719 21.4542C4.85616 21.5222 4.79662 21.4542 4.73708 21.4542C4.67755 21.4542 4.62651 21.5137 4.56698 21.4542C4.51595 21.5563 4.45641 21.5903 4.39688 21.4542C4.33735 21.5307 4.27785 21.4542 4.21831 21.4542C4.15878 21.4542 4.09072 21.4542 4.03119 21.4542C3.97165 21.4542 3.91215 21.2161 3.84411 21.4542C3.78458 21.4542 3.71651 21.4117 3.65698 21.4542C3.59745 21.4967 3.52092 21.3947 3.46139 21.4542C3.39335 21.2076 3.32532 21.3606 3.25729 21.4542C3.18925 21.5478 3.12973 21.4542 3.0617 21.4542C2.99825 21.4756 2.9295 21.4756 2.86606 21.4542C2.79802 21.5307 2.7385 21.3521 2.67047 21.4542C2.60243 21.5563 2.54287 21.3351 2.48334 21.4542C2.4238 21.5733 2.36431 21.5733 2.30477 21.4542C2.24524 21.4542 2.18568 21.2331 2.11764 21.4542C2.06662 21.5052 2.00713 21.7859 1.94759 21.4542C1.88806 21.5307 1.83702 21.2841 1.77749 21.4542C1.72646 21.2076 1.66693 21.4542 1.6159 21.4542C1.56487 21.4542 1.50534 21.3181 1.45431 21.4542C1.40328 21.5903 1.35226 21.3862 1.30123 21.4542C1.25021 21.5222 1.20764 21.2671 1.15662 21.4542C1.15662 21.4542 1.06309 21.4542 1.02057 21.4542C1.02057 21.7944 0.935499 21.4542 0.892976 21.4542C0.850452 21.4542 0.80796 21.6753 0.765437 21.4542C0.765437 21.7093 0.688883 21.4542 0.64636 21.4542C0.603837 21.4542 0.578327 21.5648 0.544309 21.4542C0.544309 21.6328 0.476276 21.3522 0.442257 21.4117C0.442257 21.2926 0.382694 21.4117 0.35718 21.4117C0.331666 21.4117 0.297668 21.4117 0.272154 21.3691H0.204103C0.0680287 21.131 0 21.046 0 20.9524Z" fill="#5D270D"/>
<path d="M0 25.9363C0 25.8428 0.0680287 25.7493 0.204103 25.6642L0.272154 25.6217C0.272154 25.6217 0.323161 25.5707 0.35718 25.6217C0.391198 25.6727 0.416743 25.3836 0.442257 25.5792C0.442257 25.6387 0.51029 25.5792 0.544309 25.5792C0.578327 25.5792 0.612341 25.6557 0.64636 25.5792C0.688883 25.3325 0.731419 25.8428 0.765437 25.5366C0.765437 25.4771 0.850452 25.4941 0.892976 25.5366C0.892976 25.7152 0.978043 25.5366 1.02057 25.5366C1.02057 25.7578 1.11409 25.6642 1.15662 25.5366C1.20764 25.8428 1.25871 25.7918 1.30123 25.5366C1.35226 25.5366 1.40328 25.6472 1.45431 25.5366C1.50534 25.4261 1.56487 25.4601 1.6159 25.5366C1.66693 25.3325 1.72646 25.341 1.77749 25.5366C1.83702 25.3155 1.88806 25.4091 1.94759 25.5366C2.00713 25.6642 2.06662 25.341 2.11764 25.5366C2.18568 25.5366 2.24524 25.4856 2.30477 25.5366C2.36431 25.5877 2.4238 25.7322 2.48334 25.5366C2.54287 25.4771 2.61093 25.4091 2.67047 25.5366C2.7385 25.2985 2.79802 25.4006 2.86606 25.5366C2.93409 25.4941 2.99366 25.6642 3.0617 25.5366C3.12973 25.5792 3.18925 25.4346 3.25729 25.5366C3.32532 25.6387 3.39335 25.6727 3.46139 25.5366C3.52943 25.4006 3.58894 25.6047 3.65698 25.5366C3.71651 25.7578 3.78458 25.4601 3.84411 25.5366C3.90364 25.6132 3.97165 25.6642 4.03119 25.5366C4.09072 25.4091 4.15878 25.4516 4.21831 25.5366C4.27785 25.2049 4.33735 25.6217 4.39688 25.5366C4.45641 25.6812 4.51595 25.5366 4.56698 25.5366C4.61801 25.5366 4.68606 25.6897 4.73708 25.5366C4.79662 25.5366 4.84765 25.4261 4.90719 25.5366C4.95821 25.3665 5.00924 25.6727 5.06026 25.5366C5.11 25.5204 5.1636 25.5204 5.21334 25.5366C5.26437 25.8003 5.31538 25.5877 5.3579 25.5366C5.40043 25.4856 5.45148 25.3835 5.49401 25.5366C5.54504 25.5366 5.58754 25.6727 5.63006 25.5366C5.67258 25.4006 5.71512 25.9193 5.74914 25.5366C5.79166 25.4771 5.82569 25.8088 5.86821 25.5792C5.91074 25.3495 5.94475 25.5792 5.97026 25.5792H6.07232C6.35297 25.6897 6.51457 25.8258 6.51457 25.9704C6.51457 26.115 6.31895 26.268 5.97026 26.3956C5.97026 26.3956 5.90223 26.5912 5.86821 26.3956C5.82569 26.3956 5.79166 26.5402 5.74914 26.3956C5.74914 26.6422 5.67258 26.3956 5.63006 26.3956C5.58754 26.3956 5.54504 26.3276 5.49401 26.3956C5.44298 26.4636 5.40893 26.3191 5.3579 26.3956C5.31538 26.2425 5.26437 26.285 5.21334 26.3956C5.16231 26.251 5.11129 26.3956 5.06026 26.3956C5.00924 26.1745 4.95821 26.3276 4.90719 26.3956C4.85616 26.4636 4.79662 26.3956 4.73708 26.3956C4.67755 26.3956 4.62651 26.4551 4.56698 26.3956C4.51595 26.4977 4.45641 26.5402 4.39688 26.3956C4.33735 26.4636 4.27785 26.3956 4.21831 26.3956C4.15878 26.3956 4.09072 26.3956 4.03119 26.3956C3.97165 26.3956 3.91215 26.149 3.84411 26.3956C3.78458 26.3956 3.71651 26.3531 3.65698 26.3956C3.59745 26.4381 3.52092 26.3276 3.46139 26.3956C3.39335 26.149 3.32532 26.3021 3.25729 26.3956C3.18925 26.4892 3.12973 26.3956 3.0617 26.3956C2.9976 26.4125 2.93016 26.4125 2.86606 26.3956C2.79802 26.4636 2.7385 26.285 2.67047 26.3956C2.60243 26.5062 2.54287 26.285 2.48334 26.3956C2.4238 26.5062 2.36431 26.5062 2.30477 26.3956C2.24524 26.3956 2.18568 26.1745 2.11764 26.3956C2.06662 26.4381 2.00713 26.7188 1.94759 26.3956C1.88806 26.4807 1.83702 26.2255 1.77749 26.3956C1.72646 26.149 1.66693 26.3956 1.6159 26.3956C1.56487 26.3956 1.50534 26.2595 1.45431 26.3956C1.40328 26.5317 1.35226 26.3276 1.30123 26.3956C1.25021 26.4636 1.20764 26.2085 1.15662 26.3956C1.15662 26.3956 1.06309 26.3956 1.02057 26.3956C1.02057 26.7273 0.935499 26.3956 0.892976 26.3956C0.850452 26.3956 0.80796 26.6167 0.765437 26.3956C0.765437 26.6507 0.688883 26.3956 0.64636 26.3956C0.603837 26.3956 0.578327 26.5062 0.544309 26.3956C0.544309 26.5742 0.476276 26.2935 0.442257 26.3956C0.442257 26.285 0.382694 26.3956 0.35718 26.3956C0.331666 26.3956 0.297668 26.3956 0.272154 26.3531L0.204103 26.3106C0.0680287 26.1235 0 26.0299 0 25.9363Z" fill="#5D270D"/>
<path d="M0 30.9177C0 30.8242 0.0680287 30.7306 0.204103 30.6455H0.272154C0.272154 30.6455 0.323161 30.586 0.35718 30.6455C0.391198 30.7051 0.416743 30.4159 0.442257 30.603C0.442257 30.6626 0.51029 30.603 0.544309 30.603C0.578327 30.603 0.612341 30.6796 0.64636 30.603C0.688883 30.3564 0.731419 30.8667 0.765437 30.603C0.765437 30.535 0.850452 30.552 0.892976 30.603C0.892976 30.7901 0.978043 30.603 1.02057 30.603C1.02057 30.8242 1.11409 30.7306 1.15662 30.603C1.20764 30.9092 1.25871 30.8582 1.30123 30.603C1.35226 30.603 1.40328 30.7051 1.45431 30.603C1.50534 30.501 1.56487 30.518 1.6159 30.603C1.66693 30.3989 1.72646 30.4074 1.77749 30.603C1.83702 30.3819 1.88806 30.4755 1.94759 30.603C2.00713 30.7306 2.06662 30.4074 2.11764 30.603C2.18568 30.603 2.24524 30.552 2.30477 30.603C2.36431 30.6541 2.4238 30.7901 2.48334 30.603C2.54287 30.552 2.61093 30.4755 2.67047 30.603C2.7385 30.3649 2.79802 30.4755 2.86606 30.603C2.93409 30.603 2.99366 30.7306 3.0617 30.603C3.12973 30.603 3.18925 30.4925 3.25729 30.603C3.32532 30.7136 3.39335 30.7476 3.46139 30.603C3.52943 30.4585 3.58894 30.6626 3.65698 30.603C3.71651 30.8242 3.78458 30.535 3.84411 30.603C3.90364 30.6711 3.97165 30.7306 4.03119 30.603C4.09072 30.4755 4.15878 30.518 4.21831 30.603C4.27785 30.2629 4.33735 30.6881 4.39688 30.603C4.45641 30.7476 4.51595 30.603 4.56698 30.603C4.61801 30.603 4.68606 30.7561 4.73708 30.603C4.79662 30.603 4.84765 30.4925 4.90719 30.603C4.95821 30.4329 5.00924 30.7391 5.06026 30.603C5.11129 30.467 5.16231 30.603 5.21334 30.603C5.26437 30.8582 5.31538 30.603 5.3579 30.603C5.40043 30.603 5.45148 30.45 5.49401 30.603C5.54504 30.603 5.58754 30.7391 5.63006 30.603C5.67258 30.467 5.71512 30.9857 5.74914 30.603C5.79166 30.535 5.82569 30.8667 5.86821 30.603C5.91074 30.3394 5.94475 30.603 5.97026 30.603H6.07232C6.35297 30.7221 6.51457 30.8497 6.51457 30.9942C6.51457 31.1388 6.31895 31.3004 5.97026 31.4195C5.97026 31.4195 5.90223 31.6151 5.86821 31.4195C5.82569 31.4195 5.79166 31.5641 5.74914 31.4195C5.74914 31.6661 5.67258 31.4705 5.63006 31.4195C5.58754 31.3684 5.54504 31.3514 5.49401 31.4195C5.44298 31.4875 5.40893 31.3429 5.3579 31.4195C5.31538 31.2664 5.26437 31.3089 5.21334 31.4195C5.16231 31.2749 5.11129 31.4195 5.06026 31.4195C5.00924 31.1984 4.95821 31.3599 4.90719 31.4195C4.85616 31.479 4.79662 31.4195 4.73708 31.4195C4.67755 31.4195 4.62651 31.479 4.56698 31.4195C4.51595 31.5215 4.45641 31.5641 4.39688 31.4195C4.33735 31.4875 4.27785 31.4195 4.21831 31.4195C4.15878 31.4195 4.09072 31.4195 4.03119 31.4195C3.97165 31.4195 3.91215 31.1813 3.84411 31.4195C3.78458 31.4195 3.71651 31.4195 3.65698 31.4195C3.59745 31.4195 3.52092 31.3514 3.46139 31.4195C3.39335 31.1728 3.32532 31.3259 3.25729 31.4195C3.18925 31.513 3.12973 31.4195 3.0617 31.4195C2.99825 31.4409 2.9295 31.4409 2.86606 31.4195C2.79802 31.4875 2.7385 31.3089 2.67047 31.4195C2.60243 31.53 2.54287 31.3089 2.48334 31.4195C2.4238 31.53 2.36431 31.53 2.30477 31.4195C2.24524 31.3089 2.18568 31.1984 2.11764 31.4195C2.06662 31.462 2.00713 31.7426 1.94759 31.4195C1.88806 31.5045 1.83702 31.2494 1.77749 31.4195C1.72646 31.1728 1.66693 31.4195 1.6159 31.4195C1.56487 31.4195 1.50534 31.2834 1.45431 31.4195C1.40328 31.5555 1.35226 31.3599 1.30123 31.4195C1.25021 31.479 1.20764 31.2324 1.15662 31.4195C1.15662 31.4195 1.06309 31.4195 1.02057 31.4195C1.02057 31.7512 0.935499 31.4195 0.892976 31.4195C0.850452 31.4195 0.80796 31.6406 0.765437 31.4195C0.765437 31.6746 0.688883 31.4195 0.64636 31.4195C0.603837 31.4195 0.578327 31.53 0.544309 31.4195C0.544309 31.5981 0.476276 31.3174 0.442257 31.4195C0.442257 31.3004 0.382694 31.4195 0.35718 31.4195C0.331666 31.4195 0.297668 31.4195 0.272154 31.3769H0.204103C0.0680287 31.1048 0 31.0113 0 30.9177Z" fill="#5D270D"/>
<path d="M0 35.9049C0 35.8113 0.0680287 35.7178 0.204103 35.6412L0.272154 35.5987C0.272154 35.5987 0.323161 35.5477 0.35718 35.5562C0.391198 35.5647 0.416743 35.3265 0.442257 35.5562C0.442257 35.6157 0.51029 35.5562 0.544309 35.5562C0.578327 35.5562 0.612341 35.6327 0.64636 35.5562C0.688883 35.3095 0.731419 35.8198 0.765437 35.5562C0.765437 35.4881 0.850452 35.5051 0.892976 35.5562C0.892976 35.7433 0.978043 35.5562 1.02057 35.5562C1.02057 35.7858 1.11409 35.6837 1.15662 35.5562C1.20764 35.8623 1.25871 35.8113 1.30123 35.5562C1.35226 35.5562 1.40328 35.6667 1.45431 35.5562C1.50534 35.4456 1.56487 35.4796 1.6159 35.5562C1.66693 35.352 1.72646 35.3606 1.77749 35.5562C1.83702 35.335 1.88806 35.4201 1.94759 35.5562C2.00713 35.6922 2.06662 35.3691 2.11764 35.5562C2.18568 35.5562 2.24524 35.5051 2.30477 35.5562C2.36431 35.6072 2.4238 35.7433 2.48334 35.5562C2.54287 35.5051 2.61093 35.4286 2.67047 35.5562C2.7385 35.3265 2.79802 35.4286 2.86606 35.5562C2.93409 35.5562 2.99366 35.6837 3.0617 35.5562C3.12973 35.5562 3.18925 35.4541 3.25729 35.5562C3.32532 35.6582 3.39335 35.6922 3.46139 35.5562C3.52943 35.4201 3.58894 35.6157 3.65698 35.5562C3.71651 35.7773 3.78458 35.4881 3.84411 35.5562C3.90364 35.6242 3.97165 35.6837 4.03119 35.5562C4.09072 35.4286 4.15878 35.4711 4.21831 35.5562C4.27785 35.216 4.33735 35.6412 4.39688 35.5562C4.45641 35.7007 4.51595 35.5562 4.56698 35.5562C4.61801 35.5562 4.68606 35.7177 4.73708 35.5562C4.79662 35.5562 4.84765 35.4456 4.90719 35.5562C4.95821 35.3861 5.00924 35.7007 5.06026 35.5562C5.11 35.5399 5.1636 35.5399 5.21334 35.5562C5.26437 35.8198 5.31538 35.5987 5.3579 35.5562C5.40043 35.5136 5.45148 35.4031 5.49401 35.5562C5.54504 35.5562 5.58754 35.7007 5.63006 35.5562C5.67258 35.4116 5.71512 35.9389 5.74914 35.5562C5.79166 35.4881 5.82569 35.8283 5.86821 35.5562C5.91074 35.284 5.94475 35.5562 5.97026 35.5562H6.07232C6.35297 35.6752 6.51457 35.8028 6.51457 35.9474C6.51457 36.092 6.31895 36.2536 5.97026 36.3726C5.97026 36.3726 5.90223 36.5682 5.86821 36.3726C5.82569 36.3726 5.79166 36.5172 5.74914 36.3726C5.74914 36.6193 5.67258 36.4237 5.63006 36.3726C5.58754 36.3216 5.54504 36.3046 5.49401 36.3726C5.44298 36.4407 5.40893 36.3046 5.3579 36.3726C5.31538 36.228 5.26437 36.2621 5.21334 36.3726C5.16231 36.2195 5.11129 36.3726 5.06026 36.3726C5.00924 36.1515 4.95821 36.3131 4.90719 36.3726C4.85616 36.4322 4.79662 36.3726 4.73708 36.3726C4.67755 36.3726 4.62651 36.4237 4.56698 36.3726C4.51595 36.4747 4.45641 36.5172 4.39688 36.3726C4.33735 36.4492 4.27785 36.3726 4.21831 36.3726C4.15878 36.3726 4.09072 36.3726 4.03119 36.3726C3.97165 36.3726 3.91215 36.1345 3.84411 36.3726C3.78458 36.3726 3.71651 36.3726 3.65698 36.3726C3.59745 36.3726 3.52092 36.3046 3.46139 36.3726C3.39335 36.1345 3.32532 36.2791 3.25729 36.3726C3.18925 36.4662 3.12973 36.3726 3.0617 36.3726C2.99825 36.394 2.9295 36.394 2.86606 36.3726C2.79802 36.4407 2.7385 36.2706 2.67047 36.3726C2.60243 36.4747 2.54287 36.2621 2.48334 36.3726C2.4238 36.4832 2.36431 36.4832 2.30477 36.3726C2.24524 36.2621 2.18568 36.143 2.11764 36.3726C2.06662 36.4151 2.00713 36.6958 1.94759 36.3726C1.88806 36.4577 1.83702 36.211 1.77749 36.3726C1.72646 36.1175 1.66693 36.3726 1.6159 36.3726C1.56487 36.3726 1.50534 36.2451 1.45431 36.3726C1.40328 36.5002 1.35226 36.3131 1.30123 36.3726C1.25021 36.4322 1.20764 36.177 1.15662 36.3726C1.15662 36.3726 1.06309 36.3726 1.02057 36.3726C1.02057 36.7128 0.935499 36.3726 0.892976 36.3726C0.850452 36.3726 0.80796 36.6022 0.765437 36.3726C0.765437 36.6363 0.688883 36.3726 0.64636 36.3726C0.603837 36.3726 0.578327 36.4832 0.544309 36.3726C0.544309 36.5512 0.476276 36.2706 0.442257 36.3726C0.442257 36.2536 0.382694 36.3726 0.35718 36.3301C0.331666 36.2876 0.297668 36.3301 0.272154 36.3301H0.204103C0.0680287 36.092 0 35.9984 0 35.9049Z" fill="#5D270D"/>
<path d="M0 40.8541C0 40.7605 0.0680287 40.6755 0.204103 40.5904L0.272154 40.5479C0.272154 40.5479 0.323161 40.4969 0.35718 40.5054C0.391198 40.5139 0.416743 40.2758 0.442257 40.5054C0.442257 40.5564 0.51029 40.5054 0.544309 40.5054C0.578327 40.5054 0.612341 40.5819 0.64636 40.5054C0.688883 40.2587 0.731419 40.7775 0.765437 40.5054C0.765437 40.4373 0.850452 40.4544 0.892976 40.5054C0.892976 40.6925 0.978043 40.5054 1.02057 40.5054C1.02057 40.735 1.11409 40.6329 1.15662 40.5054C1.20764 40.8115 1.25871 40.769 1.30123 40.5054C1.35226 40.5054 1.40328 40.6159 1.45431 40.5054C1.50534 40.3948 1.56487 40.4288 1.6159 40.5054C1.66693 40.3013 1.72646 40.3098 1.77749 40.5054C1.83702 40.2843 1.88806 40.3693 1.94759 40.5054C2.00713 40.6415 2.06662 40.3183 2.11764 40.5054C2.18568 40.5054 2.24524 40.4629 2.30477 40.5054C2.36431 40.5479 2.4238 40.6925 2.48334 40.5054C2.54287 40.4544 2.61093 40.3778 2.67047 40.5054C2.7385 40.2758 2.79802 40.3778 2.86606 40.5054C2.93409 40.5054 2.99366 40.6329 3.0617 40.5054C3.12973 40.5054 3.18925 40.4033 3.25729 40.5054C3.32532 40.6074 3.39335 40.6415 3.46139 40.5054C3.52943 40.3693 3.58894 40.5649 3.65698 40.5054C3.71651 40.7265 3.78458 40.4373 3.84411 40.5054C3.90364 40.5734 3.97165 40.6329 4.03119 40.5054C4.09072 40.3778 4.15878 40.4288 4.21831 40.5054C4.27785 40.1652 4.33735 40.5904 4.39688 40.5054C4.45641 40.65 4.51595 40.5054 4.56698 40.5054C4.61801 40.5054 4.68606 40.667 4.73708 40.5054C4.79662 40.5054 4.84765 40.3948 4.90719 40.5054C4.95821 40.3438 5.00924 40.65 5.06026 40.5054C5.11 40.4891 5.1636 40.4891 5.21334 40.5054C5.26437 40.769 5.31538 40.5479 5.3579 40.5054C5.40043 40.4629 5.45148 40.3523 5.49401 40.5054C5.54504 40.5054 5.58754 40.65 5.63006 40.5054C5.67258 40.3608 5.71512 40.8881 5.74914 40.5054C5.79166 40.4458 5.82569 40.7775 5.86821 40.5054C5.91074 40.2332 5.94475 40.5054 5.97026 40.5054H6.07232C6.35297 40.6159 6.51457 40.752 6.51457 40.8881C6.51457 41.0242 6.31895 41.1943 5.97026 41.3133C5.97026 41.3133 5.90223 41.5089 5.86821 41.3133C5.82569 41.3133 5.79166 41.4579 5.74914 41.3558C5.74914 41.594 5.67258 41.3984 5.63006 41.3558C5.58754 41.3133 5.54504 41.2878 5.49401 41.3558C5.44298 41.4239 5.40893 41.2878 5.3579 41.3558C5.31538 41.2028 5.26437 41.2368 5.21334 41.3558C5.16231 41.2113 5.11129 41.3558 5.06026 41.3558C5.00924 41.1262 4.95821 41.2878 4.90719 41.3558C4.85616 41.4239 4.79662 41.3558 4.73708 41.3558C4.67755 41.3558 4.62651 41.4154 4.56698 41.3558C4.51595 41.4664 4.45641 41.5004 4.39688 41.3558C4.33735 41.4324 4.27785 41.3558 4.21831 41.3558C4.15878 41.3558 4.09072 41.3558 4.03119 41.3558C3.97165 41.3558 3.91215 41.1177 3.84411 41.3558C3.78458 41.3558 3.71651 41.3558 3.65698 41.3558C3.59745 41.3558 3.52092 41.2963 3.46139 41.3558C3.39335 41.1092 3.32532 41.2538 3.25729 41.3558C3.18925 41.4579 3.12973 41.3558 3.0617 41.3558C2.99825 41.3772 2.9295 41.3772 2.86606 41.3558C2.79802 41.4324 2.7385 41.2538 2.67047 41.3558C2.60243 41.4579 2.54287 41.2453 2.48334 41.3558C2.4238 41.4664 2.36431 41.4664 2.30477 41.3558C2.24524 41.2453 2.18568 41.1262 2.11764 41.3558C2.06662 41.4069 2.00713 41.6875 1.94759 41.3558C1.88806 41.4409 1.83702 41.1943 1.77749 41.3558C1.72646 41.1007 1.66693 41.3558 1.6159 41.3558C1.56487 41.3558 1.50534 41.2283 1.45431 41.3558C1.40328 41.4834 1.35226 41.2878 1.30123 41.3558C1.25021 41.4239 1.20764 41.1687 1.15662 41.3558C1.15662 41.3558 1.06309 41.3558 1.02057 41.3558C1.02057 41.696 0.935499 41.3558 0.892976 41.3558C0.850452 41.3558 0.80796 41.5855 0.765437 41.3558C0.765437 41.611 0.688883 41.3559 0.64636 41.3133C0.603837 41.2708 0.578327 41.4239 0.544309 41.3133C0.544309 41.4919 0.476276 41.2198 0.442257 41.3133C0.442257 41.1943 0.382694 41.3133 0.35718 41.2708C0.331666 41.2283 0.297668 41.2708 0.272154 41.2708L0.204103 41.2283C0.0680287 41.0752 0 40.9816 0 40.8541Z" fill="#5D270D"/>
<path d="M0 45.8697C0 45.7761 0.0680287 45.6911 0.204103 45.6061H0.272154C0.272154 45.6061 0.323161 45.555 0.35718 45.5635C0.391198 45.572 0.416743 45.3339 0.442257 45.5635C0.442257 45.6146 0.51029 45.5635 0.544309 45.521C0.578327 45.4785 0.612341 45.6061 0.64636 45.521C0.680378 45.436 0.731419 45.7932 0.765437 45.521C0.765437 45.453 0.850452 45.47 0.892976 45.521C0.892976 45.7081 0.978043 45.521 1.02057 45.521C1.02057 45.7421 1.11409 45.6486 1.15662 45.521C1.20764 45.8272 1.25871 45.7846 1.30123 45.521C1.35226 45.521 1.40328 45.6316 1.45431 45.521C1.50534 45.4104 1.56487 45.4445 1.6159 45.521C1.66693 45.3169 1.72646 45.3254 1.77749 45.521C1.83702 45.2999 1.88806 45.3849 1.94759 45.521C2.00713 45.6571 2.06662 45.3254 2.11764 45.521C2.18568 45.521 2.24524 45.47 2.30477 45.521C2.36431 45.572 2.4238 45.7081 2.48334 45.521C2.54287 45.4615 2.61093 45.3849 2.67047 45.521C2.7385 45.2914 2.79802 45.3934 2.86606 45.521C2.93409 45.4785 2.99366 45.6486 3.0617 45.521C3.12973 45.521 3.18925 45.4189 3.25729 45.521C3.32532 45.6231 3.39335 45.6571 3.46139 45.521C3.52943 45.3849 3.58894 45.5805 3.65698 45.521C3.71651 45.7336 3.78458 45.4445 3.84411 45.521C3.90364 45.5975 3.97165 45.6486 4.03119 45.521C4.09072 45.3934 4.15878 45.436 4.21831 45.521C4.27785 45.1808 4.33735 45.6061 4.39688 45.521C4.45641 45.6571 4.51595 45.521 4.56698 45.521C4.61801 45.521 4.68606 45.6741 4.73708 45.521C4.79662 45.521 4.84765 45.4104 4.90719 45.521C4.95821 45.3594 5.00924 45.6656 5.06026 45.521C5.11 45.5048 5.1636 45.5048 5.21334 45.521C5.26437 45.7846 5.31538 45.5635 5.3579 45.521C5.40043 45.4785 5.45148 45.3764 5.49401 45.521C5.54504 45.521 5.58754 45.6571 5.63006 45.521C5.67258 45.3849 5.71512 45.9037 5.74914 45.521C5.79166 45.4615 5.82569 45.7932 5.86821 45.521C5.91074 45.2489 5.94475 45.521 5.97026 45.521L6.07232 45.5635C6.35297 45.6741 6.51457 45.8102 6.51457 45.9462C6.51457 46.0823 6.31895 46.2524 5.97026 46.38C5.97026 46.38 5.90223 46.5756 5.86821 46.38C5.82569 46.38 5.79166 46.5161 5.74914 46.38C5.74914 46.6266 5.67258 46.4225 5.63006 46.38C5.58754 46.3375 5.54504 46.3119 5.49401 46.38C5.44298 46.448 5.40893 46.3119 5.3579 46.38C5.31538 46.2269 5.26437 46.2694 5.21334 46.38C5.16231 46.2354 5.11129 46.38 5.06026 46.38C5.00924 46.1504 4.95821 46.3119 4.90719 46.38C4.85616 46.448 4.79662 46.38 4.73708 46.38C4.67755 46.38 4.62651 46.4395 4.56698 46.38C4.51595 46.4905 4.45641 46.5246 4.39688 46.38C4.33735 46.4565 4.27785 46.38 4.21831 46.38C4.15878 46.38 4.09072 46.38 4.03119 46.38C3.97165 46.38 3.91215 46.1419 3.84411 46.38C3.78458 46.38 3.71651 46.38 3.65698 46.38C3.59745 46.38 3.52092 46.3204 3.46139 46.38C3.39335 46.1333 3.32532 46.2864 3.25729 46.38C3.18925 46.4735 3.12973 46.38 3.0617 46.38C2.99825 46.4014 2.9295 46.4014 2.86606 46.38C2.79802 46.4565 2.7385 46.2779 2.67047 46.38C2.60243 46.482 2.54287 46.2694 2.48334 46.38C2.4238 46.4905 2.36431 46.4905 2.30477 46.38C2.24524 46.2694 2.18568 46.1589 2.11764 46.38C2.06662 46.431 2.00713 46.7117 1.94759 46.38C1.88806 46.465 1.83702 46.2184 1.77749 46.38C1.72646 46.1333 1.66693 46.38 1.6159 46.38C1.56487 46.38 1.50534 46.2439 1.45431 46.38C1.40328 46.5161 1.35226 46.3119 1.30123 46.38C1.25021 46.448 1.20764 46.1929 1.15662 46.38C1.15662 46.38 1.06309 46.38 1.02057 46.38C1.02057 46.7202 0.935499 46.38 0.892976 46.38C0.850452 46.38 0.80796 46.6011 0.765437 46.38C0.765437 46.6351 0.688883 46.38 0.64636 46.38C0.603837 46.38 0.578327 46.482 0.544309 46.38C0.544309 46.5586 0.476276 46.2779 0.442257 46.3375C0.442257 46.2184 0.382694 46.3375 0.35718 46.3375C0.331666 46.3375 0.297668 46.3375 0.272154 46.2949H0.204103C0.0680287 46.0568 0 45.9547 0 45.8697Z" fill="#5D270D"/>
<path d="M0 50.8626C0 50.7605 0.0680287 50.6755 0.204103 50.5904L0.272154 50.5479C0.272154 50.5479 0.323161 50.4969 0.35718 50.5479C0.391198 50.5989 0.416743 50.3098 0.442257 50.5054C0.442257 50.5649 0.51029 50.5054 0.544309 50.5054C0.578327 50.5054 0.612341 50.5819 0.64636 50.5054C0.680378 50.4288 0.731419 50.7775 0.765437 50.5054C0.765437 50.4458 0.850452 50.4629 0.892976 50.5054C0.892976 50.6925 0.978043 50.5054 1.02057 50.5054C1.02057 50.7265 1.11409 50.6329 1.15662 50.5054C1.20764 50.8115 1.25871 50.769 1.30123 50.5054C1.35226 50.5054 1.40328 50.6159 1.45431 50.5054C1.50534 50.3948 1.56487 50.4288 1.6159 50.5054C1.66693 50.3013 1.72646 50.3098 1.77749 50.5054C1.83702 50.2843 1.88806 50.3693 1.94759 50.5054C2.00713 50.6415 2.06662 50.3098 2.11764 50.5054C2.18568 50.5054 2.24524 50.4544 2.30477 50.5054C2.36431 50.5564 2.4238 50.701 2.48334 50.5054C2.54287 50.4458 2.61093 50.3778 2.67047 50.5054C2.7385 50.2673 2.79802 50.3693 2.86606 50.5054C2.93409 50.4629 2.99366 50.6329 3.0617 50.5054C3.12973 50.5479 3.18925 50.4033 3.25729 50.5054C3.32532 50.6074 3.39335 50.6415 3.46139 50.5054C3.52943 50.3693 3.58894 50.5734 3.65698 50.5054C3.71651 50.7265 3.78458 50.4288 3.84411 50.5054C3.90364 50.5819 3.97165 50.6244 4.03119 50.5054C4.09072 50.3863 4.15878 50.4203 4.21831 50.5054C4.27785 50.1652 4.33735 50.5904 4.39688 50.5054C4.45641 50.6415 4.51595 50.5054 4.56698 50.5054C4.61801 50.5054 4.68606 50.6585 4.73708 50.5054C4.79662 50.5054 4.84765 50.3948 4.90719 50.5054C4.95821 50.3438 5.00924 50.65 5.06026 50.5054C5.11 50.4891 5.1636 50.4891 5.21334 50.5054C5.26437 50.769 5.31538 50.5054 5.3579 50.5054C5.40043 50.5054 5.45148 50.3608 5.49401 50.5054C5.54504 50.5054 5.58754 50.6415 5.63006 50.5054C5.67258 50.3693 5.71512 50.8881 5.74914 50.5054C5.79166 50.4458 5.82569 50.7775 5.86821 50.5054C5.91074 50.2332 5.94475 50.5054 5.97026 50.5054H6.07232C6.35297 50.6159 6.51457 50.752 6.51457 50.8966C6.51457 51.0412 6.31895 51.1942 5.97026 51.3218C5.97026 51.3218 5.90223 51.5174 5.86821 51.3218C5.82569 51.3218 5.79166 51.4579 5.74914 51.3218C5.74914 51.5685 5.67258 51.3218 5.63006 51.3218C5.58754 51.3218 5.54504 51.2538 5.49401 51.3218C5.44298 51.3899 5.40893 51.2538 5.3579 51.3218C5.31538 51.1687 5.26437 51.2113 5.21334 51.3218C5.16231 51.1772 5.11129 51.3218 5.06026 51.3218C5.00924 51.0922 4.95821 51.2538 4.90719 51.3218C4.85616 51.3899 4.79662 51.3218 4.73708 51.3218C4.67755 51.3218 4.62651 51.3813 4.56698 51.3218C4.51595 51.4324 4.45641 51.4749 4.39688 51.3218C4.33735 51.3984 4.27785 51.3218 4.21831 51.3218C4.15878 51.3218 4.09072 51.3218 4.03119 51.3218C3.97165 51.3218 3.91215 51.0837 3.84411 51.3218C3.78458 51.3218 3.71651 51.2793 3.65698 51.3218C3.59745 51.3643 3.52092 51.2538 3.46139 51.3218C3.39335 51.0752 3.32532 51.2283 3.25729 51.3218C3.18925 51.4154 3.12973 51.3218 3.0617 51.3218C2.9976 51.3388 2.93016 51.3388 2.86606 51.3218C2.79802 51.3899 2.7385 51.2113 2.67047 51.3218C2.60243 51.4324 2.54287 51.2113 2.48334 51.3218C2.4238 51.4324 2.36431 51.4409 2.30477 51.3218C2.24524 51.2028 2.18568 51.1007 2.11764 51.3218C2.06662 51.3728 2.00713 51.6535 1.94759 51.3218C1.88806 51.4154 1.83702 51.1602 1.77749 51.3218C1.72646 51.0752 1.66693 51.3218 1.6159 51.3218C1.56487 51.3218 1.50534 51.1857 1.45431 51.3218C1.40328 51.4579 1.35226 51.2538 1.30123 51.3218C1.25021 51.3899 1.20764 51.1347 1.15662 51.3218C1.15662 51.3218 1.06309 51.3218 1.02057 51.3218C1.02057 51.662 0.935499 51.3218 0.892976 51.3218C0.850452 51.3218 0.80796 51.5429 0.765437 51.3218C0.765437 51.577 0.688883 51.3218 0.64636 51.3218C0.603837 51.3218 0.578327 51.4324 0.544309 51.3218C0.544309 51.5004 0.476276 51.2198 0.442257 51.3218C0.442257 51.2028 0.382694 51.3218 0.35718 51.3218C0.331666 51.3218 0.297668 51.3218 0.272154 51.2793L0.204103 51.2368C0.0680287 51.0582 0 50.9561 0 50.8626Z" fill="#5D270D"/>
<path d="M72.0001 20.9274C72.0001 21.021 71.9236 21.1145 71.796 21.1911L71.728 21.2336C71.728 21.2336 71.6769 21.2846 71.6429 21.2761C71.6089 21.2676 71.5834 21.5057 71.5579 21.2761C71.5579 21.2251 71.4898 21.2761 71.4558 21.3186C71.4218 21.3611 71.3878 21.2421 71.3453 21.3186C71.3453 21.5653 71.2687 21.0465 71.2347 21.3186C71.2347 21.3867 71.1496 21.3697 71.1071 21.3186C71.1071 21.1315 71.0221 21.3186 70.9796 21.3186C70.9796 21.0975 70.886 21.1996 70.8435 21.3186C70.7924 21.0125 70.7414 21.0635 70.6989 21.3186C70.6479 21.3186 70.5969 21.2081 70.5458 21.3186C70.4948 21.4292 70.4353 21.3952 70.3842 21.3186C70.3332 21.5227 70.2737 21.5142 70.2226 21.3186C70.1631 21.5312 70.1121 21.4462 70.0525 21.3186C69.993 21.1911 69.9335 21.5057 69.874 21.3186C69.8144 21.3186 69.7549 21.3611 69.6954 21.3186C69.6358 21.2761 69.5763 21.1315 69.5167 21.3186C69.4487 21.3697 69.3892 21.4462 69.3297 21.3186C69.2616 21.5482 69.2021 21.4462 69.1341 21.3186C69.066 21.3186 69.0065 21.1911 68.9384 21.3186C68.8704 21.3186 68.8109 21.4207 68.7429 21.3186C68.6748 21.2166 68.6068 21.1825 68.5387 21.3186C68.4707 21.4547 68.4111 21.2591 68.3431 21.3186C68.2836 21.0975 68.2156 21.3867 68.156 21.3186C68.0965 21.2506 68.0284 21.1911 67.9689 21.3186C67.9094 21.4462 67.8414 21.3952 67.7818 21.3186C67.7223 21.6588 67.6627 21.2336 67.6032 21.3186C67.5437 21.174 67.4842 21.3186 67.4246 21.3186C67.3651 21.3186 67.3141 21.157 67.2545 21.3186C67.2035 21.3186 67.1525 21.4207 67.093 21.3186C67.0419 21.4887 66.9909 21.174 66.9399 21.3186C66.8901 21.3349 66.8365 21.3349 66.7868 21.3186C66.7358 21.055 66.6847 21.2761 66.6422 21.3186C66.5997 21.3611 66.5487 21.4717 66.5061 21.3186C66.4551 21.3186 66.4126 21.1825 66.3701 21.3186C66.3276 21.4547 66.285 20.9359 66.251 21.3186C66.2085 21.3782 66.1659 21.0465 66.1319 21.3186C66.0979 21.5908 66.0554 21.3186 66.0214 21.3186L65.9278 21.2761C65.6472 21.1656 65.4771 21.0295 65.4771 20.8934C65.4771 20.7573 65.6812 20.5872 66.0214 20.4682C66.0214 20.4682 66.0979 20.2726 66.1319 20.4682C66.1319 20.4682 66.2085 20.3236 66.251 20.4682C66.251 20.23 66.3276 20.4256 66.3701 20.4682C66.4126 20.5107 66.4551 20.5277 66.5061 20.4682C66.5572 20.4086 66.5912 20.5362 66.6422 20.4682C66.6847 20.6127 66.7358 20.5787 66.7868 20.4682C66.8378 20.6212 66.8888 20.4682 66.9399 20.4682C66.9909 20.6978 67.0419 20.5362 67.093 20.4682C67.144 20.4001 67.2035 20.4682 67.2545 20.4682C67.3056 20.4682 67.3736 20.4086 67.4246 20.4682C67.4842 20.3576 67.5437 20.3236 67.6032 20.4682C67.6627 20.3916 67.7223 20.4682 67.7818 20.4682C67.8414 20.4682 67.9009 20.4682 67.9689 20.4682C68.0369 20.4682 68.088 20.7063 68.156 20.4682C68.2156 20.4682 68.2836 20.4682 68.3431 20.4682C68.4026 20.4682 68.4792 20.5362 68.5387 20.4682C68.6068 20.7063 68.6748 20.5617 68.7429 20.4682C68.8109 20.3746 68.8704 20.4682 68.9384 20.4682C69.0019 20.4468 69.0706 20.4468 69.1341 20.4682C69.2021 20.3916 69.2616 20.5702 69.3297 20.4682C69.3977 20.3661 69.4487 20.5787 69.5167 20.4682C69.5848 20.3576 69.6358 20.3576 69.6954 20.4682C69.7549 20.5787 69.8144 20.6978 69.874 20.4682C69.9335 20.4171 69.993 20.145 70.0525 20.4682C70.1121 20.3831 70.1631 20.6297 70.2226 20.4682C70.2737 20.7233 70.3332 20.4682 70.3842 20.4682C70.4353 20.4682 70.4948 20.5957 70.5458 20.4682C70.5969 20.3406 70.6479 20.5362 70.6989 20.4682C70.7499 20.4001 70.7924 20.6553 70.8435 20.4682C70.8435 20.4682 70.937 20.4682 70.9796 20.4682C70.9796 20.128 71.0646 20.4682 71.1071 20.4682C71.1496 20.4682 71.1922 20.2385 71.2347 20.4682C71.2347 20.213 71.3112 20.4682 71.3453 20.4682C71.3793 20.4682 71.4218 20.3576 71.4558 20.4682C71.4558 20.2896 71.5239 20.5617 71.5579 20.4682C71.5579 20.5872 71.6174 20.4681 71.6429 20.5107C71.6684 20.5532 71.7025 20.5107 71.728 20.5107L71.796 20.5532C71.9236 20.7403 72.0001 20.8339 72.0001 20.9274Z" fill="#5D270D"/>
<path d="M72.0001 25.9092C72.0001 26.0028 71.9236 26.0963 71.796 26.1814H71.728C71.728 26.1814 71.6769 26.2324 71.6429 26.1814C71.6089 26.1304 71.5834 26.411 71.5579 26.2239C71.5579 26.1644 71.4898 26.2239 71.4558 26.2239C71.4218 26.2239 71.3878 26.1474 71.3453 26.2239C71.3453 26.4705 71.2687 25.9603 71.2347 26.2239C71.2347 26.2919 71.1496 26.2749 71.1071 26.2239C71.1071 26.0368 71.0221 26.2239 70.9796 26.2239C70.9796 25.9943 70.886 26.0963 70.8435 26.2239C70.7924 25.9177 70.7414 25.9688 70.6989 26.2239C70.6479 26.2239 70.5969 26.1218 70.5458 26.2239C70.4948 26.326 70.4353 26.3089 70.3842 26.2239C70.3332 26.428 70.2737 26.4195 70.2226 26.2239C70.1631 26.4365 70.1121 26.3515 70.0525 26.2239C69.993 26.0963 69.9335 26.411 69.874 26.2239C69.8144 26.2239 69.7549 26.2749 69.6954 26.2239C69.6358 26.1729 69.5763 26.0368 69.5167 26.2239C69.4487 26.2749 69.3892 26.3515 69.3297 26.2239C69.2616 26.4535 69.2021 26.3515 69.1341 26.2239C69.066 26.2239 69.0065 26.0963 68.9384 26.2239C68.8704 26.2239 68.8109 26.326 68.7429 26.2239C68.6748 26.1218 68.6068 26.0878 68.5387 26.2239C68.4707 26.36 68.4111 26.1644 68.3431 26.2239C68.2836 26.0028 68.2156 26.2919 68.156 26.2239C68.0965 26.1559 68.0284 26.0963 67.9689 26.2239C67.9094 26.3515 67.8414 26.3089 67.7818 26.2239C67.7223 26.5641 67.6627 26.1389 67.6032 26.2239C67.5437 26.0793 67.4842 26.2239 67.4246 26.2239C67.3651 26.2239 67.3141 26.0623 67.2545 26.2239C67.2035 26.2239 67.1525 26.326 67.093 26.2239C67.0419 26.394 66.9909 26.0793 66.9399 26.2239C66.8888 26.3685 66.8378 26.2239 66.7868 26.2239C66.7358 25.9603 66.6847 26.2239 66.6422 26.2239C66.5997 26.2239 66.5487 26.377 66.5061 26.2239C66.4551 26.2239 66.4126 26.0878 66.3701 26.2239C66.3276 26.36 66.285 25.8412 66.251 26.2239C66.2085 26.2919 66.1659 25.9603 66.1319 26.2239C66.0979 26.4875 66.0554 26.2239 66.0214 26.2239H65.9278C65.6472 26.1048 65.4771 25.9773 65.4771 25.8327C65.4771 25.6881 65.6812 25.5265 66.0214 25.4075C66.0214 25.4075 66.0979 25.2119 66.1319 25.4075C66.1319 25.4075 66.2085 25.2629 66.251 25.4075C66.251 25.1608 66.3276 25.3564 66.3701 25.4075C66.4126 25.4585 66.4551 25.4755 66.5061 25.4075C66.5572 25.3394 66.5912 25.4755 66.6422 25.4075C66.6847 25.552 66.7358 25.518 66.7868 25.4075C66.8378 25.552 66.8888 25.4075 66.9399 25.4075C66.9909 25.6286 67.0419 25.467 67.093 25.4075C67.144 25.3479 67.2035 25.4075 67.2545 25.4075C67.3056 25.4075 67.3736 25.3564 67.4246 25.4075C67.4842 25.3054 67.5437 25.2629 67.6032 25.4075C67.6627 25.3394 67.7223 25.4075 67.7818 25.4075C67.8414 25.4075 67.9009 25.4075 67.9689 25.4075C68.0369 25.4075 68.088 25.6456 68.156 25.4075C68.2156 25.4075 68.2836 25.4075 68.3431 25.4075C68.4026 25.4075 68.4792 25.4755 68.5387 25.4075C68.6068 25.6456 68.6748 25.501 68.7429 25.4075C68.8109 25.3139 68.8704 25.4075 68.9384 25.4075C69.0019 25.3861 69.0706 25.3861 69.1341 25.4075C69.2021 25.3394 69.2616 25.518 69.3297 25.4075C69.3977 25.2969 69.4487 25.518 69.5167 25.4075C69.5848 25.2969 69.6358 25.2969 69.6954 25.4075C69.7549 25.518 69.8144 25.6371 69.874 25.4075C69.9335 25.3649 69.993 25.0843 70.0525 25.4075C70.1121 25.3224 70.1631 25.5691 70.2226 25.4075C70.2737 25.6626 70.3332 25.4075 70.3842 25.4075C70.4353 25.4075 70.4948 25.535 70.5458 25.4075C70.5969 25.2799 70.6479 25.467 70.6989 25.4075C70.7499 25.3479 70.7924 25.5946 70.8435 25.4075C70.8435 25.4075 70.937 25.4075 70.9796 25.4075C70.9796 25.0758 71.0646 25.4075 71.1071 25.4075C71.1496 25.4075 71.1922 25.1863 71.2347 25.4075C71.2347 25.1523 71.3112 25.4075 71.3453 25.4075C71.3793 25.4075 71.4218 25.2969 71.4558 25.4075C71.4558 25.2289 71.5239 25.5095 71.5579 25.4075C71.5579 25.5265 71.6174 25.4075 71.6429 25.4075C71.6684 25.4075 71.7025 25.4075 71.728 25.45H71.796C71.9236 25.7222 72.0001 25.8157 72.0001 25.9092Z" fill="#5D270D"/>
<path d="M72.0001 30.8941C72.0001 30.9876 71.9236 31.0811 71.796 31.1662L71.728 31.2087C71.728 31.2087 71.6769 31.2598 71.6429 31.2087C71.6089 31.1577 71.5834 31.4383 71.5579 31.2512C71.5579 31.1917 71.4898 31.2512 71.4558 31.2512C71.4218 31.2512 71.3878 31.1747 71.3453 31.2512C71.3453 31.4979 71.2687 30.9876 71.2347 31.2512C71.2347 31.3193 71.1496 31.3023 71.1071 31.2512C71.1071 31.0726 71.0221 31.2512 70.9796 31.2512C70.9796 31.0301 70.886 31.1237 70.8435 31.2512C70.7924 30.9451 70.7414 30.9961 70.6989 31.2512C70.6479 31.2512 70.5969 31.1492 70.5458 31.2512C70.4948 31.3533 70.4353 31.3278 70.3842 31.2512C70.3332 31.4554 70.2737 31.4469 70.2226 31.2512C70.1631 31.4724 70.1121 31.3788 70.0525 31.2512C69.993 31.1237 69.9335 31.4469 69.874 31.2512C69.8144 31.2512 69.7549 31.3023 69.6954 31.2512C69.6358 31.2002 69.5763 31.0556 69.5167 31.2512C69.4487 31.3023 69.3892 31.3788 69.3297 31.2512C69.2616 31.4894 69.2021 31.3788 69.1341 31.2512C69.066 31.2938 69.0065 31.1237 68.9384 31.2512C68.8704 31.2512 68.8109 31.3618 68.7429 31.2512C68.6748 31.1407 68.6068 31.1067 68.5387 31.2512C68.4707 31.3958 68.4111 31.1917 68.3431 31.2512C68.2836 31.0301 68.2156 31.3193 68.156 31.2512C68.0965 31.1832 68.0284 31.1237 67.9689 31.2512C67.9094 31.3788 67.8414 31.3363 67.7818 31.2512C67.7223 31.5829 67.6627 31.1577 67.6032 31.2512C67.5437 31.1067 67.4842 31.2512 67.4246 31.2512C67.3651 31.2512 67.3141 31.0982 67.2545 31.2512C67.2035 31.2512 67.1525 31.3618 67.093 31.2512C67.0419 31.4213 66.9909 31.1152 66.9399 31.2512C66.8888 31.3873 66.8378 31.2512 66.7868 31.2512C66.7358 30.9961 66.6847 31.2087 66.6422 31.2512C66.5997 31.2938 66.5487 31.4043 66.5061 31.2512C66.4551 31.2512 66.4126 31.1152 66.3701 31.2512C66.3276 31.3873 66.285 30.8685 66.251 31.2512C66.2085 31.3193 66.1659 30.9876 66.1319 31.2512C66.0979 31.5149 66.0554 31.2512 66.0214 31.2512H65.9278C65.6472 31.1322 65.4771 31.0046 65.4771 30.86C65.4771 30.7155 65.6812 30.5539 66.0214 30.4348C66.0214 30.4348 66.0979 30.2392 66.1319 30.4348C66.1319 30.4348 66.2085 30.2902 66.251 30.4348C66.251 30.1882 66.3276 30.4348 66.3701 30.4348C66.4126 30.4348 66.4551 30.5028 66.5061 30.4348C66.5572 30.3668 66.5912 30.5114 66.6422 30.4348C66.6847 30.5879 66.7358 30.5454 66.7868 30.4348C66.8378 30.5794 66.8888 30.4348 66.9399 30.4348C66.9909 30.6559 67.0419 30.5028 67.093 30.4348C67.144 30.3668 67.2035 30.4348 67.2545 30.4348C67.3056 30.4348 67.3736 30.3753 67.4246 30.4348C67.4842 30.3328 67.5437 30.2902 67.6032 30.4348C67.6627 30.3668 67.7223 30.4348 67.7818 30.4348C67.8414 30.4348 67.9009 30.4348 67.9689 30.4348C68.0369 30.4348 68.088 30.6729 68.156 30.4348C68.2156 30.4348 68.2836 30.4773 68.3431 30.4348C68.4026 30.3923 68.4792 30.5028 68.5387 30.4348C68.6068 30.6814 68.6748 30.5284 68.7429 30.4348C68.8109 30.3413 68.8704 30.3923 68.9384 30.4348C69.0019 30.4134 69.0706 30.4134 69.1341 30.4348C69.2021 30.3668 69.2616 30.5454 69.3297 30.4348C69.3977 30.3242 69.4487 30.5454 69.5167 30.4348C69.5848 30.3242 69.6358 30.3242 69.6954 30.4348C69.7549 30.4348 69.8144 30.6559 69.874 30.4348C69.9335 30.3923 69.993 30.1116 70.0525 30.4348C70.1121 30.3498 70.1631 30.6049 70.2226 30.4348C70.2737 30.6814 70.3332 30.4348 70.3842 30.4348C70.4353 30.4348 70.4948 30.5709 70.5458 30.4348C70.5969 30.2987 70.6479 30.4943 70.6989 30.4348C70.7499 30.3753 70.7924 30.6219 70.8435 30.4348C70.8435 30.4348 70.937 30.4348 70.9796 30.4348C70.9796 30.1031 71.0646 30.4348 71.1071 30.4348C71.1496 30.4348 71.1922 30.2137 71.2347 30.4348C71.2347 30.1797 71.3112 30.4348 71.3453 30.4348C71.3793 30.4348 71.4218 30.3242 71.4558 30.4348C71.4558 30.2562 71.5239 30.5369 71.5579 30.4348C71.5579 30.5539 71.6174 30.4348 71.6429 30.4773C71.6684 30.5198 71.7025 30.4773 71.728 30.5199H71.796C71.9236 30.707 72.0001 30.8005 72.0001 30.8941Z" fill="#5D270D"/>
<path d="M72.0001 35.878C72.0001 35.9715 71.9236 36.0651 71.796 36.1501H71.728C71.728 36.1501 71.6769 36.2012 71.6429 36.1501C71.6089 36.0991 71.5834 36.3883 71.5579 36.1927C71.5579 36.1331 71.4898 36.1927 71.4558 36.1927C71.4218 36.1927 71.3878 36.1161 71.3453 36.2352C71.3027 36.3543 71.2687 35.963 71.2347 36.2352C71.2347 36.2947 71.1496 36.2777 71.1071 36.2352C71.1071 36.0566 71.0221 36.2352 70.9796 36.2352C70.9796 36.0141 70.886 36.1076 70.8435 36.2352C70.7924 35.9375 70.7414 35.9801 70.6989 36.2352C70.6479 36.2352 70.5969 36.1246 70.5458 36.2352C70.4948 36.3458 70.4353 36.3117 70.3842 36.2352C70.3332 36.4393 70.2737 36.4393 70.2226 36.2352C70.1631 36.4563 70.1121 36.3713 70.0525 36.2352C69.993 36.0991 69.9335 36.4308 69.874 36.2352C69.8144 36.2352 69.7549 36.2862 69.6954 36.2352C69.6358 36.1842 69.5763 36.0396 69.5167 36.2352C69.4487 36.2947 69.3892 36.3628 69.3297 36.2352C69.2616 36.4733 69.2021 36.3713 69.1341 36.2352C69.066 36.2777 69.0065 36.1076 68.9384 36.2352C68.8704 36.1927 68.8109 36.3372 68.7429 36.2352C68.6748 36.1331 68.6068 36.0991 68.5387 36.2352C68.4707 36.3713 68.4111 36.1672 68.3431 36.2352C68.2836 36.0141 68.2156 36.3117 68.156 36.2352C68.0965 36.1586 68.0284 36.1076 67.9689 36.2352C67.9094 36.3628 67.8414 36.3202 67.7818 36.2352C67.7223 36.5754 67.6627 36.1501 67.6032 36.2352C67.5437 36.0906 67.4842 36.2352 67.4246 36.2352C67.3651 36.2352 67.3141 36.0821 67.2545 36.2352C67.2035 36.2352 67.1525 36.3458 67.093 36.2352C67.0419 36.4053 66.9909 36.0991 66.9399 36.2352C66.8901 36.2514 66.8365 36.2514 66.7868 36.2352C66.7358 35.9715 66.6847 36.1927 66.6422 36.2352C66.5997 36.2777 66.5487 36.3883 66.5061 36.2352C66.4551 36.2352 66.4126 36.0991 66.3701 36.2352C66.3276 36.3713 66.285 35.8525 66.251 36.2352C66.2085 36.2947 66.1659 35.963 66.1319 36.2352C66.0979 36.5073 66.0554 36.2352 66.0214 36.1927H65.9278C65.6472 36.0821 65.4771 35.946 65.4771 35.8014C65.4771 35.6569 65.6812 35.5038 66.0214 35.3762C66.0214 35.3762 66.0979 35.1806 66.1319 35.3762C66.1319 35.3762 66.2085 35.2401 66.251 35.3762C66.251 35.1296 66.3276 35.3337 66.3701 35.3762C66.4126 35.4187 66.4551 35.4443 66.5061 35.3762C66.5572 35.3082 66.5912 35.4443 66.6422 35.3762C66.6847 35.5293 66.7358 35.4868 66.7868 35.3762C66.8378 35.5208 66.8888 35.3762 66.9399 35.3762C66.9909 35.5973 67.0419 35.4443 67.093 35.3762C67.144 35.3082 67.2035 35.3762 67.2545 35.3762C67.3056 35.3762 67.3736 35.3167 67.4246 35.3762C67.4842 35.2742 67.5437 35.2316 67.6032 35.3762C67.6627 35.3082 67.7223 35.3762 67.7818 35.3762C67.8414 35.3762 67.9009 35.3762 67.9689 35.3762C68.0369 35.3762 68.088 35.6228 68.156 35.3762C68.2156 35.3762 68.2836 35.4187 68.3431 35.3762C68.4026 35.3337 68.4792 35.4443 68.5387 35.3762C68.6068 35.6228 68.6748 35.4698 68.7429 35.3762C68.8109 35.2827 68.8704 35.3762 68.9384 35.3762C69.0025 35.3593 69.07 35.3593 69.1341 35.3762C69.2021 35.3082 69.2616 35.4868 69.3297 35.3762C69.3977 35.2657 69.4487 35.4868 69.5167 35.3762C69.5848 35.2657 69.6358 35.2657 69.6954 35.3762C69.7549 35.3762 69.8144 35.5973 69.874 35.3762C69.9335 35.3337 69.993 35.053 70.0525 35.3762C70.1121 35.2912 70.1631 35.5463 70.2226 35.3762C70.2737 35.6228 70.3332 35.3762 70.3842 35.3762C70.4353 35.3762 70.4948 35.5123 70.5458 35.3762C70.5969 35.2401 70.6479 35.4443 70.6989 35.3762C70.7499 35.3082 70.7924 35.5633 70.8435 35.3762C70.8435 35.3762 70.937 35.3762 70.9796 35.3762C70.9796 35.036 71.0646 35.3762 71.1071 35.3762C71.1496 35.3762 71.1922 35.1551 71.2347 35.3762C71.2347 35.1211 71.3112 35.3762 71.3453 35.3762C71.3793 35.3762 71.4218 35.2657 71.4558 35.3762C71.4558 35.1976 71.5239 35.4783 71.5579 35.4187C71.5579 35.5378 71.6174 35.4187 71.6429 35.4187C71.6684 35.4187 71.7025 35.4187 71.728 35.4613H71.796C71.9236 35.6994 72.0001 35.7504 72.0001 35.878Z" fill="#5D270D"/>
<path d="M72.0001 40.8531C72.0001 40.9551 71.9236 41.0402 71.796 41.1252L71.728 41.1677C71.728 41.1677 71.6769 41.2188 71.6429 41.2103C71.6089 41.2018 71.5834 41.4399 71.5579 41.2103C71.5579 41.1592 71.4898 41.2103 71.4558 41.2103C71.4218 41.2103 71.3878 41.1337 71.3453 41.2528C71.3027 41.3718 71.2687 40.9806 71.2347 41.2528C71.2347 41.3208 71.1496 41.2528 71.1071 41.2528C71.1071 41.0657 71.0221 41.2528 70.9796 41.2528C70.9796 41.0317 70.886 41.1252 70.8435 41.2528C70.7924 40.9466 70.7414 40.9891 70.6989 41.2528C70.6479 41.2528 70.5969 41.1422 70.5458 41.2528C70.4948 41.3633 70.4353 41.3293 70.3842 41.2528C70.3332 41.4569 70.2737 41.4484 70.2226 41.2528C70.1631 41.4739 70.1121 41.3888 70.0525 41.2528C69.993 41.1167 69.9335 41.4484 69.874 41.2528C69.8144 41.2528 69.7549 41.3038 69.6954 41.2528C69.6358 41.2017 69.5763 41.0572 69.5167 41.2528C69.4487 41.3123 69.3892 41.3803 69.3297 41.2528C69.2616 41.4909 69.2021 41.3888 69.1341 41.2528C69.066 41.2528 69.0065 41.1252 68.9384 41.2528C68.8704 41.2528 68.8109 41.3548 68.7429 41.2528C68.6748 41.1507 68.6068 41.1167 68.5387 41.2528C68.4707 41.3888 68.4111 41.1847 68.3431 41.2528C68.2836 41.0317 68.2156 41.3293 68.156 41.2528C68.0965 41.1762 68.0284 41.1337 67.9689 41.2528C67.9094 41.3718 67.8414 41.3378 67.7818 41.2528C67.7223 41.593 67.6627 41.1677 67.6032 41.2528C67.5437 41.1167 67.4842 41.2528 67.4246 41.2528C67.3651 41.2528 67.3141 41.0997 67.2545 41.2528C67.2035 41.2528 67.1525 41.3633 67.093 41.2528C67.0419 41.4144 66.9909 41.1082 66.9399 41.2528C66.8901 41.269 66.8365 41.269 66.7868 41.2528C66.7358 40.9891 66.6847 41.2102 66.6422 41.2528C66.5997 41.2953 66.5487 41.3974 66.5061 41.2528C66.4551 41.2528 66.4126 41.1167 66.3701 41.2528C66.3276 41.3888 66.285 40.8701 66.251 41.2528C66.2085 41.3123 66.1659 40.9806 66.1319 41.2528C66.0979 41.5249 66.0554 41.2528 66.0214 41.2103H65.9278C65.6472 41.0997 65.4771 40.9636 65.4771 40.819C65.4771 40.6744 65.6812 40.5214 66.0214 40.3938C66.0214 40.3938 66.0979 40.1982 66.1319 40.3938C66.1319 40.3938 66.2085 40.2577 66.251 40.3938C66.251 40.1472 66.3276 40.3513 66.3701 40.3938C66.4126 40.4363 66.4551 40.4618 66.5061 40.3938C66.5572 40.3258 66.5912 40.4618 66.6422 40.3938C66.6847 40.5469 66.7358 40.5044 66.7868 40.3938C66.8378 40.5384 66.8888 40.3938 66.9399 40.3938C66.9909 40.6234 67.0419 40.4618 67.093 40.3938C67.144 40.3258 67.2035 40.3938 67.2545 40.3938C67.3056 40.3938 67.3736 40.3343 67.4246 40.3938C67.4842 40.2832 67.5437 40.2492 67.6032 40.3938C67.6627 40.3173 67.7223 40.3938 67.7818 40.3938C67.8414 40.3938 67.9009 40.3938 67.9689 40.3938C68.0369 40.3938 68.088 40.6319 68.156 40.3938C68.2156 40.3938 68.2836 40.4363 68.3431 40.3938C68.4026 40.3513 68.4792 40.4533 68.5387 40.3938C68.6068 40.6404 68.6748 40.4873 68.7429 40.3938C68.8109 40.3002 68.8704 40.3938 68.9384 40.3938C69.0019 40.3724 69.0706 40.3724 69.1341 40.3938C69.2021 40.3173 69.2616 40.4959 69.3297 40.3938C69.3977 40.2917 69.4487 40.5129 69.5167 40.3938C69.5848 40.2747 69.6358 40.2832 69.6954 40.3938C69.7549 40.5044 69.8144 40.6149 69.874 40.3938C69.9335 40.3428 69.993 40.0621 70.0525 40.3938C70.1121 40.3088 70.1631 40.5554 70.2226 40.3938C70.2737 40.6404 70.3332 40.3938 70.3842 40.3938C70.4353 40.3938 70.4948 40.5299 70.5458 40.3938C70.5969 40.2577 70.6479 40.4618 70.6989 40.3938C70.7499 40.3258 70.7924 40.5809 70.8435 40.3938C70.8435 40.3938 70.937 40.3938 70.9796 40.3938C70.9796 40.0536 71.0646 40.3938 71.1071 40.3938C71.1496 40.3938 71.1922 40.1727 71.2347 40.3938C71.2347 40.1387 71.3112 40.3938 71.3453 40.3938C71.3793 40.3938 71.4218 40.2832 71.4558 40.3938C71.4558 40.2152 71.5239 40.4959 71.5579 40.4363C71.5579 40.5554 71.6174 40.4363 71.6429 40.4363C71.6684 40.4363 71.7025 40.4363 71.728 40.4363L71.796 40.4788C71.9236 40.683 72.0001 40.768 72.0001 40.8531Z" fill="#5D270D"/>
<path d="M72.0001 45.8526C72.0001 45.9461 71.9236 46.0312 71.796 46.1162L71.728 46.1588C71.728 46.1588 71.6769 46.2098 71.6429 46.2013C71.6089 46.1928 71.5834 46.4309 71.5579 46.2013C71.5579 46.1503 71.4898 46.2013 71.4558 46.2438C71.4218 46.2863 71.3878 46.1588 71.3453 46.2438C71.3027 46.3289 71.2687 45.9717 71.2347 46.2438C71.2347 46.3118 71.1496 46.2948 71.1071 46.2438C71.1071 46.0567 71.0221 46.2438 70.9796 46.2438C70.9796 46.0227 70.886 46.1247 70.8435 46.2438C70.7924 45.9376 70.7414 45.9802 70.6989 46.2438C70.6479 46.2438 70.5969 46.1332 70.5458 46.2438C70.4948 46.3544 70.4353 46.3203 70.3842 46.2438C70.3332 46.4479 70.2737 46.4394 70.2226 46.2438C70.1631 46.4649 70.1121 46.3799 70.0525 46.2438C69.993 46.1077 69.9335 46.4309 69.874 46.2438C69.8144 46.2438 69.7549 46.2948 69.6954 46.2438C69.6358 46.1928 69.5763 46.0567 69.5167 46.2438C69.4487 46.2948 69.3892 46.3714 69.3297 46.2438C69.2616 46.4734 69.2021 46.3714 69.1341 46.2438C69.066 46.2438 69.0065 46.1162 68.9384 46.2438C68.8704 46.2438 68.8109 46.3459 68.7429 46.2438C68.6748 46.1417 68.6068 46.1077 68.5387 46.2438C68.4707 46.3799 68.4111 46.1843 68.3431 46.2438C68.2836 46.0227 68.2156 46.3118 68.156 46.2438C68.0965 46.1758 68.0284 46.1162 67.9689 46.2438C67.9094 46.3714 67.8414 46.3203 67.7818 46.2438C67.7223 46.584 67.6627 46.1588 67.6032 46.2438C67.5437 46.1077 67.4842 46.2438 67.4246 46.2438C67.3651 46.2438 67.3141 46.0822 67.2545 46.2438C67.2035 46.2438 67.1525 46.3544 67.093 46.2438C67.0419 46.4054 66.9909 46.0992 66.9399 46.2438C66.8901 46.26 66.8365 46.26 66.7868 46.2438C66.7358 45.9802 66.6847 46.2013 66.6422 46.2438C66.5997 46.2863 66.5487 46.3884 66.5061 46.2438C66.4551 46.2438 66.4126 46.1077 66.3701 46.2438C66.3276 46.3799 66.285 45.8611 66.251 46.2438C66.2085 46.3033 66.1659 45.9717 66.1319 46.2438C66.0979 46.516 66.0554 46.2438 66.0214 46.2438L65.9278 46.2013C65.6472 46.0907 65.4771 45.9546 65.4771 45.8186C65.4771 45.6825 65.6812 45.5124 66.0214 45.3933C66.0214 45.3933 66.0979 45.1892 66.1319 45.3508C66.1319 45.3508 66.2085 45.2148 66.251 45.3508C66.251 45.1127 66.3276 45.3083 66.3701 45.3508C66.4126 45.3934 66.4551 45.4189 66.5061 45.3508C66.5572 45.2828 66.5912 45.4189 66.6422 45.3508C66.6847 45.5039 66.7358 45.4614 66.7868 45.3508C66.8378 45.4954 66.8888 45.3508 66.9399 45.3508C66.9909 45.5805 67.0419 45.4189 67.093 45.3508C67.144 45.2828 67.2035 45.3508 67.2545 45.3508C67.3056 45.3508 67.3736 45.2913 67.4246 45.3508C67.4842 45.2403 67.5437 45.2062 67.6032 45.3508C67.6627 45.2743 67.7223 45.3508 67.7818 45.3508C67.8414 45.3508 67.9009 45.3508 67.9689 45.3508C68.0369 45.3508 68.088 45.589 68.156 45.3508C68.2156 45.3508 68.2836 45.3508 68.3431 45.3508C68.4026 45.3508 68.4792 45.4104 68.5387 45.3508C68.6068 45.5975 68.6748 45.4444 68.7429 45.3508C68.8109 45.2573 68.8704 45.3508 68.9384 45.3508C69.0019 45.3294 69.0706 45.3294 69.1341 45.3508C69.2021 45.2743 69.2616 45.4529 69.3297 45.3508C69.3977 45.2488 69.4487 45.4614 69.5167 45.3508C69.5848 45.2403 69.6358 45.2403 69.6954 45.3508C69.7549 45.4614 69.8144 45.5805 69.874 45.3508C69.9335 45.2998 69.993 45.0191 70.0525 45.3508C70.1121 45.2658 70.1631 45.5124 70.2226 45.3508C70.2737 45.5975 70.3332 45.3508 70.3842 45.3508C70.4353 45.3508 70.4948 45.4784 70.5458 45.3508C70.5969 45.2233 70.6479 45.4189 70.6989 45.3508C70.7499 45.2828 70.7924 45.5379 70.8435 45.3508C70.8435 45.3508 70.937 45.3508 70.9796 45.3508C70.9796 45.0106 71.0646 45.3508 71.1071 45.3508C71.1496 45.3508 71.1922 45.1297 71.2347 45.3508C71.2347 45.0957 71.3112 45.3508 71.3453 45.3508C71.3793 45.3508 71.4218 45.2488 71.4558 45.3933C71.4558 45.2147 71.5239 45.4869 71.5579 45.3933C71.5579 45.5124 71.6174 45.3934 71.6429 45.4359C71.6684 45.4784 71.7025 45.4359 71.728 45.4359L71.796 45.4784C71.9236 45.6655 72.0001 45.759 72.0001 45.8526Z" fill="#5D270D"/>
<path d="M72.0001 50.8406C72.0001 50.9341 71.9236 51.0277 71.796 51.1042L71.728 51.1467C71.728 51.1467 71.6769 51.1978 71.6429 51.1467C71.6089 51.0957 71.5834 51.3764 71.5579 51.1467C71.5579 51.0957 71.4898 51.1467 71.4558 51.1893C71.4218 51.2318 71.3878 51.1127 71.3453 51.1893C71.3453 51.4359 71.2687 50.9171 71.2347 51.1893C71.2347 51.2573 71.1496 51.2403 71.1071 51.1893C71.1071 51.0022 71.0221 51.1893 70.9796 51.1893C70.9796 50.9596 70.886 51.0617 70.8435 51.1893C70.7924 50.8831 70.7414 50.9256 70.6989 51.1893C70.6479 51.1893 70.5969 51.0787 70.5458 51.1893C70.4948 51.2998 70.4353 51.2658 70.3842 51.1893C70.3332 51.3934 70.2737 51.3849 70.2226 51.1893C70.1631 51.4104 70.1121 51.3253 70.0525 51.1893C69.993 51.0532 69.9335 51.3764 69.874 51.1893C69.8144 51.1893 69.7549 51.2318 69.6954 51.1893C69.6358 51.1467 69.5763 51.0022 69.5167 51.1893C69.4487 51.2403 69.3892 51.3168 69.3297 51.1893C69.2616 51.4189 69.2021 51.3168 69.1341 51.1893C69.066 51.1893 69.0065 51.0617 68.9384 51.1893C68.8704 51.1893 68.8109 51.2913 68.7429 51.1893C68.6748 51.0872 68.6068 51.0532 68.5387 51.1893C68.4707 51.3253 68.4111 51.1297 68.3431 51.1893C68.2836 50.9681 68.2156 51.2573 68.156 51.1893C68.0965 51.1212 68.0284 51.0617 67.9689 51.1893C67.9094 51.3168 67.8414 51.2658 67.7818 51.1893C67.7223 51.5294 67.6627 51.1042 67.6032 51.1893C67.5437 51.0447 67.4842 51.1893 67.4246 51.1893C67.3651 51.1893 67.3141 51.0277 67.2545 51.1893C67.2035 51.1893 67.1525 51.2998 67.093 51.1893C67.0419 51.3594 66.9909 51.0447 66.9399 51.1893C66.8901 51.2055 66.8365 51.2055 66.7868 51.1893C66.7358 50.9256 66.6847 51.1893 66.6422 51.1893C66.5997 51.1893 66.5487 51.3423 66.5061 51.1893C66.4551 51.1893 66.4126 51.0447 66.3701 51.1893C66.3276 51.3338 66.285 50.8066 66.251 51.1893C66.2085 51.2488 66.1659 50.9171 66.1319 51.1893C66.0979 51.4614 66.0554 51.1893 66.0214 51.1893L65.9278 51.1467C65.6472 51.0362 65.4771 50.9001 65.4771 50.764C65.4771 50.628 65.6812 50.4579 66.0214 50.3388C66.0214 50.3388 66.0979 50.1432 66.1319 50.3388C66.1319 50.3388 66.2085 50.1942 66.251 50.2963C66.251 50.0582 66.3276 50.2963 66.3701 50.2963C66.4126 50.2963 66.4551 50.3643 66.5061 50.2963C66.5572 50.2282 66.5912 50.3643 66.6422 50.2963C66.6847 50.4494 66.7358 50.4154 66.7868 50.2963C66.8378 50.4494 66.8888 50.2963 66.9399 50.2963C66.9909 50.5259 67.0419 50.3643 67.093 50.2963C67.144 50.2282 67.2035 50.2963 67.2545 50.2963C67.3056 50.2963 67.3736 50.2453 67.4246 50.2963C67.4842 50.1942 67.5437 50.1517 67.6032 50.2963C67.6627 50.2197 67.7223 50.2963 67.7818 50.2963C67.8414 50.2963 67.9009 50.2963 67.9689 50.2963C68.0369 50.2963 68.088 50.5344 68.156 50.2963C68.2156 50.2963 68.2836 50.2963 68.3431 50.2963C68.4026 50.2963 68.4792 50.3643 68.5387 50.2963C68.6068 50.5429 68.6748 50.3983 68.7429 50.2963C68.8109 50.1942 68.8704 50.2963 68.9384 50.2963C69.0025 50.2793 69.07 50.2793 69.1341 50.2963C69.2021 50.2197 69.2616 50.3983 69.3297 50.2963C69.3977 50.1942 69.4487 50.4068 69.5167 50.2963C69.5848 50.1857 69.6358 50.1857 69.6954 50.2963C69.7549 50.4068 69.8144 50.5259 69.874 50.2963C69.9335 50.2453 69.993 49.9731 70.0525 50.2963C70.1121 50.2112 70.1631 50.4579 70.2226 50.2963C70.2737 50.5514 70.3332 50.2963 70.3842 50.2963C70.4353 50.2963 70.4948 50.4239 70.5458 50.2963C70.5969 50.1687 70.6479 50.3643 70.6989 50.2963C70.7499 50.2282 70.7924 50.4919 70.8435 50.2963C70.8435 50.2963 70.937 50.2963 70.9796 50.2963C70.9796 49.9561 71.0646 50.2963 71.1071 50.2963C71.1496 50.2963 71.1922 50.0667 71.2347 50.2963C71.2347 50.0411 71.3112 50.2963 71.3453 50.3388C71.3793 50.3813 71.4218 50.2282 71.4558 50.3388C71.4558 50.1602 71.5239 50.4323 71.5579 50.3388C71.5579 50.4579 71.6174 50.3388 71.6429 50.3813C71.6684 50.4239 71.7025 50.3813 71.728 50.3813L71.796 50.4238C71.9236 50.6535 72.0001 50.747 72.0001 50.8406Z" fill="#5D270D"/>
</svg>
