<svg width="72" height="72" viewBox="0 0 72 72" fill="none" xmlns="http://www.w3.org/2000/svg">
<g clip-path="url(#clip0_1570_6760)">
<path d="M52.2702 29.5243C52.2702 29.5243 52.2702 29.5243 52.2019 29.5243H52.1106C52.0705 29.5316 52.0293 29.5316 51.9891 29.5243C51.7107 29.4776 51.449 29.3598 51.2293 29.1824C50.4433 28.4343 49.8759 27.4861 49.5883 26.4397C49.4363 25.999 49.3071 25.5128 49.1856 24.9961C49.0439 24.4471 48.9424 23.8885 48.8817 23.3247C48.9197 22.7245 48.5702 22.1166 48.7069 21.4405C48.8437 20.7643 48.7069 20.0881 48.7069 19.3587C48.7069 18.6293 48.8741 17.8924 48.8893 17.0794C48.8759 16.6731 48.9511 16.2686 49.1096 15.8942C49.2742 15.5061 49.3694 15.0921 49.3907 14.671C49.4919 14.2448 49.6291 13.8279 49.801 13.425C49.8998 13.2123 49.9986 13.0071 50.1125 12.8096C50.2265 12.612 50.2265 12.6045 50.2949 12.5057L50.3404 12.4297V12.3689L50.4468 12.293C50.5464 12.2067 50.6504 12.1256 50.7583 12.0498C50.8339 11.9847 50.9322 11.9519 51.0318 11.9587L50.5 12.0118C50.4267 11.9663 50.343 11.9402 50.2568 11.9359H50.0897H49.7858C49.3375 11.9359 48.8741 11.9815 48.4031 12.0195C47.4182 11.7236 46.3789 11.6561 45.364 11.8219C44.3307 11.7307 43.2898 11.518 42.2034 11.4724L41.3904 11.3736L40.5775 11.2521C40.0305 11.1761 39.4834 11.0697 38.9288 10.9406C37.7746 10.8788 36.6391 10.6219 35.5707 10.1808C34.3911 10.0315 33.2394 9.71154 32.1518 9.23109C31.0425 8.77524 29.7965 8.63848 28.6873 8.09145C27.5248 7.68118 26.3396 7.33173 25.162 6.89867C24.5845 6.66314 23.9995 6.4504 23.3993 6.26806C22.7979 6.09503 22.1783 5.99301 21.5531 5.96413C20.943 5.89106 20.329 5.85558 19.7145 5.8578C19.5625 5.8578 19.4029 5.8578 19.251 5.8578H18.7799C18.4684 5.8578 18.1494 5.85779 17.8379 5.89578L17.3744 6.01732L16.9185 6.13891L16.683 6.18449L16.4551 6.24524L15.9916 6.35162C15.3838 6.51117 14.7608 6.64035 14.1454 6.84548C13.8415 6.95945 13.5528 7.1038 13.2565 7.22536L12.8158 7.43807L12.5955 7.54445L12.3828 7.65843L11.9573 7.89395L11.5395 8.15225L11.3343 8.289L11.1444 8.44096C11.0126 8.53833 10.8858 8.64232 10.7645 8.75249C10.2367 9.14231 9.74354 9.57696 9.29054 10.0516C8.83468 10.5303 8.39402 11.0241 7.96096 11.5256L7.79381 11.7155L7.64187 11.9131C7.5431 12.0422 7.43674 12.1714 7.33797 12.3082C7.14803 12.5817 6.95809 12.8476 6.79095 13.1363C6.45401 13.7045 6.18135 14.3084 5.978 14.9369C5.93241 15.0965 5.88682 15.2484 5.83364 15.408C5.78046 15.5675 5.73486 15.7195 5.68168 15.8714C5.57531 16.1753 5.48415 16.4868 5.38538 16.7983C5.1855 17.4127 5.05304 18.0471 4.99032 18.6901C4.83251 19.3153 4.77608 19.9617 4.82317 20.6047L4.86115 21.0834V21.3265V21.562L4.90673 22.0331L4.95231 22.5041C4.9903 22.8156 5.05108 23.1271 5.09667 23.4386C5.09667 23.5982 5.15746 23.7502 5.18026 23.9021C5.20305 24.0541 5.23342 24.2136 5.27901 24.3656C5.36258 24.6695 5.43095 24.9734 5.53732 25.2621C5.5905 25.4064 5.64369 25.5584 5.70447 25.7027C5.76525 25.8471 5.83364 25.9839 5.90201 26.1206C5.95754 26.2658 6.02094 26.4078 6.09195 26.5461L6.29708 26.9563L6.50984 27.3666L6.61619 27.5641L6.73015 27.7617L6.95809 28.1644L7.19362 28.5519L7.67985 29.3116C7.79382 29.418 7.91538 29.5167 8.01415 29.6231C8.11292 29.7295 8.21929 29.8434 8.32565 29.9574C8.43202 30.0714 8.69794 30.4133 8.89547 30.6412L9.17658 30.9907C9.27535 31.1046 9.37412 31.211 9.46529 31.325C9.66631 31.5426 9.88486 31.7433 10.1187 31.9252L10.4454 32.2291C10.5594 32.3202 10.6657 32.4266 10.7873 32.5102C11.0313 32.6862 11.2849 32.8486 11.547 32.9964L11.9193 33.2244L12.2992 33.4295C12.5499 33.5739 12.8083 33.6954 13.059 33.8322L13.8187 34.1893C14.0771 34.3032 14.3354 34.4248 14.5785 34.5312C14.8386 34.6407 15.105 34.7346 15.3762 34.8123L15.7789 34.9187C15.9136 34.9525 16.0508 34.9753 16.1892 34.987C17.262 35.2007 18.3487 35.3378 19.4409 35.3973L19.836 35.3517C19.9728 35.3517 20.102 35.3517 20.2311 35.3517C20.497 35.3517 20.7554 35.3517 20.9909 35.3137H21.3859L21.7734 35.2681C22.0308 35.2259 22.2847 35.1649 22.5332 35.0858C23.5512 34.8503 24.5389 34.5312 25.519 34.2425C26.5069 34.0382 27.4663 33.7141 28.3757 33.2775C29.2644 32.9036 30.1816 32.6012 31.1185 32.3734C32.015 32.0999 32.9115 31.9252 33.7472 31.6137C34.583 31.3022 35.5175 31.4693 36.2469 30.9755C36.6457 30.8722 37.0522 30.801 37.4625 30.7627C37.8607 30.736 38.2514 30.6409 38.6173 30.4816C39.3343 30.2481 40.0819 30.1227 40.8358 30.1094L41.3601 30.0258L41.8767 29.965L42.8796 29.8358C45.1496 29.5776 47.4327 29.4508 49.7174 29.456C50.4772 29.456 51.1154 29.4559 51.5257 29.5091C51.9359 29.5623 52.1411 29.5623 52.1411 29.5927C51.895 29.6682 51.6386 29.704 51.3813 29.6991L50.4544 29.7522L49.178 29.8434C48.2131 29.9042 47.0278 30.003 45.6527 30.1473C44.2775 30.2917 42.6897 30.512 40.9422 30.8235C40.2314 31.0273 39.5044 31.1696 38.7693 31.249C38.3894 31.3326 38.0095 31.4389 37.6296 31.5453C37.2411 31.6573 36.845 31.7411 36.4444 31.796C35.6514 32.1136 34.8259 32.3429 33.9828 32.4798C33.1071 32.702 32.2447 32.9734 31.3996 33.2928C30.5563 33.6954 29.599 33.8398 28.6949 34.2425C27.7089 34.4666 26.7526 34.8057 25.8458 35.2529C24.8201 35.458 23.8476 35.9215 22.8067 36.1646C22.5256 36.1646 22.2521 36.2178 21.9786 36.2482C21.8418 36.2482 21.6975 36.2482 21.5607 36.3166L21.1428 36.3774C20.8693 36.4306 20.5806 36.4685 20.2995 36.5141C20.1551 36.5141 20.0108 36.5141 19.8588 36.5597C19.7146 36.5672 19.57 36.5672 19.4258 36.5597C18.2463 36.568 17.0701 36.4328 15.9233 36.157C14.729 35.8912 13.571 35.4831 12.4739 34.9414C11.297 34.4732 10.2232 33.7788 9.31333 32.8977C8.2948 32.0927 7.39678 31.1461 6.64659 30.0865C6.43578 29.8459 6.24037 29.5921 6.06156 29.3268C5.97039 29.1824 5.87923 29.0457 5.79566 28.9013C5.71209 28.757 5.62851 28.6126 5.55253 28.4682L5.43097 28.2479L5.31701 28.0276L5.09667 27.5793L4.89154 27.1159C4.82316 26.9639 4.75478 26.812 4.694 26.66C4.63322 26.5081 4.56484 26.3485 4.50406 26.189C4.44328 26.0294 4.40528 25.8699 4.3521 25.7027C4.25333 25.3836 4.18497 25.0493 4.10899 24.7226C4.0634 24.5555 4.0406 24.3884 4.00261 24.2212C3.96462 24.0541 3.92665 23.8945 3.89626 23.7273C3.82788 23.393 3.7367 23.0664 3.64552 22.7321L3.57715 22.2154V21.6988V21.4405V20.6807C3.57715 19.9893 3.62274 19.2903 3.69871 18.599C3.79878 17.9022 3.94086 17.2121 4.12418 16.5324C4.22295 16.1905 4.30653 15.8486 4.42049 15.5143C4.48128 15.3472 4.52684 15.1801 4.58762 15.0129L4.76998 14.5038C5.14226 13.8884 5.46136 13.2579 5.81085 12.6349C5.9704 12.3234 6.16034 12.0194 6.33508 11.7003C6.42626 11.5484 6.52503 11.3964 6.6238 11.2445L6.76055 11.0166L6.92009 10.7886C7.33852 10.2006 7.80894 9.65136 8.32565 9.14753C8.84148 8.65015 9.39248 8.19058 9.97434 7.77237L10.3998 7.45328L10.6201 7.30132L10.8405 7.15696L11.2887 6.86825L11.7522 6.60235L11.9801 6.47321L12.2156 6.35162L12.6867 6.11609C13.0134 5.97174 13.3249 5.8198 13.6592 5.69823C14.3006 5.42193 14.9672 5.20818 15.6498 5.06002L16.1588 4.95368L16.4095 4.9081L16.6678 4.86247L17.1769 4.76374L17.6783 4.68014C18.0172 4.61718 18.3598 4.57659 18.704 4.55859H19.213C19.3878 4.55859 19.5549 4.55859 19.7296 4.55859C20.421 4.55859 21.0896 4.68775 21.7658 4.74853C22.4247 4.82568 23.0773 4.95008 23.7184 5.12081C24.3418 5.2847 24.9536 5.4903 25.5494 5.73621C26.7038 6.21729 27.8861 6.6283 29.0899 6.96702C30.2722 7.21158 31.4204 7.5994 32.5088 8.12187C33.6637 8.40299 34.7198 8.88165 35.867 9.08678C36.9275 9.46768 38.0291 9.72268 39.1491 9.84655C39.6886 9.96811 40.2204 10.1048 40.7598 10.196L41.5196 10.3328C41.7855 10.3328 42.0515 10.3936 42.3174 10.4088C43.381 10.4619 44.3991 10.7279 45.4248 10.7962C46.4504 10.8646 47.4229 11.1153 48.4106 11.0318C48.8665 11.0698 49.3224 11.0773 49.7706 11.0925L51.822 11.1381L51.8751 11.2217C52.1106 11.2825 52.1486 11.4648 52.2094 11.6396C52.1638 11.5636 52.0955 11.5712 52.0043 11.7003C51.877 11.9129 51.7823 12.1434 51.7232 12.3841L51.4725 12.5361C51.3889 12.5817 51.2901 12.6273 51.2673 12.6804L51.0926 12.8931C51.0588 12.9264 51.0306 12.9649 51.009 13.0071L50.9634 13.0755L50.8267 13.3338C50.7396 13.5166 50.6635 13.7043 50.5987 13.896C50.4751 14.2803 50.3095 14.6497 50.1049 14.9977C50.0887 15.3951 50.0197 15.7885 49.8998 16.1677C49.7934 16.54 49.6643 16.9275 49.5807 17.277C49.4059 18.0367 49.4895 18.7965 49.3376 19.4575C49.4591 20.1641 49.216 20.8327 49.292 21.4785C49.2683 22.0933 49.3039 22.7091 49.3983 23.3171C49.5047 23.8945 49.5807 24.4339 49.6263 24.9505C49.6718 25.4672 49.8314 25.9307 49.953 26.3637C50.1721 27.3629 50.6398 28.2906 51.3129 29.0609C51.4951 29.2402 51.7124 29.3798 51.9511 29.4711L52.0651 29.5091H52.1411C52.2474 29.5015 52.2702 29.5167 52.2702 29.5243Z" fill="#5D270D"/>
<path d="M52.2702 11.5916C52.2702 11.5916 52.2702 11.6372 52.1942 11.66L52.0954 11.698L51.9739 11.7512C51.7171 11.8811 51.4916 12.0651 51.3129 12.2906L51.1913 12.4502C51.1465 12.5053 51.1059 12.5637 51.0697 12.6249C51.0697 12.6933 51.0014 12.7617 50.9558 12.83C50.9102 12.8984 50.8798 12.9668 50.8342 13.0351C50.7886 13.1035 50.743 13.1795 50.7354 13.2783C50.7278 13.377 50.7355 13.4682 50.6063 13.5138C50.5489 13.5931 50.5028 13.6801 50.4695 13.7721C50.4695 13.8633 50.4239 13.9697 50.4011 14.0685C50.3704 14.1685 50.3297 14.2653 50.2796 14.3572C50.2269 14.4578 50.2008 14.5703 50.2036 14.6839C50.272 14.8206 50.2036 14.9118 50.0973 15.0106C49.9909 15.1093 49.9377 15.2081 50.0365 15.3601C50.0169 15.6186 49.9659 15.8737 49.8845 16.1198C49.6794 16.3326 49.7782 16.6289 49.763 16.8796C49.666 16.9937 49.6049 17.1338 49.5873 17.2825C49.5697 17.4312 49.5965 17.5818 49.6642 17.7153C49.5988 17.7666 49.5449 17.831 49.5057 17.9042C49.4665 17.9775 49.4429 18.0581 49.4365 18.1409C49.43 18.2238 49.4409 18.3071 49.4683 18.3855C49.4958 18.464 49.5391 18.5358 49.5958 18.5966C49.5258 18.898 49.513 19.2098 49.5578 19.5159C49.5844 19.837 49.5844 20.1598 49.5578 20.4808C49.6348 20.6354 49.6748 20.8058 49.6748 20.9785C49.6748 21.1512 49.6348 21.3215 49.5578 21.4761C49.6376 21.6336 49.6853 21.8053 49.6984 21.9813C49.7114 22.1574 49.6895 22.3343 49.6338 22.5018C49.5579 22.8589 49.8693 23.178 49.763 23.5503C49.763 23.9073 49.9073 24.2493 49.9453 24.6139C49.8943 24.9908 49.9865 25.373 50.2036 25.6852C50.3682 26.0181 50.4809 26.3743 50.5379 26.7413C50.8041 27.0108 50.9657 27.3663 50.9938 27.7442C51.0901 27.8927 51.1764 28.0475 51.2521 28.2076C51.3295 28.3595 51.4514 28.4841 51.6016 28.5647C51.6924 28.6706 51.8107 28.7495 51.9435 28.7926C52.0444 28.8187 52.1434 28.8517 52.2398 28.8914C52.3475 28.9323 52.4664 28.9323 52.5741 28.8914C52.7107 28.8303 52.8211 28.7225 52.8856 28.5875C52.9585 28.4382 53.0591 28.3042 53.1819 28.1924C53.3083 28.0702 53.4112 27.9261 53.4858 27.7669C53.6341 27.6484 53.7362 27.4818 53.7745 27.2959C53.8024 27.111 53.8588 26.9316 53.9417 26.764C54.1086 26.4314 54.2239 26.0753 54.2836 25.708C54.3247 25.3423 54.4088 24.9827 54.5342 24.6367C54.3215 24.2264 54.7318 23.9378 54.7166 23.5731C54.8119 23.232 54.8554 22.8786 54.8458 22.5246C54.8458 22.1751 55.0205 21.8408 54.9217 21.4989C54.9157 21.1515 54.9514 20.8046 55.0281 20.4656C54.8762 20.1389 55.1345 19.8122 55.0281 19.5007C54.9217 19.1892 54.9901 18.8853 54.9901 18.5814C55.1953 18.2547 54.9901 17.9812 54.9217 17.7001C54.8534 17.419 54.7242 17.1607 54.823 16.8644C54.8424 16.6051 54.8007 16.3449 54.7014 16.1046C54.6178 15.8615 54.9066 15.5272 54.5571 15.3448C54.4431 15.1321 54.6407 14.8206 54.3823 14.6687C54.333 14.6384 54.2924 14.596 54.2645 14.5453C54.2365 14.4947 54.2221 14.4378 54.2228 14.3799C54.2345 14.2714 54.2345 14.1618 54.2228 14.0532C54.1848 13.9545 54.1544 13.8633 54.1164 13.7721C54.0855 13.6792 54.05 13.588 54.01 13.4986C53.7953 12.8964 53.4321 12.358 52.954 11.9335C52.6045 11.6676 52.3461 11.6524 52.3461 11.5764C52.3461 11.5004 52.3461 11.5764 52.4069 11.5308C52.4698 11.5205 52.534 11.5205 52.5969 11.5308C52.844 11.5359 53.0852 11.6067 53.2958 11.736C53.6194 11.9377 53.9049 12.1949 54.1392 12.4957C54.4364 12.8989 54.691 13.3317 54.899 13.7873C54.9496 13.892 55.0107 13.9912 55.0813 14.0836C55.1169 14.1337 55.1419 14.1905 55.155 14.2506C55.168 14.3107 55.1688 14.3728 55.1573 14.4331C55.2332 14.6535 55.4232 14.8586 55.4004 15.1321C55.6663 15.3296 55.5676 15.6259 55.6131 15.8919C55.6448 16.171 55.7059 16.4461 55.7955 16.7124C55.9626 16.9783 55.8335 17.2974 55.9474 17.5785C55.8735 17.8895 55.9168 18.2168 56.069 18.4978C55.9702 18.8245 56.1449 19.1284 56.1525 19.4627C56.0385 19.7905 56.0548 20.1496 56.1981 20.4656C56.2665 20.8075 56.1601 21.157 56.1981 21.5065C56.2361 21.856 56.1981 22.2663 56.1525 22.593C56.2234 22.9653 56.1865 23.3501 56.0462 23.7022C56.0294 24.0873 55.9708 24.4694 55.8714 24.8419C55.8288 25.2371 55.7448 25.6266 55.6207 26.0043C55.5524 26.4069 55.2028 26.7185 55.256 27.1819C55.1068 27.5854 54.9317 27.9787 54.7318 28.3596C54.4772 28.7546 54.2008 29.1351 53.9037 29.4992C53.6564 29.6077 53.4177 29.7347 53.1895 29.8791C52.9335 30.0426 52.6463 30.1513 52.3461 30.1982C52.0304 30.2217 51.7145 30.1558 51.4345 30.0082C51.1928 29.8783 50.9766 29.7059 50.7962 29.4992C50.4504 29.1735 50.1672 28.7873 49.9605 28.3596C49.7637 27.9772 49.5887 27.5841 49.4363 27.1819C49.2084 26.8173 49.2615 26.369 49.0716 26.0043C48.8954 25.6427 48.8094 25.2439 48.8209 24.8419C48.7449 24.4544 48.8816 24.0821 48.6461 23.7022C48.5625 23.3375 48.2814 22.9804 48.5473 22.593C48.441 22.2283 48.6385 21.8332 48.4942 21.5141C48.6993 21.1494 48.4942 20.8075 48.4942 20.4656C48.5733 20.1373 48.5888 19.7969 48.5398 19.4627C48.4562 19.1284 48.6309 18.8169 48.6233 18.4978C48.6157 18.1787 48.8436 17.8976 48.7449 17.5785C48.7788 17.2871 48.8295 16.9979 48.8968 16.7124C48.6613 16.3781 49.0032 16.1502 49.0792 15.8919C49.1551 15.6335 49.0184 15.322 49.2919 15.1321C49.1476 14.8282 49.4059 14.6383 49.5351 14.4331C49.592 14.327 49.6281 14.2109 49.6414 14.0912C49.6601 13.9753 49.7161 13.8686 49.801 13.7873C49.7901 13.7318 49.7943 13.6744 49.813 13.621C49.8317 13.5676 49.8642 13.5201 49.9073 13.4834C49.9889 13.411 50.0515 13.3197 50.0897 13.2175C50.168 13.153 50.2282 13.0692 50.2644 12.9744C50.2982 12.884 50.3415 12.7974 50.3936 12.7161C50.43 12.6326 50.4759 12.5536 50.5303 12.4805C50.5848 12.4085 50.6517 12.3468 50.7279 12.2982C50.7796 12.2339 50.8354 12.173 50.895 12.1159L51.0622 11.9639C51.3197 11.7256 51.6424 11.5695 51.9891 11.5156H52.1486H52.2626C52.2398 11.5536 52.2702 11.5764 52.2702 11.5916Z" fill="#5D270D"/>
<path d="M18.7948 11.0174C18.195 11.1875 17.5863 11.3244 16.9714 11.4277C16.8802 11.4277 16.7814 11.4809 16.6751 11.5037L16.3636 11.6025L16.0369 11.724L15.6874 11.8531C15.6202 11.8565 15.5545 11.8738 15.4943 11.9039C15.4342 11.934 15.3809 11.9762 15.3379 12.0279C15.2898 12.0797 15.2307 12.1202 15.165 12.1465C15.0993 12.1728 15.0286 12.1842 14.958 12.1798C14.8213 12.2196 14.6909 12.2785 14.5705 12.3546C14.4418 12.4337 14.3175 12.52 14.1983 12.6129C14.0705 12.7019 13.9358 12.7807 13.7956 12.8484C13.6535 12.9254 13.5272 13.0285 13.4233 13.1523C13.3831 13.2298 13.3261 13.2974 13.2564 13.3499C13.1867 13.4025 13.1062 13.4389 13.0206 13.4563C12.9325 13.48 12.852 13.526 12.7868 13.5899C12.7216 13.6537 12.6739 13.7333 12.6484 13.8209C12.4356 14.1021 12.1621 14.3452 11.8886 14.5807C11.5163 14.7554 11.4023 15.1733 11.2124 15.5076C11.0414 15.6291 10.9005 15.7882 10.8004 15.9725C10.7003 16.1569 10.6437 16.3617 10.635 16.5713C10.4423 16.6923 10.2938 16.8722 10.2117 17.0844C10.1295 17.2966 10.1181 17.5297 10.1791 17.7489C10.0021 18.1546 9.90411 18.5904 9.89042 19.0329C9.83724 19.4811 9.83723 19.937 9.79165 20.3928C9.94821 20.8469 9.98486 21.3337 9.89802 21.806C10.1078 22.251 10.2217 22.735 10.2323 23.2268C10.2499 23.352 10.2831 23.4745 10.3311 23.5915C10.3843 23.7054 10.4526 23.8118 10.5134 23.9181C10.6559 24.1282 10.7589 24.3625 10.8173 24.6096C11.0672 25.0604 11.3464 25.4944 11.6531 25.9087C11.8712 26.402 12.2447 26.8103 12.7167 27.0712C13.1422 27.4055 13.5981 27.6714 14.0007 28.0512C14.5317 28.2131 15.0286 28.4706 15.4671 28.811C15.9712 29.0556 16.5133 29.2123 17.0702 29.2745C17.6248 29.4188 18.1946 29.3505 18.7644 29.4416C19.3342 29.5317 19.9175 29.4741 20.4587 29.2745C20.718 29.171 20.9882 29.0972 21.264 29.0541C21.4024 29.0284 21.5394 28.9955 21.6743 28.9554C21.8085 28.922 21.9385 28.8735 22.0618 28.811C22.2032 28.8017 22.3419 28.7682 22.4721 28.7122L22.662 28.6211L22.8367 28.5071L23.0039 28.3932L23.1787 28.2716C23.2897 28.1944 23.4065 28.1258 23.5281 28.0665C24.0072 27.8127 24.441 27.4815 24.8121 27.0863C25.1768 26.6989 25.5035 26.3266 25.8758 25.9239C25.9215 25.6635 26.0525 25.4256 26.2481 25.2477C26.3392 25.149 26.4304 25.0578 26.514 24.9514L26.6279 24.7995C26.661 24.7449 26.6865 24.6861 26.7039 24.6247C26.9767 24.1998 27.1769 23.7325 27.2965 23.2419C27.3504 23.0032 27.4241 22.7694 27.5169 22.543L27.57 22.3683C27.5864 22.3083 27.5991 22.2474 27.608 22.1859C27.6271 22.0651 27.6271 21.942 27.608 21.8212C27.7068 21.3501 27.608 20.8715 27.7144 20.4081C27.6783 20.2977 27.6603 20.1822 27.6612 20.0662C27.6498 19.9525 27.6498 19.838 27.6612 19.7243C27.6612 19.6027 27.6612 19.4888 27.6612 19.3748C27.6568 19.2628 27.6337 19.1524 27.5929 19.0481C27.5245 18.5998 27.3953 18.182 27.2965 17.7641C27.3195 17.6513 27.3195 17.535 27.2965 17.4222C27.2712 17.319 27.2329 17.2195 27.1826 17.1259C27.1359 17.0295 27.0799 16.9379 27.0154 16.8524L26.8559 16.5789C26.6963 16.199 26.3696 15.9331 26.2784 15.5228C26.1197 15.1703 25.8895 14.8547 25.6023 14.5959C25.4857 14.4468 25.3887 14.2834 25.3136 14.1097C25.2753 14.0227 25.214 13.9477 25.1364 13.8928C25.0588 13.8379 24.9677 13.8052 24.8729 13.7981C24.7332 13.6889 24.6148 13.555 24.5234 13.4031C24.4752 13.3306 24.4125 13.2688 24.3393 13.2218C24.2661 13.1747 24.1839 13.1433 24.0979 13.1295C23.9342 13.1098 23.7831 13.0316 23.6725 12.9092C23.5693 12.7891 23.452 12.6819 23.323 12.5901C23.1964 12.504 23.0672 12.4281 22.9355 12.3622C22.8064 12.2938 22.6848 12.2178 22.5556 12.1571C22.0533 11.9074 21.5326 11.6966 20.9981 11.5264C20.5966 11.4037 20.1881 11.3048 19.7749 11.2301L19.0151 11.0858C18.8328 11.0554 18.7416 11.025 18.7416 10.9946C18.7416 10.9338 19.2051 10.8427 20.0788 10.8958C20.6149 10.9329 21.1465 11.0194 21.6667 11.1542C22.3745 11.3423 23.0579 11.6126 23.7029 11.9595C23.8472 12.0355 24.0068 12.0887 24.1663 12.1647C24.331 12.2329 24.4732 12.3461 24.5766 12.4914C24.7209 12.5977 24.8805 12.6889 25.0401 12.7877C25.2004 12.8921 25.3417 13.0231 25.4579 13.1751C25.8758 13.2815 26.0505 13.6918 26.3013 14.0033C26.552 14.3148 26.7799 14.6795 27.061 14.991C27.2199 15.1484 27.3442 15.3373 27.4257 15.5456C27.5109 15.7538 27.6179 15.9524 27.7448 16.1382C27.8398 16.6031 28.0257 17.0446 28.2918 17.4374C28.3919 17.9195 28.5161 18.3962 28.6641 18.8658C28.62 19.3778 28.6742 19.8936 28.8237 20.3853C28.8447 20.9186 28.8168 21.4526 28.7401 21.9808C28.6611 22.5283 28.5417 23.0692 28.383 23.5991C28.3147 24.1719 28.0972 24.7168 27.7524 25.1794C27.5159 25.7267 27.2039 26.2382 26.8255 26.6989C26.4877 27.1991 26.0839 27.6514 25.6251 28.0436C25.3968 28.2563 25.1413 28.4378 24.8653 28.5831C24.7437 28.6667 24.607 28.7503 24.4854 28.8414C24.3627 28.941 24.2507 29.053 24.1511 29.1757C23.619 29.5082 23.0599 29.7954 22.4796 30.0342C21.8794 30.2469 21.2564 30.3989 20.6334 30.5813C19.9822 30.5612 19.331 30.6251 18.696 30.7712C18.0443 30.8113 17.3902 30.7472 16.7587 30.5813C16.1236 30.4732 15.5038 30.2895 14.9124 30.0342C14.335 29.7893 13.7764 29.5023 13.241 29.1757C13.0975 29.1111 12.9623 29.0295 12.8383 28.9326C12.7141 28.8403 12.5949 28.7413 12.4812 28.6363C12.2643 28.4205 12.0306 28.2223 11.7822 28.0436C11.2865 27.6909 10.8763 27.2314 10.5818 26.6989C10.4135 26.4587 10.2661 26.2045 10.1412 25.9391C10.0728 25.81 10.0044 25.6808 9.92842 25.5593C9.88959 25.498 9.84642 25.4396 9.79925 25.3845C9.75574 25.3226 9.70747 25.2642 9.65489 25.2098C9.50294 24.9666 9.3282 24.7311 9.18385 24.45C9.11886 24.3243 9.0679 24.1918 9.03189 24.0549C9.00528 23.9067 9.00528 23.7549 9.03189 23.6067C8.92769 23.3469 8.86364 23.0728 8.84194 22.7937V22.5886C8.84563 22.5202 8.84563 22.4518 8.84194 22.3835C8.81813 22.2489 8.78255 22.1167 8.73559 21.9884C8.76866 21.8542 8.78398 21.7162 8.78117 21.5781C8.78002 21.4455 8.7673 21.3134 8.74317 21.183C8.7155 21.0526 8.69522 20.9207 8.6824 20.7879C8.66706 20.6567 8.66706 20.5241 8.6824 20.3928C8.76453 19.8898 8.8178 19.3825 8.84194 18.8733C8.89479 18.3814 9.02026 17.9001 9.21424 17.445C9.22305 17.3248 9.25127 17.2067 9.29781 17.0955C9.35099 16.9891 9.41178 16.8828 9.47256 16.784L9.64729 16.4801C9.69984 16.3768 9.7382 16.267 9.76127 16.1534C9.95695 15.7527 10.1857 15.3689 10.4451 15.0062C10.4456 14.892 10.4718 14.7795 10.5218 14.6769C10.5718 14.5743 10.6442 14.4843 10.7338 14.4135C10.9009 14.2768 11.0908 14.1552 11.2352 14.0109C11.5239 13.7298 11.6531 13.2891 12.0785 13.1827C12.1481 12.9973 12.2796 12.8416 12.4508 12.7421C12.618 12.6509 12.7927 12.5825 12.9599 12.5066C13.1106 12.4184 13.253 12.3167 13.3853 12.2026C13.5127 12.0879 13.6668 12.0069 13.8336 11.9671C13.9416 11.8399 14.0884 11.7518 14.2514 11.7164C14.4035 11.6912 14.5501 11.6398 14.6845 11.5644C14.961 11.4925 15.2306 11.3958 15.4899 11.2757C15.6073 11.2178 15.7293 11.1695 15.8545 11.1314C15.9768 11.1025 16.1014 11.0848 16.2268 11.0782L16.5687 11.0098L16.8802 10.9566C17.5127 10.8088 18.173 10.8298 18.7948 11.0174Z" fill="#98772E"/>
<path d="M28.8928 33.6196C28.1144 34.0796 27.2859 34.4492 26.4236 34.7213L25.5423 35.0479C25.2136 35.1887 24.876 35.308 24.5318 35.405C24.3365 35.4271 24.1491 35.4947 23.9848 35.6026C23.8071 35.7124 23.601 35.7679 23.3922 35.7621C22.9573 35.8388 22.5283 35.9454 22.1082 36.0812C21.6523 36.2104 21.1585 36.1648 20.6723 36.3167C20.426 36.4007 20.1588 36.4007 19.9125 36.3167C19.6648 36.2415 19.4004 36.2415 19.1527 36.3167H18.7424H18.3246C18.0418 36.2958 17.7603 36.2603 17.4812 36.2104C17.347 36.1525 17.2069 36.1092 17.0634 36.0812C16.9432 36.0548 16.8213 36.037 16.6987 36.028H16.372C16.3264 36.028 16.2884 36.0812 16.2732 36.142C16.266 36.1797 16.266 36.2183 16.2732 36.2559C16.2732 36.2559 16.2732 36.2939 16.2732 36.3167V36.4231C16.2791 36.7362 16.307 37.0485 16.3568 37.3576C16.218 37.653 16.1404 37.9735 16.1289 38.2997C16.1204 38.6311 16.164 38.9619 16.258 39.2798C16.1557 39.9434 16.1074 40.6142 16.1137 41.2856C16.0871 41.9849 16.0237 42.6823 15.9237 43.3749C16.0163 44.0985 15.9435 44.8336 15.711 45.525C15.7703 46.2758 15.6878 47.0309 15.4679 47.7511C15.2779 48.5109 15.4679 49.2707 15.2172 50.0304C15.1184 50.7902 15.0956 51.5955 14.9816 52.3781C14.936 52.5756 14.8981 52.7731 14.8601 52.9707C14.8221 53.1682 14.7993 53.3658 14.7841 53.5633C14.7347 53.967 14.7347 54.3752 14.7841 54.7789C14.7841 54.9841 14.7841 55.1892 14.7841 55.3943V56.0022C14.7875 56.4117 14.757 56.8208 14.6929 57.2254C14.7357 57.4186 14.7686 57.6138 14.7917 57.8104C14.8297 58.0003 14.8373 58.1902 14.8601 58.3802C14.8981 58.7677 14.9285 59.14 14.9816 59.5502C15.0348 59.9605 15.2096 60.31 15.3615 60.6747C15.5042 61.051 15.7097 61.4004 15.9693 61.7079C16.1854 62.0502 16.4403 62.3664 16.7291 62.6501C17.0102 62.9388 17.3065 63.2047 17.5876 63.501C17.8838 63.7882 18.2098 64.0429 18.5601 64.2608C18.7326 64.368 18.9129 64.4619 19.0995 64.5419C19.287 64.6175 19.48 64.6784 19.6769 64.7242C20.072 64.8078 20.4367 64.9369 20.8242 65.0433C21.2 65.1654 21.5916 65.232 21.9866 65.2408C22.3735 65.3444 22.7791 65.3574 23.1719 65.2788C23.5593 65.2104 23.9316 65.1117 24.3191 65.0509C24.694 64.9632 25.0641 64.8567 25.4283 64.7318C25.7912 64.6126 26.1324 64.4356 26.4388 64.2076C26.755 64.002 27.0594 63.7788 27.3505 63.539C27.6392 63.3035 27.9204 63.0603 28.2015 62.8172C28.3535 62.4814 28.5674 62.1772 28.8321 61.9207C28.9612 61.7839 29.0752 61.6472 29.1968 61.5028C29.3094 61.3621 29.4014 61.206 29.4703 61.0393C29.6835 60.7466 29.8406 60.4169 29.9337 60.0669C30.0477 59.7174 30.1009 59.3679 30.1996 59.0336C30.2984 58.6993 30.3212 58.3422 30.3668 57.9927C30.3936 57.8218 30.4088 57.6491 30.4123 57.4761C30.4139 57.2949 30.3961 57.1141 30.3592 56.9367C30.3592 56.7543 30.3592 56.572 30.3592 56.3972C30.3592 56.2225 30.3592 56.0401 30.306 55.8654C30.2756 55.5115 30.2756 55.1556 30.306 54.8017C30.2264 54.4609 30.1957 54.1104 30.2149 53.7609C30.2378 53.4175 30.2148 53.0725 30.1465 52.7352C30.0857 52.0666 30.0021 51.4056 29.9641 50.7522C30.0219 50.1097 29.9548 49.4622 29.7666 48.8452C29.6428 48.2479 29.5817 47.6393 29.5842 47.0293C29.5769 46.4504 29.5184 45.8733 29.4095 45.3047C29.3107 44.7577 29.6146 44.1727 29.2575 43.6788C29.1512 43.1622 29.3791 42.6304 29.1284 42.1593C28.8776 41.6882 29.0676 41.1944 29.0296 40.7386C28.9916 40.2827 28.9688 39.8496 28.9536 39.4393C28.9004 38.5048 28.8852 37.6615 28.8625 36.9397C28.8397 36.218 28.8625 35.5874 28.8625 35.0859C28.8415 34.5748 28.8927 34.0633 29.0144 33.5664C29.1751 34.1813 29.2517 34.8151 29.2423 35.4506C29.3411 36.6738 29.493 38.4897 29.7438 40.7006C29.8697 41.158 29.9261 41.6319 29.9109 42.1061C30.0122 42.6069 30.0731 43.1151 30.0933 43.6256C30.2695 44.1432 30.3393 44.6911 30.2984 45.2363C30.339 45.8128 30.4151 46.3863 30.5263 46.9534C30.7087 47.5232 30.6023 48.1538 30.7619 48.7616C30.7199 49.4064 30.7998 50.0534 30.9974 50.6686C31.0209 51.34 31.0997 52.0083 31.2329 52.6668C31.1759 53.0114 31.1759 53.3631 31.2329 53.7077C31.2861 54.0496 31.3621 54.3991 31.4304 54.7561C31.4827 55.1134 31.5081 55.474 31.5064 55.835C31.5064 56.0173 31.5064 56.1997 31.5064 56.3896C31.5064 56.5795 31.5064 56.7543 31.5064 56.9443V57.5065C31.5064 57.704 31.5064 57.9015 31.5064 58.1067C31.4996 58.5082 31.4512 58.908 31.3621 59.2995C31.3009 60.1349 31.0205 60.9395 30.5491 61.632C30.4708 61.8267 30.3767 62.0147 30.268 62.1942C30.1616 62.3765 30.0477 62.5589 29.9261 62.726C29.6731 63.0715 29.3964 63.399 29.098 63.7061C28.827 64.0468 28.5129 64.3507 28.1635 64.6102C27.8216 64.8761 27.4417 65.1041 27.0694 65.37C26.6895 65.5984 26.2807 65.7747 25.8538 65.8942C25.4246 66.0224 25.0056 66.1824 24.6002 66.3729C24.1621 66.4856 23.7144 66.5568 23.263 66.5856C22.8072 66.5856 22.3513 66.5856 21.8879 66.5856C20.9671 66.4889 20.0599 66.2902 19.1831 65.993C18.79 65.7373 18.3843 65.5015 17.9675 65.2864C17.5648 65.0661 17.1393 64.8458 16.7443 64.5799C16.3613 64.2994 16.0098 63.9784 15.6958 63.6225C15.3871 63.2684 15.1076 62.8898 14.8601 62.4905C14.598 62.1041 14.3717 61.6947 14.1839 61.2673C13.9879 60.8476 13.8327 60.4099 13.7204 59.9605C13.574 59.526 13.4871 59.0736 13.4621 58.6157C13.4621 58.3878 13.4621 58.1599 13.4241 57.9395C13.3861 57.7192 13.4241 57.4837 13.4241 57.271C13.4053 56.8475 13.4205 56.4232 13.4697 56.0022C13.4697 55.797 13.5077 55.5843 13.5153 55.3792C13.5265 55.1716 13.5265 54.9637 13.5153 54.7561C13.5153 54.3383 13.5153 53.928 13.5609 53.5253C13.5609 53.3202 13.5609 53.115 13.6217 52.9175C13.6824 52.72 13.69 52.5148 13.7356 52.3173C13.9103 51.5418 13.9994 50.7494 14.0015 49.9545C13.9305 49.1833 14.0264 48.4059 14.2826 47.6752C14.2826 46.9154 14.5942 46.2012 14.5486 45.4567C14.7424 44.7596 14.8294 44.0373 14.8069 43.3142C14.9494 42.6343 15.0257 41.9422 15.0348 41.2476C14.9892 40.5638 15.202 39.9104 15.2172 39.2646C15.2015 38.9403 15.2322 38.6154 15.3083 38.2997C15.3789 37.9935 15.3969 37.6775 15.3615 37.3652C15.3615 37.0537 15.4071 36.7498 15.4147 36.4459C15.4223 36.142 15.4147 35.9824 15.4527 35.7545C15.4907 35.5266 15.4527 35.2607 15.5059 34.9948V34.8732V34.896H15.6882H16.0301C16.2732 34.9416 16.5315 35.0099 16.7899 35.0783C17.0482 35.1467 17.1545 35.2075 17.2989 35.2531C17.428 35.3015 17.5599 35.3422 17.694 35.3746C17.959 35.4048 18.2267 35.4048 18.4917 35.3746C18.623 35.3593 18.7555 35.3593 18.8868 35.3746C19.0187 35.3824 19.1477 35.416 19.2667 35.4734C19.7526 35.3709 20.2546 35.3709 20.7406 35.4734C21.2193 35.4734 21.6523 35.2835 22.1082 35.3138C22.5108 35.0859 22.9743 35.2151 23.3618 35.0631C23.7486 35.0126 24.1284 34.9183 24.4938 34.782C24.8208 34.6466 25.1625 34.5497 25.5119 34.4933L26.4084 34.235C27.2126 33.943 28.0453 33.7367 28.8928 33.6196Z" fill="#5D270D"/>
<path d="M22.4039 53.622C22.4039 53.6676 22.3203 53.7056 22.1684 53.7511C22.0164 53.7967 22.0012 53.7967 21.8949 53.8271L21.5226 53.9411L21.2339 54.0475L21.0743 54.1158C21.0239 54.1446 20.9704 54.1676 20.9147 54.1842C20.7552 54.131 20.7476 54.4501 20.5653 54.3589C20.4253 54.3861 20.3006 54.4647 20.2158 54.5793C20.1094 54.6856 19.9195 54.6705 19.8511 54.8528C19.7827 55.0352 19.7523 54.982 19.6612 54.9896C19.57 54.9972 19.4712 54.9896 19.494 55.1795C19.452 55.2516 19.401 55.318 19.3421 55.377C19.2889 55.4454 19.2205 55.4986 19.1597 55.567C19.111 55.5685 19.0641 55.5855 19.0259 55.6156C18.9876 55.6457 18.9599 55.6872 18.947 55.7341C18.947 55.8253 18.8862 55.924 18.8482 56.0076C18.5975 56.0608 18.5443 56.2812 18.5899 56.5167C18.4379 56.5167 18.3316 56.6154 18.3088 56.7142C18.2968 56.7762 18.298 56.8401 18.3124 56.9017C18.3268 56.9632 18.354 57.021 18.3923 57.0713C18.3923 57.1625 18.3164 57.2612 18.2784 57.36C18.2622 57.4071 18.2495 57.4554 18.2404 57.5044C18.2295 57.5596 18.2295 57.6163 18.2404 57.6715C18.2404 57.7779 18.2404 57.8843 18.2404 57.9906C18.2591 58.0962 18.2591 58.2042 18.2404 58.3097C18.3222 58.3974 18.3729 58.5095 18.3847 58.6288C18.3958 58.6814 18.3958 58.7358 18.3847 58.7884C18.3741 58.8485 18.3563 58.9072 18.3316 58.9631C18.4142 59.0494 18.4724 59.156 18.5005 59.2721C18.5285 59.3882 18.5253 59.5096 18.4911 59.6241C18.494 59.7419 18.5431 59.8538 18.6279 59.9356C18.7039 60.0344 18.7874 60.1179 18.7723 60.2547C18.821 60.3628 18.8822 60.4648 18.9546 60.5586C19.023 60.6574 19.0989 60.7485 19.1597 60.8549C19.1779 60.9148 19.2007 60.9733 19.2281 61.0297C19.2518 61.088 19.2852 61.1419 19.3269 61.1892C19.3626 61.2416 19.4093 61.2857 19.4636 61.3184C19.5212 61.3546 19.586 61.3779 19.6536 61.3867L19.9726 61.5767C20.0779 61.6465 20.1705 61.7339 20.2461 61.835C20.5652 61.797 20.7248 61.9794 20.9223 62.1693C21.0446 62.2121 21.1639 62.2628 21.2795 62.3212C21.3951 62.3852 21.5286 62.4093 21.6593 62.3896C21.7881 62.4047 21.9181 62.4047 22.0468 62.3896C22.1803 62.3745 22.3154 62.3901 22.4419 62.4352C22.5726 62.4579 22.7045 62.4731 22.837 62.4808C22.9721 62.4748 23.1033 62.4329 23.2168 62.3593C23.3235 62.2831 23.4505 62.2407 23.5815 62.2377C23.711 62.2363 23.8383 62.2051 23.9538 62.1465C24.0201 62.1703 24.0926 62.1703 24.1589 62.1465C24.2205 62.1212 24.2771 62.0852 24.3261 62.0401L24.3945 61.9794L24.4705 61.911C24.5162 61.8691 24.5707 61.838 24.63 61.8198L24.9567 61.6299C25.0742 61.5796 25.169 61.4876 25.2226 61.3715C25.2226 61.3259 25.3062 61.2804 25.3442 61.2272L25.4505 61.0828C25.4898 61.0385 25.533 60.9978 25.5797 60.9613L25.724 60.8397C25.7048 60.7776 25.707 60.7108 25.7305 60.6501C25.7539 60.5894 25.7971 60.5385 25.8532 60.5054L26.0127 60.3915C26.0369 60.3725 26.0575 60.3493 26.0735 60.3231C26.0803 60.2982 26.0803 60.272 26.0735 60.2471C26.1673 60.1696 26.2316 60.0623 26.2559 59.9432C26.2726 59.8276 26.3058 59.715 26.3546 59.6089C26.367 59.4927 26.406 59.3809 26.4686 59.2822C26.4857 59.2594 26.4987 59.2336 26.5066 59.2062V59.1227C26.5214 59.0654 26.5214 59.0052 26.5066 58.9479C26.514 58.895 26.514 58.8413 26.5066 58.7884C26.5066 58.7276 26.5066 58.6744 26.5066 58.6212C26.4976 58.5096 26.5159 58.3975 26.5598 58.2945C26.5338 58.2453 26.5202 58.1906 26.5202 58.135C26.5202 58.0794 26.5338 58.0246 26.5598 57.9754C26.5825 57.9253 26.5942 57.8709 26.5942 57.8159C26.5942 57.7608 26.5825 57.7065 26.5598 57.6563V57.5044C26.5427 57.4549 26.5299 57.4041 26.5218 57.3524C26.5218 57.2536 26.5218 57.1549 26.461 57.0561C26.4915 57.0084 26.5076 56.9531 26.5076 56.8966C26.5076 56.84 26.4915 56.7846 26.461 56.737C26.4078 56.6458 26.3091 56.5851 26.2635 56.5015C26.2179 56.4179 25.9748 56.2356 26.0127 55.9925C25.9677 55.9112 25.9271 55.8274 25.8912 55.7417C25.8757 55.6979 25.8506 55.6581 25.8178 55.6252C25.7849 55.5924 25.7451 55.5673 25.7013 55.5518C25.6329 55.4986 25.6329 55.377 25.6101 55.2783C25.5873 55.1795 25.5265 55.1111 25.367 55.1643C25.2074 55.2175 25.2682 55.0276 25.2226 54.944C25.177 54.8604 25.1314 54.7996 25.0099 54.8376C24.8883 54.8756 24.7667 54.6477 24.6452 54.5641C24.5314 54.4825 24.412 54.4089 24.2881 54.3437C23.8698 54.1152 23.4261 53.9368 22.9661 53.8119C22.6394 53.736 22.4571 53.6752 22.4571 53.6068C22.4571 53.5384 22.5102 53.546 22.6242 53.5156H22.837H22.9813H23.1333C23.7868 53.5181 24.4303 53.677 25.0099 53.9791C25.1542 54.0626 25.4049 53.979 25.4733 54.245C25.5536 54.2941 25.6374 54.3373 25.724 54.3742C25.8173 54.4184 25.8925 54.4936 25.9368 54.5869C25.9929 54.5806 26.0495 54.5901 26.1005 54.6143C26.1515 54.6384 26.1948 54.6763 26.2255 54.7236C26.2712 54.8214 26.3246 54.9153 26.385 55.0047C26.455 55.0857 26.5185 55.1721 26.575 55.2631C26.6385 55.3572 26.7152 55.4417 26.8029 55.5138C27.0232 55.643 27.0005 55.9316 27.1676 56.1064C27.1635 56.2298 27.1896 56.3524 27.2436 56.4635C27.2994 56.5829 27.3766 56.691 27.4715 56.7826C27.4523 56.91 27.4735 57.0402 27.5323 57.1549C27.5632 57.2142 27.5911 57.275 27.6158 57.3372C27.6417 57.3979 27.6596 57.4618 27.669 57.5271C27.617 57.6563 27.617 57.8006 27.669 57.9298C27.669 58.059 27.7526 58.1882 27.7982 58.3249C27.8287 58.4625 27.8287 58.6052 27.7982 58.7428V58.9479C27.7907 59.0186 27.7907 59.0899 27.7982 59.1606C27.7608 59.4501 27.705 59.7369 27.631 60.0192C27.6249 60.1712 27.5994 60.3218 27.5551 60.4674C27.498 60.6137 27.4098 60.7459 27.2967 60.8549C27.2967 60.8549 27.2967 60.9309 27.2967 60.9613L27.2436 61.0676C27.2075 61.1362 27.1669 61.2022 27.122 61.2652C27.0376 61.3985 26.9437 61.5254 26.8409 61.6451C26.8104 61.7174 26.7722 61.7861 26.7269 61.8502L26.5598 62.025L26.385 62.1921L26.2103 62.3516C26.0975 62.4692 25.9599 62.56 25.8076 62.6175C25.6521 62.6852 25.5238 62.8028 25.4429 62.9518C25.1632 63.1317 24.8683 63.2868 24.5616 63.4153L24.0754 63.552C23.9099 63.5912 23.7474 63.642 23.5891 63.704C23.4189 63.6478 23.2351 63.6478 23.0649 63.704C22.8951 63.7363 22.7277 63.7795 22.5634 63.8332C22.3892 63.8522 22.2134 63.8522 22.0392 63.8332C21.8721 63.8332 21.6973 63.7648 21.5301 63.7268C21.363 63.6888 21.1959 63.6584 21.0363 63.6204C20.8768 63.5824 20.7172 63.4989 20.5577 63.4381C20.4742 63.4224 20.3944 63.3915 20.3221 63.3469L20.1094 63.2178L20.0031 63.1494L19.9043 63.081C19.8321 63.0379 19.7557 63.0023 19.6763 62.9747C19.5207 62.9161 19.3823 62.8194 19.2737 62.6935C19.1705 62.5678 19.0473 62.4599 18.909 62.3744L18.7039 62.2377L18.5291 62.0705L18.3772 61.8882C18.3383 61.8149 18.3053 61.7387 18.2784 61.6602C18.1905 61.5314 18.1214 61.3907 18.0732 61.2424C18.0238 61.0903 17.9249 60.9592 17.7921 60.8701C17.7162 60.7409 17.5794 60.6422 17.4958 60.5054C17.4521 60.4347 17.429 60.3531 17.429 60.2699C17.429 60.1867 17.4521 60.1052 17.4958 60.0344C17.4332 59.899 17.4046 59.7503 17.4122 59.6013C17.4082 59.566 17.4082 59.5303 17.4122 59.4949C17.4087 59.4596 17.4087 59.4239 17.4122 59.3886C17.4006 59.3159 17.3748 59.2462 17.3363 59.1834C17.3756 59.1166 17.3965 59.0406 17.3971 58.9631C17.4084 58.8952 17.4084 58.8259 17.3971 58.7579C17.3511 58.6255 17.323 58.4876 17.3135 58.3477C17.3135 58.2109 17.3743 58.0742 17.3971 57.945C17.4197 57.8118 17.4197 57.6756 17.3971 57.5423C17.3859 57.477 17.3859 57.4102 17.3971 57.3448C17.414 57.282 17.4369 57.2209 17.4654 57.1625C17.5242 57.0463 17.5701 56.924 17.6022 56.7978C17.6032 56.6692 17.6551 56.5463 17.7465 56.4559C17.8225 56.3495 17.9137 56.266 17.9061 56.1292C18.0041 55.9173 18.1237 55.7162 18.2632 55.529C18.2371 55.4694 18.2352 55.402 18.2579 55.3411C18.2806 55.2801 18.3261 55.2303 18.3847 55.2023C18.4835 55.1339 18.6051 55.0959 18.6886 55.0275C18.7623 54.95 18.8215 54.86 18.8634 54.7616C18.885 54.7091 18.9239 54.6653 18.9736 54.6377C19.0233 54.6101 19.0809 54.6002 19.1369 54.6097C19.1303 54.5529 19.1433 54.4956 19.1737 54.4473C19.2041 54.3989 19.2501 54.3624 19.304 54.3437C19.3952 54.3437 19.5092 54.2982 19.6004 54.2678C19.6915 54.2374 19.8511 53.9867 20.0638 54.0019C20.0747 53.9575 20.1018 53.9189 20.1398 53.8936C20.1777 53.8682 20.2239 53.8581 20.269 53.8651C20.3601 53.8651 20.4513 53.8651 20.5045 53.8119C20.6792 53.8119 20.7856 53.6979 20.9223 53.6751C20.9785 53.6381 21.04 53.6099 21.1047 53.5916C21.1696 53.5764 21.2373 53.5764 21.3022 53.5916L21.6441 53.546H22.062C22.1657 53.5404 22.2698 53.5404 22.3735 53.546C22.3583 53.546 22.4039 53.584 22.4039 53.622Z" fill="#5D270D"/>
<path d="M59.1156 18.6155C59.0548 18.5624 59.07 18.418 59.1612 18.1977C59.1612 18.1977 59.1612 18.1217 59.2143 18.0761C59.2246 18.0275 59.2483 17.9828 59.2827 17.9469C59.3967 17.9469 59.1991 17.7342 59.3587 17.8026C59.5182 17.871 59.4423 17.7114 59.4575 17.643C59.4727 17.5746 59.5942 17.5899 59.5714 17.4759C59.5486 17.3619 59.8373 17.5367 59.7158 17.2936C59.7158 17.2024 59.807 17.1568 59.8829 17.1188C59.9589 17.0808 60.0197 17.0124 60.088 16.9365C60.2704 17.0428 60.3008 16.9365 60.3236 16.7617C60.5363 16.9593 60.5895 16.8833 60.5971 16.6174C60.6959 16.5718 60.825 16.6174 60.8934 16.4958C60.9847 16.4328 61.094 16.4007 61.2049 16.4046C61.2885 16.2071 61.41 16.2071 61.5316 16.3439C61.5772 16.2375 61.638 16.2071 61.6912 16.2147C61.7208 16.2048 61.7527 16.2048 61.7823 16.2147H61.8355H61.9039H61.9723C61.9723 16.2147 62.0102 16.2147 62.033 16.2147H62.1698C62.261 16.2147 62.3826 16.2147 62.4053 16.2983C62.4281 16.3819 62.6333 16.3514 62.7168 16.4198C62.8004 16.4882 62.846 16.6554 63.0131 16.5414C63.1803 16.4274 63.2411 16.5414 63.3019 16.6553C63.469 16.5034 63.5298 16.6553 63.5982 16.7541C63.7045 16.7541 63.7577 16.9213 63.8944 16.8453C63.9856 16.9061 64.1148 16.8453 64.1908 16.9288C64.2667 17.0124 64.3731 17.0808 64.4871 16.982C64.601 16.8833 64.677 17.0656 64.7758 17.02C64.7758 17.1188 64.867 17.1036 64.9125 17.0808C64.9581 17.058 65.0037 17.0048 65.0569 17.0352C65.1101 17.0656 65.2392 17.134 65.3228 17.0352C65.3556 17.0038 65.3973 16.9834 65.4422 16.9766C65.487 16.9698 65.5329 16.977 65.5735 16.9972C65.5735 16.8453 65.6191 16.8605 65.6723 16.8909C65.7255 16.9213 65.7863 16.982 65.8091 16.9441C65.8175 16.9526 65.8276 16.9593 65.8387 16.9639C65.8498 16.9685 65.8617 16.9709 65.8737 16.9709C65.8857 16.9709 65.8975 16.9685 65.9086 16.9639C65.9197 16.9593 65.9297 16.9526 65.9382 16.9441C65.9382 16.9441 65.999 16.8681 66.037 16.8681C66.075 16.8681 66.113 16.8681 66.1586 16.8681C66.2042 16.8681 66.2497 16.8681 66.2497 16.7921C66.2497 16.7161 66.3257 16.6326 66.4473 16.6706C66.4473 16.5946 66.4853 16.6022 66.5384 16.6022C66.5916 16.6022 66.6448 16.6022 66.6372 16.5414L66.7208 16.4654C66.7478 16.4385 66.7785 16.4155 66.812 16.3971C67.0247 16.4958 66.9411 16.3135 66.9715 16.2451C67.0019 16.1767 66.9715 16.0551 67.1234 16.0931C67.2754 16.1311 67.2982 16.0399 67.2602 15.9336C67.2222 15.8272 67.6097 15.9868 67.3894 15.7816C67.3894 15.6981 67.6477 15.7816 67.5033 15.6297C67.359 15.4777 67.5793 15.5309 67.6097 15.4853L67.7085 15.3486C67.7768 15.2498 67.8452 15.1662 67.906 15.0902C67.9536 15.0201 68.0069 14.954 68.0655 14.8927C68.1567 14.7863 68.2403 14.7408 68.3011 14.7635C68.3618 14.7863 68.3923 14.8851 68.3923 15.0675C68.3849 15.3255 68.3414 15.5812 68.2631 15.8272C68.2631 15.888 68.3543 16.0248 68.1947 16.0172C68.1947 16.078 68.1947 16.2071 68.1187 16.2299C68.2631 16.397 68.0731 16.3819 68.0199 16.4426C67.9668 16.5034 67.8908 16.549 67.8984 16.6706C67.906 16.7921 67.7464 16.7769 67.754 16.8985C67.6021 16.8985 67.5641 16.982 67.5869 17.134C67.5033 17.134 67.4805 17.172 67.4577 17.2252C67.4401 17.277 67.4145 17.3257 67.3818 17.3695C67.1766 17.3011 67.1918 17.4683 67.1462 17.5974C67.1007 17.7266 66.9487 17.7114 66.8727 17.8102C66.7968 17.909 66.6904 17.9773 66.5612 18.0001C66.5279 18.0606 66.4811 18.1127 66.4245 18.1521C66.3923 18.167 66.3573 18.1748 66.3219 18.1748C66.2865 18.1748 66.2514 18.167 66.2193 18.1521C66.1205 18.2585 65.9838 18.2432 65.8546 18.2736C65.7255 18.304 65.5963 18.3116 65.4672 18.3572C65.338 18.4028 65.2012 18.1749 65.0797 18.3572C65.0118 18.3685 64.9425 18.3685 64.8746 18.3572C64.8096 18.342 64.742 18.342 64.677 18.3572C64.5476 18.3224 64.4113 18.3224 64.2819 18.3572C64.1908 18.1293 64.0464 18.2357 63.8944 18.2812C63.7624 18.296 63.6296 18.2608 63.5222 18.1825C63.397 18.1628 63.2763 18.1217 63.1651 18.0609C63.0284 18.0609 62.9676 17.8937 62.8232 17.9317C62.6789 17.9697 62.6409 17.7494 62.5041 17.7874C62.3674 17.8254 62.261 17.7874 62.2078 17.643C62.1546 17.4987 62.0938 17.3847 61.9419 17.5215C61.8431 17.5215 61.8735 17.7722 61.8659 17.5215C61.8435 17.5273 61.8199 17.5273 61.7975 17.5215C61.7519 17.5215 61.6987 17.4759 61.6684 17.5215C61.562 17.3163 61.5012 17.5215 61.4252 17.5215C61.3493 17.5215 61.2505 17.4379 61.2049 17.5215C61.1593 17.6051 61.0529 17.5215 60.9922 17.5671C60.9314 17.6127 60.939 17.6127 60.8934 17.5671C60.8478 17.5215 60.8022 17.5671 60.8022 17.5671C60.8022 17.5671 60.7035 17.643 60.6275 17.643C60.7415 17.9165 60.5287 17.7038 60.4604 17.7342C60.392 17.7646 60.4603 17.9469 60.3008 17.833C60.4072 18.0305 60.24 17.9317 60.1488 17.9317C60.0577 17.9317 60.1488 18.0837 60.0121 18.0381C60.0881 18.1825 59.8753 18.0381 59.8753 18.1445C59.8753 18.2509 59.8069 18.2129 59.7537 18.2357C59.7006 18.2585 59.7082 18.3268 59.6398 18.3192L59.5334 18.3952C59.3207 18.6232 59.1764 18.6687 59.1156 18.6155Z" fill="#98772E"/>
<path d="M59.1156 23.2769C59.0548 23.2238 59.07 23.0794 59.1612 22.8515C59.1612 22.8515 59.1612 22.7755 59.2143 22.7299C59.2212 22.6801 59.2454 22.6344 59.2827 22.6007C59.3967 22.6007 59.1991 22.3956 59.3587 22.4564C59.5182 22.5172 59.4347 22.3652 59.4575 22.2968C59.4803 22.2284 59.5942 22.2437 59.5714 22.1297C59.5486 22.0157 59.8297 22.1905 59.7082 21.9474C59.7082 21.8562 59.807 21.8106 59.8829 21.765C60.0425 21.841 60.0197 21.6662 60.088 21.5903C60.2628 21.6966 60.2932 21.5903 60.3236 21.4155C60.5363 21.6055 60.5819 21.5295 60.5971 21.2712C60.6883 21.2256 60.8174 21.2711 60.8934 21.1496C60.9815 21.08 61.0932 21.0473 61.2049 21.0584C61.2809 20.8609 61.4024 20.8609 61.5316 20.9901C61.5772 20.8913 61.6304 20.8609 61.6912 20.8609H61.7747H61.8127H61.8811C61.9007 20.8685 61.9223 20.8685 61.9419 20.8609H62.0103H62.147C62.1944 20.8493 62.2439 20.8493 62.2914 20.8609C62.3137 20.8649 62.3346 20.8748 62.352 20.8894C62.3693 20.9041 62.3825 20.9231 62.3901 20.9445C62.4889 20.9977 62.618 20.9976 62.7016 21.066C62.7852 21.1344 62.8232 21.3016 62.9903 21.18C63.1043 21.18 63.2259 21.18 63.279 21.2939C63.4538 21.1496 63.5146 21.2939 63.5754 21.4003C63.6817 21.4003 63.7425 21.5675 63.8717 21.4915C63.9629 21.5523 64.092 21.4915 64.1756 21.5675C64.2591 21.6435 64.3503 21.727 64.4719 21.6282C64.5934 21.5295 64.6542 21.7118 64.7606 21.6663C64.7606 21.765 64.8518 21.7498 64.8973 21.7194C64.9429 21.689 64.9885 21.6434 65.0341 21.7194C65.0797 21.7954 65.2241 21.8182 65.3 21.7194C65.376 21.6206 65.4596 21.6206 65.5583 21.7194C65.5583 21.5674 65.6039 21.5751 65.6495 21.6131C65.6951 21.6511 65.7635 21.7042 65.7939 21.6663C65.8023 21.6748 65.8124 21.6815 65.8235 21.6861C65.8346 21.6907 65.8464 21.6931 65.8584 21.6931C65.8704 21.6931 65.8823 21.6907 65.8934 21.6861C65.9045 21.6815 65.9146 21.6748 65.923 21.6663C65.923 21.6663 65.9762 21.5903 66.0218 21.5903C66.0674 21.5903 66.0978 21.5903 66.1434 21.5903C66.1889 21.5903 66.2345 21.5903 66.2345 21.5143C66.2345 21.4383 66.3105 21.3547 66.4321 21.4003C66.4321 21.3167 66.4701 21.3244 66.5232 21.3244C66.5764 21.3244 66.6296 21.3243 66.622 21.2636L66.7056 21.1876C66.7311 21.159 66.7621 21.1357 66.7967 21.1192C67.0095 21.218 66.9259 21.0356 66.9563 20.9749C66.9867 20.9141 66.9563 20.7773 67.1083 20.8153C67.2602 20.8533 67.283 20.7621 67.245 20.6558C67.207 20.5494 67.5945 20.7089 67.3742 20.5038C67.3742 20.4202 67.6325 20.5038 67.4881 20.3518C67.3438 20.1999 67.5641 20.2607 67.5945 20.2075L67.6933 20.0707C67.7616 19.972 67.83 19.8884 67.8908 19.8124C67.9384 19.7423 67.9918 19.6762 68.0504 19.6149C68.1415 19.5161 68.2251 19.4629 68.2859 19.4857C68.3467 19.5085 68.3771 19.6073 68.3771 19.7896C68.3697 20.0477 68.3262 20.3034 68.2479 20.5494C68.2479 20.6102 68.3391 20.7469 68.1795 20.7469C68.1795 20.8077 68.1795 20.9293 68.1036 20.9521C68.2403 21.1192 68.0504 21.104 68.0048 21.1648C67.9592 21.2256 67.868 21.2711 67.8832 21.3927C67.8984 21.5143 67.7312 21.4991 67.7388 21.6207C67.5869 21.6207 67.5413 21.7042 67.5641 21.8562C67.5501 21.8541 67.5359 21.8547 67.5221 21.8581C67.5084 21.8616 67.4955 21.8677 67.4842 21.8762C67.4728 21.8847 67.4633 21.8954 67.4562 21.9076C67.4491 21.9198 67.4444 21.9333 67.4426 21.9474C67.4426 21.993 67.4425 22.0613 67.359 22.0917C67.1538 22.0233 67.169 22.1905 67.1234 22.3196C67.0778 22.4488 66.9335 22.4336 66.8499 22.5324C66.7664 22.6311 66.6752 22.6995 66.546 22.7223C66.5127 22.7828 66.4659 22.8348 66.4093 22.8743C66.3771 22.8892 66.3421 22.897 66.3067 22.897C66.2712 22.897 66.2363 22.8892 66.2042 22.8743C66.1054 22.9806 65.961 22.9655 65.8394 22.9958C65.7179 23.0262 65.5811 23.0338 65.4519 23.0794C65.3228 23.125 65.1785 22.8971 65.0569 23.0794C64.9915 23.0907 64.9247 23.0907 64.8594 23.0794C64.7944 23.0642 64.7268 23.0642 64.6618 23.0794C64.5375 23.0251 64.3991 23.0118 64.2667 23.0414C64.168 22.8059 64.0236 22.9122 63.8793 22.9654C63.7449 22.9799 63.6098 22.9448 63.4994 22.8666C63.3755 22.8423 63.2554 22.8014 63.1423 22.7451C63.0055 22.7451 62.9448 22.578 62.808 22.6084C62.6712 22.6387 62.6257 22.4336 62.4889 22.4716C62.3522 22.5096 62.2458 22.4716 62.1926 22.3272C62.1394 22.1829 62.071 22.0689 61.9267 22.1981C61.8203 22.1981 61.8583 22.464 61.8507 22.1981H61.7823C61.7368 22.1981 61.6911 22.1449 61.6608 22.1981C61.5544 22.0005 61.486 22.1981 61.4176 22.1981C61.3492 22.1981 61.2353 22.1221 61.1897 22.1981C61.1441 22.274 61.0378 22.1981 60.9846 22.2512C60.9314 22.3044 60.9314 22.2512 60.8858 22.2512C60.8402 22.2512 60.7947 22.2057 60.7947 22.2512C60.7947 22.2968 60.6959 22.3272 60.6199 22.3272C60.6731 22.4716 60.6199 22.4868 60.6199 22.464C60.6199 22.4412 60.4983 22.4108 60.4679 22.4184C60.4375 22.426 60.468 22.6387 60.3084 22.5172C60.4148 22.7147 60.24 22.6235 60.1564 22.6235C60.0729 22.6235 60.1564 22.7755 60.0197 22.7299C60.0957 22.8743 59.8829 22.7299 59.8829 22.8363C59.8829 22.9426 59.8145 22.9046 59.7613 22.9274C59.7082 22.9502 59.7158 23.0186 59.6474 23.011L59.541 23.087C59.3207 23.2769 59.1764 23.3225 59.1156 23.2769Z" fill="#98772E"/>
<path d="M59.1156 27.9388C59.0548 27.8857 59.07 27.7413 59.1612 27.5134C59.1612 27.5134 59.1612 27.4374 59.2143 27.3918C59.2212 27.342 59.2454 27.2963 59.2827 27.2626C59.3967 27.2626 59.1992 27.0575 59.3587 27.1183C59.5182 27.1791 59.4347 27.0347 59.4575 26.9587C59.4803 26.8827 59.5942 26.9131 59.5714 26.7916C59.5486 26.67 59.8297 26.8523 59.7082 26.6168C59.721 26.5749 59.7436 26.5366 59.7739 26.5049C59.8043 26.4733 59.8416 26.4491 59.8829 26.4345C60.0425 26.5029 60.0197 26.3281 60.088 26.2521C60.2628 26.3585 60.2932 26.2522 60.3236 26.0774C60.5363 26.2674 60.5819 26.1914 60.5971 25.9331C60.6959 25.8875 60.8174 25.933 60.8934 25.8115C60.9694 25.6899 61.0909 25.6899 61.2049 25.7203C61.2885 25.5228 61.4024 25.5228 61.5316 25.6519C61.5772 25.5532 61.6304 25.5228 61.6912 25.5304C61.7185 25.5225 61.7474 25.5225 61.7747 25.5304H61.8355H61.9039C61.9236 25.5367 61.9449 25.5367 61.9647 25.5304H62.033H62.1698C62.261 25.5304 62.3901 25.5304 62.4129 25.6215C62.4357 25.7127 62.6409 25.6747 62.7244 25.7431C62.808 25.8115 62.846 25.9786 63.0131 25.8647C63.1803 25.7507 63.2487 25.8647 63.3095 25.971C63.4766 25.8267 63.5374 25.971 63.5982 26.0774C63.7045 26.0774 63.7653 26.2446 63.8944 26.1686C63.9856 26.2294 64.1148 26.1686 64.1984 26.2445C64.2819 26.3205 64.3731 26.4041 64.4947 26.3053C64.6163 26.2066 64.677 26.3889 64.7834 26.3433C64.7834 26.4421 64.8746 26.4269 64.9202 26.3965C64.9657 26.3661 65.0113 26.3205 65.0569 26.3965C65.1025 26.4725 65.2468 26.4877 65.3228 26.3965C65.3988 26.3053 65.4824 26.2977 65.5811 26.3965C65.5811 26.2445 65.6267 26.2521 65.6799 26.2901C65.7331 26.3281 65.7863 26.3813 65.8167 26.3433C65.8251 26.3518 65.8352 26.3586 65.8463 26.3632C65.8573 26.3678 65.8692 26.3701 65.8812 26.3701C65.8932 26.3701 65.9051 26.3678 65.9162 26.3632C65.9273 26.3586 65.9373 26.3518 65.9458 26.3433C65.9458 26.3433 65.999 26.2674 66.0446 26.2674C66.0902 26.2674 66.1205 26.2674 66.1661 26.2674C66.2117 26.2674 66.2573 26.2673 66.2573 26.1913C66.2573 26.1154 66.3333 26.0318 66.4548 26.0698C66.4548 25.9938 66.4928 26.0014 66.546 26.0014C66.5992 26.0014 66.6524 26.0014 66.6448 25.9407L66.7284 25.8647C66.7555 25.8377 66.7861 25.8147 66.8196 25.7963C67.0323 25.8875 66.9487 25.7127 66.9791 25.6443C67.0095 25.576 66.9791 25.4544 67.131 25.4848C67.283 25.5152 67.3058 25.4392 67.2678 25.3328C67.2298 25.2264 67.6173 25.386 67.397 25.1809C67.397 25.0973 67.6553 25.1809 67.5109 25.0213C67.3666 24.8618 67.5869 24.9302 67.6173 24.8846L67.7161 24.7478C67.7844 24.6491 67.8528 24.5655 67.9136 24.4895C67.9592 24.4178 68.0127 24.3516 68.0731 24.2919C68.1643 24.1856 68.2479 24.14 68.3087 24.1552C68.3694 24.1704 68.3998 24.2844 68.3998 24.4591C68.3924 24.7172 68.349 24.9729 68.2707 25.2189C68.2707 25.2797 68.3619 25.4088 68.2023 25.4088C68.2023 25.4696 68.2023 25.5912 68.1263 25.614C68.2707 25.7887 68.0807 25.7735 68.0276 25.8343C67.9744 25.8951 67.8908 25.9406 67.906 26.0546C67.9212 26.1686 67.7541 26.161 67.7617 26.2901C67.6097 26.2901 67.5717 26.3661 67.5945 26.5256C67.5109 26.5256 67.4881 26.5637 67.4653 26.6093C67.4493 26.664 67.4236 26.7155 67.3894 26.7612C67.1842 26.6852 67.1994 26.86 67.1539 26.9891C67.1083 27.1183 66.9563 27.1031 66.8803 27.2018C66.8043 27.3006 66.698 27.369 66.5688 27.3842C66.5379 27.4483 66.4907 27.5033 66.4321 27.5437C66.3999 27.5587 66.3649 27.5664 66.3295 27.5664C66.2941 27.5664 66.259 27.5587 66.2269 27.5437C66.1282 27.6501 65.9838 27.6349 65.8623 27.6653C65.7407 27.6957 65.6039 27.7033 65.4748 27.7489C65.3456 27.7945 65.2088 27.5666 65.0797 27.7489C65.0143 27.7602 64.9475 27.7602 64.8821 27.7489C64.8172 27.7337 64.7496 27.7337 64.6846 27.7489C64.5594 27.6983 64.4221 27.6851 64.2895 27.7109C64.1984 27.4829 64.054 27.5893 63.9021 27.6349C63.7676 27.6494 63.6325 27.6143 63.5222 27.5361C63.3986 27.5106 63.2786 27.4698 63.1651 27.4146C63.0284 27.4146 62.9752 27.2474 62.8308 27.2854C62.6865 27.3234 62.6484 27.1031 62.5117 27.141C62.3749 27.179 62.2686 27.141 62.2154 26.9967C62.1622 26.8523 62.1014 26.7384 61.9495 26.8675C61.8431 26.8675 61.8811 27.1335 61.8735 26.8675H61.8051C61.7595 26.8675 61.714 26.822 61.6836 26.8675C61.5772 26.6624 61.5164 26.8675 61.4404 26.8675C61.3645 26.8675 61.2581 26.784 61.2201 26.8675C61.1821 26.9511 61.0606 26.8675 61.0074 26.9131C60.9542 26.9587 60.9542 26.9131 60.9086 26.9131C60.863 26.9131 60.8174 26.9131 60.8174 26.9131C60.8174 26.9131 60.7187 26.9967 60.6427 26.9967C60.6959 27.1334 60.6427 27.1487 60.6427 27.1335C60.6427 27.1183 60.5211 27.0727 60.4907 27.0803C60.4603 27.0879 60.4907 27.3006 60.3312 27.1791C60.4375 27.3766 60.2628 27.2854 60.1793 27.2854C60.0957 27.2854 60.1792 27.4374 60.0425 27.3918C60.1184 27.5361 59.9057 27.3918 59.9057 27.4982C59.9057 27.6045 59.8373 27.5741 59.7842 27.5893C59.731 27.6045 59.7386 27.6805 59.6702 27.6805L59.5638 27.7489C59.3207 27.9388 59.1764 27.9844 59.1156 27.9388Z" fill="#98772E"/>
</g>
<defs>
<clipPath id="clip0_1570_6760">
<rect width="64.8" height="62.1332" fill="white" transform="translate(3.6001 4.5)"/>
</clipPath>
</defs>
</svg>
