<svg width="72" height="72" viewBox="0 0 72 72" fill="none" xmlns="http://www.w3.org/2000/svg">
<path d="M50.3711 51.3234C50.2768 51.0868 50.2264 50.8349 50.2224 50.5802C50.2224 50.3275 50.1332 50.0227 50.0663 49.6659C50.0663 49.5768 50.0292 49.4801 50.0143 49.3835C49.9994 49.2869 49.9623 49.1903 49.94 49.0862L49.769 48.4396C49.665 48.1349 49.5609 47.8153 49.442 47.4734C49.3677 47.3024 49.2859 47.1315 49.2116 46.9531C49.1373 46.7748 49.1447 46.7748 49.1075 46.6781C49.0704 46.5815 49.0258 46.4998 48.9886 46.4031C48.9338 46.1962 48.8349 46.0035 48.6988 45.8383C48.5493 45.6685 48.4513 45.4597 48.4163 45.2362C48.3346 45.0143 48.2326 44.8003 48.1116 44.597C47.9927 44.3889 47.8663 44.1808 47.7325 43.9653C47.515 43.4888 47.2667 43.0271 46.9893 42.5829C46.7946 42.3764 46.6631 42.1185 46.6103 41.8396C46.547 41.5566 46.4023 41.2982 46.194 41.0964C46.0454 40.8362 45.9042 40.5687 45.7778 40.2937C45.6515 40.0187 45.5325 39.7288 45.4136 39.4315C45.3816 39.2672 45.3369 39.1057 45.2798 38.9484C45.2278 38.7997 45.1609 38.6511 45.094 38.5025C45.0271 38.3538 44.9528 38.2051 44.8711 38.0565C44.7936 37.9103 44.7265 37.7588 44.6704 37.6031C44.6518 37.2618 44.579 36.9256 44.4549 36.6071C44.3338 36.279 44.1923 35.9588 44.0312 35.6484C44.0801 35.552 44.1007 35.4438 44.0907 35.3362H44.0238H43.7934H43.6596L43.3846 35.3734C43.2013 35.4135 43.0202 35.4631 42.842 35.522C42.0998 35.4662 41.3545 35.4662 40.6123 35.522C39.869 35.522 39.0812 35.5889 38.2934 35.522C37.5019 35.6893 36.6842 35.6893 35.8927 35.522C35.0716 35.6671 34.2314 35.6671 33.4102 35.522C32.5704 35.4106 31.7156 35.6856 30.846 35.522H29.5379H28.4231H28.3413L28.2967 35.5815V35.6633L28.1852 35.9903C28.0449 36.4305 27.9356 36.88 27.8582 37.3356C27.7404 37.7894 27.5964 38.2361 27.4271 38.6734L27.3082 39.0079C27.2636 39.1119 27.2116 39.2234 27.1596 39.3274C27.1075 39.4315 26.9514 39.7511 26.8325 39.9592C26.7247 40.4247 26.5574 40.8743 26.3346 41.297C26.1098 41.7193 25.8617 42.1287 25.5913 42.5234C25.1825 43.3855 24.6028 44.1585 24.2758 45.0578C23.8224 45.8903 23.5325 46.797 23.1683 47.6443C22.7941 48.4916 22.6041 49.4087 22.6109 50.3349C22.6629 50.7957 22.6109 51.2416 22.6109 51.695C22.5883 52.1495 22.6107 52.6051 22.6778 53.0551C22.6702 53.284 22.6851 53.513 22.7224 53.7389C22.7332 53.85 22.7556 53.9596 22.7893 54.066C22.7893 54.1775 22.8487 54.289 22.8859 54.393L22.9825 54.7126L23.094 55.0322C23.094 55.1362 23.1684 55.2403 23.1981 55.3443C23.2278 55.4484 23.2575 55.5599 23.2947 55.6639C23.3319 55.768 23.4433 56.0802 23.5102 56.2957C23.5771 56.5112 23.6737 56.7045 23.7481 56.9051C23.8271 57.1126 23.9215 57.3138 24.0305 57.5072C24.1284 57.7016 24.2454 57.8859 24.3798 58.0572C24.8332 58.8004 25.3758 59.4619 25.8663 60.1605C26.0485 60.2733 26.2179 60.4053 26.3717 60.5545C26.524 60.6979 26.6633 60.8546 26.7879 61.0227C26.9217 61.1862 27.0629 61.3423 27.2042 61.4984C27.2722 61.5763 27.3441 61.6508 27.4197 61.7214C27.4978 61.788 27.5797 61.85 27.665 61.9072C27.8075 62.06 27.9616 62.2016 28.1258 62.3308L28.3859 62.5018L28.5123 62.591C28.5233 62.5983 28.5362 62.6023 28.5494 62.6023C28.5627 62.6023 28.5756 62.5983 28.5866 62.591H28.8765C29.092 62.591 29.3001 62.591 29.5157 62.591C30.3555 62.5389 31.1805 62.7322 31.9981 62.591C32.7978 62.55 33.599 62.55 34.3987 62.591C35.1866 62.4423 35.9596 62.7173 36.7177 62.591C37.4758 62.4646 38.2042 62.591 38.9474 62.591C39.6532 62.7135 40.3748 62.7135 41.0805 62.591C41.7552 62.5239 42.4349 62.5239 43.1096 62.591H43.6001H43.7265C43.7265 62.591 43.7636 62.591 43.7785 62.591H43.8305L43.9123 62.5389L44.0089 62.4721L44.2021 62.3457C44.3247 62.2542 44.4391 62.1523 44.544 62.041C44.7808 61.8637 45.0291 61.7023 45.2873 61.5578C45.4145 61.4837 45.5319 61.3938 45.6366 61.2903C45.7422 61.1822 45.8189 61.0493 45.8596 60.9038C45.9499 60.796 46.0522 60.6988 46.1643 60.614L46.4839 60.3464C46.7115 60.1879 46.8832 59.9616 46.9744 59.6997C47.1602 59.172 47.6136 58.8822 47.8886 58.466L48.2751 57.8565L48.6021 57.247C49.0228 56.4457 49.3686 55.6072 49.6352 54.7423C49.6947 54.5565 49.7393 54.3707 49.7913 54.1923C49.8434 54.0139 49.8879 53.843 49.9177 53.6795C49.9474 53.516 49.9846 53.3599 50.0143 53.2112C50.0503 53.0693 50.0776 52.9254 50.0961 52.7801C50.1407 52.5051 50.1778 52.2673 50.215 52.0369C50.2522 51.8065 50.2521 51.6504 50.2744 51.5092C50.3116 51.2194 50.3488 51.0707 50.3785 51.0707C50.4082 51.0707 50.4454 51.2565 50.4677 51.6132C50.4795 51.8361 50.4795 52.0594 50.4677 52.2822C50.4677 52.4085 50.4677 52.5572 50.4677 52.7058C50.4677 52.8545 50.4677 52.8619 50.4677 52.9437C50.4677 53.0254 50.4677 53.1072 50.4677 53.1964C50.4677 53.2855 50.4677 53.5457 50.4082 53.7389C50.3488 53.9322 50.3339 54.1254 50.3042 54.341C50.2299 54.7572 50.1035 55.2106 49.9697 55.6937C49.6338 56.7947 49.1646 57.8505 48.5724 58.8376C48.36 59.3401 48.0492 59.7949 47.6582 60.1754C47.4947 60.4058 47.3238 60.6288 47.1454 60.8666C47.0575 60.9832 46.9632 61.0949 46.863 61.2011C46.756 61.308 46.6418 61.4073 46.5211 61.4984C46.4519 61.6382 46.3644 61.7681 46.2609 61.8849C46.1533 61.9984 46.0365 62.1029 45.9116 62.1971C45.6738 62.3977 45.3913 62.5538 45.1684 62.7471C45.046 62.852 44.9168 62.9488 44.7819 63.0369L44.3508 63.3193L44.1947 63.4234C44.1427 63.4606 44.0981 63.5126 44.0312 63.4977H43.667C43.5037 63.4867 43.3398 63.4867 43.1765 63.4977C42.515 63.6241 41.8386 63.4383 41.1474 63.4977C40.442 63.3717 39.7198 63.3717 39.0143 63.4977C38.2726 63.4306 37.5263 63.4306 36.7846 63.4977C36.0177 63.3603 35.2325 63.3603 34.4657 63.4977C33.6778 63.5721 32.8751 63.4977 32.065 63.4977C31.2548 63.4977 30.4224 63.5498 29.5825 63.4977L28.9433 63.5572H28.2001L28.1406 63.52L28.0143 63.4383L27.7913 63.2822L27.6575 63.1855L27.3825 62.9849C27.2078 62.841 27.0416 62.6871 26.8846 62.524L26.6021 62.3308L26.342 62.1078C26.171 61.9592 25.9927 61.8105 25.8291 61.647C25.6656 61.4835 25.5096 61.32 25.3535 61.1491C25.1974 60.9781 25.0488 60.7997 24.8927 60.6288C24.2492 59.9421 23.6971 59.1751 23.2501 58.347C23.1168 58.1461 23.0047 57.9319 22.9156 57.7078C22.819 57.4923 22.7224 57.2693 22.6406 57.0463C22.5637 56.8187 22.4744 56.5954 22.3731 56.3775C22.281 56.1501 22.1691 55.9312 22.0386 55.7234C21.7306 54.7905 21.5018 53.8333 21.3548 52.8619C21.2737 51.8731 21.244 50.8808 21.2656 49.8889C21.3437 49.6449 21.4082 49.3968 21.4589 49.1457L21.5258 48.774C21.5258 48.6477 21.5778 48.5214 21.6001 48.395C21.6224 48.2687 21.6447 48.1498 21.6596 48.0234C21.6744 47.8971 21.6967 47.7633 21.7265 47.6443L21.8825 46.9011C22.1738 45.9389 22.5701 45.0117 23.0643 44.1362C23.4879 43.2517 23.9562 42.4119 24.4021 41.5869C24.5943 41.1627 24.8076 40.7485 25.0413 40.3457C25.2705 39.9471 25.4644 39.5293 25.621 39.097C25.693 38.8818 25.7774 38.6708 25.8738 38.4653L26.015 38.1531L26.1562 37.8484C26.3591 37.4487 26.5162 37.0273 26.6244 36.5923C26.7359 36.1612 26.8697 35.7376 26.9737 35.3139C26.9737 35.2024 27.0406 35.0984 27.0704 34.9943L27.2339 34.4666C27.3008 34.2585 27.3602 34.0653 27.4271 33.8646H27.7096H28.0292H28.5792H28.9062L29.5677 33.9092C30.0044 33.9489 30.4445 33.9289 30.8758 33.8497C31.7216 33.6751 32.5942 33.6751 33.44 33.8497C34.2798 33.7754 35.1048 33.991 35.9224 33.8497C36.719 33.9574 37.5265 33.9574 38.3231 33.8497C39.0945 33.9202 39.8706 33.9202 40.642 33.8497C41.3853 33.7457 42.1285 33.9092 42.8717 33.8497C43.0521 33.8315 43.2339 33.8315 43.4143 33.8497H43.6893H43.8231H44.0312H44.4623H44.6778H44.7967V34.4889V34.541C44.8668 34.8169 44.9562 35.0876 45.0643 35.3511C45.1461 35.6855 45.2352 36.0051 45.3393 36.3247C45.4433 36.6443 45.5549 36.949 45.6366 37.2612C45.749 37.3866 45.844 37.5266 45.919 37.6774C45.9841 37.8204 46.034 37.9699 46.0677 38.1234C46.1048 38.2795 46.1346 38.4356 46.1643 38.5916C46.1932 38.7445 46.2381 38.894 46.2981 39.0376C46.4105 39.319 46.5473 39.5901 46.7069 39.8477C46.869 40.0985 46.9707 40.3834 47.0042 40.6802C47.2136 40.8886 47.3714 41.1431 47.465 41.4234C47.5616 41.691 47.6359 41.966 47.7325 42.2187C47.9936 42.6749 48.2269 43.1465 48.4312 43.6308C48.6001 43.8159 48.7247 44.037 48.7954 44.2774C48.8553 44.511 48.9453 44.7359 49.063 44.9464C49.118 45.1675 49.203 45.38 49.3157 45.5781C49.4172 45.7705 49.5066 45.9691 49.5832 46.1727C49.6353 46.2619 49.6799 46.3585 49.7244 46.4477L49.8359 46.7376C49.8954 46.9308 49.9474 47.1166 49.992 47.3024C50.0961 47.6666 50.1778 48.0085 50.2596 48.3281C50.3413 48.6477 50.3413 48.7963 50.3859 49.0119C50.4305 49.2274 50.4231 49.2275 50.4305 49.3241C50.438 49.4207 50.4305 49.5247 50.4305 49.6213C50.4632 49.9373 50.4757 50.2551 50.4677 50.5727C50.4826 51.0633 50.4157 51.3234 50.3711 51.3234Z" fill="#5D270D"/>
<path d="M36.974 3.24442C36.974 3.24442 36.8924 3.19175 36.759 3.10898C36.5494 2.99539 36.3145 2.93841 36.0769 2.94347C35.9083 2.94935 35.7422 2.98762 35.5876 3.05631C35.5042 3.09485 35.4268 3.14556 35.3578 3.2068L35.2614 3.31215L35.165 3.45512L34.1864 4.8471L33.3857 5.96827C33.1114 6.37458 32.8148 6.80347 32.4812 7.23235C32.1476 7.66124 31.9548 8.26319 31.4581 8.64693C31.0606 9.13792 30.6965 9.65579 30.3683 10.1969C29.9976 10.7537 29.4935 11.2428 29.145 11.8824C28.7966 12.522 28.07 12.9057 27.8179 13.6882C27.4028 14.3428 26.906 14.9749 26.4019 15.622C25.8319 16.2442 25.3344 16.9309 24.9191 17.6686C24.2612 18.2826 23.7208 19.0147 23.3252 19.8281C22.5745 20.4116 21.9951 21.1921 21.6497 22.0854C21.0248 22.8403 20.4407 23.629 19.9 24.4481C19.3143 25.2607 18.736 26.1109 18.0762 26.9085C17.5819 27.8562 16.9411 28.7173 16.1783 29.4592C15.6441 30.4257 14.9832 31.3142 14.2136 32.1003C13.8503 32.5247 13.5206 32.9776 13.2276 33.4547V33.5224C13.2243 33.5423 13.2243 33.5627 13.2276 33.5826C13.2297 33.5975 13.2297 33.6127 13.2276 33.6277L13.3166 33.6879H13.4278H14.8586C15.4295 33.6879 16.0078 33.6879 16.5935 33.6879C17.7691 33.8123 18.9542 33.8123 20.1298 33.6879C21.3321 33.6089 22.5381 33.6089 23.7404 33.6879C24.971 33.528 26.2166 33.528 27.4473 33.6879C28.6928 33.6503 29.9457 33.8008 31.2061 33.6879C32.4664 33.6879 33.7341 33.5976 35.0167 33.6879C36.2879 33.7782 37.5637 33.7782 38.8349 33.6879C40.0952 33.5525 41.3481 33.7406 42.5862 33.6879C43.8318 33.876 45.0624 33.6202 46.2931 33.6879C47.5238 33.7556 48.7174 33.8008 49.9037 33.6879C51.0817 33.6277 52.262 33.6277 53.44 33.6879C54.604 33.387 55.7531 33.7632 56.8874 33.6879C57.4495 33.7381 58.0141 33.7506 58.5778 33.7255H58.7187H58.8299L58.9337 33.6804L58.9781 33.6428C59.0013 33.6241 59.0196 33.5999 59.0312 33.5723C59.0429 33.5447 59.0476 33.5146 59.0449 33.4848V33.4471L58.9633 33.3418C58.8818 33.2289 58.8076 33.1161 58.7261 33.0107L58.259 32.3336C57.9642 31.879 57.6345 31.4488 57.273 31.0469C56.6502 30.174 55.9162 29.399 55.3899 28.5036C54.6485 27.7512 54.2556 26.7956 53.5661 26.0582C52.8766 25.3208 52.3724 24.4856 51.8238 23.7031C51.368 22.8795 50.8072 22.1205 50.1557 21.4458C49.5765 20.7682 49.0462 20.049 48.5692 19.2939C48.1197 18.5793 47.6244 17.8957 47.0864 17.2473C46.5674 16.6152 46.345 15.7424 45.6704 15.321C45.1662 14.7341 44.929 13.9591 44.3507 13.5076C43.8628 13.0115 43.4483 12.4464 43.12 11.8297C42.7345 11.288 42.3786 10.7688 42.0005 10.2797C40.3843 8.0224 39.1314 6.29931 38.2936 5.08789C37.8221 4.49416 37.4145 3.85094 37.0778 3.16919C37.7479 3.81066 38.3584 4.51337 38.9016 5.26847C40.0359 6.66799 41.6669 8.73722 43.7131 11.3707C44.1968 11.8679 44.6244 12.418 44.9883 13.011C45.48 13.5747 45.938 14.1676 46.3599 14.7868C46.9418 15.3428 47.4412 15.9815 47.8426 16.6829C48.3468 17.3375 48.799 18.0524 49.3995 18.6994C50 19.3465 50.4152 20.1516 51.038 20.8363C51.5065 21.6633 52.0825 22.4226 52.7505 23.0936C53.2996 23.9159 53.8988 24.7025 54.5447 25.4488C55.0249 26.359 55.6206 27.2014 56.3166 27.9544C57.0061 28.752 57.5621 29.6549 58.2516 30.4976C58.563 30.934 58.8966 31.3629 59.2376 31.7993L59.7492 32.4539L60.0012 32.785L60.068 32.8678L60.1569 33.0258C60.2082 33.1386 60.2456 33.2574 60.2681 33.3794C60.3244 33.63 60.3063 33.8918 60.2163 34.1319C60.1207 34.3738 59.9649 34.5864 59.764 34.7489L59.6083 34.8617L59.5194 34.9144H59.4823C59.3872 34.9635 59.288 35.0038 59.1857 35.0348L58.8744 35.1025H58.7187H58.5407C57.9764 35.1075 57.4121 35.0824 56.8504 35.0273C55.7161 35.095 54.5669 35.0273 53.403 35.0273C52.239 35.0273 51.0602 35.0273 49.8666 35.0273C48.6646 34.9408 47.4581 34.9408 46.2561 35.0273C45.0402 35.0273 43.8095 35.0273 42.5492 35.0273C41.2888 35.0273 40.0581 34.9746 38.7978 35.0273C37.5294 34.8768 36.2481 34.8768 34.9797 35.0273C33.6971 35.0875 32.4293 35.0273 31.169 35.0273C29.9086 35.0273 28.6557 35.0273 27.4102 35.0273C26.1647 35.0273 24.9414 34.937 23.7033 35.0273C22.4652 35.1176 21.279 34.9295 20.0928 35.0273C18.9155 35.1139 17.7336 35.1139 16.5564 35.0273C15.9707 35.0273 15.3924 34.9746 14.8216 34.952C14.5324 34.952 14.2507 34.952 13.9615 34.952H13.5316H13.2498C13.1462 34.9594 13.0421 34.9594 12.9384 34.952C12.834 34.9271 12.7322 34.8918 12.6345 34.8467L12.5529 34.809L12.464 34.7639L12.3009 34.6511C12.0859 34.4971 11.9167 34.2863 11.8116 34.0416C11.711 33.8048 11.6776 33.5442 11.7152 33.2892C11.7418 33.1555 11.7867 33.0264 11.8486 32.9054C11.8788 32.8451 11.9135 32.7872 11.9524 32.7323L12.0117 32.642C12.3161 32.1628 12.6941 31.7361 13.1312 31.3779C13.7391 30.4449 14.5695 29.7076 15.1181 28.767C15.8403 27.992 16.4836 27.1449 17.0383 26.2388C17.7121 25.4698 18.3338 24.6553 18.8991 23.8009C19.4181 22.9356 20.1372 22.2509 20.6859 21.4609C21.2345 20.6708 21.961 20.0463 22.3985 19.2036C22.9693 18.4511 23.4735 17.7438 24.0295 17.0742C24.3186 16.2013 25.0674 15.7047 25.579 15.0652C25.9969 14.3754 26.4947 13.7388 27.0617 13.169C27.4027 12.4935 27.8683 11.8907 28.4333 11.3933C28.9226 10.8591 29.2117 10.2044 29.7159 9.74546C29.9902 9.12094 30.5685 8.75977 30.8873 8.24059C31.2747 7.80845 31.6338 7.35099 31.9623 6.87115C32.2467 6.43385 32.5692 6.02337 32.9261 5.64468L33.786 4.56871L34.8462 3.24442L34.9649 3.10145C35.013 3.04972 35.065 3.00196 35.1205 2.95853C35.2185 2.88198 35.3289 2.82338 35.4467 2.78544C35.6414 2.71493 35.849 2.68924 36.0547 2.71022C36.2139 2.72148 36.3697 2.76227 36.5143 2.83059C36.6158 2.8808 36.7105 2.94402 36.7961 3.01869C36.9592 3.12404 36.9888 3.23689 36.974 3.24442Z" fill="#98772E"/>
<path d="M19.7799 63.2847C19.7799 63.2847 19.7279 63.3293 19.6387 63.359C19.5033 63.4005 19.3754 63.4633 19.2596 63.5449C19.0881 63.6741 18.9567 63.8494 18.8806 64.0503C18.8344 64.1736 18.8142 64.3052 18.8211 64.4367C18.8211 64.6077 18.8211 64.7861 18.8211 64.9719V65.3584V65.5442C18.8325 65.5971 18.8474 65.6492 18.8657 65.7002C18.9571 65.9159 19.1163 66.0959 19.3191 66.2131C19.3661 66.257 19.4251 66.2861 19.4885 66.2966C19.552 66.3072 19.6171 66.2988 19.6758 66.2726H19.7204H19.7799H19.9137C20.0058 66.2681 20.0976 66.2859 20.1813 66.3246C20.5568 66.365 20.9355 66.365 21.311 66.3246C21.7201 66.3414 22.13 66.329 22.5373 66.2874C22.961 66.0793 23.3995 66.5253 23.8529 66.2874C24.323 66.2538 24.7949 66.2538 25.2651 66.2874C25.7564 66.3783 26.2602 66.3783 26.7515 66.2874C27.2666 66.4509 27.8196 66.4509 28.3347 66.2874C28.5926 66.4141 28.8761 66.4799 29.1634 66.4799C29.4507 66.4799 29.7342 66.4141 29.9921 66.2874C30.568 66.343 31.1479 66.343 31.7238 66.2874C32.3254 66.2539 32.9284 66.2539 33.5299 66.2874C34.1426 66.1166 34.7903 66.1166 35.4029 66.2874C36.041 66.1387 36.7047 66.1387 37.3428 66.2874C37.9968 66.3915 38.6583 66.1165 39.3347 66.2874C40.011 66.2874 40.6948 66.2428 41.386 66.2874C42.0811 66.4174 42.7943 66.4174 43.4894 66.2874C44.2032 66.2094 44.9235 66.2094 45.6374 66.2874C46.3595 66.1277 47.1078 66.1277 47.8299 66.2874C48.5726 66.328 49.317 66.328 50.0597 66.2874C50.8029 66.2874 51.5461 66.1982 52.2894 66.2874C52.3722 66.3095 52.4593 66.3095 52.5421 66.2874C52.6285 66.2553 52.7034 66.1984 52.7576 66.1239C52.8099 66.0499 52.8385 65.9618 52.8394 65.8712V65.782V65.6408C52.8394 65.5516 52.8394 65.455 52.8022 65.3584C52.7729 65.1765 52.758 64.9926 52.7576 64.8083C52.7525 64.7354 52.74 64.6632 52.7205 64.5928C52.6899 64.5197 52.6443 64.4539 52.5867 64.3996C52.5563 64.373 52.5209 64.3528 52.4827 64.34C52.4444 64.3273 52.404 64.3223 52.3637 64.3253C52.3417 64.3199 52.3188 64.3199 52.2968 64.3253H52.163H51.8806C51.6999 64.3142 51.5187 64.3142 51.338 64.3253C50.9746 64.3584 50.6089 64.3584 50.2455 64.3253C49.5276 64.2844 48.808 64.2844 48.0901 64.3253C47.3902 64.3847 46.6866 64.3847 45.9867 64.3253C45.2955 64.6226 44.6117 64.2509 43.9428 64.3253C43.2771 64.2807 42.6091 64.2807 41.9434 64.3253C41.2894 64.3847 40.6428 64.1915 40.011 64.3253C39.3875 64.37 38.7616 64.37 38.138 64.3253C37.5212 64.4665 36.9191 64.1989 36.3319 64.3253C35.7448 64.4516 35.1651 64.3253 34.5928 64.3253C34.0471 64.2027 33.481 64.2027 32.9353 64.3253C32.412 64.3887 31.883 64.3887 31.3596 64.3253C30.8656 64.2709 30.3672 64.2709 29.8732 64.3253C29.39 64.3253 28.9144 63.9908 28.461 64.3253C28.0076 64.3773 27.5691 64.0874 27.138 64.3253C26.7069 64.5631 26.3056 64.3253 25.9117 64.3253H24.7894C21.5563 64.2286 19.6981 64.1097 19.6981 63.9833C19.6981 63.857 21.9873 63.7232 25.9117 63.6117C26.3171 63.5372 26.7326 63.5372 27.138 63.6117C27.5779 63.5669 28.0211 63.5669 28.461 63.6117C28.9251 63.5 29.4091 63.5 29.8732 63.6117C30.368 63.6479 30.8648 63.6479 31.3596 63.6117C31.8725 63.4854 32.3928 63.6712 32.9353 63.6117C33.4808 63.7365 34.0473 63.7365 34.5928 63.6117C35.171 63.671 35.7537 63.671 36.3319 63.6117C36.9262 63.7489 37.5438 63.7489 38.138 63.6117C38.7475 63.5448 39.3718 63.6117 40.011 63.6117C40.6502 63.6117 41.2894 63.5597 41.9434 63.6117C42.6058 63.5076 43.2804 63.5076 43.9428 63.6117C44.6117 63.5448 45.2955 63.6117 45.9867 63.6117C46.6779 63.6117 47.384 63.6117 48.0901 63.6117C48.8058 63.7009 49.5298 63.7009 50.2455 63.6117C50.6022 63.6117 50.9887 63.6117 51.338 63.6117H52.5124C52.8029 63.652 53.0801 63.7588 53.3225 63.9239C53.5565 64.0969 53.7515 64.3172 53.8948 64.5705C54.0327 64.8296 54.109 65.117 54.1178 65.4104C54.1178 65.611 54.1178 65.7894 54.1178 65.9752C54.1178 66.161 54.0732 66.1685 54.0509 66.2577V66.3989V66.5996C54.0098 66.8815 53.9098 67.1517 53.7575 67.3924C53.6051 67.6332 53.4037 67.8391 53.1664 67.9969C52.9134 68.1564 52.6249 68.2509 52.3266 68.2719C51.5839 68.315 50.8395 68.315 50.0968 68.2719C49.3536 68.2719 48.6103 68.2719 47.8671 68.2719C47.1239 68.2719 46.3806 68.1827 45.6745 68.2719C44.9684 68.3611 44.2326 68.1753 43.5266 68.2719C42.828 68.3574 42.1217 68.3574 41.4232 68.2719C40.7425 68.179 40.0524 68.179 39.3718 68.2719C38.6955 68.2719 38.034 68.5543 37.3799 68.2719C36.7184 68.3536 36.0718 68.1307 35.4401 68.2719C34.8201 68.1679 34.1871 68.1679 33.5671 68.2719C32.9671 68.2014 32.361 68.2014 31.761 68.2719C31.1842 68.3055 30.606 68.3055 30.0293 68.2719C29.4644 68.3982 28.9069 68.1084 28.3718 68.2719C27.8292 68.2719 27.3015 68.2719 26.7887 68.2719C26.2759 68.5692 25.7779 68.2719 25.3022 68.2719C24.8265 68.2719 24.3509 68.4651 23.8901 68.2719C23.463 68.4136 23.0016 68.4136 22.5745 68.2719C22.1509 68.205 21.7346 68.3685 21.3481 68.2719C20.9542 68.428 20.6049 68.1827 20.2184 68.2347L19.9509 68.1901H19.6758C19.4618 68.1908 19.2514 68.1343 19.0664 68.0266C18.8849 67.9499 18.7265 67.8274 18.6066 67.671C18.4868 67.5147 18.4096 67.3299 18.3826 67.1347C18.3605 67.0469 18.3456 66.9574 18.338 66.8671V66.7408C18.3346 66.7062 18.3346 66.6713 18.338 66.6367C18.338 66.5029 18.338 66.3766 18.338 66.2502C18.338 66.1239 18.338 65.8786 18.338 65.7151C18.3468 65.5311 18.3949 65.3512 18.4792 65.1874C18.6059 64.9367 18.8125 64.7353 19.0664 64.6151C19.2173 64.5444 19.383 64.5113 19.5495 64.5185C19.7279 63.2476 19.7799 63.2698 19.7799 63.2847Z" fill="#5D270D"/>
<path d="M53.2102 30.2655C53.1433 30.3101 52.9872 30.2656 52.7568 30.0574L52.6379 29.9534C52.5814 29.9265 52.5327 29.8855 52.4966 29.8344C52.5487 29.723 52.2662 29.8344 52.3554 29.7007C52.4446 29.5669 52.2737 29.5892 52.1993 29.552C52.125 29.5148 52.1622 29.3885 52.0358 29.3811C51.9095 29.3736 52.1176 29.1135 51.8575 29.2027C51.7732 29.1643 51.7068 29.0951 51.6716 29.0094C51.746 28.8385 51.5602 28.8608 51.4784 28.7939C51.575 28.6007 51.4784 28.5709 51.2777 28.5784C51.4264 28.3331 51.3298 28.2736 51.0696 28.3405C50.9953 28.2588 51.0102 28.1101 50.8466 28.0878C50.6831 28.0655 50.6608 27.9541 50.6237 27.8277C50.4081 27.8277 50.3487 27.7459 50.3933 27.5601C50.1703 27.5601 50.1554 27.4338 50.1554 27.2777C50.1554 27.1216 49.873 27.1811 49.9176 26.9878C49.8507 26.8764 49.7243 26.8094 49.6723 26.6831C49.6203 26.5567 49.6723 26.3709 49.4196 26.3709C49.1669 26.3709 49.1669 26.2223 49.1669 26.0514C48.9217 26.0514 48.9068 25.9027 48.9068 25.7243C48.9068 25.5459 48.825 25.4345 48.6466 25.3899C48.5872 25.2561 48.4014 25.2189 48.3865 25.0479C48.3716 24.877 48.3047 24.7432 48.1264 24.7061C47.948 24.6689 47.9926 24.4459 47.8662 24.3642C47.9331 24.1412 47.6507 24.1858 47.621 24.0297C47.5912 23.8736 47.5466 23.7473 47.3831 23.7027C47.3216 23.6694 47.2682 23.6228 47.2271 23.5662C47.1859 23.5096 47.158 23.4445 47.1453 23.3756C46.8331 23.4574 47.0487 23.123 46.9223 23.0635C46.9223 22.8851 46.7514 22.8703 46.6993 22.7513C46.6473 22.6324 46.6622 22.4763 46.4912 22.4466C46.4392 22.3425 46.2683 22.3203 46.2905 22.1568C46.1047 22.1568 46.246 21.8966 46.0973 21.8743C46.0244 21.7922 45.9642 21.6994 45.9189 21.5993C46.0304 21.3689 45.8223 21.4061 45.7406 21.3317C45.6588 21.2574 45.5176 21.25 45.5845 21.0791C45.5399 20.9899 45.5845 20.8486 45.4284 20.8338C45.2723 20.8189 45.5845 20.4844 45.2946 20.6034C45.198 20.6034 45.3764 20.3284 45.1608 20.3878C44.9453 20.4473 45.0865 20.2466 45.0493 20.1797L44.9453 19.9939C44.648 19.4439 44.5291 19.0946 44.6257 19.0203C44.7223 18.9459 45.1014 19.2061 45.6365 19.7635C45.6885 19.8155 45.8669 19.7635 45.8074 19.927C45.748 20.0905 46.0007 19.9865 45.9784 20.1054C46.2014 20.0459 46.1196 20.2243 46.1642 20.306C46.2088 20.3878 46.2311 20.4919 46.3575 20.5142C46.4838 20.5365 46.4318 20.7074 46.5581 20.7371C46.521 20.9007 46.6102 20.9601 46.7737 20.975C46.7365 21.1385 46.9223 21.1311 46.9892 21.2203C46.9 21.4284 47.0784 21.4358 47.2122 21.4804C47.346 21.525 47.3311 21.6885 47.4426 21.7554C47.5541 21.8223 47.6284 21.9189 47.6804 22.0378C47.7325 22.1567 47.9331 22.1567 47.9183 22.3277C48.052 22.3872 48.0892 22.521 48.171 22.625C48.2527 22.7291 48.3196 22.848 48.4162 22.9372C48.5129 23.0263 48.4162 23.279 48.6764 23.2567C48.7804 23.3534 48.8102 23.502 48.9291 23.5838C48.9782 23.72 49.0693 23.8371 49.1892 23.9182C49.1075 24.1635 49.3007 24.2007 49.4568 24.2601C49.5764 24.348 49.667 24.4697 49.7169 24.6095C49.8134 24.7112 49.8981 24.8234 49.9696 24.9439C50.1034 25.0183 50.0662 25.2263 50.2149 25.2784C50.3635 25.3304 50.3041 25.5534 50.4602 25.6128C50.6162 25.6723 50.698 25.7615 50.6906 25.9324C50.6831 26.1034 50.6906 26.2594 50.9135 26.252C51.1365 26.2446 51.3 26.252 51.1365 26.5568C51.2703 26.6162 51.1737 26.8466 51.3446 26.8615C51.248 27.0919 51.4858 27.0622 51.5453 27.1588C51.6047 27.2554 51.5973 27.4115 51.7385 27.4412C51.8798 27.4709 51.8277 27.6493 51.9169 27.7162C52.0061 27.7831 51.9169 27.9838 52.0953 27.9838C52.1325 28.0804 52.2291 28.1324 52.2588 28.2365C52.5487 28.1324 52.3703 28.3851 52.4075 28.4743C52.4446 28.5635 52.675 28.4743 52.5487 28.7047C52.7791 28.6378 52.675 28.8236 52.675 28.9277C52.675 29.0318 52.846 28.9946 52.7939 29.1284C52.9574 29.1284 52.7939 29.2993 52.898 29.3216C52.8534 29.4331 52.9723 29.4257 52.9872 29.4926C53.0029 29.4984 53.0172 29.5072 53.0295 29.5186C53.0417 29.5299 53.0516 29.5436 53.0585 29.5588C53.0654 29.574 53.0692 29.5904 53.0697 29.6071C53.0702 29.6238 53.0675 29.6405 53.0615 29.6561C53.0884 29.7008 53.1108 29.7481 53.1284 29.7973C53.2473 30.0351 53.2771 30.2135 53.2102 30.2655Z" fill="#5D270D"/>
<path d="M41.6605 59.2893C41.6159 59.2224 41.7795 59.0143 42.1065 58.6947L42.27 58.5163C42.3208 58.4396 42.3865 58.3738 42.4632 58.3231C42.6119 58.3231 42.4632 58.0332 42.6713 58.0927C42.8795 58.1521 42.8349 57.9514 42.8943 57.8474C42.9538 57.7433 43.1099 57.7285 43.1322 57.5649C43.1544 57.4014 43.1842 57.446 43.266 57.4386C43.3477 57.4312 43.422 57.4386 43.37 57.2677C43.4252 57.1369 43.512 57.022 43.6227 56.9332C43.8382 56.9332 43.8011 56.7102 43.8754 56.5765C44.1207 56.5765 44.143 56.3906 44.1207 56.1825C44.4254 56.1825 44.4997 56.0413 44.3659 55.7663C44.4403 55.6251 44.6186 55.5359 44.5963 55.3278C44.6399 55.1566 44.7156 54.9952 44.8193 54.8521C44.7963 54.8062 44.7833 54.756 44.781 54.7047C44.7788 54.6533 44.7874 54.6022 44.8064 54.5545C44.8253 54.5067 44.8542 54.4635 44.891 54.4277C44.9278 54.3919 44.9718 54.3643 45.02 54.3467C44.9085 54.1089 45.02 53.9677 45.1984 53.819C45.3768 53.6704 45.1464 53.4102 45.3545 53.269C45.3856 53.1776 45.4056 53.0828 45.4139 52.9866C45.4239 52.8875 45.4464 52.7901 45.4808 52.6967L45.57 52.5629C45.593 52.5147 45.6129 52.465 45.6295 52.4143C45.6424 52.3614 45.6445 52.3065 45.6355 52.2529C45.6266 52.1992 45.6068 52.1479 45.5774 52.1021V51.946C45.5737 51.8941 45.5737 51.8419 45.5774 51.79C45.5764 51.6828 45.6047 51.5774 45.6592 51.4852C45.6168 51.4386 45.5862 51.3826 45.57 51.3217C45.5556 51.2732 45.5556 51.2216 45.57 51.1731C45.5855 51.0613 45.6261 50.9546 45.6889 50.8609C45.6817 50.8067 45.6817 50.7516 45.6889 50.6974V50.5413C45.7072 50.4352 45.6916 50.3259 45.6443 50.2291C45.6443 50.0136 45.5105 49.8129 45.5774 49.59C45.609 49.484 45.6147 49.372 45.594 49.2633C45.5733 49.1547 45.5268 49.0526 45.4585 48.9656C45.295 48.7872 45.4065 48.542 45.3024 48.3488C45.4288 48.0886 45.1092 47.9697 45.1018 47.7542C45.0943 47.5386 45.0497 47.3231 44.8714 47.1744C44.8115 47.0886 44.7569 46.9993 44.7078 46.9069C44.6592 46.8118 44.6289 46.7084 44.6186 46.6021C44.2693 46.5501 44.5072 46.2008 44.3585 46.0521C44.3585 45.8143 44.1578 45.7028 44.0984 45.5096C44.0389 45.3163 44.0315 45.0933 43.8382 44.9744C43.7713 44.7886 43.5707 44.6771 43.5855 44.4542C43.37 44.3575 43.5261 44.0602 43.3551 43.9487C43.2642 43.7933 43.1895 43.6289 43.1322 43.4582C43.2659 43.1981 43.0207 43.1237 42.9389 42.9751C42.8572 42.8264 42.6788 42.7298 42.7605 42.5143C42.7085 42.3656 42.7606 42.1798 42.597 42.0758C42.4335 41.9717 42.7977 41.6744 42.4632 41.6596C42.3592 41.5481 42.5822 41.3176 42.3443 41.2656C42.1065 41.2136 42.27 41.0129 42.2403 40.894C42.2105 40.7751 42.1808 40.6636 42.1585 40.5521C42.0657 40.1712 42.0036 39.7835 41.9727 39.3927C41.9727 39.1251 41.9727 38.969 42.0322 38.9541C42.0916 38.9393 42.2105 39.0879 42.3592 39.3852C42.4335 39.5265 42.5153 39.7122 42.6119 39.9203C42.7085 40.1285 42.82 40.3737 42.9389 40.6636C42.9835 40.7751 43.1842 40.8271 43.095 40.9981C43.1396 41.117 43.3031 41.1913 43.266 41.3548C43.5112 41.4068 43.3997 41.6001 43.4518 41.7413C43.5038 41.8825 43.5112 42.0312 43.6524 42.1426C43.7936 42.2541 43.7193 42.4548 43.868 42.5589C43.8475 42.6494 43.8602 42.7442 43.9039 42.8261C43.9476 42.908 44.0192 42.9714 44.1058 43.0048C44.0612 43.2129 44.2842 43.3021 44.3585 43.4582C44.2619 43.7109 44.4626 43.8075 44.6186 43.9413C44.7747 44.0751 44.7673 44.2832 44.9011 44.4318C45.0349 44.5805 45.1241 44.7589 45.191 44.9521C45.2805 45.0114 45.3539 45.092 45.4045 45.1867C45.4551 45.2815 45.4813 45.3873 45.4808 45.4947C45.6117 45.6671 45.7123 45.8607 45.7781 46.067C45.8556 46.1471 45.914 46.2437 45.9491 46.3494C45.9776 46.4574 46.0175 46.562 46.068 46.6616C46.1943 46.8548 46.068 47.1595 46.3356 47.3008C46.447 47.5089 46.4693 47.7467 46.5734 47.9697C46.608 48.2122 46.6729 48.4494 46.7666 48.6758C46.6105 48.9656 46.7666 49.1738 46.9078 49.419C46.9904 49.6575 47.0159 49.9121 46.9822 50.1623C46.9822 50.2812 46.9822 50.4075 46.9822 50.5339V50.7123V50.8981C47.008 51.0156 47.008 51.1373 46.9822 51.2548C46.9786 51.3142 46.9786 51.3738 46.9822 51.4332C46.9711 51.4921 46.9711 51.5527 46.9822 51.6116C47.0072 51.729 46.9942 51.8514 46.945 51.9609L46.9004 52.1318C46.8856 52.1879 46.8856 52.2468 46.9004 52.3028C46.9116 52.419 46.9116 52.5359 46.9004 52.6521C46.8924 52.7107 46.8774 52.768 46.8558 52.823C46.8317 52.8781 46.8019 52.9305 46.7666 52.9791C46.7293 53.0862 46.6794 53.1886 46.618 53.2839C46.5939 53.3364 46.5815 53.3934 46.5815 53.4511C46.5815 53.5088 46.5939 53.5659 46.618 53.6183C46.618 53.8413 46.7741 54.1312 46.4173 54.2352C46.4173 54.4582 46.1349 54.5846 46.1795 54.815C45.897 54.919 46.0085 55.1866 45.9193 55.365C45.8301 55.5434 45.6369 55.6623 45.6295 55.8778C45.622 56.0934 45.3916 56.1751 45.3322 56.3461C45.2727 56.517 44.9977 56.5616 45.02 56.7845C44.9011 56.9109 44.8416 57.0744 44.7004 57.1785C44.8342 57.4907 44.4997 57.4386 44.3882 57.5427C44.2767 57.6467 44.3288 57.8994 44.0686 57.8623C44.1355 58.1224 43.8977 58.0927 43.7565 58.1447C43.6153 58.1967 43.6376 58.4048 43.4592 58.3974C43.4592 58.598 43.2214 58.5015 43.1768 58.6129C43.0207 58.6129 43.0058 58.7542 42.9092 58.8062C42.8825 58.8498 42.8454 58.8861 42.8014 58.912C42.7573 58.9379 42.7076 58.9526 42.6565 58.9548L42.4409 59.0812C41.9578 59.2893 41.7051 59.3636 41.6605 59.2893Z" fill="#5D270D"/>
</svg>
