<svg width="197" height="33" viewBox="0 0 197 33" fill="none" xmlns="http://www.w3.org/2000/svg">
<path d="M41.4314 19.1521C41.4715 19.1138 41.5035 19.0678 41.5256 19.0169C41.5477 18.966 41.5593 18.9112 41.5598 18.8558V7.0023C41.5592 6.88725 41.513 6.77714 41.4314 6.69608L40.3646 5.7083C40.3281 5.67161 40.3032 5.62513 40.2927 5.57451C40.2822 5.52389 40.2866 5.47133 40.3054 5.42318C40.3243 5.37504 40.3567 5.33341 40.3988 5.30336C40.4408 5.27331 40.4907 5.25612 40.5424 5.25391H48.6324C53.2947 5.25391 55.9321 6.5578 55.9321 10.0941C55.9321 13.6304 53.2947 15.2108 48.6324 15.2108H45.5307C45.4961 15.2108 45.4619 15.2177 45.4301 15.2313C45.3983 15.2448 45.3695 15.2646 45.3455 15.2895C45.3215 15.3144 45.3028 15.3439 45.2905 15.3762C45.2782 15.4085 45.2725 15.443 45.2739 15.4775V18.7767C45.2726 18.8407 45.2872 18.9041 45.3166 18.961C45.3459 19.0179 45.3889 19.0666 45.4418 19.1027L46.7358 20.0411C46.7839 20.0712 46.8206 20.1165 46.8403 20.1697C46.8599 20.2229 46.8614 20.2811 46.8445 20.3353C46.8276 20.3894 46.7932 20.4365 46.7467 20.469C46.7003 20.5016 46.6443 20.5178 46.5876 20.5152H40.5424C40.4907 20.513 40.4408 20.4958 40.3988 20.4658C40.3567 20.4357 40.3243 20.3941 40.3054 20.346C40.2866 20.2978 40.2822 20.2453 40.2927 20.1946C40.3032 20.144 40.3281 20.0975 40.3646 20.0609L41.4314 19.1521ZM48.0199 6.13304H45.5307C45.4966 6.13164 45.4626 6.13734 45.4308 6.14975C45.399 6.16217 45.3701 6.18104 45.346 6.20517C45.3219 6.22931 45.303 6.25817 45.2906 6.28996C45.2782 6.32175 45.2725 6.35577 45.2739 6.38987V14.1934C45.2725 14.2279 45.2782 14.2624 45.2905 14.2947C45.3028 14.327 45.3215 14.3565 45.3455 14.3814C45.3695 14.4063 45.3983 14.4261 45.4301 14.4396C45.4619 14.4532 45.4961 14.4601 45.5307 14.4601H48.0199C50.7857 14.4601 51.8328 13.3044 51.8328 10.2916C51.8328 7.27888 50.6079 6.13304 48.0199 6.13304Z" fill="#98792C"/>
<path d="M59.8609 19.148C59.8989 19.1108 59.929 19.0662 59.9494 19.0169C59.9698 18.9677 59.98 18.9148 59.9794 18.8616V7.00812C59.9812 6.95468 59.9715 6.90149 59.9511 6.85209C59.9306 6.80269 59.8999 6.75822 59.8609 6.72167L58.8731 5.73388C58.8345 5.698 58.8079 5.65114 58.7969 5.59964C58.7859 5.54815 58.791 5.49451 58.8114 5.44599C58.8319 5.39748 58.8668 5.35643 58.9114 5.32841C58.956 5.3004 59.0081 5.28677 59.0607 5.28938H64.6121C64.6639 5.28887 64.7146 5.30401 64.7576 5.33282C64.8006 5.36162 64.8339 5.40275 64.8531 5.4508C64.8723 5.49886 64.8766 5.5516 64.8653 5.60212C64.854 5.65263 64.8278 5.69855 64.7899 5.73388L63.8021 6.72167C63.7618 6.75772 63.7296 6.80187 63.7074 6.85123C63.6853 6.90058 63.6738 6.95403 63.6737 7.00812V12.0854C63.6737 12.1561 63.7018 12.2239 63.7518 12.274C63.8019 12.324 63.8697 12.3521 63.9404 12.3521H71.6156C71.6846 12.3495 71.7499 12.3203 71.7978 12.2705C71.8457 12.2208 71.8724 12.1544 71.8724 12.0854V7.00812C71.8743 6.95373 71.8638 6.89963 71.8415 6.84996C71.8192 6.8003 71.7859 6.7564 71.744 6.72167L70.7562 5.73388C70.7184 5.69855 70.6921 5.65263 70.6808 5.60212C70.6696 5.5516 70.6738 5.49886 70.693 5.4508C70.7123 5.40275 70.7455 5.36162 70.7885 5.33282C70.8315 5.30401 70.8822 5.28887 70.934 5.28938H76.5051C76.5568 5.28887 76.6075 5.30401 76.6505 5.33282C76.6935 5.36162 76.7268 5.40275 76.7461 5.4508C76.7653 5.49886 76.7695 5.5516 76.7583 5.60212C76.747 5.65263 76.7207 5.69855 76.6829 5.73388L75.6951 6.72167C75.6548 6.75772 75.6225 6.80187 75.6004 6.85123C75.5783 6.90058 75.5668 6.95403 75.5667 7.00812V18.8616C75.568 18.9155 75.58 18.9686 75.602 19.0178C75.6241 19.0669 75.6557 19.1112 75.6951 19.148L76.6829 20.1358C76.7207 20.1712 76.747 20.2171 76.7583 20.2676C76.7695 20.3181 76.7653 20.3709 76.7461 20.4189C76.7268 20.467 76.6935 20.5081 76.6505 20.5369C76.6075 20.5657 76.5568 20.5808 76.5051 20.5803H70.934C70.8822 20.5808 70.8315 20.5657 70.7885 20.5369C70.7455 20.5081 70.7123 20.467 70.693 20.4189C70.6738 20.3709 70.6696 20.3181 70.6808 20.2676C70.6921 20.2171 70.7184 20.1712 70.7562 20.1358L71.744 19.148C71.7853 19.1128 71.8183 19.0689 71.8405 19.0193C71.8627 18.9698 71.8736 18.9159 71.8724 18.8616V13.4683C71.8724 13.4001 71.8453 13.3348 71.7971 13.2867C71.749 13.2385 71.6837 13.2114 71.6156 13.2114H63.9207C63.8516 13.2114 63.7852 13.2381 63.7355 13.286C63.6858 13.3339 63.6565 13.3993 63.654 13.4683V18.8616C63.6552 18.9155 63.6672 18.9686 63.6893 19.0178C63.7113 19.0669 63.743 19.1112 63.7824 19.148L64.7702 20.1358C64.808 20.1712 64.8343 20.2171 64.8455 20.2676C64.8568 20.3181 64.8525 20.3709 64.8333 20.4189C64.8141 20.467 64.7808 20.5081 64.7378 20.5369C64.6948 20.5657 64.6441 20.5808 64.5924 20.5803H59.041C58.9884 20.5829 58.9363 20.5693 58.8917 20.5413C58.8471 20.5133 58.8122 20.4722 58.7917 20.4237C58.7712 20.3752 58.7662 20.3216 58.7772 20.2701C58.7882 20.2186 58.8148 20.1717 58.8533 20.1358L59.8609 19.148Z" fill="#98792C"/>
<path d="M80.8388 13.7489V6.93321C80.8395 6.86726 80.8147 6.80359 80.7697 6.7554L79.8313 5.76761C79.7963 5.73114 79.7728 5.68515 79.7639 5.63541C79.7549 5.58567 79.7608 5.53439 79.7808 5.48799C79.8008 5.44158 79.8341 5.40212 79.8765 5.37455C79.9189 5.34698 79.9684 5.33252 80.0189 5.33298H86.1136C86.1688 5.33623 86.2216 5.35655 86.2647 5.39112C86.3079 5.42569 86.3392 5.4728 86.3544 5.52595C86.3696 5.5791 86.3678 5.63566 86.3495 5.6878C86.3311 5.73994 86.297 5.78509 86.2519 5.817L84.7406 6.74553C84.6814 6.77966 84.6322 6.82854 84.5975 6.8874C84.5629 6.94626 84.5441 7.01309 84.543 7.08137V13.7193C84.543 17.4927 86.005 19.3892 89.3634 19.3892C93.2257 19.3892 94.2431 16.9099 94.2431 14.1638V7.10113C94.2454 7.02842 94.2259 6.95668 94.1872 6.89509C94.1485 6.8335 94.0923 6.78485 94.0258 6.7554L92.1786 5.82688C92.1216 5.80378 92.0748 5.76102 92.0467 5.70634C92.0186 5.65167 92.011 5.58871 92.0254 5.52892C92.0397 5.46914 92.075 5.41648 92.1249 5.38052C92.1748 5.34456 92.2359 5.3277 92.2972 5.33298H96.0903C96.1398 5.33475 96.1879 5.35031 96.2291 5.3779C96.2703 5.40548 96.303 5.44402 96.3236 5.48916C96.3441 5.53431 96.3516 5.58428 96.3453 5.63347C96.339 5.68265 96.3191 5.72911 96.2878 5.76761L95.3 6.7554C95.2586 6.80579 95.2344 6.86809 95.2309 6.93321V13.4328C95.2309 17.71 93.8974 20.9302 88.3855 20.9302C83.4169 20.9302 80.8388 18.6879 80.8388 13.7489Z" fill="#98792C"/>
<path d="M99.085 12.9308C99.085 7.67573 102.769 4.92969 107.698 4.92969C109.78 4.93668 111.838 5.35985 113.754 6.17429C113.8 6.1938 113.84 6.22672 113.869 6.2689C113.897 6.31109 113.912 6.36067 113.912 6.41137V10.2539C113.922 10.3196 113.907 10.387 113.869 10.4417C113.831 10.4963 113.773 10.5341 113.708 10.5469C113.642 10.5597 113.574 10.5466 113.518 10.5104C113.463 10.4741 113.423 10.4176 113.408 10.3526C112.173 7.48805 110.701 5.80882 108.024 5.80882C104.824 5.80882 103.165 8.39681 103.165 12.9308C103.165 17.4647 104.824 20.0428 108.024 20.0626C110.316 20.0626 112.479 16.8325 113.428 15.2224C113.455 15.1709 113.498 15.1301 113.552 15.1068C113.605 15.0834 113.665 15.0787 113.721 15.0937C113.777 15.1086 113.827 15.1421 113.861 15.1889C113.896 15.2356 113.914 15.2927 113.912 15.3508V19.4502C113.913 19.5012 113.899 19.5513 113.87 19.5938C113.842 19.6362 113.801 19.6689 113.754 19.6872C111.84 20.5063 109.78 20.9297 107.698 20.9319C102.769 20.9319 99.085 18.1858 99.085 12.9308Z" fill="#98792C"/>
<path d="M124.057 19.148C124.095 19.1108 124.125 19.0662 124.145 19.0169C124.166 18.9677 124.176 18.9148 124.175 18.8616V7.00812C124.177 6.95468 124.168 6.90149 124.147 6.85209C124.127 6.80269 124.096 6.75822 124.057 6.72167L123.069 5.73388C123.031 5.698 123.004 5.65114 122.993 5.59964C122.982 5.54815 122.987 5.49451 123.008 5.44599C123.028 5.39748 123.063 5.35643 123.108 5.32841C123.152 5.3004 123.204 5.28677 123.257 5.28938H128.808C128.86 5.28887 128.911 5.30401 128.954 5.33282C128.997 5.36162 129.03 5.40275 129.049 5.4508C129.068 5.49886 129.073 5.5516 129.061 5.60212C129.05 5.65263 129.024 5.69855 128.986 5.73388L127.998 6.72167C127.958 6.75772 127.926 6.80187 127.904 6.85123C127.881 6.90058 127.87 6.95403 127.87 7.00812V19.4345C127.87 19.4691 127.877 19.5033 127.89 19.5351C127.904 19.5669 127.924 19.5957 127.948 19.6197C127.973 19.6437 128.003 19.6624 128.035 19.6747C128.068 19.687 128.102 19.6927 128.137 19.6913H133.303C133.37 19.6895 133.435 19.6715 133.494 19.6388C133.552 19.6061 133.602 19.5597 133.638 19.5036L135.762 16.0464C135.794 16.0013 135.839 15.9671 135.891 15.9488C135.944 15.9304 136 15.9287 136.053 15.9439C136.106 15.9591 136.154 15.9904 136.188 16.0335C136.223 16.0767 136.243 16.1295 136.246 16.1847V20.3038C136.246 20.3728 136.22 20.4392 136.172 20.4889C136.124 20.5387 136.058 20.5679 135.989 20.5705H123.267C123.214 20.5731 123.162 20.5594 123.117 20.5314C123.073 20.5034 123.038 20.4624 123.017 20.4138C122.997 20.3653 122.992 20.3117 123.003 20.2602C123.014 20.2087 123.041 20.1618 123.079 20.126L124.057 19.148Z" fill="#98792C"/>
<path d="M139.218 12.9308C139.218 7.89304 142.942 4.92969 148.108 4.92969C153.274 4.92969 156.998 7.89304 156.998 12.9308C156.998 17.9685 153.264 20.9319 148.108 20.9319C142.952 20.9319 139.218 17.9685 139.218 12.9308ZM152.889 12.9308C152.889 8.88083 151.101 5.80882 148.088 5.80882C145.075 5.80882 143.317 8.88083 143.317 12.9308C143.317 16.9807 145.105 20.0626 148.088 20.0626C151.071 20.0626 152.889 16.9906 152.889 12.9308Z" fill="#98792C"/>
<path d="M162.304 8.60089V18.7949C162.303 18.8673 162.323 18.9385 162.361 18.9999C162.4 19.0612 162.455 19.1101 162.521 19.1406L164.279 20.0691C164.328 20.099 164.366 20.1437 164.387 20.1968C164.409 20.2498 164.413 20.3083 164.398 20.3636C164.384 20.419 164.352 20.4682 164.308 20.5041C164.263 20.54 164.208 20.5607 164.151 20.563H160.259C160.208 20.5608 160.158 20.5436 160.116 20.5136C160.073 20.4835 160.041 20.4419 160.022 20.3937C160.003 20.3456 159.999 20.293 160.009 20.2424C160.02 20.1918 160.045 20.1453 160.081 20.1086L161.138 19.1208C161.182 19.0846 161.217 19.0393 161.24 18.9881C161.264 18.9369 161.277 18.881 161.277 18.8245V6.97105C161.277 6.91308 161.265 6.85575 161.241 6.80293C161.217 6.7501 161.182 6.70301 161.138 6.66483L160.081 5.67705C160.045 5.64036 160.02 5.59388 160.009 5.54326C159.999 5.49264 160.003 5.44008 160.022 5.39193C160.041 5.34379 160.073 5.30216 160.116 5.27211C160.158 5.24206 160.208 5.22487 160.259 5.22266H164.971C165.036 5.22618 165.098 5.25042 165.149 5.29181L174.75 14.7351C174.786 14.7701 174.832 14.7935 174.882 14.8025C174.932 14.8115 174.983 14.8056 175.03 14.7855C175.076 14.7655 175.116 14.7322 175.143 14.6898C175.171 14.6475 175.185 14.5979 175.185 14.5474V7.0402C175.185 6.96656 175.165 6.89425 175.127 6.83141C175.088 6.76858 175.033 6.71773 174.967 6.68459L173.199 5.75607C173.149 5.72936 173.108 5.68647 173.085 5.63424C173.061 5.582 173.056 5.52341 173.069 5.46778C173.083 5.41215 173.115 5.36266 173.16 5.3272C173.205 5.29173 173.26 5.27232 173.318 5.27205H177.269C177.322 5.27125 177.374 5.28696 177.418 5.31701C177.462 5.34706 177.495 5.38997 177.514 5.43982C177.532 5.48967 177.535 5.544 177.521 5.59534C177.507 5.64667 177.478 5.69249 177.437 5.72644L176.37 6.71423C176.326 6.7524 176.291 6.79948 176.268 6.8523C176.244 6.90513 176.231 6.96247 176.232 7.02044V20.1679C176.232 20.2727 176.19 20.3732 176.116 20.4473C176.042 20.5214 175.941 20.563 175.837 20.563H175.54C175.367 20.5606 175.202 20.4937 175.076 20.3753L162.748 8.41322C162.712 8.37467 162.666 8.34808 162.614 8.33706C162.563 8.32604 162.509 8.33111 162.46 8.35159C162.412 8.37208 162.371 8.40699 162.343 8.45158C162.315 8.49618 162.301 8.54829 162.304 8.60089Z" fill="#98792C"/>
<path d="M180.477 12.9308C180.477 7.67574 184.428 4.9297 189.278 4.9297C191.458 4.92732 193.613 5.40272 195.59 6.32247C195.633 6.34486 195.669 6.37902 195.693 6.42098C195.718 6.46294 195.73 6.51099 195.728 6.55954V10.0958C195.73 10.1561 195.712 10.2153 195.675 10.263C195.638 10.3108 195.585 10.3441 195.527 10.357C195.468 10.37 195.406 10.3618 195.353 10.3339C195.299 10.306 195.257 10.2602 195.234 10.2045C193.752 7.31026 191.935 5.80883 189.456 5.80883C186.492 5.80883 184.517 8.37706 184.517 12.8024C184.517 17.2276 186.048 20.0626 189.456 20.0626C190.506 20.0961 191.547 19.8579 192.478 19.3712C192.52 19.3495 192.555 19.3169 192.579 19.2768C192.603 19.2368 192.616 19.1909 192.616 19.144V14.9261C192.615 14.8698 192.602 14.8144 192.579 14.7634C192.555 14.7123 192.521 14.6668 192.478 14.6298L191.411 13.642C191.375 13.6053 191.35 13.5588 191.339 13.5082C191.329 13.4576 191.333 13.405 191.352 13.3569C191.371 13.3087 191.404 13.2671 191.446 13.237C191.488 13.207 191.538 13.1898 191.589 13.1876H195.906C195.974 13.1876 196.039 13.2147 196.087 13.2628C196.136 13.311 196.163 13.3763 196.163 13.4444V18.7488C196.164 18.7936 196.153 18.8379 196.132 18.8776C196.112 18.9173 196.081 18.9512 196.044 18.976C194.014 20.2466 191.672 20.9304 189.278 20.9516C183.904 20.9319 180.477 18.0771 180.477 12.9308Z" fill="#98792C"/>
<path d="M74.2598 31.8525V25.9258H75.1191V30.9536H78.7344V31.813L74.2598 31.8525Z" fill="#98792C" stroke="#98792C" stroke-width="0.177781" stroke-miterlimit="10"/>
<path d="M85.9467 31.1252C85.6612 31.4241 85.3127 31.6554 84.9265 31.8024C84.5403 31.9494 84.1261 32.0082 83.7143 31.9747C83.2932 32.0006 82.872 31.9243 82.4868 31.7523C82.1015 31.5803 81.7635 31.3177 81.5016 30.9869C81.2438 30.5741 81.126 30.0891 81.1658 29.604V25.9492H82.0251V29.604C81.9994 29.7933 82.0152 29.9859 82.0715 30.1685C82.1278 30.351 82.2232 30.5191 82.3511 30.661C82.7791 30.9897 83.3152 31.1449 83.8525 31.0956C84.9292 31.0956 85.5219 30.7696 85.5219 29.604V25.9492H86.3714V29.604C86.4327 30.147 86.2804 30.6925 85.9467 31.1252Z" fill="#98792C" stroke="#98792C" stroke-width="0.177781" stroke-miterlimit="10"/>
<path d="M93.6529 31.8521L91.8452 29.3727L89.9783 31.8521H88.8818L91.292 28.6615L89.3165 25.9648H90.3537L91.8057 27.9404L93.2775 25.9648H94.3443L92.3687 28.6615L94.7197 31.8521H93.6529Z" fill="#98792C" stroke="#98792C" stroke-width="0.177781" stroke-miterlimit="10"/>
<path d="M102.039 31.1252C101.754 31.4241 101.405 31.6554 101.019 31.8024C100.633 31.9494 100.218 32.0082 99.8065 31.9747C99.384 32.0005 98.9614 31.9243 98.5746 31.7523C98.1878 31.5804 97.848 31.3179 97.584 30.9869C97.329 30.5732 97.2146 30.0881 97.258 29.604V25.9492H98.1075V29.604C98.0817 29.7941 98.0984 29.9875 98.1565 30.1703C98.2146 30.3531 98.3126 30.5207 98.4434 30.661C98.8669 30.9908 99.4005 31.1463 99.9349 31.0956C101.021 31.0956 101.614 30.7696 101.614 29.604V25.9492H102.444V29.604C102.507 30.1441 102.362 30.6879 102.039 31.1252Z" fill="#98792C" stroke="#98792C" stroke-width="0.177781" stroke-miterlimit="10"/>
<path d="M109.909 29.3838L111.134 31.8533H110.147L108.971 29.4134H106.788V31.8533H105.929V25.9265H109.416C109.655 25.9023 109.897 25.9297 110.124 26.007C110.352 26.0842 110.561 26.2095 110.736 26.3744C110.911 26.5392 111.049 26.7398 111.14 26.9625C111.23 27.1851 111.272 27.4247 111.263 27.665C111.291 28.0683 111.167 28.4676 110.917 28.7852C110.667 29.1028 110.308 29.3161 109.909 29.3838ZM109.416 26.8254H106.788V28.5639H109.416C109.998 28.5639 110.403 28.2873 110.403 27.665C110.403 27.0427 109.969 26.8254 109.416 26.8254Z" fill="#98792C" stroke="#98792C" stroke-width="0.177781" stroke-miterlimit="10"/>
<path d="M116.27 29.3036V31.8521H115.421V29.3036L113.03 25.9648H114.067L115.865 28.4639L117.643 25.9648H118.7L116.27 29.3036Z" fill="#98792C" stroke="#98792C" stroke-width="0.177781" stroke-miterlimit="10"/>
<path d="M129.538 31.8525V29.2151H126.071V31.8525H125.222V25.9258H126.071V28.3162H129.538V25.9258H130.398V31.8525H129.538Z" fill="#98792C" stroke="#98792C" stroke-width="0.177781" stroke-miterlimit="10"/>
<path d="M136.641 31.9994C136.03 31.9858 135.436 31.7919 134.935 31.442C134.434 31.0921 134.047 30.6019 133.823 30.0329C133.6 29.464 133.549 28.8416 133.678 28.2441C133.807 27.6465 134.11 27.1004 134.548 26.6744C134.987 26.2483 135.541 25.9613 136.142 25.8493C136.743 25.7374 137.364 25.8055 137.926 26.0452C138.488 26.2849 138.967 26.6854 139.303 27.1964C139.638 27.7074 139.815 28.3062 139.812 28.9175C139.796 29.7454 139.454 30.5337 138.86 31.1109C138.267 31.688 137.469 32.0074 136.641 31.9994ZM136.641 26.6653C136.337 26.6518 136.034 26.7006 135.751 26.8087C135.467 26.9168 135.208 27.082 134.991 27.2939C134.773 27.5059 134.601 27.7602 134.486 28.0412C134.37 28.3221 134.314 28.6237 134.32 28.9274C134.365 29.5156 134.632 30.0645 135.068 30.4626C135.503 30.8607 136.074 31.078 136.664 31.0705C137.254 31.0629 137.819 30.831 138.244 30.422C138.669 30.0129 138.922 29.4573 138.952 28.8681C138.95 28.5703 138.888 28.276 138.769 28.0027C138.651 27.7294 138.479 27.4826 138.263 27.2772C138.048 27.0717 137.793 26.9116 137.514 26.8065C137.235 26.7014 136.938 26.6534 136.641 26.6653Z" fill="#98792C" stroke="#98792C" stroke-width="0.177781" stroke-miterlimit="10"/>
<path d="M145.107 26.8242V31.8521H144.267V26.8242H142.163V25.9648H147.181V26.8242H145.107Z" fill="#98792C" stroke="#98792C" stroke-width="0.177781" stroke-miterlimit="10"/>
<path d="M149.977 31.8525V25.9258H154.797V26.795H150.846V28.336H152.821V29.1855H150.846V30.9536H154.985V31.813L149.977 31.8525Z" fill="#98792C" stroke="#98792C" stroke-width="0.177781" stroke-miterlimit="10"/>
<path d="M157.84 31.8525V25.9258H158.749V30.9536H162.334V31.813L157.84 31.8525Z" fill="#98792C" stroke="#98792C" stroke-width="0.177781" stroke-miterlimit="10"/>
<path d="M31.6487 12.8388L29.3768 7.36643C28.5389 5.33737 26.9293 3.72425 24.9021 2.88188L19.4693 0.629727C18.4673 0.213995 17.3932 0 16.3084 0C15.2236 0 14.1494 0.213995 13.1475 0.629727L7.61585 2.88188C5.59052 3.72193 3.98123 5.33123 3.14117 7.35656L0.869258 12.819C0.0344661 14.8471 0.0344661 17.1227 0.869258 19.1508L3.1313 24.6231C3.54741 25.6247 4.15674 26.5345 4.92452 27.3006C5.69229 28.0667 6.60346 28.674 7.60598 29.0879L13.0783 31.3598C14.0803 31.7755 15.1544 31.9895 16.2392 31.9895C17.324 31.9895 18.3982 31.7755 19.4002 31.3598L24.8824 29.0978C26.9059 28.2533 28.5116 26.6404 29.3472 24.6132L31.6092 19.1409C32.4561 17.1282 32.4703 14.8619 31.6487 12.8388ZM29.4953 18.6865L27.5198 23.3884C27.1623 24.2522 26.6381 25.037 25.9771 25.698C25.3161 26.3591 24.5312 26.8833 23.6674 27.2407L18.9655 29.2163C17.2229 29.9369 15.2655 29.9369 13.5228 29.2163L8.81108 27.2407C7.07213 26.519 5.69032 25.1372 4.96859 23.3982L2.99301 18.6964C2.27244 16.9537 2.27244 14.9963 2.99301 13.2537L4.96859 8.55179C5.69032 6.81284 7.07213 5.43103 8.81108 4.7093L13.5228 2.73372C14.3839 2.37667 15.307 2.19289 16.2392 2.19289C17.1715 2.19289 18.0945 2.37667 18.9557 2.73372L23.6674 4.7093C25.4064 5.43103 26.7882 6.81284 27.5099 8.55179L29.4855 13.2537C30.2065 14.9922 30.21 16.9454 29.4953 18.6865Z" fill="#98792C"/>
<path d="M28.7845 13.4249L26.9472 8.97001C26.2614 7.32359 24.9506 6.01635 23.3023 5.33494L18.8474 3.48778C17.1962 2.80616 15.3423 2.80616 13.6911 3.48778L9.23619 5.33494C8.42045 5.67109 7.67929 6.16535 7.05542 6.78922C6.43154 7.41309 5.93729 8.15426 5.60114 8.97001L3.75396 13.4249C3.0729 15.0728 3.0729 16.9234 3.75396 18.5713L5.60114 23.0262C6.28254 24.6745 7.58977 25.9853 9.23619 26.6712L13.701 28.5183C15.3489 29.1994 17.1995 29.1994 18.8474 28.5183L23.3023 26.6712C24.1197 26.3331 24.8623 25.8371 25.4877 25.2117C26.1132 24.5862 26.6092 23.8436 26.9472 23.0262L28.7845 18.5812C29.1268 17.7648 29.3031 16.8883 29.3031 16.0031C29.3031 15.1178 29.1268 14.2414 28.7845 13.4249ZM24.4086 21.6532C24.3972 21.7046 24.3683 21.7504 24.3269 21.7828C24.2854 21.8152 24.234 21.8323 24.1814 21.831H14.1356C14.1182 21.8249 14.1031 21.8136 14.0924 21.7985C14.0817 21.7835 14.0759 21.7655 14.0759 21.747C14.0759 21.7286 14.0817 21.7106 14.0924 21.6955C14.1031 21.6805 14.1182 21.6691 14.1356 21.6631C14.4257 21.5042 14.6757 21.2813 14.8666 21.0111C14.9055 20.9643 14.9356 20.9107 14.9555 20.8531C14.9584 20.8005 14.9584 20.7477 14.9555 20.695C15.0067 20.4614 15.0332 20.223 15.0345 19.9838V18.0774C15.0345 18.0407 15.0199 18.0056 14.994 17.9796C14.9681 17.9537 14.9329 17.9391 14.8962 17.9391H13.0095C12.9729 17.9391 12.9377 17.9537 12.9118 17.9796C12.8858 18.0056 12.8713 18.0407 12.8713 18.0774V22.315C12.8572 22.4695 12.8572 22.6248 12.8713 22.7793C12.9793 23.1766 13.2198 23.525 13.5528 23.7671L13.8393 23.9449C13.858 23.9542 13.8728 23.9698 13.8811 23.9889C13.8894 24.008 13.8908 24.0295 13.8849 24.0495C13.879 24.0695 13.8663 24.0868 13.8489 24.0984C13.8315 24.11 13.8106 24.1151 13.7899 24.1128H9.59179C9.57105 24.1151 9.55017 24.11 9.5328 24.0984C9.51543 24.0868 9.50268 24.0695 9.49679 24.0495C9.4909 24.0295 9.49225 24.008 9.50059 23.9889C9.50893 23.9698 9.52373 23.9542 9.5424 23.9449C9.83249 23.786 10.0825 23.563 10.2734 23.2929C10.312 23.244 10.3451 23.191 10.3721 23.1349C10.3917 23.0832 10.4082 23.0304 10.4215 22.9768C10.4727 22.7499 10.4992 22.518 10.5006 22.2854V12.5853C10.4987 12.3462 10.4722 12.1078 10.4215 11.8741C10.4095 11.8233 10.393 11.7737 10.3721 11.7259C10.3484 11.6701 10.3186 11.6171 10.2832 11.5679C10.0901 11.2998 9.84063 11.0773 9.55229 10.916C9.53361 10.9066 9.5188 10.891 9.51046 10.8719C9.50213 10.8528 9.50079 10.8313 9.50668 10.8113C9.51257 10.7913 9.52531 10.774 9.54267 10.7624C9.56004 10.7508 9.58092 10.7457 9.60167 10.748H14.9654C15.002 10.748 15.0372 10.7334 15.0632 10.7075C15.0891 10.6816 15.1037 10.6464 15.1037 10.6097V9.79975C15.1018 9.55733 15.0753 9.31574 15.0246 9.07867C15.0246 9.02928 15.0246 8.98977 15.0246 8.94038C14.9987 8.88887 14.969 8.83934 14.9357 8.7922C14.734 8.51197 14.4704 8.2821 14.1653 8.12051C14.1486 8.11242 14.1345 8.09979 14.1246 8.08406C14.1148 8.06834 14.1095 8.05017 14.1095 8.03161C14.1095 8.01306 14.1148 7.99487 14.1246 7.97915C14.1345 7.96342 14.1486 7.95079 14.1653 7.9427H18.4819C18.4993 7.94877 18.5144 7.96012 18.5251 7.97517C18.5358 7.99021 18.5416 8.00821 18.5416 8.02667C18.5416 8.04513 18.5358 8.06313 18.5251 8.07817C18.5144 8.09322 18.4993 8.10456 18.4819 8.11062C18.0805 8.29573 17.7582 8.61797 17.5731 9.0194C17.5072 9.17025 17.4639 9.33002 17.4447 9.49354C17.4447 9.63182 17.4447 9.78987 17.4447 9.93804V16.1018C17.4447 16.1135 17.4424 16.1251 17.4379 16.1359C17.4335 16.1466 17.4269 16.1564 17.4187 16.1647C17.4104 16.1729 17.4006 16.1795 17.3898 16.184C17.379 16.1884 17.3675 16.1907 17.3558 16.1907H15.1135C15.0899 16.1907 15.0673 16.1814 15.0507 16.1647C15.034 16.148 15.0246 16.1254 15.0246 16.1018V11.7753C15.0246 11.7386 15.0101 11.7035 14.9841 11.6775C14.9582 11.6516 14.923 11.637 14.8863 11.637H12.9898C12.9531 11.637 12.9179 11.6516 12.892 11.6775C12.8661 11.7035 12.8515 11.7386 12.8515 11.7753V16.7143C12.8515 16.7509 12.8661 16.7861 12.892 16.8121C12.9179 16.838 12.9531 16.8526 12.9898 16.8526H14.1554C15.2716 16.8526 16.3878 16.8526 17.504 16.8526C18.0059 16.8576 18.5076 16.8279 19.0054 16.7637C19.3679 16.7306 19.7202 16.6263 20.0423 16.4568C20.3643 16.2873 20.6497 16.0559 20.8822 15.7759C21.0932 15.5065 21.2445 15.1953 21.326 14.863C21.4074 14.5306 21.4171 14.1848 21.3545 13.8484C21.2919 13.512 21.1584 13.1927 20.9629 12.912C20.7673 12.6312 20.5142 12.3952 20.2204 12.2198C19.8059 11.9663 19.3403 11.8077 18.8573 11.7556H18.3634C18.3398 11.7556 18.3172 11.7462 18.3005 11.7295C18.2838 11.7129 18.2744 11.6902 18.2744 11.6667V10.7875C18.2744 10.764 18.2838 10.7413 18.3005 10.7247C18.3172 10.708 18.3398 10.6986 18.3634 10.6986C18.3634 10.6986 18.5115 10.6986 18.8671 10.6986H19.3907C20.1863 10.7304 20.9725 10.8836 21.7218 11.153C22.4134 11.3772 23.0358 11.7751 23.5295 12.3087C23.797 12.6184 23.9988 12.9793 24.1227 13.3693C24.2466 13.7593 24.29 14.1705 24.2503 14.5778C24.2106 14.9851 24.0886 15.3801 23.8917 15.7389C23.6948 16.0976 23.427 16.4127 23.1047 16.6649C22.4625 17.1572 21.7155 17.4952 20.9217 17.6527C20.1633 17.8236 19.3877 17.9065 18.6103 17.8996H17.6225C17.5858 17.8996 17.5507 17.9142 17.5247 17.9401C17.4988 17.9661 17.4842 18.0012 17.4842 18.0379V19.727C17.4842 19.9147 17.4842 20.0826 17.4842 20.2012C17.4842 20.5765 17.6818 20.7346 18.0571 20.7839H21.712C22.8858 20.617 23.9668 20.0521 24.7741 19.1837C24.7894 19.1721 24.8079 19.1651 24.8271 19.1638C24.8463 19.1625 24.8655 19.1668 24.8823 19.1763C24.8991 19.1857 24.9128 19.1999 24.9217 19.217C24.9305 19.2341 24.9342 19.2535 24.9321 19.2726C24.7445 20.0826 24.5568 20.863 24.4086 21.6532Z" fill="#98792C"/>
</svg>