<svg width="72" height="72" viewBox="0 0 72 72" fill="none" xmlns="http://www.w3.org/2000/svg">
<g clip-path="url(#clip0_1570_6772)">
<path d="M8.59637 6.81809C8.43045 6.87252 8.25824 6.90545 8.08394 6.91606C7.58285 7.00307 7.09927 7.17108 6.65215 7.41345L6.43361 7.54154L6.20754 7.69227C6.04955 7.80886 5.89856 7.93467 5.75539 8.06906C5.60279 8.21586 5.45934 8.37189 5.32585 8.53627L5.12239 8.81509C5.05607 8.91182 4.99566 9.0125 4.94152 9.11654C4.68906 9.56928 4.52296 10.065 4.4517 10.5785V10.7819C4.4517 10.8497 4.4517 10.9251 4.4517 10.9929C4.45546 11.0657 4.45546 11.1387 4.4517 11.2115C4.4517 11.2868 4.4517 11.3622 4.4517 11.4375C4.4517 11.7465 4.4517 12.063 4.4517 12.387C4.4517 13.2536 4.45171 14.1881 4.48939 15.1828C4.52707 16.1775 4.5346 17.2401 4.52706 18.3629C4.51953 19.4857 4.72299 20.6688 4.52706 21.9122C4.48185 23.1481 4.52706 24.4518 4.52706 25.8082C4.52706 27.1647 4.45924 28.5814 4.52706 30.0433C4.59488 31.5052 4.30099 33.0576 4.52706 34.61C4.57981 36.185 4.56474 37.8127 4.52706 39.4932C4.43308 41.2176 4.43308 42.9458 4.52706 44.6702C4.36898 46.488 4.36898 48.316 4.52706 50.1337C4.40085 51.0727 4.34292 52.0197 4.35373 52.9671C4.35373 53.4419 4.35374 53.9241 4.41403 54.4064C4.41403 54.6476 4.41402 54.8887 4.47431 55.16C4.48394 55.2717 4.50157 55.3825 4.52706 55.4916C4.52348 55.5443 4.52348 55.5972 4.52706 55.6499L4.57227 55.8081C4.70928 56.6722 5.12783 57.467 5.76291 58.0688C6.08643 58.3849 6.46423 58.6402 6.87822 58.8224C7.29724 58.991 7.74533 59.0755 8.19697 59.0711C8.40797 59.0711 8.6868 59.0711 8.95055 59.0711H9.70413H11.2565C12.2964 59.0711 13.3514 59.0711 14.4064 59.0711C16.5611 58.909 18.725 58.909 20.8797 59.0711C23.108 58.9278 25.3431 58.9278 27.5714 59.0711C29.8321 59.169 32.1381 58.9053 34.4666 59.0711C36.7952 59.0711 39.1614 59.0259 41.5503 59.0711C43.9702 59.1953 46.3948 59.1953 48.8147 59.0711C51.2714 59.0259 53.7431 58.9656 56.2525 59.0711L57.187 59.0108H57.4206H57.624H57.82H58.0084C58.5232 58.9073 59.014 58.7079 59.4552 58.423C59.9017 58.1291 60.2832 57.7467 60.5761 57.2995C60.869 56.8523 61.0672 56.3499 61.1583 55.8232C61.1583 55.6875 61.1583 55.5443 61.1583 55.4087V54.9339C61.1583 54.6174 61.1583 54.2934 61.1583 53.9769C61.1583 53.3364 61.1583 52.6958 61.1583 52.0477C61.1583 50.7667 61.1583 49.4705 61.1583 48.1743C61.1583 47.8729 61.1583 47.579 61.1583 47.2776V47.0214H60.2841H58.777C57.7672 47.0214 56.7574 47.0214 55.7627 47.0214L53.291 46.9762H52.0626H50.2616C50.2616 46.5391 50.2616 46.1096 50.2616 45.68V44.9264C50.2616 44.4366 50.2616 43.9543 50.2088 43.4645C50.1561 42.9747 50.2088 42.2663 50.1636 41.671V40.7667C50.1636 40.2468 50.1636 39.7268 50.1636 39.1993H51.1508H51.9044H52.9368C53.6225 39.1993 54.3083 39.1993 54.9941 39.1993C56.147 39.2822 57.2925 39.2822 58.4304 39.252H60.141H60.9925H61.2035C61.2035 39.252 61.2035 39.1917 61.2035 39.1541V38.2347C61.2035 37.9182 61.2035 37.6092 61.2035 37.3003C61.2035 36.6748 61.2035 36.0569 61.2035 35.4389C61.2035 34.1955 61.2035 32.9672 61.2035 31.7389C61.2035 30.9401 61.2035 30.1413 61.2035 29.3425C61.2035 28.9431 61.2035 28.5512 61.2035 28.1518V27.6244H60.6157H59.3723C56.976 27.9107 54.6173 27.549 52.2812 27.6244H51.9345H51.5427H50.3294V25.6877C50.3294 25.228 50.3294 24.7683 50.3294 24.3086C50.3294 23.3892 50.3294 22.485 50.3294 21.5807V19.968H51.618H52.3716H53.8034C54.7454 19.968 55.6873 19.968 56.6218 19.968C57.5562 19.968 58.4078 19.968 59.2894 19.968H60.6082H61.3618C61.3586 19.9279 61.3586 19.8876 61.3618 19.8475V19.6816V19.3878C61.2186 17.2702 61.4823 15.1903 61.3618 13.1482C61.3618 12.6357 61.3618 12.1308 61.3618 11.641C61.3656 11.5833 61.3656 11.5254 61.3618 11.4677V11.3019C61.3571 11.1906 61.3445 11.0798 61.3241 10.9703V10.8045L61.2789 10.6463C61.2557 10.5389 61.2255 10.4332 61.1884 10.3298C61.1884 10.2318 61.1206 10.1263 61.0754 10.0208L60.9322 9.72693L60.7664 9.44811C60.7062 9.35015 60.6383 9.26722 60.5781 9.17679C60.3088 8.83577 59.9885 8.53838 59.6285 8.29512C59.2944 8.01012 58.9003 7.80408 58.4756 7.69227L58.3173 7.64706H58.1591C58.052 7.6275 57.9437 7.61492 57.835 7.60939H57.5034H57.1418C56.1847 7.60939 55.2427 7.67719 54.3083 7.68472C52.4394 7.68472 50.6158 7.81283 48.8449 7.68472C47.074 7.68472 45.3407 7.57169 43.6678 7.68472C41.9949 7.79776 40.3671 7.36069 38.7922 7.68472C37.2172 7.73748 35.695 7.45865 34.2255 7.68472C32.813 7.78309 31.3954 7.78309 29.9829 7.68472H26.0869C20.5029 7.63951 16.1095 7.58674 13.1103 7.52646C11.6031 7.52646 10.4577 7.47372 9.68152 7.44357C9.28765 7.45192 8.89391 7.42163 8.50594 7.35315C8.98444 7.27829 9.46859 7.24551 9.95282 7.25518C10.9099 7.25518 12.319 7.1949 14.1578 7.16476C17.8352 7.10447 23.2007 7.04421 29.9829 6.99899C31.3961 6.92315 32.8123 6.92315 34.2255 6.99899C35.695 6.99899 37.2398 6.88595 38.7922 6.99899C40.4155 6.88933 42.0444 6.88933 43.6678 6.99899C45.3407 6.99899 47.074 7.05174 48.8449 6.99899C50.6158 6.94624 52.4394 7.05174 54.3083 6.99899C55.2427 7.06681 56.1847 7.08941 57.1418 7.08187H57.5034H57.8953C58.0266 7.08695 58.1574 7.09952 58.2872 7.11954H58.4906L58.6866 7.16476C59.2171 7.2711 59.7264 7.46464 60.1937 7.73748C60.6374 8.05935 61.0331 8.44247 61.3693 8.87539C61.4522 8.98842 61.5351 9.09393 61.6105 9.20696L61.829 9.56112L62.0098 9.93037C62.0701 10.0585 62.1153 10.1866 62.1681 10.3147C62.2152 10.4457 62.2554 10.579 62.2887 10.7141C62.3133 10.7799 62.331 10.8481 62.3414 10.9175L62.3791 11.1286C62.4108 11.2648 62.4309 11.4034 62.4394 11.543V11.7541C62.4394 11.8294 62.4394 11.8972 62.4394 11.9575C62.4394 12.4624 62.4394 12.9673 62.4394 13.4646C62.3038 15.5423 62.3038 17.6266 62.4394 19.7043V21.4752H60.5328H59.2141C58.3324 21.4752 57.4432 21.4752 56.5464 21.4752C55.6497 21.4752 54.67 21.4752 53.7281 21.4752H51.4673V21.2491C51.4673 22.1534 51.5276 23.0577 51.5427 23.977C51.5427 24.4367 51.5427 24.8964 51.5427 25.3561C51.5427 25.5671 51.5427 25.7781 51.5427 25.9966V26.072H51.618H52.2736C54.6097 26.0117 56.9684 26.072 59.3648 26.072H60.6082H62.5147V27.9258C62.5147 28.3252 62.5147 28.6794 62.5147 29.1164C62.5147 29.9152 62.5147 30.714 62.5147 31.5128C62.5147 32.7411 62.4771 33.9695 62.4544 35.2129C62.4544 35.8308 62.4544 36.4487 62.4544 37.0742C62.4544 37.3832 62.4544 37.6921 62.4544 38.0086V38.4758C62.4544 38.6416 62.4545 38.7999 62.4921 38.9657V40.3296H58.6188C57.4809 40.3296 56.358 40.3296 55.1824 40.3296H51.6783C51.6783 40.714 51.6783 41.0832 51.6783 41.4977C51.6783 42.093 51.6783 42.6959 51.6783 43.2912C51.6783 43.8865 51.6105 44.2633 51.5954 44.7531V45.5067C51.5915 45.572 51.5915 45.6374 51.5954 45.7026H52.2736H53.502L55.9737 45.6273C56.991 45.6273 58.0008 45.5896 58.988 45.5896H62.6805C62.6805 46.1171 62.6805 46.6446 62.6805 47.1646C62.6805 47.466 62.6805 47.7599 62.6805 48.0613C62.6805 49.3575 62.6805 50.6536 62.6805 51.9347V53.8639C62.6805 54.1804 62.6805 54.5044 62.6805 54.8209V55.3032C62.6805 55.4841 62.6805 55.6724 62.6428 55.8533C62.5715 56.5864 62.3317 57.293 61.942 57.9181C61.5596 58.5377 61.0449 59.0653 60.4349 59.4629C59.8276 59.8533 59.1444 60.1102 58.4304 60.2165L58.1591 60.2617H57.8953H57.624H57.3904H56.456C53.9466 60.3522 51.4749 60.1638 49.0182 60.2617C46.5615 60.3597 44.1501 60.3522 41.7537 60.2617C39.3573 60.1713 36.9987 60.0658 34.6701 60.2617C32.3745 60.4237 30.0704 60.4237 27.7749 60.2617C25.5142 60.3371 23.2534 60.1186 21.0831 60.2617C18.8902 60.0507 16.735 60.2617 14.6099 60.2617C13.5549 60.2617 12.4999 60.2165 11.46 60.209H9.90758H9.15401H8.7697H8.35522C7.78061 60.2008 7.21283 60.0831 6.68228 59.8623C6.15953 59.636 5.6821 59.3168 5.27309 58.9203C4.86949 58.5325 4.53107 58.0821 4.27085 57.5865C4.02062 57.0934 3.84779 56.5648 3.75842 56.0191L3.72073 55.8156C3.71704 55.7478 3.71704 55.6799 3.72073 55.6121V55.4087C3.72073 55.3409 3.72073 55.2655 3.72073 55.2128V54.4592C3.72073 53.9769 3.72073 53.4946 3.76594 53.0198C3.81866 52.0761 3.81866 51.1302 3.76594 50.1864C3.76594 48.3176 3.76594 46.4939 3.76594 44.723C3.47958 42.9446 3.76594 41.2189 3.76594 39.5459C3.67516 37.9195 3.67516 36.2892 3.76594 34.6627C3.63002 33.1435 3.63002 31.6153 3.76594 30.0961C3.83376 28.6341 3.67551 27.2174 3.76594 25.861C3.61523 24.5045 3.85639 23.2009 3.80364 21.965C3.9016 20.7216 3.80364 19.5385 3.80364 18.4156C3.80364 17.2928 3.80363 16.2378 3.8413 15.2356C3.87898 14.2333 3.8413 13.3064 3.8413 12.4398C3.8413 12.1157 3.8413 11.7992 3.8413 11.4903V11.2567C3.8413 11.1813 3.8413 11.0984 3.8413 11.0231V10.7895C3.84956 10.7159 3.86213 10.643 3.87897 10.5709C3.9724 10.0143 4.16922 9.48011 4.45924 8.99594C4.5346 8.89044 4.59489 8.77742 4.67024 8.67945L4.89631 8.38554C5.0481 8.21353 5.21178 8.05236 5.38613 7.90325C5.54053 7.76652 5.70421 7.64062 5.87597 7.52646L6.12464 7.38328L6.36579 7.25518C6.83898 7.02829 7.34986 6.89037 7.87294 6.84827C8.10834 6.78134 8.35622 6.77098 8.59637 6.81809Z" fill="#5D270D"/>
<path d="M12.9823 14.0272C12.9823 14.0272 12.8542 14.0649 12.613 14.1101C12.2567 14.1791 11.9133 14.3037 11.5957 14.4794C11.4844 14.5417 11.3762 14.6096 11.2717 14.6828C11.1737 14.7732 11.0531 14.8486 10.9552 14.9541C10.8572 15.0596 10.7517 15.1726 10.6462 15.2932C10.548 15.4261 10.4575 15.5645 10.3749 15.7077C10.1958 16.0298 10.0783 16.3825 10.0283 16.7476C10.0208 16.8455 10.0208 16.9437 10.0283 17.0415C10.0283 17.1395 10.0283 17.245 10.0283 17.358C10.0283 17.4711 10.0283 17.8026 10.0283 18.0438C10.0283 18.6692 10.0283 19.3399 10.066 20.0633C10.1036 20.7868 10.1036 21.5705 10.066 22.3617C10.0283 23.153 10.2619 24.0272 10.066 24.9239C10.0207 25.8207 10.0659 26.7551 10.1036 27.7347C10.1413 28.7144 10.0358 29.7393 10.1036 30.8018C10.1714 31.8643 9.87002 32.957 10.1036 34.0949C10.1564 35.2328 10.1413 36.4084 10.1036 37.6217C10.0082 38.8758 10.0082 40.1354 10.1036 41.3895C9.94552 42.701 9.94552 44.0268 10.1036 45.3383C9.97408 46.0135 9.916 46.7006 9.93032 47.388C9.93032 47.7347 9.9303 48.0813 9.98305 48.428C9.98305 48.6013 10.0207 48.7821 10.0434 48.9555C10.066 49.1288 10.0433 49.1288 10.081 49.2192L10.1413 49.4377C10.1885 50.0437 10.4319 50.6178 10.8346 51.073C11.2558 51.5301 11.8413 51.8012 12.4623 51.8266C12.5377 51.8266 12.613 51.8266 12.6884 51.8266H13.5023H14.6251C15.3787 51.8266 16.1322 51.8266 16.8858 51.8266C18.4392 51.6682 20.0046 51.6682 21.558 51.8266C23.1651 51.6871 24.7813 51.6871 26.3884 51.8266C28.0312 51.9321 29.6891 51.6683 31.3695 51.8266C33.0576 51.8266 34.7682 51.8266 36.4939 51.8266C38.25 51.9523 40.0128 51.9523 41.7689 51.8266C43.5398 51.7814 45.3333 51.7211 47.1419 51.8266C48.9649 51.6759 50.7973 51.6759 52.6204 51.8266H53.2609C53.4441 51.8086 53.6256 51.7758 53.8035 51.7286C54.1673 51.6291 54.5043 51.4496 54.7898 51.2032C55.0753 50.9568 55.3022 50.6497 55.4538 50.3043C55.4915 50.2139 55.5217 50.1235 55.5518 50.0331C55.5819 49.9426 55.597 49.8522 55.6121 49.7543V49.6186C55.6156 49.571 55.6156 49.5231 55.6121 49.4754C55.6121 49.3775 55.6121 49.3021 55.6121 49.174C55.6121 48.6716 55.6121 48.1893 55.6121 47.7271C55.6121 47.4935 55.6121 47.2599 55.6121 47.0188V46.868H54.8585C54.3988 46.868 53.9316 46.868 53.4719 46.868L52.1607 46.8304H50.2768V45.489C50.2768 45.2328 50.2768 44.9841 50.2768 44.7354C50.2768 44.2305 50.2768 43.7181 50.2165 43.2283C50.1562 42.7384 50.1713 42.0678 50.1713 41.495C50.1713 40.6963 50.1713 39.905 50.2089 39.1138H51.9196H52.967C53.5171 39.1665 54.0673 39.1891 54.6174 39.1891H55.4312H55.5744H55.6422V39.0836V38.5787C55.6422 38.2095 55.6422 37.8251 55.6422 37.4785C55.6422 35.6699 55.7477 33.8839 55.6422 32.113C55.6422 31.2238 55.6422 30.3496 55.6422 29.468C55.6422 29.0309 55.6422 28.5938 55.6422 28.1643C55.6422 27.9457 55.6422 27.7272 55.6422 27.5087V27.4032C55.6024 27.422 55.5645 27.4447 55.5292 27.471H55.0092C54.5948 27.471 54.1727 27.471 53.7583 27.471L52.5074 27.3956H51.8894H50.9851H50.3069C50.3069 27.0414 50.3069 26.7023 50.3069 26.3632C50.3069 26.0241 50.3069 25.896 50.3069 25.6624C50.3069 25.2781 50.3069 24.9089 50.3069 24.5095C50.3069 23.7559 50.2692 23.0023 50.3069 22.2487C50.3069 21.9322 50.3069 21.6082 50.3069 21.2917V19.7845L52.3491 19.8222C52.8389 19.8222 53.3212 19.8222 53.8035 19.7845C54.2858 19.7468 54.6324 19.7845 55.0394 19.7845H55.6799C55.6764 19.7444 55.6764 19.7041 55.6799 19.664V19.2721C55.6799 18.9028 55.6799 18.5185 55.7251 18.1719C55.7251 17.9759 55.7251 17.7875 55.7251 17.5991V17.456C55.7292 17.4108 55.7292 17.3654 55.7251 17.3203V17.0942C55.6965 16.7846 55.6176 16.4817 55.4915 16.1975C55.3753 15.9071 55.2001 15.644 54.977 15.4248C54.7539 15.2056 54.4878 15.035 54.1954 14.9239C53.9152 14.8052 53.6172 14.7339 53.3137 14.713H52.2587C51.5051 14.713 50.8269 14.713 50.1185 14.713C48.7396 14.5925 47.3528 14.5925 45.9739 14.713C44.625 14.713 43.3062 14.8411 42.0251 14.713C40.744 14.713 39.5006 14.5924 38.2572 14.713C37.0138 14.8335 35.8684 14.3889 34.7305 14.713C33.5926 14.7733 32.4698 14.4869 31.4374 14.713C30.4172 14.8077 29.3905 14.8077 28.3703 14.713H25.5595C21.5203 14.6602 18.3477 14.6075 16.1774 14.5547L13.7057 14.4718C13.4191 14.4801 13.1327 14.4497 12.8542 14.3814C13.1982 14.3073 13.5498 14.2744 13.9017 14.2834C14.5949 14.2834 15.6123 14.2231 16.916 14.1855C19.5685 14.1252 23.4495 14.0724 28.3477 14.0196C29.3688 13.9477 30.3937 13.9477 31.4148 14.0196C32.4773 14.0196 33.57 13.8991 34.7079 14.0196C35.8809 13.9101 37.0616 13.9101 38.2346 14.0196C39.4479 14.0196 40.6913 14.0724 42.0025 14.0196C43.3137 13.9669 44.6023 14.0799 45.9512 14.0196C47.3302 14.14 48.717 14.14 50.0959 14.0196C50.8087 14.0612 51.5233 14.0612 52.2361 14.0196H52.7786H53.3589C53.7897 14.0331 54.2141 14.1278 54.6098 14.2985C55.3606 14.726 55.9766 15.3551 56.3883 16.1146C56.5922 16.4989 56.7321 16.9137 56.8027 17.3429C56.8027 17.4484 56.8027 17.5615 56.8027 17.6745C56.8063 17.7247 56.8063 17.7751 56.8027 17.8252V17.9684C56.8027 18.1568 56.8027 18.3452 56.8027 18.5411C56.8027 18.9028 56.8027 19.2947 56.8027 19.6413C56.8027 20.199 56.8027 20.7717 56.8027 21.3369H54.9791C54.5722 21.3369 54.1577 21.3369 53.7432 21.3369C53.3288 21.3369 52.7786 21.3369 52.2888 21.3369H51.5352H51.3996V21.6835C51.3996 22 51.3996 22.3241 51.3996 22.6406C51.4373 23.3941 51.4674 24.1477 51.4749 24.9013C51.4749 25.2831 51.4749 25.6674 51.4749 26.0543V26.416C51.4767 26.4335 51.4767 26.4512 51.4749 26.4687V26.5516H51.5126H53.7055H54.9565H56.8555V26.7626C56.8555 27.162 56.8555 27.5162 56.8555 27.9458C56.8555 28.1643 56.8555 28.3828 56.8555 28.6014C56.8555 29.0309 56.8555 29.468 56.8555 29.905C56.8555 30.7867 56.8555 31.6609 56.8555 32.5501C56.8932 34.321 56.652 36.107 56.8555 37.9156C56.8555 38.2773 56.8555 38.6691 56.8555 39.0083C56.8555 39.596 56.8555 40.1763 56.8555 40.7641H54.5948C54.0447 40.7641 53.4945 40.7641 52.9444 40.7641H51.8969H51.4674V40.9977C51.4674 41.2841 51.4674 41.5779 51.4674 41.8643C51.4674 42.437 51.4674 43.0173 51.4674 43.5975C51.4674 44.1778 51.377 44.6148 51.3619 45.1047C51.3619 45.3609 51.3619 45.6096 51.3619 45.8582V45.9713C51.3619 45.9713 51.3619 46.0391 51.3619 46.0693H51.5352H51.7839H52.1155L53.4267 46.0165C53.8864 46.0165 54.3536 46.0165 54.8133 46.0165H57.1117C57.1117 46.4837 57.1117 46.9509 57.1117 47.4181C57.1117 47.6668 57.1117 47.9155 57.1117 48.1717V49.6186C57.119 49.7516 57.119 49.885 57.1117 50.018C57.1191 50.0881 57.1191 50.1589 57.1117 50.229V50.44C57.1117 50.5756 57.0439 50.7113 57.0137 50.8544C56.9836 50.9976 56.9233 51.1182 56.8706 51.2463C56.6454 51.7656 56.3083 52.2288 55.8834 52.6027C55.467 52.9832 54.9697 53.2641 54.429 53.4242C54.1612 53.5017 53.8858 53.5497 53.6076 53.5673C53.3061 53.5673 53.1027 53.5673 52.854 53.5673C51.0077 53.6276 49.1841 53.4769 47.3755 53.5673C45.5669 53.6578 43.7734 53.4769 42.0025 53.5673C40.2316 53.6578 38.4833 53.6653 36.7275 53.5673C35.0205 53.4807 33.3102 53.4807 31.6031 53.5673C29.9471 53.7369 28.2781 53.7369 26.622 53.5673C24.9868 53.6427 23.3741 53.4317 21.7916 53.5673C20.2359 53.4657 18.6751 53.4657 17.1194 53.5673L14.8587 53.507H13.7359H13.1782H12.8768C12.7689 53.5146 12.6606 53.5146 12.5527 53.507C12.1189 53.4727 11.6962 53.3523 11.3094 53.1529C10.9333 52.963 10.5939 52.7079 10.3071 52.3993C9.75187 51.7677 9.41148 50.9761 9.33499 50.1386C9.33499 50.0331 9.33499 49.9351 9.33499 49.8296C9.33499 49.7241 9.33499 49.6563 9.33499 49.5659C9.33499 49.4754 9.33499 49.2117 9.33499 49.0383C9.33499 48.6917 9.35006 48.3451 9.3802 47.9984C9.43293 47.3162 9.43293 46.6309 9.3802 45.9487C9.3802 44.5998 9.3802 43.2885 9.3802 41.9999C9.09384 40.7188 9.3802 39.4754 9.3802 38.232C9.28952 37.0582 9.28952 35.8791 9.3802 34.7053C9.24043 33.6121 9.24043 32.5055 9.3802 31.4122C9.44049 30.3497 9.28977 29.3323 9.3802 28.3451C9.33076 27.4088 9.33076 26.4706 9.3802 25.5343C9.4857 24.6376 9.38019 23.7785 9.41787 22.9721C9.37203 22.2067 9.37203 21.4392 9.41787 20.6737C9.41787 19.9202 9.41787 19.2796 9.41787 18.6542C9.41787 18.413 9.41787 18.187 9.41787 17.9684C9.41787 17.7499 9.41787 17.7423 9.41787 17.6218C9.42129 17.51 9.43645 17.3988 9.46308 17.2902C9.53846 16.884 9.68926 16.4954 9.90769 16.1447C10.0034 15.988 10.1118 15.8393 10.2317 15.7002C10.3421 15.577 10.4604 15.4611 10.5859 15.3535C10.7315 15.0336 10.919 14.7346 11.1436 14.4643C11.2717 14.3965 11.3847 14.3211 11.4977 14.2759C11.8477 14.1096 12.2263 14.0124 12.613 13.9895C12.7374 13.9779 12.8628 13.9907 12.9823 14.0272Z" fill="#5D270D"/>
<path d="M33.1104 24.1432C32.5464 24.3211 31.9695 24.4546 31.3847 24.5425L31.1059 24.6254C31.0059 24.6486 30.9077 24.6789 30.812 24.7158L30.503 24.8289C30.3955 24.8769 30.2847 24.9172 30.1714 24.9494C30.0358 24.9494 29.9378 25.0324 29.8399 25.1153C29.7956 25.1649 29.7408 25.2041 29.6796 25.2302C29.6184 25.2562 29.5522 25.2685 29.4857 25.266C29.3515 25.2991 29.224 25.3552 29.1089 25.4317C28.9887 25.5052 28.8729 25.5857 28.7623 25.6729C28.6395 25.757 28.5111 25.8326 28.3779 25.899C28.2402 25.9705 28.1194 26.0707 28.0237 26.1929C27.9854 26.265 27.9318 26.328 27.8668 26.3774C27.8017 26.4268 27.7267 26.4616 27.647 26.4792C27.4887 26.5395 27.3305 26.6149 27.2928 26.8183C27.0893 27.0896 26.8406 27.3157 26.5995 27.5719C26.3584 27.8281 26.1474 28.1296 25.959 28.4536C25.7952 28.5653 25.6605 28.7145 25.5661 28.8889C25.4717 29.0632 25.4204 29.2576 25.4164 29.4559C25.2302 29.5666 25.0871 29.7371 25.0105 29.9397C24.9338 30.1423 24.9281 30.3649 24.9944 30.5711C24.8179 30.9574 24.7205 31.375 24.708 31.7995C24.6628 32.2215 24.6553 32.651 24.61 33.0881C24.7691 33.5141 24.8057 33.9762 24.7156 34.4219C24.9228 34.8414 25.0311 35.3029 25.032 35.7708C25.0507 35.8875 25.0836 36.0013 25.13 36.1099C25.1778 36.2167 25.2332 36.32 25.2958 36.4189C25.433 36.6176 25.5327 36.8398 25.5897 37.0745C25.8126 37.5006 26.0644 37.911 26.3433 38.3028C26.5455 38.7734 26.9016 39.1613 27.3531 39.4031C27.7754 39.6878 28.1805 39.9973 28.5663 40.33C29.0704 40.4694 29.5417 40.7076 29.9529 41.0308C30.4265 41.2631 30.9361 41.4135 31.4601 41.4754C31.9897 41.5525 32.5229 41.6027 33.0576 41.6261C33.5967 41.7166 34.15 41.6647 34.6628 41.4754C34.9052 41.3769 35.158 41.3061 35.4163 41.2644C35.5487 41.2423 35.6795 41.2121 35.8082 41.174C35.934 41.1407 36.0554 41.0927 36.1699 41.0308C36.3054 41.0285 36.439 40.9977 36.5618 40.9403L36.7652 40.8424C36.8232 40.8117 36.8786 40.7764 36.931 40.7369L37.0968 40.6314L37.2551 40.5108L37.5866 40.3149C38.0428 40.0803 38.4536 39.7664 38.7999 39.388C39.1541 39.0187 39.4555 38.6344 39.8097 38.2877C39.8566 38.0398 39.9805 37.813 40.1639 37.6397C40.2544 37.5566 40.3376 37.4659 40.4125 37.3684C40.4519 37.3239 40.4872 37.276 40.518 37.2252C40.5501 37.1723 40.5779 37.1168 40.6009 37.0594C40.8594 36.6605 41.0457 36.2192 41.1511 35.7557C41.21 35.5288 41.2804 35.3049 41.3621 35.085L41.4223 34.9268C41.4223 34.8665 41.4223 34.8062 41.4223 34.7535C41.4375 34.6384 41.4375 34.5219 41.4223 34.4069C41.5128 33.9622 41.4223 33.5101 41.5278 33.073C41.489 32.9695 41.4711 32.8594 41.4751 32.749C41.4675 32.6386 41.4675 32.5278 41.4751 32.4174C41.4864 32.3097 41.4864 32.2011 41.4751 32.0934C41.477 31.9873 41.4564 31.882 41.4148 31.7844C41.347 31.3624 41.2339 30.963 41.136 30.5636C41.1584 30.4593 41.1584 30.3514 41.136 30.2471C41.1108 30.1472 41.0728 30.0509 41.0229 29.9607C40.9774 29.8711 40.9245 29.7853 40.8647 29.7045L40.714 29.4483C40.5632 29.0866 40.2468 28.8304 40.1639 28.446C40.0195 28.1096 39.8035 27.8087 39.5309 27.5644C39.4176 27.4258 39.3261 27.2708 39.2596 27.1047C39.2252 27.0195 39.1673 26.9458 39.0925 26.8924C39.0178 26.839 38.9293 26.8081 38.8376 26.8033C38.7045 26.7024 38.592 26.5771 38.506 26.434C38.4632 26.3638 38.405 26.3043 38.3358 26.2599C38.2666 26.2155 38.1882 26.1874 38.1066 26.1778C37.9502 26.158 37.8059 26.0833 37.6997 25.9668C37.6024 25.8526 37.491 25.7513 37.3681 25.6653C37.2527 25.5843 37.1318 25.5113 37.0064 25.4468L36.6447 25.2509C36.16 25.0082 35.6559 24.8065 35.1375 24.648C34.7586 24.532 34.3737 24.4364 33.9845 24.3617L33.231 24.226C33.0576 24.1884 32.9672 24.1582 32.9672 24.1281C33.3764 23.9871 33.8148 23.9534 34.2407 24.0301C34.7498 24.0613 35.2545 24.1421 35.7479 24.2713C36.4174 24.4486 37.0646 24.7014 37.6771 25.0248L38.1217 25.2132C38.2803 25.2784 38.4165 25.3883 38.5135 25.5297C38.6492 25.6277 38.7999 25.7106 38.9506 25.8085C39.1044 25.9041 39.2397 26.0267 39.35 26.1703C39.7569 26.2758 39.9152 26.6601 40.1563 26.9239C40.3975 27.1876 40.6009 27.5719 40.9099 27.8658C41.0622 28.0132 41.1827 28.1901 41.2641 28.3857C41.3419 28.5878 41.443 28.78 41.5655 28.9585C41.652 29.4018 41.829 29.8225 42.0855 30.1943C42.1771 30.653 42.2954 31.1059 42.4397 31.5508C42.3929 32.0408 42.4441 32.5352 42.5904 33.0052C42.6133 33.5088 42.5881 34.0135 42.515 34.5123C42.4409 35.0227 42.3275 35.5266 42.1759 36.0195C42.1165 36.5675 41.908 37.0888 41.5731 37.5266C41.3447 38.0389 41.0481 38.518 40.6914 38.9509C40.3716 39.4296 39.986 39.8609 39.5459 40.232C39.337 40.4342 39.1011 40.6066 38.8451 40.7444C38.7245 40.8273 38.5964 40.9027 38.4834 40.9931C38.3627 41.0848 38.2538 41.1911 38.1594 41.3096C37.6519 41.625 37.1202 41.8997 36.5693 42.131C35.9966 42.3269 35.4088 42.4777 34.8135 42.651C34.193 42.6226 33.5716 42.6809 32.9672 42.8243C32.3464 42.8688 31.7226 42.8103 31.121 42.651C30.5196 42.5478 29.9327 42.3732 29.3727 42.131C28.8222 41.8935 28.2885 41.6191 27.7751 41.3096C27.6401 41.248 27.5135 41.1695 27.3983 41.076C27.2786 40.9914 27.1653 40.8982 27.0592 40.7972C26.8515 40.5907 26.6272 40.4016 26.3885 40.232C25.9159 39.8957 25.5245 39.458 25.243 38.9509C25.085 38.7112 24.9464 38.4592 24.8286 38.1973C24.7683 38.0767 24.7005 37.9487 24.6327 37.8356C24.5513 37.7201 24.4632 37.6093 24.3689 37.504C24.2182 37.2704 24.0449 37.0519 23.9168 36.8032C23.8524 36.6838 23.8018 36.5574 23.766 36.4264C23.7434 36.2842 23.7434 36.1392 23.766 35.9969C23.6691 35.7563 23.6106 35.502 23.5927 35.2433C23.5927 35.1755 23.5927 35.1077 23.5927 35.0474V34.8514C23.5691 34.7229 23.5338 34.5968 23.4872 34.4747C23.5241 34.3475 23.5394 34.2151 23.5324 34.0828C23.5315 33.9563 23.5189 33.8302 23.4948 33.706C23.4948 33.5779 23.4571 33.4574 23.442 33.3293C23.4269 33.2066 23.4269 33.0826 23.442 32.96C23.5213 32.4786 23.5716 31.9929 23.5927 31.5056C23.6428 31.0383 23.7622 30.5812 23.9469 30.1491C23.9548 30.0322 23.9828 29.9174 24.0298 29.81C24.0793 29.7089 24.1347 29.6108 24.1956 29.5161L24.3614 29.2223C24.4165 29.1272 24.4523 29.0222 24.4669 28.9133C24.6568 28.5326 24.876 28.1673 25.1225 27.8206C25.1207 27.7128 25.1444 27.6063 25.1915 27.5094C25.2386 27.4125 25.3079 27.328 25.3938 27.2629C25.552 27.1273 25.7329 27.0142 25.8685 26.8786C26.1474 26.6148 26.2604 26.1853 26.6748 26.125C26.737 25.9475 26.8634 25.7997 27.029 25.7106C27.1853 25.626 27.3463 25.5505 27.5113 25.4845C27.6569 25.404 27.7933 25.308 27.9183 25.1981C28.0379 25.0861 28.1868 25.0104 28.3478 24.9796C28.3938 24.9154 28.4522 24.861 28.5195 24.8196C28.5868 24.7782 28.6616 24.7507 28.7397 24.7385C28.8844 24.7125 29.0242 24.6642 29.1541 24.5953C29.4138 24.5272 29.6662 24.4339 29.9077 24.3165C30.0204 24.2583 30.1391 24.2128 30.2619 24.1808C30.3775 24.1506 30.4965 24.1354 30.6161 24.1356L30.9326 24.0678L31.2415 24.0226C31.864 23.8936 32.5097 23.9353 33.1104 24.1432Z" fill="#98772E"/>
<path d="M33.1105 28.1038C33.1105 28.1038 33.0276 28.1867 32.8618 28.2319L32.5604 28.3073L32.161 28.4203L31.8445 28.5333L31.6787 28.6087C31.621 28.6397 31.5605 28.6649 31.4979 28.6841C31.3396 28.6313 31.317 28.9478 31.1286 28.8649C30.9797 28.9019 30.8456 28.9834 30.7443 29.0985C30.6313 29.2191 30.4278 29.204 30.3449 29.3924C30.262 29.5808 30.2394 29.5281 30.1414 29.5432C30.0435 29.5582 29.9455 29.5959 29.9606 29.7466C29.9094 29.8245 29.8514 29.8976 29.7872 29.9652L29.5913 30.1611C29.5399 30.1713 29.4919 30.1947 29.4523 30.229C29.4126 30.2634 29.3826 30.3075 29.3652 30.357C29.3276 30.4475 29.2974 30.5529 29.2598 30.6434C28.996 30.7187 28.9357 30.9448 28.9734 31.1935C28.9083 31.2003 28.8464 31.2251 28.7945 31.265C28.7426 31.3049 28.7028 31.3584 28.6795 31.4196C28.6563 31.5502 28.6832 31.6847 28.7548 31.7963C28.7548 31.9018 28.6795 31.9998 28.6418 32.1128C28.6198 32.1634 28.6046 32.2166 28.5966 32.2711C28.5893 32.3312 28.5893 32.3919 28.5966 32.452C28.5966 32.565 28.5966 32.678 28.5966 32.7911C28.6152 32.9084 28.6152 33.0279 28.5966 33.1452C28.6728 33.2469 28.722 33.3661 28.7398 33.4919C28.7471 33.5494 28.7471 33.6077 28.7398 33.6652C28.7338 33.7307 28.7159 33.7945 28.687 33.8536C28.7346 33.9031 28.7751 33.9589 28.8076 34.0194C28.8107 34.0469 28.8107 34.0747 28.8076 34.1023V34.1927C28.8265 34.3176 28.8265 34.4446 28.8076 34.5695C28.816 34.6991 28.8693 34.8217 28.9583 34.9162C29.0052 34.9611 29.0426 35.0148 29.0685 35.0743C29.0943 35.1338 29.1081 35.1979 29.109 35.2628L29.1542 35.3532L29.1995 35.4361L29.3125 35.5944C29.3803 35.6999 29.4707 35.7978 29.531 35.9109C29.5913 36.0239 29.5838 36.0465 29.6139 36.1068C29.6441 36.1671 29.6817 36.2198 29.7194 36.2801C29.7622 36.333 29.8131 36.3787 29.8701 36.4158C29.9322 36.4543 30.0014 36.4799 30.0736 36.4911C30.1866 36.5665 30.2997 36.6419 30.4202 36.7097C30.533 36.7855 30.6344 36.8768 30.7217 36.981C30.8674 36.9795 31.0114 37.0121 31.1422 37.0762C31.2731 37.1403 31.3871 37.2342 31.4753 37.3502C31.6098 37.3958 31.7407 37.4512 31.8671 37.516C31.9961 37.5774 32.1398 37.6009 32.2816 37.5838C32.4196 37.6178 32.5615 37.6331 32.7036 37.629C32.8427 37.5993 32.9865 37.5993 33.1256 37.629C33.2699 37.6553 33.416 37.6704 33.5627 37.6742C33.7091 37.6652 33.8512 37.6213 33.9771 37.5461C34.0963 37.4692 34.2347 37.4273 34.3765 37.4255C34.5182 37.4147 34.6565 37.3763 34.7835 37.3125C34.8539 37.3391 34.9316 37.3391 35.002 37.3125L35.1828 37.1995L35.2658 37.1317L35.3411 37.0638C35.3913 37.0175 35.4502 36.9816 35.5144 36.9583C35.635 36.8905 35.748 36.8152 35.8686 36.7549C35.9941 36.6925 36.0969 36.5923 36.1625 36.4685C36.2002 36.4158 36.2529 36.3706 36.2906 36.3178L36.4112 36.1595L36.5544 36.0239L36.6975 35.8883C36.686 35.8191 36.6949 35.7481 36.723 35.6839C36.751 35.6197 36.7972 35.565 36.8558 35.5266L37.0216 35.406L37.0894 35.3306C37.0924 35.3005 37.0924 35.2703 37.0894 35.2402C37.1874 35.1557 37.256 35.0422 37.2853 34.9162C37.3046 34.7891 37.3401 34.665 37.3908 34.5469C37.4081 34.4246 37.449 34.3069 37.5114 34.2003L37.5566 34.1098C37.5602 34.0798 37.5602 34.0494 37.5566 34.0194C37.5753 33.958 37.5753 33.8924 37.5566 33.831C37.5645 33.7735 37.5645 33.7152 37.5566 33.6577C37.5566 33.5974 37.5566 33.5296 37.5566 33.4768C37.5455 33.3562 37.5636 33.2348 37.6094 33.1226C37.5816 33.0678 37.5671 33.0071 37.5671 32.9456C37.5671 32.884 37.5816 32.8233 37.6094 32.7684C37.6511 32.6593 37.6511 32.5386 37.6094 32.4294C37.6094 32.3691 37.6094 32.3163 37.6094 32.2636C37.6094 32.2108 37.6094 32.1505 37.5717 32.0978C37.534 32.045 37.5265 31.8792 37.5039 31.7737C37.5344 31.7224 37.5505 31.6639 37.5505 31.6042C37.5505 31.5445 37.5344 31.4859 37.5039 31.4346C37.4511 31.3367 37.3456 31.2613 37.2929 31.1709C37.2326 30.9599 36.9914 30.877 37.014 30.6208L36.8859 30.3495C36.843 30.2588 36.7715 30.1847 36.6825 30.1385C36.6071 30.0782 36.5996 29.9576 36.5694 29.8521C36.5393 29.7466 36.479 29.6788 36.3132 29.724C36.1474 29.7692 36.2002 29.5808 36.155 29.4979C36.1394 29.4511 36.1066 29.4118 36.0633 29.3881C36.02 29.3643 35.9693 29.3578 35.9214 29.3699C35.6878 29.4151 35.6651 29.1739 35.5295 29.0759C35.4065 28.9899 35.2782 28.9119 35.1452 28.8423C34.6922 28.5993 34.2114 28.4121 33.7134 28.2847C33.3592 28.2018 33.1557 28.1415 33.1557 28.0812C33.1557 28.0209 33.2235 28.0134 33.3441 27.9908L33.5702 27.9531H33.7209H33.8867C34.587 27.9556 35.2757 28.1316 35.8912 28.4656C36.0495 28.5484 36.3057 28.5108 36.381 28.7444C36.4674 28.7995 36.5581 28.8474 36.6523 28.8876C36.7502 28.9364 36.8295 29.0158 36.8784 29.1136C36.9383 29.1103 36.9979 29.1232 37.051 29.1511C37.104 29.179 37.1486 29.2207 37.1798 29.2719C37.2346 29.3731 37.295 29.4712 37.3607 29.5657C37.4386 29.6509 37.5069 29.7444 37.5642 29.8446C37.63 29.9447 37.7114 30.0338 37.8053 30.1083C38.0314 30.2515 38.0163 30.5454 38.1896 30.7413C38.1918 30.8744 38.2227 31.0055 38.2801 31.1257C38.3376 31.2496 38.4138 31.364 38.5061 31.4648C38.5003 31.6019 38.5261 31.7386 38.5815 31.8642L38.6719 32.0526C38.693 32.1194 38.7106 32.1873 38.7247 32.256C38.6646 32.391 38.6513 32.5422 38.687 32.6856C38.687 32.8212 38.7774 32.9644 38.8226 33.1151C38.8527 33.2592 38.8527 33.408 38.8226 33.5522V33.7783C38.8226 33.8536 38.8226 33.929 38.8226 34.0043C38.8226 34.0797 38.8226 34.155 38.7849 34.2304V34.3434V34.4565C38.7624 34.6131 38.7246 34.767 38.6719 34.9162C38.6607 35.0774 38.6304 35.2368 38.5815 35.3909C38.5246 35.5465 38.4346 35.6879 38.3177 35.8054C38.3177 35.8506 38.3177 35.8882 38.3177 35.9259L38.265 36.039L38.1369 36.25C38.0464 36.3931 37.941 36.5137 37.8355 36.6494C37.803 36.7278 37.7599 36.8013 37.7073 36.8679C37.6535 36.9342 37.5956 36.9972 37.534 37.0563L37.3532 37.2371C37.2867 37.2908 37.2237 37.3487 37.1648 37.4105C37.0421 37.5336 36.896 37.631 36.7352 37.6969C36.5685 37.7676 36.4305 37.8923 36.3434 38.051C35.9966 38.2561 35.6337 38.4325 35.2582 38.5785C35.0849 38.6237 34.9191 38.684 34.7458 38.7217C34.5725 38.7594 34.3991 38.8272 34.2258 38.8875C34.0441 38.8317 33.8499 38.8317 33.6682 38.8875C33.4949 38.8875 33.314 38.9779 33.1256 39.0232C32.9427 39.042 32.7584 39.042 32.5755 39.0232C32.3946 39.0232 32.2138 38.9478 32.0329 38.9101C31.8546 38.8815 31.6784 38.8413 31.5054 38.7896C31.3338 38.7359 31.1653 38.673 31.0005 38.6012C30.9098 38.5845 30.823 38.5512 30.7443 38.5032L30.5182 38.3675L30.4052 38.2997L30.2921 38.2244C30.218 38.1747 30.1366 38.1366 30.051 38.1113C29.8871 38.0445 29.7422 37.9384 29.629 37.8023C29.5126 37.676 29.381 37.5647 29.2371 37.4708C29.1643 37.4242 29.0939 37.3738 29.0261 37.3201C28.9579 37.2657 28.8948 37.2052 28.8378 37.1392C28.7785 37.0774 28.7231 37.012 28.672 36.9433C28.6292 36.8691 28.5939 36.7908 28.5665 36.7097C28.4689 36.5711 28.3927 36.4187 28.3404 36.2575C28.3102 36.1834 28.2723 36.1127 28.2274 36.0465L28.1445 35.9561L28.0465 35.8657C27.9636 35.73 27.8204 35.617 27.7375 35.4738C27.6888 35.4014 27.6592 35.3178 27.6513 35.2309C27.6434 35.144 27.6575 35.0564 27.6923 34.9764C27.629 34.8316 27.5982 34.6747 27.6019 34.5167C27.6019 34.5167 27.6019 34.4414 27.6019 34.3962C27.6056 34.3586 27.6056 34.3207 27.6019 34.2831C27.5951 34.2052 27.5693 34.1301 27.5265 34.0646C27.5667 33.9934 27.5875 33.9128 27.5868 33.831C27.5982 33.7586 27.5982 33.6848 27.5868 33.6124C27.5377 33.4717 27.5098 33.3244 27.5039 33.1754C27.5039 33.0247 27.5642 32.8815 27.5868 32.7459C27.6132 32.6039 27.6132 32.4583 27.5868 32.3163C27.5717 32.2468 27.5717 32.1748 27.5868 32.1053C27.5868 32.0375 27.632 31.9697 27.6546 31.9019C27.719 31.7832 27.7672 31.6565 27.7978 31.5251C27.8021 31.3864 27.8586 31.2546 27.9561 31.1558C28.0314 31.0428 28.1294 30.9523 28.1218 30.8016C28.2275 30.5778 28.3563 30.3656 28.5062 30.1686C28.4811 30.1041 28.4803 30.0326 28.5038 29.9675C28.5274 29.9024 28.5737 29.848 28.6343 29.8144C28.7398 29.7391 28.8679 29.7014 28.9508 29.626C29.0347 29.5463 29.0992 29.4483 29.1392 29.3397C29.166 29.2859 29.2084 29.2414 29.2607 29.2118C29.3131 29.1823 29.3731 29.1691 29.4331 29.1739C29.4326 29.1148 29.4495 29.0569 29.4816 29.0073C29.5138 28.9577 29.5598 28.9187 29.6139 28.8951C29.7119 28.8574 29.8325 28.8423 29.9304 28.8047C30.0284 28.767 30.2017 28.5183 30.4202 28.5258C30.4351 28.4802 30.4645 28.4407 30.504 28.4135C30.5435 28.3862 30.5909 28.3728 30.6388 28.3751C30.7285 28.384 30.8186 28.3628 30.895 28.3148C31.0759 28.3148 31.1889 28.1942 31.3396 28.1641C31.3823 28.1112 31.4332 28.0654 31.4903 28.0285C31.5602 28.0172 31.6314 28.0172 31.7013 28.0285C31.8294 28.0285 31.95 27.9832 32.0631 27.9757H32.5152C32.6241 27.9781 32.7326 27.9907 32.8392 28.0134C32.9975 28.0284 33.1105 28.0284 33.1105 28.1038Z" fill="#98772E"/>
<path d="M51.0301 20.2383C51.1054 20.2383 51.1883 20.7583 51.2562 21.6927C51.2562 21.851 51.2562 22.0167 51.2562 22.1976C51.268 22.3883 51.268 22.5796 51.2562 22.7703C51.1507 22.9738 51.4521 23.1848 51.2562 23.4109C51.2277 23.6449 51.2405 23.8821 51.2938 24.1117C51.2938 24.3528 51.226 24.609 51.2938 24.8652C51.3616 25.1215 51.0602 25.4078 51.2938 25.6867C51.2975 25.7595 51.2975 25.8324 51.2938 25.9052V25.9956C51.2973 26.0105 51.2973 26.026 51.2938 26.0408C51.2973 26.1036 51.2973 26.1665 51.2938 26.2292C51.268 26.268 51.25 26.3116 51.2411 26.3574C51.302 26.3792 51.3686 26.3792 51.4295 26.3574H51.5274H51.5726H51.8364C51.9892 26.4354 52.1584 26.4761 52.33 26.4761C52.5016 26.4761 52.6708 26.4354 52.8236 26.3574C52.9685 26.4781 53.1512 26.5442 53.3398 26.5442C53.5284 26.5442 53.7111 26.4781 53.856 26.3574C54.2133 26.4099 54.5763 26.4099 54.9336 26.3574C55.3098 26.3271 55.6878 26.3271 56.064 26.3574C56.2469 26.2773 56.4445 26.2359 56.6442 26.2359C56.8439 26.2359 57.0415 26.2773 57.2245 26.3574C57.6137 26.2144 58.041 26.2144 58.4302 26.3574C58.8447 26.4629 59.2516 26.1916 59.6736 26.3574C60.0956 26.3574 60.5251 26.3121 60.9547 26.3574C61.3804 26.4815 61.8326 26.4815 62.2583 26.3574C62.7026 26.2857 63.1555 26.2857 63.5997 26.3574C64.0418 26.2064 64.5216 26.2064 64.9637 26.3574C65.4276 26.395 65.8939 26.395 66.3578 26.3574H66.7045H66.8853H67.0285C67.0285 26.3574 67.0285 26.3574 67.1265 26.3574C67.1469 26.3484 67.1643 26.3336 67.1763 26.3149C67.1884 26.2961 67.1947 26.2742 67.1943 26.2518V26.1162C67.1982 26.0585 67.1982 26.0006 67.1943 25.9429C67.1852 25.8232 67.165 25.7046 67.134 25.5887C67.0963 25.1273 67.0963 24.6635 67.134 24.2021C67.3224 23.7349 67.0737 23.2827 67.134 22.8306C67.1716 22.3868 67.1716 21.9406 67.134 21.4968V21.2481C67.1287 21.2376 67.1259 21.226 67.1259 21.2142C67.1259 21.2024 67.1287 21.1908 67.134 21.1803C66.9908 21.3234 67.134 21.3009 66.8401 21.2556C66.636 21.1888 66.4218 21.1582 66.2071 21.1652C65.7937 21.1238 65.3771 21.1238 64.9637 21.1652C64.5568 21.218 64.1574 21.0371 63.758 21.1652C63.3723 21.2068 62.9832 21.2068 62.5975 21.1652C62.2131 21.3084 61.8439 21.0446 61.4746 21.1652C61.1054 21.2858 60.7211 21.1652 60.3895 21.1652C60.0353 20.9467 59.6962 21.1275 59.3571 21.1652C59.018 21.2029 58.694 21.2933 58.3699 21.1652C58.0635 21.1089 57.7494 21.1089 57.443 21.1652C57.1416 21.1652 56.8477 20.8336 56.5613 21.1652C56.275 21.218 56.0037 20.9391 55.7399 21.1652C55.4762 21.3913 55.22 21.1652 54.9863 21.1652H54.278C52.2659 21.0672 51.113 20.9542 51.113 20.8336C51.113 20.7131 52.5372 20.5774 54.9863 20.4719C55.2275 20.4719 55.4837 20.3061 55.7399 20.4719C56.0118 20.4264 56.2894 20.4264 56.5613 20.4719C56.8477 20.2684 57.1416 20.4342 57.443 20.4719C57.7511 20.5055 58.0619 20.5055 58.3699 20.4719C58.694 20.3513 59.0255 20.5322 59.3571 20.4719C59.6905 20.5934 60.0561 20.5934 60.3895 20.4719C60.7487 20.532 61.1154 20.532 61.4746 20.4719C61.8373 20.6038 62.2348 20.6038 62.5975 20.4719C62.9743 20.3965 63.351 20.4719 63.758 20.4719C64.1649 20.4719 64.5568 20.4267 64.9637 20.4719C65.3724 20.3739 65.7984 20.3739 66.2071 20.4719C66.4178 20.4569 66.6294 20.4569 66.8401 20.4719H67.2621H67.8574C68.0609 20.4719 68.2644 20.4719 68.4603 20.4342C68.4603 20.7432 68.4603 21.0672 68.4603 21.3762C68.4603 21.5344 68.4603 21.6852 68.4603 21.8434C68.4603 22.0017 68.4603 22.0092 68.4603 22.0996C68.498 22.5367 68.2568 22.9813 68.4603 23.4335C68.4603 23.8856 68.4603 24.3377 68.4603 24.805C68.4189 25.2662 68.4189 25.7303 68.4603 26.1916C68.3912 26.3592 68.3529 26.5379 68.3473 26.7191V26.9225C68.3473 27.3295 68.4151 27.7741 68.4527 28.2639C68.0383 28.2639 67.5711 28.3016 67.1189 28.3016H66.7271H66.3804C65.9132 28.3016 65.446 28.3016 64.9863 28.3016C64.5266 28.3016 64.0745 28.2111 63.6223 28.3016C63.1702 28.392 62.7256 28.2036 62.281 28.3016C61.85 28.3807 61.4082 28.3807 60.9773 28.3016C60.5477 28.3016 60.1182 28.1056 59.6962 28.3016C59.2742 28.3016 58.8673 28.5804 58.4528 28.3016C58.0459 28.3769 57.6465 28.1659 57.2471 28.3016C56.8552 28.0906 56.4935 28.3016 56.0866 28.3016C55.7128 28.2339 55.33 28.2339 54.9562 28.3016C54.5978 28.3355 54.237 28.3355 53.8786 28.3016C53.5244 28.4221 53.1853 28.1433 52.8462 28.3016C52.5071 28.3016 52.183 28.3016 51.859 28.3016C51.859 28.3016 51.8138 28.3016 51.7912 28.3016H51.7008L51.5274 28.3392C51.4098 28.3541 51.2908 28.3541 51.1732 28.3392C50.982 28.3176 50.7929 28.2798 50.6081 28.2262C50.6148 28.1233 50.6148 28.0201 50.6081 27.9172C50.616 27.6802 50.6009 27.443 50.5629 27.2089C50.5591 27.1486 50.5591 27.0882 50.5629 27.028V26.8999C50.5731 26.8203 50.6043 26.7449 50.6533 26.6814C50.4347 26.4026 50.6533 26.1237 50.6533 25.86C50.6533 25.5962 50.5629 25.34 50.6533 25.1064C50.5026 24.8653 50.7362 24.6317 50.6533 24.4056C50.7588 24.1795 50.6533 23.9685 50.691 23.7651C50.6453 23.5769 50.6453 23.3805 50.691 23.1923C50.691 23.0115 50.691 22.8457 50.7286 22.6874C50.8718 20.7582 50.9472 20.2383 51.0301 20.2383Z" fill="#5D270D"/>
<path d="M51.0302 39.6836C51.1056 39.6836 51.1885 40.196 51.2563 41.1304C51.2563 41.2887 51.2563 41.4545 51.2563 41.6353C51.2682 41.8261 51.2682 42.0173 51.2563 42.2081C51.1508 42.4115 51.4522 42.6225 51.2563 42.8486C51.2279 43.0826 51.2406 43.3198 51.294 43.5494C51.294 43.7981 51.2262 44.0468 51.294 44.303C51.3618 44.5592 51.0604 44.838 51.294 45.1244C51.2977 45.1947 51.2977 45.2651 51.294 45.3354V45.4334C51.2975 45.4482 51.2975 45.4637 51.294 45.4786C51.2974 45.5413 51.2974 45.6042 51.294 45.667C51.2692 45.7073 51.249 45.7503 51.2337 45.7951C51.2972 45.8169 51.3661 45.8169 51.4296 45.7951C51.4909 45.7683 51.5538 45.7456 51.618 45.7272C51.7708 45.8053 51.94 45.846 52.1116 45.846C52.2832 45.846 52.4524 45.8053 52.6052 45.7272C52.7501 45.848 52.9328 45.9142 53.1214 45.9142C53.31 45.9142 53.4927 45.848 53.6376 45.7272C53.9952 45.7759 54.3577 45.7759 54.7152 45.7272C55.0887 45.6933 55.4645 45.6933 55.8381 45.7272C56.0223 45.647 56.2211 45.6055 56.4221 45.6055C56.623 45.6055 56.8218 45.647 57.0061 45.7272C57.3953 45.5843 57.8226 45.5843 58.2118 45.7272C58.6187 45.8252 59.0332 45.5615 59.4552 45.7272C59.8772 45.7272 60.2992 45.682 60.7288 45.7272C61.157 45.8516 61.6118 45.8516 62.04 45.7272C62.4839 45.6519 62.9374 45.6519 63.3814 45.7272C63.8229 45.5727 64.3038 45.5727 64.7453 45.7272C65.2093 45.7649 65.6755 45.7649 66.1394 45.7272H66.4861H66.6669H66.8101C66.8101 45.7272 66.8101 45.7272 66.9081 45.7272C66.9081 45.7272 66.9684 45.7272 66.9759 45.6293V45.4861C66.9797 45.4259 66.9797 45.3655 66.9759 45.3052C66.9668 45.188 66.9467 45.072 66.9156 44.9586C66.8779 44.4947 66.8779 44.0284 66.9156 43.5645C67.104 43.1048 66.8553 42.6527 66.9156 42.2005C66.9533 41.7542 66.9533 41.3055 66.9156 40.8592V40.6105C66.9156 40.6105 66.9156 40.6105 66.9156 40.5426C66.9156 40.4748 66.9156 40.5426 66.9156 40.505C66.8799 40.536 66.8516 40.5746 66.8327 40.618H66.9081H66.7498C66.5457 40.5511 66.3315 40.5205 66.1168 40.5276C65.7034 40.4862 65.2869 40.4862 64.8734 40.5276C64.4665 40.5803 64.0596 40.3995 63.6677 40.5276C63.2795 40.5691 62.8879 40.5691 62.4997 40.5276C62.1153 40.6708 61.7461 40.407 61.3768 40.5276C61.0076 40.6482 60.6233 40.5276 60.2992 40.5276C59.9451 40.3091 59.5984 40.5276 59.2593 40.5276C58.9202 40.5276 58.5961 40.6557 58.2796 40.5276C57.9704 40.4752 57.6545 40.4752 57.3452 40.5276C57.0438 40.5276 56.7499 40.2036 56.4635 40.5276C56.1847 40.5803 55.9059 40.3015 55.6421 40.5276C55.3784 40.7537 55.1221 40.5276 54.8885 40.5276H54.1802C52.1681 40.4296 51.0152 40.3166 51.0152 40.196C51.0152 40.0754 52.4394 39.9398 54.8885 39.8343C55.1297 39.8343 55.3859 39.6685 55.6421 39.8343C55.914 39.7889 56.1916 39.7889 56.4635 39.8343C56.7499 39.6233 57.0438 39.7891 57.3452 39.8343C57.6558 39.8678 57.9691 39.8678 58.2796 39.8343C58.5961 39.7212 58.9277 39.8946 59.2593 39.8343C59.595 39.9577 59.9636 39.9577 60.2992 39.8343C60.6556 39.898 61.0205 39.898 61.3768 39.8343C61.7388 39.9701 62.1377 39.9701 62.4997 39.8343C62.884 39.7589 63.2533 39.8343 63.6677 39.8343C64.0822 39.8343 64.4665 39.7891 64.8734 39.8343C65.2821 39.7363 65.7082 39.7363 66.1168 39.8343C66.3276 39.8193 66.5391 39.8193 66.7498 39.8343H67.1718H67.7672C67.9655 39.8231 68.1642 39.8231 68.3625 39.8343C68.3625 40.1357 68.3625 40.4597 68.3625 40.7762C68.3625 40.927 68.3625 41.0853 68.3625 41.2435C68.3625 41.4018 68.3625 41.4093 68.3625 41.4921C68.4002 41.9368 68.159 42.3814 68.3625 42.8335C68.3625 43.2857 68.3625 43.7378 68.3625 44.1975C68.3211 44.6613 68.3211 45.1278 68.3625 45.5916C68.3125 45.7016 68.2795 45.8184 68.2645 45.9383C68.2608 45.9985 68.2608 46.0589 68.2645 46.1191V46.3226C68.2645 46.7295 68.3323 47.1741 68.37 47.6639C67.9556 47.6639 67.4883 47.6639 67.0362 47.6639H66.6443H66.2977C65.8305 47.6639 65.3633 47.6639 64.9036 47.6639C64.4439 47.6639 63.9917 47.5735 63.5396 47.6639C63.0875 47.7544 62.6428 47.566 62.1982 47.6639C61.7651 47.7468 61.3202 47.7468 60.887 47.6639C60.4575 47.6639 60.0355 47.4755 59.6135 47.6639C59.1915 47.7016 58.777 47.9352 58.3701 47.6639C57.9631 47.7318 57.5637 47.5208 57.1644 47.6639C56.7725 47.4529 56.4108 47.6639 55.9963 47.6639C55.6251 47.5962 55.2447 47.5962 54.8735 47.6639C54.5149 47.6943 54.1544 47.6943 53.7959 47.6639C53.4417 47.7845 53.095 47.5057 52.7635 47.6639C52.4244 47.6639 52.0928 47.6639 51.7763 47.6639C51.6705 47.7192 51.5556 47.7549 51.4372 47.7695C51.3221 47.7844 51.2056 47.7844 51.0905 47.7695C50.8997 47.7449 50.7109 47.7071 50.5254 47.6564C50.5321 47.551 50.5321 47.4453 50.5254 47.3399C50.5706 46.8802 50.337 46.315 50.5254 46.1116C50.3068 45.8252 50.5254 45.554 50.5254 45.2902C50.5254 45.0265 50.4349 44.7702 50.5254 44.5366C50.3746 44.2955 50.6082 44.0618 50.5254 43.8358C50.6309 43.6097 50.5253 43.3987 50.563 43.1952C50.5173 43.0071 50.5173 42.8107 50.563 42.6225C50.563 42.4417 50.563 42.2759 50.6007 42.1176C50.872 40.196 50.9473 39.6836 51.0302 39.6836Z" fill="#5D270D"/>
<path d="M12.3266 59.5913C12.402 59.5913 12.4773 59.8626 12.5527 60.3449C12.5527 60.4277 12.5527 60.5106 12.5527 60.601C12.5674 60.6985 12.5674 60.7975 12.5527 60.8949C12.4472 61.0004 12.7486 61.1135 12.5527 61.2265C12.5162 61.3443 12.5162 61.4705 12.5527 61.5883C12.5527 61.7164 12.4924 61.8445 12.5527 61.9801C12.7637 62.1157 12.3266 62.2589 12.5527 62.4096C12.5907 62.558 12.5907 62.7134 12.5527 62.8618C12.3944 63.0125 12.5527 63.1783 12.5527 63.3441C12.3643 63.5023 12.4472 63.6757 12.5527 63.849L12.4698 63.9093C12.4577 63.9194 12.4481 63.9321 12.4416 63.9464C12.4351 63.9608 12.4318 63.9764 12.4321 63.9921C12.4321 64.0373 12.515 64.0751 12.6356 64.0299C12.7562 63.9846 12.6356 64.1203 12.6356 64.1655C12.6356 64.2107 12.6959 64.1655 12.7562 64.1127L12.8466 64.0751H12.9747C13.0538 63.9964 13.1608 63.9522 13.2724 63.9522C13.3839 63.9522 13.491 63.9964 13.57 64.0751C13.7735 63.8867 13.9845 63.962 14.1955 64.0751C14.4065 64.1881 14.6175 63.9093 14.836 64.0751C15.0544 64.0637 15.2733 64.0637 15.4916 64.0751C15.7177 64.1504 15.9363 64.2409 16.1699 64.0751C16.3923 63.9998 16.6332 63.9998 16.8556 64.0751C17.0892 63.8791 17.3228 63.962 17.564 64.0751C17.6813 64.0567 17.8008 64.0567 17.9182 64.0751C17.9782 64.0823 18.039 64.0823 18.099 64.0751H18.1895H18.2347C18.2347 64.0751 18.2723 64.0751 18.2799 64.0751C18.2874 64.0751 18.2799 64.0751 18.3402 64.0751C18.3402 64.0751 18.4005 64.0751 18.408 64.0751C18.4155 64.0751 18.408 64.0072 18.3402 63.9921C18.3369 63.9772 18.3369 63.9618 18.3402 63.9469C18.3365 63.9169 18.3365 63.8865 18.3402 63.8565C18.3329 63.7964 18.3329 63.7357 18.3402 63.6756C18.3622 63.5586 18.3622 63.4385 18.3402 63.3215C18.521 63.0803 18.2799 62.8467 18.3402 62.6131C18.4004 62.3795 18.4457 62.1534 18.3402 61.9273C18.28 61.7053 18.28 61.4712 18.3402 61.2492C18.0538 61.0306 18.4155 60.8121 18.3402 60.5935C18.3689 60.5457 18.3845 60.4911 18.3854 60.4353C18.3854 60.4353 18.3402 60.4353 18.3854 60.375C18.4306 60.3147 18.3854 60.3298 18.3854 60.2846C18.3854 60.2393 18.3854 60.2318 18.2949 60.2846C18.2045 60.3373 18.2422 60.2846 18.2196 60.2846H18.1593C18.1097 60.2764 18.0615 60.2612 18.0161 60.2393C17.8202 60.3825 17.6243 60.1188 17.4359 60.2393C17.2503 60.2545 17.0638 60.2545 16.8782 60.2393C16.6974 60.0208 16.5165 60.2393 16.3432 60.2393C16.1699 60.2393 16.0041 60.3674 15.8383 60.2393C15.6725 60.2393 15.5143 60.1188 15.356 60.2393C15.1978 60.3599 15.0546 59.9153 14.9039 60.2393C14.7607 60.2921 14.6175 60.0133 14.4819 60.2393C14.3462 60.4654 14.2106 60.2393 14.09 60.2393H13.7283C12.6883 60.1414 12.093 60.0283 12.093 59.9078C12.093 59.7872 12.8466 59.6516 14.09 59.5461C14.2106 59.5461 14.3462 59.3803 14.4819 59.5461C14.6175 59.5461 14.7607 59.433 14.9039 59.5461C15.0546 59.3351 15.2053 59.5008 15.356 59.5461C15.5067 59.5913 15.6725 59.5988 15.8383 59.5461C16.0041 59.4933 16.1699 59.6063 16.3432 59.5461C16.4203 59.6041 16.5142 59.6356 16.6107 59.6356C16.7072 59.6356 16.8011 59.6041 16.8782 59.5461C17.0591 59.6666 17.2475 59.5461 17.4359 59.5461C17.6243 59.742 17.8202 59.6063 18.0161 59.5461C18.0633 59.5354 18.1122 59.5354 18.1593 59.5461H18.6793C18.8596 59.5649 19.0415 59.5649 19.2219 59.5461C19.4224 59.5648 19.6242 59.5648 19.8247 59.5461C19.8362 59.7192 19.8362 59.8929 19.8247 60.066C19.874 60.248 19.9019 60.4352 19.9076 60.6237V60.9176C19.8969 60.9724 19.8792 61.0255 19.8549 61.0758C19.885 61.2933 19.885 61.5139 19.8549 61.7314C19.8812 61.9567 19.8812 62.1843 19.8549 62.4096C19.8925 62.6357 19.6514 62.8694 19.8549 63.0954C19.8549 63.329 19.8172 63.5626 19.8549 63.8037C19.8549 63.9168 19.8549 64.0374 19.8549 64.1579C19.8511 64.2182 19.8511 64.2786 19.8549 64.3388C19.8512 64.3688 19.8512 64.3992 19.8549 64.4292V64.5347C19.758 64.7307 19.7213 64.951 19.7494 65.1678C19.7494 65.3788 19.8172 65.635 19.8549 65.9213C19.6325 65.9498 19.4084 65.9623 19.1842 65.959L18.4833 65.9213H18.1066H17.7524C17.5112 65.9816 17.2776 65.8309 17.044 65.9213C16.8104 66.0118 16.5843 65.8234 16.3583 65.9213C16.1392 66.0008 15.8991 66.0008 15.68 65.9213C15.4615 65.9213 15.2354 65.7254 15.0244 65.9213C14.8059 65.9213 14.5949 66.1926 14.3839 65.9213C14.1729 65.9967 13.9619 65.7857 13.7584 65.9213C13.555 65.7103 13.359 65.9213 13.1631 65.9213H13.0802H12.9596H12.7185C12.5489 65.8921 12.3756 65.8921 12.2061 65.9213C12.0618 65.9502 11.9132 65.9502 11.769 65.9213C11.7973 65.7267 11.8125 65.5302 11.8142 65.3335C11.7619 65.1848 11.7619 65.0226 11.8142 64.8739C11.8329 64.7996 11.8455 64.724 11.8519 64.6478C11.855 64.6303 11.855 64.6125 11.8519 64.595V64.5347C11.8403 64.3666 11.8403 64.1979 11.8519 64.0299C11.5655 63.8641 11.8519 63.6983 11.8519 63.5476C11.8519 63.3968 11.6635 63.2386 11.8519 63.0954C11.6333 62.9447 11.8519 62.8015 11.8519 62.6659C11.8519 62.5302 11.7615 62.4021 11.8519 62.274C11.7012 62.1459 11.9348 62.0253 11.8519 61.9123C11.9574 61.7993 11.8519 61.6862 11.8519 61.5807C11.8375 61.5318 11.8335 61.4804 11.8399 61.4298C11.8464 61.3792 11.8633 61.3306 11.8895 61.2868C11.8895 61.1964 11.8895 61.1135 11.8895 61.0306C12.1684 59.8625 12.2437 59.5913 12.3266 59.5913Z" fill="#5D270D"/>
<path d="M47.0288 59.5913C47.1041 59.5913 47.187 59.8626 47.2549 60.3449C47.2549 60.4277 47.2549 60.5106 47.2925 60.601C47.3037 60.6987 47.3037 60.7973 47.2925 60.8949C47.187 61.0004 47.4885 61.1135 47.2925 61.2265C47.2643 61.3479 47.2776 61.4753 47.3302 61.5883C47.3302 61.7164 47.2624 61.8445 47.3302 61.9801C47.398 62.1157 47.0966 62.2589 47.3302 62.4096C47.3682 62.558 47.3682 62.7134 47.3302 62.8618C47.172 63.0125 47.3302 63.1783 47.3302 63.3441C47.1418 63.5023 47.2172 63.6757 47.3302 63.849L47.2473 63.9168C47.2387 63.9438 47.2387 63.9727 47.2473 63.9997C47.2473 64.0524 47.3302 64.0826 47.4508 64.0374C47.4508 64.0374 47.4508 64.1278 47.4508 64.173C47.4508 64.2182 47.5186 64.173 47.5714 64.1203L47.6618 64.0826H47.7899C47.8712 64.0052 47.9791 63.962 48.0913 63.962C48.2036 63.962 48.3115 64.0052 48.3928 64.0826C48.5962 63.8942 48.7997 63.9696 49.0107 64.0826C49.2217 64.1956 49.4402 63.9168 49.6512 64.0826C49.8721 64.0712 50.0935 64.0712 50.3144 64.0826C50.4155 64.1438 50.5315 64.1761 50.6497 64.1761C50.7679 64.1761 50.8839 64.1438 50.9851 64.0826C51.21 64.0073 51.4534 64.0073 51.6784 64.0826C51.7806 64.0096 51.9031 63.9703 52.0288 63.9703C52.1544 63.9703 52.2769 64.0096 52.3792 64.0826C52.4965 64.064 52.616 64.064 52.7334 64.0826C52.7934 64.0899 52.8541 64.0899 52.9142 64.0826H53.0046H53.0498H53.0875C53.0875 64.0826 53.0875 64.0826 53.1554 64.0826C53.1554 64.0826 53.2156 64.0826 53.2232 64.0826C53.2235 64.063 53.2169 64.0439 53.2045 64.0287C53.192 64.0135 53.1746 64.0032 53.1554 63.9997C53.1554 63.9997 53.1554 63.9997 53.1554 63.9545C53.1517 63.9244 53.1517 63.8941 53.1554 63.864C53.1516 63.8038 53.1516 63.7434 53.1554 63.6832C53.1811 63.5665 53.1811 63.4457 53.1554 63.329C53.3438 63.0879 53.0951 62.8543 53.1554 62.6207C53.2156 62.3871 53.2609 62.161 53.1554 61.9349C53.0989 61.7123 53.0989 61.4792 53.1554 61.2567C52.869 61.0382 53.2232 60.8196 53.1554 60.601C53.1841 60.55 53.202 60.4936 53.2081 60.4353C53.2081 60.4353 53.1704 60.4353 53.2081 60.375C53.2458 60.3147 53.2081 60.3298 53.2081 60.2846C53.2081 60.2393 53.2081 60.2318 53.1252 60.2846C53.0423 60.3373 53.0649 60.2846 53.0498 60.2846H52.9896C52.9375 60.2765 52.8868 60.2613 52.8388 60.2393C52.6429 60.3825 52.447 60.1188 52.2586 60.2393C52.073 60.2545 51.8865 60.2545 51.701 60.2393C51.5201 60.0208 51.3468 60.2393 51.1735 60.2393C51.0001 60.2393 50.8268 60.3674 50.661 60.2393C50.4952 60.2393 50.337 60.1188 50.1787 60.2393C50.0205 60.3599 49.8773 59.9153 49.7266 60.2393C49.5834 60.2921 49.4402 60.0133 49.3046 60.2393C49.169 60.4654 49.0408 60.2393 48.9127 60.2393H48.551C47.5111 60.1414 46.9158 60.0283 46.9158 59.9078C46.9158 59.7872 47.6693 59.6516 48.9127 59.5461C49.0408 59.5461 49.169 59.3803 49.3046 59.5461C49.4402 59.5461 49.5834 59.433 49.7266 59.5461C49.8773 59.3351 50.028 59.5008 50.1787 59.5461C50.3294 59.5913 50.4952 59.5988 50.661 59.5461C50.8268 59.4933 51.0001 59.6063 51.1735 59.5461C51.2489 59.6047 51.3417 59.6366 51.4372 59.6366C51.5327 59.6366 51.6256 59.6047 51.701 59.5461C51.8818 59.6666 52.0702 59.5461 52.2586 59.5461C52.447 59.742 52.6429 59.6063 52.8388 59.5461C52.8885 59.5355 52.9399 59.5355 52.9896 59.5461H53.3438C53.5216 59.5649 53.7009 59.5649 53.8788 59.5461C54.0793 59.5648 54.2811 59.5648 54.4817 59.5461C54.497 59.719 54.497 59.893 54.4817 60.066C54.531 60.248 54.5588 60.4352 54.5645 60.6237V60.91C54.5524 60.9679 54.5321 61.0237 54.5043 61.0758C54.5344 61.2933 54.5344 61.5139 54.5043 61.7314C54.5306 61.9567 54.5306 62.1843 54.5043 62.4096C54.5419 62.6357 54.3008 62.8694 54.5043 63.0954C54.5043 63.329 54.5043 63.5626 54.5043 63.8037C54.4965 63.9217 54.4965 64.04 54.5043 64.1579C54.5005 64.2182 54.5005 64.2786 54.5043 64.3388C54.5006 64.3688 54.5006 64.3992 54.5043 64.4292V64.5347C54.4089 64.7313 54.3698 64.9504 54.3912 65.1678C54.3912 65.3788 54.4591 65.635 54.5043 65.9213C54.2794 65.95 54.0527 65.9626 53.8261 65.959L53.1328 65.9213H52.7484H52.3942C52.1606 65.9816 51.9195 65.8309 51.6934 65.9213C51.4673 66.0118 51.2262 65.8234 51.0001 65.9213C50.7835 66.0002 50.546 66.0002 50.3295 65.9213C50.1034 65.9213 49.8848 65.7254 49.6663 65.9213C49.4553 65.9213 49.2368 66.1926 49.0258 65.9213C48.8148 65.9967 48.6113 65.7857 48.4078 65.9213C48.2044 65.7103 48.0009 65.9213 47.805 65.9213H47.7296H47.6015C47.5186 65.9213 47.4433 65.9213 47.3604 65.9213C47.1908 65.8921 47.0175 65.8921 46.8479 65.9213C46.7037 65.9504 46.5551 65.9504 46.4108 65.9213C46.4392 65.7267 46.4543 65.5302 46.4561 65.3335C46.4082 65.184 46.4082 65.0233 46.4561 64.8739C46.4561 64.791 46.4938 64.7156 46.5013 64.6478V64.5649C46.5041 64.5423 46.5041 64.5196 46.5013 64.4971C46.4897 64.329 46.4897 64.1602 46.5013 63.9921C46.2149 63.8263 46.5013 63.6606 46.5013 63.5099C46.5013 63.3592 46.3054 63.2009 46.5013 63.0577C46.2903 62.907 46.5013 62.7638 46.5013 62.6282C46.5013 62.4925 46.4109 62.3644 46.5013 62.2363C46.3506 62.1082 46.5842 61.9952 46.5013 61.8746C46.6068 61.7616 46.5013 61.6485 46.539 61.543C46.5169 61.4972 46.5055 61.447 46.5055 61.3961C46.5055 61.3452 46.5169 61.295 46.539 61.2492C46.539 61.1587 46.539 61.0758 46.5766 60.9929C46.8705 59.8626 46.9459 59.5913 47.0288 59.5913Z" fill="#5D270D"/>
<path d="M58.3544 64.6864C57.8359 64.8625 57.2888 64.9392 56.7418 64.9125H56.1766C55.9659 64.9284 55.7543 64.9284 55.5436 64.9125C55.3175 64.807 55.0839 65.1009 54.8352 64.9125C54.5855 64.8747 54.3314 64.8747 54.0817 64.9125C53.8011 64.8828 53.5182 64.8828 53.2376 64.9125C52.9437 65.116 52.6423 64.6864 52.3258 64.9125C52 64.9429 51.672 64.9429 51.3462 64.9125C51.0146 64.7543 50.668 64.9125 50.3138 64.9125C50.1422 64.8344 49.9559 64.794 49.7674 64.794C49.5789 64.794 49.3926 64.8344 49.2211 64.9125C49.0532 64.7917 48.8515 64.7267 48.6446 64.7267C48.4377 64.7267 48.2361 64.7917 48.0681 64.9125C47.6705 64.86 47.2676 64.86 46.8699 64.9125C46.456 64.9428 46.0405 64.9428 45.6265 64.9125C45.2097 65.0748 44.7472 65.0748 44.3304 64.9125C43.8947 65.0557 43.4247 65.0557 42.989 64.9125C42.5369 64.807 42.0772 65.0783 41.61 64.9125C41.1428 64.9125 40.668 64.9577 40.1932 64.9125C39.7164 64.7884 39.2157 64.7884 38.7388 64.9125C38.2395 64.9903 37.7311 64.9903 37.2317 64.9125C36.741 65.0655 36.2153 65.0655 35.7245 64.9125C35.2103 64.8748 34.694 64.8748 34.1797 64.9125C33.6551 64.9389 33.1294 64.9389 32.6048 64.9125C32.0859 64.8258 31.5562 64.8258 31.0373 64.9125C30.5232 64.9539 30.0066 64.9539 29.4925 64.9125C28.9876 64.7241 28.4752 64.9728 27.9853 64.9125C27.4837 64.8738 26.9798 64.8738 26.4782 64.9125C25.9953 64.9728 25.5067 64.9728 25.0238 64.9125C24.5415 65.1989 24.0743 64.8372 23.6071 64.9125C23.1483 64.8712 22.6867 64.8712 22.228 64.9125C21.7814 64.8825 21.3333 64.8825 20.8866 64.9125C20.4556 64.9539 20.0215 64.9539 19.5905 64.9125C19.1685 65.0557 18.754 64.7919 18.3471 64.9125C17.9402 65.0331 17.5408 64.9125 17.1489 64.9125C16.757 64.694 16.3953 64.8748 15.9959 64.9125C15.5965 64.9502 15.2423 65.0406 14.9032 64.9125C14.5611 64.8601 14.213 64.8601 13.8708 64.9125C13.5317 64.9125 13.2077 64.5809 12.8912 64.9125C12.5822 64.9653 12.2733 64.6864 11.9794 64.9125C11.6855 65.1386 11.4066 64.9125 11.1354 64.9125H10.3818C8.12106 64.8145 6.87012 64.7015 6.87012 64.5809C6.87012 64.4604 8.4451 64.3247 11.1655 64.2192C11.4368 64.2192 11.7156 64.0534 12.0095 64.2192C12.3118 64.1739 12.6191 64.1739 12.9213 64.2192C13.2378 64.0082 13.5619 64.1816 13.901 64.2192C14.2441 64.2565 14.5903 64.2565 14.9334 64.2192C15.2876 64.0987 15.687 64.2795 16.0261 64.2192C16.4004 64.3434 16.8048 64.3434 17.1791 64.2192C17.5759 64.2831 17.9804 64.2831 18.3772 64.2192C18.7812 64.351 19.2166 64.351 19.6206 64.2192C20.0502 64.1439 20.4797 64.2192 20.9168 64.2192C21.3539 64.2192 21.806 64.174 22.2581 64.2192C22.7126 64.1212 23.1827 64.1212 23.6372 64.2192C24.1089 64.189 24.5821 64.189 25.0539 64.2192C25.5383 64.1928 26.0239 64.1928 26.5083 64.2192C26.9982 64.2192 27.4955 64.4227 28.0155 64.2192C28.5128 64.2192 29.0253 64.2569 29.5226 64.2192C30.0366 64.2644 30.5535 64.2644 31.0675 64.2192C31.5808 64.3575 32.1215 64.3575 32.6349 64.2192C33.1589 64.174 33.6858 64.174 34.2099 64.2192C34.7298 64.2192 35.2423 64.2192 35.7547 64.2192C36.2671 64.2192 36.7645 64.3097 37.2618 64.2192C37.7592 64.1288 38.2566 64.3172 38.769 64.2192C39.2502 64.1363 39.7421 64.1363 40.2234 64.2192C40.6914 64.3088 41.1721 64.3088 41.6401 64.2192C42.1073 64.1816 42.567 63.9479 43.0192 64.2192C43.4713 64.1439 43.9234 64.3624 44.3605 64.2192C44.7976 64.4302 45.2271 64.2192 45.6567 64.2192C46.0687 64.2832 46.4881 64.2832 46.9001 64.2192C47.2989 64.1889 47.6995 64.1889 48.0983 64.2192C48.4901 64.0987 48.8518 64.3775 49.2512 64.2192C49.6205 64.2192 50.0048 64.2192 50.3439 64.2192C50.6981 63.9329 51.0448 64.2192 51.3763 64.2192C51.7079 64.2192 52.0395 64.0308 52.356 64.2192C52.6725 64.0007 52.9739 64.2192 53.2678 64.2192C53.5617 64.2192 53.8405 64.1288 54.1118 64.2192C54.3831 64.0685 54.6468 64.3097 54.8654 64.2569C55.114 64.3549 55.3477 64.2569 55.5737 64.2569C55.7824 64.2121 55.9981 64.2121 56.2067 64.2569L56.7719 64.2946C57.3187 64.3291 57.8548 64.4618 58.3544 64.6864Z" fill="#5D270D"/>
</g>
<defs>
<clipPath id="clip0_1570_6772">
<rect width="64.8" height="59.1482" fill="white" transform="translate(3.6001 6.29688)"/>
</clipPath>
</defs>
</svg>
