<svg width="72" height="72" viewBox="0 0 72 72" fill="none" xmlns="http://www.w3.org/2000/svg">
<path d="M4.01926 37.5941C4.11023 38.0292 4.15061 38.4733 4.13959 38.9177C4.13959 39.7825 4.21479 41.061 4.2524 42.723C4.2524 43.2719 4.2524 43.866 4.2524 44.5053C4.2524 45.1445 4.29752 45.8138 4.2524 46.5208C4.20727 47.2277 4.45544 47.9872 4.2524 48.7768C4.20779 49.6035 4.20779 50.4319 4.2524 51.2585C4.2686 51.6788 4.30624 52.098 4.3652 52.5144C4.41944 52.9502 4.54389 53.3743 4.73369 53.7703C4.95925 54.1632 5.14805 54.576 5.29772 55.0036C5.46034 55.4508 5.74735 55.8422 6.12495 56.1317C6.78075 56.853 7.54128 57.4715 8.38104 57.9666C8.79765 58.2765 9.27391 58.4967 9.77982 58.6134C10.2901 58.7404 10.8114 58.8184 11.3365 58.8465C11.4676 58.882 11.6007 58.9097 11.7351 58.9293L12.1412 58.9819C12.427 58.9819 12.7203 58.9819 13.006 58.9819C13.5851 58.9819 14.1717 58.9142 14.7658 58.8465C15.9677 59.1058 17.2112 59.1058 18.4131 58.8465C19.6615 58.8465 20.9324 58.9443 22.2259 58.8465C23.5194 58.7487 24.8505 58.7788 26.1966 58.8465C27.5651 58.6772 28.9493 58.6772 30.3178 58.8465C31.7328 58.6997 33.1592 58.6997 34.5743 58.8465C36.0106 58.9593 37.4771 58.6811 38.9586 58.8465C40.4627 58.8465 41.9667 58.8014 43.4708 58.8465C45.0098 58.9743 46.5567 58.9743 48.0958 58.8465C49.6525 58.8014 51.2317 58.7337 52.8185 58.8465C54.4242 58.6923 56.0409 58.6923 57.6465 58.8465C58.0451 58.8465 58.4587 58.8465 58.8648 58.8465H59.7447H60.0305C60.7889 58.8017 61.5306 58.6048 62.2114 58.2675C62.5656 58.1305 62.9056 57.9592 63.2266 57.7561C63.5495 57.5518 63.8562 57.323 64.1441 57.0717C64.7046 56.5577 65.2088 55.9854 65.6481 55.3646C65.8727 55.0517 66.069 54.7196 66.2347 54.372C66.4024 54.0257 66.5407 53.6659 66.6483 53.2965C66.7536 52.9257 66.8216 52.5453 66.8514 52.161C66.8514 52.0707 66.8514 51.973 66.8514 51.8752C66.8514 51.7774 66.8514 51.6872 66.8514 51.5894V51.3037V50.9953C66.716 49.3408 66.904 47.709 66.8514 46.0846C67.0394 44.4602 66.7837 42.8508 66.8514 41.264C66.8514 40.6699 66.8514 40.0834 66.8514 39.4968V38.6244V38.1807H66.7687H66.4679C64.9112 38.1807 63.3695 38.2559 61.8429 38.1807C60.3388 38.474 58.8348 38.098 57.3307 38.1807C55.8266 38.0529 54.3827 38.1807 52.9464 38.1807C51.51 38.1807 50.0811 38.0454 48.6899 38.1807C47.2911 38.1807 45.9149 38.271 44.5687 38.1807C43.2226 38.3311 41.899 38.0604 40.598 38.1807C39.297 38.301 38.0336 38.1807 36.7852 38.1807C35.5726 38.0568 34.3505 38.0568 33.1379 38.1807C31.9807 38.2486 30.8206 38.2486 29.6635 38.1807C28.5663 38.1246 27.4669 38.1246 26.3696 38.1807C25.3017 38.1807 24.2714 37.8423 23.2637 38.1807C22.2635 38.2409 21.2934 37.9476 20.3609 38.1807C19.4664 38.2827 18.5631 38.2827 17.6686 38.1807H15.1869C11.6298 38.1281 8.83978 38.0755 6.91458 38.0153C5.93623 38.0317 4.95809 37.9714 3.98918 37.8348C4.29078 37.755 4.60238 37.7196 4.91418 37.7295C5.5158 37.7295 6.41824 37.6694 7.58389 37.6317C9.92271 37.5716 13.3369 37.5114 17.6536 37.4588C18.5494 37.3832 19.45 37.3832 20.3458 37.4588C21.3128 37.4096 22.2817 37.4096 23.2487 37.4588C24.2807 37.3419 25.3226 37.3419 26.3546 37.4588C27.4225 37.4588 28.5204 37.5189 29.6485 37.4588C30.7765 37.3986 31.9046 37.5264 33.1228 37.4588C34.3353 37.5865 35.5578 37.5865 36.7702 37.4588C38.0186 37.5866 39.2895 37.4588 40.583 37.4588C41.9029 37.5977 43.2338 37.5977 44.5537 37.4588C45.8998 37.3835 47.2761 37.4588 48.6748 37.4588C50.0736 37.4588 51.4874 37.4136 52.9313 37.4588C54.391 37.3572 55.856 37.3572 57.3156 37.4588C58.8197 37.3986 60.3238 37.4588 61.8278 37.4588C63.3319 37.4588 64.8961 37.4588 66.4528 37.4588H67.2049H68.3179C68.3179 37.9701 68.3179 38.4815 68.3179 38.9628C68.3179 39.2486 68.3179 39.5419 68.3179 39.8352C68.3005 40.4255 68.3282 41.0163 68.4006 41.6024C68.4006 43.1892 68.4006 44.7986 68.4006 46.423C68.4006 48.0474 68.3479 49.6793 68.4006 51.3337L68.363 51.6421V51.973C68.363 52.0858 68.363 52.1986 68.3179 52.3039C68.2727 52.4092 68.3179 52.5294 68.2727 52.6347C68.2107 53.0751 68.1254 53.5119 68.0171 53.9433C67.9079 54.3773 67.7723 54.8042 67.6109 55.2217C67.446 55.6418 67.2499 56.0491 67.0244 56.44C66.0778 57.9997 64.6421 59.2027 62.9408 59.8618C62.1178 60.213 61.2449 60.4337 60.3539 60.516H60.023H57.8496C56.2252 60.5837 54.6159 60.4258 53.0216 60.516C51.4273 60.6063 49.8555 60.4183 48.2988 60.516C46.7583 60.5988 45.2144 60.5988 43.6738 60.516C42.1712 60.4218 40.6642 60.4218 39.1616 60.516C37.7053 60.6891 36.2336 60.6891 34.7773 60.516C33.3334 60.5912 31.9121 60.3731 30.5208 60.516C29.1493 60.4071 27.7712 60.4071 26.3997 60.516C25.077 60.4484 23.7517 60.4484 22.429 60.516C21.1355 60.6213 19.8645 60.4559 18.6162 60.516C17.3678 60.5762 16.157 60.3506 14.9688 60.516C14.3747 60.516 13.7881 60.516 13.2091 60.516H12.2991H11.8479L11.4042 60.4784C10.8036 60.5493 10.1948 60.4638 9.63693 60.2303C9.11717 60.0008 8.61453 59.7344 8.13287 59.4331C7.65157 59.1398 7.16275 58.8691 6.71905 58.5382C6.27162 58.2274 5.9012 57.8184 5.63613 57.3424C5.11126 56.8431 4.75842 56.1901 4.62841 55.4774C4.4103 55.0214 4.23653 54.5454 4.10951 54.0561C3.97414 53.5823 3.83126 53.1236 3.73349 52.6648C3.62547 52.212 3.59496 51.7441 3.64325 51.2811C3.58637 50.4523 3.58637 49.6206 3.64325 48.7919C3.74853 48.0022 3.64325 47.2502 3.68085 46.5358C3.63138 45.8649 3.63138 45.1912 3.68085 44.5203C3.68085 43.8811 3.68085 43.287 3.68085 42.738C3.71845 41.076 3.75606 39.7976 3.79366 38.9327C3.81272 38.4789 3.88851 38.0292 4.01926 37.5941Z" fill="#5D270D"/>
<path d="M4.01968 37.5977C4.10999 37.9641 4.15047 38.341 4.14001 38.7182C4.14001 39.4703 4.21522 40.5381 4.25282 41.9444V42.6438C4.25282 42.8017 4.25282 42.9672 4.25282 43.1402H4.53106H5.71927C6.32842 43.253 6.96013 42.9371 7.63695 43.1402C8.33574 43.1811 9.03633 43.1811 9.73512 43.1402C10.4872 43.095 11.2392 43.2078 11.9912 43.1025C12.7432 42.9972 13.6081 43.3432 14.4579 43.1025C15.3077 43.0424 16.1875 43.1025 17.09 43.1025C18.0174 43.2001 18.9526 43.2001 19.88 43.1025C20.8554 43.2715 21.8526 43.2715 22.828 43.1025C23.844 43.3655 24.9103 43.3655 25.9263 43.1025C27.0035 43.1588 28.0829 43.1588 29.1601 43.1025C30.258 43.1025 31.4162 43.0348 32.5292 43.1025C33.6859 42.9295 34.8619 42.9295 36.0186 43.1025C37.2171 42.952 38.4298 42.952 39.6283 43.1025C40.8466 43.2078 42.0875 42.9296 43.3509 43.1025C44.6068 43.1025 45.8777 43.0574 47.1712 43.1025C48.4739 43.2341 49.7866 43.2341 51.0893 43.1025C52.4242 43.0235 53.7627 43.0235 55.0976 43.1025C56.4565 42.9407 57.8298 42.9407 59.1886 43.1025C60.5649 43.1025 61.9561 43.2153 63.3549 43.1025C64.0543 43.1025 64.7612 43.1025 65.4681 43.1025C65.814 43.1025 66.1675 43.1025 66.5285 43.1025H66.8368H66.9195V43.0349V42.9973V42.734C66.9195 42.3806 66.9195 42.0271 66.9195 41.6737C66.9195 40.9668 66.9195 40.2674 66.8518 39.5605C66.8518 39.2973 66.8142 39.0416 66.8067 38.8085C66.803 38.7835 66.803 38.7582 66.8067 38.7332H66.7541H66.2201C65.7915 38.7332 65.3553 38.7332 64.9266 38.7332C63.5504 38.5377 62.1892 38.7934 60.8356 38.7332C59.4819 38.6731 58.1508 38.6204 56.8273 38.7332C55.5037 38.846 54.2027 38.8084 52.9092 38.7332C51.6157 39.0265 50.3448 38.6505 49.0813 38.7332C47.8255 38.6054 46.5846 38.7332 45.3663 38.7332C44.148 38.7332 42.9373 38.5979 41.7566 38.7332C40.5684 38.7332 39.4027 38.8235 38.2596 38.7332C37.1165 38.8836 36.0035 38.6129 34.8905 38.7332C33.7775 38.8536 32.7172 38.7332 31.6643 38.7332C30.6353 38.6093 29.595 38.6093 28.566 38.7332C27.5845 38.8011 26.5995 38.8011 25.618 38.7332C24.6888 38.6771 23.7571 38.6771 22.828 38.7332C21.918 38.7332 21.0457 38.3948 20.1959 38.7332C19.3461 38.7934 18.5188 38.5001 17.7292 38.7332C16.9804 38.8325 16.2219 38.8325 15.4731 38.7332H13.3674C10.3593 38.6806 7.98289 38.628 6.36602 38.5678C5.53499 38.5843 4.70422 38.5239 3.88432 38.3873C4.89203 38.234 5.9109 38.166 6.93004 38.1843C8.9154 38.1241 11.8107 38.064 15.4731 38.0113C16.2233 37.9377 16.979 37.9377 17.7292 38.0113C18.5507 37.9621 19.3744 37.9621 20.1959 38.0113C21.0693 37.8944 21.9545 37.8944 22.828 38.0113C23.7304 38.0113 24.6629 38.0715 25.618 38.0113C26.5731 37.9511 27.5582 38.079 28.566 38.0113C29.5948 38.139 30.6355 38.139 31.6643 38.0113C32.7389 38.0713 33.816 38.0713 34.8905 38.0113C36.0093 38.1503 37.1409 38.1503 38.2596 38.0113C39.4027 37.9361 40.5684 38.0113 41.7566 38.0113C42.9448 38.0113 44.1405 37.9662 45.3663 38.0113C46.6026 37.9097 47.8451 37.9097 49.0813 38.0113C50.3448 37.9511 51.6157 38.0113 52.9092 38.0113C54.2027 38.0113 55.5037 38.0113 56.8273 38.0113C58.1618 38.1015 59.501 38.1015 60.8356 38.0113C62.1892 38.0113 63.5504 38.0113 64.9266 38.0113H66.2201H68.1754C68.1754 38.4926 68.1754 38.9739 68.1754 39.4552C68.1754 39.7184 68.1754 39.9741 68.1754 40.2072C68.0704 40.9064 68.0326 41.614 68.0626 42.3204C68.0626 42.6764 68.0776 43.0298 68.1077 43.3808V43.644V44.1178C68.1077 44.4562 68.1077 44.7946 68.1453 45.133H66.3931H65.3327H63.2195C61.8207 45.133 60.4295 45.133 59.0533 45.133C57.6771 45.133 56.3159 45.0428 54.9622 45.133C53.6086 45.2233 52.2775 45.0277 50.9539 45.133C49.6492 45.2158 48.3405 45.2158 47.0358 45.133C45.764 45.0429 44.4874 45.0429 43.2155 45.133C41.9807 45.306 40.7278 45.306 39.493 45.133C38.2672 45.2007 37.0639 44.9826 35.8832 45.133C34.7225 45.0278 33.5546 45.0278 32.3938 45.133C31.2719 45.0617 30.1466 45.0617 29.0247 45.133C27.9267 45.2383 26.8438 45.0729 25.791 45.133C24.7381 45.1932 23.7003 44.9676 22.6926 45.133C21.6849 45.133 20.7072 45.133 19.7446 45.133C18.7896 45.4338 17.857 45.133 16.9546 45.133C16.0796 45.2236 15.1975 45.2236 14.3225 45.133C13.5065 45.2762 12.6718 45.2762 11.8558 45.133C11.1038 45.0653 10.3067 45.2308 9.59975 45.133C8.90042 45.1737 8.19901 45.1611 7.50159 45.0954C6.86301 45.0546 6.22248 45.0546 5.58391 45.0954C5.2831 45.0954 4.98981 45.0954 4.70403 45.0954H4.35058H3.80912H3.73391C3.73391 44.742 3.73391 44.396 3.73391 44.0651C3.73391 43.7343 3.73391 43.5838 3.73391 43.3131C3.77152 41.9068 3.80912 40.8239 3.84672 40.0869C3.63486 39.2602 3.69552 38.3871 4.01968 37.5977Z" fill="#5D270D"/>
<path d="M19.5941 59.3534C19.5941 59.4362 19.3535 59.5189 18.9098 59.5941H18.6766C18.589 59.6212 18.4976 59.634 18.4059 59.6317C18.3081 59.5189 18.2104 59.8347 18.1051 59.6317C17.9998 59.5791 17.887 59.6317 17.7742 59.6317C17.6614 59.6317 17.5335 59.564 17.4132 59.6693C17.2929 59.7746 17.1575 59.4286 17.0222 59.6693C16.8859 59.6995 16.7448 59.6995 16.6086 59.6693C16.4657 59.5038 16.3153 59.6693 16.1649 59.6693C16.0144 59.4738 15.864 59.5565 15.7061 59.6693C15.5482 59.3986 15.3827 59.4362 15.2173 59.6693H15.1271C15.1271 59.6693 15.0594 59.6693 15.0669 59.7219C15.0669 59.7896 15.0669 59.8272 15.0669 59.8422C15.1421 59.9174 15.1947 59.8874 15.1646 60.0152C15.1343 60.114 15.0705 60.1991 14.9842 60.2558C15.127 60.4815 14.9842 60.6469 14.8638 60.8124C14.7435 60.9778 14.9315 61.226 14.736 61.3839C14.6758 61.5719 14.6758 61.7825 14.6006 61.9705C14.5254 62.1585 14.3374 62.3239 14.4577 62.5721C14.4864 62.7858 14.4355 63.0026 14.3149 63.1813C14.4577 63.4445 14.3149 63.625 14.1645 63.813C14.1564 63.8674 14.1413 63.9205 14.1193 63.9709V64.0461V64.0837C14.1193 64.0837 14.0742 64.1288 14.1193 64.1363C14.1193 64.1363 14.1193 64.1364 14.0817 64.1965C14.0817 64.1965 14.0817 64.2567 14.0817 64.2642C14.0817 64.2717 14.1419 64.2642 14.187 64.1965C14.2321 64.1288 14.187 64.1439 14.2321 64.1965C14.3353 64.2352 14.4463 64.2481 14.5555 64.2341C14.7736 64.4221 14.9917 64.1664 15.2023 64.2341C15.4128 64.3018 15.6234 64.3469 15.834 64.2341C16.0351 64.1739 16.2495 64.1739 16.4506 64.2341C16.6537 63.9408 16.8567 64.3093 17.0522 64.2341C17.2478 64.362 17.4508 64.2341 17.6313 64.2341C17.6313 64.2341 17.6313 64.2341 17.7065 64.2341C17.7817 64.2341 17.7892 64.2792 17.7667 64.2341C17.7667 64.2341 17.7667 64.1814 17.7667 64.1589C17.7667 64.1363 17.7667 64.1213 17.8193 64.1213C17.8344 64.0774 17.8573 64.0367 17.887 64.001C17.9472 63.9258 18.0073 63.8506 17.9772 63.7528C18.0134 63.5867 18.0611 63.4234 18.1201 63.264C18.3833 63.1587 18.2405 62.9556 18.263 62.7977C18.2856 62.6398 18.2104 62.4593 18.3984 62.354C18.451 62.2112 18.5864 62.0908 18.5337 61.9329C18.4811 61.775 18.9248 61.7374 18.6616 61.5343C18.6616 61.3914 18.9549 61.3388 18.7819 61.1658C18.609 60.9929 18.8646 60.9327 18.9022 60.8274L19.015 60.5116C19.3384 59.6166 19.5791 59.1128 19.7069 59.1429C19.8348 59.1729 19.8047 59.8949 19.6317 61.0079C19.6317 61.1207 19.7445 61.2786 19.5715 61.3614C19.5715 61.4817 19.6317 61.6396 19.5114 61.7449C19.6844 61.9329 19.5114 62.0231 19.4362 62.1585C19.361 62.2939 19.3083 62.4217 19.361 62.5872C19.4136 62.7526 19.2256 62.8729 19.2707 63.0459C19.1979 63.1001 19.1482 63.1797 19.1315 63.2689C19.1148 63.3581 19.1323 63.4503 19.1805 63.5272C19.015 63.6551 19.1279 63.8581 19.0752 64.0235C19.0298 64.043 18.9912 64.0756 18.9644 64.1171C18.9376 64.1587 18.9238 64.2072 18.9248 64.2567C18.9248 64.3544 18.9248 64.4221 18.9248 64.6177C18.9156 64.7722 18.8827 64.9244 18.827 65.0689C18.7762 65.2131 18.7385 65.3616 18.7142 65.5126H18.6616C18.4942 65.4938 18.3252 65.4938 18.1577 65.5126C17.9851 65.5278 17.8115 65.5278 17.6388 65.5126C17.5478 65.5626 17.4456 65.5888 17.3418 65.5888C17.2379 65.5888 17.1357 65.5626 17.0447 65.5126C16.8453 65.5427 16.6425 65.5427 16.4431 65.5126C16.2401 65.5953 16.037 65.5126 15.8264 65.5126C15.6159 65.5126 15.4053 65.302 15.1947 65.5126C14.9842 65.5126 14.7661 65.5126 14.548 65.5126H14.2171C14.0118 65.4983 13.8057 65.4983 13.6004 65.5126C13.4413 65.4133 13.2522 65.3734 13.0665 65.3998C12.8634 65.3998 12.6077 65.4749 12.3145 65.5201C12.3701 65.1035 12.4735 64.6947 12.6228 64.3018C12.6228 64.1062 12.7055 63.9032 12.7582 63.7002V63.6099V63.5347L12.8033 63.3768C12.8033 63.1512 12.9988 62.9782 12.9687 62.7526C12.9386 62.527 13.1642 62.3691 13.1266 62.1435C13.1107 62.0384 13.1172 61.9311 13.1457 61.8287C13.1742 61.7263 13.2241 61.6311 13.2921 61.5494C13.3372 61.3463 13.5779 61.2034 13.45 60.9628C13.45 60.7597 13.2695 60.5115 13.6079 60.3987C13.6079 60.1957 13.8411 60.0679 13.7659 59.8498C13.8145 59.8304 13.8555 59.7957 13.8827 59.7509C13.9098 59.7061 13.9216 59.6537 13.9163 59.6016C13.9124 59.544 13.9124 59.4862 13.9163 59.4286C13.9057 59.3488 13.9057 59.2678 13.9163 59.188C14.0273 58.9753 14.1059 58.7471 14.1494 58.5112L14.2923 58.4735C14.4377 58.435 14.5906 58.435 14.736 58.4735C14.8833 58.4916 15.0323 58.4916 15.1797 58.4735C15.3451 58.3457 15.5031 58.639 15.6685 58.4735C15.8213 58.4658 15.9744 58.4658 16.1273 58.4735C16.2777 58.1727 16.4281 58.4735 16.5709 58.4735C16.7138 58.4735 16.8492 58.278 16.9846 58.4735C17.1199 58.2479 17.2478 58.4735 17.3756 58.4735C17.5035 58.4735 17.6163 58.3758 17.7366 58.4735C17.8494 58.3156 17.9622 58.5638 18.0675 58.5112C18.1728 58.6165 18.2705 58.5112 18.3683 58.5112C18.4097 58.4881 18.4563 58.476 18.5037 58.476C18.551 58.476 18.5976 58.4881 18.639 58.5112L18.8722 58.5488C19.3911 59.1955 19.5941 59.2406 19.5941 59.3534Z" fill="#5D270D"/>
<path d="M52.1194 59.3679C52.1194 59.2852 52.36 59.2024 52.8037 59.1348H53.0443C53.1315 59.1058 53.2233 59.0931 53.3151 59.0972C53.4053 59.21 53.5106 58.8941 53.6159 59.0972C53.7212 59.1498 53.8265 59.0972 53.9468 59.0972C54.0671 59.0972 54.1799 59.1648 54.3078 59.0972C54.4281 58.8791 54.5635 59.3378 54.6913 59.0972C54.8265 59.0585 54.9698 59.0585 55.1049 59.0972C55.2478 59.2626 55.3982 59.0972 55.5486 59.0972C55.699 59.3002 55.8569 59.21 56.0149 59.0972C56.1728 59.3679 56.3307 59.3228 56.5037 59.0972C56.6413 59.0857 56.7797 59.0857 56.9173 59.0972C57.0722 59.1106 57.2282 59.0927 57.376 59.0445H57.549C57.644 59.2865 57.7096 59.539 57.7445 59.7965C57.8068 59.8515 57.8578 59.9179 57.8949 59.9921C57.8963 60.0121 57.8963 60.0322 57.8949 60.0523V60.1199C57.916 60.2199 57.8999 60.3242 57.8498 60.4132C58.083 60.5486 58.0604 60.7516 58.0078 60.9622C57.9551 61.1728 58.2634 61.3006 58.1657 61.5262C58.2297 61.7159 58.2825 61.9093 58.3236 62.1053C58.3236 62.3234 58.2634 62.549 58.4891 62.7069C58.6156 62.8832 58.6719 63.1004 58.647 63.316C58.9027 63.474 58.8651 63.6996 58.8124 63.9402C58.8194 63.9927 58.8194 64.0457 58.8124 64.0981V64.2185C58.8166 64.2358 58.8166 64.2538 58.8124 64.2711C58.8342 64.4765 58.8955 64.6756 58.9929 64.8577C59.0377 65.065 59.0981 65.2686 59.1734 65.4668C59.2428 65.6555 59.2859 65.853 59.3012 66.0534C59.0531 66.0534 58.8275 65.9857 58.6244 65.9782C58.4363 65.9657 58.2475 65.9887 58.0679 66.0459C57.8649 66.0915 57.6543 66.0915 57.4512 66.0459C57.342 66.0242 57.2296 66.0242 57.1204 66.0459C56.9023 65.8579 56.6917 66.1136 56.4736 66.0459C56.2555 65.9782 56.0525 65.9331 55.8419 66.0459C55.6408 66.1061 55.4264 66.1061 55.2252 66.0459C55.0222 66.3392 54.8267 65.9632 54.6236 66.0459C54.4281 65.9181 54.2401 66.0459 54.037 66.0459C53.8702 66.0729 53.7 66.0729 53.5332 66.0459C53.3677 66.0051 53.1948 66.0051 53.0293 66.0459H52.9691C52.9343 65.9 52.8891 65.7567 52.8338 65.6173C52.7799 65.4706 52.7569 65.3145 52.7661 65.1585C52.7417 65.1261 52.7215 65.0907 52.7059 65.0532V65.0006C52.6985 64.9558 52.6985 64.91 52.7059 64.8652C52.7059 64.7675 52.7059 64.6697 52.7059 64.602C52.6565 64.4374 52.6213 64.2688 52.6007 64.0981C52.7887 63.8876 52.6006 63.7748 52.5104 63.6244C52.4202 63.474 52.3074 63.3536 52.4202 63.1656C52.4202 63.0152 52.4653 62.8498 52.345 62.7295C52.2246 62.6092 52.6006 62.376 52.2698 62.3234C52.187 62.203 52.4427 62.0075 52.2096 61.9398C51.9765 61.8721 52.172 61.6917 52.1494 61.5789L52.1043 61.248C51.9689 60.3079 51.9539 59.7439 52.1043 59.7439C52.2547 59.7439 52.533 60.338 52.909 61.4284C52.9466 61.5412 53.1346 61.6165 53.0293 61.7744C53.0293 61.8947 53.2098 61.985 53.1496 62.1429C53.3978 62.2181 53.2549 62.3986 53.2775 62.5339C53.3 62.6693 53.2775 62.8348 53.4128 62.9551C53.5482 63.0754 53.4128 63.2709 53.5482 63.3988C53.509 63.4814 53.5019 63.5757 53.5283 63.6632C53.5547 63.7508 53.6127 63.8254 53.6911 63.8725C53.6008 64.0605 53.7964 64.1884 53.834 64.3614C53.8071 64.4028 53.7928 64.4511 53.7928 64.5005C53.7928 64.5499 53.8071 64.5982 53.834 64.6396L53.9167 64.7524H53.9844C54.022 64.7524 54.022 64.7524 54.022 64.7976C54.022 64.8427 54.022 64.8577 54.022 64.8577C54.022 64.8577 54.0596 64.8577 54.0897 64.8577C54.1198 64.8577 54.1273 64.8577 54.1423 64.8577C54.232 64.8076 54.3329 64.7814 54.4356 64.7814C54.5383 64.7814 54.6393 64.8076 54.7289 64.8577C54.9283 64.8276 55.1311 64.8276 55.3305 64.8577C55.5336 64.775 55.7366 64.8577 55.9472 64.8577C56.1578 64.8577 56.3608 65.0758 56.5789 64.8577C56.7895 64.8577 57.0075 64.8953 57.2256 64.8577C57.3308 64.8648 57.4363 64.8648 57.5415 64.8577C57.5415 64.8577 57.5866 64.8577 57.5866 64.8201C57.6468 64.9329 57.7069 64.9555 57.722 64.9329C57.737 64.9104 57.722 64.8652 57.6618 64.8201C57.5791 64.7374 57.6167 64.775 57.6618 64.7449V64.5945V64.4366C57.5415 64.241 57.6618 63.9929 57.5039 63.8049C57.346 63.6169 57.5039 63.3762 57.361 63.1957C57.2979 63.1102 57.2528 63.0128 57.2282 62.9095C57.2037 62.8061 57.2002 62.6988 57.2181 62.5941C57.173 62.391 57.3159 62.1504 57.0827 62.0075C56.9925 61.8195 56.7067 61.6917 56.9549 61.436C56.8346 61.263 57.0075 61.0224 56.8346 60.8795C56.8657 60.8369 56.8825 60.7856 56.8825 60.7328C56.8825 60.6801 56.8657 60.6287 56.8346 60.5862C56.8383 60.5663 56.8383 60.5459 56.8346 60.526C56.8346 60.526 56.8872 60.3831 56.8346 60.3756L56.7819 60.4132C56.7293 60.4659 56.7218 60.4132 56.7143 60.4132C56.7067 60.4132 56.6766 60.3531 56.6466 60.3756C56.4886 60.5035 56.3232 60.2102 56.1653 60.3756C56.0101 60.3871 55.8542 60.3871 55.699 60.3756C55.5486 60.6764 55.3982 60.3756 55.2553 60.3756C55.1124 60.3756 54.9771 60.5787 54.8417 60.3756C54.7139 60.6088 54.5785 60.3756 54.4582 60.3756C54.3378 60.3756 54.21 60.4734 54.0972 60.3756C53.9769 60.5336 53.8716 60.2929 53.7663 60.3756C53.661 60.2703 53.5557 60.3756 53.4655 60.3756C53.4211 60.3939 53.3726 60.4001 53.325 60.3935C53.2775 60.3869 53.2325 60.3677 53.1948 60.338H52.9541C52.36 59.5333 52.1194 59.4506 52.1194 59.3679Z" fill="#5D270D"/>
<path d="M4.03433 37.593C3.8566 37.0344 3.7777 36.4491 3.8012 35.8633C3.8012 35.6753 3.8012 35.4723 3.8012 35.2542C3.78538 35.0263 3.78538 34.7977 3.8012 34.5699C3.914 34.3292 3.59815 34.0735 3.8012 33.8178C3.84184 33.5411 3.84184 33.2598 3.8012 32.9831C3.83461 32.6782 3.83461 32.3705 3.8012 32.0656C3.59063 31.7497 4.04185 31.4264 3.8012 31.0804C3.76329 30.7305 3.76329 30.3775 3.8012 30.0276C3.96665 29.6666 3.8012 29.2755 3.8012 28.9146C3.88486 28.729 3.92812 28.5278 3.92812 28.3242C3.92812 28.1207 3.88486 27.9194 3.8012 27.7339C3.92981 27.554 3.99895 27.3384 3.99895 27.1172C3.99895 26.8961 3.92981 26.6804 3.8012 26.5005C3.85736 26.0712 3.85736 25.6364 3.8012 25.2071C3.77095 24.7589 3.77095 24.3091 3.8012 23.8609C3.63202 23.4126 3.63202 22.918 3.8012 22.4697C3.65094 22.0001 3.65094 21.4953 3.8012 21.0258C3.90648 20.537 3.62823 20.0406 3.8012 19.5217C3.8012 19.0179 3.75608 18.5065 3.8012 18.0177C3.84539 17.7689 3.87552 17.5178 3.89144 17.2656C3.90981 16.9881 3.887 16.7093 3.82376 16.4384C3.78102 15.8667 3.86049 15.2924 4.05689 14.7538C4.01917 14.163 4.18945 13.5777 4.53819 13.0994C4.58551 12.9585 4.64075 12.8204 4.70364 12.6857C4.7638 12.5579 4.839 12.4301 4.90668 12.3022C4.97437 12.1744 5.04957 12.039 5.11725 11.9112C5.18493 11.7833 5.23006 11.6404 5.2827 11.4976C5.54507 10.9542 5.87892 10.4484 6.27538 9.9935C6.70336 9.5798 7.10286 9.13759 7.47111 8.66992C7.64228 8.42436 7.8625 8.21695 8.11786 8.06078L8.48635 7.8126C8.60668 7.72987 8.727 7.64717 8.83981 7.55693C8.90975 7.53526 8.97768 7.50754 9.04285 7.47417L8.86237 7.34634C8.99021 7.27114 9.0955 7.18088 9.21582 7.09816L9.56928 6.84249C9.68554 6.76118 9.81195 6.69543 9.94529 6.64696C10.4567 6.36871 11.0207 6.27095 11.517 6.00022C11.7622 5.8932 12.0133 5.8003 12.2691 5.72197C12.5341 5.64901 12.8066 5.60609 13.0813 5.5941C13.1954 5.50837 13.326 5.44696 13.4648 5.41362C13.6023 5.39859 13.7409 5.39859 13.8784 5.41362C14.0144 5.41834 14.15 5.43089 14.2845 5.45121C14.4192 5.46957 14.5559 5.46957 14.6906 5.45121C14.9388 5.49434 15.1914 5.50701 15.4426 5.48885H15.8337H16.2172C16.4717 5.49947 16.7241 5.53983 16.9693 5.60915C17.2117 5.69086 17.4655 5.73399 17.7213 5.73698C17.8422 5.77249 17.9653 5.80011 18.0898 5.8197L18.4508 5.89493C18.6899 5.94295 18.9189 6.03198 19.1276 6.15812C19.368 6.18819 19.5976 6.27593 19.7969 6.41383C19.9876 6.55226 20.198 6.66126 20.4211 6.7372C20.6241 6.84248 20.8272 6.94024 21.0227 7.06057L21.3085 7.23352L21.5867 7.42905C21.6988 7.6231 21.8629 7.78197 22.0605 7.88778C22.2495 7.98497 22.4328 8.09298 22.6095 8.21119C22.7661 8.35012 22.9319 8.47822 23.1058 8.59469C23.2749 8.71301 23.4098 8.87388 23.4969 9.06099C23.7196 9.37942 23.9713 9.67649 24.2489 9.94838C24.3633 10.1006 24.4452 10.2746 24.4896 10.4598C24.5128 10.5512 24.5598 10.6349 24.6258 10.7022C24.6919 10.7696 24.7746 10.8183 24.8656 10.8433C24.9712 10.9867 25.0455 11.1506 25.0837 11.3246C25.1001 11.4085 25.1341 11.4881 25.1833 11.5581C25.2325 11.628 25.2959 11.6869 25.3694 11.7307C25.5104 11.8258 25.6099 11.971 25.6477 12.1368C25.6756 12.2919 25.7133 12.4451 25.7605 12.5955C25.8207 12.7384 25.8658 12.8738 25.9184 13.0092C25.9711 13.1445 26.0162 13.2799 26.0463 13.4152C26.3372 14.3273 26.4893 15.278 26.4975 16.2353C26.4975 16.4008 26.4975 16.5437 26.4975 16.6715C26.4975 16.7994 26.4975 16.9047 26.4975 16.9874C26.4975 17.0701 26.4448 17.243 26.4148 17.243C26.3847 17.243 26.3396 17.1378 26.302 16.9347C26.2644 16.7317 26.2117 16.4309 26.144 16.0473C25.9433 14.958 25.5968 13.9007 25.1137 12.9039C25.0432 12.7756 24.9601 12.6546 24.8656 12.5429C24.7685 12.4228 24.7107 12.2757 24.7001 12.1217C24.6147 11.9911 24.5218 11.8655 24.4219 11.7457C24.3157 11.6246 24.234 11.4842 24.1812 11.3321C23.8278 11.1817 23.7751 10.8132 23.5646 10.5349C23.3531 10.2479 23.0996 9.9944 22.8125 9.78291C22.6491 9.6892 22.506 9.56395 22.3914 9.41442C22.2738 9.2629 22.1283 9.13527 21.9627 9.03841C21.8597 8.87011 21.7211 8.72637 21.5566 8.61727C21.3847 8.50509 21.1972 8.41891 21.0001 8.36156C20.9342 8.28421 20.8584 8.21597 20.7745 8.15855C20.6884 8.10355 20.5978 8.05576 20.5038 8.01566C20.3158 7.93294 20.1127 7.86525 19.9247 7.775C19.8018 7.5746 19.613 7.42309 19.3908 7.34634C19.1821 7.28429 18.9681 7.24151 18.7516 7.21851C18.5368 7.17077 18.3257 7.10795 18.1199 7.0305C18.0146 7.0305 17.9093 6.95529 17.804 6.93273C17.6955 6.90225 17.5849 6.87961 17.4731 6.86503C17.2565 6.80547 17.035 6.76522 16.8113 6.74473C16.5857 6.74473 16.3601 6.7071 16.127 6.67702C16.0118 6.68479 15.8962 6.68479 15.781 6.67702H15.4351C15.1979 6.6765 14.9612 6.65387 14.7282 6.60937C14.2619 6.69961 13.7806 6.69208 13.3069 6.78985C13.0607 6.86754 12.8094 6.92784 12.5548 6.97033C12.3145 7.01696 12.0781 7.08234 11.8479 7.16586C11.601 7.24666 11.35 7.31445 11.0959 7.36892C10.9741 7.40286 10.8558 7.44817 10.7424 7.50428C10.6244 7.5628 10.5215 7.64769 10.4416 7.75242C9.97948 7.97732 9.53895 8.24415 9.12558 8.54957C8.67265 8.80898 8.26602 9.14191 7.92233 9.53473C7.66904 9.64061 7.44844 9.81193 7.2831 10.0311C7.12022 10.2461 6.97677 10.4751 6.85445 10.7154C6.58372 11.1742 6.26034 11.5878 5.98209 12.0315C5.70384 12.4752 5.50831 12.964 5.31278 13.4453C5.31278 13.5731 5.2451 13.6935 5.19998 13.8138L5.05709 14.1748C5.01025 14.2928 4.97007 14.4133 4.93677 14.5357C4.90211 14.6583 4.88191 14.7845 4.8766 14.9118C4.86699 15.0381 4.84941 15.1637 4.82396 15.2878C4.82396 15.4156 4.7638 15.5359 4.73372 15.6563C4.70364 15.7766 4.68108 15.9044 4.65852 16.0248C4.64727 16.1498 4.64727 16.2757 4.65852 16.4008C4.65852 16.6489 4.65852 16.8971 4.65852 17.1528C4.66396 17.4052 4.64125 17.6574 4.59083 17.9048C4.50328 18.4024 4.50328 18.9114 4.59083 19.4089C4.63595 19.9128 4.88412 20.4091 4.59083 20.913C4.66604 21.4018 4.44795 21.8831 4.59083 22.3569C4.37274 22.8231 4.59083 23.2894 4.59083 23.7481C4.51956 24.194 4.51956 24.6484 4.59083 25.0942C4.62487 25.5247 4.62487 25.9573 4.59083 26.3878C4.71868 26.8089 4.42539 27.2225 4.59083 27.6211C4.59083 28.0272 4.59083 28.4183 4.59083 28.8018C4.89165 29.1853 4.59083 29.5538 4.59083 29.9148C4.59083 30.2758 4.78636 30.6668 4.59083 30.9676C4.81644 31.3135 4.59083 31.6369 4.59083 31.9528C4.59083 32.2686 4.68108 32.577 4.59083 32.8703C4.74876 33.1635 4.50059 33.4418 4.59083 33.705C4.55167 33.9541 4.55167 34.2079 4.59083 34.457C4.63661 34.6828 4.63661 34.9156 4.59083 35.1414C4.59083 35.3595 4.59083 35.5625 4.59083 35.7505C4.19978 36.9839 4.12458 37.593 4.03433 37.593Z" fill="#5D270D"/>
<path d="M22.1579 23.0544C22.0827 23.0544 22 22.7761 21.9549 22.2572V21.9715C21.936 21.867 21.936 21.7601 21.9549 21.6556C22.0827 21.5579 21.7894 21.3924 21.9549 21.2946C22.0083 21.1716 22.0241 21.0355 22 20.9036C22 20.7607 22.1429 20.6479 22.0903 20.4749C22.0376 20.302 22.0903 20.317 22.1655 20.2568C22.2407 20.1967 22.3159 20.144 22.2181 20.0237C22.2158 19.938 22.2338 19.8529 22.2707 19.7756C22.3064 19.6956 22.3466 19.6178 22.3911 19.5424C22.4368 19.5272 22.4773 19.4994 22.5079 19.4621C22.5385 19.4248 22.558 19.3797 22.564 19.3318C22.5769 19.2377 22.597 19.1446 22.6242 19.0536C22.6775 19.0471 22.7283 19.0271 22.7717 18.9955C22.8151 18.9639 22.8498 18.9218 22.8724 18.8731C22.9103 18.772 22.9306 18.6652 22.9325 18.5573C22.9922 18.5673 23.0535 18.5614 23.1103 18.5403C23.167 18.5192 23.2172 18.4835 23.2559 18.4369C23.2894 18.3837 23.3119 18.3245 23.3222 18.2625C23.3326 18.2005 23.3305 18.1371 23.3161 18.076C23.3478 18.0329 23.3858 17.9949 23.4289 17.9631L23.5642 17.8729C23.6595 17.8098 23.735 17.7212 23.7823 17.6172L24.038 17.3916C24.0824 17.3523 24.1303 17.3171 24.1809 17.2863C24.2308 17.2578 24.2838 17.2351 24.3388 17.2186C24.3884 17.0924 24.4819 16.9883 24.602 16.9253C24.727 16.887 24.8606 16.887 24.9856 16.9253C25.0197 16.8664 25.0664 16.8156 25.1222 16.7767C25.1781 16.7377 25.2418 16.7114 25.309 16.6997C25.3739 16.6923 25.4395 16.6923 25.5045 16.6997H25.7075C25.7718 16.7148 25.8388 16.7148 25.9031 16.6997C25.964 16.6727 26.0268 16.6501 26.0911 16.6321C26.1525 16.6042 26.2191 16.5898 26.2866 16.5898C26.354 16.5898 26.4207 16.6042 26.4821 16.6321C26.6149 16.6396 26.7479 16.6396 26.8807 16.6321C27.0178 16.6374 27.154 16.6575 27.2868 16.6922C27.4146 16.7524 27.5274 16.8351 27.6553 16.8802C27.721 16.9032 27.7891 16.9183 27.8583 16.9253C27.9306 16.9359 28.0041 16.9359 28.0764 16.9253C28.3643 16.9501 28.6325 17.0815 28.8285 17.2938C28.9841 17.287 29.1367 17.3379 29.2571 17.4367C29.3591 17.547 29.4452 17.6711 29.5128 17.8052C29.6231 17.8966 29.7172 18.0059 29.7911 18.1286C29.832 18.187 29.8773 18.2423 29.9264 18.294C29.9748 18.3468 30.0306 18.3924 30.0919 18.4294C30.1763 18.5488 30.2693 18.6619 30.3701 18.7678C30.4637 18.8773 30.5329 19.0055 30.5732 19.1438C30.6258 19.2867 30.6484 19.4296 30.7085 19.5574C30.762 19.6878 30.8384 19.8075 30.9341 19.9109C31.0325 20.017 31.0956 20.151 31.1146 20.2945C31.1152 20.4315 31.1433 20.567 31.1973 20.693C31.0845 21.0013 31.3778 21.2044 31.3628 21.445C31.3853 21.5744 31.3853 21.7067 31.3628 21.8361C31.3589 21.9012 31.3589 21.9665 31.3628 22.0316V22.1219V22.1895V22.2648C31.4258 22.6836 31.4258 23.1094 31.3628 23.5282C31.4003 23.6054 31.4305 23.686 31.453 23.7688H31.3778C31.2579 23.7828 31.1368 23.7828 31.0169 23.7688C30.7968 23.7061 30.5688 23.6757 30.34 23.6786C30.1719 23.6284 29.9948 23.6155 29.8211 23.641C29.7113 23.6559 29.6 23.6559 29.4902 23.641C29.2722 23.7011 29.0541 23.5056 28.8435 23.641C28.6329 23.641 28.4224 23.7387 28.2193 23.641C28.0087 23.7838 27.8057 23.5131 27.6102 23.641C27.4174 23.6561 27.2238 23.6561 27.0311 23.641C26.8431 23.4078 26.6551 23.6034 26.4746 23.641C26.2941 23.6786 26.1136 23.7688 25.9482 23.641C25.7752 23.641 25.6098 23.5206 25.4443 23.641C25.2789 23.7613 25.1209 23.295 24.9705 23.641C24.8201 23.6936 24.6697 23.4003 24.5268 23.641C24.384 23.8816 24.2486 23.641 24.1207 23.641H23.7447C22.6618 23.5432 22.0376 23.4229 22.0376 23.2951C22.0376 23.1672 22.7896 23.0318 24.1207 22.919C24.2486 22.919 24.384 22.7461 24.5268 22.919C24.6697 22.919 24.8201 22.7987 24.9705 22.919C25.1209 22.7009 25.2789 22.919 25.4443 22.919C25.6098 22.919 25.7752 22.9792 25.9482 22.919C26.1211 22.8589 26.2941 22.9792 26.4746 22.919C26.554 22.9812 26.652 23.015 26.7528 23.015C26.8537 23.015 26.9517 22.9812 27.0311 22.919C27.2191 23.0469 27.4146 22.919 27.6102 22.919C27.8057 23.1221 28.0087 22.9792 28.2193 22.919C28.4299 22.8589 28.6329 22.919 28.8435 22.919C29.0541 22.919 29.2722 22.8664 29.4902 22.919C29.5938 22.8683 29.7061 22.8376 29.8211 22.8288C29.9791 22.8288 29.9189 22.8288 29.9715 22.904H30.0167C29.9715 22.8513 29.9715 22.8514 30.0167 22.8363C30.0618 22.8213 30.0167 22.8363 30.0167 22.7912C30.0128 22.7638 30.0128 22.7359 30.0167 22.7084C30.0167 22.6558 30.0167 22.5957 30.0167 22.543C30.0333 22.4833 30.0307 22.4199 30.0091 22.3618C29.9875 22.3037 29.948 22.2539 29.8963 22.2197C29.865 22.0001 29.8146 21.7837 29.7459 21.5729C29.7332 21.4589 29.7131 21.3459 29.6858 21.2345C29.6493 21.1303 29.5987 21.0316 29.5354 20.9412C29.5694 20.8872 29.5875 20.8246 29.5875 20.7607C29.5875 20.6968 29.5694 20.6343 29.5354 20.5802C29.4623 20.4884 29.3791 20.4051 29.2872 20.332C29.203 20.2584 29.134 20.169 29.0841 20.0688C29.0315 19.9786 28.9713 19.8883 28.9187 19.7906L28.8134 19.6703L28.7006 19.5574C28.637 19.4763 28.5692 19.3985 28.4976 19.3243C28.4059 19.2713 28.3265 19.1996 28.2644 19.1138C28.2042 19.0307 28.1161 18.972 28.0163 18.9483C27.9148 18.9273 27.8226 18.8746 27.7531 18.7979C27.7202 18.7597 27.6799 18.7287 27.6347 18.7067C27.5894 18.6847 27.5401 18.6723 27.4898 18.67H27.3394C27.2921 18.6779 27.2438 18.6779 27.1965 18.67C27.1007 18.6428 27.0112 18.5968 26.9333 18.5347C26.8431 18.5347 26.7604 18.4519 26.6626 18.4219C26.6156 18.4016 26.5638 18.3951 26.5132 18.4031C26.4626 18.4111 26.4153 18.4332 26.3768 18.467C26.2868 18.5076 26.199 18.5528 26.1136 18.6024C26.0692 18.6135 26.0227 18.6135 25.9783 18.6024C25.9174 18.5818 25.8646 18.5423 25.8278 18.4896C25.7886 18.5178 25.7406 18.5311 25.6925 18.5272H25.5571C25.5101 18.516 25.4612 18.516 25.4142 18.5272C25.3901 18.5308 25.3673 18.5402 25.3476 18.5546C25.328 18.569 25.3121 18.588 25.3014 18.6099C25.2612 18.58 25.2124 18.5638 25.1623 18.5638C25.1122 18.5638 25.0634 18.58 25.0232 18.6099C24.948 18.67 24.8953 18.7678 24.8201 18.7979H24.6848L24.5644 18.8505C24.4819 18.8858 24.415 18.95 24.3764 19.0311C24.3624 19.0731 24.3388 19.1112 24.3075 19.1425C24.2761 19.1739 24.238 19.1975 24.1959 19.2115L24.0756 19.2642C24.0443 19.2906 24.0165 19.3209 23.9929 19.3544C23.9929 19.4597 23.8951 19.4898 23.8124 19.5274C23.7297 19.565 23.647 19.6101 23.6545 19.7154C23.5963 19.7712 23.5457 19.8344 23.5041 19.9034C23.4704 19.9735 23.4245 20.0372 23.3687 20.0914C23.459 20.2343 23.4138 20.2945 23.3687 20.3396C23.3236 20.3847 23.1957 20.4148 23.1506 20.4825C23.1055 20.5501 23.113 20.6253 23.1055 20.7005C23.098 20.7757 23.1055 20.8434 22.9551 20.866C23.0303 20.9712 23.0153 21.039 22.9551 21.0916C22.8949 21.1442 22.8197 21.1893 22.7746 21.242C22.7295 21.2946 22.7746 21.5203 22.6468 21.6105C22.7596 21.7609 22.5114 21.8286 22.534 21.9564C22.4136 22.0467 22.4888 22.1745 22.4437 22.2723C22.4553 22.3231 22.4552 22.3759 22.4434 22.4267C22.4317 22.4775 22.4087 22.5249 22.376 22.5656L22.3083 22.8213C22.3309 22.7761 22.2482 23.0544 22.1579 23.0544Z" fill="#98772E"/>
<path d="M26.5197 28.3174C26.4369 28.3151 26.3553 28.2972 26.279 28.2648C26.0685 28.2648 26.3242 28.2648 26.279 28.2648C26.061 28.2648 26.5122 28.2648 26.279 28.2648C26.2189 28.2648 26.2339 28.2648 26.279 28.2648C26.3918 28.2648 26.4746 28.2648 26.279 28.2648C26.5498 28.2648 26.5047 28.2648 26.279 28.2272C26.1813 28.2272 26.2114 28.2272 26.279 28.1821C26.0986 28.1821 26.1061 28.1821 26.279 28.1445C26.0835 28.1445 26.1662 28.1445 26.279 28.0993C26.3918 28.0542 26.1061 28.0993 26.279 28.0542C26.279 28.0542 26.2339 28.0542 26.279 28.0091C26.3242 27.9639 26.452 27.9715 26.279 27.9565C26.2339 27.9565 26.1662 27.9565 26.279 27.9113C26.0685 27.9113 26.1662 27.8737 26.279 27.8587C26.279 27.8587 26.3918 27.8587 26.279 27.806C26.3166 27.806 26.1888 27.806 26.279 27.7534C26.3693 27.7008 26.4069 27.7534 26.279 27.7083C26.1512 27.6632 26.3392 27.6707 26.279 27.6556C26.4746 27.6556 26.2189 27.6556 26.279 27.603C26.3392 27.5503 26.3918 27.603 26.279 27.5579C26.1662 27.5127 26.2038 27.5579 26.279 27.5052C25.9858 27.5052 26.3618 27.5052 26.279 27.4601C26.4069 27.4601 26.279 27.4601 26.279 27.415C26.279 27.3699 26.4144 27.415 26.279 27.3699C26.1286 27.3699 26.3994 27.3699 26.279 27.3247C26.5122 27.3247 26.3242 27.3247 26.279 27.2871C26.1437 27.2871 26.2339 27.2495 26.279 27.2871C26.1587 27.2871 26.6175 27.2871 26.279 27.2495C26.2189 27.2495 26.5122 27.2495 26.279 27.2495C26.3792 27.1758 26.5005 27.1362 26.625 27.1367C26.7632 27.1385 26.8964 27.1892 27.001 27.2796C27.001 27.2796 27.174 27.2796 27.001 27.2796C27.2191 27.2796 27.001 27.2796 27.001 27.3172C26.9408 27.3172 27.001 27.3548 27.001 27.3172C26.9333 27.3172 27.0612 27.3172 27.001 27.3172C26.8656 27.3172 26.9032 27.3172 27.001 27.3548C26.8055 27.3548 26.9408 27.3548 27.001 27.3999C27.001 27.3999 27.0536 27.3999 27.001 27.445C27.0912 27.445 27.1288 27.4451 27.001 27.4902C27.0612 27.4902 27.001 27.4902 27.001 27.5353C27.001 27.5804 27.001 27.5729 27.001 27.5879C27.001 27.603 26.7904 27.5879 27.001 27.633C27.001 27.633 26.9634 27.6707 27.001 27.6857C27.0386 27.7007 26.9408 27.6857 27.001 27.7383C26.7829 27.7383 26.9183 27.7383 27.001 27.7835C27.0837 27.8286 27.001 27.7835 27.001 27.8361V27.8888C27.0612 27.8888 26.9032 27.8888 27.001 27.9414C27.0988 27.994 26.9032 27.9414 27.001 27.9865C27.0988 28.0316 27.0988 27.9865 27.001 28.0392C26.9032 28.0918 26.8055 28.0392 27.001 28.0843C27.001 28.0843 27.2868 28.0843 27.001 28.1294C27.0762 28.1294 26.8506 28.1294 27.001 28.1745C26.7829 28.1745 27.001 28.1745 27.001 28.2121C27.001 28.2497 26.8807 28.2121 27.001 28.2572C26.9484 28.2572 27.1213 28.3024 27.001 28.2572C27.0536 28.2572 26.8355 28.2572 27.001 28.2948C26.9107 28.2948 27.1589 28.2948 27.001 28.2948C26.9269 28.3325 26.8457 28.3539 26.7628 28.3578C26.6798 28.3617 26.5969 28.3479 26.5197 28.3174Z" fill="#5D270D"/>
<path d="M24.0382 27.4034C23.9554 27.401 23.8738 27.3832 23.7976 27.3507C23.587 27.3507 23.9029 27.3507 23.7976 27.3507C23.5795 27.3507 24.0307 27.3507 23.7976 27.3507C23.7374 27.3507 23.7525 27.3507 23.7976 27.3507C23.9931 27.3507 23.9104 27.3507 23.7976 27.3131C24.0232 27.3131 24.0683 27.3131 23.7976 27.3131C23.7976 27.3131 23.8954 27.3131 23.7976 27.2755C23.6998 27.2379 23.7299 27.2755 23.7976 27.2304C23.6171 27.2304 23.6246 27.2304 23.7976 27.1853C23.6021 27.1853 23.6848 27.1853 23.7976 27.1853C23.9104 27.1853 23.6246 27.1853 23.7976 27.1402C23.7976 27.1402 23.7525 27.1026 23.7976 27.0875C23.8427 27.0725 23.9706 27.0875 23.7976 27.0424C23.745 27.0424 23.6848 27.0424 23.7976 26.9973C23.587 26.9973 23.6848 26.9973 23.7976 26.9446C23.7976 26.9446 23.9104 26.9446 23.7976 26.892C23.7976 26.892 23.7074 26.892 23.7976 26.8393C23.8878 26.7867 23.9254 26.8393 23.7976 26.7867C23.6698 26.734 23.8578 26.7867 23.7976 26.7416C23.9931 26.7416 23.7299 26.7416 23.7976 26.6889C23.8653 26.6363 23.9104 26.689 23.7976 26.6363C23.6848 26.5837 23.7224 26.6363 23.7976 26.5912C23.4968 26.5912 23.8803 26.5912 23.7976 26.5461C23.9254 26.5461 23.7976 26.546 23.7976 26.5009C23.7976 26.4558 23.933 26.5009 23.7976 26.4558C23.7976 26.4558 23.6998 26.4558 23.7976 26.4107C23.6472 26.4107 23.9179 26.4107 23.7976 26.3731C23.8427 26.3731 24.0307 26.3731 23.7976 26.3731C23.7525 26.3731 23.6622 26.3731 23.7976 26.3355C23.6773 26.3355 24.136 26.3355 23.7976 26.3355C23.7374 26.3355 24.0307 26.3355 23.7976 26.3355C23.8978 26.2617 24.0191 26.2221 24.1435 26.2227C24.2803 26.2254 24.4124 26.273 24.5195 26.3581C24.5195 26.3581 24.6925 26.3581 24.5195 26.3581C24.5797 26.3581 24.4519 26.3581 24.5195 26.3957C24.3842 26.3957 24.4218 26.3957 24.5195 26.3957C24.324 26.3957 24.4594 26.3957 24.5195 26.4333C24.5797 26.4709 24.5195 26.4333 24.5195 26.4784C24.5195 26.5235 24.5722 26.4784 24.5195 26.5235C24.6098 26.5235 24.6474 26.5235 24.5195 26.5686C24.5797 26.5686 24.5195 26.5686 24.5195 26.6137C24.5195 26.6589 24.5195 26.6137 24.5195 26.6589C24.5195 26.704 24.309 26.6965 24.5195 26.7115C24.5195 26.7115 24.5195 26.7115 24.5195 26.7641C24.5195 26.8168 24.4594 26.7641 24.5195 26.8093C24.3015 26.8093 24.4368 26.8093 24.5195 26.8619C24.6023 26.9146 24.5195 26.8995 24.5195 26.9146C24.5195 26.9296 24.5195 26.9146 24.5195 26.9672C24.5195 27.0199 24.4218 26.9672 24.5195 27.0198C24.6173 27.0725 24.4218 27.0198 24.5195 27.0649C24.6173 27.1101 24.6173 27.065 24.5195 27.1101C24.4218 27.1552 24.324 27.1101 24.5195 27.1627C24.5195 27.1627 24.8053 27.1627 24.5195 27.2078C24.3691 27.2078 24.5948 27.2078 24.5195 27.2078C24.3015 27.2078 24.5195 27.2078 24.5195 27.2529C24.5195 27.2981 24.3992 27.253 24.5195 27.2981C24.6399 27.3432 24.4669 27.2981 24.5195 27.3357C24.3541 27.3357 24.5722 27.3733 24.5195 27.3357C24.5195 27.3357 24.5195 27.3357 24.5195 27.3733C24.6775 27.3733 24.4293 27.3733 24.4819 27.3733H24.4443C24.3169 27.4315 24.1729 27.4421 24.0382 27.4034Z" fill="#5D270D"/>
<path d="M28.9941 27.4034C28.9136 27.402 28.8343 27.3841 28.761 27.3507C28.5579 27.3507 28.8738 27.3507 28.761 27.3507C28.5429 27.3507 28.9941 27.3507 28.761 27.3507C28.7008 27.3507 28.7159 27.3507 28.761 27.3507C28.964 27.3507 28.8738 27.3507 28.761 27.3131C28.9866 27.3131 29.0317 27.3131 28.761 27.3131C28.761 27.3131 28.8587 27.3131 28.761 27.2755C28.6632 27.2379 28.6933 27.2755 28.761 27.2304C28.5805 27.2304 28.588 27.2304 28.761 27.1853C28.5655 27.1853 28.6407 27.1853 28.761 27.1853C28.8813 27.1853 28.5955 27.1853 28.761 27.1402C28.761 27.1402 28.7159 27.1026 28.761 27.0875C28.8061 27.0725 28.9264 27.0875 28.761 27.0424C28.7159 27.0424 28.6482 27.0424 28.761 26.9973C28.5579 26.9973 28.6482 26.9973 28.761 26.9446C28.761 26.9446 28.8738 26.9446 28.761 26.892C28.761 26.892 28.6707 26.892 28.761 26.8393C28.8512 26.7867 28.8813 26.8393 28.761 26.7867C28.6407 26.734 28.8136 26.7867 28.761 26.7416C28.9565 26.7416 28.7008 26.7416 28.761 26.6889C28.8211 26.6363 28.8738 26.689 28.761 26.6363C28.6482 26.5837 28.6858 26.6363 28.761 26.5912C28.4602 26.5912 28.8362 26.5912 28.761 26.5461C28.8888 26.5461 28.761 26.546 28.761 26.5009C28.761 26.4558 28.9039 26.5009 28.761 26.4558C28.761 26.4558 28.6632 26.4558 28.761 26.4107C28.6106 26.4107 28.8888 26.4107 28.761 26.3731C28.761 26.3731 28.6256 26.3731 28.761 26.3355C28.6331 26.3355 29.0994 26.3355 28.761 26.3355C28.7083 26.3355 29.0016 26.3355 28.761 26.3355C28.8612 26.2617 28.9825 26.2221 29.1069 26.2227C29.244 26.2236 29.3767 26.2714 29.4829 26.3581C29.4829 26.3581 29.6559 26.3581 29.4829 26.3581C29.528 26.3581 29.701 26.3581 29.4829 26.3581C29.4228 26.3581 29.4378 26.3581 29.4829 26.3581C29.5431 26.3581 29.4228 26.3581 29.4829 26.3957C29.3551 26.3957 29.3852 26.3957 29.4829 26.3957C29.2799 26.3957 29.4228 26.3957 29.4829 26.4333C29.5431 26.4709 29.4829 26.4333 29.4829 26.4784C29.4829 26.5235 29.528 26.4784 29.4829 26.5235C29.5807 26.5235 29.6108 26.5235 29.4829 26.5686C29.5506 26.5686 29.4829 26.5686 29.4829 26.6137C29.4829 26.6589 29.4829 26.6137 29.4829 26.6589C29.4829 26.704 29.2724 26.6965 29.4829 26.7115C29.4829 26.7115 29.4829 26.7115 29.4829 26.7641C29.4829 26.8168 29.4228 26.7641 29.4829 26.8093C29.2648 26.8093 29.3927 26.8093 29.4829 26.8619C29.5732 26.9146 29.4829 26.8995 29.4829 26.9146V26.9672C29.5431 26.9672 29.3927 26.9672 29.4829 27.0198C29.5732 27.0725 29.3852 27.0198 29.4829 27.0649C29.5807 27.1101 29.5807 27.065 29.4829 27.1101C29.3852 27.1552 29.2799 27.1101 29.4829 27.1627C29.528 27.1627 29.7687 27.1627 29.4829 27.2078C29.34 27.2078 29.5581 27.2078 29.4829 27.2078C29.2573 27.2078 29.4829 27.2078 29.4829 27.2529C29.4829 27.2981 29.3701 27.253 29.4829 27.2981C29.5957 27.3432 29.4228 27.2981 29.4829 27.3357C29.31 27.3357 29.5431 27.3733 29.4829 27.3357C29.4829 27.3357 29.4829 27.3357 29.4829 27.3733C29.5205 27.3733 29.7161 27.3733 29.4829 27.3733C29.4453 27.3733 29.5807 27.3733 29.4829 27.3733C29.4002 27.3733 29.6409 27.3733 29.4829 27.3733C29.3298 27.4455 29.1549 27.4562 28.9941 27.4034Z" fill="#5D270D"/>
<path d="M26.5197 31.8809C26.4365 31.8824 26.3541 31.8643 26.279 31.8283C26.0685 31.8283 26.3242 31.8283 26.279 31.8283C26.061 31.8283 26.5122 31.8283 26.279 31.8283C26.2189 31.8283 26.2339 31.8283 26.279 31.8283C26.4445 31.8283 26.279 31.8283 26.279 31.7907C26.3918 31.7907 26.4746 31.7907 26.279 31.7907C26.5498 31.7907 26.5047 31.7907 26.279 31.7531C26.1813 31.7531 26.2114 31.7531 26.279 31.7531C26.0986 31.7531 26.1061 31.7531 26.279 31.708C26.0835 31.708 26.1662 31.708 26.279 31.6629C26.3918 31.6177 26.1061 31.6629 26.279 31.6177C26.279 31.6177 26.2339 31.6177 26.279 31.5726C26.3242 31.5275 26.452 31.5726 26.279 31.5275C26.2339 31.5275 26.1662 31.5275 26.279 31.4749C26.0685 31.4749 26.1662 31.4748 26.279 31.4222C26.279 31.4222 26.3918 31.4222 26.279 31.3771C26.3166 31.3771 26.1888 31.3395 26.279 31.3244C26.3693 31.3094 26.4069 31.3244 26.279 31.2718C26.1512 31.2191 26.3392 31.2718 26.279 31.2191C26.4746 31.2191 26.2189 31.2191 26.279 31.174C26.3392 31.1289 26.3918 31.174 26.279 31.1214C26.1662 31.0687 26.2038 31.1214 26.279 31.0763C25.9858 31.0763 26.3618 31.0762 26.279 31.0236C26.4069 31.0236 26.279 31.0236 26.279 30.9785C26.279 30.9334 26.4144 30.9785 26.279 30.9785C26.279 30.9785 26.1813 30.9785 26.279 30.9334C26.1286 30.9334 26.3994 30.9334 26.279 30.9334C26.279 30.9334 26.279 30.9334 26.279 30.8882C26.5122 30.8882 26.3242 30.8883 26.279 30.8507C26.1437 30.8507 26.2339 30.8131 26.279 30.8507C26.1587 30.8507 26.6175 30.8507 26.279 30.8507C26.2189 30.8507 26.5122 30.8507 26.279 30.8507C26.3825 30.7582 26.5163 30.707 26.6551 30.707C26.7938 30.707 26.9277 30.7582 27.0311 30.8507C27.0311 30.8507 27.204 30.8507 27.0311 30.8507C26.9634 30.8507 27.0912 30.8507 27.0311 30.8507C26.8957 30.8507 26.9333 30.8506 27.0311 30.8882C26.9032 30.8882 27.0311 30.8882 27.0311 30.9334C26.8355 30.9334 26.9709 30.9334 27.0311 30.9334C27.0912 30.9334 27.0311 30.9334 27.0311 30.9785C27.0311 31.0236 27.0837 30.9785 27.0311 30.9785C27.1213 30.9785 27.1589 30.9785 27.0311 31.0236C27.0912 31.0236 27.0311 31.0236 27.0311 31.0763C27.0311 31.1289 27.0311 31.0763 27.0311 31.1214C27.0311 31.1665 26.8205 31.1214 27.0311 31.174C27.0311 31.174 26.9935 31.174 27.0311 31.2191C27.0687 31.2643 26.9709 31.2191 27.0311 31.2718C26.813 31.2718 26.9484 31.2718 27.0311 31.3244C27.1138 31.3771 27.0311 31.3244 27.0311 31.3771C27.0311 31.4297 27.0311 31.3771 27.0311 31.4222C27.0311 31.4673 26.9333 31.4222 27.0311 31.4749C27.1288 31.5275 26.9333 31.4749 27.0311 31.5275C27.1288 31.5801 27.1288 31.5275 27.0311 31.5726C26.9333 31.6177 26.8355 31.5726 27.0311 31.6177C27.0311 31.6177 27.3168 31.6177 27.0311 31.6629C27.1063 31.6629 26.8807 31.6629 27.0311 31.708C26.813 31.708 27.0311 31.708 27.0311 31.7531C26.9108 31.7531 27.0311 31.7982 27.0311 31.7531C26.9784 31.7531 27.1514 31.7531 27.0311 31.7531C27.0837 31.7531 26.8656 31.7531 27.0311 31.7907C27.3244 31.7907 27.0311 31.7907 27.0311 31.8283C27.0311 31.8659 27.2266 31.8283 27.0311 31.8283C26.9408 31.8283 27.189 31.8283 27.0311 31.8283C26.9595 31.8845 26.8735 31.9193 26.783 31.9286C26.6925 31.9379 26.6012 31.9214 26.5197 31.8809Z" fill="#5D270D"/>
<path d="M24.0382 30.9797C23.9554 30.9774 23.8738 30.9595 23.7976 30.9271C23.587 30.9271 23.9029 30.9271 23.7976 30.9271C23.5795 30.9271 24.0307 30.9271 23.7976 30.9271C23.7374 30.9271 23.7525 30.9271 23.7976 30.9271C23.9555 30.9271 23.7976 30.9271 23.7976 30.8895C23.9104 30.8895 23.9931 30.8895 23.7976 30.8895C24.0232 30.8895 24.0683 30.8895 23.7976 30.8895C23.7976 30.8895 23.8954 30.8895 23.7976 30.8444C23.6998 30.7992 23.7299 30.8444 23.7976 30.8444C23.6171 30.8444 23.6246 30.8444 23.7976 30.7992C23.6021 30.7992 23.6848 30.7992 23.7976 30.7541C23.9104 30.709 23.6246 30.7541 23.7976 30.709C23.7976 30.709 23.7525 30.709 23.7976 30.6639C23.8427 30.6188 23.9706 30.6639 23.7976 30.6188C23.745 30.6188 23.6848 30.6188 23.7976 30.5661C23.587 30.5661 23.6848 30.5661 23.7976 30.521C23.7976 30.521 23.9104 30.521 23.7976 30.4683C23.7976 30.4683 23.7074 30.4307 23.7976 30.4157C23.8878 30.4007 23.9254 30.4157 23.7976 30.363C23.6698 30.3104 23.8578 30.3255 23.7976 30.3104C23.9931 30.3104 23.7299 30.3104 23.7976 30.2653C23.8653 30.2202 23.9104 30.2277 23.7976 30.2127C23.6848 30.1976 23.7224 30.2127 23.7976 30.1676C23.4968 30.1676 23.8803 30.1676 23.7976 30.1149C23.9254 30.1149 23.7976 30.1149 23.7976 30.0698C23.7976 30.0247 23.933 30.0698 23.7976 30.0322C23.7976 30.0322 23.6998 30.0322 23.7976 29.987C23.6472 29.987 23.9179 29.987 23.7976 29.9494C23.7976 29.9494 23.7976 29.9494 23.7976 29.9043C24.0307 29.9043 23.8427 29.9043 23.7976 29.8667C23.6622 29.8667 23.7525 29.8291 23.7976 29.8667C23.6773 29.8667 24.136 29.8667 23.7976 29.8667C23.7374 29.8667 24.0307 29.8667 23.7976 29.8667C23.8994 29.796 24.0197 29.7568 24.1435 29.7539C24.2818 29.7557 24.415 29.8063 24.5195 29.8968C24.5195 29.8968 24.6925 29.8968 24.5195 29.8968C24.4519 29.8968 24.5797 29.8968 24.5195 29.8968C24.3842 29.8968 24.4218 29.8968 24.5195 29.9344C24.3917 29.9344 24.5195 29.9344 24.5195 29.9796C24.324 29.9796 24.4594 29.9795 24.5195 30.0171C24.5797 30.0547 24.5195 30.0171 24.5195 30.0623C24.5195 30.1074 24.5722 30.0623 24.5195 30.0999C24.6098 30.0999 24.6474 30.0999 24.5195 30.145C24.5797 30.145 24.5195 30.1826 24.5195 30.1976C24.5195 30.2127 24.5195 30.1976 24.5195 30.2427C24.5195 30.2879 24.309 30.2427 24.5195 30.2954C24.5195 30.2954 24.5195 30.2954 24.5195 30.3405C24.5195 30.3856 24.4594 30.3781 24.5195 30.3932C24.3015 30.3932 24.4368 30.3932 24.5195 30.4458C24.6023 30.4984 24.5195 30.4834 24.5195 30.4985C24.5195 30.5135 24.5195 30.4984 24.5195 30.5511C24.5195 30.6037 24.4218 30.5511 24.5195 30.5962C24.6173 30.6413 24.4218 30.5962 24.5195 30.6488C24.6173 30.7015 24.6173 30.6488 24.5195 30.6939C24.4218 30.7391 24.324 30.6939 24.5195 30.7391C24.5195 30.7391 24.8053 30.7391 24.5195 30.7842C24.5948 30.7842 24.3691 30.7842 24.5195 30.8293C24.3015 30.8293 24.5195 30.8293 24.5195 30.8745C24.3992 30.8745 24.5195 30.9196 24.5195 30.8745C24.6399 30.8745 24.4669 30.8745 24.5195 30.9196C24.3541 30.9196 24.5722 30.9647 24.5195 30.9196C24.8128 30.9196 24.5195 30.9196 24.5195 30.9572C24.5195 30.9948 24.7151 30.9572 24.5195 30.9572C24.6775 30.9572 24.4293 30.9572 24.4819 30.9572H24.4443C24.316 31.0129 24.172 31.0209 24.0382 30.9797Z" fill="#5D270D"/>
<path d="M28.9941 30.9797C28.9136 30.9784 28.8343 30.9604 28.761 30.9271C28.5579 30.9271 28.8738 30.9271 28.761 30.9271C28.5429 30.9271 28.9941 30.9271 28.761 30.9271C28.7008 30.9271 28.7159 30.9271 28.761 30.9271C28.9264 30.9271 28.761 30.9271 28.761 30.8895C28.8738 30.8895 28.964 30.8895 28.761 30.8895C28.9866 30.8895 29.0317 30.8895 28.761 30.8895C28.761 30.8895 28.8587 30.8895 28.761 30.8444C28.6632 30.7992 28.6933 30.8444 28.761 30.8444C28.5805 30.8444 28.588 30.8444 28.761 30.7992C28.5655 30.7992 28.6407 30.7992 28.761 30.7541C28.8813 30.709 28.5955 30.7541 28.761 30.709C28.761 30.709 28.7159 30.709 28.761 30.6639C28.8061 30.6188 28.9264 30.6639 28.761 30.6188C28.7159 30.6188 28.6482 30.6188 28.761 30.5661C28.5579 30.5661 28.6482 30.5661 28.761 30.521C28.761 30.521 28.8738 30.521 28.761 30.4683C28.761 30.4683 28.6707 30.4307 28.761 30.4157C28.8512 30.4007 28.8813 30.4157 28.761 30.363C28.6407 30.3104 28.8136 30.3255 28.761 30.3104C28.9565 30.3104 28.7008 30.3104 28.761 30.2653C28.8211 30.2202 28.8738 30.2277 28.761 30.2127C28.6482 30.1976 28.6858 30.2127 28.761 30.1676C28.4602 30.1676 28.8362 30.1676 28.761 30.1149C28.8888 30.1149 28.761 30.1149 28.761 30.0698C28.761 30.0247 28.9039 30.0698 28.761 30.0322C28.761 30.0322 28.6632 30.0322 28.761 29.987C28.6106 29.987 28.8888 29.987 28.761 29.9494C28.6331 29.9118 28.761 29.9494 28.761 29.9043C28.9941 29.9043 28.761 29.9043 28.761 29.8667C28.6256 29.8667 28.761 29.8291 28.761 29.8667C28.6331 29.8667 29.0994 29.8667 28.761 29.8667C28.7083 29.8667 29.0016 29.8667 28.761 29.8667C28.8627 29.796 28.983 29.7568 29.1069 29.7539C29.2454 29.7544 29.379 29.8052 29.4829 29.8968C29.528 29.8968 29.701 29.8968 29.4829 29.8968C29.4228 29.8968 29.4378 29.8968 29.4829 29.8968C29.4228 29.8968 29.5431 29.8968 29.4829 29.8968C29.3551 29.8968 29.3852 29.8968 29.4829 29.9344C29.3476 29.9344 29.4829 29.9344 29.4829 29.9796C29.2799 29.9796 29.4228 29.9795 29.4829 30.0171C29.5431 30.0547 29.4829 30.0171 29.4829 30.0623C29.4829 30.1074 29.528 30.0623 29.4829 30.0999C29.5807 30.0999 29.6108 30.0999 29.4829 30.145C29.5506 30.145 29.4829 30.1826 29.4829 30.1976C29.4829 30.2127 29.4829 30.1976 29.4829 30.2427C29.4829 30.2879 29.2724 30.2427 29.4829 30.2954C29.4829 30.2954 29.4829 30.2954 29.4829 30.3405C29.4829 30.3856 29.4228 30.3781 29.4829 30.3932C29.2648 30.3932 29.3927 30.3932 29.4829 30.4458C29.5732 30.4984 29.4829 30.4834 29.4829 30.4985C29.4829 30.5135 29.4829 30.4984 29.4829 30.5511C29.4829 30.6037 29.3927 30.5511 29.4829 30.5962C29.5732 30.6413 29.3852 30.5962 29.4829 30.6488C29.5807 30.7015 29.5807 30.6488 29.4829 30.6939C29.3852 30.7391 29.2799 30.6939 29.4829 30.7391C29.528 30.7391 29.7687 30.7391 29.4829 30.7842C29.5581 30.7842 29.34 30.7842 29.4829 30.8293C29.2573 30.8293 29.4829 30.8293 29.4829 30.8745C29.3701 30.8745 29.4829 30.9196 29.4829 30.8745C29.5957 30.8745 29.4228 30.8745 29.4829 30.9196C29.31 30.9196 29.5431 30.9647 29.4829 30.9196C29.7837 30.9196 29.4829 30.9196 29.4829 30.9572C29.4829 30.9948 29.686 30.9572 29.4829 30.9572C29.5205 30.9572 29.7161 30.9572 29.4829 30.9572C29.4453 30.9572 29.5807 30.9572 29.4829 30.9572C29.4002 30.9572 29.6409 30.9572 29.4829 30.9572C29.3289 31.0269 29.1539 31.0349 28.9941 30.9797Z" fill="#5D270D"/>
<path d="M57.4282 56.5544C57.4282 56.4717 57.5485 56.3814 57.7516 56.2987L57.8644 56.2536C57.9058 56.2392 57.9508 56.2392 57.9922 56.2536C58.0449 56.3589 58.0599 56.0505 58.1276 56.2084C58.1802 56.246 58.2329 56.2085 58.278 56.1483C58.3231 56.0882 58.3983 56.201 58.4359 56.0957C58.4359 55.8701 58.5939 56.3062 58.6089 56.0355C58.6615 55.9678 58.7292 55.9753 58.7969 55.9753C58.8947 56.1182 58.9248 55.9753 58.9849 55.8926C59.0977 56.0656 59.1504 55.9678 59.1805 55.8174C59.3233 56.0581 59.3985 55.9979 59.3835 55.7272C59.4512 55.7272 59.564 55.7648 59.5941 55.6294C59.6242 55.494 59.7219 55.5091 59.8122 55.5316C59.8122 55.3361 59.8874 55.2985 60.0302 55.4113C60.0302 55.1932 60.128 55.2308 60.2559 55.2835C60.3837 55.3361 60.3311 55.0579 60.4815 55.1481C60.5642 55.1481 60.6093 55.0127 60.6995 54.9977C60.7898 54.9826 60.9552 55.0428 60.9327 54.8397C60.9101 54.6367 61.0154 54.6367 61.1508 54.6668C61.1056 54.4412 61.2335 54.4638 61.3764 54.4863C61.5193 54.5089 61.5945 54.4412 61.5945 54.2908C61.5945 54.1404 61.6772 54.0877 61.8126 54.0877C61.9479 54.0877 62.0306 54.02 62.0081 53.8696C61.9855 53.7192 62.1811 53.7569 62.2111 53.6516C62.4217 53.6967 62.2788 53.4636 62.3916 53.426C62.5044 53.3884 62.5947 53.3432 62.5646 53.2079C62.5345 53.0725 62.6022 53.0123 62.7225 52.9823C62.5119 52.7491 62.8804 52.8695 62.8729 52.7567C63.0309 52.7567 62.9406 52.5912 63.0083 52.5311C63.076 52.4709 63.2038 52.4408 63.1286 52.3129C63.1888 52.2453 63.1286 52.1249 63.2565 52.0949C63.1437 51.9595 63.4219 51.982 63.3542 51.8767C63.3744 51.8014 63.4075 51.7302 63.452 51.6662C63.7077 51.6662 63.5422 51.5308 63.5422 51.4631C63.5422 51.3955 63.452 51.2902 63.6174 51.2601C63.655 51.2 63.7754 51.1548 63.7002 51.0721C63.625 50.9894 64.0611 51.0119 63.7603 50.8916C63.7152 50.8239 64.016 50.8089 63.8205 50.7186C63.625 50.6284 63.8205 50.6133 63.8731 50.5607L63.9333 50.4103C64.0611 49.9741 64.189 49.7109 64.3168 49.7109C64.4447 49.7109 64.4447 49.7936 64.5048 49.9515C64.565 50.1095 64.5575 50.1321 64.58 50.2524C64.5848 50.315 64.5848 50.3778 64.58 50.4404C64.58 50.5081 64.58 50.5833 64.58 50.6585C64.58 50.7337 64.7304 50.8013 64.58 50.8465C64.58 50.9066 64.6853 50.9969 64.58 51.0495C64.7831 51.1623 64.58 51.1999 64.58 51.2751C64.58 51.3503 64.4823 51.403 64.58 51.5007C64.6778 51.5985 64.4747 51.6436 64.5424 51.7489C64.392 51.794 64.4071 51.8843 64.4898 52.0046C64.3394 52.0046 64.4522 52.1776 64.4221 52.2678C64.1965 52.2678 64.3018 52.4182 64.3394 52.5385C64.377 52.6589 64.2341 52.704 64.2341 52.8168C64.2341 52.9296 64.189 53.0199 64.1138 53.0951C64.1514 53.238 64.1138 53.3507 63.9784 53.3883C63.9784 53.5087 63.8806 53.5763 63.8205 53.6666C63.7603 53.7568 63.7002 53.8546 63.655 53.9599C63.6099 54.0652 63.3467 54.0125 63.4595 54.2381C63.4069 54.3434 63.2941 54.3961 63.2489 54.5164C63.1421 54.5733 63.0594 54.6667 63.0158 54.7796C62.7752 54.727 62.7977 54.8999 62.7752 55.0503C62.7491 55.107 62.7116 55.1576 62.665 55.199C62.6184 55.2404 62.5637 55.2718 62.5044 55.291C62.4298 55.3845 62.341 55.4657 62.2412 55.5316C62.1886 55.652 61.9931 55.5993 61.9554 55.7347C61.9178 55.87 61.7148 55.7873 61.6772 55.9302C61.6612 55.9904 61.6225 56.0421 61.5692 56.0744C61.5159 56.1066 61.4522 56.117 61.3914 56.1032C61.2937 56.1558 61.1057 56.043 61.1057 56.2611C61.038 56.3513 61.053 56.6145 60.8199 56.3889C60.7597 56.5093 60.5717 56.389 60.5341 56.5093C60.3536 56.3514 60.3611 56.592 60.2634 56.6146C60.1656 56.6371 60.0378 56.5694 59.9851 56.6973C59.9325 56.8251 59.7971 56.6973 59.7219 56.7649C59.6467 56.8326 59.5113 56.6597 59.4662 56.8176C59.376 56.8176 59.3158 56.8778 59.2256 56.8176C59.2256 57.1259 59.0677 56.8552 58.9924 56.8176C58.9172 56.78 58.8872 57.0432 58.7744 56.8176C58.7744 57.0507 58.639 56.8702 58.5638 56.8176C58.4886 56.7649 58.451 56.9304 58.3758 56.8176C58.3382 56.9906 58.2479 56.7499 58.2028 56.8176C58.1351 56.7198 58.0975 56.8176 58.0449 56.8176C57.9922 56.8176 57.9471 56.8176 57.902 56.8176H57.7817C57.5485 56.7123 57.4282 56.6371 57.4282 56.5544Z" fill="#5D270D"/>
<path d="M63.4447 65.1145C62.8861 65.2922 62.3008 65.3711 61.7151 65.3476H61.121C60.894 65.3757 60.6653 65.3883 60.4366 65.3852C60.196 65.2724 59.9403 65.5882 59.6846 65.3852C59.406 65.357 59.1248 65.3696 58.8498 65.4228C58.5474 65.3894 58.2423 65.3894 57.9399 65.4228C57.6315 65.6333 57.3007 65.1821 56.9622 65.4228C56.6148 65.4607 56.2643 65.4607 55.9169 65.4228C55.5635 65.2573 55.1649 65.4228 54.8114 65.4228C54.6267 65.3411 54.4269 65.299 54.2248 65.299C54.0228 65.299 53.823 65.3411 53.6383 65.4228C53.4595 65.2948 53.2452 65.226 53.0254 65.226C52.8055 65.226 52.5912 65.2948 52.4125 65.4228C51.9856 65.3665 51.5533 65.3665 51.1265 65.4228C50.6808 65.453 50.2336 65.453 49.7879 65.4228C49.3422 65.5921 48.8498 65.5921 48.4041 65.4228C47.9372 65.5734 47.4347 65.5734 46.9678 65.4228C46.4865 65.3175 45.9901 65.5957 45.4637 65.4228C44.9598 65.4228 44.456 65.4679 43.9596 65.4228C43.4486 65.2951 42.914 65.2951 42.4029 65.4228C41.8742 65.498 41.3374 65.498 40.8086 65.4228C40.2787 65.5808 39.7142 65.5808 39.1842 65.4228C38.6334 65.3852 38.0806 65.3852 37.5298 65.4228C36.9712 65.4529 36.4113 65.4529 35.8527 65.4228C35.2949 65.3324 34.7261 65.3324 34.1682 65.4228C33.6176 65.4679 33.0643 65.4679 32.5137 65.4228C31.9723 65.2348 31.4308 65.4905 30.8893 65.4228C30.3614 65.3777 29.8305 65.3777 29.3026 65.4228C28.7852 65.4792 28.2632 65.4792 27.7459 65.4228C27.227 65.7236 26.7231 65.3476 26.2418 65.4228C25.7413 65.3802 25.2382 65.3802 24.7377 65.4228C24.2619 65.3928 23.7847 65.3928 23.3089 65.4228C22.8462 65.468 22.3803 65.468 21.9176 65.4228C21.4664 65.5657 21.0227 65.2949 20.579 65.4228C20.1353 65.5506 19.7142 65.4228 19.3005 65.4228C18.8794 65.1897 18.4658 65.4228 18.0672 65.4228C17.6686 65.4228 17.2776 65.5506 16.9016 65.4228C16.5327 65.3667 16.1574 65.3667 15.7886 65.4228C15.4276 65.4228 15.0817 65.0844 14.7432 65.4228C14.4048 65.4754 14.0815 65.1821 13.7656 65.4228C13.4498 65.6634 13.1489 65.4228 12.8556 65.4228L12.0209 65.3852C9.62944 65.2874 8.26074 65.1671 8.26074 65.0468C8.26074 64.9264 9.96033 64.776 12.8632 64.6708C13.1565 64.6708 13.4573 64.4903 13.7731 64.6332C14.0977 64.5915 14.4262 64.5915 14.7508 64.6332C15.0892 64.4226 15.4351 64.5956 15.7961 64.6332C16.1662 64.6705 16.539 64.6705 16.9091 64.6332C17.2851 64.5053 17.6611 64.6933 18.0747 64.6332C18.476 64.7605 18.9068 64.7605 19.3081 64.6332C19.7318 64.6968 20.1627 64.6968 20.5865 64.6332C21.0219 64.772 21.4897 64.772 21.9251 64.6332C22.3839 64.558 22.8426 64.6332 23.3164 64.6332C23.7902 64.6332 24.264 64.5805 24.7453 64.6332C25.2407 64.5245 25.7538 64.5245 26.2493 64.6332C26.7501 64.5999 27.2526 64.5999 27.7534 64.6332C28.2718 64.603 28.7916 64.603 29.3101 64.6332C29.829 64.588 30.3629 64.8437 30.8969 64.6332C31.4383 64.6332 31.9798 64.6332 32.5212 64.6332C33.0718 64.6783 33.6251 64.6783 34.1757 64.6332C34.7272 64.7834 35.3088 64.7834 35.8603 64.6332C36.4184 64.588 36.9792 64.588 37.5373 64.6332C38.0938 64.6332 38.6428 64.6332 39.1918 64.6332C39.7407 64.6332 40.2822 64.7234 40.8161 64.6332C41.3501 64.5429 41.884 64.7309 42.4104 64.6332C42.9257 64.5466 43.4519 64.5466 43.9671 64.6332C44.4646 64.7215 44.9737 64.7215 45.4712 64.6332C45.9675 64.588 46.4639 64.3399 46.9753 64.6332C47.4641 64.558 47.9379 64.776 48.4116 64.6332C48.8779 64.8512 49.3442 64.6332 49.7954 64.6332C50.239 64.7007 50.6904 64.7007 51.134 64.6332C51.562 64.5992 51.992 64.5992 52.42 64.6332C52.8336 64.5053 53.2472 64.7986 53.6458 64.6332C54.0444 64.6332 54.4354 64.6332 54.819 64.6332C55.195 64.3323 55.571 64.6332 55.9244 64.6332C56.2779 64.6332 56.6313 64.4376 56.9698 64.6332C57.3082 64.4075 57.6391 64.6332 57.9474 64.6332C58.2557 64.6332 58.5641 64.5429 58.8573 64.6708C59.1506 64.5053 59.4289 64.7535 59.6921 64.6708C59.9553 64.776 60.211 64.6708 60.4441 64.6708C60.6696 64.6215 60.903 64.6215 61.1285 64.6708H61.7226C62.3189 64.7124 62.9025 64.8628 63.4447 65.1145Z" fill="#5D270D"/>
</svg>
