<svg width="72" height="72" viewBox="0 0 72 72" fill="none" xmlns="http://www.w3.org/2000/svg">
<path d="M23.5491 30.7109C23.6075 30.7777 23.5491 30.9695 23.3573 31.2698L23.2572 31.4283C23.2342 31.4959 23.1939 31.5563 23.1404 31.6035C22.9986 31.6035 23.1904 31.8705 22.9986 31.7954C22.8067 31.7203 22.8818 31.9038 22.8484 31.9956C22.8151 32.0873 22.6649 32.0707 22.6732 32.2208C22.6816 32.371 22.3479 32.1708 22.4897 32.4544C22.4546 32.5613 22.38 32.6508 22.2812 32.7047C22.081 32.6546 22.1227 32.8632 22.0643 32.9633C21.8307 32.8882 21.814 33.0466 21.8307 33.2385C21.6806 33.1718 21.5971 33.1718 21.5554 33.2385C21.5414 33.2762 21.5414 33.3176 21.5554 33.3553C21.5523 33.383 21.5523 33.411 21.5554 33.4387C21.5518 33.4552 21.5518 33.4723 21.5554 33.4888C21.5554 33.4888 21.5137 33.4888 21.4804 33.4888C21.447 33.4888 21.4804 33.4888 21.4804 33.5555C21.4804 33.6222 21.4804 33.6223 21.4303 33.6389H21.497C21.7139 33.6389 21.6639 33.639 21.497 33.7057C21.6305 33.7057 21.6555 33.664 21.6555 33.7057C21.6282 33.729 21.6056 33.7573 21.5888 33.7891H21.7056C21.789 33.7891 21.8641 33.8392 21.8557 33.9559C21.8474 34.0727 22.106 34.1395 22.1894 34.2729C22.2728 34.4064 22.2812 34.6316 22.5398 34.5982C22.7984 34.5649 22.8568 34.7401 22.8901 34.9403C23.1654 34.8902 23.2155 35.0821 23.2488 35.2823C23.2809 35.3087 23.309 35.3396 23.3322 35.3741C23.3322 35.3741 23.3322 35.4241 23.3823 35.3741C23.3823 35.3741 23.3823 35.3741 23.3823 35.4241C23.3823 35.4241 23.3823 35.4991 23.3823 35.4908C23.3823 35.4825 23.3823 35.4908 23.3823 35.3741C23.3823 35.2573 23.3823 35.4491 23.5325 35.2322C23.7994 35.2322 23.716 34.9486 23.8828 34.8902C24.0496 34.8318 24.2081 34.7484 24.2332 34.5565C24.3027 34.4044 24.4282 34.2849 24.5835 34.2229C24.4584 33.8809 24.8588 34.0644 24.9172 33.9059C24.9581 33.9072 24.9985 33.8958 25.0328 33.8735C25.0671 33.8511 25.0937 33.8187 25.1091 33.7807C25.1316 33.7493 25.1511 33.7157 25.1675 33.6806C25.1675 33.6806 25.1675 33.6806 25.2342 33.6806C25.3009 33.6806 25.3176 33.6806 25.2342 33.6806H25.2759C25.1508 33.6806 25.1925 33.6806 25.2258 33.6806C25.2592 33.6806 25.2926 33.6223 25.2258 33.6306C25.1591 33.6389 25.1675 33.6306 25.1675 33.5305C25.1722 33.5085 25.1722 33.4857 25.1675 33.4637C25.1675 33.4637 25.1675 33.4137 25.1007 33.397C25.0351 33.3798 24.971 33.3575 24.9089 33.3303C24.8421 33.2219 24.6336 33.2635 24.6753 33.055C24.717 32.8465 24.6086 32.7964 24.4584 32.7964C24.3082 32.7964 24.5668 32.3793 24.2499 32.5462C24.1331 32.5462 24.2999 32.2125 24.0663 32.3126C23.8328 32.4127 23.9495 32.1624 23.8912 32.0874C23.8328 32.0123 23.791 31.9455 23.741 31.8871C23.2989 31.2865 23.0987 30.8945 23.1988 30.8027C23.2989 30.7109 23.7744 30.9529 24.4834 31.4951C24.5585 31.5535 24.7504 31.4951 24.7087 31.6703C24.6669 31.8455 24.9422 31.6703 24.9422 31.8621C25.1841 31.762 25.1174 31.9706 25.1925 32.0623C25.2676 32.1541 25.3009 32.2625 25.4511 32.2792C25.6012 32.2959 25.5679 32.4961 25.7264 32.5128C25.7195 32.5491 25.7221 32.5865 25.7337 32.6216C25.7454 32.6566 25.7658 32.6881 25.7931 32.713H25.8849H26.0183C26.0311 32.768 26.0556 32.8195 26.0902 32.8642C26.1247 32.9088 26.1685 32.9455 26.2185 32.9716C26.3281 33.0264 26.4292 33.0967 26.5188 33.1802C26.5188 33.2969 26.5188 33.372 26.644 33.447C26.7757 33.5325 26.9122 33.6105 27.0527 33.6806L27.1361 33.7307C27.0685 33.8234 26.9869 33.9049 26.8942 33.9726C26.8016 34.0402 26.7199 34.1219 26.6523 34.2145C26.5507 34.2963 26.4609 34.3918 26.3854 34.4981C26.3045 34.6027 26.2121 34.6978 26.1101 34.7818C26.113 34.8123 26.113 34.843 26.1101 34.8735C26.115 34.8927 26.115 34.9128 26.1101 34.9319C26.0975 34.9689 26.0776 35.0029 26.0517 35.032C26.0251 35.0642 25.992 35.0904 25.9547 35.1091C25.9173 35.1278 25.8765 35.1385 25.8348 35.1405C25.7764 35.299 25.6263 35.3657 25.5178 35.4825C25.4094 35.5992 25.2842 35.6994 25.1925 35.8245C25.1007 35.9496 24.7921 35.8829 24.8505 36.1748C24.7587 36.3083 24.5919 36.3834 24.5084 36.5335L24.4 36.6003H24.35L24.2665 36.6837C24.1489 36.7928 24.0452 36.9161 23.9579 37.0507C23.8849 37.0453 23.8118 37.0604 23.747 37.0943C23.6821 37.1282 23.628 37.1796 23.5908 37.2426C23.4719 37.3995 23.3633 37.5639 23.2655 37.7348C23.0041 37.5455 22.7758 37.3144 22.5898 37.0507C22.4672 36.9488 22.3502 36.8402 22.2395 36.7254L22.156 36.6336V36.5919L22.081 36.4918C21.9058 36.4251 21.9141 36.1832 21.7306 36.1415C21.5471 36.0998 21.5805 35.8329 21.3969 35.7912C21.2134 35.7494 21.0883 35.641 21.0633 35.4491C21.0382 35.2572 20.9965 35.0737 20.7463 35.1071C20.6795 35.1071 20.5628 35.1071 20.4877 35.0404C20.4126 34.9736 20.4209 35.0403 20.4126 34.9653C20.4086 34.9404 20.4086 34.9151 20.4126 34.8902C20.4126 34.8902 20.4126 34.7985 20.4126 34.7484C20.3008 34.6736 20.2114 34.5698 20.154 34.4481C20.127 34.3869 20.0879 34.3318 20.0392 34.2859C19.9905 34.2401 19.9331 34.2044 19.8704 34.1811C19.8704 34.0643 19.8704 33.9976 19.7619 33.9225C19.6535 33.8475 19.52 33.7808 19.4199 33.6973L19.47 33.6473L19.812 33.4053C19.9003 33.3402 19.9671 33.2501 20.0038 33.1468C20.0038 33.0383 20.129 32.9632 20.2291 32.8965C20.334 32.8427 20.4275 32.7691 20.5044 32.6796H20.6045C20.6795 32.6796 20.7546 32.6796 20.7379 32.5545C20.8547 32.4878 20.8964 32.371 21.0132 32.3209C20.8631 32.0039 21.1801 32.1624 21.2802 32.104C21.3803 32.0456 21.2802 31.7954 21.5221 31.9038C21.422 31.6536 21.6472 31.737 21.7556 31.712C21.8641 31.687 21.8224 31.5034 21.9809 31.5451C21.9225 31.3533 22.1727 31.4867 22.1894 31.3866C22.3312 31.3866 22.3062 31.2782 22.3813 31.2532C22.391 31.215 22.4139 31.1815 22.446 31.1586C22.478 31.1357 22.5172 31.1249 22.5565 31.128L22.7149 31.0279C23.2822 30.711 23.4824 30.6442 23.5491 30.7109Z" fill="#5D270D"/>
<path d="M48.7667 30.711C48.8334 30.7778 48.7667 30.9696 48.5831 31.2699L48.483 31.4284C48.457 31.4944 48.4172 31.5542 48.3663 31.6036C48.2244 31.6036 48.4163 31.8706 48.2244 31.7955C48.0326 31.7204 48.1077 31.9039 48.0743 31.9957C48.0409 32.0874 47.8908 32.0708 47.8991 32.2209C47.9075 32.3711 47.5738 32.1709 47.7156 32.4545C47.6777 32.5599 47.6039 32.6485 47.507 32.7048C47.3068 32.6547 47.3485 32.8633 47.2902 32.9634C47.0566 32.8883 47.0399 33.0467 47.0566 33.2386C46.9064 33.1719 46.823 33.1719 46.7813 33.2386C46.7672 33.2763 46.7672 33.3177 46.7813 33.3554C46.7781 33.3831 46.7781 33.4111 46.7813 33.4388C46.7777 33.4553 46.7777 33.4724 46.7813 33.4889C46.7813 33.4889 46.7396 33.4889 46.7062 33.4889C46.6729 33.4889 46.6645 33.4889 46.7062 33.5556C46.7479 33.6223 46.7062 33.6224 46.6478 33.639H46.7229C46.9398 33.639 46.8897 33.6391 46.7229 33.7058C46.848 33.7058 46.8814 33.6641 46.8814 33.7058C46.8527 33.73 46.8274 33.7581 46.8063 33.7892H46.848H46.9648C47.0399 33.7892 47.1233 33.8393 47.115 33.956C47.1066 34.0728 47.3652 34.1396 47.4486 34.273C47.5321 34.4065 47.5404 34.6317 47.799 34.5983C48.0576 34.565 48.116 34.7402 48.1494 34.9404C48.4246 34.8903 48.4747 35.0822 48.4997 35.2824C48.5363 35.3063 48.5675 35.3376 48.5915 35.3742C48.5915 35.3742 48.5915 35.4242 48.6415 35.3742C48.6415 35.3742 48.6415 35.3742 48.6415 35.4242C48.6415 35.4242 48.6415 35.4992 48.6916 35.4909C48.7416 35.4826 48.6916 35.4909 48.6916 35.3742C48.6916 35.2574 48.6916 35.4492 48.8334 35.2323C49.1087 35.2323 49.0253 34.9487 49.1921 34.8903C49.3589 34.8319 49.5091 34.7485 49.5424 34.5566C49.5758 34.3648 49.7093 34.273 49.8928 34.223C49.7677 33.881 50.1681 34.0645 50.2265 33.906C50.2672 33.9061 50.307 33.8944 50.3411 33.8721C50.3752 33.8499 50.4021 33.8181 50.4183 33.7808C50.4409 33.7494 50.4604 33.7158 50.4767 33.6807H50.5185C50.5185 33.6807 50.5184 33.6807 50.5852 33.6807C50.6519 33.6807 50.6603 33.6807 50.5852 33.6807C50.5852 33.6807 50.5852 33.6807 50.6269 33.6807C50.5018 33.6807 50.5435 33.6807 50.5768 33.6807C50.6102 33.6807 50.6436 33.6307 50.5768 33.6307C50.5101 33.6307 50.5185 33.6307 50.5185 33.5306C50.5238 33.5087 50.5238 33.4858 50.5185 33.4638C50.5185 33.4638 50.5185 33.4138 50.4517 33.3971C50.3861 33.3799 50.322 33.3576 50.2598 33.3304C50.1931 33.222 49.9846 33.2636 50.0263 33.0551C50.068 32.8466 49.9595 32.7965 49.8094 32.7965C49.6592 32.7965 49.9178 32.3794 49.6008 32.5463C49.4841 32.5463 49.6509 32.2126 49.4173 32.3127C49.1838 32.4128 49.3005 32.1625 49.2422 32.0875C49.1838 32.0124 49.142 31.9456 49.092 31.8872C48.6499 31.2866 48.4497 30.8946 48.5414 30.8028C48.6332 30.711 49.1254 30.953 49.8344 31.4952C49.9095 31.5536 50.1014 31.4952 50.0596 31.6704C50.0179 31.8456 50.2932 31.6704 50.2932 31.8622C50.5351 31.7621 50.4684 31.9707 50.5435 32.0624C50.6186 32.1542 50.6519 32.2626 50.8021 32.2793C50.9522 32.296 50.9189 32.4962 51.0774 32.5129C51.0695 32.5485 51.0707 32.5855 51.0809 32.6204C51.0911 32.6554 51.11 32.6873 51.1357 32.7131H51.2359H51.3693C51.3821 32.7681 51.4066 32.8196 51.4412 32.8643C51.4757 32.9089 51.5195 32.9456 51.5695 32.9717C51.6791 33.0265 51.7802 33.0968 51.8698 33.1803C51.8698 33.297 51.8698 33.3721 51.995 33.4471C52.1267 33.5326 52.2632 33.6106 52.4037 33.6807L52.4871 33.7308C52.4173 33.8215 52.336 33.9028 52.2452 33.9727C52.1506 34.038 52.0687 34.12 52.0033 34.2146C51.8997 34.2942 51.8095 34.39 51.7364 34.4982C51.6555 34.6028 51.5631 34.6979 51.4611 34.7819C51.4504 34.8138 51.4364 34.8446 51.4194 34.8736C51.4243 34.8928 51.4243 34.9129 51.4194 34.932C51.4068 34.969 51.3869 35.003 51.361 35.0321C51.3343 35.0643 51.3013 35.0905 51.264 35.1092C51.2266 35.1279 51.1858 35.1386 51.1441 35.1406C51.0857 35.2991 50.9355 35.3658 50.8271 35.4826C50.7187 35.5993 50.5935 35.6995 50.5018 35.8246C50.41 35.9497 50.1014 35.883 50.1597 36.1749C50.068 36.3168 49.9012 36.3835 49.8094 36.5336L49.7093 36.6004H49.6592L49.5758 36.6755C49.4577 36.7865 49.3515 36.9095 49.2588 37.0425C49.1861 37.0389 49.1137 37.0548 49.0492 37.0885C48.9847 37.1222 48.9303 37.1726 48.8918 37.2344C48.7917 37.3595 48.6916 37.543 48.5748 37.7265C48.3107 37.5377 48.0796 37.3066 47.8908 37.0425C47.774 36.9424 47.6572 36.8256 47.5487 36.7172L47.4653 36.6254L47.4236 36.5837L47.3486 36.4836C47.1734 36.4169 47.1817 36.175 46.9982 36.1332C46.8147 36.0915 46.848 35.8246 46.6562 35.7829C46.4643 35.7412 46.3559 35.6327 46.3308 35.4409C46.3058 35.249 46.2641 35.0655 46.0139 35.0989C45.9388 35.0989 45.8303 35.0989 45.7553 35.0321C45.6802 34.9654 45.6885 35.0321 45.6802 34.9571C45.6761 34.9322 45.6761 34.9068 45.6802 34.882C45.6765 34.8348 45.6765 34.7874 45.6802 34.7402C45.5641 34.6703 45.4735 34.565 45.4216 34.4398C45.3945 34.3786 45.3555 34.3235 45.3068 34.2777C45.2581 34.2318 45.2007 34.1962 45.138 34.1729C45.138 34.0561 45.138 33.9894 45.0295 33.9143C44.9211 33.8393 44.7876 33.7725 44.6875 33.6891L44.7375 33.639L45.0796 33.3971C45.1679 33.3319 45.2347 33.2419 45.2714 33.1385C45.2714 33.0301 45.3966 32.955 45.4967 32.8883C45.6016 32.8345 45.6951 32.7608 45.7719 32.6714H45.872C45.9471 32.6714 46.0222 32.6714 46.0055 32.5463C46.114 32.4795 46.164 32.3627 46.2808 32.3127C46.1306 31.9957 46.4476 32.1542 46.5394 32.0958C46.6312 32.0374 46.5394 31.7871 46.7896 31.8956C46.6895 31.6453 46.9064 31.7288 47.0232 31.7037C47.14 31.6787 47.0816 31.4952 47.2484 31.5369C47.1817 31.345 47.4403 31.4785 47.457 31.3784C47.4737 31.2783 47.5738 31.27 47.6489 31.2449C47.655 31.2065 47.6759 31.172 47.707 31.1487C47.7381 31.1253 47.7771 31.115 47.8157 31.1198L47.9742 31.0197C48.5164 30.711 48.7166 30.6443 48.7667 30.711Z" fill="#5D270D"/>
<path d="M18.9947 19.1551C18.9947 19.2135 18.4775 19.2219 17.5181 19.4137C16.9324 19.5293 16.3596 19.7025 15.8081 19.9309C15.0659 20.2523 14.3679 20.6672 13.731 21.1655C13.2065 21.5612 12.7256 22.0113 12.2962 22.5085C11.8296 23.0844 11.4164 23.7014 11.0616 24.3521C10.8374 24.6904 10.6842 25.0707 10.6111 25.4699C10.537 25.8842 10.4195 26.2896 10.2607 26.6794C10.1429 27.1066 10.0757 27.5462 10.0605 27.9891C10.0605 28.1059 10.0605 28.2144 10.0605 28.3312C10.0605 28.4479 10.0605 28.5564 10.0605 28.6815C10.0605 28.8066 10.0605 29.1653 10.0605 29.4072C10.1022 30.3916 9.97712 31.4176 10.0605 32.477C10.144 33.5364 9.7936 34.6459 10.0605 35.8138C10.0605 36.1558 10.0605 36.4978 10.0605 36.8482V37.382H10.9948C12.2412 37.486 13.494 37.486 14.7403 37.382C16.0517 37.5695 17.383 37.5695 18.6943 37.382H18.8195H18.8862H19.0113L19.3033 37.4488C19.5171 37.4646 19.7318 37.4646 19.9456 37.4488H20.0708L19.9373 37.332L19.6453 37.1067C19.482 36.9848 19.3022 36.8866 19.1114 36.8148L18.8862 36.5812L18.5359 36.2309L17.8518 35.5051L17.1428 34.7961L16.6089 34.2789C16.4087 34.0786 16.2001 33.8785 15.9749 33.6783L16.3419 33.2779L17.001 32.6105L17.3847 32.2101L18.1688 31.3759C18.6943 30.842 19.2282 30.2998 19.7871 29.7743C20.2456 29.1892 20.7386 28.6321 21.2636 28.1059C21.5222 27.839 21.7975 27.5804 22.0978 27.3218L22.3231 27.1216L22.7068 26.7712L23.4409 26.0955L23.6828 26.3624C23.933 26.5793 24.2 26.8046 24.4669 27.0548L24.9674 27.497C25.2677 27.7639 25.5597 28.0392 25.8433 28.3312C26.4022 28.9067 26.9444 29.5157 27.5117 30.133C27.9861 30.6671 28.4931 31.1714 29.0299 31.6428L29.8641 32.3686L29.9642 32.4687L30.0977 32.5938L30.4564 32.9442L31.1571 33.6616C30.8484 33.9619 30.5398 34.2538 30.2228 34.4957L29.6722 35.0547L29.2218 35.5051L28.3292 36.4144L27.9455 36.8148L27.8704 36.8899L27.6869 37.0567H27.8036C27.8561 37.0661 27.9097 37.0661 27.9621 37.0567H28.4793C29.3623 37.0716 30.2454 37.0326 31.1237 36.9399C32.9005 36.8899 34.694 36.8148 36.5042 36.9399C38.3296 36.7647 40.1677 36.7647 41.9931 36.9399C42.4519 36.9399 42.9191 36.9399 43.3779 36.9399H44.2121C44.312 36.948 44.4124 36.948 44.5124 36.9399L44.4456 36.8816C44.4034 36.846 44.3554 36.8178 44.3038 36.7981C44.3038 36.7981 44.3038 36.7564 44.2538 36.7314L43.9701 36.4561L43.136 35.672L42.3018 34.8378L41.7095 34.2539L40.9504 33.4864L41.7345 32.7189L42.1183 32.3436L42.3351 32.1517C43.7453 30.8861 45.0874 29.5468 46.3559 28.1393C46.6284 27.8167 46.9065 27.5081 47.1901 27.2133L47.7907 26.6127L48.6249 25.7786L49.6426 26.8296L50.2349 27.4552C50.5852 27.8223 50.9439 28.1894 51.3193 28.5397C51.9041 29.2496 52.5428 29.9133 53.2296 30.525L54.2306 31.451L54.7228 31.9265L54.9564 32.1684L55.2483 32.477L56.266 33.4864L55.4986 34.2372L55.1232 34.6125L54.9146 34.8044L54.0805 35.6386C53.8052 35.9055 53.5299 36.1725 53.2463 36.4728L53.0461 36.673C53.0411 36.6978 53.0411 36.7233 53.0461 36.7481L52.9877 36.8232H53.1795H53.8469C54.289 36.8232 54.7228 36.8232 55.1566 36.8732C56.8833 36.5395 58.5934 36.9566 60.2868 36.8732C60.6705 36.8732 61.0626 36.9149 61.4463 36.9233H61.9635V36.7481V36.2225C61.9635 35.7832 61.9635 35.3411 61.9635 34.8962C61.8968 33.2278 62.1137 31.6428 61.9635 30.0579C61.9635 29.6575 61.9635 29.2237 61.9635 28.865C61.9635 28.6731 61.9635 28.473 61.9635 28.2811C61.9635 28.0892 61.9635 27.914 61.9635 27.7305C61.8957 27.0176 61.7814 26.3098 61.6215 25.6117C61.3212 24.961 61.0626 24.3104 60.7289 23.6931C60.4121 23.0617 59.9791 22.4957 59.4526 22.0247C58.966 21.5446 58.4258 21.1219 57.8426 20.7651C57.2707 20.4289 56.6672 20.1495 56.0408 19.9309C55.4524 19.6136 54.7986 19.4366 54.1305 19.4137C53.9666 19.4055 53.8023 19.4055 53.6383 19.4137H53.1378C52.7958 19.4137 52.4621 19.4137 52.1201 19.4137C50.8032 19.489 49.483 19.489 48.1661 19.4137C46.9185 19.3473 45.6682 19.3473 44.4206 19.4137C43.2027 19.4137 42.0265 19.0383 40.892 19.4137C39.7492 19.4805 38.648 19.1551 37.5553 19.4137C36.5351 19.5269 35.5056 19.5269 34.4855 19.4137H31.6576C27.6201 19.3553 24.4335 19.2969 22.2647 19.2302C21.1489 19.2492 20.0334 19.1822 18.9279 19.03C19.271 18.9414 19.6249 18.9021 19.979 18.9132C20.6714 18.9132 21.6891 18.8464 23.0154 18.8047C25.6765 18.738 29.5638 18.6713 34.4771 18.6129C35.4985 18.5248 36.5256 18.5248 37.5469 18.6129C38.6063 18.6129 39.7075 18.4711 40.8837 18.6129C42.0563 18.4832 43.2396 18.4832 44.4123 18.6129C45.6218 18.6129 46.9148 18.6796 48.1578 18.6129C49.4007 18.5462 50.7604 18.6796 52.1118 18.6129C52.4538 18.6129 52.7875 18.6713 53.1295 18.688H53.6634C53.8469 18.688 54.0221 18.688 54.2056 18.688C54.9471 18.7432 55.6833 18.8547 56.4078 19.0216C57.1002 19.3303 57.7926 19.6389 58.4599 20.0143C59.143 20.3885 59.7717 20.8545 60.3285 21.3991C60.8123 22.0331 61.2878 22.6587 61.7216 23.3177C62.1748 23.99 62.5551 24.7087 62.8561 25.4616C63.1331 26.2483 63.2906 27.0722 63.3232 27.9057C63.3232 28.1143 63.3232 28.3312 63.3232 28.5314C63.3232 28.7316 63.3232 28.9234 63.3232 29.1153C63.3232 29.5157 63.3232 29.9495 63.3232 30.3082C63.3232 31.8931 63.3816 33.5114 63.3232 35.1464C63.3566 35.5913 63.3816 36.0334 63.3983 36.4728V38.6834H61.5297C61.146 38.6834 60.7539 38.6834 60.3702 38.6166C58.7018 38.6917 56.9667 38.6166 55.24 38.6166C54.8062 38.6166 54.4058 38.6166 53.9386 38.6166H51.9867H49.5508H49.4424L49.5508 38.5082L49.7677 38.2913L50.2098 37.8575L51.044 36.9817L51.7864 36.2309L52.1535 35.8722L52.362 35.6803L53.1962 34.8962C53.4798 34.6376 53.7635 34.379 54.0304 34.1121L54.239 33.9119L54.2807 33.8535C54.3113 33.8265 54.3343 33.792 54.3474 33.7534C54.2966 33.7148 54.2358 33.6917 54.1722 33.6866L54.1138 33.6282L53.9887 33.5114L53.7468 33.2695L53.263 32.7857L52.3036 31.818C51.6613 31.159 51.019 30.5084 50.3516 29.8744L49.359 28.6732L48.8752 28.181L48.7917 28.0892L48.4163 28.4646L47.5822 29.3739C46.1303 30.5949 44.7878 31.9403 43.5697 33.3946L43.3779 33.6032L43.5697 33.7867L44.4039 34.6209C45.088 35.3216 45.772 36.014 46.4477 36.7147L47.3986 37.649L47.8741 38.1161L48.116 38.358L48.2328 38.4748H43.4947H42.1099C40.258 38.5499 38.4312 38.3747 36.621 38.4748C34.8108 38.5749 33.0173 38.3664 31.2405 38.4748C30.3562 38.4748 29.472 38.5416 28.5961 38.5416H27.7619H26.5107H25.3011H24.7255H24.4419C24.3668 38.5416 24.1749 38.5415 24.3334 38.4665C24.9007 37.8992 25.493 37.332 26.0685 36.7981L26.9027 35.9639L27.1947 35.6886L27.4366 35.4718C27.7453 35.1798 28.0539 34.8795 28.3459 34.5792L28.7796 34.1121L28.9882 33.8701L29.0382 33.8034V33.7617L29.0799 33.6783H28.9965L28.9465 33.6366L28.838 33.5448C28.5711 33.3029 28.3042 33.0693 28.0038 32.819C27.4775 32.3308 27.0074 31.7852 26.6024 31.1924C25.9935 30.6418 25.4429 30.0329 24.934 29.4406C24.6671 29.1486 24.3918 28.8483 24.0999 28.6064L23.883 28.3979L23.7745 28.2978L23.7245 28.2477L23.6077 28.1893V28.1226C23.5665 28.113 23.5237 28.113 23.4826 28.1226L23.4075 28.1727L23.2073 28.3645C22.932 28.6231 22.6734 28.8984 22.3731 29.1987C21.8643 29.7409 21.3721 30.3082 20.8549 30.8671C20.3377 31.426 19.7371 31.9014 19.1865 32.427C18.9112 32.6939 18.6443 32.9525 18.3523 33.2195C18.2272 33.3529 18.0937 33.4864 17.9686 33.6282C17.9659 33.6476 17.9659 33.6672 17.9686 33.6866V33.745L18.0687 33.8284H18.1104L18.2272 33.9536C18.4691 34.1955 18.6944 34.4374 18.9279 34.6876L19.6036 35.4134L19.954 35.7721L20.4295 36.2309C20.8883 36.648 21.3471 37.065 21.7641 37.5238C21.9727 37.7324 22.1729 37.9493 22.3648 38.1495L22.6484 38.4498H22.1979C21.5723 38.4498 20.98 38.4081 20.4128 38.4081H19.5786H19.1698H19.003H18.8779C17.5265 38.4081 16.2085 38.4081 14.9238 38.4081C13.6392 38.7417 12.4213 38.4081 11.1783 38.4081H10.3442H9.15128C9.15128 38.1245 9.15128 37.8325 9.15128 37.5739C9.15128 37.4237 9.15128 37.2736 9.15128 37.1318V36.8148C9.15389 36.4673 9.1902 36.1209 9.25972 35.7804C9.09767 34.6741 9.09767 33.55 9.25972 32.4437C9.3348 31.3843 9.15962 30.3582 9.25972 29.3739C9.21684 29.1343 9.19451 28.8915 9.19299 28.6481C9.19299 28.5313 9.19299 28.4062 9.19299 28.2811C9.19299 28.156 9.19299 28.0308 9.19299 27.9057C9.25972 27.4136 9.38485 26.9547 9.44324 26.4876C9.50164 26.0205 9.73521 25.6534 9.86868 25.1863C10.009 24.7782 10.182 24.3821 10.3859 24.0017C10.7264 23.2759 11.1988 22.6197 11.779 22.0664C12.2524 21.5561 12.7812 21.1 13.3556 20.7067C14.0598 20.2157 14.8291 19.8255 15.6412 19.5472C16.2279 19.3436 16.8348 19.2037 17.4514 19.1301C17.9623 19.0343 18.4872 19.0428 18.9947 19.1551Z" fill="#5D270D"/>
<path d="M65.0747 47.6017C65.4678 47.5065 65.8718 47.4644 66.276 47.4765L67.7358 47.4181L69.5126 47.3598C69.5126 47.1179 69.5126 46.8509 69.5126 46.5756C69.5126 45.9667 69.5126 45.3076 69.4709 44.6069C69.4292 43.9062 69.4208 43.1554 69.4709 42.363C69.5108 41.9569 69.4968 41.5474 69.4292 41.1451C69.4001 40.9377 69.3834 40.7288 69.3791 40.5195V40.3526C69.3791 40.2942 69.3791 40.2358 69.3791 40.1774C69.3791 40.119 69.3791 39.8604 69.4208 39.7186C69.4163 39.6603 69.4163 39.6018 69.4208 39.5435L69.8129 39.3182L69.9047 39.2515H69.9631L70.0715 39.1597C70.2237 39.0225 70.3532 38.862 70.4552 38.6842C70.6897 38.3611 70.8597 37.9957 70.9557 37.6082C71.0732 37.1848 71.1239 36.7458 71.1059 36.3068C71.0922 35.8501 70.9537 35.4058 70.7055 35.0222C70.3885 34.6801 70.1716 34.2964 69.8713 33.9711C69.7055 33.7998 69.5069 33.6636 69.2874 33.5707C69.0629 33.4788 68.817 33.4528 68.5783 33.4956C68.1093 33.4855 67.645 33.5915 67.2269 33.8043C66.7878 34.0314 66.4144 34.3674 66.1425 34.7803C65.7861 35.1808 65.5848 35.6957 65.5752 36.2317C65.5627 36.3649 65.5627 36.499 65.5752 36.6321C65.5672 36.6986 65.5672 36.7659 65.5752 36.8324V37.0659V37.5664V38.0336C65.4666 38.6614 65.4247 39.2989 65.4501 39.9355C65.4501 40.2525 65.4501 40.5778 65.5002 40.9031L65.5502 41.387V41.5121C65.5502 41.5121 65.5502 41.5121 65.5502 41.5788V41.679V42.0877C65.5502 42.3714 65.4751 42.6383 65.4418 42.9219C64.9663 42.8719 64.5408 42.8468 64.1321 42.8301C63.8404 42.8134 63.5479 42.8134 63.2562 42.8301C62.6616 42.8569 62.0701 42.9322 61.4877 43.0554C60.1113 43.0554 58.7016 42.9469 57.2668 43.0554C55.832 43.1638 54.3638 43.1304 52.8706 43.0554C51.3579 43.239 49.8286 43.239 48.316 43.0554C46.7491 43.2181 45.1697 43.2181 43.6028 43.0554C42.0095 42.9386 40.3912 43.2472 38.7479 43.0554C37.0795 43.0554 35.4111 43.1054 33.7428 43.0554C32.0414 42.9094 30.3306 42.9094 28.6292 43.0554C26.8869 43.143 25.1412 43.143 23.3989 43.0554C21.621 43.2347 19.8296 43.2347 18.0518 43.0554C16.2583 43.0554 14.4481 42.9302 12.6212 43.0554C11.7119 43.0554 10.811 43.0554 9.90177 43.0554H8.5337H7.69952C7.26574 43.0554 6.86534 43.0554 6.42322 43.0554V42.9219V41.6289V40.8448C6.42322 40.386 6.42322 39.9272 6.42322 39.4684C6.42322 39.0096 6.42322 38.5425 6.42322 38.0837V37.3996V37.0576V36.6572C6.42837 35.9277 6.2227 35.2121 5.83095 34.5967C5.64767 34.3394 5.41137 34.1244 5.13797 33.9661C4.86456 33.8078 4.56041 33.7099 4.246 33.6791C3.90725 33.5973 3.55136 33.6235 3.2283 33.7542C2.90535 33.8912 2.61947 34.1027 2.39411 34.3715C2.15717 34.6405 1.9732 34.9518 1.85189 35.2891C1.72926 35.6227 1.64801 35.9701 1.60998 36.3235C1.58657 36.8706 1.68932 37.4158 1.91028 37.9168C2.02419 38.1578 2.17009 38.3822 2.34406 38.5841C2.43019 38.6842 2.52511 38.7763 2.62768 38.8594H2.68607C2.74447 38.9095 2.8112 38.9428 2.8696 38.9845L3.25332 39.2181C3.25332 39.3933 3.25332 39.5852 3.25332 39.7687V40.2108C3.25332 40.411 3.25332 40.6196 3.25332 40.8281C3.25332 42.5549 3.33674 44.2566 3.25332 45.9417C3.25332 46.0751 3.30337 46.2086 3.32005 46.3337V46.5339V46.6257L4.15423 46.6841C4.70894 46.7328 5.26598 46.7495 5.8226 46.7341C7.49097 46.876 9.08427 46.7341 10.6859 46.7341C12.2875 46.7341 13.8475 46.8843 15.3907 46.7341C16.9423 46.7341 18.4605 46.634 19.9537 46.7341C21.4469 46.5673 22.9067 46.8676 24.3498 46.7341C25.793 46.6007 27.1944 46.7341 28.5708 46.7341C29.9131 46.8715 31.266 46.8715 32.6083 46.7341C33.889 46.6588 35.1731 46.6588 36.4539 46.7341C37.671 46.7964 38.8905 46.7964 40.1076 46.7341C41.2838 46.6924 42.4266 47.1095 43.5361 46.7341C44.6455 46.6674 45.7216 46.9927 46.756 46.7341C47.7483 46.6211 48.7502 46.6211 49.7424 46.7341H52.4869C56.4242 46.7925 59.5191 46.8509 61.6629 46.9176C62.7454 46.899 63.8276 46.966 64.8996 47.1178C64.5678 47.2059 64.2249 47.2453 63.8818 47.2346C63.2145 47.2346 62.2135 47.3014 60.9205 47.3431C58.3345 47.4098 54.5557 47.4765 49.7758 47.5349C48.7821 47.6188 47.7831 47.6188 46.7894 47.5349C45.7168 47.5895 44.6421 47.5895 43.5695 47.5349C42.4303 47.6645 41.2801 47.6645 40.141 47.5349C38.9564 47.5349 37.7385 47.4682 36.4956 47.5349C35.2526 47.6017 33.993 47.4598 32.6416 47.5349C31.2995 47.3933 29.9463 47.3933 28.6042 47.5349C27.2278 47.3931 25.818 47.5349 24.3832 47.5349C22.9219 47.3807 21.4484 47.3807 19.9871 47.5349C18.4939 47.6183 16.9757 47.5349 15.4241 47.5349C13.8725 47.5349 12.3126 47.585 10.7193 47.5349C9.10013 47.6476 7.47511 47.6476 5.85597 47.5349C5.28873 47.5349 4.72148 47.5349 4.1876 47.5349H1.68505C1.68505 46.7675 1.68505 46.0001 1.68505 45.2243C1.60163 43.5559 1.68505 41.8375 1.68505 40.1107C1.68505 39.9022 1.68505 39.6936 1.68505 39.4851V39.3266C1.68895 39.3101 1.68895 39.293 1.68505 39.2765L1.62666 39.2265C1.47728 39.0952 1.33786 38.953 1.20956 38.801C0.954494 38.4985 0.738679 38.165 0.567246 37.8084C0.236583 37.0917 0.0441333 36.319 0 35.531C0.0411928 34.452 0.481082 33.4266 1.23459 32.6531C1.62176 32.2592 2.08416 31.9471 2.59431 31.7355C3.12377 31.5239 3.69365 31.4327 4.26268 31.4685C4.82579 31.5196 5.37026 31.6963 5.85597 31.9857C6.33045 32.2694 6.74204 32.6469 7.06554 33.0952C7.70783 33.9851 8.02313 35.0695 7.95812 36.165V36.2651V36.3151V36.4153V36.7573C7.95812 36.9825 7.95812 37.2161 7.95812 37.4413C7.95812 37.9001 7.95812 38.3589 7.95812 38.826C7.95812 39.2932 7.95812 39.7437 8.00817 40.2025V40.5528V40.8031C8.0035 40.8307 8.0035 40.8589 8.00817 40.8865H8.09159H9.97685L12.6963 40.9282C14.5232 40.9282 16.3333 40.9282 18.1268 40.9282C19.9203 40.9282 21.7055 41.0366 23.474 40.9282C25.2424 40.8198 26.9775 41.0366 28.7043 40.9282C30.4074 40.8322 32.1147 40.8322 33.8178 40.9282C35.4846 41.0328 37.1562 41.0328 38.8229 40.9282C40.4358 40.7404 42.065 40.7404 43.6779 40.9282C45.2712 40.8448 46.8478 41.095 48.391 40.9282C49.907 41.0449 51.4297 41.0449 52.9457 40.9282C54.41 41.0073 55.8775 41.0073 57.3418 40.9282C58.7766 40.8114 60.1864 40.9866 61.5628 40.9282C62.1512 40.8782 62.7429 40.8782 63.3313 40.9282L64.1655 40.9782C64.2736 40.9905 64.3827 40.9905 64.4908 40.9782C64.4817 40.9051 64.4678 40.8326 64.4491 40.7614V40.0023C64.4491 39.6769 64.4491 39.3516 64.4491 39.0346C64.4491 38.3923 64.4491 37.7583 64.4491 37.1327C64.4074 36.9793 64.3768 36.8232 64.3573 36.6655C64.3533 36.5877 64.3533 36.5097 64.3573 36.4319V36.2568V36.1733V36.0399C64.349 35.9483 64.349 35.8562 64.3573 35.7646C64.3585 35.5831 64.3724 35.4019 64.399 35.2224C64.5333 34.5346 64.8182 33.8851 65.2332 33.3204C65.6057 32.7532 66.0984 32.2747 66.6764 31.919C67.286 31.6721 67.9454 31.5729 68.6006 31.6294C69.2559 31.686 69.8886 31.8967 70.4469 32.2444C70.9081 32.6458 71.2707 33.1482 71.5063 33.7125C71.7487 34.2406 71.9063 34.8036 71.9734 35.3809C72.0454 35.9272 71.9705 36.4829 71.7565 36.9908C71.6773 37.4923 71.4475 37.9578 71.0975 38.3255C70.938 38.5085 70.759 38.6735 70.5637 38.8177L70.4219 38.9261L70.3468 38.9762L70.1966 39.0763C70.1966 39.0763 70.1966 39.118 70.1966 39.143C70.1919 39.2013 70.1919 39.2599 70.1966 39.3182C70.1966 39.3182 70.1966 39.3683 70.1966 39.3933V39.6352C70.1966 39.8466 70.1966 40.0551 70.1966 40.2609C70.1966 40.678 70.1966 41.095 70.1966 41.4787C70.2473 42.2259 70.2473 42.9756 70.1966 43.7227C70.1966 44.4234 70.1966 45.0825 70.1549 45.6914C70.1549 46.1335 70.1549 46.5256 70.1549 46.9593H68.8369H67.9026L66.4428 46.9009C66.03 47.2107 65.5673 47.4477 65.0747 47.6017Z" fill="#5D270D"/>
<path d="M68.2612 35.0613C68.2612 35.1614 68.1694 35.2448 68.0443 35.3449L67.9859 35.4033C67.9859 35.4033 67.9859 35.4701 67.9192 35.4701C67.8524 35.4701 67.9192 35.6953 67.8524 35.5368C67.7857 35.3783 67.794 35.5368 67.7857 35.6119C67.7774 35.6869 67.6856 35.6118 67.7273 35.6953C67.7273 35.7537 67.769 35.7787 67.7273 35.6953C67.7273 35.6369 67.6272 35.6369 67.7273 35.7537C67.8274 35.8704 67.7273 35.8371 67.6773 35.8538C67.5104 35.762 67.6272 35.9121 67.6773 35.9539C67.477 35.8621 67.5271 35.9539 67.6773 36.0623C67.3853 35.9622 67.402 36.0623 67.6773 36.1708C67.6773 36.1708 67.5521 36.2208 67.6773 36.2875C67.8024 36.3543 67.744 36.3626 67.6773 36.396C67.8858 36.4377 67.8691 36.4461 67.6773 36.5044C67.8941 36.5044 67.8107 36.5044 67.6773 36.6129C67.5438 36.7213 67.6773 36.6546 67.719 36.6546C67.7607 36.6546 67.8024 36.6546 67.719 36.713C67.6355 36.7714 67.794 36.7547 67.7857 36.7964C67.7736 36.8344 67.7736 36.8752 67.7857 36.9132C67.7857 36.9132 67.7857 36.9132 67.9108 36.9132C68.0359 36.9132 68.036 36.8548 68.0026 36.9716C68.1527 36.7964 68.1194 36.8882 68.111 37.0216C68.111 37.0216 68.111 37.0216 68.1527 37.0717C68.1945 37.1217 68.1527 37.0717 68.2195 37.0717C68.2862 37.0717 68.2612 37.0717 68.2779 37.0717C68.2945 37.0717 68.2779 37.0717 68.3363 37.0717C68.3947 37.0717 68.3863 37.1384 68.4113 37.1467C68.4364 37.1551 68.4113 37.1468 68.4614 37.0633C68.4614 36.9966 68.5114 36.9799 68.4614 37.0633C68.4614 37.1301 68.5198 37.1134 68.5281 37.0633C68.5365 37.0133 68.6032 37.1217 68.6032 37.0633C68.6032 37.0049 68.6032 36.9632 68.6032 36.9882C68.6032 37.0133 68.745 37.0383 68.695 36.9299C68.6898 36.9051 68.6898 36.8795 68.695 36.8548C68.695 36.8548 68.695 36.8548 68.77 36.8548C68.6532 36.7463 68.6783 36.7464 68.7283 36.763C68.7784 36.7797 68.8701 36.8047 68.8451 36.763C68.8201 36.7213 68.9202 36.763 68.9118 36.763C68.9035 36.763 68.9118 36.7046 68.9118 36.6963C68.9118 36.6879 68.9119 36.6963 68.9619 36.6963C69.012 36.6963 69.0203 36.6963 68.9619 36.6295C68.9035 36.5628 68.8618 36.5545 68.9619 36.5211C68.8785 36.5211 68.9119 36.5211 68.9619 36.471C69.012 36.421 69.0453 36.421 68.9619 36.4127C68.8785 36.4044 68.9619 36.346 68.9619 36.2959C68.9619 36.2458 69.0787 36.2125 69.0537 36.2042H68.9452C68.9452 36.1541 68.7867 36.2041 68.9452 36.0957C68.9452 36.0957 69.0036 35.9539 68.9452 35.9956C68.8868 36.0373 68.9452 35.9205 69.0036 35.8621C69.062 35.8037 69.0036 35.7787 68.8952 35.8621C68.7867 35.9455 68.8952 35.8121 68.8952 35.7704C68.8952 35.7287 68.8952 35.6953 68.8284 35.7704C68.7617 35.8454 68.8284 35.7119 68.77 35.6869L68.7033 35.6119C68.5031 35.395 68.2862 35.2782 68.2862 35.1364C68.2862 34.9946 68.3613 34.9862 68.5114 34.9362C68.7305 34.8618 68.968 34.8618 69.1871 34.9362C69.2372 34.9362 69.3957 34.836 69.3623 35.0112C69.4124 35.0112 69.5542 35.0112 69.5375 35.1113C69.7627 34.9862 69.6793 35.1864 69.721 35.2448C69.7627 35.3032 69.721 35.4117 69.8878 35.42C70.0547 35.4284 69.8878 35.5952 70.038 35.6286C69.9462 35.7704 70.038 35.8288 70.1715 35.8788C70.1131 35.9455 70.1715 35.9789 70.1715 36.0206C70.1715 36.0623 70.2549 36.104 70.2632 36.1541C70.063 36.2792 70.2215 36.346 70.3133 36.4544C70.405 36.5628 70.3133 36.6629 70.3133 36.7714C70.3133 36.8798 70.3133 37.0049 70.2549 37.105C70.3216 37.2468 70.3049 37.3887 70.1381 37.4304C70.1381 37.5722 70.0296 37.6556 69.9546 37.7474C69.9545 37.7795 69.946 37.8111 69.9299 37.8389C69.9138 37.8667 69.8906 37.8898 69.8628 37.9059C69.81 37.9409 69.7623 37.983 69.721 38.031C69.721 38.0894 69.6042 38.0894 69.5291 38.0977C69.4541 38.1061 69.4124 38.0977 69.4207 38.2729C69.429 38.4481 69.1788 38.3646 69.0787 38.4564C68.9415 38.4528 68.8069 38.4938 68.695 38.5732C68.6032 38.4648 68.5448 38.4481 68.4781 38.4731C68.4113 38.4981 68.3613 38.5648 68.2862 38.6066C68.221 38.6265 68.1512 38.6265 68.086 38.6066L67.8858 38.5399C67.7515 38.5266 67.6211 38.4869 67.5021 38.4231C67.427 38.4231 67.3769 38.373 67.3269 38.323C67.2768 38.2729 67.2435 38.2229 67.1601 38.2312C67.0766 38.2396 67.0349 38.1812 67.0016 38.1228C66.9682 38.0644 66.9432 37.9976 66.8598 37.9976C66.7933 37.9859 66.732 37.9539 66.6846 37.9059C66.658 37.8822 66.638 37.8522 66.6263 37.8186C66.6146 37.785 66.6117 37.749 66.6178 37.714C66.6005 37.6484 66.6005 37.5794 66.6178 37.5138C66.6178 37.4554 66.6178 37.4054 66.4677 37.397C66.3175 37.3887 66.3175 37.3386 66.2675 37.2886C66.2174 37.2385 66.2091 37.1801 66.3509 37.0717C66.2925 37.0717 66.3509 36.9632 66.3509 36.9048C66.3509 36.8464 66.3926 36.788 66.3092 36.738C66.426 36.6713 66.4176 36.6212 66.3926 36.5711C66.3676 36.5211 66.3008 36.471 66.3092 36.421C66.3175 36.3709 66.451 36.2291 66.3592 36.1207C66.2675 36.0123 66.3592 36.0123 66.3592 35.9706C66.3592 35.9288 66.4343 35.8955 66.4343 35.8454C66.4343 35.7954 66.4343 35.7453 66.501 35.7203C66.5678 35.6953 66.6178 35.6702 66.5678 35.5952C66.5177 35.5201 66.6262 35.4283 66.7179 35.3866C66.6012 35.2615 66.6345 35.2198 66.7179 35.2115C66.8014 35.2031 66.8764 35.2115 66.9098 35.2115C66.9432 35.2115 66.9098 35.1364 66.9098 35.0863C66.9098 35.0363 66.9098 35.0112 67.06 35.0863C66.9432 34.8528 67.1434 34.9612 67.2351 34.9862C67.3269 35.0112 67.2852 34.8194 67.4103 34.9111C67.4103 34.7193 67.5605 34.9111 67.5772 34.8694C67.6689 34.9528 67.6773 34.8694 67.7357 34.8694C67.794 34.8694 67.8107 34.8194 67.8691 34.8694H67.9525C68.1694 34.8778 68.2695 34.9779 68.2612 35.0613Z" fill="#5D270D"/>
<path d="M3.94597 35.0646C3.94597 35.1647 3.85421 35.2482 3.72909 35.3483L3.67069 35.4067C3.67069 35.4067 3.67069 35.4734 3.60396 35.4734C3.53722 35.4734 3.60395 35.6986 3.53722 35.5401C3.47049 35.3816 3.47048 35.5402 3.47048 35.6152C3.47048 35.6903 3.37039 35.6152 3.40375 35.6986C3.43712 35.782 3.40375 35.757 3.36204 35.6986C3.32033 35.6402 3.26194 35.6402 3.36204 35.757C3.46214 35.8738 3.36204 35.8404 3.31199 35.8571C3.14516 35.7654 3.26194 35.9155 3.31199 35.9572C3.11179 35.8738 3.1535 35.9572 3.31199 36.0657C3.02837 35.9656 3.04505 36.0657 3.31199 36.1741C3.31199 36.1741 3.18687 36.2242 3.31199 36.2909C3.43712 36.3577 3.37873 36.366 3.31199 36.3994C3.5122 36.4411 3.50386 36.4494 3.31199 36.5162C3.52888 36.5162 3.4538 36.5162 3.31199 36.6163C3.17018 36.7164 3.31199 36.658 3.36204 36.658C3.41209 36.658 3.44546 36.658 3.36204 36.7164C3.27862 36.7748 3.44546 36.758 3.43712 36.7998C3.42878 36.8415 3.38707 36.8915 3.39541 36.9166C3.40375 36.9416 3.43712 36.9166 3.52054 36.9166C3.60396 36.9166 3.654 36.8582 3.62064 36.975C3.77079 36.7998 3.72908 36.8915 3.72074 37.025C3.72074 37.025 3.72074 37.025 3.77079 37.0751C3.82084 37.1251 3.77079 37.0751 3.83753 37.0751C3.90426 37.0751 3.87924 37.0751 3.89592 37.0751C3.9126 37.0751 3.89592 37.0751 3.95431 37.0751C3.97243 37.1035 3.99495 37.1288 4.02105 37.1501C4.02105 37.1501 4.0711 37.1501 4.0711 37.0667C4.0711 36.9833 4.0711 37 4.12115 37.0667C4.1712 37.1334 4.17954 37.0667 4.18788 37.0667C4.19622 37.0667 4.26296 37.1251 4.26296 37.0667C4.26296 37.0083 4.26296 36.9666 4.26296 36.9916C4.26296 37.0166 4.40477 37.0417 4.35472 36.9249C4.34999 36.9029 4.34999 36.8802 4.35472 36.8582C4.35472 36.8582 4.35472 36.8582 4.4298 36.8582C4.31301 36.7497 4.33804 36.7497 4.4298 36.7664C4.52156 36.7831 4.57161 36.8081 4.54658 36.7664C4.52156 36.7247 4.62166 36.7664 4.61332 36.7664C4.60498 36.7664 4.61332 36.708 4.61332 36.6997C4.61332 36.6913 4.61332 36.6997 4.66337 36.6997C4.71342 36.6997 4.72176 36.6996 4.66337 36.6329C4.60497 36.5662 4.66337 36.6329 4.66337 36.5829C4.66337 36.5328 4.66337 36.5411 4.71342 36.5245C4.63 36.5245 4.71342 36.5245 4.71342 36.4661C4.71342 36.4077 4.79684 36.4244 4.71342 36.4161C4.63 36.4077 4.71342 36.3493 4.71342 36.2993C4.71342 36.2492 4.83021 36.2159 4.79684 36.2075C4.76347 36.1992 4.70508 36.2075 4.69674 36.2075C4.68839 36.2075 4.53824 36.2075 4.69674 36.0991C4.69674 36.0991 4.76347 35.9573 4.69674 35.999C4.63 36.0407 4.69674 35.9239 4.75513 35.8655C4.81352 35.8071 4.75513 35.7821 4.64669 35.8655C4.53824 35.9489 4.64669 35.8154 4.64669 35.7737C4.64669 35.732 4.64669 35.6987 4.57995 35.7737C4.51322 35.8488 4.57995 35.7153 4.51321 35.6903C4.49561 35.6615 4.47302 35.6361 4.44648 35.6152C4.25462 35.3983 4.03773 35.2816 4.03773 35.1397C4.03773 34.9979 4.10447 34.9896 4.25462 34.9395C4.47304 34.8612 4.71188 34.8612 4.93031 34.9395C4.9887 34.9395 5.1472 34.8394 5.10549 35.0146C5.15554 35.0146 5.30569 35.0146 5.28901 35.1147C5.50589 34.9812 5.43082 35.1898 5.46418 35.2482C5.49755 35.3066 5.51424 35.4067 5.63937 35.4234C5.7645 35.4401 5.63937 35.5986 5.78952 35.6319C5.69776 35.7737 5.78952 35.8321 5.92299 35.8738C5.8646 35.9406 5.92299 35.9823 5.92299 36.024C5.92299 36.0657 6.00641 36.1074 6.01475 36.1574C5.81454 36.2825 6.01475 36.3493 6.0648 36.4578C6.11485 36.5662 6.0648 36.6663 6.0648 36.7748C6.0648 36.8832 6.0648 37.0083 6.00641 37.1084C6.07314 37.2419 6.05646 37.3837 5.88962 37.4337C5.88962 37.5756 5.78118 37.6506 5.7061 37.7507C5.70602 37.7829 5.69751 37.8144 5.6814 37.8422C5.6653 37.87 5.64217 37.8932 5.61434 37.9092C5.56062 37.9463 5.51037 37.9882 5.46418 38.0343C5.46418 38.0927 5.3474 38.0927 5.28067 38.1011C5.21393 38.1094 5.16388 38.1011 5.17222 38.2679C5.18056 38.4348 4.93031 38.368 4.83021 38.4598C4.69303 38.4562 4.55838 38.4971 4.44648 38.5766C4.35472 38.4681 4.29633 38.4515 4.22959 38.4765C4.1626 38.5164 4.09848 38.561 4.03773 38.6099C3.97249 38.6299 3.90277 38.6299 3.83753 38.6099C3.76824 38.5962 3.70096 38.5739 3.63732 38.5432C3.50298 38.5299 3.37258 38.4902 3.2536 38.4264C3.17852 38.4264 3.12847 38.3764 3.07842 38.3347C3.02837 38.293 2.98666 38.2345 2.91158 38.2429C2.8365 38.2512 2.78645 38.1845 2.75308 38.1261C2.71972 38.0677 2.69469 38.0093 2.61127 38.001C2.54291 37.9876 2.47946 37.9559 2.42775 37.9092C2.40438 37.8836 2.38702 37.8531 2.37692 37.8199C2.36682 37.7867 2.36423 37.7517 2.36936 37.7174C2.35609 37.6541 2.35609 37.5888 2.36936 37.5255C2.36936 37.4588 2.36936 37.4087 2.22755 37.4087C2.08574 37.4087 2.0774 37.342 2.02735 37.3003C1.9773 37.2586 1.96061 37.1835 2.10242 37.0751C2.04403 37.0751 2.10242 36.9666 2.10242 36.9082C2.10242 36.8498 2.10243 36.7914 2.06072 36.7497C2.16916 36.6746 2.16916 36.6246 2.14413 36.5829C2.11911 36.5412 2.05237 36.4828 2.06072 36.4244C2.06906 36.366 2.19418 36.2409 2.11077 36.1241C2.02735 36.0073 2.11077 36.0156 2.11077 35.9739C2.11077 35.9322 2.19418 35.8988 2.19418 35.8488C2.19418 35.7987 2.19418 35.7487 2.26092 35.7237C2.32765 35.6987 2.36936 35.6736 2.31931 35.5985C2.26926 35.5235 2.38605 35.4317 2.46946 35.39C2.35268 35.2649 2.38605 35.2231 2.46946 35.2231C2.55288 35.2231 2.62796 35.2231 2.66967 35.2231C2.71138 35.2231 2.66967 35.1481 2.66967 35.098C2.66967 35.048 2.66967 35.023 2.81148 35.098C2.70304 34.8645 2.90324 34.9729 2.995 34.9979C3.08676 35.023 3.04505 34.8311 3.17018 34.9228C3.17018 34.731 3.32033 34.9229 3.33702 34.8811C3.42878 34.9646 3.42878 34.8811 3.48717 34.8811C3.54556 34.8811 3.57059 34.8311 3.62898 34.8811H3.74577C3.84587 34.8811 3.94597 34.9812 3.94597 35.0646Z" fill="#5D270D"/>
<path d="M11.0782 47.5915C11.17 47.5915 11.2618 47.8501 11.3452 48.334C11.3452 48.4174 11.3452 48.5091 11.3452 48.5926C11.3656 48.6916 11.3656 48.7938 11.3452 48.8928C11.2284 49.0013 11.5704 49.1098 11.3452 49.2265C11.3211 49.2833 11.3087 49.3442 11.3087 49.4059C11.3087 49.4675 11.3211 49.5285 11.3452 49.5852C11.3869 49.7104 11.2701 49.8438 11.3452 49.9773C11.5871 50.1191 11.0866 50.2609 11.3452 50.4027C11.3486 50.4388 11.3486 50.4751 11.3452 50.5112C11.3452 50.5112 11.3452 50.5112 11.3452 50.5612C11.3484 50.5917 11.3484 50.6225 11.3452 50.653C11.2534 50.728 11.2534 50.7781 11.2868 50.7948C11.3202 50.8115 11.3619 50.7948 11.3785 50.7948L11.3285 50.8532C11.3285 50.9366 11.3285 50.9533 11.3785 50.9283C11.4555 50.8976 11.5221 50.8455 11.5704 50.7781C11.5704 50.9283 11.5704 50.995 11.6288 50.9867C11.6455 50.9818 11.6609 50.9733 11.6739 50.9618C11.6869 50.9502 11.6971 50.9359 11.7039 50.9199L11.8457 50.7531C12.0209 50.7531 12.2127 50.8615 12.3963 50.7531C12.5895 50.7196 12.787 50.7196 12.9802 50.7531C13.017 50.7092 13.0629 50.674 13.1148 50.6498C13.1667 50.6256 13.2232 50.6131 13.2805 50.6131C13.3377 50.6131 13.3943 50.6256 13.4462 50.6498C13.498 50.674 13.544 50.7092 13.5808 50.7531C13.7893 50.5362 13.9979 50.6196 14.2064 50.7531C14.415 50.8865 14.6319 50.5612 14.8487 50.7531C15.0682 50.7405 15.2883 50.7405 15.5078 50.7531C15.6069 50.822 15.7248 50.8589 15.8456 50.8589C15.9664 50.8589 16.0843 50.822 16.1834 50.7531C16.4068 50.67 16.6525 50.67 16.8758 50.7531C17.101 50.5278 17.343 50.6279 17.5765 50.7531C17.6948 50.7283 17.8169 50.7283 17.9352 50.7531C17.9933 50.7614 18.0523 50.7614 18.1104 50.7531H18.1605C18.1605 50.7531 18.1605 50.7531 18.2022 50.7531C18.2439 50.7531 18.2022 50.7531 18.2689 50.7531C18.2689 50.7531 18.3356 50.7531 18.344 50.7531C18.3523 50.7531 18.344 50.6863 18.2689 50.6613H18.2272C18.2196 50.6004 18.2196 50.5388 18.2272 50.4778C18.252 50.3623 18.252 50.2429 18.2272 50.1274C18.4441 49.8855 18.1605 49.652 18.2272 49.4184C18.2939 49.1848 18.3523 48.9596 18.2272 48.726C18.2319 48.7012 18.2319 48.6758 18.2272 48.651C18.2272 48.651 18.2272 48.6509 18.2772 48.5759C18.1438 48.6509 18.1354 48.676 18.1688 48.6426C18.193 48.6105 18.2152 48.5771 18.2355 48.5425C18.2355 48.4841 18.2355 48.5425 18.2355 48.5425C18.2355 48.6009 18.2355 48.4758 18.1771 48.4925H18.1354H17.9769C17.7684 48.5508 17.5598 48.3423 17.3596 48.4925C17.1511 48.4925 16.9509 48.6009 16.759 48.4925C16.5588 48.6593 16.367 48.359 16.1751 48.4925C15.9892 48.5093 15.8021 48.5093 15.6162 48.4925C15.4327 48.2422 15.2575 48.4925 15.0823 48.4925C14.9071 48.4925 14.7403 48.6426 14.5735 48.4925C14.415 48.4925 14.2481 48.359 14.098 48.4925C13.9478 48.6259 13.7893 48.1171 13.6392 48.4925C13.4974 48.5592 13.3556 48.2339 13.2137 48.4925C13.0719 48.7511 12.9468 48.4925 12.8217 48.4925H12.4546C11.4203 48.3757 10.7863 48.2505 10.7863 48.1087C10.7863 47.9669 11.5204 47.8084 12.78 47.6916C12.9051 47.6916 13.0386 47.4998 13.172 47.6916C13.3139 47.6916 13.4557 47.5498 13.5975 47.6916C13.7476 47.4497 13.8978 47.6499 14.0563 47.6916C14.2148 47.7333 14.3733 47.7584 14.5318 47.6916C14.6903 47.6249 14.8654 47.7667 15.0406 47.6916C15.1131 47.759 15.2085 47.7966 15.3076 47.7966C15.4066 47.7966 15.502 47.759 15.5745 47.6916C15.758 47.8334 15.9415 47.6916 16.1334 47.6916C16.3253 47.9085 16.5171 47.7584 16.7173 47.6916C16.9175 47.6249 17.1094 47.6916 17.3179 47.6916C17.5265 47.6916 17.7267 47.6416 17.9352 47.6916L18.0937 47.6332C18.1965 47.625 18.2997 47.625 18.4024 47.6332C18.5972 47.6224 18.7924 47.6479 18.978 47.7083C19.222 47.6839 19.468 47.6839 19.712 47.7083C19.712 47.8835 19.712 48.0587 19.712 48.2255C19.7421 48.4274 19.7421 48.6326 19.712 48.8344C19.712 48.9429 19.712 49.0513 19.712 49.1514V49.3183C19.712 49.3183 19.712 49.3767 19.712 49.4017C19.712 49.6353 19.4785 49.8605 19.712 50.0941C19.712 50.3276 19.712 50.5612 19.712 50.8032C19.7039 50.9198 19.7039 51.0369 19.712 51.1535C19.7079 51.2146 19.7079 51.2759 19.712 51.337V51.4705C19.708 51.526 19.708 51.5818 19.712 51.6373C19.6056 51.8245 19.5617 52.0408 19.5869 52.2546C19.5869 52.4715 19.6703 52.7384 19.712 53.0137C19.2574 53.0638 18.7986 53.0638 18.344 53.0137H17.8602H17.5015C17.2679 53.0888 17.026 52.9136 16.8007 53.0137C16.5755 53.1138 16.3336 52.9053 16.1084 53.0137C16.002 53.0608 15.8869 53.0852 15.7705 53.0852C15.6542 53.0852 15.5391 53.0608 15.4327 53.0137C15.2075 53.0137 14.9906 52.7968 14.7737 53.0137C14.5568 53.0638 14.3399 53.3391 14.1314 53.0137C13.9228 53.1055 13.7143 52.8552 13.5057 53.0137C13.3055 52.7718 13.1053 53.0137 12.9051 53.0137C12.7049 53.0137 12.513 52.8802 12.3212 53.0137C12.1293 53.1472 11.9458 52.947 11.7706 53.0137C11.7482 53.0231 11.7241 53.028 11.6997 53.028C11.6754 53.028 11.6513 53.0231 11.6288 53.0137L11.4036 52.9637C11.3346 52.9304 11.2591 52.9132 11.1825 52.9132C11.106 52.9132 11.0304 52.9304 10.9615 52.9637C10.7112 52.9637 10.4192 52.9637 10.194 52.9637V52.8803C10.0272 52.8803 10.0355 52.7301 10.0772 52.5633C10.1189 52.3964 10.2107 52.2046 10.2274 52.0794C10.2331 51.9544 10.2133 51.8295 10.169 51.7124C10.1566 51.6518 10.1566 51.5894 10.169 51.5289C10.1903 51.4785 10.2287 51.4371 10.2774 51.4121C10.0272 51.2703 10.2774 51.1285 10.2774 50.9867C10.2774 50.8448 10.169 50.7197 10.2774 50.5946C10.1022 50.4695 10.3775 50.3443 10.2774 50.2359C10.3942 50.1191 10.2774 50.0107 10.2774 49.9022C10.251 49.8581 10.237 49.8077 10.237 49.7563C10.237 49.7048 10.251 49.6543 10.2774 49.6102C10.2774 49.5185 10.2774 49.4268 10.3191 49.3433C10.8947 47.8585 10.9865 47.5915 11.0782 47.5915Z" fill="#5D270D"/>
<path d="M53.0545 47.5915C53.1463 47.5915 53.238 47.8501 53.3214 48.334C53.3214 48.4174 53.3214 48.5091 53.3214 48.5926C53.3419 48.6916 53.3419 48.7938 53.3214 48.8928C53.2047 49.0013 53.555 49.1098 53.3214 49.2265C53.2974 49.2833 53.2849 49.3442 53.2849 49.4059C53.2849 49.4675 53.2974 49.5285 53.3214 49.5852C53.3632 49.7104 53.2464 49.8438 53.3631 49.9773C53.4799 50.1107 53.0962 50.2609 53.3631 50.4027C53.3668 50.4388 53.3668 50.4751 53.3631 50.5112C53.367 50.5276 53.367 50.5448 53.3631 50.5612C53.3664 50.5917 53.3664 50.6225 53.3631 50.653C53.2797 50.728 53.2797 50.7781 53.3048 50.7948C53.3298 50.8115 53.3798 50.7948 53.3965 50.7948L53.3465 50.8532C53.3048 50.9366 53.3465 50.9533 53.3965 50.9283C53.4735 50.8976 53.5401 50.8455 53.5884 50.7781C53.5467 50.9283 53.5884 50.995 53.6468 50.9867C53.6818 50.9754 53.7115 50.9516 53.7302 50.9199C53.7782 50.8672 53.8228 50.8115 53.8637 50.7531C54.0472 50.7531 54.2307 50.8615 54.4226 50.7531C54.613 50.7197 54.8077 50.7197 54.9982 50.7531C55.035 50.7092 55.0809 50.674 55.1328 50.6498C55.1847 50.6256 55.2412 50.6131 55.2985 50.6131C55.3557 50.6131 55.4122 50.6256 55.4641 50.6498C55.516 50.674 55.562 50.7092 55.5988 50.7531C55.8073 50.5362 56.0159 50.6196 56.2244 50.7531C56.433 50.8865 56.6498 50.5612 56.8667 50.7531C57.0862 50.7405 57.3062 50.7405 57.5257 50.7531C57.6249 50.822 57.7428 50.8589 57.8636 50.8589C57.9843 50.8589 58.1022 50.822 58.2014 50.7531C58.4247 50.67 58.6705 50.67 58.8938 50.7531C59.1274 50.5278 59.3609 50.6279 59.5945 50.7531C59.7128 50.7283 59.8349 50.7283 59.9532 50.7531C60.0141 50.7616 60.0759 50.7616 60.1367 50.7531H60.1868C60.1868 50.7531 60.1868 50.7531 60.2285 50.7531C60.2702 50.7531 60.2285 50.7531 60.2952 50.7531C60.2952 50.7531 60.362 50.7531 60.3703 50.7531C60.3786 50.7531 60.3703 50.6863 60.2952 50.6613H60.2535C60.2459 50.6004 60.2459 50.5388 60.2535 50.4778C60.2825 50.3628 60.2825 50.2424 60.2535 50.1274C60.4704 49.8855 60.1868 49.652 60.2535 49.4184C60.3203 49.1848 60.3786 48.9596 60.2535 48.726C60.2583 48.7012 60.2583 48.6758 60.2535 48.651C60.2535 48.651 60.2535 48.6509 60.3119 48.5759C60.1701 48.6509 60.1618 48.676 60.1951 48.6426C60.2193 48.6105 60.2416 48.5771 60.2619 48.5425C60.2619 48.6009 60.2619 48.4758 60.2035 48.4925H60.0366C59.8281 48.5508 59.6195 48.3423 59.4193 48.4925C59.2108 48.4925 59.0106 48.6009 58.8187 48.4925C58.6185 48.6593 58.4267 48.359 58.2348 48.4925C58.0489 48.5093 57.8618 48.5093 57.6759 48.4925C57.5007 48.2422 57.3172 48.4925 57.142 48.4925C56.9668 48.4925 56.8 48.6426 56.6331 48.4925C56.4747 48.4925 56.3078 48.359 56.1577 48.4925C56.0075 48.6259 55.849 48.1171 55.6989 48.4925C55.5571 48.5592 55.4152 48.2339 55.2734 48.4925C55.1316 48.7511 55.0065 48.4925 54.8814 48.4925H54.5227C53.4799 48.3757 52.8543 48.2505 52.8543 48.1087C52.8543 47.9669 53.5884 47.8084 54.848 47.6916C54.9731 47.6916 55.1066 47.4998 55.2401 47.6916C55.3819 47.6916 55.5237 47.5498 55.6655 47.6916C55.8157 47.4497 55.9658 47.6499 56.1243 47.6916C56.2828 47.7333 56.4413 47.7584 56.5998 47.6916C56.7583 47.6249 56.9418 47.7667 57.1086 47.6916C57.1812 47.759 57.2765 47.7966 57.3756 47.7966C57.4746 47.7966 57.57 47.759 57.6425 47.6916C57.826 47.8334 58.0096 47.6916 58.2014 47.6916C58.3933 47.9085 58.5851 47.7584 58.7853 47.6916C58.9855 47.6249 59.1774 47.6916 59.386 47.6916C59.5945 47.6916 59.7947 47.6416 60.0033 47.6916L60.1701 47.6332C60.27 47.6246 60.3705 47.6246 60.4704 47.6332C60.6653 47.6218 60.8606 47.6473 61.046 47.7083C61.2929 47.6837 61.5416 47.6837 61.7884 47.7083C61.7884 47.8835 61.7884 48.0587 61.7884 48.2255C61.8182 48.4274 61.8182 48.6326 61.7884 48.8344C61.7884 48.9429 61.7884 49.0513 61.7884 49.1514V49.4017C61.7884 49.6353 61.5548 49.8605 61.7884 50.0941C61.7884 50.3276 61.7884 50.5612 61.7884 50.8032C61.7802 50.9198 61.7802 51.0369 61.7884 51.1535V51.4705C61.7884 51.5289 61.7884 51.579 61.7884 51.6373C61.6807 51.8239 61.6395 52.0416 61.6716 52.2546C61.6716 52.4715 61.7467 52.7384 61.7968 53.0137C61.3393 53.0638 60.8778 53.0638 60.4204 53.0137H59.9365H59.5778C59.3443 53.0888 59.1107 52.9136 58.8771 53.0137C58.6435 53.1138 58.41 52.9053 58.1847 53.0137C58.0783 53.0608 57.9633 53.0852 57.8469 53.0852C57.7305 53.0852 57.6154 53.0608 57.509 53.0137C57.2838 53.0137 57.0669 52.7968 56.85 53.0137C56.6332 53.0638 56.4163 53.3391 56.2077 53.0137C55.9992 53.1055 55.7906 52.8552 55.5821 53.0137C55.3819 52.7718 55.1817 53.0137 54.9815 53.0137C54.7813 53.0137 54.5894 52.8802 54.4059 53.0137C54.2224 53.1472 54.0305 52.947 53.847 53.0137C53.8245 53.0231 53.8004 53.028 53.7761 53.028C53.7517 53.028 53.7276 53.0231 53.7052 53.0137L53.4799 52.9637C53.411 52.9304 53.3354 52.9132 53.2589 52.9132C53.1823 52.9132 53.1068 52.9304 53.0378 52.9637C52.7876 52.9637 52.4956 52.9637 52.2704 52.9637V52.8803C52.1035 52.8803 52.1035 52.7301 52.1452 52.5633C52.2034 52.4046 52.2535 52.2431 52.2954 52.0794C52.3012 51.9544 52.2813 51.8295 52.237 51.7124C52.2246 51.6518 52.2246 51.5894 52.237 51.5289C52.2608 51.4801 52.2986 51.4395 52.3454 51.4121C52.0952 51.2703 52.3454 51.1285 52.3454 50.9867C52.3454 50.8448 52.237 50.7197 52.3454 50.5946C52.1703 50.4695 52.4455 50.3443 52.3872 50.2359C52.5039 50.1191 52.3872 50.0107 52.3872 49.9022C52.3667 49.8544 52.3597 49.8019 52.3671 49.7504C52.3744 49.6989 52.3958 49.6504 52.4289 49.6102C52.4289 49.5185 52.4289 49.4268 52.4706 49.3433C52.8793 47.8585 52.9377 47.5915 53.0545 47.5915Z" fill="#5D270D"/>
<path d="M23.5492 27.0915C23.6076 27.1499 23.3824 27.5086 22.9069 28.1009L22.6483 28.4179C22.5649 28.548 22.4638 28.6659 22.348 28.7682C22.1478 28.7682 22.2729 29.1686 22.0143 29.1603C21.8561 29.2691 21.7272 29.4152 21.6389 29.5857C21.5305 29.7609 21.2969 29.8193 21.2302 30.0445C21.1634 30.2698 20.738 30.1696 20.7797 30.5367C20.6533 30.7384 20.4924 30.9163 20.3042 31.0622C20.0039 31.0622 19.9539 31.4126 19.7954 31.6128C19.4617 31.6128 19.3366 31.8964 19.2532 32.1967C18.8528 32.1967 18.6859 32.4053 18.6859 32.8057C18.4941 33.0059 18.2021 33.131 18.0853 33.4397L18.0186 33.5231V33.5731C18.0186 33.5731 18.0186 33.6232 17.9185 33.6482H17.9769C18.2188 33.6899 18.1354 33.6482 18.077 33.79C18.077 33.79 18.077 33.79 18.1354 33.79H18.2021L18.3189 33.8401C18.3858 33.8859 18.4473 33.939 18.5024 33.9986C18.6123 34.1261 18.7023 34.2695 18.7693 34.424C18.9111 34.741 19.3699 34.7576 19.4867 35.1163C19.6035 35.475 20.0039 35.5668 20.2208 35.8338C20.2923 36.0014 20.3961 36.1532 20.5264 36.2806C20.6566 36.408 20.8108 36.5084 20.9799 36.5762C21.2902 36.7639 21.5528 37.0209 21.7474 37.3269C21.9293 37.3866 22.0948 37.4878 22.2309 37.6224C22.367 37.757 22.4699 37.9215 22.5315 38.1027C22.8151 38.3363 22.9653 38.72 23.3657 38.9369L23.4658 39.037L23.5158 39.0871C23.5158 39.0871 23.5158 39.0871 23.5659 39.1705C23.579 39.1807 23.5952 39.1861 23.6118 39.1861C23.6284 39.1861 23.6445 39.1807 23.6577 39.1705C23.6615 39.1512 23.6615 39.1314 23.6577 39.1121C23.7151 39.0379 23.7628 38.9566 23.7995 38.8702C23.9663 38.5031 24.3751 38.3864 24.6337 38.0861C25.0424 37.9776 25.1008 37.5105 25.4094 37.3102C25.7181 37.11 26.0101 36.8848 26.1852 36.5595C26.3854 36.266 26.6403 36.014 26.936 35.8171C26.936 35.3416 27.4866 35.3917 27.6701 35.0997C28.0121 34.9579 28.1372 34.6158 28.3958 34.4073C28.4957 34.2781 28.6205 34.1703 28.7629 34.0903C28.8305 34.0421 28.8946 33.9891 28.9547 33.9318C28.9865 33.9074 29.0122 33.876 29.0298 33.8401V33.79C29.0298 33.79 29.0298 33.79 29.0298 33.74C29.0452 33.7346 29.0583 33.7243 29.0674 33.7108C29.0764 33.6972 29.0808 33.6811 29.0799 33.6649C29.0799 33.6649 29.0799 33.6232 29.1633 33.5982C28.9047 33.5982 29.255 33.4897 28.9464 33.3479C28.7314 33.1511 28.5307 32.9392 28.3458 32.7139C28.3458 32.3385 27.9787 32.2885 27.7785 32.1133C27.5783 31.9381 27.2947 31.838 27.2363 31.5294C27.1779 31.2207 26.9777 31.0789 26.7275 30.9788C26.4772 30.8787 26.6524 30.3699 26.252 30.4533C26.0434 30.3365 26.1185 29.9527 25.8099 29.9611C25.5012 29.9694 25.5262 29.6441 25.3928 29.5023L25.0257 29.0768C23.958 27.8506 23.3573 27.0998 23.4908 27.0081C23.6243 26.9163 24.5085 27.6087 25.9934 28.9101C26.1435 29.0435 26.4188 29.0602 26.4522 29.3271C26.4855 29.5941 26.8609 29.5273 26.9443 29.7692C27.278 29.7692 27.303 30.0612 27.4699 30.2447C27.6367 30.4282 27.7702 30.6368 28.0204 30.7536C28.2707 30.8704 28.3458 31.1707 28.6044 31.2958C28.6473 31.4354 28.7262 31.5612 28.8331 31.6608C28.9399 31.7603 29.071 31.8301 29.2133 31.863C29.3134 32.1634 29.6388 32.2467 29.8473 32.4636C29.8398 32.505 29.8398 32.5474 29.8473 32.5888C29.8437 32.6109 29.8437 32.6334 29.8473 32.6555L29.8974 32.7306C29.9706 32.8288 30.0577 32.9159 30.156 32.9892C30.3478 33.156 30.5981 33.3145 30.8483 33.5064L30.9818 33.6148C30.8166 33.8051 30.6382 33.9835 30.4479 34.1487C30.2555 34.3147 30.077 34.496 29.914 34.6909L29.8556 34.741L29.7639 34.8244L29.6054 35.0079C29.5073 35.1366 29.3954 35.2541 29.2717 35.3583C29.1296 35.6722 28.8815 35.9262 28.571 36.0757C28.3603 36.3491 28.1197 36.5982 27.8536 36.8181C27.6305 37.0886 27.3849 37.3397 27.1195 37.5688C26.9026 37.8525 26.4438 37.9109 26.3604 38.3363C26.1268 38.6116 25.8182 38.8285 25.593 39.1205C25.2768 39.3576 24.9959 39.6385 24.7588 39.9546C24.6563 39.9754 24.5596 40.0181 24.4752 40.0797C24.3437 40.1806 24.2235 40.2953 24.1165 40.4218C23.8912 40.672 23.6743 40.9807 23.4157 41.306C23.1447 41.0778 22.8857 40.8355 22.6399 40.5803L22.2646 40.1798L22.2145 40.1214L22.1228 40.013C21.8435 39.7523 21.5816 39.4737 21.3386 39.1789C21.0216 38.9703 20.8882 38.5866 20.5628 38.3947C20.2375 38.2029 20.1291 37.8108 19.8037 37.6272C19.4958 37.4477 19.2422 37.1884 19.0696 36.8765C18.8277 36.6262 18.736 36.2342 18.3522 36.1341C17.9685 36.034 17.6515 35.8922 17.6599 35.4167C17.5222 35.3237 17.4103 35.1975 17.3345 35.0496C17.2892 34.9821 17.239 34.918 17.1844 34.8577C17.1579 34.8257 17.127 34.7976 17.0926 34.7743H17.0426L16.9758 34.7326C16.8875 34.5042 16.7373 34.3049 16.5421 34.1571C16.3585 33.9986 16.125 33.8317 15.9331 33.6565L16.0332 33.5481L16.6755 33.0142C16.7673 32.9225 16.859 32.839 16.9425 32.7389L17.0593 32.6055L17.1176 32.5054C17.2428 32.2134 17.5764 32.1383 17.7433 31.9047C17.9101 31.6712 18.2772 31.6378 18.3522 31.3375C18.5691 31.1707 18.7193 30.9454 18.9362 30.7953C18.8861 30.3782 19.2949 30.4366 19.4867 30.2864C19.6786 30.1363 19.6703 29.7943 20.0123 29.8109C20.0123 29.4689 20.3042 29.4689 20.5044 29.3688C20.7046 29.2687 20.7213 28.9935 20.9632 28.9518C20.9632 28.6932 21.3053 28.7515 21.3887 28.5847C21.5972 28.5347 21.6389 28.3344 21.7807 28.2427C21.8613 28.1067 21.9844 28.0012 22.1311 27.9424L22.4481 27.6838C23.1238 27.25 23.4825 27.0081 23.5492 27.0915Z" fill="#98772E"/>
<path d="M48.7666 27.0915C48.8333 27.1499 48.6081 27.5086 48.1326 28.1009L47.874 28.4179C47.788 28.546 47.6872 28.6636 47.5737 28.7682C47.3735 28.7682 47.4986 29.1686 47.24 29.1603C47.0819 29.2691 46.9529 29.4152 46.8647 29.5857C46.7562 29.7526 46.5227 29.8193 46.4476 30.0445C46.3725 30.2698 45.9554 30.1696 46.0055 30.5367C45.8791 30.7384 45.7181 30.9163 45.53 31.0622C45.2297 31.0622 45.1796 31.4126 45.0211 31.6128C44.6791 31.6128 44.5623 31.8964 44.4789 32.1967C44.0785 32.1967 43.9116 32.4053 43.9116 32.8057C43.7114 33.0059 43.4278 33.131 43.311 33.4397L43.236 33.5231V33.5731C43.236 33.5731 43.236 33.6232 43.1359 33.6482H43.1943C43.4362 33.6899 43.3528 33.6482 43.2944 33.79C43.2944 33.79 43.2944 33.79 43.3527 33.79H43.4195L43.5279 33.8401C43.599 33.8836 43.6636 33.9369 43.7198 33.9986C43.8297 34.1261 43.9197 34.2695 43.9867 34.424C44.1285 34.741 44.5873 34.7576 44.7041 35.1247C44.9294 35.3666 45.2213 35.5668 45.4382 35.8421C45.5098 36.0087 45.6138 36.1593 45.7441 36.2853C45.8744 36.4114 46.0285 36.5102 46.1973 36.5762C46.5056 36.7664 46.7678 37.0229 46.9648 37.3269C47.1467 37.3866 47.3122 37.4878 47.4483 37.6224C47.5844 37.757 47.6873 37.9215 47.7489 38.1027C48.0325 38.3363 48.1827 38.72 48.5414 38.9369L48.6331 39.037L48.6915 39.0871H48.7666C48.7666 39.0871 48.7666 39.0871 48.8083 39.1705C48.8228 39.1813 48.8403 39.1872 48.8584 39.1872C48.8764 39.1872 48.894 39.1813 48.9084 39.1705C48.9268 39.1547 48.9412 39.1347 48.9501 39.1121C49.0046 39.0359 49.0521 38.9549 49.0919 38.8702C49.2588 38.5031 49.6675 38.3864 49.9261 38.0861C50.3349 37.9776 50.3933 37.5104 50.7019 37.3102C51.0106 37.11 51.3025 36.8848 51.4777 36.5595C51.6779 36.266 51.9328 36.014 52.2285 35.8171C52.2285 35.3416 52.779 35.3917 52.9626 35.0997C53.3046 34.9579 53.4297 34.6158 53.6883 34.4073C53.7882 34.2781 53.913 34.1703 54.0553 34.0903C54.1229 34.0421 54.1871 33.9891 54.2472 33.9318C54.2766 33.9051 54.3019 33.8742 54.3223 33.8401V33.79C54.3223 33.79 54.3223 33.79 54.3223 33.74C54.3364 33.7328 54.3484 33.7222 54.3572 33.709C54.3659 33.6959 54.3712 33.6806 54.3723 33.6649C54.3723 33.6649 54.3723 33.6232 54.4558 33.5982C54.1972 33.5982 54.5392 33.4897 54.2389 33.3479C54.0239 33.1511 53.8231 32.9392 53.6382 32.7139C53.6382 32.3385 53.2712 32.2885 53.071 32.1133C52.8708 31.9381 52.5872 31.838 52.5288 31.5294C52.4704 31.2207 52.2702 31.0789 52.0199 30.9788C51.7697 30.8787 51.9449 30.3699 51.5444 30.4533C51.3359 30.3365 51.411 29.9527 51.1023 29.9611C50.7937 29.9694 50.8187 29.6441 50.6852 29.5023C50.5518 29.3605 50.435 29.2103 50.3099 29.0768C49.2421 27.8506 48.6415 27.0998 48.7749 27.0081C48.9084 26.9163 49.801 27.6087 51.2775 28.9101C51.4277 29.0435 51.7029 29.0602 51.7363 29.3271C51.7697 29.5941 52.1451 29.5273 52.2285 29.7692C52.5621 29.7692 52.5872 30.0612 52.754 30.2447C52.9208 30.4282 53.0543 30.6368 53.3046 30.7536C53.5548 30.8704 53.6299 31.1707 53.8885 31.2958C53.9315 31.4354 54.0103 31.5612 54.1172 31.6608C54.224 31.7603 54.3552 31.8301 54.4975 31.863C54.5976 32.1634 54.9229 32.2467 55.1314 32.4636C55.1275 32.5053 55.1275 32.5472 55.1314 32.5888L55.1815 32.6555L55.2315 32.7306C55.3048 32.8288 55.3919 32.9159 55.4901 32.9892C55.682 33.156 55.9239 33.3145 56.1825 33.5064L56.316 33.6148C56.1508 33.8051 55.9724 33.9835 55.7821 34.1487C55.5897 34.3147 55.4112 34.496 55.2482 34.6909L55.1898 34.741H55.1481L55.0564 34.8244L54.8979 35.0079C54.7998 35.1366 54.6879 35.2541 54.5642 35.3583C54.4221 35.6722 54.174 35.9262 53.8635 36.0757C53.6528 36.3491 53.4121 36.5982 53.1461 36.8181C52.9229 37.0886 52.6774 37.3397 52.412 37.5688C52.1951 37.8525 51.7363 37.9109 51.6529 38.3363C51.4193 38.6116 51.1107 38.8285 50.8854 39.1205C50.5693 39.3576 50.2884 39.6385 50.0512 39.9546C49.9488 39.9754 49.8521 40.0181 49.7676 40.0797C49.6362 40.1806 49.5159 40.2953 49.4089 40.4218C49.1837 40.672 48.9585 40.9807 48.7082 41.2977C48.4372 41.0694 48.1782 40.8272 47.9324 40.5719L47.557 40.1798L47.507 40.1214L47.4152 40.013C47.136 39.7523 46.8741 39.4737 46.6311 39.1789C46.3141 38.9703 46.1806 38.5866 45.8553 38.3947C45.53 38.2029 45.4215 37.8108 45.0962 37.6272C44.7883 37.4477 44.5347 37.1884 44.3621 36.8765C44.1119 36.6262 44.0284 36.2342 43.6447 36.1424C43.261 36.0507 42.944 35.8922 42.944 35.4167C42.811 35.3209 42.7024 35.1952 42.627 35.0496C42.5817 34.9821 42.5315 34.918 42.4769 34.8577C42.4504 34.8257 42.4195 34.7976 42.3851 34.7743H42.335L42.2683 34.7326C42.18 34.5042 42.0298 34.3049 41.8345 34.1571C41.651 33.9986 41.4174 33.8317 41.2256 33.6565L41.3257 33.5481L41.968 33.0142C42.0598 32.9225 42.1515 32.839 42.2349 32.7389L42.3517 32.6055L42.4018 32.5054C42.5352 32.2134 42.8689 32.1383 43.0358 31.9047C43.2026 31.6712 43.5613 31.6378 43.6447 31.3375C43.8616 31.1707 44.0118 30.9454 44.2286 30.7953C44.1702 30.3782 44.5873 30.4366 44.7792 30.2864C44.9711 30.1363 44.9627 29.7943 45.3047 29.8109C45.3047 29.4689 45.5967 29.4689 45.7969 29.3688C45.9971 29.2687 46.0138 28.9935 46.2557 28.9518C46.2557 28.6932 46.5977 28.7515 46.6811 28.5764C46.8897 28.5764 46.9314 28.3344 47.0732 28.2427C47.1517 28.105 47.2755 27.9989 47.4236 27.9424L47.7406 27.6838C48.3579 27.25 48.7166 27.0081 48.7666 27.0915Z" fill="#98772E"/>
</svg>
