<svg width="72" height="72" viewBox="0 0 72 72" fill="none" xmlns="http://www.w3.org/2000/svg">
<path d="M14.8799 31.3704C14.9622 31.3704 15.0446 31.6475 15.1194 32.1192C15.1194 32.209 15.1194 32.2988 15.1194 32.3962C15.139 32.4976 15.139 32.6018 15.1194 32.7032C15.0146 32.808 15.3291 32.9203 15.1194 33.0401C15.0755 33.1636 15.0755 33.2984 15.1194 33.4219C15.1194 33.5492 15.0521 33.684 15.1194 33.8262C15.1868 33.9685 14.8799 34.1182 15.1194 34.2679C15.1531 34.4234 15.1531 34.5842 15.1194 34.7396C14.9622 34.9043 15.1194 35.0691 15.1194 35.2413C14.9248 35.4135 15.0071 35.5932 15.1194 35.7729C14.8499 35.9525 14.8948 36.1397 15.1194 36.3269C15.1194 36.5141 15.0221 36.7087 15.1194 36.9034C15.1531 37.1042 15.1531 37.3091 15.1194 37.5099C15.1984 37.5956 15.2422 37.7078 15.2422 37.8243C15.2422 37.9408 15.1984 38.0531 15.1194 38.1388C15.3141 38.3484 15.2392 38.5655 15.1194 38.7827C15.0785 38.8887 15.0785 39.0061 15.1194 39.1121C15.1227 39.142 15.1227 39.1721 15.1194 39.2019C15.1202 39.2144 15.1202 39.2269 15.1194 39.2394C15.1194 39.2394 15.1194 39.2394 15.0745 39.2394C15.0296 39.2394 15.0745 39.2993 15.0745 39.3292C15.0745 39.3741 15.0745 39.4116 15.0745 39.4265C15.0914 39.4329 15.11 39.4329 15.1269 39.4265C15.1269 39.4265 15.1269 39.4265 15.1644 39.4265C15.4066 39.3409 15.6709 39.3409 15.9131 39.4265C16.1527 39.2169 16.3997 39.3068 16.6618 39.4265C16.7859 39.4083 16.912 39.4083 17.0361 39.4265C17.0983 39.4344 17.1612 39.4344 17.2233 39.4265H17.7923H17.8372C17.8372 39.4265 17.8747 39.4265 17.8822 39.4265C17.8897 39.4265 17.8822 39.4265 17.9496 39.4265C17.9496 39.4265 18.0095 39.4265 18.0169 39.4265C18.0191 39.4161 18.019 39.4054 18.0167 39.3951C18.0144 39.3847 18.0099 39.3749 18.0035 39.3664C17.9972 39.3579 17.989 39.3509 17.9797 39.3458C17.9704 39.3406 17.9601 39.3375 17.9496 39.3367C17.9496 39.3367 17.9496 39.3367 17.9496 39.2918C17.9461 39.2594 17.9461 39.2268 17.9496 39.1944C17.9422 39.1323 17.9422 39.0694 17.9496 39.0073C17.9717 38.8835 17.9717 38.7567 17.9496 38.6329C18.1367 38.3858 17.8822 38.1463 17.9496 37.8842C18.0169 37.6222 18.0619 37.405 17.9496 37.1355C17.8896 36.9047 17.8896 36.6625 17.9496 36.4317C17.6501 36.2071 18.0244 35.975 17.9496 35.7504C18.0694 35.5258 17.9496 35.3012 17.9496 35.0841C17.9496 34.8669 18.0843 34.6498 17.9496 34.4327C17.9496 34.223 17.8522 34.0134 17.9496 33.8112C17.8073 33.6016 18.0768 33.3995 17.9496 33.2048C17.9345 33.0129 17.9345 32.8201 17.9496 32.6283C17.9944 32.5976 18.0285 32.5537 18.0473 32.5027C18.0661 32.4518 18.0685 32.3962 18.0544 32.3438C18.0428 32.2978 18.0278 32.2527 18.0094 32.209C18.0094 32.209 18.0094 32.1716 18.0094 32.1491C18.0094 32.1267 18.0095 32.0967 17.972 32.0817C17.9346 32.0668 17.972 32.0817 18.0394 31.947C18.0371 31.9221 18.0371 31.897 18.0394 31.8721C18.0394 31.8721 17.9795 31.8047 17.8822 31.8721C17.7848 31.9395 17.8822 31.8047 17.8073 31.7523C17.7985 31.7462 17.7881 31.7429 17.7773 31.7429C17.7666 31.7429 17.7562 31.7462 17.7474 31.7523C17.7199 31.7734 17.6991 31.802 17.6875 31.8346C17.5378 31.8945 17.388 31.5951 17.2458 31.8346C17.1035 32.0742 16.9688 31.8346 16.834 31.8346H16.4596C15.374 31.7373 14.7601 31.6176 14.7601 31.4978C14.7601 31.378 15.5088 31.2282 16.834 31.1234C16.9688 31.1234 17.1035 30.9512 17.2458 31.1234C17.388 31.1234 17.5378 30.9961 17.6875 31.1234C17.7035 31.0998 17.7238 31.0795 17.7474 31.0635C17.7771 31.0582 17.8075 31.0582 17.8372 31.0635C17.9017 31.0525 17.9675 31.0525 18.0319 31.0635C18.1553 31.0949 18.2803 31.1199 18.4063 31.1384C18.6084 31.1384 18.7806 31.1384 18.9977 31.1384C19.0023 31.1972 19.0149 31.2552 19.0352 31.3106C19.0737 31.4452 19.0737 31.5878 19.0352 31.7224C19.0015 31.8702 19.0015 32.0237 19.0352 32.1716C19.0035 32.244 18.9784 32.3192 18.9603 32.3962C18.9566 32.441 18.9566 32.4861 18.9603 32.5309C18.9743 32.6334 19.0129 32.731 19.0726 32.8154C18.9379 33.0026 19.0726 33.1973 19.0726 33.392C18.8705 33.5866 19.0127 33.7888 19.0726 33.9984C19.1325 34.2081 19.0726 34.4102 19.0726 34.6199C19.0726 34.8295 19.125 35.0541 19.0726 35.2712C19.1241 35.3748 19.1508 35.4888 19.1508 35.6044C19.1508 35.72 19.1241 35.8341 19.0726 35.9376C19.1062 36.1635 19.1062 36.393 19.0726 36.6189C19.1025 36.8525 19.1025 37.089 19.0726 37.3227C19.1175 37.5623 18.863 37.8019 19.0726 38.0714C19.0726 38.3185 19.0726 38.558 19.0726 38.8201C19.0726 38.9474 19.0726 39.0672 19.0726 39.1944C19.0689 39.2568 19.0689 39.3193 19.0726 39.3816C19.0726 39.3816 19.0726 39.4415 19.0726 39.479V39.2918C18.9742 39.4966 18.9353 39.7248 18.9603 39.9506C18.9603 40.1753 19.0277 40.4373 19.0726 40.6994C18.842 40.7313 18.6091 40.7438 18.3763 40.7368L17.6276 40.6994H17.2383H16.8639C16.6169 40.7593 16.3698 40.602 16.1152 40.6994C15.8607 40.7967 15.636 40.602 15.3665 40.6994H15.3141H15.2318H15.0596H14.7226C14.513 40.7035 14.3038 40.6783 14.1012 40.6245H13.9065C13.9065 40.4224 13.9589 40.2202 13.9739 40.048C14.0011 39.8868 13.9748 39.7211 13.8991 39.5763C13.8882 39.4754 13.8707 39.3754 13.8466 39.2768V39.1944V39.157C13.8434 39.1272 13.8434 39.097 13.8466 39.0672C13.8283 39.0051 13.8316 38.9387 13.8561 38.8788C13.8806 38.8189 13.9248 38.7691 13.9814 38.7377C13.9065 38.5206 14.1312 38.3035 13.9814 38.0939C14.1985 37.8767 13.9814 37.6746 13.9814 37.4649C14.0523 37.269 14.0523 37.0544 13.9814 36.8585C13.8766 36.6638 14.0413 36.4691 13.9814 36.282C13.9215 36.0948 14.1461 35.9076 13.9814 35.7279C13.9814 35.5482 13.9814 35.3686 13.9814 35.1964C13.6894 35.0242 13.9814 34.8594 13.9814 34.6947C13.9814 34.53 13.7867 34.3803 13.9814 34.223C13.7568 34.0733 13.9814 33.9236 13.9814 33.7813C13.9814 33.6391 13.8841 33.5043 13.9814 33.377C13.8242 33.2422 14.0713 33.115 13.9814 32.9952C14.0862 32.8754 13.9814 32.7631 13.9814 32.6582C13.9627 32.6078 13.9563 32.5536 13.9628 32.5002C13.9693 32.4468 13.9886 32.3957 14.0188 32.3513C14.0188 32.2539 14.0188 32.1641 14.0563 32.0742C14.7226 31.6475 14.7975 31.3704 14.8799 31.3704Z" fill="#98772E"/>
<path d="M23.0329 31.3704C23.1152 31.3704 23.1901 31.6475 23.265 32.1192C23.265 32.209 23.265 32.2988 23.3024 32.3962C23.3184 32.4979 23.3184 32.6015 23.3024 32.7032C23.1901 32.808 23.5045 32.9203 23.3024 33.0401C23.2623 33.1642 23.2623 33.2978 23.3024 33.4219C23.3398 33.5492 23.2275 33.684 23.3024 33.8262C23.3773 33.9685 23.0628 34.1182 23.3024 34.2679C23.3396 34.423 23.3396 34.5846 23.3024 34.7396C23.1377 34.9043 23.3024 35.0691 23.3024 35.2413C23.1077 35.4135 23.1976 35.5932 23.3024 35.7729C23.0329 35.9525 23.0703 36.1397 23.3024 36.3269C23.3024 36.5141 23.2051 36.7088 23.3024 36.9109C23.3325 37.1094 23.3325 37.3113 23.3024 37.5099C23.383 37.5947 23.4279 37.7073 23.4279 37.8243C23.4279 37.9413 23.383 38.0539 23.3024 38.1388C23.4971 38.3484 23.4222 38.5655 23.3024 38.7827C23.2783 38.8342 23.2658 38.8904 23.2658 38.9474C23.2658 39.0043 23.2783 39.0605 23.3024 39.1121V39.2019C23.307 39.214 23.307 39.2273 23.3024 39.2394C23.3024 39.2394 23.3024 39.2394 23.25 39.2394C23.1976 39.2394 23.25 39.2993 23.25 39.3292C23.25 39.3741 23.25 39.4116 23.25 39.4265C23.267 39.4323 23.2854 39.4323 23.3024 39.4265H23.3398C23.582 39.3409 23.8463 39.3409 24.0885 39.4265C24.3356 39.2169 24.5752 39.3068 24.8372 39.4265C24.9613 39.408 25.0875 39.408 25.2116 39.4265C25.2737 39.4344 25.3366 39.4344 25.3988 39.4265H25.4886H25.541C25.541 39.4265 25.5785 39.4265 25.5859 39.4265C25.5934 39.4265 25.5859 39.4265 25.6458 39.4265C25.6458 39.4265 25.7132 39.4265 25.7207 39.4265C25.7282 39.4265 25.7207 39.3517 25.6458 39.3367C25.6426 39.3219 25.6426 39.3066 25.6458 39.2918C25.6428 39.2594 25.6428 39.2268 25.6458 39.1944C25.6385 39.1323 25.6385 39.0694 25.6458 39.0073C25.6681 38.8835 25.6681 38.7567 25.6458 38.6329C25.8405 38.3858 25.5785 38.1463 25.6458 37.8842C25.7132 37.6222 25.7582 37.405 25.6458 37.1355C25.5859 36.9047 25.5859 36.6625 25.6458 36.4317C25.3464 36.2071 25.7207 35.975 25.6458 35.7504C25.7731 35.5258 25.6458 35.3012 25.6458 35.0841C25.6458 34.8669 25.7806 34.6498 25.6458 34.4327C25.6458 34.223 25.5485 34.0134 25.6458 33.8112C25.4961 33.6016 25.7656 33.3995 25.6458 33.2048C25.6308 33.0129 25.6308 32.8201 25.6458 32.6283C25.6915 32.5984 25.7264 32.5546 25.7452 32.5033C25.7641 32.4521 25.766 32.3962 25.7507 32.3438C25.7391 32.2978 25.7241 32.2527 25.7057 32.209C25.7057 32.209 25.7057 32.1716 25.7057 32.1491C25.7057 32.1267 25.7057 32.0967 25.7057 32.0817C25.7057 32.0668 25.7057 32.0817 25.7656 31.947V31.8721C25.7656 31.8721 25.7057 31.8047 25.6159 31.8721C25.526 31.9395 25.5785 31.8047 25.541 31.7523C25.5308 31.7464 25.5192 31.7433 25.5073 31.7433C25.4955 31.7433 25.4839 31.7464 25.4736 31.7523H25.4362C25.411 31.7756 25.3907 31.8035 25.3763 31.8346C25.2266 31.8945 25.0768 31.5951 24.9346 31.8346C24.7923 32.0742 24.6576 31.8346 24.5228 31.8346H24.1484C23.0703 31.7373 22.4489 31.6176 22.4489 31.4978C22.4489 31.378 23.1976 31.2282 24.5228 31.1234C24.6576 31.1234 24.7923 30.9512 24.9346 31.1234C25.0768 31.1234 25.2266 30.9961 25.3763 31.1234L25.4362 31.0635C25.4659 31.0582 25.4963 31.0582 25.526 31.0635C25.593 31.0523 25.6613 31.0523 25.7282 31.0635C25.8489 31.0956 25.9714 31.1206 26.0951 31.1384C26.3047 31.1384 26.4694 31.1384 26.6865 31.1384C26.6935 31.1976 26.7086 31.2555 26.7315 31.3106C26.7749 31.4444 26.7749 31.5885 26.7315 31.7224C26.6978 31.8702 26.6978 32.0237 26.7315 32.1716C26.7052 32.2453 26.6827 32.3202 26.6641 32.3962C26.653 32.4404 26.653 32.4867 26.6641 32.5309C26.6753 32.6329 26.7113 32.7306 26.7689 32.8154C26.6416 33.0026 26.7689 33.1973 26.7689 33.392C26.5742 33.5866 26.709 33.7888 26.7689 33.9984C26.8288 34.2081 26.7689 34.4102 26.7689 34.6199C26.7689 34.8295 26.8213 35.0541 26.7689 35.2712C26.8204 35.3748 26.8471 35.4888 26.8471 35.6044C26.8471 35.72 26.8204 35.8341 26.7689 35.9376C26.7988 36.1637 26.7988 36.3928 26.7689 36.6189C26.7988 36.8525 26.7988 37.089 26.7689 37.3227C26.7689 37.5623 26.5518 37.8019 26.7689 38.0714C26.7689 38.3185 26.7315 38.558 26.7689 38.8201C26.7689 38.9474 26.7689 39.0672 26.7689 39.1944C26.7652 39.2568 26.7652 39.3193 26.7689 39.3816C26.7658 39.414 26.7658 39.4466 26.7689 39.479V39.2918C26.6738 39.4976 26.635 39.725 26.6566 39.9507C26.6566 40.1753 26.7315 40.4373 26.7689 40.6994C26.5383 40.7315 26.3053 40.744 26.0726 40.7368L25.3239 40.6994H24.9346H24.5602C24.3131 40.7593 24.0736 40.602 23.8115 40.6994C23.5495 40.7967 23.3323 40.602 23.0628 40.6994H23.0179H22.9355H22.7633H22.4189C22.2117 40.704 22.005 40.6788 21.805 40.6245H21.6028C21.6028 40.4224 21.6627 40.2202 21.6777 40.048C21.695 39.8869 21.6692 39.7241 21.6028 39.5763C21.6028 39.479 21.6028 39.3816 21.5429 39.2768V39.1944V39.157C21.5395 39.1272 21.5395 39.097 21.5429 39.0672C21.5246 39.0051 21.5279 38.9387 21.5524 38.8788C21.5769 38.8189 21.6211 38.7691 21.6777 38.7377C21.6028 38.5206 21.8199 38.3035 21.6777 38.0939C21.8948 37.8767 21.6777 37.6746 21.6777 37.4649C21.745 37.271 21.745 37.06 21.6777 36.866C21.5729 36.6638 21.7376 36.4691 21.6777 36.282C21.6178 36.0948 21.8424 35.9076 21.6777 35.7279C21.6777 35.5482 21.6777 35.3686 21.6777 35.1964C21.3782 35.0242 21.6777 34.8594 21.6777 34.6947C21.6777 34.53 21.483 34.3803 21.6777 34.223C21.4531 34.0733 21.6777 33.9236 21.6777 33.7813C21.6777 33.6391 21.5879 33.5043 21.6777 33.377C21.5205 33.2422 21.7675 33.115 21.7151 32.9952C21.82 32.8754 21.7151 32.7631 21.7151 32.6582C21.6908 32.6107 21.6781 32.5581 21.6781 32.5048C21.6781 32.4514 21.6908 32.3988 21.7151 32.3513C21.7151 32.2539 21.7151 32.1641 21.7526 32.0742C22.8756 31.6475 22.958 31.3704 23.0329 31.3704Z" fill="#5D270D"/>
<path d="M31.1937 31.3704C31.276 31.3704 31.3584 31.6475 31.4333 32.1192C31.4333 32.209 31.4333 32.2988 31.4333 32.3962C31.4618 32.4959 31.4744 32.5995 31.4707 32.7032C31.3584 32.808 31.6728 32.9203 31.5081 33.0401C31.4641 33.1636 31.4641 33.2984 31.5081 33.4219C31.5456 33.5492 31.4407 33.684 31.5081 33.8262C31.7253 33.9685 31.2685 34.1182 31.5081 34.2679C31.5453 34.423 31.5453 34.5846 31.5081 34.7396C31.3434 34.9043 31.5081 35.0691 31.5081 35.2413C31.306 35.4135 31.3958 35.5932 31.5081 35.7729C31.2386 35.9525 31.2835 36.1397 31.5081 36.3269C31.5081 36.5141 31.4183 36.7087 31.5081 36.9109C31.5419 37.1091 31.5419 37.3116 31.5081 37.5099C31.5871 37.5956 31.6308 37.7078 31.6308 37.8243C31.6308 37.9408 31.5871 38.0531 31.5081 38.1388C31.6953 38.3484 31.6204 38.5655 31.5081 38.7827C31.4859 38.8347 31.4744 38.8907 31.4744 38.9474C31.4744 39.004 31.4859 39.06 31.5081 39.1121C31.5115 39.142 31.5115 39.1721 31.5081 39.2019C31.5081 39.2019 31.5081 39.2019 31.5081 39.2394C31.5081 39.2394 31.5081 39.2394 31.4632 39.2394C31.4183 39.2394 31.4632 39.2993 31.4632 39.3292C31.4632 39.3741 31.4632 39.4116 31.4632 39.4265C31.4801 39.4329 31.4987 39.4329 31.5156 39.4265H31.5605C31.8028 39.3409 32.067 39.3409 32.3093 39.4265C32.5488 39.2169 32.7959 39.3068 33.058 39.4265C33.1795 39.4081 33.3032 39.4081 33.4248 39.4265C33.487 39.4339 33.5498 39.4339 33.612 39.4265H33.7093H33.7543C33.7543 39.4265 33.7917 39.4265 33.7992 39.4265C33.8067 39.4265 33.7992 39.4265 33.8666 39.4265C33.8666 39.4265 33.9264 39.4265 33.9339 39.4265C33.9361 39.4161 33.936 39.4054 33.9337 39.3951C33.9314 39.3847 33.9269 39.3749 33.9205 39.3664C33.9141 39.3579 33.906 39.3509 33.8967 39.3458C33.8874 39.3406 33.8771 39.3375 33.8666 39.3367C33.8633 39.3219 33.8633 39.3066 33.8666 39.2918C33.8666 39.2918 33.8666 39.2244 33.8666 39.1944C33.8592 39.1323 33.8592 39.0694 33.8666 39.0073C33.8926 38.8838 33.8926 38.7563 33.8666 38.6329C34.0612 38.3858 33.8067 38.1463 33.8666 37.8842C33.9264 37.6222 33.9789 37.405 33.8666 37.1355C33.8031 36.9052 33.8031 36.662 33.8666 36.4317C33.5671 36.2071 33.9414 35.975 33.8666 35.7504C33.9938 35.5258 33.8666 35.3012 33.8666 35.0841C33.8666 34.8669 34.0088 34.6498 33.8666 34.4327C33.8666 34.223 33.7767 34.0134 33.8666 33.8112C33.7168 33.6016 33.9938 33.3995 33.8666 33.2048C33.8477 33.0131 33.8477 32.82 33.8666 32.6283C33.9098 32.5962 33.9427 32.5522 33.9614 32.5016C33.98 32.4511 33.9834 32.3962 33.9714 32.3438L33.9264 32.209C33.9264 32.209 33.889 32.1716 33.889 32.1491C33.889 32.1267 33.889 32.0967 33.889 32.0817C33.889 32.0668 33.889 32.0817 33.9489 31.947V31.8721C33.9489 31.8721 33.8815 31.8047 33.7917 31.8721C33.7018 31.9395 33.7542 31.8047 33.7168 31.7523C33.7069 31.7455 33.6951 31.7419 33.6831 31.7419C33.6711 31.7419 33.6594 31.7455 33.6494 31.7523H33.612C33.5895 31.7762 33.5717 31.8042 33.5596 31.8346C33.4024 31.8945 33.2601 31.5951 33.1178 31.8346C32.9756 32.0742 32.8333 31.8346 32.7061 31.8346H32.3317C31.2461 31.7373 30.6247 31.6176 30.6247 31.4978C30.6247 31.378 31.3734 31.2282 32.7061 31.1234C32.8333 31.1234 32.9756 30.9512 33.1178 31.1234C33.2601 31.1234 33.4024 30.9961 33.5596 31.1234L33.612 31.0635H33.7018C33.7688 31.0523 33.8371 31.0523 33.904 31.0635C34.0274 31.0949 34.1523 31.1199 34.2783 31.1384C34.4805 31.1384 34.6527 31.1384 34.8698 31.1384C34.8743 31.1972 34.8869 31.2552 34.9072 31.3106C34.9507 31.4444 34.9507 31.5885 34.9072 31.7224C34.8772 31.8706 34.8772 32.0233 34.9072 32.1716C34.881 32.2453 34.8585 32.3202 34.8399 32.3962C34.8325 32.4408 34.8325 32.4863 34.8399 32.5309C34.8506 32.6342 34.8895 32.7326 34.9522 32.8154C34.8174 33.0026 34.9522 33.1973 34.9522 33.392C34.7575 33.5866 34.8998 33.7888 34.9522 33.9984C35.0046 34.2081 34.9522 34.4102 34.9522 34.6199C34.9522 34.8295 34.9971 35.0541 34.9522 35.2712C35.0036 35.3748 35.0304 35.4888 35.0304 35.6044C35.0304 35.72 35.0036 35.8341 34.9522 35.9376C34.9821 36.1637 34.9821 36.3928 34.9522 36.6189C34.9784 36.8528 34.9784 37.0888 34.9522 37.3227C34.9971 37.5623 34.7425 37.8019 34.9522 38.0714C34.9522 38.3185 34.9522 38.558 34.9522 38.8201C34.9448 38.9448 34.9448 39.0698 34.9522 39.1944V39.3816C34.9522 39.3816 34.9522 39.4415 34.9522 39.479V39.2918C34.8571 39.4976 34.8183 39.725 34.8399 39.9506C34.8399 40.1753 34.9147 40.4373 34.9597 40.6994C34.7265 40.7315 34.4911 40.744 34.2559 40.7368L33.5072 40.6994H33.1103H32.7435C32.4964 40.7593 32.2493 40.602 31.9948 40.6994C31.7402 40.7967 31.5081 40.602 31.2461 40.6994H31.1937H31.1113H30.9391H30.5947C30.3875 40.704 30.1807 40.6788 29.9808 40.6245H29.7786C29.7786 40.4224 29.8385 40.2202 29.8535 40.048C29.8748 39.8868 29.8488 39.7229 29.7786 39.5763C29.7689 39.4747 29.7488 39.3743 29.7187 39.2768V39.1944V39.157C29.7155 39.1272 29.7155 39.097 29.7187 39.0672C29.7004 39.0051 29.7037 38.9387 29.7282 38.8788C29.7527 38.8189 29.7969 38.7691 29.8535 38.7377C29.7786 38.5206 29.9957 38.3035 29.8535 38.0939C30.0781 37.8767 29.8535 37.6746 29.8535 37.4649C29.9208 37.271 29.9208 37.06 29.8535 36.866C29.7487 36.6638 29.9059 36.4691 29.8535 36.282C29.8011 36.0948 30.0182 35.9076 29.8535 35.7279C29.8535 35.5482 29.8535 35.3686 29.8535 35.1964C29.5615 35.0242 29.8535 34.8594 29.8535 34.6947C29.8535 34.53 29.6513 34.3803 29.8535 34.223C29.6289 34.0733 29.8535 33.9236 29.8535 33.7813C29.8535 33.6391 29.7561 33.5043 29.8535 33.377C29.6962 33.2422 29.9433 33.115 29.8535 32.9952C29.9583 32.8754 29.8535 32.7631 29.8909 32.6582C29.8683 32.6103 29.8565 32.5578 29.8565 32.5048C29.8565 32.4517 29.8683 32.3992 29.8909 32.3513C29.8909 32.2539 29.8909 32.1641 29.9283 32.0742C31.0289 31.6475 31.1113 31.3704 31.1937 31.3704Z" fill="#98772E"/>
<path d="M39.347 31.3724C39.4294 31.3724 39.5117 31.6494 39.5866 32.1211C39.5866 32.211 39.5866 32.3008 39.624 32.3981C39.6436 32.4995 39.6436 32.6037 39.624 32.7051C39.5192 32.8099 39.8337 32.9223 39.6615 33.042C39.6214 33.1662 39.6214 33.2997 39.6615 33.4239C39.7064 33.5511 39.5941 33.6859 39.6615 33.8282C39.7288 33.9704 39.4219 34.1202 39.6615 34.2699C39.6951 34.4253 39.6951 34.5862 39.6615 34.7416C39.5042 34.9063 39.6615 35.071 39.6615 35.2433C39.4668 35.4155 39.5492 35.5951 39.6615 35.7748C39.3844 35.9545 39.4294 36.1417 39.6615 36.3288C39.6615 36.516 39.5641 36.7107 39.6615 36.9129C39.6953 37.1111 39.6953 37.3136 39.6615 37.5118C39.742 37.5967 39.787 37.7092 39.787 37.8263C39.787 37.9433 39.742 38.0559 39.6615 38.1407C39.8561 38.3504 39.7813 38.5675 39.6615 38.7846C39.6205 38.8906 39.6205 39.0081 39.6615 39.1141C39.6647 39.1439 39.6647 39.174 39.6615 39.2039C39.6622 39.2164 39.6622 39.2289 39.6615 39.2413H39.6091C39.6091 39.2862 39.6091 39.3012 39.6091 39.3312C39.6091 39.3761 39.6091 39.4135 39.6091 39.4285C39.6285 39.4348 39.6495 39.4348 39.669 39.4285C39.9112 39.3429 40.1754 39.3429 40.4177 39.4285C40.6573 39.2189 40.9043 39.3087 41.1664 39.4285C41.2905 39.4103 41.4166 39.4103 41.5407 39.4285C41.6029 39.4363 41.6658 39.4363 41.7279 39.4285H41.8177H41.8627H41.9076C41.9076 39.4285 41.9076 39.4285 41.975 39.4285C41.975 39.4285 42.0349 39.4285 42.0424 39.4285C42.0602 39.4891 42.1014 39.5401 42.1569 39.5703C42.2124 39.6004 42.2775 39.6074 42.3381 39.5895C42.3987 39.5716 42.4496 39.5304 42.4798 39.4749C42.51 39.4195 42.5169 39.3543 42.4991 39.2937C42.5023 39.2789 42.5023 39.2636 42.4991 39.2488C42.4957 39.2165 42.4957 39.1838 42.4991 39.1515C42.4954 39.0891 42.4954 39.0266 42.4991 38.9643C42.5374 38.8435 42.5501 38.716 42.5365 38.5899C42.7237 38.3429 42.4691 38.1033 42.5365 37.8412C42.6039 37.5792 42.6488 37.3621 42.5365 37.0925C42.4766 36.8618 42.4766 36.6195 42.5365 36.3887C42.237 36.1641 42.6114 35.9321 42.5365 35.7074C42.6563 35.4828 42.5365 35.2582 42.5365 35.0411C42.5365 34.824 42.6713 34.6068 42.5365 34.3897C42.5365 34.1801 42.4392 33.9704 42.5365 33.7683C42.3942 33.5586 42.6638 33.3565 42.5365 33.1618C42.5214 32.97 42.5214 32.7772 42.5365 32.5853C42.5822 32.5554 42.617 32.5116 42.6359 32.4604C42.6548 32.4091 42.6567 32.3532 42.6413 32.3008C42.6297 32.2548 42.6147 32.2098 42.5964 32.166C42.5964 32.166 42.5964 32.1286 42.559 32.1062C42.5215 32.0837 42.559 32.0537 42.5215 32.0388C42.4841 32.0238 42.5215 32.0388 42.5889 31.904C42.5866 31.8791 42.5866 31.8541 42.5889 31.8291C42.5889 31.8291 42.529 31.7618 42.4317 31.8291C42.3344 31.8965 42.4317 31.7617 42.3568 31.7093C42.348 31.7032 42.3376 31.6999 42.3269 31.6999C42.3162 31.6999 42.3057 31.7032 42.2969 31.7093H42.2595C42.2343 31.7326 42.214 31.7606 42.1996 31.7917C42.0499 31.8516 41.9001 31.5521 41.7579 31.7917C41.6156 32.0313 41.4808 31.7917 41.3461 31.7917H40.9717C39.8936 31.6943 39.2721 31.5746 39.2721 31.4548C39.2721 31.335 40.0208 31.1853 41.3461 31.0804C41.4808 31.0804 41.6156 30.9082 41.7579 31.0804C41.9001 31.0804 42.0499 30.9532 42.1996 31.0804C42.2176 31.0586 42.2377 31.0386 42.2595 31.0205C42.2892 31.0152 42.3196 31.0152 42.3493 31.0205C42.4137 31.0095 42.4796 31.0095 42.544 31.0205C42.6674 31.052 42.7923 31.0769 42.9183 31.0954C43.1205 31.0954 43.2927 31.0954 43.5098 31.0954C43.5021 31.1525 43.5021 31.2105 43.5098 31.2676C43.5572 31.4008 43.5572 31.5462 43.5098 31.6794C43.4761 31.8272 43.4761 31.9808 43.5098 32.1286C43.4781 32.2011 43.4531 32.2762 43.435 32.3532C43.4276 32.3978 43.4276 32.4434 43.435 32.488C43.4462 32.5899 43.4822 32.6876 43.5398 32.7725C43.4125 32.9597 43.5398 33.1543 43.5398 33.349C43.3376 33.5437 43.4799 33.7458 43.5398 33.9555C43.5997 34.1651 43.5398 34.3673 43.5398 34.5769C43.5398 34.7865 43.5922 35.0111 43.5398 35.2283C43.5912 35.3318 43.618 35.4458 43.618 35.5614C43.618 35.677 43.5912 35.7911 43.5398 35.8946C43.5734 36.1205 43.5734 36.3501 43.5398 36.5759C43.5735 36.8093 43.5735 37.0463 43.5398 37.2797C43.5847 37.5193 43.3301 37.7589 43.5398 38.0284C43.5398 38.2755 43.5023 38.5151 43.5398 38.7771C43.5398 38.9044 43.5398 39.0242 43.5398 39.1515C43.5361 39.2138 43.5361 39.2763 43.5398 39.3387C43.5398 39.3387 43.5398 39.3986 43.5398 39.436V39.2937C43.4414 39.4985 43.4025 39.7268 43.4275 39.9526C43.4275 40.1772 43.4949 40.4393 43.5398 40.7013C43.3091 40.7332 43.0762 40.7458 42.8435 40.7387L42.0948 40.7013H41.7054H41.3311C41.084 40.7612 40.8369 40.604 40.5824 40.7013C40.3278 40.7986 40.1032 40.604 39.8337 40.7013H39.7888H39.6989H39.5342H39.1898C38.9802 40.7055 38.771 40.6803 38.5684 40.6265H38.7555C38.7555 40.4243 38.8154 40.2221 38.8229 40.0499C38.8465 39.8895 38.8231 39.7257 38.7555 39.5782C38.7555 39.4809 38.7181 39.3836 38.6956 39.2787V39.1964V39.159V39.0691C38.6773 39.0071 38.6807 38.9406 38.7052 38.8807C38.7297 38.8208 38.7738 38.7711 38.8304 38.7397C38.7555 38.5226 38.9802 38.3055 38.8304 38.0958C39.0475 37.8787 38.8304 37.6765 38.8304 37.4669C38.9014 37.2735 38.9014 37.0613 38.8304 36.8679C38.7256 36.6658 38.8903 36.4711 38.8304 36.2839C38.7705 36.0967 38.9951 35.9096 38.8304 35.7299C38.8304 35.5502 38.8304 35.3705 38.8304 35.1983C38.5309 35.0261 38.8304 34.8614 38.8304 34.6967C38.8304 34.5319 38.6357 34.3822 38.8304 34.225C38.6058 34.0752 38.8304 33.9255 38.8304 33.7833C38.8304 33.641 38.7331 33.5062 38.8304 33.3789C38.6732 33.2442 38.9203 33.1169 38.8304 32.9971C38.9352 32.8773 38.8304 32.765 38.8304 32.6602C38.8117 32.6098 38.8053 32.5556 38.8118 32.5022C38.8183 32.4488 38.8375 32.3977 38.8678 32.3532C38.8678 32.2559 38.8679 32.166 38.9053 32.0762C39.1898 31.6494 39.2647 31.3724 39.347 31.3724Z" fill="#5D270D"/>
<path d="M15.104 57.4258C15.1863 57.4258 15.2687 57.9274 15.3436 58.8408C15.3436 58.9981 15.3436 59.1628 15.381 59.335C15.4 59.5217 15.4 59.7099 15.381 59.8966C15.2762 60.0912 15.5831 60.3008 15.4184 60.5179C15.4035 60.6298 15.4035 60.7431 15.4184 60.8549C15.4111 60.912 15.4111 60.9699 15.4184 61.0271V61.1169C15.4296 61.1688 15.4296 61.2223 15.4184 61.2741C15.4114 61.3288 15.4114 61.3842 15.4184 61.4389C15.4585 61.4367 15.4973 61.4238 15.5307 61.4015C15.673 61.2966 15.6655 61.3565 15.7254 61.4015C15.7366 61.417 15.7512 61.4297 15.7681 61.4387C15.7849 61.4478 15.8036 61.453 15.8227 61.4538H15.9126C15.9524 61.4366 15.9881 61.4111 16.0174 61.379C16.3036 61.3487 16.5922 61.3487 16.8784 61.379C17.1704 61.5437 17.4774 61.379 17.7843 61.379C17.9319 61.4616 18.0982 61.505 18.2673 61.505C18.4364 61.505 18.6026 61.4616 18.7502 61.379C18.8878 61.5031 19.0665 61.5719 19.2518 61.5719C19.4371 61.5719 19.6159 61.5031 19.7534 61.379C20.1031 61.435 20.4595 61.435 20.8091 61.379C21.1754 61.349 21.5435 61.349 21.9097 61.379C22.0879 61.296 22.2821 61.2529 22.4787 61.2529C22.6753 61.2529 22.8695 61.296 23.0478 61.379C23.4253 61.2293 23.8457 61.2293 24.2232 61.379C24.62 61.4838 25.0243 61.2068 25.4361 61.379C25.8479 61.379 26.2597 61.3341 26.679 61.379C27.0957 61.51 27.5426 61.51 27.9593 61.379C28.3925 61.3004 28.8363 61.3004 29.2695 61.379C29.6992 61.2182 30.1725 61.2182 30.6022 61.379C31.053 61.4199 31.5066 61.4199 31.9574 61.379H32.5713C32.5713 61.379 32.5713 61.379 32.6761 61.379C32.6761 61.379 32.736 61.379 32.7435 61.2891V61.1843C32.7435 61.1244 32.7435 61.0645 32.7435 61.0121C32.7315 60.8961 32.7115 60.781 32.6836 60.6677C32.6427 60.2169 32.6427 59.7633 32.6836 59.3125C32.7642 59.0973 32.7823 58.8638 32.736 58.6387V58.474C32.736 58.474 32.736 58.474 32.736 58.4216C32.736 58.3692 32.736 58.4216 32.736 58.3692C32.7136 58.3521 32.6882 58.3394 32.6611 58.3317H32.5039C32.4618 58.3246 32.4188 58.3246 32.3767 58.3317C31.9542 58.3879 31.5263 58.3879 31.1038 58.3317C30.6771 58.6312 30.2653 58.2569 29.8535 58.3317C29.4506 58.2832 29.0434 58.2832 28.6406 58.3317C28.2438 58.3841 27.847 58.1895 27.4651 58.3317C27.0871 58.3767 26.7051 58.3767 26.3271 58.3317C25.9527 58.4815 25.5784 58.2045 25.2265 58.3317C24.8746 58.459 24.5152 58.3317 24.1708 58.3317C23.8264 58.0996 23.4895 58.3317 23.1675 58.3317C22.8456 58.3317 22.5162 58.4665 22.2017 58.3317C21.9027 58.2722 21.5948 58.2722 21.2958 58.3317C20.9963 58.3317 20.7118 57.9948 20.4348 58.3317C20.1577 58.3916 19.8882 58.0921 19.6337 58.3317C19.3791 58.5713 19.1245 58.3317 18.8849 58.3317L18.2036 58.2943C16.2345 58.197 15.1115 58.0847 15.1115 57.9574C15.1115 57.8301 16.4966 57.6878 18.855 57.583C19.0946 57.583 19.3417 57.4108 19.6037 57.583C19.8583 57.583 20.1278 57.4557 20.4048 57.583C20.6818 57.3734 20.9663 57.583 21.2658 57.583C21.5667 57.6197 21.8709 57.6197 22.1718 57.583C22.4862 57.4557 22.8082 57.6429 23.1376 57.583C23.46 57.7099 23.8185 57.7099 24.1409 57.583C24.4853 57.7178 24.8372 57.583 25.1965 57.583C25.5501 57.7227 25.9436 57.7227 26.2971 57.583C26.6715 57.5082 27.0459 57.583 27.4352 57.583C27.8245 57.583 28.1839 57.5306 28.6106 57.583C29.0086 57.4819 29.4256 57.4819 29.8236 57.583C30.2397 57.5492 30.6578 57.5492 31.0739 57.583C31.4977 57.5568 31.9228 57.5568 32.3467 57.583H32.6162H33.0729C33.3643 57.6096 33.6575 57.6096 33.9489 57.583C33.9538 57.7458 33.9815 57.9071 34.0313 58.0622C34.0313 58.2644 34.0313 58.474 34.0313 58.6762V59.1403C34.0163 59.3647 34.0163 59.5898 34.0313 59.8142C33.9864 60.2648 33.9864 60.7187 34.0313 61.1693C33.9808 61.2782 33.9479 61.3945 33.934 61.5137C33.9262 61.5709 33.9262 61.6288 33.934 61.6859V61.918C33.934 62.3148 34.0088 62.7566 34.0463 63.2358C33.642 63.2358 33.1927 63.2358 32.751 63.2358H32.3242H31.9798C31.5231 63.2358 31.0739 63.2358 30.6247 63.2358C30.1755 63.2358 29.7337 63.1459 29.292 63.2358C28.8502 63.3256 28.416 63.1309 27.9817 63.2358C27.5589 63.3181 27.1242 63.3181 26.7014 63.2358C26.2822 63.2358 25.8704 63.0411 25.4586 63.2358C25.0468 63.2807 24.6425 63.5278 24.2457 63.2358C23.8489 63.3106 23.4521 63.086 23.0702 63.2358C22.6809 63.0186 22.3215 63.2358 21.9322 63.2358C21.5687 63.1649 21.195 63.1649 20.8316 63.2358C20.4722 63.3406 20.1203 63.1759 19.7759 63.2358C19.4315 63.2957 19.1021 63.071 18.7726 63.2358C18.4432 63.2358 18.1213 63.2358 17.8068 63.2358C17.4998 63.5352 17.1929 63.2358 16.9009 63.2358C16.6089 63.2358 16.3169 63.4304 16.0399 63.2358C16.0085 63.2634 15.9732 63.2861 15.935 63.3032C15.8954 63.3102 15.8549 63.3102 15.8152 63.3032C15.7009 63.3183 15.5851 63.3183 15.4708 63.3032C15.2462 63.3032 15.074 63.2133 14.9018 63.1833C14.8297 63.1757 14.7569 63.1757 14.6847 63.1833C14.6847 63.0261 14.6847 62.8914 14.6847 62.7416C14.6703 62.5854 14.6855 62.4279 14.7296 62.2774C14.6936 62.1948 14.6757 62.1055 14.6772 62.0154C14.6694 61.9557 14.6694 61.8953 14.6772 61.8357C14.7258 61.7304 14.7465 61.6143 14.7371 61.4987C14.8344 61.2816 14.7371 61.072 14.7371 60.8774C14.7004 60.6901 14.7133 60.4965 14.7745 60.3158C14.7745 60.1436 14.7745 59.9789 14.7745 59.8217C14.9393 57.9274 15.0216 57.4258 15.104 57.4258Z" fill="#5D270D"/>
<path d="M15.1268 57.4278C15.0444 57.4278 14.9621 56.9262 14.8872 56.0128C14.8872 55.8631 14.8872 55.6983 14.8872 55.5186C14.8591 55.3353 14.8466 55.15 14.8498 54.9646C14.9546 54.7624 14.6476 54.5528 14.8123 54.3357C14.8349 54.2271 14.8349 54.1149 14.8123 54.0063C14.8157 53.9464 14.8157 53.8864 14.8123 53.8265C14.8123 53.7367 14.8123 53.6544 14.8123 53.5645C14.8011 53.4225 14.8011 53.2798 14.8123 53.1377C14.8237 52.9932 14.8237 52.848 14.8123 52.7035C14.877 52.7112 14.9423 52.7112 15.007 52.7035C15.1193 52.5987 15.3888 52.6586 15.606 52.7035C15.7045 52.7276 15.8046 52.7451 15.9054 52.7559H15.9728H16.0252L16.13 52.6885C16.4133 52.6509 16.7003 52.6509 16.9836 52.6885C17.2831 52.8532 17.5825 52.6885 17.897 52.6885C18.0438 52.7691 18.2087 52.8114 18.3762 52.8114C18.5437 52.8114 18.7085 52.7691 18.8553 52.6885C18.9934 52.8148 19.1737 52.8848 19.3607 52.8848C19.5478 52.8848 19.7281 52.8148 19.8661 52.6885C20.2158 52.7445 20.5721 52.7445 20.9218 52.6885C21.2854 52.6547 21.6513 52.6547 22.0149 52.6885C22.1931 52.6055 22.3873 52.5625 22.5839 52.5625C22.7805 52.5625 22.9747 52.6055 23.1529 52.6885C23.5311 52.5425 23.9502 52.5425 24.3284 52.6885C24.7327 52.8008 25.1295 52.5238 25.5413 52.6885C25.9531 52.6885 26.3724 52.6885 26.7916 52.6885C27.2064 52.8157 27.6497 52.8157 28.0644 52.6885C28.498 52.6136 28.9411 52.6136 29.3747 52.6885C29.8056 52.5349 30.2764 52.5349 30.7074 52.6885C31.1582 52.7295 31.6117 52.7295 32.0625 52.6885H32.8112C33.24 52.6582 33.6703 52.6582 34.099 52.6885C34.099 53.1527 34.0316 53.572 34.0241 53.9763V54.2159C34.0241 54.2758 34.0241 54.3357 34.0241 54.3881C34.0288 54.505 34.049 54.6208 34.0841 54.7325C34.1215 55.1834 34.1215 55.6367 34.0841 56.0876C34.0035 56.3028 33.9853 56.5364 34.0316 56.7615V56.9262V57.0685V57.2182C34.043 57.4227 34.043 57.6277 34.0316 57.8321C34.0316 58.0193 34.0316 58.199 34.0316 58.3712L33.0883 58.3338H32.4968C32.4572 58.3266 32.4166 58.3266 32.377 58.3338C31.9521 58.39 31.5216 58.39 31.0967 58.3338C30.6774 58.6333 30.2581 58.2589 29.8538 58.3338C29.451 58.2852 29.0438 58.2852 28.6409 58.3338C28.2366 58.3862 27.8473 58.1915 27.4655 58.3338C27.0875 58.3788 26.7054 58.3788 26.3274 58.3338C25.9531 58.4835 25.5787 58.2065 25.2268 58.3338C24.8749 58.461 24.5156 58.3338 24.1712 58.3338C23.8268 58.1017 23.4898 58.3338 23.1604 58.3338C22.831 58.3338 22.5165 58.4685 22.2021 58.3338C21.903 58.2743 21.5952 58.2743 21.2961 58.3338C20.9966 58.3338 20.7121 57.9969 20.4351 58.3338C20.1581 58.3937 19.8886 58.0942 19.634 58.3338C19.3794 58.5734 19.1249 58.3338 18.8853 58.3338L18.204 58.2963C16.2349 58.199 15.1118 58.0867 15.1118 57.9594C15.1118 57.8321 16.4969 57.6899 18.8553 57.5851C19.0949 57.5851 19.342 57.4129 19.604 57.5851C19.8586 57.5851 20.1281 57.4578 20.4052 57.5851C20.6822 57.3754 20.9667 57.5851 21.2662 57.5851C21.567 57.6217 21.8713 57.6217 22.1721 57.5851C22.4866 57.4578 22.8085 57.645 23.1305 57.5851C23.4555 57.7116 23.8162 57.7116 24.1412 57.5851C24.4856 57.7198 24.8375 57.5851 25.1969 57.5851C25.5505 57.7248 25.9439 57.7248 26.2975 57.5851C26.6644 57.5102 27.0462 57.5851 27.4355 57.5851C27.8249 57.5851 28.1842 57.5327 28.611 57.5851C29.009 57.484 29.4259 57.484 29.8239 57.5851C30.2375 57.5513 30.6532 57.5513 31.0668 57.5851C31.4931 57.5588 31.9207 57.5588 32.347 57.5851H32.5791H32.6316C32.669 57.5851 32.7364 57.645 32.7663 57.5851C32.7473 57.538 32.7163 57.4967 32.6765 57.4653C32.674 57.4504 32.674 57.4352 32.6765 57.4204V57.2332C32.6914 57.0088 32.6914 56.7837 32.6765 56.5593C32.7214 56.1087 32.7214 55.6548 32.6765 55.2042C32.726 55.0943 32.7612 54.9786 32.7813 54.8598C32.7813 54.8073 32.7813 54.7475 32.7813 54.6876C32.7847 54.6602 32.7847 54.6326 32.7813 54.6052C32.7813 54.5453 32.7064 54.5154 32.669 54.5378C32.6091 54.5378 32.6016 54.5753 32.5791 54.5378H32.3171H31.9727C31.516 54.5378 31.0668 54.5378 30.6175 54.5378C30.1683 54.5378 29.7266 54.448 29.2848 54.5378C28.8431 54.6277 28.4088 54.4405 27.9746 54.5378C27.5547 54.624 27.1217 54.624 26.7018 54.5378C26.2825 54.5378 25.8632 54.3357 25.4514 54.5378C25.0397 54.5827 24.6428 54.8223 24.2385 54.5378C23.8417 54.6127 23.4898 54.3956 23.0631 54.5378C22.6812 54.3132 22.3144 54.5378 21.925 54.5378C21.5638 54.4708 21.1932 54.4708 20.8319 54.5378C20.4725 54.6426 20.0832 54.4779 19.7762 54.5378C19.4693 54.5977 19.0949 54.3731 18.7655 54.5378C18.4361 54.5378 18.1141 54.5378 17.8072 54.5378C17.4927 54.8373 17.1932 54.5378 16.8937 54.5378C16.5942 54.5378 16.3172 54.74 16.0402 54.5378L15.9354 54.5977H15.883C15.8725 54.603 15.861 54.6057 15.8493 54.6057C15.8376 54.6057 15.826 54.603 15.8156 54.5977C15.7488 54.5483 15.6758 54.5081 15.5985 54.478H15.5086C15.5044 54.5328 15.5044 54.5878 15.5086 54.6426C15.5086 54.6951 15.5086 54.7325 15.4637 54.7624C15.4919 54.7847 15.5106 54.8168 15.5161 54.8523C15.5221 54.9096 15.5221 54.9672 15.5161 55.0245C15.4666 55.1267 15.4483 55.2414 15.4637 55.3539C15.3589 55.5711 15.4637 55.7807 15.4263 55.9828C15.4752 56.1643 15.4752 56.3555 15.4263 56.5369C15.4263 56.7166 15.4263 56.8813 15.4263 57.031C15.2915 56.9262 15.2091 57.4278 15.1268 57.4278Z" fill="#5D270D"/>
<path d="M9.09956 3.80471C9.09956 3.80471 9.05463 3.80471 8.97976 3.80471C8.90489 3.80471 8.77013 3.80472 8.6129 3.86462C8.14598 3.95573 7.70107 4.13625 7.30267 4.39622C7.16582 4.48651 7.0357 4.58657 6.91333 4.69568L6.71868 4.8754C6.65129 4.9353 6.59888 5.01763 6.5315 5.08502C6.26701 5.40408 6.05934 5.76624 5.91755 6.15566C5.90349 6.2116 5.886 6.26663 5.86515 6.3204L5.82022 6.4851C5.82371 6.54244 5.82371 6.59994 5.82022 6.65728V6.83701C5.81662 6.89685 5.81662 6.95685 5.82022 7.01669C5.82022 7.07659 5.82022 7.13648 5.82022 7.19638C5.82022 7.25627 5.82022 7.45091 5.82022 7.59317C5.82022 8.13224 5.82022 8.70874 5.82022 9.32268C5.82022 10.1388 5.82022 11.0148 5.82022 11.9581C5.82022 12.9015 5.86514 13.8898 5.82022 14.953C5.7753 16.0161 6.02237 17.1242 5.82022 18.2922C5.76781 19.4602 5.82022 20.6806 5.82022 21.9534C5.82022 23.2262 5.75283 24.5664 5.82022 25.944C6.03734 27.3291 5.58812 28.7591 5.82022 30.2416C5.88011 31.739 5.86514 33.2364 5.82022 34.8311C5.72691 36.452 5.72691 38.0769 5.82022 39.6977C5.65565 41.4083 5.65565 43.1308 5.82022 44.8413C5.55843 46.6312 5.55843 48.4497 5.82022 50.2395C5.82022 52.0739 5.72289 53.9831 5.82022 55.8773C5.91755 57.7716 5.8876 59.7481 5.82022 61.7472C5.86514 62.2413 5.90257 62.7429 5.92504 63.2446V63.4393C5.92096 63.4966 5.92096 63.5541 5.92504 63.6114C5.92504 63.7163 5.92504 63.8136 5.92504 63.9184C5.95993 64.1166 6.01 64.3119 6.07479 64.5024C6.35955 65.2968 6.94221 65.9493 7.69948 66.3218C7.80226 66.3546 7.90738 66.3797 8.01394 66.3967H8.17116H8.32839H9.00222C9.52632 66.3967 10.0429 66.3967 10.567 66.3967C11.6227 66.3967 12.6784 66.4491 13.7415 66.5015C15.8754 66.6063 18.0391 66.3293 20.2328 66.5015C22.4265 66.5015 24.6502 66.4566 26.8963 66.5015C29.173 66.6325 31.4553 66.6325 33.732 66.5015C36.038 66.4491 38.3665 66.3892 40.7249 66.5015C43.0981 66.3405 45.4795 66.3405 47.8526 66.5015C50.256 66.464 52.6743 66.6138 55.1151 66.5015C57.5634 66.5015 60.0191 66.4116 62.4973 66.5015C63.0192 66.5227 63.537 66.401 63.9948 66.1496L64.1595 66.0597L64.3167 65.9474C64.4215 65.88 64.5114 65.7827 64.6162 65.7004C64.7998 65.523 64.9585 65.3214 65.0879 65.1014C65.3581 64.6655 65.4983 64.1617 65.4922 63.6489V63.1997V62.7355C65.4922 62.436 65.4922 62.129 65.4922 61.8221C65.3574 59.3813 65.5446 56.9629 65.4922 54.5596C65.6868 52.1637 65.4323 49.7828 65.4922 47.4319C65.5521 45.0809 65.6045 42.745 65.4922 40.439C65.3799 38.133 65.4173 35.8569 65.4922 33.6033C65.2002 31.3572 65.567 29.111 65.4922 26.9323C65.6195 24.7386 65.4922 22.5823 65.4922 20.4485C65.4922 18.3147 65.6269 16.2183 65.4922 14.1518C65.4922 12.0929 65.3948 10.0564 65.4922 8.06486V7.6905V7.50333C65.4922 7.44343 65.4922 7.37606 65.4922 7.33114C65.4832 7.12691 65.4556 6.92392 65.4098 6.72469C65.3198 6.32533 65.1547 5.94674 64.9232 5.60912C64.6924 5.2673 64.3912 4.97882 64.0397 4.76308C63.6887 4.54886 63.2898 4.42537 62.8792 4.40371H62.5722H60.0865C59.1531 4.40371 58.2247 4.40371 57.3013 4.40371C55.504 4.28034 53.7004 4.28034 51.9031 4.40371C50.1512 4.40371 48.4366 4.53848 46.767 4.40371C45.0974 4.40371 43.4727 4.27643 41.8929 4.40371C40.3132 4.53099 38.7858 4.0668 37.3034 4.40371C35.8059 4.45612 34.3909 4.17161 33.0133 4.40371C31.685 4.50515 30.3509 4.50515 29.0227 4.40371H25.354C20.113 4.3513 15.9652 4.29887 13.1426 4.23897C11.735 4.23897 10.6494 4.17908 9.92314 4.14913C9.55164 4.15856 9.18018 4.12844 8.81505 4.05929C9.26465 3.97917 9.72113 3.94404 10.1777 3.95446C11.0761 3.95446 12.4238 3.89456 14.1309 3.85713C17.5899 3.79723 22.6362 3.73735 29.0227 3.68494C30.3517 3.60588 31.6842 3.60588 33.0133 3.68494C34.3909 3.68494 35.8209 3.55766 37.3034 3.68494C38.831 3.56856 40.3653 3.56856 41.8929 3.68494C43.4727 3.68494 45.0974 3.74484 46.767 3.68494C48.4366 3.62504 50.1512 3.74484 51.9031 3.68494C53.7004 3.80831 55.504 3.80831 57.3013 3.68494C58.2222 3.74484 59.1506 3.73735 60.0865 3.68494H61.5091H62.2578H62.6246C62.7594 3.68494 62.9016 3.68494 63.0364 3.68494C64.1334 3.90242 65.1177 4.50201 65.8141 5.37702C66.1562 5.82426 66.4103 6.3324 66.5628 6.87444C66.6374 7.15092 66.6826 7.43451 66.6976 7.72048C66.6976 7.79535 66.6976 7.85526 66.6976 7.91515V8.10233V8.47668C66.7725 10.4682 66.6976 12.5047 66.6976 14.5636C66.6976 16.6226 66.75 18.7265 66.6976 20.8603C66.7874 22.9941 66.8249 25.1504 66.6976 27.3441C66.7575 29.5378 66.6976 31.7615 66.6976 34.0151C66.6976 36.2687 66.6976 38.5073 66.6976 40.8508C66.6976 43.1942 66.488 45.4852 66.6976 47.8437C66.6976 50.1946 66.6602 52.5755 66.6976 54.9714C66.735 57.3672 66.6377 59.7931 66.6976 62.2338L66.6302 63.1472V63.6114V63.9559C66.6337 63.9957 66.6337 64.0358 66.6302 64.0756C66.607 64.7923 66.4063 65.4921 66.0462 66.1121C65.869 66.423 65.6526 66.7099 65.4023 66.9657C65.2793 67.0976 65.1467 67.2202 65.0055 67.3325L64.7884 67.4972L64.5638 67.647C63.9345 68.0286 63.2179 68.2426 62.4824 68.2684C60.0042 68.3283 57.5484 68.2684 55.1001 68.2684C52.6518 68.2684 50.241 68.2684 47.8377 68.2684C45.4343 68.2684 43.0609 68.1786 40.71 68.2684C38.359 68.3583 36.0231 68.1636 33.717 68.2684C31.411 68.3732 29.135 68.3658 26.8814 68.2684C24.6277 68.1711 22.3891 68.0738 20.2179 68.2684C18.0575 68.4407 15.8869 68.4407 13.7266 68.2684C12.6634 68.3133 11.6077 68.2684 10.5521 68.2684C10.028 68.2684 9.51135 68.2684 8.98726 68.2684H8.35085H8.12624H7.90162L7.67702 68.216C7.53019 68.184 7.38522 68.144 7.24277 68.0962C6.16966 67.5757 5.33268 66.6692 4.89931 65.5581C4.74314 65.148 4.65219 64.716 4.62978 64.2778C4.62978 64.2029 4.62978 64.143 4.62978 64.0831V63.2521C4.62978 62.7504 4.62978 62.2488 4.62978 61.7547C4.6747 59.7556 4.74957 57.8015 4.62978 55.8848C4.50998 53.9681 4.68219 52.0814 4.62978 50.247C4.57737 48.4127 4.79449 46.6008 4.62978 44.8488C4.62978 43.0894 4.62978 41.3748 4.62978 39.7052C4.33778 38.0356 4.62978 36.4109 4.62978 34.8386C4.53952 33.3101 4.53952 31.7776 4.62978 30.2491C4.48716 28.8201 4.48716 27.3805 4.62978 25.9515C4.69716 24.5739 4.53244 23.2411 4.62978 21.9609C4.47255 20.6881 4.71962 19.4677 4.62978 18.2997C4.73459 17.1317 4.62978 16.0536 4.62978 14.9605C4.62978 13.8674 4.62978 12.909 4.66721 11.9656C4.70465 11.0223 4.66722 10.1463 4.70465 9.33017C4.70465 8.71623 4.70465 8.13973 4.70465 7.60066C4.70465 7.45841 4.70465 7.33114 4.70465 7.18888C4.70863 7.11906 4.70863 7.04909 4.70465 6.97927C4.70465 6.91188 4.70465 6.85198 4.70465 6.7846C4.72074 6.71793 4.73324 6.65044 4.74209 6.58243C4.76399 6.52137 4.7815 6.45882 4.79449 6.39525C4.79449 6.33536 4.7945 6.27547 4.84691 6.21557L4.91429 6.03589C5.09536 5.61343 5.34873 5.22576 5.663 4.89035C5.73787 4.82296 5.79776 4.74063 5.87263 4.68073L6.08975 4.49356C6.23109 4.38528 6.3786 4.28527 6.5315 4.19405C6.96647 3.94181 7.45269 3.79086 7.95404 3.75234C8.07833 3.73668 8.2041 3.73668 8.32839 3.75234C9.05464 3.78229 9.09956 3.78974 9.09956 3.80471Z" fill="#5D270D"/>
<path d="M10.6942 9.16797C10.8793 10.4998 10.9594 11.8441 10.9338 13.1885C10.9338 13.6228 10.9338 14.087 10.9338 14.5886C10.9338 15.0902 10.9787 15.6143 10.9338 16.1759C10.8888 16.7374 11.1434 17.3214 10.9338 17.9428C10.893 18.591 10.893 19.2412 10.9338 19.8895C10.9787 20.5633 10.8664 21.2745 10.9338 22.0083V22.1206C10.9338 22.1206 10.9338 22.1206 10.9338 22.158C10.9374 22.1879 10.9374 22.218 10.9338 22.2479C10.9263 22.326 10.9138 22.4035 10.8963 22.48C10.9909 22.5226 11.0923 22.548 11.1958 22.5549H11.4953C11.612 22.5399 11.7273 22.5148 11.8397 22.48C12.5884 22.4201 13.4345 22.435 14.273 22.48C15.1313 22.577 15.9978 22.577 16.856 22.48C17.7567 22.6482 18.6807 22.6482 19.5813 22.48C20.5198 22.7381 21.5105 22.7381 22.4489 22.48C23.4465 22.5325 24.4461 22.5325 25.4437 22.48C26.462 22.48 27.5027 22.4126 28.5583 22.48C29.6302 22.3151 30.7209 22.3151 31.7928 22.48C32.9013 22.3376 34.0235 22.3376 35.132 22.48C36.2625 22.5923 37.3781 22.3152 38.5685 22.48C39.7365 22.48 40.912 22.435 42.1099 22.48C43.3145 22.6074 44.5291 22.6074 45.7337 22.48C46.9679 22.4051 48.2055 22.4051 49.4398 22.48C50.6979 22.3265 51.9701 22.3265 53.2282 22.48C54.501 22.48 55.7813 22.5923 57.0766 22.48C57.728 22.48 58.3793 22.48 59.0307 22.48H60.0115H60.1313C60.1313 22.48 60.2287 22.48 60.2212 22.48H60.3035C60.3046 22.4575 60.3046 22.435 60.3035 22.4126V22.1954C60.3035 21.866 60.3035 21.5441 60.3035 21.2146C60.3149 20.565 60.2924 19.9153 60.2361 19.268C60.1089 17.9728 60.296 16.685 60.2361 15.4122C60.4308 14.1394 60.1688 12.8815 60.2361 11.6686C60.2361 11.3018 60.2361 10.9199 60.2361 10.568V10.2536V10.2087C60.2402 10.1689 60.2402 10.1287 60.2361 10.0889H59.7195H59.3452C58.1356 10.1526 56.9235 10.1526 55.7139 10.0889C54.5235 10.3883 53.3405 10.014 52.18 10.0889C51.0121 9.96158 49.8665 10.0889 48.736 10.0889C47.6054 10.0889 46.4899 9.94661 45.3968 10.0889C44.3036 10.0889 43.2255 10.1862 42.1698 10.0889C41.1067 10.2386 40.0734 9.96158 39.0552 10.0889C38.037 10.2161 37.0337 10.0889 36.0604 10.0889C35.111 9.96548 34.1497 9.96548 33.2003 10.0889C32.2931 10.1565 31.3822 10.1565 30.475 10.0889C29.6149 10.0331 28.7521 10.0331 27.892 10.0889C27.0534 10.0889 26.2373 9.75195 25.4512 10.0889C24.6651 10.1488 23.9089 9.84928 23.2051 10.0889C22.5024 10.1903 21.7889 10.1903 21.0862 10.0889H19.1471C16.3544 10.0365 14.1607 9.98407 12.6633 9.92417C11.8955 9.94027 11.1281 9.88009 10.3722 9.74449C11.3026 9.59203 12.2448 9.52436 13.1874 9.54232C15.0217 9.48243 17.6796 9.42254 21.0862 9.37013C21.7903 9.29113 22.501 9.29113 23.2051 9.37013C23.953 9.3224 24.7032 9.3224 25.4512 9.37013C26.2606 9.25372 27.0826 9.25372 27.892 9.37013C28.7231 9.37013 29.5841 9.43003 30.475 9.37013C31.366 9.31024 32.2644 9.43003 33.2003 9.37013C34.1497 9.49352 35.111 9.49352 36.0604 9.37013C37.0576 9.43354 38.0579 9.43354 39.0552 9.37013C40.0888 9.50856 41.1362 9.50856 42.1698 9.37013C43.2255 9.29526 44.3036 9.37013 45.3968 9.37013C46.4899 9.37013 47.6054 9.32521 48.736 9.37013C49.8818 9.26897 51.0342 9.26897 52.18 9.37013C53.3405 9.30275 54.5235 9.37013 55.7139 9.37013C56.9044 9.37013 58.1173 9.37013 59.3452 9.37013H59.7195H60.1163H61.479C61.479 9.69957 61.479 10.029 61.479 10.3659V11.1146C61.4817 11.4835 61.5142 11.8516 61.5763 12.2152C61.5763 13.4656 61.5389 14.7234 61.5763 15.9587C61.6138 17.1941 61.5239 18.5193 61.5763 19.8146C61.4753 20.4582 61.4377 21.1102 61.464 21.7612C61.464 22.0907 61.464 22.4126 61.5089 22.742V22.0757C61.514 22.1255 61.514 22.1756 61.5089 22.2254V22.6821C61.5089 22.9966 61.5089 23.311 61.5089 23.6255H60.588H59.8393H58.8585C58.2071 23.6255 57.5558 23.6255 56.9044 23.5881C55.6091 23.5881 54.3288 23.5881 53.056 23.5881C51.7832 23.5881 50.5179 23.4907 49.2676 23.5881C48.0172 23.6854 46.7819 23.4907 45.5615 23.5881C44.355 23.6705 43.1442 23.6705 41.9377 23.5881C40.7591 23.4946 39.5749 23.4946 38.3963 23.5881C37.257 23.7566 36.0991 23.7566 34.9598 23.5881C33.8292 23.6629 32.7137 23.4458 31.6205 23.5881C30.5451 23.4796 29.4615 23.4796 28.3861 23.5881C27.3489 23.5245 26.3087 23.5245 25.2715 23.5881C24.2533 23.7004 23.2575 23.5357 22.2767 23.5881C21.2959 23.6405 20.345 23.4159 19.4091 23.5881C18.4807 23.5881 17.5748 23.5881 16.6838 23.5881C15.8004 23.8876 14.9394 23.5881 14.1008 23.5881C13.2924 23.682 12.4759 23.682 11.6675 23.5881C11.5551 23.6229 11.4398 23.648 11.3231 23.6629H11.1509H10.9038C10.5145 23.6629 10.1551 23.6629 9.78076 23.6629C9.78076 23.3934 9.78076 23.1239 9.84066 22.8768V22.5099V22.3452V22.2329C9.90804 21.4842 9.74333 20.7879 9.84066 20.1141C9.78785 19.4663 9.78785 18.8152 9.84066 18.1674C9.88135 17.5792 9.88135 16.9887 9.84066 16.4005C9.79494 15.8724 9.79494 15.3413 9.84066 14.8132C9.84066 14.3116 9.84065 13.8474 9.87809 13.4131C10.0337 11.9781 10.3066 10.5584 10.6942 9.16797Z" fill="#5D270D"/>
<path d="M10.694 28.6094C10.8792 29.9412 10.9593 31.2855 10.9336 32.6299C10.9336 33.0642 10.9336 33.5284 10.9336 34.03C10.9336 34.5316 10.9785 35.0558 10.9336 35.6098C10.8887 36.1639 11.1432 36.7628 10.9336 37.3842C10.8929 38.0325 10.8929 38.6826 10.9336 39.3309C10.9785 40.0047 10.8662 40.7085 10.9336 41.4422V41.5545C10.9336 41.5545 10.9336 41.5545 10.9336 41.592C10.9372 41.6218 10.9372 41.652 10.9336 41.6818C10.9256 41.7598 10.9131 41.8373 10.8962 41.9139C10.993 41.9495 11.0934 41.9746 11.1957 41.9888H11.4951C11.6119 41.9738 11.7271 41.9488 11.8395 41.9139C12.5883 41.854 13.4343 41.869 14.2728 41.9139C15.1311 42.011 15.9976 42.011 16.8559 41.9139C17.7569 42.0785 18.6802 42.0785 19.5812 41.9139C20.5191 42.1758 21.5108 42.1758 22.4487 41.9139C23.4462 41.9702 24.4461 41.9702 25.4436 41.9139C26.4618 41.9139 27.5025 41.8465 28.5582 41.9139C29.63 41.7491 30.7208 41.7491 31.7926 41.9139C32.9009 41.7678 34.0235 41.7678 35.1318 41.9139C36.2624 42.0187 37.3779 41.7417 38.5684 41.9139C39.7364 41.9139 40.9118 41.869 42.1098 41.9139C43.3141 42.0449 44.5292 42.0449 45.7335 41.9139C46.9678 41.839 48.2054 41.839 49.4396 41.9139C50.6973 41.753 51.9704 41.753 53.2281 41.9139C54.5009 41.9139 55.7812 42.0262 57.0764 41.9139C57.7278 41.9139 58.3792 41.9139 59.0305 41.9139H60.0114H60.4681H60.5504C60.5528 41.894 60.5528 41.8739 60.5504 41.854V41.8091V41.5995C60.5504 41.27 60.5504 40.9481 60.5504 40.6187C60.5618 39.9691 60.5393 39.3193 60.483 38.672C60.3558 37.3767 60.5429 36.089 60.483 34.8162C60.6777 33.5434 60.4157 32.278 60.483 31.0352C60.483 30.6608 60.483 30.2865 60.483 29.9271V29.6052C60.4867 29.5653 60.4867 29.5252 60.483 29.4854H60.4681H60.1087H59.7343C58.5065 29.4854 57.301 29.5603 56.1031 29.4854C54.9127 29.7849 53.7297 29.4105 52.5692 29.4854C51.4012 29.3656 50.2557 29.4854 49.1252 29.4854C47.9946 29.4854 46.879 29.3506 45.7859 29.4854C44.6928 29.4854 43.6147 29.5827 42.559 29.4854C41.4958 29.6276 40.4626 29.3581 39.4444 29.4854C38.4261 29.6127 37.4229 29.4854 36.4496 29.4854C35.5002 29.362 34.5389 29.362 33.5895 29.4854C32.6822 29.5493 31.7715 29.5493 30.8642 29.4854C30.0042 29.4259 29.1411 29.4259 28.2811 29.4854C27.4426 29.4854 26.6265 29.1485 25.8404 29.4854C25.0542 29.5378 24.298 29.2458 23.5942 29.4854C22.8913 29.5831 22.1783 29.5831 21.4754 29.4854L19.5363 29.4479C16.7436 29.403 14.5499 29.3431 13.0524 29.2907C12.2847 29.3068 11.5173 29.2466 10.7614 29.111C11.6912 28.9538 12.6339 28.8861 13.5765 28.9089C15.4109 28.849 18.0688 28.7891 21.4754 28.7367C22.1781 28.6452 22.8888 28.6326 23.5942 28.6992C24.3423 28.6551 25.0923 28.6551 25.8404 28.6992C26.6503 28.5903 27.4712 28.5903 28.2811 28.6992C29.1122 28.6992 29.9732 28.7591 30.8642 28.6992C31.7551 28.6393 32.6536 28.7591 33.5895 28.6992C34.5386 28.8263 35.5004 28.8263 36.4496 28.6992C37.4467 28.7664 38.4472 28.7664 39.4444 28.6992C40.4777 28.8413 41.5256 28.8413 42.559 28.6992C43.6147 28.6318 44.6928 28.7367 45.7859 28.6992C46.879 28.6618 47.9946 28.6468 49.1252 28.6992C50.2708 28.5943 51.4236 28.5943 52.5692 28.6992C53.7297 28.6318 54.9127 28.6992 56.1031 28.6992C57.2936 28.6992 58.5065 28.6992 59.7343 28.6992H60.483L61.8457 28.7441C61.8457 29.0736 61.8457 29.403 61.8457 29.7324V30.4811C61.8487 30.8525 61.8812 31.2231 61.943 31.5893C61.943 32.8321 61.9056 34.0974 61.943 35.3702C61.9805 36.643 61.8906 37.9308 61.943 39.226C61.842 39.8697 61.8044 40.5217 61.8307 41.1727C61.8307 41.5021 61.8307 41.8241 61.8756 42.1535V42.2733C61.8807 42.3256 61.8807 42.3782 61.8756 42.4305V42.8872C61.8756 43.2017 61.8756 43.5087 61.8756 43.8231H60.9547H59.2252H57.2711C55.9758 43.8231 54.6955 43.8231 53.4227 43.8231C52.1499 43.8231 50.8846 43.7258 49.6343 43.8231C48.3839 43.9204 47.1486 43.7258 45.9282 43.8231C44.7218 43.9092 43.5108 43.9092 42.3044 43.8231C41.1258 43.7296 39.9417 43.7296 38.7631 43.8231C37.6237 43.9917 36.4658 43.9917 35.3265 43.8231C34.1959 43.898 33.0804 43.6734 31.9872 43.8231C30.9117 43.7184 29.8284 43.7184 28.7528 43.8231C27.7158 43.7521 26.6752 43.7521 25.6382 43.8231C24.62 43.9279 23.6242 43.7707 22.6434 43.8231C21.6626 43.8755 20.7117 43.6584 19.7758 43.8231C18.8474 43.8231 17.9415 43.8231 17.0505 43.8231C16.1671 44.1151 15.3061 43.8231 14.4675 43.8231C13.6589 43.9133 12.8428 43.9133 12.0342 43.8231C11.9218 43.858 11.8066 43.883 11.6898 43.898H11.5176H11.2705C10.8812 43.898 10.5218 43.898 10.1475 43.898C10.1475 43.621 10.1475 43.3589 10.2074 43.1044V42.7375V42.5728V42.4605C10.2747 41.7117 10.11 41.0229 10.2074 40.3491C10.1546 39.7013 10.1546 39.0503 10.2074 38.4025C10.248 37.8117 10.248 37.2188 10.2074 36.628C10.1617 36.1024 10.1617 35.5739 10.2074 35.0483C10.2074 34.5466 10.2074 34.0825 10.2448 33.6482C10.233 31.9581 10.3834 30.2707 10.694 28.6094Z" fill="#5D270D"/>
<path d="M10.694 48.0516C10.8796 49.3834 10.9597 50.7277 10.9336 52.0721C10.9336 52.5064 10.9336 52.9706 10.9336 53.4647C10.9336 53.9589 10.9785 54.4979 10.9336 55.052C10.8887 55.606 11.1432 56.205 10.9336 56.8264C10.8929 57.4722 10.8929 58.1199 10.9336 58.7656C10.9785 59.4469 10.8662 60.1507 10.9336 60.8844V60.9967C10.9367 61.0291 10.9367 61.0617 10.9336 61.0941C10.9261 61.1697 10.9135 61.2447 10.8962 61.3187C10.9914 61.3608 11.0923 61.3886 11.1957 61.4011H11.3229H11.4951C11.613 61.3933 11.7291 61.3681 11.8395 61.3262C12.5883 61.2737 13.4343 61.3262 14.2728 61.3262C15.1311 61.4233 15.9976 61.4233 16.8559 61.3262C17.7565 61.4944 18.6805 61.4944 19.5812 61.3262C20.5191 61.5881 21.5108 61.5881 22.4487 61.3262C23.4462 61.3824 24.4461 61.3824 25.4436 61.3262C26.4618 61.3262 27.5025 61.2588 28.5582 61.3262C29.6297 61.1576 30.721 61.1576 31.7926 61.3262C32.9006 61.1763 34.0238 61.1763 35.1318 61.3262C36.2624 61.431 37.3779 61.154 38.5684 61.3262C39.7364 61.3262 40.9118 61.2812 42.1098 61.3262C43.3141 61.4572 44.5292 61.4572 45.7335 61.3262C46.9676 61.2475 48.2055 61.2475 49.4396 61.3262C50.6973 61.1652 51.9704 61.1652 53.2281 61.3262C54.5009 61.3262 55.7812 61.4385 57.0764 61.3262C57.7278 61.3262 58.3792 61.3262 59.0305 61.3262C59.3525 61.3262 59.6819 61.3262 60.0114 61.3262H60.4681H60.5504V61.2662V61.2213V61.0117C60.5504 60.6823 60.5504 60.3529 60.5504 60.0309C60.5616 59.3788 60.5391 58.7266 60.483 58.0768C60.3558 56.7815 60.5429 55.5012 60.483 54.2284C60.6777 52.9556 60.4157 51.6903 60.483 50.44C60.483 50.0731 60.483 49.6912 60.483 49.3393V48.98C60.4867 48.9401 60.4867 48.9001 60.483 48.8602H60.4681H60.1087H59.7343C58.5065 48.8976 57.301 48.9351 56.1031 48.8602C54.9127 49.1597 53.7297 48.7853 52.5692 48.8602C51.4012 48.7329 50.2557 48.8602 49.1252 48.8602C47.9946 48.8602 46.879 48.7254 45.7859 48.8602C44.6928 48.8602 43.6147 48.9575 42.559 48.8602C41.4958 49.01 40.4626 48.7404 39.4444 48.8602C38.4261 48.98 37.4229 48.8602 36.4496 48.8602C35.5002 48.7368 34.5389 48.7368 33.5895 48.8602C32.6822 48.9242 31.7715 48.9242 30.8642 48.8602C30.004 48.8081 29.1414 48.8081 28.2811 48.8602C27.4426 48.8976 26.6265 48.5233 25.8404 48.8602C25.0542 48.9126 24.298 48.6206 23.5942 48.8602C22.8913 48.9579 22.1783 48.9579 21.4754 48.8602L19.5363 48.8227C16.7436 48.7703 14.5499 48.7179 13.0524 48.658C12.2845 48.6838 11.516 48.6236 10.7614 48.4784C11.6918 48.3267 12.6342 48.2615 13.5765 48.2837C15.4109 48.2163 18.0688 48.1564 21.4754 48.104C22.1797 48.0288 22.89 48.0288 23.5942 48.104C24.3423 48.0599 25.0923 48.0599 25.8404 48.104C26.6501 47.9914 27.4715 47.9914 28.2811 48.104C29.1122 48.104 29.9732 48.1639 30.8642 48.104C31.7551 48.0441 32.6536 48.1639 33.5895 48.104C34.5386 48.2311 35.5004 48.2311 36.4496 48.104C37.4469 48.1637 38.447 48.1637 39.4444 48.104C40.4777 48.2461 41.5256 48.2461 42.559 48.104C43.6147 48.0366 44.6928 48.104 45.7859 48.104C46.879 48.104 47.9946 48.0516 49.1252 48.104C50.2706 47.9954 51.4238 47.9954 52.5692 48.104C53.7297 48.0366 54.9127 48.104 56.1031 48.104C57.2936 48.104 58.5065 48.104 59.7343 48.104H60.483L61.8457 48.1414C61.8457 48.4784 61.8457 48.8078 61.8457 49.1372V49.8859C61.8484 50.2548 61.8809 50.6229 61.943 50.9865C61.943 52.2369 61.9056 53.5022 61.943 54.775C61.9805 56.0478 61.8906 57.3281 61.943 58.6233C61.8423 59.2695 61.8047 59.924 61.8307 60.5775C61.8307 60.8994 61.8307 61.2288 61.8756 61.5583V61.6781C61.8807 61.7304 61.8807 61.783 61.8756 61.8353V62.292C61.8756 62.5989 61.8756 62.9134 61.8756 63.2279H60.9547H59.2252H57.2711C55.9758 63.2279 54.6955 63.2279 53.4227 63.2279C52.1499 63.2279 50.8846 63.138 49.6343 63.2279C48.3839 63.3177 47.1486 63.123 45.9282 63.2279C44.7217 63.3103 43.5109 63.3103 42.3044 63.2279C41.1257 63.1381 39.9418 63.1381 38.7631 63.2279C37.624 63.4001 36.4655 63.4001 35.3265 63.2279C34.1959 63.3027 33.0804 63.0781 31.9872 63.2279C30.9117 63.1231 29.8284 63.1231 28.7528 63.2279C27.7158 63.1569 26.6752 63.1569 25.6382 63.2279C24.62 63.3327 23.6242 63.168 22.6434 63.2279C21.6626 63.2878 20.7117 63.0631 19.7758 63.2279C18.8474 63.2279 17.9415 63.2279 17.0505 63.2279C16.1671 63.5273 15.3061 63.2279 14.4675 63.2279C13.6589 63.318 12.8428 63.318 12.0342 63.2279C11.9209 63.2592 11.8059 63.2842 11.6898 63.3028H11.5176H11.2705C10.8812 63.3028 10.5218 63.3028 10.1475 63.3028C10.1475 63.0257 10.1475 62.7637 10.2074 62.5091V62.1423V61.9775V61.8653C10.2747 61.1165 10.11 60.4277 10.2074 59.7464C10.1544 59.1011 10.1544 58.4525 10.2074 57.8072C10.248 57.2164 10.248 56.6236 10.2074 56.0328C10.1618 55.5047 10.1618 54.9736 10.2074 54.4455C10.2074 53.9514 10.2074 53.4872 10.2448 53.053C10.2346 51.3753 10.3851 49.7006 10.694 48.0516Z" fill="#5D270D"/>
<path d="M11.5183 13.0883C11.5782 13.0358 11.8553 13.238 12.3195 13.6648L12.559 13.8969C12.6622 13.9721 12.7553 14.0601 12.8361 14.1589C12.8361 14.3311 13.173 14.2413 13.1355 14.4584C13.2128 14.5985 13.3267 14.7149 13.465 14.7953C13.5997 14.8927 13.6222 15.0873 13.8169 15.1547C14.0115 15.2221 13.8693 15.5814 14.1912 15.5515C14.3511 15.6653 14.4861 15.8105 14.588 15.9783C14.588 16.2328 14.8576 16.2853 15.0148 16.4275C15.0148 16.7195 15.2095 16.8243 15.4565 16.9066C15.3966 17.2511 15.5763 17.4008 15.9207 17.4083C16.078 17.5805 16.1528 17.835 16.3999 17.9399C16.5917 18.1007 16.7605 18.2871 16.9015 18.4939C17.037 18.5242 17.1595 18.5961 17.2521 18.6994C17.3448 18.8028 17.4028 18.9325 17.4181 19.0704C17.7326 19.1453 17.8449 19.3998 17.9422 19.6694C18.0396 19.9389 18.4289 19.9689 18.4888 20.2833C18.5487 20.5978 18.8931 20.6802 19.0503 20.9123C19.0354 20.9585 19.0354 21.0083 19.0503 21.0545C19.0503 21.0994 19.1102 21.1294 19.1327 21.0545C19.1362 21.0272 19.1362 20.9995 19.1327 20.9722C19.1471 20.938 19.1597 20.903 19.1701 20.8673H19.2225L19.3274 20.8224C19.4172 20.4705 19.7092 20.3432 20.0087 20.2309C20.2183 20.0063 20.5477 19.9165 20.7125 19.6245C20.8847 19.5047 20.8323 19.5122 20.8397 19.4897C20.8472 19.4672 20.8397 19.4897 20.9146 19.4897C20.9208 19.4856 20.9259 19.48 20.9294 19.4735C20.9329 19.467 20.9347 19.4597 20.9347 19.4523C20.9347 19.4449 20.9329 19.4376 20.9294 19.431C20.9259 19.4245 20.9208 19.4189 20.9146 19.4148C20.9146 19.3774 20.9146 19.4149 20.7199 19.2876C20.413 19.1378 20.3606 18.7785 20.121 18.5838C20.0686 18.2244 19.6792 18.1645 19.537 17.8874C19.3947 17.6104 19.2375 17.3634 18.968 17.2136C18.7398 17.0316 18.5513 16.8048 18.4139 16.5473C18.0021 16.5473 18.107 16.0606 17.8749 15.8959C17.7925 15.6039 17.5005 15.4841 17.3508 15.2595C17.201 15.0349 17.1112 14.7579 16.8491 14.6381C16.6994 14.421 16.4373 14.3087 16.3625 14.0391C16.0854 13.9418 16.1304 13.5749 15.8908 13.4626C15.7284 13.2859 15.5783 13.0983 15.4416 12.9011C15.4416 12.5716 15.172 12.5267 15.0223 12.3695C14.8725 12.2123 14.633 12.1149 14.618 11.8529C14.5852 11.8115 14.5575 11.7662 14.5356 11.7181L14.4907 11.6433V11.5908C14.4855 11.5671 14.4722 11.5459 14.4531 11.5308C14.4339 11.5158 14.4102 11.5079 14.3859 11.5085C14.3859 11.5085 14.3859 11.4261 14.3484 11.3438C14.311 11.2614 14.311 11.1641 14.2811 11.1566C14.2483 11.2221 14.228 11.2933 14.2212 11.3662C14.2212 11.4261 14.1613 11.3662 14.1089 11.3662C14.0565 11.3662 13.9966 11.3662 14.019 11.501C14.0222 11.5208 14.0222 11.5411 14.019 11.5609C14.0224 11.5679 14.0241 11.5756 14.0241 11.5833C14.0241 11.5911 14.0224 11.5988 14.019 11.6058C13.9909 11.6374 13.9546 11.6607 13.9142 11.6732C13.8257 11.6953 13.7403 11.7279 13.6596 11.7705L13.2853 12.0475C12.2071 12.7963 11.5483 13.2455 11.4734 13.1482C11.3985 13.0508 12.0125 12.332 13.173 11.2015C13.2272 11.1338 13.2749 11.0612 13.3152 10.9844C13.3392 10.9469 13.3696 10.9139 13.4051 10.8871L13.48 10.8421C13.5146 10.8355 13.5501 10.8355 13.5848 10.8421C13.6821 10.7523 13.7794 10.6325 13.8842 10.5202C13.9754 10.4086 14.0906 10.319 14.2212 10.2581C14.2619 10.1626 14.3175 10.0742 14.3859 9.99609C14.4822 10.0815 14.5633 10.1829 14.6255 10.2956C14.7003 10.4154 14.7752 10.5426 14.8501 10.64C14.9587 10.762 15.0612 10.8895 15.157 11.0218L15.2169 11.0892C15.2303 11.1125 15.2481 11.1328 15.2694 11.1491C15.3097 11.1874 15.355 11.2202 15.4041 11.2464C15.6362 11.3213 15.6362 11.6133 15.8459 11.7256C15.87 11.8437 15.926 11.9529 16.0078 12.0413C16.0897 12.1298 16.1942 12.1941 16.3101 12.2272C16.3625 12.4893 16.632 12.5716 16.7892 12.7588C16.7892 13.0733 17.0588 13.1706 17.2909 13.3129C17.523 13.4551 17.5978 13.7172 17.8 13.8894C18.0021 14.0616 18.1818 14.2562 18.3316 14.4808C18.583 14.6114 18.7775 14.8299 18.8781 15.0948C19.0885 15.2853 19.2769 15.4988 19.4397 15.7312C19.6867 15.9034 19.8065 16.1804 20.0087 16.3826C20.2108 16.5847 20.2258 16.974 20.5927 17.0564C20.8023 17.266 20.952 17.5356 21.1841 17.7377C21.3482 17.9982 21.5501 18.2329 21.7831 18.434C21.7831 18.5913 21.9628 18.8533 22.15 19.0405C22.3372 19.2277 22.5842 19.4373 22.8388 19.6694C22.6372 19.8776 22.4248 20.0751 22.2024 20.2609C22.0109 20.4259 21.811 20.5809 21.6034 20.7251C21.3795 20.9346 21.1445 21.132 20.8996 21.3165C20.7125 21.5636 20.3755 21.6385 20.2108 21.9006C20.192 21.9351 20.1666 21.9657 20.136 21.9904H20.0985L20.0386 22.0428L19.7092 22.2899C19.4774 22.4361 19.2659 22.6123 19.0803 22.814L18.9455 22.9562C18.584 22.6301 18.2736 22.2515 18.0246 21.8332C17.8299 21.6011 17.8 21.2716 17.478 21.1743C17.2684 20.9871 16.9015 20.9422 16.954 20.5379C16.7219 20.3807 16.7219 20.0363 16.4523 19.924C16.4523 19.5796 16.1229 19.5197 15.9657 19.325C15.8645 19.091 15.7014 18.8891 15.494 18.741C15.2619 18.6287 15.2244 18.3367 15.0522 18.187C14.88 18.0372 14.8725 17.7228 14.6255 17.6479C14.482 17.4827 14.3471 17.3103 14.2212 17.1313C13.8543 17.1687 13.9516 16.8168 13.8393 16.6446C13.727 16.4724 13.435 16.4724 13.48 16.1879C13.188 16.1879 13.2179 15.9259 13.1505 15.7537C13.0831 15.5814 12.8585 15.5515 12.851 15.3494C12.6264 15.3494 12.7088 15.0499 12.574 14.975C12.574 14.7878 12.3868 14.7504 12.3195 14.6306C12.2134 14.5535 12.1368 14.4426 12.1023 14.3161L11.9151 14.0391C11.6082 13.4402 11.4509 13.1332 11.5183 13.0883Z" fill="#5D270D"/>
<path d="M20.2031 13.0883C20.2704 13.0358 20.5475 13.238 21.0117 13.6648L21.2512 13.8969C21.3544 13.9721 21.4475 14.0601 21.5283 14.1589C21.5283 14.3311 21.8577 14.2413 21.8278 14.4584C21.905 14.5985 22.0189 14.7149 22.1572 14.7953C22.292 14.8927 22.3144 15.0873 22.5091 15.1547C22.7037 15.2221 22.5615 15.5814 22.8834 15.5515C23.0415 15.6674 23.1762 15.8122 23.2802 15.9783C23.2802 16.2328 23.5498 16.2853 23.707 16.4275C23.707 16.7195 23.9017 16.8243 24.1488 16.9066C24.0889 17.2511 24.2685 17.4008 24.6129 17.4083C24.7702 17.5805 24.845 17.835 25.0921 17.9399C25.2839 18.1007 25.4527 18.2871 25.5938 18.4939C25.7297 18.5232 25.8529 18.5948 25.9457 18.6983C26.0385 18.8019 26.0961 18.9321 26.1104 19.0704C26.4248 19.1453 26.5371 19.3998 26.6345 19.6694C26.7318 19.9389 27.1211 19.9689 27.181 20.2833C27.3532 20.5004 27.5853 20.6802 27.7351 20.9123C27.7239 20.959 27.7239 21.0077 27.7351 21.0545C27.7351 21.0994 27.795 21.1294 27.8174 21.0545C27.8209 21.0272 27.8209 20.9995 27.8174 20.9722C27.8319 20.938 27.8444 20.903 27.8549 20.8673H27.9073L28.0121 20.8224C28.1019 20.4705 28.3939 20.3432 28.6934 20.2309C28.903 20.0063 29.2325 19.9165 29.3972 19.6245C29.5694 19.5047 29.517 19.5122 29.5245 19.4897C29.532 19.4672 29.5245 19.4897 29.5993 19.4897C29.6055 19.4856 29.6106 19.48 29.6141 19.4735C29.6176 19.467 29.6194 19.4597 29.6194 19.4523C29.6194 19.4449 29.6176 19.4376 29.6141 19.431C29.6106 19.4245 29.6055 19.4189 29.5993 19.4148C29.5993 19.3774 29.5993 19.4149 29.3972 19.2876C29.195 19.1603 29.0453 18.7785 28.8057 18.5838C28.7533 18.2244 28.364 18.1645 28.2217 17.8874C28.0795 17.6104 27.9222 17.3634 27.6527 17.2136C27.4245 17.0316 27.236 16.8048 27.0986 16.5473C26.6869 16.5473 26.7917 16.0606 26.5596 15.8959C26.4772 15.6039 26.1852 15.4841 26.0355 15.2595C25.8857 15.0349 25.7959 14.7579 25.5339 14.6381C25.2718 14.5183 25.1221 14.3087 25.0472 14.0391C24.7702 13.9418 24.8151 13.5749 24.5755 13.4626C24.4131 13.2859 24.263 13.0983 24.1263 12.9011C24.1263 12.5716 23.8568 12.5267 23.6995 12.3695C23.5423 12.2123 23.3177 12.1149 23.2952 11.8529L23.2129 11.7181L23.1754 11.6433V11.5908C23.1702 11.5671 23.1569 11.5459 23.1378 11.5308C23.1187 11.5158 23.0949 11.5079 23.0706 11.5085C23.0706 11.5085 23.0706 11.4261 23.0706 11.3438C23.0706 11.2614 23.0332 11.1641 23.0032 11.1566C22.9704 11.2221 22.9501 11.2933 22.9433 11.3662C22.9433 11.4261 22.8834 11.3662 22.831 11.3662C22.7786 11.3662 22.7187 11.3662 22.7412 11.501C22.7444 11.5208 22.7444 11.5411 22.7412 11.5609C22.747 11.5753 22.747 11.5914 22.7412 11.6058C22.7116 11.6393 22.6724 11.6628 22.6289 11.6732C22.5432 11.6965 22.4604 11.7291 22.3818 11.7705L22.0074 12.0475C20.9293 12.7963 20.2705 13.2455 20.1956 13.1482C20.1207 13.0508 20.7346 12.332 21.8951 11.2015C21.9494 11.1338 21.997 11.0612 22.0374 10.9844C22.0613 10.9469 22.0917 10.9139 22.1272 10.8871L22.2021 10.8421C22.2367 10.8355 22.2723 10.8355 22.3069 10.8421C22.4043 10.7523 22.4941 10.6325 22.6064 10.5202C22.696 10.4071 22.8116 10.3171 22.9433 10.2581C22.984 10.1626 23.0396 10.0742 23.108 9.99609C23.2044 10.0815 23.2854 10.1829 23.3476 10.2956C23.4225 10.4154 23.4974 10.5426 23.5722 10.64C23.6471 10.7373 23.7744 10.8945 23.8792 11.0218L23.9391 11.0892C23.9524 11.1125 23.9703 11.1328 23.9915 11.1491C24.0319 11.1874 24.0772 11.2202 24.1263 11.2464C24.3584 11.3213 24.3584 11.6133 24.568 11.7256C24.5915 11.8428 24.6464 11.9514 24.7269 12.0397C24.8073 12.1281 24.9103 12.1929 25.0247 12.2272C25.0846 12.4893 25.3542 12.5716 25.5114 12.7588C25.5114 13.0733 25.7809 13.1706 26.0055 13.3129C26.2302 13.4551 26.32 13.7172 26.5222 13.8894C26.7243 14.0616 26.904 14.2562 27.0537 14.4808C27.3052 14.6114 27.4997 14.8299 27.6003 15.0948C27.8107 15.2853 27.999 15.4988 28.1618 15.7312C28.3691 15.9323 28.5594 16.1502 28.7308 16.3826C28.948 16.5847 28.948 16.974 29.3148 17.0564C29.5245 17.266 29.6742 17.5356 29.9063 17.7377C30.0704 17.9982 30.2722 18.2329 30.5053 18.434C30.5053 18.5913 30.685 18.8533 30.8721 19.0405C31.0593 19.2277 31.3064 19.4373 31.561 19.6694C31.3603 19.8812 31.1452 20.0789 30.9171 20.2609C30.6999 20.4481 30.4004 20.6802 30.3256 20.7251C30.1016 20.9346 29.8667 21.132 29.6218 21.3165C29.4271 21.5636 29.0977 21.6385 28.933 21.9006C28.9142 21.9351 28.8887 21.9657 28.8581 21.9904H28.8207L28.7608 22.0428L28.4239 22.2899C28.1959 22.4383 27.9872 22.6143 27.8024 22.814L27.6677 22.9562C27.3062 22.6301 26.9957 22.2515 26.7468 21.8332C26.5521 21.6011 26.5221 21.2716 26.2002 21.1743C25.9906 20.9871 25.6237 20.9422 25.6761 20.5379C25.444 20.3807 25.444 20.0363 25.1745 19.924C25.1745 19.5796 24.8451 19.5197 24.6878 19.325C24.5867 19.091 24.4236 18.8891 24.2161 18.741C23.984 18.6287 23.9466 18.3367 23.7744 18.187C23.6022 18.0372 23.5947 17.7228 23.3476 17.6479C23.2042 17.4827 23.0692 17.3103 22.9433 17.1313C22.5765 17.1687 22.6738 16.8168 22.5615 16.6446C22.4492 16.4724 22.1572 16.4724 22.2021 16.1879C21.9101 16.1879 21.9401 15.9259 21.8727 15.7537C21.8053 15.5814 21.5807 15.5515 21.5732 15.3494C21.3411 15.3494 21.4309 15.0499 21.2962 14.975C21.2962 14.7878 21.109 14.7504 21.0416 14.6306C20.9333 14.5558 20.856 14.444 20.8245 14.3161L20.6373 14.0391C20.3004 13.4402 20.1432 13.1332 20.2031 13.0883Z" fill="#98772E"/>
<path d="M28.8951 13.0883C28.9624 13.0358 29.2395 13.238 29.7037 13.6648L29.9432 13.8969C30.0464 13.9721 30.1395 14.0601 30.2203 14.1589C30.2203 14.3311 30.5497 14.2413 30.5197 14.4584C30.597 14.5985 30.7109 14.7149 30.8492 14.7953C30.9839 14.8927 31.0064 15.0873 31.2011 15.1547C31.3957 15.2221 31.2535 15.5814 31.5754 15.5515C31.7335 15.6674 31.8681 15.8122 31.9722 15.9783C31.9722 16.2328 32.2343 16.2853 32.399 16.4275C32.399 16.7195 32.5937 16.8243 32.8407 16.9066C32.7808 17.2511 32.9605 17.4008 33.3049 17.4083C33.4622 17.5805 33.537 17.835 33.7841 17.9399C33.9736 18.1009 34.1399 18.2873 34.2782 18.4939C34.4147 18.5221 34.5385 18.5934 34.6315 18.6971C34.7245 18.8009 34.7817 18.9317 34.7949 19.0704C35.1168 19.1453 35.2291 19.3998 35.3265 19.6694C35.4238 19.9389 35.8131 19.9689 35.873 20.2833C36.0452 20.5004 36.2773 20.6802 36.4271 20.9123C36.4159 20.959 36.4159 21.0077 36.4271 21.0545C36.4271 21.0994 36.4869 21.1294 36.5094 21.0545C36.5129 21.0272 36.5129 20.9995 36.5094 20.9722C36.5239 20.938 36.5364 20.903 36.5468 20.8673H36.5992L36.7041 20.8224C36.7939 20.4705 37.0859 20.3432 37.3854 20.2309C37.595 20.0063 37.9245 19.9165 38.0817 19.6245C38.2539 19.5047 38.209 19.5122 38.2165 19.4897C38.2239 19.4672 38.2165 19.4897 38.2913 19.4897C38.2963 19.4848 38.3003 19.479 38.303 19.4726C38.3057 19.4661 38.307 19.4592 38.307 19.4523C38.307 19.4453 38.3057 19.4384 38.303 19.432C38.3003 19.4255 38.2963 19.4197 38.2913 19.4148C38.2913 19.3774 38.2913 19.4149 38.0892 19.2876C37.7897 19.1378 37.7373 18.7785 37.4977 18.5838C37.4453 18.2244 37.056 18.1645 36.9137 17.8874C36.7715 17.6104 36.6142 17.3634 36.3447 17.2136C36.1165 17.0316 35.928 16.8048 35.7906 16.5473C35.3789 16.5473 35.4837 16.0606 35.2516 15.8959C35.1692 15.6039 34.8772 15.4841 34.7275 15.2595C34.5777 15.0349 34.4804 14.7579 34.2184 14.6381C34.0686 14.421 33.8141 14.3087 33.7317 14.0391C33.4622 13.9418 33.5071 13.5749 33.2675 13.4626C33.1051 13.2859 32.955 13.0983 32.8183 12.9011C32.8183 12.5716 32.5487 12.5267 32.3915 12.3695C32.2343 12.2123 32.0097 12.1149 31.9872 11.8529L31.9049 11.7181L31.8674 11.6433V11.5908C31.8622 11.5671 31.8489 11.5459 31.8298 11.5308C31.8107 11.5158 31.7869 11.5079 31.7626 11.5085C31.7626 11.5085 31.7626 11.4261 31.7252 11.3438C31.6877 11.2614 31.6877 11.1641 31.6578 11.1566C31.625 11.2221 31.6047 11.2933 31.5979 11.3662C31.5979 11.4261 31.538 11.3662 31.4856 11.3662C31.4332 11.3662 31.3733 11.3662 31.3957 11.501C31.399 11.5208 31.399 11.5411 31.3957 11.5609C31.3991 11.5679 31.4008 11.5756 31.4008 11.5833C31.4008 11.5911 31.3991 11.5988 31.3957 11.6058C31.3661 11.6393 31.3269 11.6628 31.2834 11.6732C31.1977 11.6965 31.1149 11.7291 31.0364 11.7705L30.662 12.0475C29.5839 12.7963 28.925 13.2455 28.8426 13.1482C28.7603 13.0508 29.3892 12.332 30.5497 11.2015C30.604 11.1338 30.6516 11.0612 30.692 10.9844C30.7136 10.9452 30.7444 10.9118 30.7818 10.8871L30.8567 10.8421C30.8913 10.8355 30.9269 10.8355 30.9615 10.8421C31.0588 10.7523 31.1487 10.6325 31.2535 10.5202C31.3458 10.4067 31.4639 10.3169 31.5979 10.2581C31.639 10.1645 31.6919 10.0765 31.7551 9.99609C31.8559 10.0792 31.9398 10.1808 32.0022 10.2956C32.0692 10.4153 32.1442 10.5304 32.2268 10.64C32.3316 10.7598 32.4289 10.8945 32.5338 11.0218L32.5937 11.0892C32.607 11.1125 32.6248 11.1328 32.6461 11.1491C32.6852 11.1856 32.7278 11.2182 32.7734 11.2464C33.0055 11.3213 33.0054 11.6133 33.2226 11.7256C33.2453 11.8431 33.2999 11.9521 33.3805 12.0406C33.461 12.1291 33.5644 12.1936 33.6793 12.2272C33.7392 12.4893 34.0087 12.5716 34.1659 12.7588C34.1659 13.0733 34.4355 13.1706 34.6601 13.3129C34.8847 13.4551 34.9746 13.7172 35.1767 13.8894C35.3789 14.0616 35.5585 14.2562 35.7083 14.4808C35.9597 14.6114 36.1543 14.8299 36.2548 15.0948C36.4652 15.2853 36.6536 15.4988 36.8164 15.7312C37.056 15.9034 37.1758 16.1804 37.3854 16.3826C37.595 16.5847 37.6025 16.974 37.9694 17.0564C38.179 17.266 38.3288 17.5356 38.5609 17.7377C38.7249 17.9982 38.9268 18.2329 39.1598 18.434C39.1598 18.5913 39.3395 18.8533 39.5267 19.0405C39.7139 19.2277 39.9609 19.4373 40.2155 19.6694C40.0113 19.8776 39.7964 20.0751 39.5716 20.2609C39.3545 20.4481 39.055 20.6802 38.9801 20.7251C38.7562 20.9346 38.5212 21.132 38.2763 21.3165C38.0817 21.5636 37.7522 21.6385 37.58 21.9006C37.5638 21.9347 37.5409 21.9652 37.5127 21.9904H37.4752L37.4153 22.0428L37.0784 22.2899C36.8505 22.4383 36.6417 22.6143 36.457 22.814L36.3222 22.9562C35.9589 22.629 35.6482 22.2477 35.4013 21.8257C35.2066 21.601 35.1767 21.2716 34.8548 21.1743C34.5328 21.077 34.2783 20.9422 34.3307 20.5379C34.0986 20.3807 34.0911 20.0363 33.829 19.924C33.829 19.5796 33.4996 19.5197 33.3424 19.325C33.2412 19.091 33.0782 18.8891 32.8707 18.741C32.6311 18.6287 32.6012 18.3367 32.4215 18.187C32.2418 18.0372 32.2493 17.7228 31.9947 17.6479C31.8536 17.4826 31.7212 17.3102 31.5979 17.1313C31.231 17.1687 31.3283 16.8168 31.216 16.6446C31.1037 16.4724 30.8117 16.4724 30.8567 16.1879C30.5647 16.1879 30.5946 15.9259 30.5272 15.7537C30.4599 15.5814 30.2352 15.5515 30.2203 15.3494C29.9957 15.3494 30.0855 15.0499 29.9432 14.975C29.9432 14.7878 29.7635 14.7504 29.6962 14.6306C29.5878 14.5558 29.5106 14.444 29.479 14.3161L29.2919 14.0391C29.0223 13.4402 28.8352 13.1332 28.8951 13.0883Z" fill="#5D270D"/>
</svg>
