<svg width="72" height="72" viewBox="0 0 72 72" fill="none" xmlns="http://www.w3.org/2000/svg">
<path d="M4.30916 3.75981C4.4065 4.43405 4.44906 5.11506 4.43644 5.79617C4.47387 7.12878 4.51131 9.09776 4.54874 11.6507C4.54874 12.5042 4.54874 13.4175 4.58618 14.3908C4.62361 15.364 4.6311 16.4047 4.58618 17.5052C4.54126 18.6057 4.79579 19.7512 4.6236 20.979C4.57119 22.1918 4.6236 23.4645 4.6236 24.7972C4.6236 26.1298 4.55622 27.5073 4.6236 28.9447C4.69098 30.3822 4.38403 31.872 4.6236 33.4367C4.67601 34.9789 4.6236 36.5736 4.6236 38.2206C4.52647 39.9087 4.52647 41.601 4.6236 43.289C4.45539 45.0669 4.45539 46.8566 4.6236 48.6345C4.35801 50.4992 4.35801 52.3922 4.6236 54.2569C4.6236 56.1735 4.52627 58.1275 4.6236 60.1264C4.72093 62.1253 4.69098 64.1617 4.6236 66.2355V66.3403V66.3852V66.4526L4.75087 66.4151H5.33484C5.78403 66.4151 6.24071 66.4151 6.68991 66.4151C7.60327 66.4151 8.51664 66.4601 9.43749 66.5274C11.6185 66.3776 13.8072 66.3776 15.9883 66.5274C18.2342 66.6323 20.4802 66.3553 22.7262 66.5274C25.0096 66.5274 27.3304 66.4825 29.6663 66.5274C32.0377 66.6584 34.4146 66.6584 36.786 66.5274C39.1892 66.475 41.6074 66.4151 44.063 66.5274C46.536 66.3665 49.0167 66.3665 51.4897 66.5274C53.9827 66.49 56.5057 66.6397 59.0437 66.5274C60.3164 66.5274 61.5891 66.5274 62.8693 66.5274C63.5132 66.5274 64.157 66.5274 64.7934 66.5274H65.9838H66.0586V66.4601V66.228V65.2622C66.0586 64.6184 66.0586 63.982 66.0586 63.3381C66.0586 62.0579 66.0586 60.7852 65.9913 59.5125C65.864 56.9745 66.0512 54.4516 65.9913 51.9585C66.1859 49.458 65.9239 46.9799 65.9913 44.5318C66.0586 42.0837 66.1036 39.6506 65.9913 37.2548C65.879 34.8591 65.9164 32.4859 65.9913 30.1351C65.6918 27.7918 66.0661 25.4784 65.9913 23.195C66.1185 20.9116 65.9913 18.6656 65.9913 16.4571C65.9913 14.2485 66.126 12.055 65.9913 9.9063C65.9913 8.88812 65.9913 7.86995 65.9913 6.86674C65.9913 6.36514 65.9913 5.86354 65.9913 5.36942V4.62076C65.9913 4.56836 65.9913 4.51596 65.9913 4.44109H65.9314H65.8265H65.2201C64.711 4.44109 64.1945 4.44108 63.6854 4.40365C62.6672 4.40365 61.664 4.32129 60.6907 4.40365C58.6918 4.40365 56.7378 4.40365 54.8212 4.40365C52.9516 4.28038 51.0759 4.28038 49.2063 4.40365C47.3796 4.40365 45.5903 4.53841 43.8534 4.40365C42.1165 4.40365 40.4245 4.28386 38.785 4.40365C37.1454 4.52343 35.5507 4.06675 34.0085 4.40365C32.4663 4.46354 30.9764 4.17156 29.5165 4.40365C28.1334 4.50511 26.7446 4.50511 25.3615 4.40365H21.5433C16.0706 4.35124 11.8107 4.29886 8.8161 4.23896C7.31878 4.23896 6.22574 4.17905 5.46959 4.14911C5.08322 4.15834 4.69693 4.12824 4.31666 4.05927C4.78384 3.97889 5.2577 3.9438 5.73162 3.95447C6.66745 3.95447 8.05247 3.89457 9.84925 3.85714C13.4428 3.79725 18.7059 3.73735 25.3465 3.68494C26.7304 3.60594 28.1177 3.60594 29.5016 3.68494C30.939 3.68494 32.4288 3.55767 33.9935 3.68494C35.5835 3.56856 37.18 3.56856 38.77 3.68494C40.4095 3.68494 42.1015 3.74483 43.8384 3.68494C45.5753 3.62505 47.3646 3.74483 49.1913 3.68494C51.0608 3.81198 52.9368 3.81198 54.8063 3.68494C56.7228 3.8197 58.6768 3.68494 60.6758 3.68494C61.6714 3.77366 62.6713 3.80365 63.6704 3.77478C64.1795 3.77478 64.6961 3.77479 65.2052 3.72239H65.9538H66.403H67.0918H67.6907C67.6907 4.15661 67.6907 4.5983 67.6907 5.04001V5.78867C67.6907 6.29027 67.6907 6.79188 67.6907 7.28599C67.6907 8.2892 67.6907 9.30737 67.6907 10.3255C67.6533 12.4742 67.7431 14.6603 67.6907 16.8763C67.788 19.1223 67.8255 21.3683 67.6907 23.6143C67.7581 25.8977 67.6907 28.211 67.6907 30.5544C67.6907 32.8977 67.6907 35.2709 67.6907 37.6741C67.6907 40.0773 67.4736 42.4955 67.6907 44.9511C67.6907 47.3992 67.6907 49.8773 67.6907 52.3778C67.6907 54.8783 67.6383 57.3938 67.6907 59.9318C67.5859 61.2045 67.5634 62.4772 67.5784 63.7574C67.5784 64.4013 67.5784 65.0376 67.6233 65.6815C67.6233 66.0034 67.6233 66.3253 67.6608 66.6472V67.3959V68.3093H65.0404H63.1987L59.3731 68.2718C56.8352 68.2718 54.3121 68.2718 51.8191 68.2718C49.3261 68.2718 46.8405 68.182 44.3924 68.2718C41.9443 68.3617 39.5186 68.1745 37.1154 68.2718C34.7122 68.3692 32.339 68.3692 29.9957 68.2718C27.6524 68.1745 25.339 68.0772 23.0556 68.2718C20.8128 68.4396 18.5605 68.4396 16.3177 68.2718C14.0717 68.3467 11.9156 68.1221 9.7669 68.2718C8.8534 68.1909 7.93626 68.1585 7.01932 68.1745H5.66424H4.91558H3.7327C3.7327 67.9125 3.7327 67.6579 3.7327 67.4258V66.7296C3.77762 64.6558 3.85249 62.6194 3.7327 60.6205C3.61292 58.6216 3.7926 56.6676 3.7327 54.751C3.67281 52.8344 3.89741 50.9628 3.7327 49.1286C3.7327 47.3019 3.7327 45.5201 3.7327 43.7832C3.43324 42.0463 3.7327 40.3543 3.7327 38.7147C3.64252 37.1214 3.64252 35.5242 3.7327 33.9308C3.58863 32.4369 3.58863 30.9327 3.7327 29.4388C3.80008 28.0014 3.63538 26.6164 3.7327 25.2913C3.57549 23.9587 3.82254 22.6859 3.7327 21.4731C3.83752 20.2528 3.7327 19.0998 3.7327 17.9993C3.7327 16.8988 3.7327 15.8656 3.7327 14.8849C3.7327 13.9041 3.7327 12.9983 3.77013 12.1448C3.80756 9.59188 3.845 7.65285 3.88243 6.29028C3.94331 5.43507 4.08621 4.58769 4.30916 3.75981Z" fill="#5D270D"/>
<path d="M9.78195 9.37309C9.87827 9.77243 9.92108 10.1828 9.90923 10.5934C9.94667 11.387 9.98409 12.5699 10.0215 14.0896C10.0215 14.5987 10.0215 15.1453 10.059 15.7292C10.0964 16.3132 10.1039 16.9346 10.059 17.5934C10.014 18.2522 10.2686 18.941 10.0964 19.6672C10.0519 20.4277 10.0519 21.1901 10.0964 21.9506C10.1413 22.7441 10.029 23.5752 10.0964 24.4286C10.1638 25.2821 9.85683 26.1805 10.0964 27.1014C10.1488 28.0297 10.0964 28.9805 10.0964 29.9612C10.0032 30.9698 10.0032 31.9848 10.0964 32.9933C9.9282 34.0523 9.9282 35.1311 10.0964 36.1901C9.83074 37.2923 9.83074 38.4419 10.0964 39.5441C10.0964 40.6895 9.99907 41.8649 10.0964 43.0553C10.1937 44.2457 10.1638 45.466 10.0964 46.7088C10.2687 47.9656 10.2687 49.2401 10.0964 50.497C10.2425 51.798 10.2425 53.1114 10.0964 54.4125C9.99159 55.7451 10.2686 57.0852 10.0964 58.4552C10.0964 58.9568 10.0964 59.4584 10.0964 59.9525C10.0964 60.1996 10.0964 60.4541 10.0964 60.7012C10.0999 60.7461 10.0999 60.7911 10.0964 60.836H10.5531C11.9675 60.9669 13.391 60.9669 14.8055 60.836C16.2543 60.7573 17.7063 60.7573 19.1552 60.836C20.6306 60.675 22.1193 60.675 23.5947 60.836C25.0921 60.7985 26.5894 60.9483 28.0867 60.836C28.8354 60.836 29.584 60.836 30.3327 60.836C30.7145 60.836 31.0813 60.836 31.4856 60.836H31.8824H31.9722C32.0299 60.2915 32.0524 59.7438 32.0396 59.1964C32.0396 58.4477 32.0396 57.6991 31.9722 56.9504C31.845 55.4531 32.0321 53.9558 31.9722 52.4585C32.1669 50.9611 31.9049 49.4638 31.9722 48.0189C32.0396 46.574 32.0771 45.1066 31.9722 43.6692C31.8674 42.2318 31.8974 40.8168 31.9722 39.4168C31.6728 38.0168 32.0471 36.6318 31.9722 35.2692C32.0995 33.9067 31.9722 32.5591 31.9722 31.234C31.9722 29.9088 32.107 28.5987 31.9722 27.3185C31.9722 26.0308 31.8749 24.7655 31.9722 23.5228C31.83 22.2875 32.0995 21.0672 31.9722 19.8768C31.845 18.6864 31.9722 17.511 31.9722 16.3656C32.0994 15.2487 32.0994 14.121 31.9722 13.0041C31.9722 12.4576 31.9722 11.9185 31.9348 11.387C31.9348 11.1175 31.9348 10.8554 31.9348 10.5934V10.294V10.2191C31.9449 10.1678 31.9599 10.1177 31.9797 10.0693V9.9271H31.7177H31.0963C30.6575 9.90083 30.2175 9.90083 29.7786 9.9271C28.7979 9.9271 27.8471 9.5902 26.9263 9.9271C25.9979 9.98699 25.107 9.69501 24.2535 9.9271C23.4281 10.0286 22.5934 10.0286 21.768 9.9271H19.4846C16.2129 9.87469 13.645 9.82228 11.8857 9.76239C10.9863 9.77895 10.0872 9.71885 9.198 9.58272C10.2941 9.42947 11.4005 9.36189 12.5071 9.38059C14.6557 9.3207 17.8001 9.26079 21.768 9.20839C22.5946 9.12935 23.4269 9.12935 24.2535 9.20839C25.1438 9.1593 26.036 9.1593 26.9263 9.20839C27.8735 9.092 28.8314 9.092 29.7786 9.20839C30.2129 9.20839 30.6546 9.20839 31.0963 9.20839H31.845H32.9455V9.77738C32.9455 9.97952 32.9455 10.1966 32.9829 10.4137V10.833C32.9829 11.095 32.9829 11.3571 32.9829 11.6266C32.9492 12.1651 32.9492 12.7052 32.9829 13.2437C32.8558 14.3606 32.8558 15.4883 32.9829 16.6052C32.9232 17.7748 32.9232 18.9467 32.9829 20.1164C32.8446 21.3278 32.8446 22.551 32.9829 23.7623C33.0503 25.0051 32.9829 26.2704 32.9829 27.558C32.9829 28.8457 33.0353 30.1484 32.9829 31.4735C33.0878 32.8166 33.0878 34.1658 32.9829 35.5088C33.0503 36.8714 32.9829 38.2564 32.9829 39.6564C32.9829 41.0564 32.9829 42.4788 32.9829 43.9088C32.8932 45.3573 32.8932 46.81 32.9829 48.2585C32.9829 49.7558 32.9455 51.2082 32.9829 52.698C33.0204 54.1879 32.9305 55.6927 32.9829 57.19C32.884 57.9343 32.8464 58.6855 32.8706 59.436C32.8706 59.8178 32.8706 60.1846 32.9155 60.5889V60.8734V61.3376C32.9155 61.6969 32.9155 62.0862 32.9155 62.4306H31.0738H29.9209L27.6749 62.3932C26.1776 62.3932 24.6803 62.3932 23.183 62.3932C21.6856 62.3932 20.1883 62.3033 18.7434 62.3932C17.2985 62.483 15.8311 62.2884 14.3937 62.3932C12.9775 62.4793 11.5575 62.4793 10.1413 62.3932H9.39266H8.40442C8.40442 61.6445 8.40442 60.9483 8.46431 60.237C8.47619 59.7368 8.45116 59.2363 8.38944 58.7397C8.2172 57.3976 8.2172 56.039 8.38944 54.697C8.31458 53.3718 8.53917 52.0692 8.38944 50.7815C8.4942 49.5209 8.4942 48.2538 8.38944 46.9932C8.46042 45.7765 8.46042 44.5566 8.38944 43.3398C8.28463 42.1494 8.44934 40.974 8.38944 39.8286C8.32955 38.6831 8.55415 37.5826 8.38944 36.4746C8.38944 35.3815 8.38944 34.3109 8.38944 33.2778C8.08998 32.2372 8.38944 31.2265 8.38944 30.2457C8.29933 29.2946 8.29933 28.337 8.38944 27.3858C8.2468 26.5007 8.2468 25.5983 8.38944 24.7131C8.45682 23.8597 8.29212 23.0286 8.38944 22.2351C8.33647 21.4748 8.33647 20.7119 8.38944 19.9517C8.4301 19.261 8.4301 18.5685 8.38944 17.8779C8.34003 17.2575 8.34003 16.6341 8.38944 16.0137C8.38944 15.4297 8.38945 14.8832 8.42688 14.3741C8.42688 12.8768 8.50175 11.6715 8.53918 10.8779C8.84843 10.2981 9.27105 9.78636 9.78195 9.37309Z" fill="#5D270D"/>
<path d="M61.589 9.37107C61.6846 9.77045 61.7249 10.1811 61.7088 10.5914C61.7538 11.385 61.7912 12.5678 61.8286 14.0876C61.8286 14.5967 61.8286 15.1432 61.866 15.7272C61.9035 16.3111 61.911 16.9325 61.866 17.5914C61.8211 18.2502 62.0682 18.9389 61.9035 19.6651C61.859 20.4256 61.859 21.1881 61.9035 21.9485C61.9035 22.7421 61.8361 23.5731 61.9035 24.4266C61.9708 25.2801 61.6639 26.1785 61.9035 27.0993C61.9634 28.0277 61.9484 28.9785 61.9035 29.9592C61.8064 30.9676 61.8064 31.9829 61.9035 32.9913C61.7389 34.0505 61.7389 35.1288 61.9035 36.1881C61.6418 37.2907 61.6418 38.4394 61.9035 39.542C61.9035 40.6875 61.8061 41.8629 61.9035 43.0533C62.0008 44.2436 61.9708 45.464 61.9035 46.7067C62.0683 47.9641 62.0683 49.2376 61.9035 50.4949C62.0495 51.796 62.0495 53.1094 61.9035 54.4104C61.7987 55.7431 62.0757 57.0832 61.9035 58.4532C61.9035 58.9548 61.9035 59.4564 61.9035 59.9505V60.6992C61.9035 61.1633 61.9035 61.635 61.9035 62.1067H60.1516C58.737 61.9795 57.3138 61.9795 55.8992 62.1067C54.4503 62.1816 52.9985 62.1816 51.5495 62.1067C50.0736 62.2602 48.5858 62.2602 47.11 62.1067C45.6126 62.1067 44.1153 61.9944 42.618 62.1067C41.8694 62.1067 41.1207 62.1067 40.3346 62.1067H39.1817H38.433H37.3699C37.3699 60.3698 37.4298 59.973 37.4373 59.112C37.4448 58.2511 37.4373 57.6147 37.3699 56.866C37.2351 55.3687 37.4223 53.8714 37.3699 52.3741C37.5571 50.8768 37.3025 49.3795 37.3699 47.9345C37.4373 46.4896 37.4747 45.0223 37.3699 43.5848C37.2651 42.1474 37.295 40.7324 37.3699 39.3324C37.0704 37.9324 37.4448 36.5474 37.3699 35.1849C37.4897 33.8223 37.3699 32.4747 37.3699 31.1496C37.3699 29.8244 37.5047 28.5143 37.3699 27.2341C37.3699 25.9464 37.2726 24.6812 37.3699 23.4384C37.2277 22.2031 37.4972 20.9828 37.3699 19.7924C37.2426 18.6021 37.3699 17.4267 37.3699 16.2812C37.4933 15.1641 37.4933 14.0368 37.3699 12.9197C37.3699 12.3732 37.3699 11.8341 37.3325 11.3026C37.3325 11.0331 37.3325 10.7711 37.3325 10.509V10.3144V10.0898C37.3325 9.87516 37.3474 9.66554 37.3774 9.4609C37.3774 9.27374 37.3774 9.07908 37.3774 8.89191H38.4779H39.2266C39.6654 8.91818 40.1054 8.91818 40.5442 8.89191C41.525 8.85448 42.4758 9.22881 43.4041 8.89191C44.3249 8.83951 45.2159 9.13148 46.0768 8.89191C46.9014 8.80634 47.7332 8.81892 48.5549 8.92936H50.8383C54.1099 8.98177 56.6778 9.03417 58.4372 9.09407C59.3393 9.06833 60.2417 9.12849 61.1324 9.27374C60.0362 9.42587 58.9297 9.49096 57.8233 9.4684C55.6746 9.53577 52.5303 9.59566 48.5549 9.64807C47.7306 9.72329 46.9011 9.72329 46.0768 9.64807C45.1866 9.69706 44.2943 9.69706 43.4041 9.64807C42.4541 9.76064 41.4942 9.76064 40.5442 9.64807C40.11 9.64807 39.6683 9.64807 39.2266 9.64807H38.6127H38.3506V9.79781C38.3506 9.8577 38.3506 9.90262 38.3506 9.94005V10.3144C38.3506 10.5764 38.3506 10.8384 38.3506 11.108C38.317 11.6465 38.317 12.1866 38.3506 12.7251C38.2235 13.842 38.2235 14.9697 38.3506 16.0865C38.2909 17.2562 38.2909 18.4281 38.3506 19.5978C38.2086 20.8089 38.2086 22.0326 38.3506 23.2437C38.418 24.4865 38.3506 25.7517 38.3506 27.0394C38.3506 28.3271 38.403 29.6298 38.3506 30.9549C38.4555 32.298 38.4555 33.6472 38.3506 34.9902C38.418 36.3528 38.3506 37.7378 38.3506 39.1378C38.3506 40.5378 38.3506 41.9602 38.3506 43.3902C38.2609 44.8387 38.2609 46.2914 38.3506 47.7399C38.3506 49.2372 38.3506 50.6896 38.3506 52.1794C38.3506 53.6693 38.2982 55.1741 38.3506 56.6714C38.2517 57.4157 38.2141 58.1669 38.2383 58.9174C38.2383 59.2992 38.2383 59.666 38.2833 60.0703V60.3548V60.4521C38.279 60.4719 38.279 60.4923 38.2833 60.512H38.3581H39.9004C40.649 60.512 41.3977 60.512 42.1838 60.512C43.6811 60.512 45.2158 60.512 46.6757 60.512C48.1356 60.512 49.6704 60.6019 51.1153 60.512C52.5602 60.4222 54.0276 60.6093 55.465 60.512C56.8813 60.4296 58.3011 60.4296 59.7174 60.512H60.0842H60.1965C60.1965 60.512 60.1965 60.4297 60.234 60.3698V59.9954V59.6136C60.2433 59.1132 60.2158 58.6127 60.1516 58.1163C59.9831 56.774 59.9831 55.4159 60.1516 54.0735C60.0767 52.7484 60.3013 51.4458 60.1516 50.1581C60.2564 48.8975 60.2564 47.6304 60.1516 46.3698C60.2226 45.1531 60.2226 43.9332 60.1516 42.7164C60.0468 41.526 60.204 40.3506 60.1516 39.2052C60.0992 38.0597 60.3163 36.9592 60.1516 35.8512C60.1516 34.7581 60.1516 33.6875 60.1516 32.6544C59.8596 31.6138 60.1516 30.603 60.1516 29.6223C60.0615 28.6711 60.0615 27.7136 60.1516 26.7624C60.009 25.8772 60.009 24.9749 60.1516 24.0897C60.219 23.2362 60.0543 22.4052 60.1516 21.6117C60.1025 20.8513 60.1025 20.0886 60.1516 19.3282C60.2046 18.6383 60.2171 17.9459 60.1891 17.2545C60.1521 16.6331 60.1646 16.0097 60.2265 15.3903C60.2265 14.8063 60.2265 14.2598 60.2639 13.7507C60.2639 12.2534 60.3388 11.0481 60.3762 10.2545C60.7328 9.89953 61.1418 9.60158 61.589 9.37107Z" fill="#5D270D"/>
<path d="M18.5043 28.021C18.4445 27.9611 18.4594 27.8338 18.5043 27.6541L18.5493 27.5568C18.5493 27.5194 18.5493 27.4744 18.6017 27.4595C18.6541 27.4445 18.5118 27.2573 18.6616 27.3472C18.8113 27.437 18.7289 27.2873 18.7364 27.2274C18.7439 27.1675 18.8487 27.2274 18.8188 27.1001C18.7888 26.9728 19.0584 27.1974 18.9086 26.9653C18.9086 26.8905 18.9535 26.8605 19.0059 26.8306C19.0584 26.8007 19.0883 26.7482 19.1108 26.6809C19.2979 26.7782 19.283 26.6809 19.2305 26.5311C19.4626 26.6734 19.4851 26.5985 19.3503 26.3739C19.3952 26.3215 19.515 26.3739 19.4851 26.2092C19.4551 26.0445 19.5375 26.0595 19.6198 26.0445C19.545 25.8648 19.6199 25.8199 19.7696 25.8723C19.6872 25.6851 19.7696 25.6851 19.9193 25.7001C20.069 25.7151 19.9193 25.468 20.0765 25.5204C20.2337 25.5728 20.1589 25.3707 20.2412 25.3333C20.3236 25.2958 20.4808 25.3333 20.4134 25.1536C20.3461 24.9739 20.4509 24.9514 20.5856 24.9664C20.5033 24.7568 20.6305 24.7568 20.7728 24.7718C20.915 24.7868 20.9749 24.7269 20.9525 24.5846C20.93 24.4424 21.0198 24.39 21.1471 24.39C21.2744 24.39 21.3642 24.345 21.3418 24.1953C21.3193 24.0456 21.5065 24.1129 21.5289 24.0081C21.7311 24.083 21.6113 23.8434 21.7236 23.8285C21.8359 23.8135 21.9182 23.791 21.9108 23.6563C21.9033 23.5215 21.9781 23.4841 22.0904 23.4841C21.9407 23.2146 22.2626 23.4242 22.2776 23.3194C22.4198 23.3194 22.3749 23.1921 22.4573 23.1622C22.5396 23.1322 22.6594 23.1622 22.6295 23.0124C22.5995 22.8627 22.6669 22.8327 22.8016 22.8627C22.7492 22.7055 22.9963 22.8627 22.9664 22.7279C23.0123 22.6731 23.0682 22.6273 23.1311 22.5932C23.3482 22.713 23.2583 22.5333 23.2883 22.4734C23.3182 22.4135 23.2883 22.2862 23.4455 22.3611C23.4979 22.3237 23.6102 22.3611 23.5877 22.2488C23.5653 22.1365 23.9097 22.406 23.73 22.1515C23.73 22.0691 23.9696 22.2413 23.8573 22.0616C23.745 21.882 23.9471 22.0092 23.9845 21.9793L24.1043 21.9044C24.4487 21.7023 24.6883 21.6274 24.7781 21.7172C24.8679 21.8071 24.7781 22.0991 24.5161 22.5108C24.5161 22.5482 24.5685 22.698 24.4337 22.6381C24.299 22.5782 24.4337 22.7953 24.3439 22.7654C24.4562 22.96 24.2915 22.8777 24.2466 22.9076C24.2016 22.9375 24.1193 22.9525 24.1343 23.0573C24.1492 23.1622 24.007 23.0948 24.022 23.2071C23.8797 23.1547 23.8573 23.2071 23.9022 23.3643C23.7599 23.3194 23.8198 23.4766 23.7674 23.5215C23.5803 23.4317 23.6252 23.5814 23.6327 23.6937C23.6401 23.806 23.5054 23.776 23.4829 23.8659C23.4605 23.9557 23.4156 24.0081 23.3332 24.0381C23.2508 24.068 23.3332 24.2402 23.176 24.2178C23.176 24.3226 23.0712 24.345 23.0113 24.3975C22.9514 24.4499 22.884 24.5098 22.8391 24.5846C22.7942 24.6595 22.5696 24.5846 22.6669 24.7718C22.622 24.8541 22.5172 24.8691 22.4797 24.9664C22.4354 24.9795 22.395 25.0035 22.3623 25.0362C22.3296 25.0689 22.3057 25.1092 22.2926 25.1536C22.0829 25.0637 22.1129 25.221 22.1054 25.3482C22.0979 25.4755 22.0006 25.498 21.9108 25.5354C21.8614 25.6121 21.7947 25.6762 21.7161 25.7226C21.7161 25.8349 21.5289 25.7825 21.5289 25.9097C21.5289 26.037 21.3418 25.9547 21.3418 26.0819C21.3418 26.2092 21.2894 26.2691 21.1546 26.2541C21.0198 26.2391 20.9001 26.2541 20.9749 26.4188C21.0498 26.5835 21.0648 26.7333 20.7952 26.5761C20.7952 26.6809 20.5856 26.576 20.6231 26.7258C20.4134 26.621 20.5033 26.8231 20.4509 26.868C20.3984 26.9129 20.2637 26.868 20.2787 27.0103C20.2936 27.1525 20.1439 27.0702 20.1215 27.1375C20.099 27.2049 19.9043 27.1375 19.9642 27.2648C19.8969 27.2648 19.8819 27.3696 19.807 27.3771C19.9792 27.6316 19.7247 27.4595 19.6648 27.4894C19.6049 27.5194 19.7247 27.7065 19.5225 27.5867C19.6423 27.7814 19.4701 27.6841 19.3878 27.6766C19.3054 27.6691 19.3878 27.8113 19.268 27.7589C19.3428 27.9012 19.1407 27.7589 19.1482 27.8263C19.1557 27.8937 19.0808 27.8862 19.0359 27.8937C18.991 27.9012 18.9985 27.9611 18.9311 27.9461L18.8412 27.991C18.6915 28.0883 18.5642 28.0883 18.5043 28.021Z" fill="#5D270D"/>
<path d="M18.788 32.9747C18.7281 32.9148 18.7431 32.7951 18.788 32.6154C18.7967 32.5804 18.812 32.5474 18.833 32.5181C18.8338 32.4979 18.8388 32.4781 18.8479 32.46C18.8569 32.4419 18.8697 32.426 18.8854 32.4132C18.9902 32.4656 18.7955 32.2186 18.9453 32.3084C19.095 32.3983 19.0126 32.2485 19.0201 32.1886C19.0276 32.1287 19.1324 32.1886 19.1025 32.0614C19.0725 31.9341 19.3421 32.1512 19.1923 31.9266C19.1923 31.8517 19.2372 31.8218 19.2897 31.7844C19.3421 31.7469 19.372 31.702 19.3945 31.6421C19.5741 31.7394 19.5592 31.6421 19.5142 31.4924C19.7463 31.6346 19.7613 31.5598 19.634 31.3352C19.6789 31.2753 19.7987 31.3352 19.7613 31.1705C19.7239 31.0057 19.8212 31.0207 19.9035 31.0058C19.8287 30.8261 19.9035 30.7812 20.0458 30.8336C19.9634 30.6389 20.0458 30.6389 20.203 30.6539C20.3602 30.6689 20.203 30.4218 20.3602 30.4817C20.5174 30.5416 20.4426 30.332 20.5249 30.2945C20.6073 30.2571 20.757 30.2945 20.6896 30.1074C20.6223 29.9202 20.7346 29.9127 20.8693 29.9202C20.787 29.7181 20.9142 29.7181 21.049 29.733C21.1838 29.748 21.2511 29.6881 21.2362 29.5459C21.2212 29.4036 21.3035 29.3512 21.4233 29.3512C21.5431 29.3512 21.6404 29.3063 21.618 29.1566C21.5955 29.0068 21.7827 29.0742 21.8126 28.9694C22.0073 29.0443 21.8875 28.8047 21.9998 28.7897C22.1121 28.7747 22.2019 28.7523 22.187 28.6175C22.172 28.4828 22.2543 28.4453 22.3741 28.4453C22.2244 28.1758 22.5463 28.3854 22.5538 28.2806C22.7035 28.2806 22.6586 28.1534 22.7335 28.1234C22.8083 28.0935 22.9431 28.1234 22.9132 27.9737C22.8832 27.824 22.9506 27.8015 23.0779 27.824C23.0329 27.6742 23.2725 27.8239 23.2501 27.6892C23.2924 27.6326 23.3493 27.5886 23.4148 27.5619C23.6244 27.6742 23.5346 27.4945 23.572 27.4346C23.6094 27.3748 23.572 27.255 23.7217 27.3224C23.8714 27.3897 23.8939 27.3224 23.864 27.2101C23.834 27.0978 24.1859 27.3748 24.0062 27.1127C24.0062 27.0379 24.2458 27.2026 24.141 27.0229C24.0362 26.8432 24.2233 26.9705 24.2682 26.9405L24.3805 26.8732C24.7249 26.671 24.9645 26.5961 25.0543 26.686C25.1442 26.7758 25.0543 27.0678 24.7923 27.4721C24.7923 27.5095 24.8522 27.6667 24.7099 27.5994C24.7099 27.6368 24.7099 27.7566 24.6201 27.7341C24.7324 27.9213 24.5752 27.8389 24.5228 27.8689C24.4704 27.8988 24.403 27.9138 24.418 28.0186C24.4329 28.1234 24.2832 28.0635 24.2982 28.1683C24.1634 28.1234 24.141 28.1683 24.1784 28.3256C24.0362 28.2806 24.1035 28.4453 24.0436 28.4903C23.8565 28.4004 23.9014 28.5502 23.9089 28.655C23.9164 28.7598 23.7816 28.7373 23.7666 28.8272C23.7517 28.917 23.6918 28.9694 23.6094 28.9993C23.5271 29.0293 23.6094 29.2015 23.4522 29.179C23.4522 29.2838 23.3474 29.3063 23.2875 29.3587C23.2276 29.4111 23.1677 29.471 23.1228 29.5459C23.0779 29.6207 22.8533 29.5459 22.9431 29.733C22.8982 29.8154 22.7934 29.8304 22.7634 29.9277C22.7191 29.9408 22.6787 29.9648 22.646 29.9975C22.6134 30.0302 22.5894 30.0705 22.5763 30.1149C22.3592 30.025 22.3891 30.1822 22.3816 30.3095C22.3741 30.4368 22.2768 30.4592 22.1944 30.4967C22.1432 30.5718 22.0769 30.6355 21.9998 30.6838C21.9998 30.7961 21.8126 30.7437 21.8126 30.8635C21.8126 30.9833 21.618 30.9159 21.6255 31.0432C21.633 31.1705 21.5731 31.2304 21.4383 31.2154C21.3035 31.2004 21.1838 31.2154 21.2586 31.3726C21.3335 31.5298 21.3485 31.6945 21.0789 31.5373C21.0789 31.6421 20.8618 31.5373 20.8993 31.687C20.6896 31.5822 20.787 31.7844 20.7271 31.8293C20.6672 31.8742 20.5474 31.8293 20.5624 31.9715C20.5773 32.1138 20.4276 32.0314 20.3977 32.0988C20.3677 32.1662 20.188 32.0988 20.2404 32.2261C20.1805 32.2261 20.1656 32.3234 20.0907 32.3384C20.2629 32.5929 20.0084 32.4207 19.9485 32.4432C19.8886 32.4656 20.0009 32.6678 19.8062 32.548C19.926 32.7427 19.7538 32.6378 19.6715 32.6378C19.5891 32.6378 19.6715 32.7726 19.5442 32.7127C19.6265 32.8624 19.4169 32.7127 19.4319 32.7876C19.3271 32.7426 19.3645 32.84 19.3196 32.8475C19.2747 32.855 19.2822 32.9223 19.2148 32.9073L19.1175 32.9448C18.9752 33.0197 18.8479 33.0346 18.788 32.9747Z" fill="#5D270D"/>
<path d="M46.3242 28.021C46.2643 27.9611 46.2793 27.8338 46.3242 27.6541L46.3691 27.5568C46.3691 27.5194 46.3691 27.4744 46.4215 27.4595C46.4739 27.4445 46.3317 27.2573 46.4814 27.3472C46.6311 27.437 46.5488 27.2873 46.5563 27.2274C46.5637 27.1675 46.6761 27.2274 46.6386 27.1001C46.6012 26.9728 46.8782 27.1974 46.7285 26.9653C46.7285 26.8905 46.7734 26.8605 46.8258 26.8306C46.8782 26.8007 46.9081 26.7482 46.9381 26.6809C47.1178 26.7782 47.1028 26.6809 47.0504 26.5311C47.2899 26.6734 47.3049 26.5985 47.1702 26.3739C47.2151 26.3215 47.3349 26.3739 47.3049 26.2092C47.275 26.0445 47.3573 26.0595 47.4472 26.0445C47.3648 25.8648 47.4472 25.8199 47.5894 25.8723C47.5071 25.6851 47.5894 25.6851 47.7391 25.7001C47.8889 25.7151 47.7391 25.468 47.8964 25.5204C48.0536 25.5728 47.9787 25.3707 48.0611 25.3333C48.1434 25.2958 48.3006 25.3333 48.2333 25.1536C48.1659 24.9739 48.2782 24.9514 48.4129 24.9664C48.3231 24.7568 48.4129 24.7568 48.5926 24.7718C48.7723 24.7868 48.7947 24.7269 48.7798 24.5846C48.7648 24.4424 48.8397 24.39 48.9669 24.39C49.0942 24.39 49.1841 24.345 49.1616 24.1953C49.1391 24.0456 49.3263 24.1129 49.3563 24.0081C49.5509 24.083 49.4311 23.8434 49.5434 23.8285C49.6557 23.8135 49.7456 23.791 49.7306 23.6563C49.7156 23.5215 49.798 23.4841 49.9178 23.4841C49.768 23.2146 50.0824 23.4242 50.0974 23.3194C50.2397 23.3194 50.1947 23.1921 50.2771 23.1622C50.3594 23.1322 50.4867 23.1622 50.4568 23.0124C50.4268 22.8627 50.4942 22.8327 50.6215 22.8627C50.5691 22.7055 50.8161 22.8627 50.7937 22.7279C50.8351 22.6716 50.8889 22.6255 50.9509 22.5932C51.168 22.713 51.0782 22.5333 51.1081 22.4734C51.1381 22.4135 51.1081 22.2862 51.2653 22.3611C51.3177 22.3237 51.4375 22.3611 51.4076 22.2488C51.3776 22.1365 51.7295 22.406 51.5498 22.1515C51.5498 22.0691 51.7894 22.2413 51.6846 22.0616C51.5798 21.882 51.7669 22.0092 51.8044 21.9793L51.9242 21.9044C52.2685 21.7023 52.5081 21.6274 52.5979 21.7172C52.6878 21.8071 52.5979 22.0991 52.3359 22.5108C52.3359 22.5482 52.3958 22.698 52.2536 22.6381C52.1113 22.5782 52.2536 22.7953 52.1637 22.7654C52.2835 22.96 52.1188 22.8777 52.0664 22.9076C52.014 22.9375 51.9391 22.9525 51.9616 23.0573C51.984 23.1622 51.8268 23.0948 51.8418 23.2071C51.707 23.1547 51.6846 23.2071 51.722 23.3643C51.5798 23.3194 51.6397 23.4766 51.5872 23.5215C51.4001 23.4317 51.445 23.5814 51.4525 23.6937C51.46 23.806 51.3252 23.776 51.3102 23.8659C51.2953 23.9557 51.2354 24.0081 51.153 24.0381C51.0707 24.068 51.153 24.2402 50.9958 24.2178C50.9958 24.3226 50.891 24.345 50.8311 24.3975C50.7712 24.4499 50.7038 24.5098 50.6589 24.5846C50.614 24.6595 50.3894 24.5846 50.4867 24.7718C50.4418 24.8541 50.337 24.8691 50.307 24.9664C50.2771 25.0637 50.1349 25.0488 50.1199 25.1536C49.9028 25.0637 49.9327 25.221 49.9252 25.3482C49.9177 25.4755 49.8204 25.498 49.7306 25.5354C49.682 25.6102 49.6182 25.674 49.5434 25.7226C49.5434 25.8349 49.3488 25.7825 49.3488 25.9097C49.3488 26.037 49.1616 25.9547 49.1616 26.0819C49.1616 26.2092 49.1167 26.2691 48.9819 26.2541C48.8472 26.2391 48.7199 26.2541 48.7948 26.4188C48.8696 26.5835 48.8846 26.7333 48.6151 26.5761C48.6151 26.6809 48.4055 26.576 48.4429 26.7258C48.2333 26.621 48.3306 26.8231 48.2707 26.868C48.2108 26.9129 48.0835 26.868 48.106 27.0103C48.1284 27.1525 47.9637 27.0702 47.9413 27.1375C47.9188 27.2049 47.7317 27.1375 47.7841 27.2648C47.7167 27.2648 47.7092 27.3696 47.6343 27.3771C47.799 27.6316 47.5445 27.4595 47.4846 27.4894C47.4247 27.5194 47.5445 27.7065 47.3424 27.5867C47.4621 27.7814 47.2899 27.6841 47.2151 27.6766C47.1402 27.6691 47.2151 27.8113 47.0878 27.7589C47.1627 27.9012 46.9605 27.7589 46.968 27.8263C46.9755 27.8937 46.9007 27.8862 46.8557 27.8937C46.8108 27.9012 46.8557 27.9611 46.7509 27.9461L46.6611 27.991C46.5113 28.0883 46.3841 28.0883 46.3242 28.021Z" fill="#5D270D"/>
<path d="M46.6084 32.9747C46.5485 32.9148 46.5634 32.7951 46.6084 32.6154L46.6533 32.5181C46.6541 32.4979 46.6592 32.4781 46.6682 32.46C46.6772 32.4419 46.69 32.426 46.7057 32.4132C46.8105 32.4656 46.6158 32.2186 46.7656 32.3084C46.9153 32.3983 46.8329 32.2485 46.8404 32.1886C46.8479 32.1287 46.9602 32.1886 46.9228 32.0614C46.8854 31.9341 47.1624 32.1512 47.0126 31.9266C47.0126 31.8517 47.0576 31.8218 47.11 31.7844C47.1624 31.7469 47.1923 31.702 47.2148 31.6421C47.4019 31.7394 47.387 31.6421 47.3346 31.4924C47.5666 31.6346 47.5891 31.5598 47.4543 31.3352C47.4993 31.2753 47.619 31.3352 47.5891 31.1705C47.5591 31.0057 47.6415 31.0207 47.7238 31.0058C47.649 30.8261 47.7239 30.7812 47.8736 30.8336C47.7837 30.6389 47.8736 30.6389 48.0233 30.6539C48.1731 30.6689 48.0233 30.4218 48.1805 30.4817C48.3378 30.5416 48.2629 30.332 48.3452 30.2945C48.4276 30.2571 48.5848 30.2945 48.5174 30.1074C48.4501 29.9202 48.5549 29.9127 48.6896 29.9202C48.6073 29.7181 48.7345 29.7181 48.8693 29.733C49.0041 29.748 49.0789 29.6881 49.0565 29.5459C49.1463 29.501 49.1238 29.3512 49.2511 29.3512C49.3784 29.3512 49.4607 29.3063 49.4383 29.1566C49.4158 29.0068 49.6105 29.0742 49.6329 28.9694C49.8351 29.0443 49.7153 28.8047 49.8201 28.7897C49.9249 28.7747 50.0222 28.7523 50.0073 28.6175C49.9923 28.4828 50.0747 28.4453 50.1944 28.4453C50.0447 28.1758 50.3666 28.3854 50.3741 28.2806C50.5238 28.2806 50.4789 28.1534 50.5538 28.1234C50.6286 28.0935 50.7634 28.1234 50.7335 27.9737C50.7035 27.824 50.7709 27.8015 50.9057 27.824C50.8532 27.6742 51.0928 27.8239 51.0704 27.6892C51.1127 27.6326 51.1696 27.5886 51.2351 27.5619C51.4447 27.6742 51.3549 27.4945 51.3923 27.4346C51.4297 27.3748 51.3923 27.255 51.542 27.3224C51.6917 27.3897 51.7142 27.3224 51.6843 27.2101C51.6543 27.0978 52.0062 27.3748 51.8265 27.1127C51.8265 27.0379 52.0736 27.2026 51.9613 27.0229C51.849 26.8432 52.0511 26.9705 52.0885 26.9405L52.2083 26.8732C52.5527 26.671 52.7923 26.5961 52.8746 26.686C52.957 26.7758 52.8746 27.0678 52.6201 27.4721C52.6201 27.5095 52.6725 27.6667 52.5377 27.5994C52.403 27.532 52.5378 27.7566 52.4479 27.7341C52.5602 27.9213 52.3955 27.8389 52.3431 27.8689C52.2907 27.8988 52.2233 27.9138 52.2383 28.0186C52.2532 28.1234 52.1035 28.0635 52.126 28.1683C51.9837 28.1234 51.9613 28.1683 51.9987 28.3256C51.864 28.2806 51.9238 28.4453 51.8714 28.4903C51.6768 28.4004 51.7292 28.5502 51.7292 28.655C51.7292 28.7598 51.6019 28.7373 51.5869 28.8272C51.572 28.917 51.5121 28.9694 51.4372 28.9993C51.3623 29.0293 51.4372 29.2015 51.2725 29.179C51.2725 29.2838 51.1677 29.3063 51.1153 29.3587C51.0629 29.4111 50.988 29.471 50.9431 29.5459C50.8982 29.6207 50.6736 29.5459 50.7634 29.733C50.726 29.8154 50.6212 29.8304 50.5837 29.9277C50.5394 29.9408 50.499 29.9648 50.4663 29.9975C50.4337 30.0302 50.4097 30.0705 50.3966 30.1149C50.1795 30.025 50.2094 30.1822 50.2094 30.3095C50.2094 30.4368 50.0971 30.4592 50.0148 30.4967C49.9635 30.5718 49.8972 30.6355 49.8201 30.6838C49.8201 30.7961 49.6329 30.7437 49.6329 30.8635C49.6329 30.9833 49.4383 30.9159 49.4458 31.0432C49.4533 31.1705 49.3934 31.2304 49.2586 31.2154C49.1239 31.2004 49.0041 31.2154 49.0789 31.3726C49.1538 31.5298 49.1688 31.6945 48.8992 31.5373C48.8992 31.6421 48.6896 31.5373 48.7271 31.687C48.51 31.5822 48.6073 31.7844 48.5549 31.8293C48.5025 31.8742 48.3677 31.8293 48.3827 31.9715C48.3976 32.1138 48.2479 32.0314 48.2255 32.0988C48.203 32.1662 48.0084 32.0988 48.0682 32.2261C48.0009 32.2261 47.9859 32.3234 47.911 32.3384C48.0832 32.5929 47.8287 32.4207 47.7688 32.4432C47.7089 32.4656 47.8287 32.6678 47.6265 32.548C47.7463 32.7427 47.5741 32.6378 47.4918 32.6378C47.4094 32.6378 47.4918 32.7726 47.372 32.7127C47.4468 32.8624 47.2447 32.7127 47.2522 32.7876C47.2597 32.8624 47.1848 32.84 47.1399 32.8475C47.095 32.855 47.1399 32.9223 47.0351 32.9073L46.9453 32.9448C46.7955 33.0197 46.6682 33.0346 46.6084 32.9747Z" fill="#5D270D"/>
<path d="M28.2141 37.0698C28.2141 37.1147 28.1692 37.1522 28.1018 37.1971L27.9671 37.2645L27.7949 37.3468L27.6601 37.4217L27.5927 37.4666C27.5683 37.4737 27.5423 37.4737 27.5179 37.4666C27.4205 37.3917 27.5179 37.6987 27.3681 37.5714C27.2184 37.4441 27.2483 37.6163 27.2109 37.6837C27.1735 37.7511 27.0537 37.6837 27.0537 37.826C27.0537 37.9682 27.0537 37.9008 26.9639 37.8858C26.874 37.8709 26.8441 37.8858 26.904 37.9832C26.8844 38.0604 26.8362 38.1273 26.7692 38.1703C26.6719 38.1703 26.6494 38.1703 26.6419 38.2302C26.6457 38.2776 26.6457 38.3251 26.6419 38.3725C26.4323 38.3725 26.4473 38.4698 26.5371 38.6045C26.2526 38.5596 26.2526 38.6944 26.4622 38.8516C26.45 38.8949 26.4297 38.9356 26.4024 38.9714C26.4024 39.0163 26.4024 39.0612 26.4024 39.1211C26.3987 39.166 26.3987 39.2111 26.4024 39.2559C26.4114 39.2772 26.4161 39.3001 26.4161 39.3233C26.4161 39.3464 26.4114 39.3693 26.4024 39.3907C26.4847 39.4431 26.5371 39.4805 26.5446 39.5254C26.5533 39.547 26.5533 39.5712 26.5446 39.5928C26.5262 39.6256 26.5006 39.6537 26.4697 39.6751C26.6719 39.7425 26.6195 39.8249 26.5446 39.9521C26.4697 40.0794 26.5446 40.0495 26.6195 40.0794C26.6943 40.1094 26.7243 40.1393 26.6719 40.2142C26.6929 40.2622 26.7235 40.3055 26.7617 40.3414C26.7958 40.3764 26.8237 40.4169 26.8441 40.4612V40.5586C26.8399 40.5858 26.8399 40.6136 26.8441 40.6409C26.8441 40.6933 26.9264 40.7158 27.0312 40.6858L27.1884 40.7382C27.2124 40.7509 27.233 40.769 27.2486 40.7911C27.2642 40.8132 27.2744 40.8387 27.2783 40.8655C27.4729 40.7457 27.5029 40.8655 27.5628 41.0078C27.6227 41.0078 27.6601 41.0602 27.705 41.0901C27.7286 41.1083 27.7576 41.1182 27.7874 41.1182C27.8172 41.1182 27.8461 41.1083 27.8697 41.0901C27.9236 41.1051 27.9806 41.1051 28.0344 41.0901C28.0592 41.0749 28.0877 41.0668 28.1168 41.0668C28.1459 41.0668 28.1744 41.0749 28.1991 41.0901C28.2515 41.1164 28.3068 41.1366 28.3638 41.15C28.3954 41.1489 28.4261 41.1401 28.4535 41.1245C28.4809 41.1088 28.5041 41.0867 28.5211 41.0601C28.526 41.0456 28.5339 41.0322 28.5443 41.0208C28.5547 41.0094 28.5673 41.0003 28.5813 40.9939C28.5953 40.9876 28.6105 40.9842 28.6259 40.984C28.6413 40.9838 28.6566 40.9868 28.6708 40.9928C28.7232 40.9928 28.7906 40.9928 28.828 40.9928C28.9179 41.0676 28.9628 40.9928 28.9927 40.9928C29.0227 40.9928 29.0451 40.873 29.1125 40.8805C29.1567 40.8484 29.2081 40.8278 29.2622 40.8206C29.2908 40.8129 29.3162 40.7965 29.335 40.7737C29.3538 40.7509 29.365 40.7228 29.367 40.6933C29.3873 40.6459 29.4124 40.6008 29.4419 40.5586C29.4766 40.5171 29.524 40.4882 29.5767 40.4762C29.4868 40.3489 29.5318 40.3265 29.5767 40.3115C29.6216 40.2965 29.7414 40.3115 29.7339 40.2291C29.7623 40.2254 29.7883 40.2109 29.8064 40.1886C29.8245 40.1663 29.8334 40.138 29.8312 40.1094C29.8312 40.057 29.8312 40.0045 29.8312 39.9596C29.8312 39.9147 29.8312 39.8698 29.8986 39.8324C29.966 39.7949 29.9585 39.7425 29.8986 39.6826C29.906 39.6608 29.906 39.6371 29.8986 39.6152C29.8986 39.6152 29.8986 39.5628 29.8986 39.5404C29.8907 39.5161 29.8909 39.4899 29.8989 39.4656C29.907 39.4414 29.9226 39.4203 29.9435 39.4056C29.8686 39.3607 29.8986 39.3158 29.9435 39.2634C29.9884 39.211 30.0109 39.166 29.9435 39.1286C29.8761 39.0912 29.9435 39.0388 29.9435 38.9939C29.9358 38.9518 29.9358 38.9087 29.9435 38.8666C30.0408 38.7842 30.0334 38.7393 29.9959 38.7019C29.9585 38.6644 29.8911 38.6495 29.8687 38.612C29.8462 38.5746 29.674 38.5372 29.7713 38.3875C29.7713 38.3126 29.7713 38.1778 29.6441 38.1778C29.5168 38.1778 29.6441 38.073 29.6441 38.0131C29.6441 37.9532 29.6441 37.9083 29.4943 38.0131C29.3446 38.1179 29.4943 37.9382 29.4943 37.8858C29.4943 37.8334 29.4943 37.7885 29.3745 37.8858C29.2548 37.9832 29.2772 37.7885 29.2248 37.7436C29.1724 37.6987 29.12 37.6687 29.0676 37.6313C28.6034 37.3094 28.2216 37.2345 28.2216 37.0998C28.2216 36.965 28.2216 37.0324 28.3114 37.0024C28.3924 36.9591 28.4818 36.9335 28.5735 36.9276C28.9246 36.8909 29.2792 36.9504 29.5991 37.0998C29.6815 37.1372 29.8612 37.0473 29.8537 37.227C29.9032 37.2523 29.9562 37.2699 30.0109 37.2794C30.0383 37.2867 30.0629 37.3019 30.0816 37.3233C30.1003 37.3446 30.1122 37.3711 30.1157 37.3992C30.3478 37.3169 30.3104 37.534 30.3703 37.6238C30.4301 37.7136 30.4676 37.8409 30.6098 37.8933C30.7521 37.9457 30.6922 38.1404 30.8269 38.2153C30.7671 38.3874 30.8269 38.4922 30.9991 38.5821C30.9801 38.6151 30.97 38.6525 30.97 38.6907C30.97 38.7288 30.9801 38.7662 30.9991 38.7992C31.0461 38.8558 31.0794 38.9224 31.0965 38.9939C31.0609 39.0194 31.0354 39.0566 31.0245 39.0991C31.0135 39.1415 31.0178 39.1864 31.0366 39.2259C31.0723 39.3006 31.1123 39.3731 31.1564 39.4431C31.1867 39.5174 31.1867 39.6008 31.1564 39.6751V39.7874C31.1489 39.827 31.1489 39.8677 31.1564 39.9072C31.0965 40.057 31.1563 40.2366 31.0665 40.3864C31.0855 40.4752 31.0855 40.5671 31.0665 40.6559C31.0351 40.7417 30.9741 40.8134 30.8943 40.858C30.8452 41.0287 30.7523 41.1836 30.6248 41.3072C30.6005 41.3963 30.548 41.4751 30.4751 41.5318C30.4042 41.5877 30.3367 41.6477 30.2729 41.7115C30.2095 41.7835 30.1213 41.8289 30.0259 41.8388C29.976 41.851 29.9311 41.8785 29.8976 41.9174C29.864 41.9563 29.8435 42.0047 29.8387 42.0559C29.6805 42.155 29.5154 42.2426 29.3446 42.3179C29.1531 42.3464 28.9666 42.4018 28.7906 42.4826C28.7514 42.4454 28.7029 42.4195 28.6501 42.4076C28.5974 42.3958 28.5425 42.3984 28.4911 42.4152C28.3935 42.451 28.2984 42.4935 28.2066 42.5425C28.1102 42.5617 28.011 42.5617 27.9146 42.5425C27.8179 42.5255 27.7227 42.5005 27.6302 42.4676C27.5333 42.4592 27.4377 42.4391 27.3457 42.4077C27.253 42.3806 27.1628 42.3456 27.0762 42.3029C26.9838 42.2835 26.8985 42.2396 26.8291 42.1757C26.761 42.1084 26.6754 42.0617 26.582 42.0409C26.4697 42.0409 26.4173 41.9511 26.3574 41.8762C26.3082 41.7958 26.2348 41.7329 26.1478 41.6965C26.0597 41.662 25.9804 41.6083 25.9157 41.5393C25.8843 41.5077 25.8566 41.4725 25.8334 41.4345C25.8165 41.3883 25.8039 41.3407 25.7959 41.2923C25.7508 41.2142 25.7227 41.1274 25.7136 41.0377C25.7046 40.9906 25.6822 40.9471 25.649 40.9125C25.6157 40.878 25.5731 40.8538 25.5264 40.8431C25.474 40.7757 25.3692 40.7308 25.3093 40.6559C25.2494 40.581 25.2345 40.4912 25.3468 40.3714C25.3282 40.3329 25.3185 40.2906 25.3185 40.2479C25.3185 40.2051 25.3282 40.1629 25.3468 40.1243C25.3468 40.042 25.3467 39.9596 25.2869 39.8922C25.3266 39.8592 25.3553 39.8148 25.3692 39.765C25.3804 39.7258 25.3804 39.6843 25.3692 39.6452C25.3692 39.5703 25.2869 39.4955 25.2943 39.4206C25.3018 39.3457 25.3542 39.2709 25.3692 39.196C25.395 39.1259 25.395 39.0489 25.3692 38.9789C25.3476 38.9468 25.3361 38.909 25.3361 38.8703C25.3361 38.8317 25.3476 38.7939 25.3692 38.7618C25.4142 38.7049 25.445 38.6382 25.459 38.5671C25.459 38.4773 25.4591 38.4249 25.5489 38.3725C25.6387 38.3201 25.6762 38.2901 25.6387 38.1928C25.6971 38.0784 25.7674 37.9705 25.8484 37.8709C25.7585 37.7361 25.8034 37.6837 25.8484 37.6612C25.8933 37.6388 26.0205 37.6612 26.073 37.6088C26.1254 37.5564 26.1254 37.504 26.1478 37.4366C26.1703 37.3693 26.2077 37.3393 26.3275 37.3842C26.2901 37.2645 26.3275 37.2195 26.3874 37.2046C26.4473 37.1896 26.5296 37.2046 26.5895 37.2046C26.6494 37.2046 26.7018 37.0174 26.8441 37.0773C26.8441 36.8826 27.0462 37.0773 27.0911 36.9875C27.2034 37.0399 27.2409 36.9276 27.3157 36.9276C27.3429 36.9017 27.3765 36.8836 27.413 36.8751C27.4497 36.8645 27.4887 36.8645 27.5254 36.8751H27.7125H27.9371C27.9913 36.8867 28.044 36.9043 28.0943 36.9276C28.1692 36.95 28.2141 36.9874 28.2141 37.0698Z" fill="#98772E"/>
<path d="M43.1868 37.0734C43.1868 37.1183 43.1418 37.1557 43.0745 37.2006L42.9397 37.268L42.7675 37.3504L42.6328 37.4252L42.5654 37.4702C42.5409 37.4772 42.515 37.4772 42.4905 37.4702C42.3932 37.3953 42.4905 37.6948 42.3408 37.575C42.1911 37.4552 42.221 37.6199 42.1836 37.6873C42.1461 37.7547 42.0263 37.6873 42.0263 37.8295C42.0263 37.9718 42.0264 37.9044 41.9365 37.8894C41.8467 37.8744 41.8167 37.8894 41.8766 37.9867C41.857 38.0639 41.8089 38.1308 41.7419 38.1739C41.652 38.1739 41.6221 38.1739 41.6146 38.2338C41.6184 38.2811 41.6184 38.3287 41.6146 38.376C41.405 38.376 41.4199 38.4734 41.5098 38.6081C41.2253 38.5632 41.2253 38.698 41.4349 38.8552C41.4226 38.8985 41.4023 38.9391 41.375 38.975C41.358 38.9962 41.3487 39.0226 41.3487 39.0498C41.3487 39.0771 41.358 39.1034 41.375 39.1247C41.3713 39.1695 41.3713 39.2146 41.375 39.2595C41.3841 39.2808 41.3887 39.3037 41.3887 39.3268C41.3887 39.35 41.3841 39.3729 41.375 39.3942C41.4649 39.4466 41.5098 39.484 41.5173 39.529C41.526 39.5506 41.526 39.5747 41.5173 39.5963C41.4968 39.6276 41.4716 39.6554 41.4424 39.6787C41.6445 39.7386 41.5921 39.8284 41.5173 39.9557C41.4424 40.083 41.5173 40.053 41.5921 40.083C41.667 40.1129 41.6969 40.1429 41.6445 40.2177C41.6656 40.2658 41.6961 40.3091 41.7344 40.345C41.7685 40.3799 41.7963 40.4204 41.8167 40.4648V40.5621C41.8125 40.5894 41.8125 40.6172 41.8167 40.6445C41.8167 40.6969 41.8991 40.7193 42.0039 40.6894L42.1536 40.7418C42.1802 40.7516 42.2035 40.7688 42.2207 40.7913C42.238 40.8139 42.2484 40.8408 42.2509 40.8691C42.4456 40.7493 42.4755 40.8691 42.5354 41.0113C42.5953 41.0113 42.6328 41.0562 42.6777 41.0937C42.7017 41.1108 42.7305 41.1199 42.76 41.1199C42.7896 41.1199 42.8183 41.1108 42.8424 41.0937C42.8963 41.1087 42.9532 41.1087 43.0071 41.0937C43.0319 41.0784 43.0604 41.0704 43.0895 41.0704C43.1185 41.0704 43.147 41.0784 43.1718 41.0937C43.2242 41.12 43.2794 41.1401 43.3365 41.1536C43.368 41.1525 43.3988 41.1437 43.4262 41.128C43.4536 41.1124 43.4767 41.0903 43.4937 41.0637C43.4987 41.0491 43.5066 41.0357 43.517 41.0243C43.5273 41.013 43.5399 41.0038 43.5539 40.9975C43.568 40.9912 43.5832 40.9878 43.5986 40.9876C43.614 40.9874 43.6293 40.9904 43.6435 40.9963C43.6959 40.9963 43.7557 40.9963 43.8007 40.9963C43.8905 41.0712 43.9354 40.9963 43.9654 40.9963C43.9953 40.9963 44.0178 40.8766 44.0852 40.884C44.1306 40.8527 44.1813 40.8299 44.2349 40.8167C44.2634 40.8129 44.2893 40.7984 44.3074 40.7761C44.3255 40.7539 44.3344 40.7255 44.3322 40.6969C44.3322 40.652 44.3846 40.5996 44.4146 40.5621C44.4493 40.5207 44.4966 40.4917 44.5493 40.4798C44.4595 40.345 44.5044 40.33 44.5493 40.3076C44.5942 40.2851 44.714 40.3076 44.7065 40.2327C44.735 40.229 44.761 40.2145 44.7791 40.1922C44.7972 40.1699 44.806 40.1415 44.8039 40.1129C44.8039 40.0605 44.8039 40.0081 44.8039 39.9632C44.8039 39.9183 44.8039 39.8734 44.8712 39.8359C44.9386 39.7985 44.9311 39.7461 44.8712 39.6862C44.89 39.6406 44.89 39.5895 44.8712 39.5439C44.8634 39.5196 44.8635 39.4934 44.8716 39.4692C44.8797 39.4449 44.8953 39.4239 44.9162 39.4092C44.8413 39.3643 44.8712 39.3193 44.9162 39.2669C44.9611 39.2145 44.9761 39.1696 44.9162 39.1322V39.0648C44.9162 39.0648 44.9162 39.0199 44.9162 39.0049C44.9125 38.9601 44.9125 38.915 44.9162 38.8701C45.0135 38.7878 45.006 38.7429 44.9686 38.7054C44.9311 38.668 44.8638 38.653 44.8413 38.6231C44.8189 38.5932 44.6467 38.5407 44.744 38.391C44.744 38.3161 44.744 38.1814 44.6167 38.1814C44.4894 38.1814 44.6167 38.0766 44.6167 38.0167C44.6167 37.9568 44.6167 37.9119 44.467 38.0167C44.3173 38.1215 44.467 37.9418 44.467 37.8819C44.467 37.822 44.467 37.7921 44.3472 37.8819C44.2274 37.9717 44.2499 37.7846 44.1975 37.7397C44.1451 37.6948 44.0927 37.6648 44.0402 37.6274C43.5761 37.3054 43.1943 37.2306 43.1943 37.0958C43.1943 36.9611 43.1943 37.0284 43.2841 36.9985C43.3651 36.9551 43.4544 36.9296 43.5461 36.9236C43.8973 36.8869 44.2518 36.9465 44.5718 37.0958C44.6541 37.1333 44.8338 37.0434 44.8263 37.2231C44.8758 37.2484 44.9288 37.266 44.9836 37.2755C45.0121 37.2832 45.0375 37.2996 45.0563 37.3224C45.0751 37.3452 45.0863 37.3733 45.0884 37.4028C45.3204 37.3129 45.2755 37.5301 45.3429 37.6199C45.4103 37.7097 45.4402 37.837 45.5825 37.8894C45.7247 37.9418 45.6648 38.1365 45.7996 38.2113C45.7397 38.3835 45.7996 38.4883 45.9718 38.5782C45.9527 38.6112 45.9427 38.6486 45.9427 38.6867C45.9427 38.7248 45.9527 38.7623 45.9718 38.7953L46.0317 38.8851C46.0537 38.9159 46.0667 38.9522 46.0691 38.9899C46.0366 39.0179 46.0134 39.0551 46.0027 39.0966C45.992 39.1381 45.9943 39.1818 46.0092 39.222C46.0448 39.2982 46.0874 39.3709 46.1365 39.4391C46.1627 39.5143 46.1627 39.5961 46.1365 39.6712C46.1214 39.7478 46.1214 39.8267 46.1365 39.9033C46.0766 40.053 46.1365 40.2327 46.0466 40.3825C46.0657 40.4713 46.0657 40.5631 46.0466 40.652C46.0136 40.7387 45.9531 40.8123 45.8744 40.8616C45.8232 41.0292 45.7305 41.1811 45.6049 41.3033C45.5806 41.3924 45.5281 41.4712 45.4552 41.5279C45.3844 41.5838 45.3169 41.6438 45.2531 41.7076C45.1876 41.7769 45.1005 41.8217 45.006 41.8348C44.955 41.8448 44.9088 41.8717 44.8749 41.9111C44.841 41.9504 44.8212 42 44.8189 42.0519C44.6607 42.151 44.4955 42.2386 44.3247 42.314C44.1332 42.3425 43.9467 42.3979 43.7707 42.4787C43.7315 42.4415 43.683 42.4156 43.6303 42.4037C43.5776 42.3918 43.5226 42.3945 43.4713 42.4113C43.373 42.4457 43.2779 42.4883 43.1868 42.5386C43.0904 42.5577 42.9912 42.5577 42.8948 42.5386C42.798 42.5216 42.7029 42.4965 42.6103 42.4637C42.5134 42.4553 42.4179 42.4352 42.3258 42.4038C42.2331 42.3767 42.143 42.3417 42.0563 42.299C41.96 42.2804 41.8713 42.2334 41.8018 42.1642C41.7351 42.1006 41.6522 42.0566 41.5622 42.037C41.5144 42.0292 41.4692 42.0102 41.4301 41.9816C41.3911 41.953 41.3594 41.9155 41.3376 41.8723C41.2777 41.7974 41.2253 41.7151 41.1279 41.6926C41.0399 41.6581 40.9606 41.6044 40.8959 41.5354C40.8644 41.5038 40.8368 41.4686 40.8135 41.4306C40.8092 41.3833 40.8092 41.3356 40.8135 41.2883C40.7673 41.208 40.7392 41.1186 40.7312 41.0263C40.7215 40.9815 40.6996 40.9403 40.6679 40.9072C40.6361 40.8742 40.5958 40.8506 40.5515 40.8391C40.4916 40.7717 40.3868 40.7268 40.3269 40.652C40.267 40.5771 40.252 40.4873 40.3643 40.3675C40.3457 40.3289 40.3361 40.2867 40.3361 40.2439C40.3361 40.2012 40.3457 40.1589 40.3643 40.1204C40.3643 40.0381 40.3643 39.9557 40.3044 39.8883C40.3459 39.8536 40.3748 39.8063 40.3868 39.7536C40.3978 39.7169 40.3978 39.6779 40.3868 39.6413C40.3868 39.5664 40.3044 39.4915 40.3119 39.4167C40.3194 39.3418 40.3718 39.2669 40.3868 39.1921C40.4125 39.1194 40.4125 39.0401 40.3868 38.9675C40.3684 38.9356 40.3587 38.8995 40.3587 38.8627C40.3587 38.8259 40.3684 38.7897 40.3868 38.7579C40.431 38.6995 40.464 38.6335 40.4841 38.5632C40.4467 38.4734 40.4841 38.421 40.5665 38.3686C40.6488 38.3161 40.6937 38.2862 40.6563 38.1889C40.7387 38.084 40.7686 37.9568 40.8659 37.8669C40.7836 37.7322 40.821 37.6798 40.8659 37.6573C40.9109 37.6349 41.0381 37.6573 41.0905 37.5974C41.1429 37.5375 41.1429 37.4926 41.1654 37.4327C41.1879 37.3728 41.2253 37.3354 41.3451 37.3803C41.3076 37.2605 41.3451 37.2156 41.405 37.2006C41.4649 37.1857 41.5472 37.2006 41.6071 37.2006C41.667 37.2006 41.7194 37.0135 41.8616 37.0734C41.8616 36.8787 42.0638 37.0734 42.1087 36.9835C42.221 37.0359 42.2584 36.9236 42.3408 36.9236C42.3639 36.8965 42.3956 36.878 42.4306 36.8712C42.4673 36.8606 42.5062 36.8606 42.5429 36.8712H42.7301H42.9547C43.0089 36.8828 43.0616 36.9004 43.1119 36.9236C43.1419 36.9536 43.1868 36.991 43.1868 37.0734Z" fill="#98772E"/>
</svg>
