<svg width="72" height="72" viewBox="0 0 72 72" fill="none" xmlns="http://www.w3.org/2000/svg">
<path d="M13.8377 40.4639C13.2534 40.6469 12.6421 40.7284 12.0303 40.7048H11.4052C11.1671 40.7244 10.9278 40.7244 10.6897 40.7048C10.4412 40.5919 10.1776 40.9082 9.89897 40.7425H9.6881H9.49983C9.42111 40.7525 9.34313 40.7676 9.26636 40.7877H9.13081C9.13081 40.8404 9.13081 40.8931 9.13081 40.9534C9.12786 41.0215 9.14347 41.0892 9.176 41.1492C9.17963 41.1918 9.17963 41.2346 9.176 41.2772C9.16313 41.3648 9.14039 41.4507 9.10822 41.5333C9.0682 41.6155 9.05061 41.7069 9.05722 41.7981C9.06383 41.8894 9.0944 41.9773 9.14586 42.0529C9.18367 42.4159 9.18367 42.7819 9.14586 43.1449C8.98018 43.5215 9.14586 43.898 9.14586 44.3047C9.06405 44.499 9.02192 44.7077 9.02192 44.9185C9.02192 45.1293 9.06405 45.338 9.14586 45.5323C9.01732 45.721 8.9486 45.9441 8.9486 46.1724C8.9486 46.4007 9.01732 46.6238 9.14586 46.8125C9.08955 47.2601 9.08955 47.713 9.14586 48.1606C9.17617 48.6245 9.17617 49.0899 9.14586 49.5538C9.31554 50.0235 9.31554 50.5377 9.14586 51.0073C9.29414 51.4985 9.29414 52.0224 9.14586 52.5135C9.0329 53.0257 9.31155 53.5378 9.14586 54.0198C9.14586 54.5469 9.19105 55.0741 9.14586 55.6088C9.01783 56.146 9.01783 56.7058 9.14586 57.243C9.22125 57.7953 9.22125 58.3552 9.14586 58.9074C9.30036 59.4617 9.30036 60.0476 9.14586 60.6019C9.10444 61.1785 9.10444 61.7574 9.14586 62.334C9.13081 62.625 9.13081 62.9166 9.14586 63.2076C9.14586 63.298 9.14586 63.3131 9.14586 63.3583C9.14234 63.3933 9.14234 63.4286 9.14586 63.4637C9.14586 63.539 9.18353 63.6068 9.20613 63.6821C9.23692 63.7589 9.28016 63.8302 9.33414 63.893C9.39186 63.9555 9.46086 64.0066 9.53749 64.0436C9.61316 64.0774 9.69573 64.0929 9.77849 64.0888H10.1927H10.3057L10.5241 64.0511C11.0983 64.0134 11.6744 64.0134 12.2487 64.0511H12.3616H12.4445H12.5725C12.653 64.0348 12.7281 63.9986 12.7909 63.9457C12.8495 63.8935 12.9025 63.8355 12.9491 63.7725C12.99 63.7115 13.0353 63.6536 13.0846 63.5993C13.0846 63.5239 13.1449 63.4562 13.1675 63.3884C13.1966 63.2932 13.2118 63.1943 13.2127 63.0947C13.2465 62.8196 13.2465 62.5414 13.2127 62.2663C13.1561 61.7255 13.1561 61.1803 13.2127 60.6395C12.9114 60.1048 13.288 59.5777 13.2127 59.0505C13.2615 58.537 13.2615 58.0201 13.2127 57.5066C13.2467 57.0051 13.2467 56.5019 13.2127 56.0004C13.1673 55.517 13.1673 55.0304 13.2127 54.5469C13.0696 54.0725 13.3407 53.6055 13.2127 53.1537C13.0846 52.7018 13.2127 52.2424 13.2127 51.8056C13.4461 51.3688 13.2503 50.9395 13.2127 50.5178C13.175 50.0961 13.0771 49.6969 13.2127 49.2978C13.2689 48.9132 13.2689 48.5226 13.2127 48.138C13.2127 47.7615 13.5515 47.3849 13.2127 47.046C13.1599 46.692 13.4536 46.3456 13.2127 46.0218C12.9717 45.6979 13.2127 45.3741 13.2127 45.0729C13.2127 44.7716 13.2127 44.4779 13.2127 44.1993C13.3106 41.6914 13.431 40.253 13.5515 40.253C13.672 40.253 13.8227 42.0303 13.9281 45.0729C13.9281 45.3741 14.1013 45.6904 13.9281 46.0218C13.9699 46.3619 13.9699 46.7059 13.9281 47.046C14.139 47.3924 13.9657 47.7615 13.9281 48.138C13.8945 48.5239 13.8945 48.9119 13.9281 49.2978C14.0561 49.6969 13.8678 50.1036 13.9281 50.5178C13.8005 50.9376 13.8005 51.3858 13.9281 51.8056C13.8607 52.2524 13.8607 52.7069 13.9281 53.1537C13.7891 53.6077 13.7891 54.0929 13.9281 54.5469C14.0034 55.0214 13.9281 55.5034 13.9281 56.0004C13.9281 56.4975 13.9808 56.987 13.9281 57.5066C14.0336 58.0158 14.0336 58.5413 13.9281 59.0505C13.962 59.5796 13.962 60.1104 13.9281 60.6395C14.0034 61.1743 13.9281 61.7165 13.9281 62.2663C13.9343 62.5437 13.9141 62.8211 13.8679 63.0947C13.8679 63.2076 13.8678 63.4336 13.8076 63.6294C13.7776 63.8296 13.7374 64.0282 13.6871 64.2243C13.5956 64.4115 13.4734 64.5821 13.3256 64.7289C13.1748 64.8775 13.0021 65.0019 12.8135 65.0979C12.6246 65.189 12.4246 65.2548 12.2185 65.2937H12.0604H11.9022H11.6688C11.0948 65.2486 10.5182 65.2486 9.94418 65.2937L9.72577 65.226H9.61281H9.46218C9.25713 65.1945 9.05545 65.144 8.8597 65.0753C8.66332 65.0054 8.47616 64.9118 8.30239 64.7967C8.1216 64.6778 7.96136 64.5302 7.82793 64.3599C7.6933 64.1847 7.5936 63.9853 7.53423 63.7725C7.50089 63.6671 7.47819 63.5586 7.46645 63.4486C7.45947 63.3483 7.45947 63.2477 7.46645 63.1474C7.46645 62.8537 7.46645 62.5675 7.46645 62.2738C7.46645 61.6939 7.46645 61.114 7.46645 60.5417C7.46645 59.9693 7.55683 59.4045 7.46645 58.8472C7.37608 58.2899 7.56436 57.7326 7.46645 57.1828C7.37988 56.6415 7.37988 56.0899 7.46645 55.5486C7.56032 55.023 7.56032 54.485 7.46645 53.9595C7.42127 53.4399 7.18027 52.9278 7.46645 52.4533C7.39114 51.9487 7.60954 51.4441 7.46645 50.9471C7.69239 50.4576 7.46645 49.9756 7.46645 49.4936C7.53414 49.0316 7.53414 48.5623 7.46645 48.1003C7.43244 47.6516 7.43244 47.201 7.46645 46.7523C7.33843 46.3155 7.63214 45.8862 7.46645 45.472C7.46645 45.0503 7.46645 44.6436 7.46645 44.2444C7.16521 43.8453 7.46645 43.4913 7.46645 43.0847C7.46645 42.678 7.27065 42.3316 7.46645 41.9927C7.369 41.8381 7.33652 41.6514 7.37609 41.473C7.39174 41.3867 7.41184 41.3012 7.43632 41.217L7.47399 41.0889V41.0965C7.49661 40.9215 7.49661 40.7443 7.47399 40.5693C7.47399 40.3885 7.47399 40.1927 7.47399 40.0195C7.62094 40.0231 7.76721 40.0407 7.91078 40.0722C8.13004 40.0112 8.36178 40.0112 8.58104 40.0722C8.6674 40.0845 8.75294 40.1021 8.83711 40.125C8.90659 40.14 8.9785 40.14 9.04798 40.125C9.30852 40.1744 9.57468 40.187 9.83873 40.1626C10.0772 40.1254 10.3209 40.1382 10.5542 40.2003H11.1793C12.0734 40.0621 12.9881 40.1528 13.8377 40.4639Z" fill="#5D270D"/>
<path d="M62.8494 40.4666C62.2652 40.6497 61.6538 40.7312 61.042 40.7076H60.4169C60.1663 40.7293 59.9144 40.7293 59.6638 40.7076C59.4153 40.5946 59.1517 40.911 58.9107 40.7453H58.6998H58.5115C58.4327 40.7546 58.3547 40.7697 58.2781 40.7905C58.2332 40.7985 58.1873 40.7985 58.1425 40.7905V40.9561C58.1432 41.0239 58.1586 41.0907 58.1877 41.152C58.1936 41.1664 58.1936 41.1826 58.1877 41.1971C58.1952 41.237 58.1952 41.2778 58.1877 41.3176C58.1757 41.4047 58.1555 41.4904 58.1275 41.5737C58.0811 41.6524 58.0567 41.7421 58.0567 41.8335C58.0567 41.9249 58.0811 42.0146 58.1275 42.0933C58.1654 42.4589 58.1654 42.8273 58.1275 43.1929C57.9618 43.5619 58.1275 43.946 58.1275 44.3527C58.0424 44.5448 57.9984 44.7526 57.9984 44.9627C57.9984 45.1728 58.0424 45.3806 58.1275 45.5727C58.0002 45.7633 57.9323 45.9874 57.9323 46.2166C57.9323 46.4458 58.0002 46.6699 58.1275 46.8605C58.0787 47.306 58.0787 47.7555 58.1275 48.201C58.1652 48.6672 58.1652 49.1356 58.1275 49.6018C58.2934 50.0721 58.2934 50.585 58.1275 51.0553C58.2723 51.5469 58.2723 52.0699 58.1275 52.5615C58.0145 53.0661 58.3007 53.5857 58.1275 54.0677C58.1275 54.5874 58.1727 55.1221 58.1275 55.6568C57.9957 56.191 57.9957 56.7492 58.1275 57.2835C58.2028 57.8357 58.2028 58.3956 58.1275 58.9478C58.2857 59.5041 58.2857 60.0935 58.1275 60.6499C58.0861 61.2265 58.0861 61.8053 58.1275 62.382C58.1125 62.673 58.1125 62.9646 58.1275 63.2556C58.1275 63.346 58.1275 63.361 58.1275 63.4062V63.5116C58.1275 63.5794 58.1651 63.6547 58.1877 63.7301C58.2185 63.8069 58.2618 63.8781 58.3158 63.9409C58.375 64.0017 58.4436 64.0526 58.5191 64.0915C58.5974 64.1252 58.6824 64.1406 58.7676 64.1367H58.8279H58.9408L59.1592 64.0991C59.736 64.0614 60.3146 64.0614 60.8914 64.0991H60.9968H61.0872H61.2077C61.2886 64.0841 61.3641 64.0477 61.4261 63.9936C61.4888 63.9436 61.5445 63.8853 61.5918 63.8204C61.6369 63.7602 61.6746 63.6999 61.7273 63.6397C61.78 63.5794 61.7875 63.5041 61.8101 63.4363C61.8394 63.3437 61.8547 63.2473 61.8553 63.1502C61.8893 62.8751 61.8893 62.5968 61.8553 62.3217C61.7988 61.7785 61.7988 61.2308 61.8553 60.6875C61.5541 60.1528 61.9306 59.6256 61.8553 59.0984C61.9042 58.585 61.9042 58.0681 61.8553 57.5546C61.8894 57.0531 61.8894 56.5499 61.8553 56.0484C61.8101 55.5649 61.8101 55.0783 61.8553 54.5949C61.7047 54.1204 61.9834 53.6535 61.8553 53.2016C61.7273 52.7498 61.8553 52.2979 61.8553 51.8536C62.0888 51.4168 61.8553 50.9875 61.8553 50.5733C61.7874 50.1669 61.7874 49.7521 61.8553 49.3457C61.9152 48.9615 61.9152 48.5702 61.8553 48.186C61.8553 47.8094 62.1942 47.4329 61.8553 47.094C61.8026 46.74 62.0963 46.4011 61.8553 46.0697C61.6143 45.7384 61.8553 45.4221 61.8553 45.1208C61.8553 44.8196 61.8554 44.5259 61.893 44.2472C61.9909 41.7394 62.1114 40.3009 62.2319 40.3009C62.3524 40.3009 62.503 42.0783 62.6084 45.1208C62.6084 45.4221 62.7892 45.7384 62.6461 46.0697C62.6878 46.4099 62.6878 46.7538 62.6461 47.094C62.857 47.4479 62.6838 47.8094 62.6461 48.186C62.6125 48.5718 62.6125 48.9599 62.6461 49.3457C62.7741 49.7449 62.5859 50.1516 62.6461 50.5733C62.5182 50.9905 62.5182 51.4364 62.6461 51.8536C62.5787 52.3004 62.5787 52.7548 62.6461 53.2016C62.5071 53.6557 62.5071 54.1409 62.6461 54.5949C62.7214 55.0769 62.6461 55.5589 62.6461 56.0484C62.6461 56.5379 62.6988 57.0425 62.6461 57.5546C62.7478 58.0642 62.7478 58.5888 62.6461 59.0984C62.68 59.6276 62.68 60.1584 62.6461 60.6875C62.6763 61.2318 62.6763 61.7774 62.6461 62.3217C62.652 62.5992 62.6319 62.8765 62.5859 63.1502C62.5859 63.2631 62.5858 63.4891 62.5256 63.6773C62.4654 63.8656 62.4503 64.0689 62.4051 64.2798C62.309 64.4661 62.1845 64.6363 62.0361 64.7844C61.883 64.9281 61.7106 65.0498 61.524 65.1459C61.336 65.2391 61.1356 65.305 60.929 65.3417H60.7784H60.6203H60.3868C59.8103 65.2965 59.2311 65.2965 58.6546 65.3417L58.4362 65.2739H58.3233H58.1727C57.9701 65.2424 57.7709 65.192 57.5777 65.1233C57.3783 65.055 57.1884 64.9613 57.0129 64.8446C56.8338 64.7235 56.6739 64.5763 56.5384 64.4078C56.4038 64.2327 56.3041 64.0332 56.2447 63.8204C56.2447 63.715 56.1995 63.602 56.1769 63.4891C56.1543 63.3761 56.1769 63.2556 56.1769 63.1953C56.1769 62.9016 56.1769 62.6079 56.1769 62.3217C56.1769 61.7418 56.1769 61.162 56.1769 60.5896C56.1769 60.0172 56.2748 59.4524 56.1769 58.8876C56.079 58.3228 56.2748 57.773 56.1769 57.2232C56.0941 56.6842 56.0941 56.1356 56.1769 55.5965C56.2708 55.071 56.2708 54.533 56.1769 54.0075C56.1769 53.4878 55.8907 52.9682 56.1769 52.5012C56.1016 51.9891 56.3275 51.4921 56.1769 50.995C56.4029 50.498 56.1769 50.016 56.1769 49.5415C56.2483 49.0774 56.2483 48.605 56.1769 48.1408C56.1392 47.6947 56.1392 47.2463 56.1769 46.8002C56.0489 46.3634 56.3426 45.9342 56.1769 45.5124C56.1769 45.0982 56.1769 44.684 56.1769 44.2924C55.8832 43.8933 56.1769 43.5016 56.1769 43.1326C56.1769 42.7636 55.9811 42.3795 56.1769 42.0331C56.0826 41.8774 56.0478 41.6928 56.079 41.5134C56.0955 41.4266 56.1181 41.341 56.1468 41.2574C56.1468 41.2574 56.1468 41.1745 56.1468 41.1369C56.1468 41.0992 56.1468 41.0842 56.1468 41.054V40.9561C56.1619 40.7807 56.1619 40.6044 56.1468 40.429C56.1468 40.2482 56.1468 40.0599 56.1468 39.8867C56.2965 39.8861 56.4457 39.9038 56.5911 39.9395C56.8104 39.8784 57.0421 39.8784 57.2614 39.9395C57.3476 39.9525 57.4331 39.9701 57.5175 39.9922C57.587 40.0072 57.6588 40.0072 57.7283 39.9922C57.9766 40.0381 58.2298 40.0508 58.4814 40.0298C58.7322 39.9872 58.9893 40 59.2345 40.0675H59.8596C60.8739 39.9113 61.9117 40.0498 62.8494 40.4666Z" fill="#5D270D"/>
<path d="M30.6541 28.0635C30.737 28.0635 30.7822 28.2895 30.7972 28.6811C30.7936 28.7513 30.7936 28.8217 30.7972 28.892C30.8123 28.9716 30.8123 29.0533 30.7972 29.133C30.6767 29.1932 30.978 29.3363 30.7972 29.3965C30.7768 29.4415 30.7663 29.4903 30.7663 29.5396C30.7663 29.589 30.7768 29.6378 30.7972 29.6827C30.7972 29.7882 30.6918 29.8785 30.7972 29.999C30.993 30.1421 30.5336 30.1798 30.7972 30.3379C30.8122 30.3972 30.8122 30.4593 30.7972 30.5187C30.8022 30.5461 30.8022 30.5741 30.7972 30.6015V30.6392C30.7069 30.6392 30.6993 30.7069 30.7219 30.7295C30.7445 30.7521 30.7897 30.7672 30.7972 30.7823C30.8048 30.7973 30.6541 30.9178 30.6617 30.9404C30.6692 30.963 30.7295 30.9404 30.8048 30.9404L30.7445 31.0007C30.5487 31.2115 30.7445 31.1663 30.9554 30.9253C30.9554 30.9253 30.9554 30.9253 31.0157 30.9253C31.0759 30.9253 31.0759 30.9253 31.0985 30.8726H31.1587H31.2717C31.3484 30.8538 31.4285 30.8538 31.5051 30.8726C31.5322 30.8338 31.5683 30.8021 31.6102 30.7802C31.6522 30.7582 31.6988 30.7468 31.7461 30.7468C31.7935 30.7468 31.8401 30.7582 31.8821 30.7802C31.924 30.8021 31.9601 30.8338 31.9871 30.8726C32.1453 30.6768 32.311 30.7521 32.4767 30.8726C32.6424 30.9931 32.8156 30.6994 32.9888 30.8726C33.1643 30.8612 33.3404 30.8612 33.5159 30.8726C33.6891 30.9555 33.8699 31.0458 34.0506 30.8726C34.1369 30.8333 34.2307 30.8129 34.3255 30.8129C34.4204 30.8129 34.5141 30.8333 34.6004 30.8726C34.7811 30.6618 34.9695 30.7521 35.1577 30.8726C35.346 30.835 35.5342 30.9856 35.7301 30.8726H35.9259C35.9259 30.8726 35.9259 30.8726 35.9711 30.8726C35.9979 30.9026 36.0315 30.9258 36.069 30.9404C36.069 30.9404 36.1141 30.9404 36.069 30.9028V30.8651C35.9937 30.7898 36.0087 30.8048 36.069 30.8124C36.1292 30.8124 36.1292 30.8199 36.069 30.8124C36.1669 30.8124 36.1443 30.8124 36.1141 30.7597C36.084 30.7069 36.1141 30.7597 36.1141 30.7145C36.1117 30.692 36.1117 30.6692 36.1141 30.6467C36.0992 30.6027 36.0992 30.5551 36.1141 30.5111C36.0614 30.3304 36.1669 30.1271 36.0313 29.9689C35.9498 29.8032 35.9259 29.615 35.9635 29.4342C35.7978 29.3664 35.8054 29.276 35.8355 29.1857C35.8601 29.14 35.8803 29.0921 35.8958 29.0426C35.8958 29.0049 35.8958 28.9371 35.8958 28.9447C35.8958 28.9522 35.9485 28.8844 35.8958 28.8769C35.843 28.8694 35.8506 28.8769 35.8958 28.8392C35.8958 28.8392 35.8958 28.8392 35.8958 28.7865C35.8958 28.7338 35.8957 28.7865 35.828 28.7865C35.7602 28.7865 35.828 28.7865 35.7677 28.7865H35.7075C35.6637 28.7788 35.6223 28.7607 35.587 28.7338C35.4288 28.8844 35.2782 28.6133 35.1276 28.7338C34.9799 28.749 34.831 28.749 34.6833 28.7338C34.5402 28.5003 34.3971 28.6886 34.2615 28.7338C34.126 28.779 33.9904 28.8694 33.8548 28.7338C33.7268 28.7338 33.5988 28.6133 33.4783 28.7338C33.3578 28.8543 33.2298 28.3949 33.1168 28.7338C32.9963 28.7865 32.8833 28.4928 32.7779 28.7338C32.6725 28.9748 32.567 28.7338 32.4616 28.6962H32.1754C31.347 28.5982 30.8801 28.4778 30.8801 28.3497C30.8801 28.2217 31.46 28.0786 32.4616 27.9732C32.567 27.9732 32.6649 27.8 32.7779 27.9732C32.8833 27.9732 32.9963 27.8451 33.1168 27.9732C33.2298 27.7548 33.3502 27.9355 33.4783 27.9732C33.6063 28.0108 33.7268 28.0334 33.8548 27.9732C33.9829 27.9129 34.126 28.0334 34.2615 27.9732C34.3971 28.1087 34.5402 28.0711 34.6833 27.9732C34.8264 28.1012 34.977 27.9732 35.1276 27.9732C35.2782 28.169 35.4288 28.0334 35.587 27.9732C35.6268 27.966 35.6676 27.966 35.7075 27.9732C35.7075 27.9732 35.7075 27.9732 35.7677 27.9732H35.8657C36.0083 27.9883 36.1522 27.9883 36.2949 27.9732C36.528 27.9913 36.7622 27.9913 36.9953 27.9732C36.9994 28.0434 36.9994 28.1138 36.9953 28.184C37.1486 28.4615 37.2042 28.7824 37.1534 29.0953C37.1745 29.1468 37.1922 29.1996 37.2062 29.2535C37.2139 29.2958 37.2139 29.3392 37.2062 29.3815C37.2062 29.4643 37.2062 29.5547 37.2062 29.6451C37.2062 29.7354 37.2513 29.999 37.2965 30.1722C37.3417 30.3455 37.1459 30.5639 37.3944 30.7145C37.4016 30.7594 37.4016 30.8051 37.3944 30.85V31.0082C37.4069 31.184 37.4371 31.3581 37.4848 31.5278C37.4971 31.8872 37.5527 32.2437 37.6505 32.5897L37.6128 32.6274C37.4421 32.5642 37.2586 32.5435 37.0781 32.5671C36.938 32.5934 36.7996 32.6286 36.6639 32.6725C36.4835 32.6878 36.3021 32.6878 36.1217 32.6725H35.7979H35.6548C35.4644 32.6914 35.2727 32.6914 35.0824 32.6725C34.8941 32.7403 34.7059 32.5822 34.5251 32.6725C34.3444 32.7629 34.1561 32.5671 33.9754 32.6725C33.8928 32.7155 33.801 32.7379 33.708 32.7379C33.6149 32.7379 33.5232 32.7155 33.4406 32.6725C33.2599 32.6725 33.0867 32.4767 32.9134 32.6725C32.7402 32.7177 32.5746 32.9663 32.4013 32.6725C32.2357 32.7554 32.07 32.5295 31.9119 32.6725C31.7462 32.4541 31.588 32.6725 31.4299 32.6725C31.3534 32.6455 31.2755 32.6229 31.1964 32.6048C31.0988 32.5988 31.0012 32.6142 30.9102 32.65C30.7823 32.6872 30.6465 32.6872 30.5186 32.65C30.3989 32.6307 30.2768 32.6307 30.1571 32.65C30.1055 32.6752 30.0488 32.6884 29.9914 32.6884C29.934 32.6884 29.8773 32.6752 29.8257 32.65C29.7814 32.6275 29.7324 32.6157 29.6826 32.6157C29.6329 32.6157 29.5839 32.6275 29.5396 32.65C29.6073 32.3939 29.5923 32.2056 29.6751 31.9646C29.532 31.927 29.5471 31.7914 29.6074 31.6709C29.6786 31.5667 29.744 31.4586 29.8031 31.3471C29.8144 31.2975 29.8144 31.246 29.8031 31.1965C29.8074 31.1615 29.8074 31.126 29.8031 31.091C29.8031 31.0308 29.8031 30.9705 29.9086 30.9329C29.7052 30.7823 29.9086 30.6994 29.9914 30.6015C30.0742 30.5036 29.9312 30.3756 30.0743 30.3003C29.9312 30.1722 30.1872 30.1195 30.1496 30.0216C30.2701 29.9463 30.1495 29.8409 30.2249 29.7656C30.2121 29.7248 30.2125 29.681 30.226 29.6404C30.2395 29.5999 30.2655 29.5646 30.3002 29.5396L30.3679 29.3438C30.4583 28.2443 30.5713 28.0485 30.6541 28.0635Z" fill="#5D270D"/>
<path d="M20.7809 7.42712C20.7254 7.46744 20.6607 7.49332 20.5926 7.50244C20.4298 7.56378 20.2849 7.66472 20.1709 7.79615C20.1709 7.8338 20.1031 7.88653 20.0655 7.93171C20.0372 7.99058 20.012 8.05091 19.9902 8.11245V8.21036V8.25554V8.30827C19.9902 8.30827 19.9902 8.38357 19.9902 8.42123C19.9902 8.45888 19.9902 8.50407 19.9902 8.54925C19.9902 8.91828 19.9902 9.34002 20.0504 9.81448C20.0504 10.1308 20.0504 10.4772 20.0504 10.8387C20.0504 11.2002 20.0956 11.5918 20.0504 12.006C20.0052 12.4202 20.2538 12.8495 20.0504 13.3013C20.0057 13.7748 20.0057 14.2513 20.0504 14.7247C20.0207 15.2414 20.0207 15.7594 20.0504 16.2761C20.2688 16.8108 19.817 17.3681 20.0504 17.948C20.0884 18.5424 20.0884 19.1385 20.0504 19.7329C19.9528 20.3592 19.9528 20.9968 20.0504 21.6232C19.8811 22.2802 19.8811 22.9694 20.0504 23.6264C19.7911 24.3002 19.7911 25.0463 20.0504 25.7201C20.0504 26.0816 20.0504 26.4732 20.0504 26.8045V27.0154C20.0504 27.0154 20.0504 27.0681 20.0504 27.0757C20.0426 27.118 20.0426 27.1614 20.0504 27.2037C20.0639 27.2461 20.0871 27.2848 20.1182 27.3166C20.1182 27.3166 20.1558 27.3166 20.1709 27.3618C20.2319 27.4139 20.3091 27.4432 20.3893 27.4447H20.8713C21.2554 27.4447 21.6244 27.4447 22.0236 27.4447C22.8056 27.2788 23.6137 27.2788 24.3958 27.4447C25.2054 27.3015 26.0338 27.3015 26.8434 27.4447C27.6718 27.5576 28.5078 27.279 29.3663 27.4447C30.2173 27.4447 31.0834 27.3995 31.957 27.4447C32.8386 27.5726 33.7339 27.5726 34.6155 27.4447C35.5201 27.3693 36.4295 27.3693 37.3342 27.4447C38.2515 27.2902 39.1882 27.2902 40.1056 27.4447C41.0394 27.4447 41.9808 27.5576 42.9297 27.4447C43.8786 27.4447 44.8351 27.3543 45.7991 27.4447C45.8402 27.454 45.8828 27.4548 45.9243 27.447C45.9657 27.4393 46.0051 27.4231 46.0401 27.3995C46.0777 27.3732 46.1097 27.3397 46.1343 27.3009C46.1588 27.2621 46.1755 27.2188 46.1831 27.1735C46.1965 27.0786 46.1965 26.9823 46.1831 26.8874C46.1831 26.7669 46.1831 26.6464 46.1831 26.5334C46.1831 26.2924 46.1832 26.0514 46.1229 25.7803C45.9949 24.8314 46.1832 23.89 46.1229 22.9562C46.3187 22.0223 46.0551 21.096 46.1229 20.1847C46.1907 19.2735 46.2284 18.3622 46.1229 17.466C46.0627 16.5809 46.0627 15.6927 46.1229 14.8076C45.8217 13.934 46.1982 13.0679 46.1229 12.2169C46.2434 11.3583 46.1229 10.5224 46.1229 9.69398C46.0965 9.2827 46.0965 8.87016 46.1229 8.45889C46.1324 8.37013 46.114 8.28063 46.0702 8.20283C46.0445 8.16658 46.0107 8.13681 45.9715 8.1159C45.9323 8.09498 45.8887 8.08349 45.8443 8.08233H45.7916H45.4602H44.8652C44.473 8.09736 44.0802 8.08226 43.6904 8.03715C42.9373 8.18777 42.1842 7.90912 41.431 8.03715C40.6779 8.16518 39.9249 8.03715 39.2395 8.03715C38.5446 7.91313 37.8333 7.91313 37.1384 8.03715C36.4751 8.1089 35.8059 8.1089 35.1426 8.03715C34.5113 7.98086 33.8762 7.98086 33.2448 8.03715C32.6348 8.0748 32.0398 7.69825 31.4599 8.03715C30.8876 8.08987 30.3303 7.79615 29.7956 8.03715C29.2835 8.1392 28.7563 8.1392 28.2442 8.03715H26.8133C24.7724 7.99196 23.1683 7.93171 22.0687 7.87899C21.5033 7.89547 20.9383 7.83466 20.3893 7.69824C21.0653 7.54078 21.7591 7.47243 22.4528 7.49491C23.7934 7.43466 25.7589 7.37441 28.2442 7.32169C28.7582 7.24219 29.2815 7.24219 29.7956 7.32169C30.3484 7.26356 30.9051 7.25097 31.4599 7.28404C32.0495 7.17094 32.6552 7.17094 33.2448 7.28404C33.877 7.31768 34.5105 7.31768 35.1426 7.28404C35.7903 7.15601 36.4606 7.34429 37.1384 7.28404C37.8329 7.41182 38.545 7.41182 39.2395 7.28404C39.9685 7.35167 40.7021 7.35167 41.431 7.28404C42.178 7.42044 42.9434 7.42044 43.6904 7.28404C44.0817 7.26146 44.4739 7.26146 44.8652 7.28404H45.4602H45.784H46.025L46.266 7.35182C46.5663 7.47457 46.8269 7.67784 47.0191 7.93924C47.2014 8.21513 47.3055 8.53524 47.3203 8.86556C47.3203 9.27223 47.3203 9.68644 47.3203 10.1006C47.4259 10.9383 47.4259 11.7859 47.3203 12.6236C47.3881 13.4746 47.3203 14.3406 47.3203 15.2142C47.3203 16.0878 47.3203 16.9765 47.3203 17.8727C47.23 18.7767 47.23 19.6874 47.3203 20.5914C47.3203 21.5027 47.2827 22.429 47.3203 23.3628C47.358 24.2967 47.2676 25.2381 47.3203 26.187C47.2641 26.4346 47.2288 26.6865 47.2149 26.9401C47.2149 27.0531 47.2149 27.1736 47.2149 27.294C47.2257 27.4369 47.2257 27.5804 47.2149 27.7233C47.1747 28.1072 47.0047 28.4659 46.7329 28.74C46.4441 29.0256 46.0615 29.1969 45.656 29.222C44.7002 29.271 43.7425 29.271 42.7867 29.222C41.8378 29.222 40.8964 29.222 39.9625 29.222C39.0287 29.222 38.1023 29.1316 37.1911 29.222C36.2798 29.3124 35.3686 29.1241 34.4724 29.222C33.5881 29.3049 32.6981 29.3049 31.8139 29.222C30.9529 29.1279 30.0842 29.1279 29.2232 29.222C28.3908 29.3916 27.5327 29.3916 26.7003 29.222C25.8719 29.2973 25.051 29.0789 24.2527 29.222C23.4657 29.1129 22.6675 29.1129 21.8805 29.222C21.4964 29.222 21.1273 29.1693 20.7282 29.1617H20.7357H20.5173C20.2276 29.125 19.9525 29.0134 19.7191 28.8379L19.6287 28.7701L19.5533 28.6948C19.5006 28.6346 19.4479 28.5819 19.4027 28.5216C19.2432 28.2217 19.1826 27.879 19.2295 27.5426C19.1848 27.3987 19.162 27.2489 19.1617 27.0982V26.9552V26.8121C19.1805 26.4508 19.1805 26.0888 19.1617 25.7276C19.0337 24.9745 19.3199 24.3118 19.1617 23.634C19.1617 22.9486 19.1617 22.2784 19.1617 21.6307C18.8605 20.983 19.1617 20.3504 19.1617 19.7404C19.1617 19.1304 18.9584 18.5279 19.1617 17.9555C19.0181 17.4075 19.0181 16.8317 19.1617 16.2836C19.1275 15.7671 19.1275 15.2488 19.1617 14.7323C19.0036 14.2352 19.2446 13.7607 19.1617 13.3089C19.1987 12.8779 19.1987 12.4445 19.1617 12.0135C19.1159 11.6258 19.1159 11.234 19.1617 10.8462C19.1617 10.4847 19.1617 10.1383 19.1617 9.822C19.1617 9.34755 19.1994 8.9258 19.222 8.55678C19.2184 8.51166 19.2184 8.46634 19.222 8.42123V8.27061C19.2185 8.24815 19.2185 8.22529 19.222 8.20283V8.12752L19.2672 7.99949C19.3123 7.92418 19.3575 7.84887 19.4027 7.78862C19.4516 7.72986 19.5045 7.6745 19.5609 7.62294C19.7223 7.48672 19.9226 7.40501 20.1333 7.38948C20.7357 7.38948 20.7809 7.40453 20.7809 7.42712Z" fill="#98772E"/>
<path d="M27.9731 31.4297C28.0559 31.4297 28.1388 31.7083 28.2141 32.2205C28.2104 32.2656 28.2104 32.3109 28.2141 32.356C28.2173 32.3911 28.2173 32.4264 28.2141 32.4614C28.2326 32.5203 28.2326 32.5834 28.2141 32.6422C28.1614 32.71 28.2141 32.725 28.2517 32.7175C28.2894 32.71 28.3346 32.7175 28.2517 32.8305C28.2517 32.8757 28.4024 32.8305 28.4852 32.7928C28.5194 32.7813 28.5564 32.7813 28.5907 32.7928C28.6079 32.8062 28.6291 32.8135 28.6509 32.8135C28.6727 32.8135 28.694 32.8062 28.7112 32.7928C28.8618 32.5819 29.0049 33.0338 29.163 32.7928C29.3215 32.755 29.4866 32.755 29.645 32.7928C29.8107 32.9585 29.9764 32.7928 30.1496 32.7928C30.3303 32.9886 30.5035 32.8982 30.6918 32.7928C30.8725 33.0639 31.0608 33.0263 31.2566 32.7928C31.4449 32.7928 31.6407 32.8907 31.8441 32.7928C32.0463 32.7626 32.2519 32.7626 32.4541 32.7928C32.5407 32.7113 32.6552 32.6658 32.7741 32.6658C32.8931 32.6658 33.0076 32.7113 33.0942 32.7928C33.3051 32.597 33.5311 32.6723 33.7495 32.7928C33.9679 32.9133 34.2013 32.6196 34.4272 32.7928C34.6607 32.7928 34.8941 32.7476 35.1276 32.7928C35.2375 32.8521 35.3605 32.8832 35.4854 32.8832C35.6102 32.8832 35.7332 32.8521 35.8431 32.7928C36.087 32.7085 36.3522 32.7085 36.5962 32.7928C36.8372 32.5895 37.0857 32.6798 37.3493 32.7928C37.4741 32.7742 37.601 32.7742 37.7258 32.7928C37.7881 32.8039 37.8518 32.8039 37.9141 32.7928H38.012H38.0948C38.0948 32.7928 38.0948 32.7928 38.14 32.7928C38.1852 32.7928 38.14 32.7928 38.2078 32.7928C38.2078 32.7928 38.268 32.7928 38.2756 32.7928C38.2831 32.7928 38.2756 32.725 38.2078 32.7024C38.1799 32.6515 38.1645 32.5948 38.1626 32.5368C38.1626 32.5368 38.2229 32.4765 38.1626 32.4765C38.1932 32.4471 38.2163 32.411 38.2304 32.3711C38.2304 32.3711 38.1626 32.3711 38.1325 32.4238C38.1024 32.4765 38.0873 32.4238 38.0798 32.4238H38.0045H37.9141C37.7959 32.3903 37.6708 32.3903 37.5526 32.4238C37.3056 32.4876 37.0465 32.4876 36.7995 32.4238C36.5585 32.725 36.3326 32.3485 36.0991 32.4238C35.8732 32.2958 35.6473 32.4238 35.4213 32.4238C35.1954 32.4238 34.977 32.2807 34.7661 32.4238C34.5477 32.4238 34.3369 32.5217 34.126 32.4238C33.9227 32.5669 33.7118 32.2958 33.5159 32.4238C33.3179 32.439 33.119 32.439 32.921 32.4238C32.7327 32.1903 32.5445 32.3861 32.3637 32.4238C32.183 32.4614 31.9947 32.5593 31.8215 32.4238C31.6482 32.4238 31.4826 32.2958 31.3094 32.4238C31.1361 32.5518 30.9855 32.0849 30.8349 32.4238C30.6767 32.4765 30.5337 32.1828 30.383 32.4238C30.2324 32.6648 30.1044 32.4238 29.9689 32.4238L29.5848 32.3861C28.4852 32.2882 27.8526 32.1677 27.8526 32.0472C27.8526 31.9267 28.6057 31.7761 29.9689 31.6707C30.1044 31.6707 30.24 31.4975 30.383 31.633C30.5337 31.633 30.6767 31.5125 30.8349 31.633C30.9855 31.4221 31.1512 31.5954 31.3094 31.633C31.4675 31.6707 31.6482 31.6857 31.8215 31.633C31.9947 31.5803 32.1754 31.6933 32.3637 31.633C32.4432 31.6953 32.5413 31.7292 32.6424 31.7292C32.7434 31.7292 32.8415 31.6953 32.921 31.633C33.1168 31.7686 33.3126 31.633 33.5159 31.633C33.7118 31.8364 33.9227 31.6933 34.126 31.633C34.3293 31.5728 34.5477 31.633 34.7661 31.633C34.9845 31.633 35.2029 31.5803 35.4213 31.633C35.5272 31.5828 35.643 31.5567 35.7602 31.5567C35.8775 31.5567 35.9932 31.5828 36.0991 31.633C36.3314 31.599 36.5673 31.599 36.7995 31.633C37.0497 31.6037 37.3024 31.6037 37.5526 31.633C37.676 31.6273 37.7992 31.6479 37.9141 31.6933C38.1073 31.7316 38.3076 31.7079 38.4865 31.6255C38.8329 31.6255 39.1642 31.6255 39.4956 31.6255C39.4956 31.746 39.4956 31.8665 39.4956 31.987C39.4956 32.2355 39.4956 32.469 39.4956 32.7024C39.4956 32.9359 39.4956 32.9359 39.4956 33.0564C39.4883 33.1265 39.4883 33.1972 39.4956 33.2673C39.3927 33.4747 39.3535 33.7079 39.3827 33.9375C39.3827 34.1635 39.4504 34.4346 39.4956 34.6906C39.2583 34.7194 39.0193 34.732 38.7802 34.7283L38.0271 34.6906H37.6355H37.2589C37.0028 34.7584 36.7543 34.6003 36.5058 34.6906C36.2573 34.781 36.0163 34.5852 35.7527 34.6906C35.5221 34.7773 35.2678 34.7773 35.0372 34.6906C34.8038 34.6906 34.5703 34.4948 34.3369 34.6906C34.1109 34.7358 33.885 34.9843 33.659 34.6906C33.4406 34.7659 33.2147 34.5475 33.0038 34.6906C32.7854 34.4722 32.5746 34.6906 32.3637 34.6906C32.1666 34.6193 31.9508 34.6193 31.7537 34.6906C31.5504 34.7961 31.3545 34.6304 31.1663 34.6906C30.978 34.7509 30.7822 34.525 30.6014 34.6906C30.4132 34.6906 30.24 34.6906 30.0592 34.6906C29.886 34.9919 29.7203 34.6906 29.5547 34.6906C29.389 34.6906 29.2308 34.8864 29.0727 34.6906C28.9145 34.9166 28.7714 34.6906 28.6208 34.6906C28.5169 34.6645 28.4083 34.6645 28.3045 34.6906C28.2555 34.7045 28.2042 34.7084 28.1537 34.7019C28.1033 34.6954 28.0546 34.6788 28.0107 34.653C27.9631 34.678 27.9102 34.6911 27.8564 34.6911C27.8026 34.6911 27.7496 34.678 27.702 34.653C27.6267 34.653 27.5815 34.5701 27.4761 34.5927C27.52 34.4988 27.5357 34.3942 27.5213 34.2915C27.5099 34.2166 27.5099 34.1404 27.5213 34.0656C27.473 33.9214 27.473 33.7654 27.5213 33.6212C27.5166 33.5586 27.5166 33.4956 27.5213 33.433C27.525 33.3878 27.525 33.3425 27.5213 33.2974C27.8074 31.7083 27.8903 31.4297 27.9731 31.4297Z" fill="#5D270D"/>
<path d="M33.4561 22.822C33.4323 22.9204 33.3799 23.0095 33.3055 23.0781L33.2603 23.1233C33.2603 23.1233 33.2603 23.1835 33.2603 23.176C33.2603 23.1684 33.2603 23.3718 33.2151 23.2287C33.17 23.0856 33.2151 23.2287 33.2151 23.2889C33.2151 23.3492 33.1398 23.2438 33.1775 23.3492C33.1775 23.3944 33.2152 23.4546 33.1775 23.3492C33.1775 23.304 33.0947 23.2889 33.1775 23.3944C33.2603 23.4998 33.1775 23.4546 33.1775 23.4621C33.0419 23.3718 33.1775 23.4998 33.1775 23.5299C32.9968 23.4396 33.057 23.5299 33.1775 23.5977C32.9139 23.4998 32.9365 23.5977 33.1775 23.6655C33.1775 23.6655 33.057 23.6655 33.1775 23.7333C33.298 23.801 33.2453 23.786 33.1775 23.801C33.3582 23.801 33.3582 23.801 33.1775 23.8613C33.3658 23.8613 33.298 23.8613 33.1775 23.9215C33.1022 23.9215 33.2302 23.9215 33.2227 23.9667C33.1978 23.9889 33.1796 24.0176 33.17 24.0496C33.17 24.0496 33.17 24.0496 33.2679 24.0044C33.3658 23.9592 33.3658 23.9366 33.3206 24.0044C33.4486 23.8312 33.3959 23.914 33.3808 24.0044C33.3808 24.0044 33.3808 24.1249 33.4335 24.0044C33.4335 24.0044 33.4863 23.914 33.5013 24.0044C33.5164 24.0948 33.5541 24.1174 33.5541 24.0044C33.5541 23.8914 33.5541 23.9441 33.5541 24.0044C33.5541 24.0496 33.5541 24.0646 33.5541 24.0044C33.5541 23.9592 33.6068 24.0646 33.6068 24.0044C33.6068 23.9441 33.6068 23.9215 33.6068 23.9517C33.6068 23.9818 33.7046 24.0119 33.6595 23.9517C33.6143 23.8914 33.6218 23.8688 33.7046 23.9517C33.5917 23.8538 33.6143 23.8613 33.6595 23.8764C33.7046 23.8914 33.7725 23.9291 33.7499 23.8764C33.7273 23.8236 33.8176 23.8764 33.8025 23.8764C33.8025 23.8764 33.8553 23.8764 33.8025 23.8387C33.7498 23.801 33.7122 23.801 33.8025 23.7785C33.7272 23.7785 33.7574 23.7785 33.8025 23.7785C33.8477 23.7785 33.8779 23.7785 33.8025 23.7785C33.7272 23.7785 33.8025 23.7785 33.8025 23.7182C33.8025 23.658 33.9155 23.6504 33.8929 23.6429H33.8025C33.8025 23.6429 33.667 23.6429 33.8025 23.5751C33.8025 23.5751 33.8628 23.4697 33.8025 23.5073C33.7423 23.545 33.8402 23.4471 33.8628 23.4019C33.8854 23.3567 33.8628 23.3341 33.78 23.4019C33.6971 23.4697 33.78 23.4019 33.78 23.3266C33.78 23.2513 33.78 23.2663 33.7348 23.3266C33.6896 23.3868 33.7348 23.2814 33.6971 23.2663V23.2061C33.6369 23.1308 33.5691 23.0479 33.5164 22.9952C33.4666 22.9409 33.435 22.8725 33.426 22.7994C33.426 22.7316 33.4712 22.6714 33.5842 22.6187L33.6896 22.581H33.8025C33.8527 22.5772 33.903 22.5772 33.9532 22.581H34.1113C34.1565 22.581 34.2921 22.4831 34.2469 22.6337C34.2469 22.6337 34.4126 22.6337 34.39 22.709C34.5858 22.5885 34.503 22.7618 34.5331 22.8145C34.5632 22.8672 34.5331 22.9425 34.6686 22.9425C34.8042 22.9425 34.6686 23.0856 34.7891 23.1082C34.7063 23.2212 34.7515 23.2663 34.887 23.2965C34.8418 23.3492 34.887 23.3793 34.887 23.4094C34.887 23.4396 34.9699 23.4697 34.9699 23.5149C34.7816 23.6203 34.9247 23.6655 34.9699 23.7483C35.0151 23.8312 34.9699 23.914 34.9699 24.0044C34.9699 24.0948 34.9699 24.1851 34.9699 24.2604C34.9909 24.3137 34.9909 24.3729 34.9699 24.4261C34.9614 24.4523 34.9454 24.4755 34.9241 24.4928C34.9027 24.5102 34.8767 24.521 34.8494 24.524C34.8494 24.637 34.7665 24.6972 34.7063 24.765C34.7057 24.792 34.6986 24.8185 34.6855 24.8422C34.6723 24.8658 34.6536 24.8858 34.631 24.9006C34.5901 24.9265 34.5523 24.9568 34.518 24.991C34.518 25.0361 34.4201 24.991 34.3674 25.0361C34.3147 25.0813 34.2695 25.0361 34.2845 25.1792C34.2996 25.3223 34.0963 25.2545 34.0134 25.3298C33.9053 25.3215 33.7979 25.3537 33.7122 25.4202C33.5691 25.2169 33.5013 25.36 33.3883 25.4202C33.3396 25.4459 33.2853 25.4594 33.2302 25.4594C33.1751 25.4594 33.1208 25.4459 33.0721 25.4202C32.9661 25.4133 32.8631 25.3824 32.7708 25.3298C32.7105 25.3298 32.6729 25.2922 32.6352 25.2545C32.5976 25.2169 32.5675 25.1717 32.4997 25.1792C32.4319 25.1868 32.4018 25.1416 32.3792 25.0889C32.3566 25.0361 32.334 24.991 32.2662 24.991C32.1984 24.991 32.0554 24.9081 32.078 24.765C32.0622 24.7135 32.0622 24.6584 32.078 24.6069C32.078 24.5542 32.078 24.5165 31.9575 24.5165C31.837 24.5165 31.8294 24.4788 31.7842 24.4412C31.739 24.4035 31.7391 24.3508 31.8671 24.2604C31.8219 24.2604 31.8671 24.1701 31.8671 24.1249C31.8671 24.0797 31.8671 24.0345 31.8671 23.9969C31.9725 23.9441 31.9725 23.9065 31.9424 23.8688C31.9123 23.8312 31.8596 23.786 31.8671 23.7483C31.8746 23.7107 31.9951 23.5977 31.9048 23.5073C31.8144 23.417 31.9048 23.4245 31.9048 23.3944C31.9048 23.3642 31.9725 23.3341 31.9725 23.2965C31.9725 23.2588 31.9725 23.2136 32.0177 23.1986C32.0629 23.1835 32.1231 23.1986 32.0704 23.1082C32.0177 23.0178 32.1232 22.9726 32.1909 22.9425C32.0855 22.8295 32.1081 22.7994 32.1909 22.7994C32.2738 22.7994 32.334 22.7994 32.3566 22.7994C32.3792 22.7994 32.3566 22.7316 32.3566 22.694C32.3566 22.6563 32.3566 22.6262 32.4771 22.694C32.3717 22.4831 32.5449 22.5961 32.6202 22.6187C32.6955 22.6413 32.6202 22.4831 32.7558 22.566C32.7558 22.4003 32.8763 22.6036 32.8913 22.566C32.9666 22.6413 32.9591 22.566 33.0043 22.566C33.0494 22.566 33.0721 22.5208 33.1172 22.566H33.2076C33.3808 22.6639 33.4561 22.7392 33.4561 22.822Z" fill="#5D270D"/>
<path d="M57.7215 40.5187C57.8044 40.5187 57.8872 40.9706 57.9625 41.8066C57.9625 41.9421 57.9625 42.0927 58.0077 42.2509C58.0235 42.4212 58.0235 42.5927 58.0077 42.763C57.8947 42.9438 58.211 43.132 58.0454 43.3278C57.9972 43.5334 57.9972 43.7473 58.0454 43.9529C58.083 44.1713 57.97 44.3972 58.0454 44.6307C58.2638 44.8642 57.8119 45.1127 58.0831 45.3838C58.1179 45.6336 58.1179 45.8871 58.0831 46.1369C58.0139 46.2634 57.9951 46.4113 58.0303 46.5511V46.6566V46.8222C58.0303 46.9277 58.0303 47.0482 58.0755 47.1687C57.9748 47.3686 57.938 47.5947 57.9701 47.8163C57.7852 47.8392 57.6034 47.8821 57.4278 47.9444C57.2984 47.8871 57.165 47.8393 57.0287 47.8013C56.9289 47.7859 56.8272 47.7859 56.7274 47.8013C56.5535 47.821 56.3902 47.8947 56.2605 48.0121C55.9442 47.9559 55.6204 47.9559 55.3041 48.0121C54.9711 48.0461 54.6355 48.0461 54.3024 48.0121C54.1421 48.0959 53.9638 48.1397 53.7828 48.1397C53.6018 48.1397 53.4236 48.0959 53.2632 48.0121C53.0942 48.0847 52.9123 48.1221 52.7284 48.1221C52.5446 48.1221 52.3627 48.0847 52.1938 48.0121C51.8323 47.9067 51.4406 48.1854 51.0867 48.0121C50.7177 48.0121 50.3336 48.0573 49.9495 48.0121C49.5742 47.8801 49.165 47.8801 48.7897 48.0121C48.397 48.0913 47.9925 48.0913 47.5998 48.0121C47.4065 48.0925 47.1992 48.1339 46.9898 48.1339C46.7804 48.1339 46.5731 48.0925 46.3798 48.0121C45.9691 47.9708 45.5553 47.9708 45.1447 48.0121H44.4518C44.0633 48.0426 43.673 48.0426 43.2845 48.0121H43.149C43.24 47.403 43.24 46.7837 43.149 46.1746C43.0134 45.7604 43.2017 45.3462 43.149 44.9395C43.3448 44.5328 43.0887 44.1261 43.149 43.727C43.1939 43.3316 43.1939 42.9324 43.149 42.5371C43.0883 42.1503 43.0883 41.7565 43.149 41.3698C43.1115 41.3285 43.0832 41.2797 43.0661 41.2267V41.1815C43.0622 41.1339 43.0622 41.086 43.0661 41.0384C43.0587 40.9482 43.0587 40.8575 43.0661 40.7673C43.069 40.6803 43.0922 40.5952 43.1339 40.5187C43.2048 40.372 43.3018 40.2393 43.4201 40.1271L43.5858 39.9765L43.631 39.9313H43.7364C43.9096 39.9313 44.0602 39.9313 44.2108 39.9313H44.4367H44.8359C45.0189 39.9163 45.2027 39.9163 45.3857 39.9313C45.7471 39.8786 46.1388 40.0744 46.4551 39.9313C46.8003 39.8898 47.1492 39.8898 47.4944 39.9313C47.8333 39.7807 48.1646 40.0594 48.496 39.9313C48.8274 39.8033 49.1437 39.9313 49.4524 39.9313C49.7688 40.1648 50.07 39.9765 50.3712 39.9313C50.6725 39.8861 50.9662 39.8033 51.2448 39.9313C51.5185 39.9836 51.7996 39.9836 52.0732 39.9313C52.3444 39.9313 52.6079 40.2702 52.8263 39.9313C53.0824 39.8786 53.3234 40.1723 53.5794 39.9313C53.8355 39.6903 54.0464 39.9313 54.2573 39.9313H54.8824C56.6747 40.0368 57.699 40.1573 57.699 40.2853C57.699 40.4133 56.4337 40.5489 54.2573 40.6543C54.0389 40.6543 53.8129 40.8275 53.5794 40.6543C53.346 40.6543 53.0975 40.7748 52.8263 40.6543C52.5703 40.8727 52.3142 40.6995 52.0732 40.6543C51.7984 40.6169 51.5197 40.6169 51.2448 40.6543C50.9587 40.7823 50.6649 40.5941 50.3712 40.6543C50.2258 40.593 50.0696 40.5614 49.9118 40.5614C49.754 40.5614 49.5978 40.593 49.4524 40.6543C49.1361 40.5263 48.8198 40.6543 48.4884 40.6543C48.1646 40.451 47.8257 40.5941 47.4869 40.6543C47.148 40.7146 46.8015 40.6543 46.4551 40.6543C46.1087 40.6543 45.7471 40.707 45.3781 40.6543C45.199 40.7045 45.0143 40.7323 44.8284 40.7372H44.7305C44.7124 40.7151 44.6923 40.6949 44.6702 40.6769C44.6702 40.6769 44.6702 40.7146 44.6702 40.7221C44.6702 40.7296 44.6702 40.7221 44.6702 40.7597V40.9631C44.6966 41.3517 44.6966 41.7417 44.6702 42.1304C44.7154 42.522 44.4594 42.9212 44.6702 43.3203C44.6702 43.7194 44.6702 44.1261 44.6702 44.5328C44.625 44.9433 44.625 45.3574 44.6702 45.7679C44.4669 46.2725 44.5723 46.2875 44.6702 46.2725H44.7455H44.9941H45.3028C45.717 46.2725 46.1313 46.2725 46.5379 46.2725C46.9446 46.2725 47.3588 46.3704 47.758 46.2725C48.1571 46.1746 48.5563 46.3704 48.9479 46.2725C49.3296 46.1859 49.7259 46.1859 50.1076 46.2725C50.4917 46.2725 50.8608 46.4683 51.2448 46.2725C51.6214 46.2348 51.9979 45.9863 52.3519 46.2725C52.7134 46.1972 53.105 46.4231 53.4213 46.2725C53.7753 46.4909 54.1217 46.2725 54.4606 46.2725C54.7907 46.344 55.1322 46.344 55.4622 46.2725C55.786 46.167 56.1099 46.3327 56.4187 46.2725C56.5698 46.2197 56.7344 46.2197 56.8856 46.2725C56.9293 46.2844 56.9721 46.2995 57.0136 46.3177C57.0205 46.3199 57.0279 46.3208 57.0351 46.3201C57.0424 46.3194 57.0494 46.3172 57.0558 46.3137C57.0621 46.3102 57.0677 46.3053 57.0721 46.2995C57.0765 46.2937 57.0797 46.2871 57.0814 46.28C57.1263 46.2872 57.1721 46.2872 57.217 46.28C57.2048 46.2331 57.2048 46.1838 57.217 46.1369L57.0889 46.039V45.9336C57.1476 45.8029 57.193 45.6666 57.2245 45.5269C57.2622 45.2558 57.0212 44.9997 57.2245 44.7738C56.9986 44.5253 57.2245 44.2768 57.2245 44.0207C57.2245 43.7646 57.1266 43.5613 57.2245 43.3429C57.0663 43.1245 57.3149 42.9136 57.2245 42.7178C57.3299 42.5145 57.2245 42.3262 57.2245 42.1455C57.179 41.9803 57.179 41.806 57.2245 41.6409C57.2245 41.4827 57.2245 41.3321 57.2245 41.189C57.5559 40.9706 57.6387 40.5187 57.7215 40.5187Z" fill="#5D270D"/>
<path d="M50.9505 42.108C50.9505 42.1909 50.8601 42.2662 50.7246 42.3641L50.6568 42.4168C50.6568 42.4168 50.6191 42.477 50.589 42.477C50.5589 42.477 50.589 42.6879 50.5137 42.5448C50.4685 42.5448 50.4534 42.5448 50.4459 42.6201C50.4384 42.6954 50.3404 42.6201 50.3706 42.703C50.4007 42.7858 50.3706 42.7632 50.3254 42.703C50.2802 42.6427 50.235 42.6503 50.3254 42.7632C50.3288 42.7736 50.3299 42.7846 50.3286 42.7955C50.3274 42.8064 50.3237 42.8168 50.318 42.8261C50.3123 42.8355 50.3045 42.8434 50.2954 42.8495C50.2863 42.8555 50.276 42.8595 50.2652 42.8611C50.1145 42.7858 50.2125 42.9289 50.22 42.9741C50.0317 42.8988 50.0694 42.9741 50.22 43.0871C49.9564 43.0042 49.9715 43.0871 50.22 43.2076C50.22 43.2076 50.0995 43.2678 50.22 43.3281C50.3405 43.3883 50.2802 43.4184 50.22 43.4561C50.4083 43.5013 50.3932 43.5163 50.22 43.5841C50.4158 43.5841 50.348 43.6293 50.2652 43.7046C50.1823 43.7799 50.2652 43.7498 50.3104 43.7498C50.3555 43.7498 50.3857 43.7498 50.3104 43.81C50.235 43.8703 50.3857 43.8628 50.3932 43.9155C50.3821 43.9523 50.3821 43.9916 50.3932 44.0284C50.3932 44.0284 50.4384 44.0284 50.5137 44.0284C50.589 44.0284 50.6492 43.9908 50.6266 44.1038C50.7697 43.9531 50.7471 44.036 50.7471 44.1565C50.7471 44.1565 50.7848 44.1565 50.7998 44.2092C50.8149 44.2619 50.8451 44.2468 50.8752 44.2092C50.9053 44.1715 50.9203 44.2092 50.9429 44.2092C50.9655 44.2092 50.9881 44.2092 51.0107 44.2092C51.0319 44.2337 51.0574 44.2542 51.086 44.2694C51.086 44.2694 51.1388 44.2694 51.1463 44.1941C51.1538 44.1188 51.1463 44.1339 51.2066 44.1489C51.2668 44.164 51.2668 44.1866 51.2818 44.1489C51.3346 44.2318 51.3571 44.2017 51.3647 44.1489C51.3722 44.0962 51.3647 44.0586 51.3647 44.0812C51.3647 44.1038 51.5078 44.1188 51.4701 44.0058C51.4325 43.8929 51.4701 43.9531 51.4701 43.9305C51.4701 43.9079 51.5078 43.9305 51.553 43.9305C51.4475 43.8251 51.4701 43.8251 51.553 43.8326C51.6358 43.8402 51.681 43.8326 51.6659 43.8326C51.6509 43.8326 51.7337 43.8326 51.7262 43.7875C51.7187 43.7423 51.7262 43.7347 51.7262 43.7197C51.7262 43.7046 51.7262 43.682 51.7714 43.6594C51.8166 43.6368 51.8241 43.6594 51.7714 43.5992C51.7187 43.5389 51.7714 43.554 51.7714 43.5314C51.7714 43.5088 51.7714 43.4937 51.8166 43.4711C51.7413 43.4711 51.7714 43.4711 51.8166 43.4109C51.8618 43.3507 51.8919 43.3582 51.8166 43.3431C51.7413 43.328 51.8166 43.2678 51.8166 43.2226C51.8166 43.1774 51.9145 43.1398 51.8919 43.1247C51.8693 43.1097 51.8015 43.1247 51.794 43.1247C51.7864 43.1247 51.6358 43.1247 51.794 43.0117C51.794 42.9666 51.8467 42.8687 51.7412 42.8988C51.6358 42.9289 51.7412 42.831 51.794 42.7783C51.8467 42.7256 51.7939 42.6954 51.6885 42.7783C51.5831 42.8611 51.6885 42.7256 51.6885 42.6879C51.6885 42.6503 51.6885 42.6126 51.6208 42.6879C51.553 42.7632 51.6207 42.6277 51.553 42.6051C51.5298 42.5781 51.5046 42.5529 51.4777 42.5298C51.2593 42.3189 51.0408 42.221 51.0408 42.093C51.0408 41.9649 51.1087 41.9499 51.2593 41.9047C51.4821 41.8509 51.7159 41.8667 51.9295 41.9499C51.9822 41.9499 52.1329 41.867 52.1027 42.0252C52.1479 42.0628 52.291 42.0252 52.2759 42.1306C52.4793 42.0176 52.4115 42.2059 52.4491 42.2662C52.4868 42.3264 52.5019 42.4168 52.6149 42.4394C52.7278 42.462 52.6149 42.6051 52.7655 42.6427C52.6826 42.7783 52.7655 42.8385 52.886 42.8837C52.8408 42.9515 52.886 42.9892 52.886 43.0268C52.886 43.0645 52.9688 43.1096 52.9688 43.1548C52.788 43.2829 52.9311 43.3506 53.0215 43.4561C53.0347 43.479 53.0417 43.5049 53.0417 43.5314C53.0417 43.5578 53.0347 43.5838 53.0215 43.6067C53.0103 43.6588 53.0103 43.7127 53.0215 43.7648C52.9763 43.8628 53.0215 43.9908 52.9688 44.0887C53.0215 44.2242 53.0065 44.3598 52.8483 44.4125C52.8483 44.5481 52.7504 44.6234 52.6751 44.7213C52.6726 44.7526 52.6623 44.7827 52.6452 44.809C52.6281 44.8353 52.6048 44.857 52.5772 44.8719C52.532 44.9171 52.4793 44.9472 52.4416 44.9924C52.404 45.0376 52.3287 45.0527 52.2609 45.0602C52.1931 45.0677 52.1404 45.1054 52.1479 45.2259C52.1555 45.3464 51.9145 45.3238 51.809 45.4066C51.6787 45.4141 51.5522 45.4529 51.44 45.5196C51.3496 45.4217 51.2894 45.4142 51.2291 45.4367C51.1624 45.4733 51.0994 45.5162 51.0408 45.5648C50.9764 45.5796 50.9095 45.5796 50.845 45.5648C50.7773 45.5502 50.7115 45.5274 50.6492 45.497C50.5166 45.4895 50.3875 45.4508 50.2727 45.384C50.2049 45.384 50.1522 45.3388 50.107 45.2937C50.0618 45.2485 50.0167 45.2033 49.9413 45.2033C49.866 45.2033 49.8208 45.1506 49.7907 45.0903C49.7606 45.0301 49.7229 44.9774 49.6476 44.9698C49.5824 44.9569 49.5222 44.9256 49.4744 44.8795C49.4503 44.8565 49.4323 44.8281 49.4218 44.7966C49.4113 44.7651 49.4087 44.7315 49.4142 44.6987C49.3865 44.6399 49.3736 44.5753 49.3765 44.5104C49.3765 44.4502 49.3765 44.405 49.2334 44.3899C49.0903 44.3749 49.0978 44.3297 49.0526 44.2845C49.0074 44.2393 48.9924 44.1715 49.1204 44.0736C49.0677 44.0284 49.1204 43.9607 49.1204 43.9004C49.1204 43.8402 49.1204 43.7874 49.0753 43.7498C49.1732 43.682 49.1731 43.6293 49.1505 43.5841C49.1279 43.5389 49.0677 43.4862 49.0753 43.4335C49.0828 43.3808 49.2033 43.2452 49.1204 43.1398C49.0376 43.0343 49.1204 43.0343 49.1204 42.9892C49.141 42.974 49.1583 42.9549 49.1712 42.9329C49.1842 42.9109 49.1925 42.8865 49.1957 42.8611C49.1505 42.8009 49.1957 42.7707 49.256 42.7406C49.3162 42.7105 49.369 42.6954 49.3238 42.6201C49.2786 42.5448 49.384 42.462 49.4669 42.4168C49.369 42.2963 49.3991 42.2586 49.4669 42.2511C49.527 42.2556 49.5875 42.2556 49.6476 42.2511C49.6928 42.2511 49.6476 42.1758 49.6476 42.1306C49.6476 42.0854 49.6853 42.0553 49.7832 42.1306C49.6853 41.9122 49.8735 42.0101 49.9639 42.0252C50.0543 42.0402 50.0166 41.8746 50.1371 41.9499C50.1371 41.7767 50.2802 41.9499 50.2953 41.9047C50.3857 41.98 50.3932 41.9047 50.4459 41.9047C50.4986 41.9047 50.5287 41.852 50.5815 41.9047H50.7019C50.7874 41.919 50.8692 41.9496 50.9429 41.9951C50.9518 42.0124 50.9571 42.0313 50.9584 42.0508C50.9597 42.0702 50.957 42.0897 50.9505 42.108Z" fill="#5D270D"/>
<path d="M50.9511 49.9953C50.9511 50.0857 50.8608 50.161 50.7252 50.2589L50.6574 50.3116C50.6574 50.3116 50.6198 50.3719 50.5897 50.3719C50.5595 50.3719 50.5896 50.5827 50.5143 50.4396C50.4691 50.4396 50.4541 50.4396 50.4466 50.515C50.439 50.5903 50.3486 50.515 50.3712 50.5978C50.3938 50.6806 50.3712 50.658 50.326 50.5978C50.2809 50.5375 50.2357 50.5451 50.326 50.658C50.3294 50.6684 50.3306 50.6795 50.3293 50.6903C50.328 50.7012 50.3244 50.7116 50.3186 50.721C50.3129 50.7303 50.3052 50.7382 50.2961 50.7443C50.2869 50.7503 50.2766 50.7543 50.2658 50.756C50.1152 50.6806 50.2131 50.8237 50.2206 50.8689C50.0324 50.7936 50.07 50.8689 50.2206 50.9819C49.9571 50.899 49.9721 50.9819 50.2206 51.1024C50.2206 51.14 50.1001 51.1626 50.2206 51.2229C50.3411 51.2831 50.2809 51.3132 50.2206 51.3509C50.4089 51.3961 50.3939 51.4111 50.2206 51.4789C50.4164 51.4789 50.3487 51.5241 50.2658 51.5994C50.183 51.6747 50.2658 51.6446 50.311 51.6446C50.3562 51.6446 50.3863 51.6446 50.311 51.7049C50.2357 51.7651 50.3863 51.7576 50.3863 51.8103C50.3776 51.8475 50.3776 51.8861 50.3863 51.9233C50.3863 51.9233 50.4315 51.9233 50.5068 51.9233C50.5821 51.9233 50.6424 51.9233 50.6198 51.9986C50.7629 51.8404 50.7328 51.9308 50.7403 52.0513C50.7403 52.0513 50.7779 52.0513 50.793 52.104C50.808 52.1567 50.8382 52.104 50.8683 52.104C50.8984 52.104 50.9135 52.104 50.9361 52.104C50.9586 52.104 50.9813 52.104 51.0039 52.104C51.0228 52.1326 51.0487 52.1559 51.0791 52.1718C51.0791 52.1718 51.1319 52.1718 51.1469 52.0965C51.162 52.0212 51.147 52.0287 51.1997 52.0513C51.2524 52.0739 51.2599 52.0889 51.275 52.0513C51.29 52.0136 51.3503 52.104 51.3578 52.0513C51.3653 51.9986 51.3578 51.9609 51.3578 51.9835C51.3578 52.0061 51.5009 52.0212 51.4632 51.9082C51.4589 51.8833 51.4589 51.8578 51.4632 51.8329C51.4632 51.8329 51.4633 51.8329 51.5386 51.8329C51.4331 51.7275 51.4557 51.7274 51.5386 51.735C51.6214 51.7425 51.6666 51.735 51.6515 51.735C51.6365 51.735 51.7193 51.735 51.7118 51.6973C51.7042 51.6597 51.7118 51.6446 51.7118 51.6295C51.7118 51.6145 51.7118 51.6295 51.757 51.5693C51.8021 51.509 51.8097 51.5317 51.757 51.5091C51.7042 51.4865 51.757 51.4639 51.757 51.4413C51.757 51.4187 51.757 51.4413 51.8021 51.381C51.7268 51.381 51.757 51.3434 51.8021 51.3208C51.8473 51.2982 51.8775 51.2681 51.8021 51.253C51.7268 51.2379 51.8021 51.1777 51.8021 51.1325C51.8021 51.0873 51.9 51.0497 51.8774 51.0346C51.8548 51.0195 51.7871 51.0346 51.7795 51.0346C51.772 51.0346 51.6214 51.0346 51.7795 50.9141C51.7795 50.8764 51.8248 50.7785 51.7269 50.8087C51.6289 50.8388 51.7268 50.7334 51.7795 50.6882C51.8322 50.643 51.7796 50.6053 51.6741 50.6882C51.5687 50.771 51.6741 50.6355 51.6741 50.5978C51.6741 50.5601 51.6741 50.5225 51.6063 50.5978C51.5385 50.6731 51.5612 50.5375 51.5386 50.515L51.4632 50.4396C51.2448 50.2288 51.0264 50.1309 51.0264 49.9953C51.0264 49.8597 51.0942 49.8598 51.2449 49.8146C51.4673 49.7567 51.7025 49.7726 51.9151 49.8598C51.9678 49.8598 52.1185 49.7769 52.0883 49.9351C52.1335 49.9727 52.2766 49.9351 52.2615 50.0405C52.4649 49.9275 52.3971 50.1158 52.4348 50.1761C52.4724 50.2363 52.4799 50.3267 52.6004 50.3493C52.7209 50.3719 52.6004 50.515 52.7511 50.5526C52.6682 50.6882 52.751 50.7409 52.8715 50.7936C52.8264 50.8614 52.8715 50.899 52.8715 50.9367C52.8715 50.9743 52.9544 51.0195 52.9544 51.0647C52.7737 51.1927 52.9167 51.2605 53.0071 51.366C53.0975 51.4714 53.0071 51.4639 53.0071 51.5166C52.9959 51.5687 52.9959 51.6226 53.0071 51.6747C52.9619 51.7726 53.0071 51.9007 52.9544 51.9986C53.0071 52.1341 52.9921 52.2697 52.8414 52.3224C52.8414 52.458 52.736 52.5333 52.6607 52.6237C52.6595 52.6562 52.6498 52.6879 52.6326 52.7157C52.6154 52.7434 52.5914 52.7662 52.5628 52.7818C52.5142 52.8179 52.4688 52.8582 52.4272 52.9023C52.3896 52.9625 52.3143 52.9625 52.2465 52.9701C52.1787 52.9776 52.126 53.0153 52.1335 53.1358C52.141 53.2563 51.9 53.2337 51.7946 53.3165C51.6643 53.324 51.5378 53.3628 51.4256 53.4295C51.3352 53.3316 51.2749 53.324 51.2147 53.3466C51.1481 53.3804 51.085 53.4208 51.0264 53.4671C50.9624 53.4851 50.8947 53.4851 50.8307 53.4671C50.7629 53.4525 50.6971 53.4298 50.6348 53.3993C50.5028 53.3884 50.3745 53.3499 50.2583 53.2864C50.1905 53.2864 50.1378 53.2412 50.0926 53.196C50.0474 53.1508 50.0022 53.0981 49.9269 53.1056C49.8516 53.1132 49.8064 53.0529 49.7763 53.0002C49.7462 52.9475 49.7085 52.8797 49.6332 52.8722C49.568 52.8593 49.5079 52.8279 49.46 52.7818C49.4365 52.7585 49.4188 52.73 49.4083 52.6986C49.3978 52.6672 49.3949 52.6338 49.3997 52.6011C49.3721 52.5423 49.3591 52.4777 49.3621 52.4128C49.3621 52.345 49.3621 52.2998 49.219 52.2923C49.0759 52.2848 49.0834 52.232 49.0307 52.1868C48.978 52.1417 48.978 52.0739 49.106 51.976C49.0533 51.9308 49.0684 51.863 49.106 51.8028C49.1437 51.7425 49.106 51.6898 49.0608 51.6521C49.1587 51.5768 49.1588 51.5316 49.1362 51.4865C49.1136 51.4413 49.0533 51.3886 49.0608 51.3358C49.0684 51.2831 49.1889 51.1476 49.106 51.0346C49.0232 50.9216 49.106 50.9292 49.106 50.8915C49.106 50.8539 49.1814 50.8162 49.1814 50.7635C49.1814 50.7108 49.1813 50.6656 49.2491 50.643C49.3169 50.6204 49.3546 50.5978 49.3094 50.5225C49.2642 50.4472 49.3696 50.3643 49.4525 50.3191C49.3546 50.1987 49.3847 50.161 49.4525 50.1535C49.5126 50.1579 49.573 50.1579 49.6332 50.1535C49.6784 50.1535 49.6332 50.0782 49.6332 50.033C49.6332 49.9878 49.6708 49.9577 49.7688 50.033C49.6708 49.8146 49.8591 49.9125 49.9495 49.9275C50.0399 49.9426 50.0022 49.7769 50.1227 49.8522C50.1227 49.679 50.2658 49.8522 50.2809 49.807C50.3712 49.8748 50.3788 49.807 50.4315 49.807C50.4842 49.807 50.5143 49.7543 50.567 49.807H50.6876C50.7747 49.8144 50.8581 49.8456 50.9286 49.8974C50.9484 49.9259 50.9564 49.961 50.9511 49.9953Z" fill="#5D270D"/>
<path d="M5.49323 33.1516C5.49323 33.1516 5.49323 33.1516 5.42545 33.1516H5.33506H5.2221C4.96483 33.2275 4.72971 33.3645 4.53677 33.5508C4.38801 33.6958 4.27206 33.8709 4.19671 34.0645C4.12136 34.2581 4.08838 34.4655 4.09998 34.6729C4.09998 35.2152 4.09998 35.8402 4.1527 36.5482C4.1527 37.0151 4.1527 37.5272 4.1527 38.0544C4.1527 38.1899 4.1527 38.3255 4.1527 38.4686C4.1527 38.6117 4.1527 38.6041 4.1527 38.6794C4.14845 38.7446 4.14845 38.81 4.1527 38.8752C4.17067 39.1152 4.25116 39.3463 4.38616 39.5455C4.44491 39.6594 4.53044 39.7572 4.63539 39.8307C4.74034 39.9041 4.86156 39.951 4.98863 39.9672C5.11139 39.9784 5.2349 39.9784 5.35765 39.9672H5.67396L5.92248 40.0124C6.62466 40.0572 7.329 40.0572 8.03119 40.0124C8.78429 39.9748 9.53739 40.0802 10.3282 40.0124C11.1264 39.794 11.9473 40.2459 12.7983 39.9748C13.6493 39.9221 14.5305 39.9748 15.4417 39.9748C16.3732 40.0686 17.3118 40.0686 18.2433 39.9748C19.2229 40.1404 20.2234 40.1404 21.203 39.9748C22.2205 40.2382 23.2883 40.2382 24.3058 39.9748C25.3895 40.0311 26.4755 40.0311 27.5592 39.9748C28.6587 39.9748 29.8185 39.907 30.9331 39.9748C32.0971 39.809 33.2787 39.809 34.4426 39.9748C35.6456 39.8278 36.862 39.8278 38.065 39.9748C39.2926 40.0802 40.5352 39.8016 41.8306 39.9748C43.0883 39.9748 44.3685 39.9296 45.6638 39.9748C46.9709 40.1067 48.288 40.1067 49.5951 39.9748C50.937 39.8957 52.2823 39.8957 53.6242 39.9748C54.9875 39.8128 56.3653 39.8128 57.7286 39.9748C59.1068 39.9748 60.5 40.0877 61.9083 39.9748C63.3091 40.0124 64.7325 39.8844 66.1483 39.9748C66.3601 39.9924 66.5712 39.9337 66.7433 39.8091C66.9207 39.6815 67.0463 39.4944 67.0972 39.2819C67.1009 39.2268 67.1009 39.1714 67.0972 39.1162V38.8752C67.0972 38.702 67.0972 38.5213 67.0972 38.3481C67.0972 37.9941 67.0972 37.6401 67.037 37.2937C66.9918 36.5941 66.9918 35.8922 67.037 35.1926V34.8461C67.0407 34.8212 67.0407 34.7958 67.037 34.7708C67.0311 34.6714 67.0055 34.5741 66.9617 34.4846C66.8744 34.302 66.7209 34.1593 66.5324 34.0855C66.4529 34.0168 66.3569 33.97 66.2538 33.9499H65.8019C65.4555 33.9499 65.1166 33.9499 64.7701 33.9499C64.0848 33.9499 63.407 34.0253 62.7292 33.9951C61.3737 33.9951 60.0331 33.8822 58.7076 33.9951C57.3822 34.1081 56.0643 34.0629 54.7689 33.9951C53.4736 34.2964 52.1933 33.9198 50.9356 33.9951C49.6704 33.8671 48.4277 33.9951 47.1701 33.9951C45.9124 33.9951 44.73 33.852 43.5476 33.9951C42.3577 33.9951 41.1904 34.093 40.0382 33.9951C38.8935 34.1457 37.7789 33.8671 36.6643 33.9951C35.5497 34.1232 34.4727 33.9951 33.4184 33.9951C32.3853 33.8711 31.3411 33.8711 30.3081 33.9951C29.3228 34.067 28.3336 34.067 27.3484 33.9951C26.4154 33.9388 25.4798 33.9388 24.5468 33.9951C23.6431 33.9951 22.7619 33.6562 21.9034 33.9951C21.0524 34.0478 20.2315 33.7541 19.4332 33.9951C18.6707 34.0934 17.8987 34.0934 17.1362 33.9951H15.0275C12.0151 33.9499 9.62023 33.8897 8.00106 33.837C7.16634 33.8536 6.33187 33.7931 5.50828 33.6562C6.51885 33.4927 7.54256 33.4247 8.56589 33.4529C10.5541 33.3926 13.4686 33.3324 17.1362 33.2797C17.8998 33.2002 18.6696 33.2002 19.4332 33.2797C20.2561 33.2379 21.0805 33.2379 21.9034 33.2797C22.7809 33.1665 23.6693 33.1665 24.5468 33.2797C25.458 33.2797 26.3919 33.3324 27.3484 33.2797C28.3048 33.227 29.2989 33.3399 30.3081 33.2797C31.3409 33.4074 32.3856 33.4074 33.4184 33.2797C34.4994 33.3435 35.5833 33.3435 36.6643 33.2797C37.7844 33.4227 38.9181 33.4227 40.0382 33.2797C41.1904 33.2119 42.3577 33.2797 43.5476 33.2797C44.7375 33.2797 45.9425 33.227 47.1701 33.2797C48.4229 33.1724 49.6827 33.1724 50.9356 33.2797C52.1933 33.2119 53.4736 33.2797 54.7689 33.2797C56.0643 33.2797 57.3746 33.2797 58.7076 33.2797C60.0468 33.3663 61.3901 33.3663 62.7292 33.2797C63.407 33.2797 64.0848 33.2797 64.7701 33.2797H66.3818C66.6412 33.2974 66.8957 33.3585 67.1349 33.4604C67.5867 33.6742 67.9548 34.0318 68.1817 34.4771C68.2916 34.7 68.3653 34.939 68.4001 35.185V35.3658V35.8026C68.4001 36.503 68.4001 37.2033 68.4001 37.9037C68.3422 38.2525 68.3071 38.6047 68.2947 38.9581C68.2947 39.1313 68.2947 39.312 68.2947 39.4853V39.779C68.2875 39.8978 68.2724 40.0161 68.2495 40.1329C68.1554 40.6193 67.904 41.0612 67.5341 41.3906C67.1507 41.7265 66.665 41.9229 66.1559 41.9479C64.725 42.0157 63.3166 41.9479 61.9083 41.9479C60.5 41.9479 59.1068 41.9479 57.7286 41.9479C56.3504 41.9479 54.9798 41.85 53.6242 41.9479C52.2686 42.0458 50.9281 41.85 49.5951 41.9479C48.2861 42.0346 46.9728 42.0346 45.6638 41.9479C44.3878 41.8538 43.1066 41.8538 41.8306 41.9479C40.5813 42.1202 39.3143 42.1202 38.065 41.9479C36.8375 42.0232 35.625 41.7973 34.4426 41.9479C33.2752 41.8425 32.1006 41.8425 30.9331 41.9479C29.8096 41.8765 28.6827 41.8765 27.5592 41.9479C26.4521 42.0534 25.3677 41.8952 24.3058 41.9479C23.2439 42.0006 22.2122 41.7822 21.203 41.9479C20.1938 41.9479 19.2073 41.9479 18.2433 41.9479C17.2869 42.2416 16.353 41.9479 15.4417 41.9479C14.5629 42.0386 13.6771 42.0386 12.7983 41.9479C11.9812 42.0913 11.1453 42.0913 10.3282 41.9479C9.53739 41.8801 8.76923 42.0458 8.03119 41.9479C7.32915 41.9972 6.62451 41.9972 5.92248 41.9479L5.67396 41.9103H5.41037C5.21489 41.8971 5.02224 41.8565 4.83803 41.7898C4.4806 41.6693 4.17331 41.4335 3.96442 41.1195C3.73951 40.836 3.61266 40.4872 3.60292 40.1254C3.59916 40.0501 3.59916 39.9747 3.60292 39.8995C3.60654 39.8292 3.60654 39.7588 3.60292 39.6886C3.60292 39.5455 3.60291 39.4099 3.64057 39.2744C3.64057 38.7397 3.64058 38.2276 3.67824 37.7682C3.67824 37.0603 3.67823 36.4352 3.73848 35.8929C3.74186 35.6159 3.81434 35.3441 3.94935 35.1022C4.07062 34.8676 4.24842 34.667 4.46669 34.5184C4.68496 34.3698 4.93682 34.278 5.1995 34.2512H5.41791C5.47063 33.1291 5.49323 33.1366 5.49323 33.1516Z" fill="#5D270D"/>
<path d="M57.7435 54.3725C57.6606 54.3725 57.5778 53.9131 57.51 53.0771C57.51 52.9416 57.51 52.791 57.51 52.6328C57.4942 52.4625 57.4942 52.291 57.51 52.1207C57.623 51.94 57.3067 51.7517 57.51 51.5559C57.5537 51.3498 57.5537 51.1369 57.51 50.9308C57.51 50.7124 57.5853 50.4865 57.51 50.253C57.4347 50.0195 57.751 49.771 57.51 49.4999C57.4744 49.2501 57.4744 48.9966 57.51 48.7468C57.5817 48.6213 57.6031 48.4733 57.5702 48.3326V48.2347V48.1895C57.5562 48.1652 57.5436 48.14 57.5326 48.1142C57.5734 48.0797 57.6046 48.0352 57.6231 47.985C57.6416 47.9349 57.6467 47.8807 57.638 47.828C57.5373 47.8511 57.4425 47.8947 57.3594 47.956C57.3636 47.9303 57.3617 47.9039 57.3539 47.8791C57.346 47.8542 57.3324 47.8315 57.3142 47.8129C57.2895 47.8009 57.2625 47.7947 57.2351 47.7947C57.2077 47.7947 57.1807 47.8009 57.156 47.8129C56.9821 47.8326 56.8188 47.9064 56.6891 48.0238C56.3728 47.9676 56.049 47.9676 55.7326 48.0238C55.3996 48.0577 55.0641 48.0577 54.731 48.0238C54.5706 48.1076 54.3924 48.1514 54.2114 48.1514C54.0304 48.1514 53.8521 48.1076 53.6917 48.0238C53.5228 48.0963 53.3409 48.1337 53.157 48.1337C52.9732 48.1337 52.7913 48.0963 52.6224 48.0238C52.2609 47.9184 51.8692 48.197 51.5153 48.0238C51.1462 48.0238 50.7621 48.069 50.3781 48.0238C50.0027 47.8918 49.5936 47.8918 49.2183 48.0238C48.8256 48.1029 48.4211 48.1029 48.0284 48.0238C47.835 48.1042 47.6277 48.1456 47.4184 48.1456C47.209 48.1456 47.0017 48.1042 46.8084 48.0238C46.3977 47.9824 45.9839 47.9824 45.5732 48.0238H45.016C45.016 48.0238 45.016 48.0238 44.9181 48.0238C44.8653 48.0238 44.8201 48.0238 44.9181 48.5434C45.016 49.0631 44.8578 49.3719 44.9181 49.7785C44.7222 50.1927 44.9858 50.5919 44.9181 50.9986C44.8767 51.3941 44.8767 51.7929 44.9181 52.1885C44.9779 52.5727 44.9779 52.964 44.9181 53.3483C44.9496 53.3935 44.9774 53.4414 45.0009 53.4914V53.529C44.9743 53.5512 44.9536 53.5797 44.9407 53.6118C44.9407 53.6118 44.9407 53.6796 44.9407 53.657C44.9405 53.6698 44.945 53.6822 44.9534 53.6919C44.9617 53.7016 44.9732 53.7079 44.9859 53.7098H44.8352C45.018 53.6912 45.2022 53.6912 45.385 53.7098C45.7465 53.6495 46.1381 53.8453 46.4544 53.7098C46.7994 53.6645 47.1488 53.6645 47.4937 53.7098C47.8326 53.5591 48.1715 53.8302 48.4953 53.7098C48.8191 53.5893 49.143 53.7098 49.4593 53.7098C49.7681 53.9432 50.0768 53.7474 50.3781 53.7098C50.6793 53.6721 50.9655 53.5742 51.2517 53.7098C51.525 53.766 51.8068 53.766 52.0801 53.7098C52.3512 53.6721 52.6073 54.0486 52.8332 53.7098C53.0817 53.657 53.3302 53.9507 53.5863 53.7098C53.8424 53.4688 54.0457 53.7098 54.2641 53.7098H54.8892C56.6816 53.8077 57.7058 53.9206 57.7058 54.0411C57.7058 54.1616 56.4406 54.3198 54.2641 54.4327C54.0532 54.4327 53.8198 54.606 53.5863 54.4327C53.3528 54.4327 53.1118 54.5608 52.8332 54.4704C52.5847 54.6888 52.3211 54.508 52.0801 54.4704C51.8055 54.4294 51.5263 54.4294 51.2517 54.4704C50.9655 54.5984 50.6793 54.4101 50.3781 54.4704C50.2331 54.4074 50.0767 54.3748 49.9187 54.3748C49.7606 54.3748 49.6043 54.4074 49.4593 54.4704C49.143 54.3424 48.8267 54.4704 48.4953 54.4704C48.1715 54.267 47.8401 54.4101 47.5012 54.4704C47.1623 54.5306 46.8159 54.4704 46.4619 54.4704C46.1079 54.4704 45.754 54.5231 45.3925 54.4704C45.2134 54.5218 45.0289 54.5521 44.8428 54.5608H44.775H44.6545L44.4135 54.5231C44.2553 54.5231 44.0972 54.4553 43.9616 54.4101H43.8035H43.7583C43.5737 54.2515 43.4401 54.0419 43.3742 53.8077C43.3633 53.7252 43.3633 53.6416 43.3742 53.5591V52.9341C43.344 52.548 43.344 52.1603 43.3742 51.7743C43.3365 51.3826 43.5926 50.9835 43.3742 50.5844C43.3742 50.1777 43.3742 49.7785 43.3742 49.3643C43.4194 48.9539 43.4194 48.5397 43.3742 48.1292C43.5263 47.5211 43.5263 46.8848 43.3742 46.2766H43.5097C43.8788 46.2766 44.2629 46.2766 44.6921 46.2766H45.0762H45.385C45.7992 46.2766 46.2134 46.2766 46.6201 46.2766C47.0268 46.2766 47.4334 46.3745 47.8401 46.2766C48.2468 46.1787 48.6384 46.3745 49.03 46.2766C49.4118 46.19 49.808 46.19 50.1898 46.2766C50.5739 46.2766 50.9429 46.4724 51.327 46.2766C51.7035 46.2389 52.0801 45.9904 52.4341 46.2766C52.7956 46.2013 53.1872 46.4272 53.5035 46.2766C53.8574 46.495 54.2039 46.2766 54.5428 46.2766C54.8728 46.3481 55.2143 46.3481 55.5444 46.2766C55.8682 46.1712 56.192 46.3369 56.5008 46.2766C56.652 46.2238 56.8166 46.2238 56.9677 46.2766C57.0737 46.3034 57.1823 46.3185 57.2916 46.3218C57.4233 46.3306 57.5556 46.3179 57.6832 46.2841C57.9016 46.2841 58.1275 46.2841 58.3535 46.2841C58.3723 46.5474 58.3723 46.8116 58.3535 47.0749C58.4289 47.1697 58.4736 47.2853 58.4815 47.4063C58.4894 47.4688 58.4894 47.532 58.4815 47.5945C58.4886 47.6293 58.4886 47.6652 58.4815 47.7C58.4273 47.8324 58.382 47.9682 58.3459 48.1066C58.3007 48.3778 58.5417 48.6414 58.3459 48.8598C58.5643 49.1158 58.3459 49.3568 58.3459 49.6129C58.3459 49.8689 58.4363 50.0798 58.3083 50.2907C58.4664 50.5091 58.2179 50.7199 58.3083 50.9157C58.2029 51.1191 58.3083 51.3073 58.2706 51.4881C58.3198 51.6527 58.3198 51.8281 58.2706 51.9927C58.2706 52.1584 58.2706 52.3014 58.2706 52.4445C57.9092 53.898 57.8263 54.3725 57.7435 54.3725Z" fill="#5D270D"/>
</svg>
